G04*
G04 #@! TF.GenerationSoftware,Altium Limited,Altium Designer,26.5.0 (11)*
G04*
G04 Layer_Color=8388736*
G04 Board_Origin=35978347|37896062*
%FSLAX44Y44*%
%MOMM*%
G71*
G04*
G04 #@! TF.SameCoordinates,F414C389-7A47-4758-8F6A-5CB98E730E64*
G04*
G04*
G04 #@! TF.FilePolarity,Negative*
G04*
G01*
G75*
%ADD16R,0.4000X0.9000*%
%ADD17R,0.5000X0.9000*%
%ADD18R,1.6000X1.6000*%
%ADD19C,1.6000*%
%ADD20C,2.3000*%
%ADD21C,2.6000*%
D16*
X-17501Y-35000D02*
D03*
X-12501D02*
D03*
X-7501D02*
D03*
X-2501D02*
D03*
X2499D02*
D03*
X7499D02*
D03*
X12499D02*
D03*
X17499D02*
D03*
D17*
X-27501Y-10000D02*
D03*
X27499D02*
D03*
D18*
X-88000Y-122000D02*
D03*
Y-67000D02*
D03*
D19*
X-62600Y-122000D02*
D03*
X-37200D02*
D03*
X-11800D02*
D03*
X13600D02*
D03*
X39000D02*
D03*
X64400D02*
D03*
X89800D02*
D03*
X-62600Y-67000D02*
D03*
X-37200D02*
D03*
X-11800D02*
D03*
X13600D02*
D03*
X39000D02*
D03*
X64400D02*
D03*
X89800D02*
D03*
D20*
X-135000Y-96000D02*
D03*
Y-18000D02*
D03*
X135000D02*
D03*
Y-96000D02*
D03*
D21*
X-135000Y-57000D02*
D03*
Y-135000D02*
D03*
X135000Y-57000D02*
D03*
Y-135000D02*
D03*
M02*
