G04*
G04 #@! TF.GenerationSoftware,Altium Limited,Altium Designer,26.5.0 (11)*
G04*
G04 Layer_Color=65535*
G04 Board_Origin=35978347|37896062*
%FSLAX44Y44*%
%MOMM*%
G71*
G04*
G04 #@! TF.SameCoordinates,F414C389-7A47-4758-8F6A-5CB98E730E64*
G04*
G04*
G04 #@! TF.FilePolarity,Positive*
G04*
G01*
G75*
%ADD10C,0.2000*%
%ADD11C,0.1600*%
%ADD12C,0.1270*%
%ADD13C,0.1500*%
G36*
X117475Y-15775D02*
X117575D01*
Y-15800D01*
X117650D01*
Y-15825D01*
X117700D01*
Y-15850D01*
X117750D01*
Y-15875D01*
X117800D01*
Y-15900D01*
X117850D01*
Y-15925D01*
X117875D01*
Y-15950D01*
X117900D01*
Y-15975D01*
X117950D01*
Y-16000D01*
X117975D01*
Y-16025D01*
X118000D01*
Y-16075D01*
X118025D01*
Y-16100D01*
X118050D01*
Y-16125D01*
X118075D01*
Y-16150D01*
X118100D01*
Y-16200D01*
X118125D01*
Y-16250D01*
X118150D01*
Y-16300D01*
X118175D01*
Y-16375D01*
X118200D01*
Y-16450D01*
X118225D01*
Y-16625D01*
X118250D01*
Y-26875D01*
X118225D01*
Y-27050D01*
X118200D01*
Y-27125D01*
X118175D01*
Y-27200D01*
X118150D01*
Y-27250D01*
X118125D01*
Y-27300D01*
X118100D01*
Y-27325D01*
X118075D01*
Y-27375D01*
X118050D01*
Y-27400D01*
X118025D01*
Y-27425D01*
X118000D01*
Y-27450D01*
X117975D01*
Y-27475D01*
X117950D01*
Y-27500D01*
X117925D01*
Y-27525D01*
X117900D01*
Y-27550D01*
X117875D01*
Y-27575D01*
X117825D01*
Y-27600D01*
X117800D01*
Y-27625D01*
X117750D01*
Y-27650D01*
X117700D01*
Y-27675D01*
X117625D01*
Y-27700D01*
X117550D01*
Y-27725D01*
X117375D01*
Y-27750D01*
X113500D01*
Y-27725D01*
X113325D01*
Y-27700D01*
X113225D01*
Y-27675D01*
X113150D01*
Y-27650D01*
X113100D01*
Y-27625D01*
X113050D01*
Y-27600D01*
X113000D01*
Y-27575D01*
X112975D01*
Y-27550D01*
X112950D01*
Y-27525D01*
X112900D01*
Y-27500D01*
X112875D01*
Y-27475D01*
X112850D01*
Y-27450D01*
X112825D01*
Y-27425D01*
X112800D01*
Y-27400D01*
X112775D01*
Y-27350D01*
X112750D01*
Y-27325D01*
X112725D01*
Y-27275D01*
X112700D01*
Y-27225D01*
X112675D01*
Y-27175D01*
X112650D01*
Y-27100D01*
X112625D01*
Y-27025D01*
X112600D01*
Y-23425D01*
X112575D01*
Y-23275D01*
X112550D01*
Y-23200D01*
X112525D01*
Y-23125D01*
X112500D01*
Y-23075D01*
X112475D01*
Y-23025D01*
X112450D01*
Y-22975D01*
X112425D01*
Y-22950D01*
X112400D01*
Y-22900D01*
X112375D01*
Y-22875D01*
X112350D01*
Y-22850D01*
X112300D01*
Y-22825D01*
X112250D01*
Y-22800D01*
X112125D01*
Y-22825D01*
X112050D01*
Y-22850D01*
X112025D01*
Y-22875D01*
X112000D01*
Y-22900D01*
X111975D01*
Y-22925D01*
X111950D01*
Y-22950D01*
X111925D01*
Y-22975D01*
X111900D01*
Y-23000D01*
X111875D01*
Y-23025D01*
X111850D01*
Y-23050D01*
X111825D01*
Y-23075D01*
X111800D01*
Y-23100D01*
X111775D01*
Y-23125D01*
X111750D01*
Y-23150D01*
X111725D01*
Y-23175D01*
X111700D01*
Y-23200D01*
X111675D01*
Y-23225D01*
X111650D01*
Y-23250D01*
X111625D01*
Y-23275D01*
X111600D01*
Y-23300D01*
X111575D01*
Y-23350D01*
X111550D01*
Y-23375D01*
X111525D01*
Y-23400D01*
X111500D01*
Y-23425D01*
X111475D01*
Y-23450D01*
X111450D01*
Y-23475D01*
X111425D01*
Y-23500D01*
X111400D01*
Y-23525D01*
X111375D01*
Y-23550D01*
X111350D01*
Y-23575D01*
X111325D01*
Y-23600D01*
X111300D01*
Y-23625D01*
X111275D01*
Y-23650D01*
X111250D01*
Y-23675D01*
X111225D01*
Y-23700D01*
X111200D01*
Y-23725D01*
X111175D01*
Y-23750D01*
X111150D01*
Y-23775D01*
X111125D01*
Y-23800D01*
X111100D01*
Y-23825D01*
X111075D01*
Y-23850D01*
X111050D01*
Y-23900D01*
X111025D01*
Y-23925D01*
X111000D01*
Y-23950D01*
X110975D01*
Y-23975D01*
X110950D01*
Y-24000D01*
X110925D01*
Y-24025D01*
X110900D01*
Y-24050D01*
X110875D01*
Y-24075D01*
X110850D01*
Y-24100D01*
X110825D01*
Y-24125D01*
X110800D01*
Y-24150D01*
X110775D01*
Y-24175D01*
X110750D01*
Y-24200D01*
X110725D01*
Y-24225D01*
X110700D01*
Y-24250D01*
X110675D01*
Y-24275D01*
X110650D01*
Y-24300D01*
X110625D01*
Y-24325D01*
X110600D01*
Y-24350D01*
X110575D01*
Y-24400D01*
X110550D01*
Y-24425D01*
X110525D01*
Y-24450D01*
X110500D01*
Y-24475D01*
X110475D01*
Y-24500D01*
X110450D01*
Y-24525D01*
X110425D01*
Y-24550D01*
X110400D01*
Y-24575D01*
X110375D01*
Y-24600D01*
X110350D01*
Y-24625D01*
X110325D01*
Y-24650D01*
X110300D01*
Y-24675D01*
X110275D01*
Y-24700D01*
X110250D01*
Y-24725D01*
X110225D01*
Y-24750D01*
X110200D01*
Y-24775D01*
X110175D01*
Y-24800D01*
X110150D01*
Y-24825D01*
X110125D01*
Y-24850D01*
X110100D01*
Y-24900D01*
X110075D01*
Y-24925D01*
X110050D01*
Y-24950D01*
X110025D01*
Y-24975D01*
X110000D01*
Y-25000D01*
X109975D01*
Y-25025D01*
X109950D01*
Y-25050D01*
X109925D01*
Y-25075D01*
X109900D01*
Y-25100D01*
X109875D01*
Y-25125D01*
X109850D01*
Y-25150D01*
X109825D01*
Y-25175D01*
X109800D01*
Y-25200D01*
X109775D01*
Y-25225D01*
X109750D01*
Y-25250D01*
X109725D01*
Y-25275D01*
X109700D01*
Y-25300D01*
X109675D01*
Y-25325D01*
X109650D01*
Y-25350D01*
X109625D01*
Y-25400D01*
X109600D01*
Y-25425D01*
X109575D01*
Y-25450D01*
X109550D01*
Y-25475D01*
X109525D01*
Y-25500D01*
X109500D01*
Y-25525D01*
X109475D01*
Y-25550D01*
X109450D01*
Y-25575D01*
X109425D01*
Y-25600D01*
X109400D01*
Y-25625D01*
X109375D01*
Y-25650D01*
X109350D01*
Y-25675D01*
X109325D01*
Y-25700D01*
X109300D01*
Y-25725D01*
X109275D01*
Y-25750D01*
X109250D01*
Y-25775D01*
X109225D01*
Y-25800D01*
X109200D01*
Y-25825D01*
X109175D01*
Y-25850D01*
X109150D01*
Y-25900D01*
X109125D01*
Y-25925D01*
X109100D01*
Y-25950D01*
X109075D01*
Y-25975D01*
X109050D01*
Y-26000D01*
X109025D01*
Y-26025D01*
X109000D01*
Y-26050D01*
X108975D01*
Y-26075D01*
X108950D01*
Y-26100D01*
X108925D01*
Y-26125D01*
X108900D01*
Y-26150D01*
X108875D01*
Y-26175D01*
X108850D01*
Y-26200D01*
X108825D01*
Y-26225D01*
X108800D01*
Y-26250D01*
X108775D01*
Y-26275D01*
X108750D01*
Y-26300D01*
X108725D01*
Y-26325D01*
X108700D01*
Y-26350D01*
X108675D01*
Y-26400D01*
X108650D01*
Y-26425D01*
X108625D01*
Y-26450D01*
X108600D01*
Y-26475D01*
X108575D01*
Y-26500D01*
X108550D01*
Y-26525D01*
X108525D01*
Y-26550D01*
X108500D01*
Y-26575D01*
X108475D01*
Y-26600D01*
X108450D01*
Y-26625D01*
X108425D01*
Y-26650D01*
X108400D01*
Y-26675D01*
X108375D01*
Y-26700D01*
X108350D01*
Y-26725D01*
X108325D01*
Y-26750D01*
X108300D01*
Y-26775D01*
X108275D01*
Y-26800D01*
X108250D01*
Y-26825D01*
X108225D01*
Y-26850D01*
X108200D01*
Y-26900D01*
X108175D01*
Y-26925D01*
X108150D01*
Y-26950D01*
X108125D01*
Y-26975D01*
X108100D01*
Y-27000D01*
X108075D01*
Y-27025D01*
X108050D01*
Y-27050D01*
X108025D01*
Y-27075D01*
X108000D01*
Y-27100D01*
X107975D01*
Y-27125D01*
X107950D01*
Y-27150D01*
X107925D01*
Y-27175D01*
X107900D01*
Y-27200D01*
X107875D01*
Y-27225D01*
X107850D01*
Y-27250D01*
X107825D01*
Y-27275D01*
X107800D01*
Y-27300D01*
X107775D01*
Y-27325D01*
X107750D01*
Y-27350D01*
X107725D01*
Y-27400D01*
X107700D01*
Y-27425D01*
X107675D01*
Y-27450D01*
X107625D01*
Y-27475D01*
X107600D01*
Y-27500D01*
X107575D01*
Y-27525D01*
X107550D01*
Y-27550D01*
X107525D01*
Y-27575D01*
X107475D01*
Y-27600D01*
X107425D01*
Y-27625D01*
X107375D01*
Y-27650D01*
X107300D01*
Y-27675D01*
X107175D01*
Y-27700D01*
X106850D01*
Y-27675D01*
X106750D01*
Y-27650D01*
X106675D01*
Y-27625D01*
X106625D01*
Y-27600D01*
X106575D01*
Y-27575D01*
X106525D01*
Y-27550D01*
X106500D01*
Y-27525D01*
X106475D01*
Y-27500D01*
X106425D01*
Y-27475D01*
X106400D01*
Y-27450D01*
X106375D01*
Y-27425D01*
X106350D01*
Y-27400D01*
X106325D01*
Y-27375D01*
X106300D01*
Y-27350D01*
X106275D01*
Y-27325D01*
X106250D01*
Y-27275D01*
X106225D01*
Y-27250D01*
X106200D01*
Y-27225D01*
X106175D01*
Y-27200D01*
X106150D01*
Y-27175D01*
X106125D01*
Y-27150D01*
X106100D01*
Y-27125D01*
X106075D01*
Y-27100D01*
X106050D01*
Y-27075D01*
X106025D01*
Y-27050D01*
X106000D01*
Y-27025D01*
X105975D01*
Y-27000D01*
X105950D01*
Y-26975D01*
X105925D01*
Y-26950D01*
X105900D01*
Y-26925D01*
X105875D01*
Y-26900D01*
X105850D01*
Y-26875D01*
X105825D01*
Y-26850D01*
X105800D01*
Y-26825D01*
X105775D01*
Y-26775D01*
X105750D01*
Y-26750D01*
X105725D01*
Y-26725D01*
X105700D01*
Y-26700D01*
X105675D01*
Y-26675D01*
X105650D01*
Y-26650D01*
X105625D01*
Y-26625D01*
X105600D01*
Y-26600D01*
X105575D01*
Y-26575D01*
X105550D01*
Y-26550D01*
X105525D01*
Y-26525D01*
X105500D01*
Y-26500D01*
X105475D01*
Y-26475D01*
X105450D01*
Y-26450D01*
X105425D01*
Y-26425D01*
X105400D01*
Y-26400D01*
X105375D01*
Y-26375D01*
X105350D01*
Y-26350D01*
X105325D01*
Y-26325D01*
X105300D01*
Y-26275D01*
X105275D01*
Y-26250D01*
X105250D01*
Y-26225D01*
X105225D01*
Y-26200D01*
X105200D01*
Y-26175D01*
X105175D01*
Y-26150D01*
X105150D01*
Y-26125D01*
X105125D01*
Y-26100D01*
X105100D01*
Y-26075D01*
X105075D01*
Y-26050D01*
X105050D01*
Y-26025D01*
X105025D01*
Y-26000D01*
X105000D01*
Y-25975D01*
X104975D01*
Y-25950D01*
X104950D01*
Y-25925D01*
X104925D01*
Y-25900D01*
X104900D01*
Y-25875D01*
X104875D01*
Y-25850D01*
X104850D01*
Y-25825D01*
X104825D01*
Y-25775D01*
X104800D01*
Y-25750D01*
X104775D01*
Y-25725D01*
X104750D01*
Y-25700D01*
X104725D01*
Y-25675D01*
X104700D01*
Y-25650D01*
X104675D01*
Y-25625D01*
X104650D01*
Y-25600D01*
X104625D01*
Y-25575D01*
X104600D01*
Y-25550D01*
X104575D01*
Y-25525D01*
X104550D01*
Y-25500D01*
X104525D01*
Y-25475D01*
X104500D01*
Y-25450D01*
X104475D01*
Y-25425D01*
X104450D01*
Y-25400D01*
X104425D01*
Y-25375D01*
X104400D01*
Y-25350D01*
X104375D01*
Y-25325D01*
X104350D01*
Y-25275D01*
X104325D01*
Y-25250D01*
X104300D01*
Y-25225D01*
X104275D01*
Y-25200D01*
X104250D01*
Y-25175D01*
X104225D01*
Y-25150D01*
X104200D01*
Y-25125D01*
X104175D01*
Y-25100D01*
X104150D01*
Y-25075D01*
X104125D01*
Y-25050D01*
X104100D01*
Y-25025D01*
X104075D01*
Y-25000D01*
X104050D01*
Y-24975D01*
X104025D01*
Y-24950D01*
X104000D01*
Y-24925D01*
X103975D01*
Y-24900D01*
X103950D01*
Y-24875D01*
X103925D01*
Y-24850D01*
X103900D01*
Y-24825D01*
X103875D01*
Y-24775D01*
X103850D01*
Y-24750D01*
X103825D01*
Y-24725D01*
X103800D01*
Y-24700D01*
X103775D01*
Y-24675D01*
X103750D01*
Y-24650D01*
X103725D01*
Y-24625D01*
X103700D01*
Y-24600D01*
X103675D01*
Y-24575D01*
X103650D01*
Y-24550D01*
X103625D01*
Y-24525D01*
X103600D01*
Y-24500D01*
X103575D01*
Y-24475D01*
X103550D01*
Y-24450D01*
X103525D01*
Y-24425D01*
X103500D01*
Y-24400D01*
X103475D01*
Y-24375D01*
X103450D01*
Y-24350D01*
X103425D01*
Y-24325D01*
X103400D01*
Y-24300D01*
X103375D01*
Y-24250D01*
X103350D01*
Y-24225D01*
X103325D01*
Y-24200D01*
X103300D01*
Y-24175D01*
X103275D01*
Y-24150D01*
X103250D01*
Y-24125D01*
X103225D01*
Y-24100D01*
X103200D01*
Y-24075D01*
X103175D01*
Y-24050D01*
X103150D01*
Y-24025D01*
X103125D01*
Y-24000D01*
X103100D01*
Y-23975D01*
X103075D01*
Y-23950D01*
X103050D01*
Y-23925D01*
X103025D01*
Y-23900D01*
X103000D01*
Y-23875D01*
X102975D01*
Y-23850D01*
X102950D01*
Y-23825D01*
X102925D01*
Y-23800D01*
X102900D01*
Y-23775D01*
X102875D01*
Y-23750D01*
X102850D01*
Y-23700D01*
X102825D01*
Y-23675D01*
X102800D01*
Y-23650D01*
X102775D01*
Y-23625D01*
X102750D01*
Y-23600D01*
X102725D01*
Y-23575D01*
X102700D01*
Y-23550D01*
X102675D01*
Y-23525D01*
X102650D01*
Y-23500D01*
X102625D01*
Y-23475D01*
X102600D01*
Y-23450D01*
X102575D01*
Y-23425D01*
X102550D01*
Y-23400D01*
X102525D01*
Y-23375D01*
X102500D01*
Y-23350D01*
X102475D01*
Y-23325D01*
X102450D01*
Y-23300D01*
X102425D01*
Y-23275D01*
X102400D01*
Y-23225D01*
X102375D01*
Y-23200D01*
X102350D01*
Y-23175D01*
X102325D01*
Y-23150D01*
X102300D01*
Y-23125D01*
X102275D01*
Y-23100D01*
X102250D01*
Y-23075D01*
X102225D01*
Y-23050D01*
X102200D01*
Y-23025D01*
X102175D01*
Y-23000D01*
X102150D01*
Y-22975D01*
X102125D01*
Y-22950D01*
X102100D01*
Y-22925D01*
X102075D01*
Y-22900D01*
X102050D01*
Y-22875D01*
X102025D01*
Y-22850D01*
X102000D01*
Y-22825D01*
X101925D01*
Y-22800D01*
X101775D01*
Y-22825D01*
X101750D01*
Y-22850D01*
X101700D01*
Y-22875D01*
X101675D01*
Y-22900D01*
X101650D01*
Y-22925D01*
X101625D01*
Y-22975D01*
X101600D01*
Y-23000D01*
X101575D01*
Y-23050D01*
X101550D01*
Y-23100D01*
X101525D01*
Y-23175D01*
X101500D01*
Y-23250D01*
X101475D01*
Y-23375D01*
X101450D01*
Y-27000D01*
X101425D01*
Y-27100D01*
X101400D01*
Y-27175D01*
X101375D01*
Y-27225D01*
X101350D01*
Y-27275D01*
X101325D01*
Y-27300D01*
X101300D01*
Y-27350D01*
X101275D01*
Y-27375D01*
X101250D01*
Y-27400D01*
X101225D01*
Y-27450D01*
X101200D01*
Y-27475D01*
X101175D01*
Y-27500D01*
X101125D01*
Y-27525D01*
X101100D01*
Y-27550D01*
X101075D01*
Y-27575D01*
X101025D01*
Y-27600D01*
X101000D01*
Y-27625D01*
X100950D01*
Y-27650D01*
X100900D01*
Y-27675D01*
X100825D01*
Y-27700D01*
X100725D01*
Y-27725D01*
X100550D01*
Y-27750D01*
X96675D01*
Y-27725D01*
X96500D01*
Y-27700D01*
X96425D01*
Y-27675D01*
X96350D01*
Y-27650D01*
X96300D01*
Y-27625D01*
X96250D01*
Y-27600D01*
X96200D01*
Y-27575D01*
X96175D01*
Y-27550D01*
X96150D01*
Y-27525D01*
X96125D01*
Y-27500D01*
X96100D01*
Y-27475D01*
X96075D01*
Y-27450D01*
X96050D01*
Y-27425D01*
X96025D01*
Y-27400D01*
X96000D01*
Y-27375D01*
X95975D01*
Y-27350D01*
X95950D01*
Y-27300D01*
X95925D01*
Y-27250D01*
X95900D01*
Y-27200D01*
X95875D01*
Y-27150D01*
X95850D01*
Y-27050D01*
X95825D01*
Y-26925D01*
X95800D01*
Y-16575D01*
X95825D01*
Y-16425D01*
X95850D01*
Y-16350D01*
X95875D01*
Y-16275D01*
X95900D01*
Y-16225D01*
X95925D01*
Y-16200D01*
X95950D01*
Y-16150D01*
X95975D01*
Y-16125D01*
X96000D01*
Y-16075D01*
X96025D01*
Y-16050D01*
X96050D01*
Y-16025D01*
X96075D01*
Y-16000D01*
X96100D01*
Y-15975D01*
X96125D01*
Y-15950D01*
X96175D01*
Y-15925D01*
X96200D01*
Y-15900D01*
X96250D01*
Y-15875D01*
X96300D01*
Y-15850D01*
X96350D01*
Y-15825D01*
X96400D01*
Y-15800D01*
X96475D01*
Y-15775D01*
X96575D01*
Y-15750D01*
X101275D01*
Y-15775D01*
X101350D01*
Y-15800D01*
X101425D01*
Y-15825D01*
X101475D01*
Y-15850D01*
X101525D01*
Y-15875D01*
X101575D01*
Y-15900D01*
X101600D01*
Y-15925D01*
X101650D01*
Y-15950D01*
X101675D01*
Y-15975D01*
X101700D01*
Y-16000D01*
X101725D01*
Y-16025D01*
X101750D01*
Y-16050D01*
X101775D01*
Y-16075D01*
X101800D01*
Y-16100D01*
X101825D01*
Y-16125D01*
X101850D01*
Y-16150D01*
X101875D01*
Y-16175D01*
X101900D01*
Y-16200D01*
X101925D01*
Y-16225D01*
X101950D01*
Y-16250D01*
X101975D01*
Y-16275D01*
X102000D01*
Y-16300D01*
X102025D01*
Y-16325D01*
X102050D01*
Y-16350D01*
X102075D01*
Y-16375D01*
X102100D01*
Y-16400D01*
X102125D01*
Y-16425D01*
X102150D01*
Y-16450D01*
X102175D01*
Y-16500D01*
X102200D01*
Y-16525D01*
X102225D01*
Y-16550D01*
X102250D01*
Y-16575D01*
X102275D01*
Y-16600D01*
X102300D01*
Y-16625D01*
X102325D01*
Y-16650D01*
X102350D01*
Y-16675D01*
X102375D01*
Y-16700D01*
X102400D01*
Y-16725D01*
X102425D01*
Y-16750D01*
X102450D01*
Y-16775D01*
X102475D01*
Y-16800D01*
X102500D01*
Y-16825D01*
X102525D01*
Y-16850D01*
X102550D01*
Y-16875D01*
X102575D01*
Y-16900D01*
X102600D01*
Y-16925D01*
X102625D01*
Y-16975D01*
X102650D01*
Y-17000D01*
X102675D01*
Y-17025D01*
X102700D01*
Y-17050D01*
X102725D01*
Y-17075D01*
X102750D01*
Y-17100D01*
X102775D01*
Y-17125D01*
X102800D01*
Y-17150D01*
X102825D01*
Y-17175D01*
X102850D01*
Y-17200D01*
X102875D01*
Y-17225D01*
X102900D01*
Y-17250D01*
X102925D01*
Y-17275D01*
X102950D01*
Y-17300D01*
X102975D01*
Y-17325D01*
X103000D01*
Y-17350D01*
X103025D01*
Y-17375D01*
X103050D01*
Y-17400D01*
X103075D01*
Y-17425D01*
X103100D01*
Y-17475D01*
X103125D01*
Y-17500D01*
X103150D01*
Y-17525D01*
X103175D01*
Y-17550D01*
X103200D01*
Y-17575D01*
X103225D01*
Y-17600D01*
X103250D01*
Y-17625D01*
X103275D01*
Y-17650D01*
X103300D01*
Y-17675D01*
X103325D01*
Y-17700D01*
X103350D01*
Y-17725D01*
X103375D01*
Y-17750D01*
X103400D01*
Y-17775D01*
X103425D01*
Y-17800D01*
X103450D01*
Y-17825D01*
X103475D01*
Y-17850D01*
X103500D01*
Y-17875D01*
X103525D01*
Y-17900D01*
X103550D01*
Y-17925D01*
X103575D01*
Y-17950D01*
X103600D01*
Y-17975D01*
X103625D01*
Y-18025D01*
X103650D01*
Y-18050D01*
X103675D01*
Y-18075D01*
X103700D01*
Y-18100D01*
X103725D01*
Y-18125D01*
X103750D01*
Y-18150D01*
X103775D01*
Y-18175D01*
X103800D01*
Y-18200D01*
X103825D01*
Y-18225D01*
X103850D01*
Y-18250D01*
X103875D01*
Y-18275D01*
X103900D01*
Y-18300D01*
X103925D01*
Y-18325D01*
X103950D01*
Y-18350D01*
X103975D01*
Y-18375D01*
X104000D01*
Y-18400D01*
X104025D01*
Y-18425D01*
X104050D01*
Y-18450D01*
X104075D01*
Y-18475D01*
X104100D01*
Y-18525D01*
X104125D01*
Y-18550D01*
X104150D01*
Y-18575D01*
X104175D01*
Y-18600D01*
X104200D01*
Y-18625D01*
X104225D01*
Y-18650D01*
X104250D01*
Y-18675D01*
X104275D01*
Y-18700D01*
X104300D01*
Y-18725D01*
X104325D01*
Y-18750D01*
X104350D01*
Y-18775D01*
X104375D01*
Y-18800D01*
X104400D01*
Y-18825D01*
X104425D01*
Y-18850D01*
X104450D01*
Y-18875D01*
X104475D01*
Y-18900D01*
X104500D01*
Y-18925D01*
X104525D01*
Y-18950D01*
X104550D01*
Y-18975D01*
X104575D01*
Y-19025D01*
X104600D01*
Y-19050D01*
X104625D01*
Y-19075D01*
X104650D01*
Y-19100D01*
X104675D01*
Y-19125D01*
X104700D01*
Y-19150D01*
X104725D01*
Y-19175D01*
X104750D01*
Y-19200D01*
X104775D01*
Y-19225D01*
X104800D01*
Y-19250D01*
X104825D01*
Y-19275D01*
X104850D01*
Y-19300D01*
X104875D01*
Y-19325D01*
X104900D01*
Y-19350D01*
X104925D01*
Y-19375D01*
X104950D01*
Y-19400D01*
X104975D01*
Y-19425D01*
X105000D01*
Y-19450D01*
X105025D01*
Y-19475D01*
X105050D01*
Y-19525D01*
X105075D01*
Y-19550D01*
X105100D01*
Y-19575D01*
X105125D01*
Y-19600D01*
X105150D01*
Y-19625D01*
X105175D01*
Y-19650D01*
X105200D01*
Y-19675D01*
X105225D01*
Y-19700D01*
X105250D01*
Y-19725D01*
X105275D01*
Y-19750D01*
X105300D01*
Y-19775D01*
X105325D01*
Y-19800D01*
X105350D01*
Y-19825D01*
X105375D01*
Y-19850D01*
X105400D01*
Y-19875D01*
X105425D01*
Y-19900D01*
X105450D01*
Y-19925D01*
X105475D01*
Y-19950D01*
X105500D01*
Y-19975D01*
X105525D01*
Y-20000D01*
X105550D01*
Y-20050D01*
X105575D01*
Y-20075D01*
X105600D01*
Y-20100D01*
X105625D01*
Y-20125D01*
X105650D01*
Y-20150D01*
X105675D01*
Y-20175D01*
X105700D01*
Y-20200D01*
X105725D01*
Y-20225D01*
X105750D01*
Y-20250D01*
X105775D01*
Y-20275D01*
X105800D01*
Y-20300D01*
X105825D01*
Y-20325D01*
X105850D01*
Y-20350D01*
X105875D01*
Y-20375D01*
X105900D01*
Y-20400D01*
X105925D01*
Y-20425D01*
X105950D01*
Y-20450D01*
X105975D01*
Y-20475D01*
X106000D01*
Y-20525D01*
X106025D01*
Y-20550D01*
X106050D01*
Y-20575D01*
X106075D01*
Y-20600D01*
X106100D01*
Y-20625D01*
X106125D01*
Y-20650D01*
X106150D01*
Y-20675D01*
X106175D01*
Y-20700D01*
X106200D01*
Y-20725D01*
X106225D01*
Y-20750D01*
X106250D01*
Y-20775D01*
X106275D01*
Y-20800D01*
X106300D01*
Y-20825D01*
X106325D01*
Y-20850D01*
X106350D01*
Y-20875D01*
X106375D01*
Y-20900D01*
X106400D01*
Y-20925D01*
X106425D01*
Y-20950D01*
X106450D01*
Y-20975D01*
X106475D01*
Y-21025D01*
X106500D01*
Y-21050D01*
X106525D01*
Y-21075D01*
X106550D01*
Y-21100D01*
X106575D01*
Y-21125D01*
X106600D01*
Y-21150D01*
X106625D01*
Y-21175D01*
X106650D01*
Y-21200D01*
X106675D01*
Y-21225D01*
X106700D01*
Y-21250D01*
X106725D01*
Y-21275D01*
X106750D01*
Y-21300D01*
X106775D01*
Y-21325D01*
X106800D01*
Y-21350D01*
X106825D01*
Y-21375D01*
X106850D01*
Y-21400D01*
X106875D01*
Y-21425D01*
X106925D01*
Y-21450D01*
X106975D01*
Y-21475D01*
X107075D01*
Y-21450D01*
X107125D01*
Y-21425D01*
X107175D01*
Y-21400D01*
X107200D01*
Y-21375D01*
X107225D01*
Y-21350D01*
X107250D01*
Y-21325D01*
X107275D01*
Y-21300D01*
X107300D01*
Y-21275D01*
X107325D01*
Y-21250D01*
X107350D01*
Y-21225D01*
X107375D01*
Y-21200D01*
X107400D01*
Y-21175D01*
X107425D01*
Y-21125D01*
X107450D01*
Y-21100D01*
X107475D01*
Y-21075D01*
X107500D01*
Y-21050D01*
X107525D01*
Y-21025D01*
X107550D01*
Y-21000D01*
X107575D01*
Y-20975D01*
X107600D01*
Y-20950D01*
X107625D01*
Y-20925D01*
X107650D01*
Y-20900D01*
X107675D01*
Y-20875D01*
X107700D01*
Y-20850D01*
X107725D01*
Y-20825D01*
X107750D01*
Y-20800D01*
X107775D01*
Y-20775D01*
X107800D01*
Y-20750D01*
X107825D01*
Y-20725D01*
X107850D01*
Y-20700D01*
X107875D01*
Y-20675D01*
X107900D01*
Y-20650D01*
X107925D01*
Y-20625D01*
X107950D01*
Y-20575D01*
X107975D01*
Y-20550D01*
X108000D01*
Y-20525D01*
X108025D01*
Y-20500D01*
X108050D01*
Y-20475D01*
X108075D01*
Y-20450D01*
X108100D01*
Y-20425D01*
X108125D01*
Y-20400D01*
X108150D01*
Y-20375D01*
X108175D01*
Y-20350D01*
X108200D01*
Y-20325D01*
X108225D01*
Y-20300D01*
X108250D01*
Y-20275D01*
X108275D01*
Y-20250D01*
X108300D01*
Y-20225D01*
X108325D01*
Y-20200D01*
X108350D01*
Y-20175D01*
X108375D01*
Y-20150D01*
X108400D01*
Y-20125D01*
X108425D01*
Y-20075D01*
X108450D01*
Y-20050D01*
X108475D01*
Y-20025D01*
X108500D01*
Y-20000D01*
X108525D01*
Y-19975D01*
X108550D01*
Y-19950D01*
X108575D01*
Y-19925D01*
X108600D01*
Y-19900D01*
X108625D01*
Y-19875D01*
X108650D01*
Y-19850D01*
X108675D01*
Y-19825D01*
X108700D01*
Y-19800D01*
X108725D01*
Y-19775D01*
X108750D01*
Y-19750D01*
X108775D01*
Y-19725D01*
X108800D01*
Y-19700D01*
X108825D01*
Y-19675D01*
X108850D01*
Y-19650D01*
X108875D01*
Y-19625D01*
X108900D01*
Y-19575D01*
X108925D01*
Y-19550D01*
X108950D01*
Y-19525D01*
X108975D01*
Y-19500D01*
X109000D01*
Y-19475D01*
X109025D01*
Y-19450D01*
X109050D01*
Y-19425D01*
X109075D01*
Y-19400D01*
X109100D01*
Y-19375D01*
X109125D01*
Y-19350D01*
X109150D01*
Y-19325D01*
X109175D01*
Y-19300D01*
X109200D01*
Y-19275D01*
X109225D01*
Y-19250D01*
X109250D01*
Y-19225D01*
X109275D01*
Y-19200D01*
X109300D01*
Y-19175D01*
X109325D01*
Y-19150D01*
X109350D01*
Y-19125D01*
X109375D01*
Y-19075D01*
X109400D01*
Y-19050D01*
X109425D01*
Y-19025D01*
X109450D01*
Y-19000D01*
X109475D01*
Y-18975D01*
X109500D01*
Y-18950D01*
X109525D01*
Y-18925D01*
X109550D01*
Y-18900D01*
X109575D01*
Y-18875D01*
X109600D01*
Y-18850D01*
X109625D01*
Y-18825D01*
X109650D01*
Y-18800D01*
X109675D01*
Y-18775D01*
X109700D01*
Y-18750D01*
X109725D01*
Y-18725D01*
X109750D01*
Y-18700D01*
X109775D01*
Y-18675D01*
X109800D01*
Y-18650D01*
X109825D01*
Y-18625D01*
X109850D01*
Y-18575D01*
X109875D01*
Y-18550D01*
X109900D01*
Y-18525D01*
X109925D01*
Y-18500D01*
X109950D01*
Y-18475D01*
X109975D01*
Y-18450D01*
X110000D01*
Y-18425D01*
X110025D01*
Y-18400D01*
X110050D01*
Y-18375D01*
X110075D01*
Y-18350D01*
X110100D01*
Y-18325D01*
X110125D01*
Y-18300D01*
X110150D01*
Y-18275D01*
X110175D01*
Y-18250D01*
X110200D01*
Y-18225D01*
X110225D01*
Y-18200D01*
X110250D01*
Y-18175D01*
X110275D01*
Y-18150D01*
X110300D01*
Y-18125D01*
X110325D01*
Y-18075D01*
X110350D01*
Y-18050D01*
X110375D01*
Y-18025D01*
X110400D01*
Y-18000D01*
X110425D01*
Y-17975D01*
X110450D01*
Y-17950D01*
X110475D01*
Y-17925D01*
X110500D01*
Y-17900D01*
X110525D01*
Y-17875D01*
X110550D01*
Y-17850D01*
X110575D01*
Y-17825D01*
X110600D01*
Y-17800D01*
X110625D01*
Y-17775D01*
X110650D01*
Y-17750D01*
X110675D01*
Y-17725D01*
X110700D01*
Y-17700D01*
X110725D01*
Y-17675D01*
X110750D01*
Y-17650D01*
X110775D01*
Y-17625D01*
X110800D01*
Y-17575D01*
X110825D01*
Y-17550D01*
X110850D01*
Y-17525D01*
X110875D01*
Y-17500D01*
X110900D01*
Y-17475D01*
X110925D01*
Y-17450D01*
X110950D01*
Y-17425D01*
X110975D01*
Y-17400D01*
X111000D01*
Y-17375D01*
X111025D01*
Y-17350D01*
X111050D01*
Y-17325D01*
X111075D01*
Y-17300D01*
X111100D01*
Y-17275D01*
X111125D01*
Y-17250D01*
X111150D01*
Y-17225D01*
X111175D01*
Y-17200D01*
X111200D01*
Y-17175D01*
X111225D01*
Y-17150D01*
X111250D01*
Y-17125D01*
X111275D01*
Y-17100D01*
X111300D01*
Y-17075D01*
X111325D01*
Y-17025D01*
X111350D01*
Y-17000D01*
X111375D01*
Y-16975D01*
X111400D01*
Y-16950D01*
X111425D01*
Y-16925D01*
X111450D01*
Y-16900D01*
X111475D01*
Y-16875D01*
X111500D01*
Y-16850D01*
X111525D01*
Y-16825D01*
X111550D01*
Y-16800D01*
X111575D01*
Y-16775D01*
X111600D01*
Y-16750D01*
X111625D01*
Y-16725D01*
X111650D01*
Y-16700D01*
X111675D01*
Y-16675D01*
X111700D01*
Y-16650D01*
X111725D01*
Y-16625D01*
X111750D01*
Y-16600D01*
X111775D01*
Y-16575D01*
X111800D01*
Y-16525D01*
X111825D01*
Y-16500D01*
X111850D01*
Y-16475D01*
X111875D01*
Y-16450D01*
X111900D01*
Y-16425D01*
X111925D01*
Y-16400D01*
X111950D01*
Y-16375D01*
X111975D01*
Y-16350D01*
X112000D01*
Y-16325D01*
X112025D01*
Y-16300D01*
X112050D01*
Y-16275D01*
X112075D01*
Y-16250D01*
X112100D01*
Y-16225D01*
X112125D01*
Y-16200D01*
X112150D01*
Y-16175D01*
X112175D01*
Y-16150D01*
X112200D01*
Y-16125D01*
X112225D01*
Y-16100D01*
X112250D01*
Y-16050D01*
X112275D01*
Y-16025D01*
X112300D01*
Y-16000D01*
X112325D01*
Y-15975D01*
X112375D01*
Y-15950D01*
X112400D01*
Y-15925D01*
X112425D01*
Y-15900D01*
X112475D01*
Y-15875D01*
X112525D01*
Y-15850D01*
X112550D01*
Y-15825D01*
X112625D01*
Y-15800D01*
X112675D01*
Y-15775D01*
X112775D01*
Y-15750D01*
X117475D01*
Y-15775D01*
D02*
G37*
G36*
X117375Y-29125D02*
X117550D01*
Y-29150D01*
X117625D01*
Y-29175D01*
X117700D01*
Y-29200D01*
X117750D01*
Y-29225D01*
X117800D01*
Y-29250D01*
X117825D01*
Y-29275D01*
X117875D01*
Y-29300D01*
X117900D01*
Y-29325D01*
X117925D01*
Y-29350D01*
X117950D01*
Y-29375D01*
X117975D01*
Y-29400D01*
X118000D01*
Y-29425D01*
X118025D01*
Y-29450D01*
X118050D01*
Y-29475D01*
X118075D01*
Y-29525D01*
X118100D01*
Y-29550D01*
X118125D01*
Y-29600D01*
X118150D01*
Y-29650D01*
X118175D01*
Y-29725D01*
X118200D01*
Y-29800D01*
X118225D01*
Y-29975D01*
X118250D01*
Y-37300D01*
X118225D01*
Y-37450D01*
X118200D01*
Y-37550D01*
X118175D01*
Y-37600D01*
X118150D01*
Y-37675D01*
X118125D01*
Y-37700D01*
X118100D01*
Y-37750D01*
X118075D01*
Y-37775D01*
X118050D01*
Y-37825D01*
X118025D01*
Y-37850D01*
X118000D01*
Y-37875D01*
X117975D01*
Y-37900D01*
X117950D01*
Y-37925D01*
X117925D01*
Y-37950D01*
X117900D01*
Y-37975D01*
X117850D01*
Y-38000D01*
X117825D01*
Y-38025D01*
X117775D01*
Y-38050D01*
X117725D01*
Y-38075D01*
X117675D01*
Y-38100D01*
X117600D01*
Y-38125D01*
X117525D01*
Y-38150D01*
X116650D01*
Y-38175D01*
X112200D01*
Y-38150D01*
X109125D01*
Y-38125D01*
X109025D01*
Y-38100D01*
X108975D01*
Y-38075D01*
X108925D01*
Y-38050D01*
X108875D01*
Y-38025D01*
X108825D01*
Y-38000D01*
X108800D01*
Y-37975D01*
X108750D01*
Y-37950D01*
X108725D01*
Y-37925D01*
X108700D01*
Y-37900D01*
X108675D01*
Y-37875D01*
X108650D01*
Y-37850D01*
X108625D01*
Y-37825D01*
X108600D01*
Y-37800D01*
X108575D01*
Y-37750D01*
X108550D01*
Y-37725D01*
X108525D01*
Y-37675D01*
X108500D01*
Y-37625D01*
X108475D01*
Y-37575D01*
X108450D01*
Y-37475D01*
X108425D01*
Y-37350D01*
X108400D01*
Y-33475D01*
X108425D01*
Y-33325D01*
X108450D01*
Y-33225D01*
X108475D01*
Y-33175D01*
X108500D01*
Y-33125D01*
X108525D01*
Y-33075D01*
X108550D01*
Y-33025D01*
X108575D01*
Y-33000D01*
X108600D01*
Y-32975D01*
X108625D01*
Y-32925D01*
X108650D01*
Y-32900D01*
X108675D01*
Y-32875D01*
X108700D01*
Y-32850D01*
X108725D01*
Y-32825D01*
X108750D01*
Y-32800D01*
X108775D01*
Y-32775D01*
X108825D01*
Y-32750D01*
X108850D01*
Y-32725D01*
X108875D01*
Y-32700D01*
X108900D01*
Y-32675D01*
X108925D01*
Y-32650D01*
X108950D01*
Y-32625D01*
X109000D01*
Y-32600D01*
X109025D01*
Y-32575D01*
X109050D01*
Y-32550D01*
X109075D01*
Y-32525D01*
X109100D01*
Y-32500D01*
X109150D01*
Y-32475D01*
X109175D01*
Y-32450D01*
X109200D01*
Y-32425D01*
X109225D01*
Y-32400D01*
X109250D01*
Y-32375D01*
X109300D01*
Y-32350D01*
X109325D01*
Y-32325D01*
X109350D01*
Y-32300D01*
X109375D01*
Y-32275D01*
X109400D01*
Y-32250D01*
X109450D01*
Y-32225D01*
X109475D01*
Y-32200D01*
X109500D01*
Y-32175D01*
X109525D01*
Y-32150D01*
X109550D01*
Y-32125D01*
X109600D01*
Y-32100D01*
X109625D01*
Y-32075D01*
X109650D01*
Y-32050D01*
X109675D01*
Y-32025D01*
X109700D01*
Y-32000D01*
X109725D01*
Y-31975D01*
X109775D01*
Y-31950D01*
X109800D01*
Y-31925D01*
X109825D01*
Y-31900D01*
X109850D01*
Y-31875D01*
X109875D01*
Y-31850D01*
X109925D01*
Y-31825D01*
X109950D01*
Y-31800D01*
X109975D01*
Y-31775D01*
X110000D01*
Y-31750D01*
X110025D01*
Y-31725D01*
X110075D01*
Y-31700D01*
X110100D01*
Y-31675D01*
X110125D01*
Y-31650D01*
X110150D01*
Y-31625D01*
X110175D01*
Y-31600D01*
X110225D01*
Y-31575D01*
X110250D01*
Y-31550D01*
X110275D01*
Y-31525D01*
X110300D01*
Y-31500D01*
X110325D01*
Y-31475D01*
X110375D01*
Y-31450D01*
X110400D01*
Y-31425D01*
X110425D01*
Y-31400D01*
X110450D01*
Y-31375D01*
X110475D01*
Y-31350D01*
X110525D01*
Y-31325D01*
X110550D01*
Y-31300D01*
X110575D01*
Y-31275D01*
X110600D01*
Y-31250D01*
X110625D01*
Y-31225D01*
X110675D01*
Y-31200D01*
X110700D01*
Y-31175D01*
X110725D01*
Y-31150D01*
X110750D01*
Y-31125D01*
X110775D01*
Y-31100D01*
X110800D01*
Y-31075D01*
X110850D01*
Y-31050D01*
X110875D01*
Y-31025D01*
X110900D01*
Y-31000D01*
X110925D01*
Y-30975D01*
X110950D01*
Y-30950D01*
X111000D01*
Y-30925D01*
X111025D01*
Y-30900D01*
X111050D01*
Y-30875D01*
X111075D01*
Y-30850D01*
X111100D01*
Y-30825D01*
X111150D01*
Y-30800D01*
X111175D01*
Y-30775D01*
X111200D01*
Y-30750D01*
X111225D01*
Y-30725D01*
X111250D01*
Y-30700D01*
X111300D01*
Y-30675D01*
X111325D01*
Y-30650D01*
X111350D01*
Y-30625D01*
X111375D01*
Y-30600D01*
X111400D01*
Y-30575D01*
X111450D01*
Y-30550D01*
X111475D01*
Y-30525D01*
X111500D01*
Y-30500D01*
X111525D01*
Y-30475D01*
X111550D01*
Y-30450D01*
X111600D01*
Y-30425D01*
X111625D01*
Y-30400D01*
X111650D01*
Y-30375D01*
X111675D01*
Y-30350D01*
X111700D01*
Y-30325D01*
X111750D01*
Y-30300D01*
X111775D01*
Y-30275D01*
X111800D01*
Y-30250D01*
X111825D01*
Y-30225D01*
X111850D01*
Y-30200D01*
X111875D01*
Y-30175D01*
X111925D01*
Y-30150D01*
X111950D01*
Y-30125D01*
X111975D01*
Y-30100D01*
X112000D01*
Y-30075D01*
X112025D01*
Y-30050D01*
X112075D01*
Y-30025D01*
X112100D01*
Y-30000D01*
X112125D01*
Y-29975D01*
X112150D01*
Y-29950D01*
X112175D01*
Y-29925D01*
X112225D01*
Y-29900D01*
X112250D01*
Y-29875D01*
X112275D01*
Y-29850D01*
X112300D01*
Y-29825D01*
X112325D01*
Y-29800D01*
X112375D01*
Y-29775D01*
X112400D01*
Y-29750D01*
X112425D01*
Y-29725D01*
X112450D01*
Y-29700D01*
X112475D01*
Y-29675D01*
X112525D01*
Y-29650D01*
X112550D01*
Y-29625D01*
X112575D01*
Y-29600D01*
X112600D01*
Y-29575D01*
X112625D01*
Y-29550D01*
X112675D01*
Y-29525D01*
X112700D01*
Y-29500D01*
X112725D01*
Y-29475D01*
X112750D01*
Y-29450D01*
X112775D01*
Y-29425D01*
X112825D01*
Y-29400D01*
X112850D01*
Y-29375D01*
X112875D01*
Y-29350D01*
X112900D01*
Y-29325D01*
X112950D01*
Y-29300D01*
X112975D01*
Y-29275D01*
X113000D01*
Y-29250D01*
X113050D01*
Y-29225D01*
X113100D01*
Y-29200D01*
X113150D01*
Y-29175D01*
X113225D01*
Y-29150D01*
X113325D01*
Y-29125D01*
X113500D01*
Y-29100D01*
X117375D01*
Y-29125D01*
D02*
G37*
G36*
X100550D02*
X100725D01*
Y-29150D01*
X100825D01*
Y-29175D01*
X100900D01*
Y-29200D01*
X100950D01*
Y-29225D01*
X101000D01*
Y-29250D01*
X101050D01*
Y-29275D01*
X101075D01*
Y-29300D01*
X101125D01*
Y-29325D01*
X101175D01*
Y-29350D01*
X101200D01*
Y-29375D01*
X101225D01*
Y-29400D01*
X101275D01*
Y-29425D01*
X101300D01*
Y-29450D01*
X101325D01*
Y-29475D01*
X101350D01*
Y-29500D01*
X101400D01*
Y-29525D01*
X101425D01*
Y-29550D01*
X101450D01*
Y-29575D01*
X101475D01*
Y-29600D01*
X101500D01*
Y-29625D01*
X101525D01*
Y-29650D01*
X101575D01*
Y-29675D01*
X101600D01*
Y-29700D01*
X101625D01*
Y-29725D01*
X101650D01*
Y-29750D01*
X101675D01*
Y-29775D01*
X101725D01*
Y-29800D01*
X101750D01*
Y-29825D01*
X101775D01*
Y-29850D01*
X101800D01*
Y-29875D01*
X101825D01*
Y-29900D01*
X101875D01*
Y-29925D01*
X101900D01*
Y-29950D01*
X101925D01*
Y-29975D01*
X101950D01*
Y-30000D01*
X101975D01*
Y-30025D01*
X102025D01*
Y-30050D01*
X102050D01*
Y-30075D01*
X102075D01*
Y-30100D01*
X102100D01*
Y-30125D01*
X102125D01*
Y-30150D01*
X102175D01*
Y-30175D01*
X102200D01*
Y-30200D01*
X102225D01*
Y-30225D01*
X102250D01*
Y-30250D01*
X102275D01*
Y-30275D01*
X102300D01*
Y-30300D01*
X102350D01*
Y-30325D01*
X102375D01*
Y-30350D01*
X102400D01*
Y-30375D01*
X102425D01*
Y-30400D01*
X102475D01*
Y-30425D01*
X102500D01*
Y-30450D01*
X102525D01*
Y-30475D01*
X102550D01*
Y-30500D01*
X102575D01*
Y-30525D01*
X102600D01*
Y-30550D01*
X102650D01*
Y-30575D01*
X102675D01*
Y-30600D01*
X102700D01*
Y-30625D01*
X102725D01*
Y-30650D01*
X102750D01*
Y-30675D01*
X102800D01*
Y-30700D01*
X102825D01*
Y-30725D01*
X102850D01*
Y-30750D01*
X102875D01*
Y-30775D01*
X102900D01*
Y-30800D01*
X102950D01*
Y-30825D01*
X102975D01*
Y-30850D01*
X103000D01*
Y-30875D01*
X103025D01*
Y-30900D01*
X103050D01*
Y-30925D01*
X103100D01*
Y-30950D01*
X103125D01*
Y-30975D01*
X103150D01*
Y-31000D01*
X103175D01*
Y-31025D01*
X103200D01*
Y-31050D01*
X103250D01*
Y-31075D01*
X103275D01*
Y-31100D01*
X103300D01*
Y-31125D01*
X103325D01*
Y-31150D01*
X103350D01*
Y-31175D01*
X103375D01*
Y-31200D01*
X103425D01*
Y-31225D01*
X103450D01*
Y-31250D01*
X103475D01*
Y-31275D01*
X103500D01*
Y-31300D01*
X103525D01*
Y-31325D01*
X103575D01*
Y-31350D01*
X103600D01*
Y-31375D01*
X103625D01*
Y-31400D01*
X103650D01*
Y-31425D01*
X103675D01*
Y-31450D01*
X103725D01*
Y-31475D01*
X103750D01*
Y-31500D01*
X103775D01*
Y-31525D01*
X103800D01*
Y-31550D01*
X103825D01*
Y-31575D01*
X103875D01*
Y-31600D01*
X103900D01*
Y-31625D01*
X103925D01*
Y-31650D01*
X103950D01*
Y-31675D01*
X103975D01*
Y-31700D01*
X104025D01*
Y-31725D01*
X104050D01*
Y-31750D01*
X104075D01*
Y-31775D01*
X104100D01*
Y-31800D01*
X104125D01*
Y-31825D01*
X104175D01*
Y-31850D01*
X104200D01*
Y-31875D01*
X104225D01*
Y-31900D01*
X104250D01*
Y-31925D01*
X104275D01*
Y-31950D01*
X104325D01*
Y-31975D01*
X104350D01*
Y-32000D01*
X104375D01*
Y-32025D01*
X104400D01*
Y-32050D01*
X104425D01*
Y-32075D01*
X104450D01*
Y-32100D01*
X104500D01*
Y-32125D01*
X104525D01*
Y-32150D01*
X104550D01*
Y-32175D01*
X104575D01*
Y-32200D01*
X104625D01*
Y-32225D01*
X104650D01*
Y-32250D01*
X104675D01*
Y-32275D01*
X104700D01*
Y-32300D01*
X104725D01*
Y-32325D01*
X104750D01*
Y-32350D01*
X104800D01*
Y-32375D01*
X104825D01*
Y-32400D01*
X104850D01*
Y-32425D01*
X104875D01*
Y-32450D01*
X104900D01*
Y-32475D01*
X104950D01*
Y-32500D01*
X104975D01*
Y-32525D01*
X105000D01*
Y-32550D01*
X105025D01*
Y-32575D01*
X105050D01*
Y-32600D01*
X105100D01*
Y-32625D01*
X105125D01*
Y-32650D01*
X105150D01*
Y-32675D01*
X105175D01*
Y-32700D01*
X105200D01*
Y-32725D01*
X105225D01*
Y-32750D01*
X105250D01*
Y-32775D01*
X105275D01*
Y-32800D01*
X105300D01*
Y-32825D01*
X105325D01*
Y-32850D01*
X105350D01*
Y-32875D01*
X105400D01*
Y-32925D01*
X105425D01*
Y-32950D01*
X105450D01*
Y-32975D01*
X105475D01*
Y-33000D01*
X105500D01*
Y-33050D01*
X105525D01*
Y-33075D01*
X105550D01*
Y-33125D01*
X105575D01*
Y-33200D01*
X105600D01*
Y-33250D01*
X105625D01*
Y-33350D01*
X105650D01*
Y-37450D01*
X105625D01*
Y-37550D01*
X105600D01*
Y-37600D01*
X105575D01*
Y-37650D01*
X105550D01*
Y-37700D01*
X105525D01*
Y-37750D01*
X105500D01*
Y-37775D01*
X105475D01*
Y-37825D01*
X105450D01*
Y-37850D01*
X105425D01*
Y-37875D01*
X105400D01*
Y-37900D01*
X105375D01*
Y-37925D01*
X105350D01*
Y-37950D01*
X105325D01*
Y-37975D01*
X105275D01*
Y-38000D01*
X105250D01*
Y-38025D01*
X105200D01*
Y-38050D01*
X105150D01*
Y-38075D01*
X105100D01*
Y-38100D01*
X105025D01*
Y-38125D01*
X104950D01*
Y-38150D01*
X101850D01*
Y-38175D01*
X97425D01*
Y-38150D01*
X96525D01*
Y-38125D01*
X96425D01*
Y-38100D01*
X96375D01*
Y-38075D01*
X96325D01*
Y-38050D01*
X96275D01*
Y-38025D01*
X96225D01*
Y-38000D01*
X96200D01*
Y-37975D01*
X96150D01*
Y-37950D01*
X96125D01*
Y-37925D01*
X96100D01*
Y-37900D01*
X96075D01*
Y-37875D01*
X96050D01*
Y-37850D01*
X96025D01*
Y-37825D01*
X96000D01*
Y-37800D01*
X95975D01*
Y-37750D01*
X95950D01*
Y-37725D01*
X95925D01*
Y-37700D01*
Y-37675D01*
X95900D01*
Y-37625D01*
X95875D01*
Y-37575D01*
X95850D01*
Y-37475D01*
X95825D01*
Y-37350D01*
X95800D01*
Y-29925D01*
X95825D01*
Y-29775D01*
X95850D01*
Y-29700D01*
X95875D01*
Y-29650D01*
X95900D01*
Y-29600D01*
X95925D01*
Y-29550D01*
X95950D01*
Y-29500D01*
X95975D01*
Y-29475D01*
X96000D01*
Y-29450D01*
X96025D01*
Y-29425D01*
X96050D01*
Y-29400D01*
X96075D01*
Y-29375D01*
X96100D01*
Y-29350D01*
X96125D01*
Y-29325D01*
X96150D01*
Y-29300D01*
X96175D01*
Y-29275D01*
X96200D01*
Y-29250D01*
X96250D01*
Y-29225D01*
X96300D01*
Y-29200D01*
X96350D01*
Y-29175D01*
X96425D01*
Y-29150D01*
X96500D01*
Y-29125D01*
X96675D01*
Y-29100D01*
X100550D01*
Y-29125D01*
D02*
G37*
G36*
X-101476Y-5941D02*
X-100984D01*
Y-6023D01*
X-100656D01*
Y-6105D01*
X-100410D01*
Y-6187D01*
X-100164D01*
Y-6270D01*
X-99918D01*
Y-6352D01*
X-99754D01*
Y-6434D01*
X-99590D01*
Y-6516D01*
X-99426D01*
Y-6598D01*
X-99262D01*
Y-6680D01*
X-99098D01*
Y-6762D01*
X-99016D01*
Y-6844D01*
X-98851D01*
Y-6926D01*
X-98770D01*
Y-7008D01*
X-98605D01*
Y-7090D01*
X-98523D01*
Y-7172D01*
X-98441D01*
Y-7254D01*
X-98359D01*
Y-7336D01*
X-98195D01*
Y-7418D01*
X-98113D01*
Y-7500D01*
X-98031D01*
Y-7582D01*
X-97949D01*
Y-7664D01*
X-97867D01*
Y-7746D01*
X-97785D01*
Y-7828D01*
X-97703D01*
Y-7992D01*
X-97621D01*
Y-8074D01*
X-97539D01*
Y-8156D01*
X-97457D01*
Y-8238D01*
X-97375D01*
Y-8402D01*
X-97293D01*
Y-8484D01*
X-97211D01*
Y-8648D01*
X-97129D01*
Y-8730D01*
X-97047D01*
Y-8813D01*
X-96965D01*
Y-8977D01*
X-96883D01*
Y-9141D01*
X-96801D01*
Y-9305D01*
X-96719D01*
Y-9469D01*
X-96637D01*
Y-9633D01*
X-96555D01*
Y-9715D01*
X-96473D01*
Y-9879D01*
X-96391D01*
Y-10043D01*
X-96309D01*
Y-10207D01*
X-96227D01*
Y-10371D01*
X-96145D01*
Y-10535D01*
X-96062D01*
Y-10699D01*
X-95980D01*
Y-10781D01*
X-95898D01*
Y-10945D01*
X-95816D01*
Y-11109D01*
X-95734D01*
Y-11273D01*
X-95652D01*
Y-11437D01*
X-95570D01*
Y-11602D01*
X-95488D01*
Y-11684D01*
X-95406D01*
Y-11848D01*
X-95324D01*
Y-12012D01*
X-95242D01*
Y-12176D01*
X-95160D01*
Y-12340D01*
X-95078D01*
Y-12504D01*
X-94996D01*
Y-12586D01*
X-94914D01*
Y-12750D01*
X-94832D01*
Y-12914D01*
X-94750D01*
Y-13078D01*
X-94668D01*
Y-13242D01*
X-94586D01*
Y-13406D01*
X-94504D01*
Y-13488D01*
X-94422D01*
Y-13652D01*
X-94340D01*
Y-13816D01*
X-94258D01*
Y-13980D01*
X-94176D01*
Y-14145D01*
X-94094D01*
Y-14309D01*
X-94012D01*
Y-14391D01*
X-93930D01*
Y-14555D01*
X-93848D01*
Y-14719D01*
X-93766D01*
Y-14883D01*
X-93684D01*
Y-15047D01*
X-93602D01*
Y-15211D01*
X-93519D01*
Y-15375D01*
X-93438D01*
Y-15457D01*
X-93355D01*
Y-15621D01*
X-93273D01*
Y-15785D01*
X-93191D01*
Y-15949D01*
X-93109D01*
Y-16113D01*
X-93027D01*
Y-16277D01*
X-92945D01*
Y-16359D01*
X-92863D01*
Y-16523D01*
X-92781D01*
Y-16688D01*
X-92699D01*
Y-16852D01*
X-92617D01*
Y-17016D01*
X-92535D01*
Y-17180D01*
X-92453D01*
Y-17262D01*
X-92371D01*
Y-17426D01*
X-92289D01*
Y-17590D01*
X-92207D01*
Y-17754D01*
X-92125D01*
Y-17918D01*
X-92043D01*
Y-18082D01*
X-91961D01*
Y-18164D01*
X-91879D01*
Y-18328D01*
X-91797D01*
Y-18492D01*
X-91715D01*
Y-18656D01*
X-91633D01*
Y-18820D01*
X-91551D01*
Y-18984D01*
X-91469D01*
Y-19066D01*
X-91387D01*
Y-19230D01*
X-91305D01*
Y-19395D01*
X-91223D01*
Y-19559D01*
X-91141D01*
Y-19723D01*
X-91059D01*
Y-19887D01*
X-90976D01*
Y-19969D01*
X-90894D01*
Y-20133D01*
X-90813D01*
Y-20297D01*
X-90730D01*
Y-20461D01*
X-90648D01*
Y-20625D01*
X-90566D01*
Y-20789D01*
X-90484D01*
Y-20953D01*
X-90402D01*
Y-21035D01*
X-90320D01*
Y-21199D01*
X-90238D01*
Y-21363D01*
X-90156D01*
Y-21527D01*
X-90074D01*
Y-21691D01*
X-89992D01*
Y-21855D01*
X-89910D01*
Y-21937D01*
X-89828D01*
Y-22102D01*
X-89746D01*
Y-22266D01*
X-89664D01*
Y-22430D01*
X-89582D01*
Y-22594D01*
X-89500D01*
Y-22758D01*
X-89418D01*
Y-22840D01*
X-89336D01*
Y-23004D01*
X-89254D01*
Y-23168D01*
X-89172D01*
Y-23332D01*
X-89090D01*
Y-23496D01*
X-89008D01*
Y-23660D01*
X-88926D01*
Y-23742D01*
X-88844D01*
Y-23906D01*
X-88762D01*
Y-24070D01*
X-88680D01*
Y-24234D01*
X-88598D01*
Y-24398D01*
X-88516D01*
Y-24562D01*
X-88434D01*
Y-24644D01*
X-88351D01*
Y-24809D01*
X-88270D01*
Y-24973D01*
X-88188D01*
Y-25137D01*
X-88105D01*
Y-25301D01*
X-88023D01*
Y-25465D01*
X-87941D01*
Y-25547D01*
X-87859D01*
Y-25711D01*
X-87777D01*
Y-25875D01*
X-87695D01*
Y-26039D01*
X-87613D01*
Y-26203D01*
X-87531D01*
Y-26367D01*
X-87449D01*
Y-26531D01*
X-87367D01*
Y-26613D01*
X-87285D01*
Y-26777D01*
X-87203D01*
Y-26941D01*
X-87121D01*
Y-27105D01*
X-87039D01*
Y-27269D01*
X-86957D01*
Y-27434D01*
X-86875D01*
Y-27516D01*
X-86793D01*
Y-27680D01*
X-86711D01*
Y-27844D01*
X-86629D01*
Y-28008D01*
X-86547D01*
Y-28172D01*
X-86465D01*
Y-28336D01*
X-86383D01*
Y-28418D01*
X-86301D01*
Y-28582D01*
X-86219D01*
Y-28746D01*
X-86137D01*
Y-28910D01*
X-86055D01*
Y-29074D01*
X-85973D01*
Y-29238D01*
X-85891D01*
Y-29320D01*
X-85809D01*
Y-29484D01*
X-85726D01*
Y-29648D01*
X-85645D01*
Y-29813D01*
X-85562D01*
Y-29976D01*
X-85480D01*
Y-30141D01*
X-85398D01*
Y-30223D01*
X-85316D01*
Y-30387D01*
X-85234D01*
Y-30551D01*
X-85152D01*
Y-30715D01*
X-85070D01*
Y-30879D01*
X-84988D01*
Y-31043D01*
X-84906D01*
Y-31207D01*
X-84824D01*
Y-31289D01*
X-84742D01*
Y-31453D01*
X-84660D01*
Y-31617D01*
X-84578D01*
Y-31781D01*
X-84496D01*
Y-31945D01*
X-84414D01*
Y-32109D01*
X-84332D01*
Y-32191D01*
X-84250D01*
Y-32355D01*
X-84168D01*
Y-32520D01*
X-84086D01*
Y-32684D01*
X-84004D01*
Y-32848D01*
X-83922D01*
Y-33012D01*
X-83840D01*
Y-33094D01*
X-83758D01*
Y-33258D01*
X-83676D01*
Y-33422D01*
X-83594D01*
Y-33586D01*
X-83512D01*
Y-33750D01*
X-83430D01*
Y-33914D01*
X-83348D01*
Y-33996D01*
X-83266D01*
Y-34160D01*
X-83184D01*
Y-34324D01*
X-83102D01*
Y-34488D01*
X-83020D01*
Y-34652D01*
X-82937D01*
Y-34816D01*
X-82855D01*
Y-34898D01*
X-82773D01*
Y-35062D01*
X-82691D01*
Y-35227D01*
X-82609D01*
Y-35391D01*
X-82527D01*
Y-35555D01*
X-82445D01*
Y-35719D01*
X-82363D01*
Y-35801D01*
X-82281D01*
Y-35965D01*
X-82199D01*
Y-36129D01*
X-82117D01*
Y-36293D01*
X-82035D01*
Y-36457D01*
X-81953D01*
Y-36621D01*
X-81871D01*
Y-36785D01*
X-81789D01*
Y-36949D01*
X-81707D01*
Y-37195D01*
X-81625D01*
Y-37441D01*
X-81543D01*
Y-37687D01*
X-81461D01*
Y-38098D01*
X-81379D01*
Y-38590D01*
X-81297D01*
Y-39820D01*
X-81379D01*
Y-40395D01*
X-81461D01*
Y-40805D01*
X-81543D01*
Y-41051D01*
X-81625D01*
Y-41297D01*
X-81707D01*
Y-41543D01*
X-81789D01*
Y-41707D01*
X-81871D01*
Y-41871D01*
X-81953D01*
Y-42035D01*
X-82035D01*
Y-42199D01*
X-82117D01*
Y-42363D01*
X-82199D01*
Y-42527D01*
X-82281D01*
Y-42609D01*
X-82363D01*
Y-42773D01*
X-82445D01*
Y-42855D01*
X-82527D01*
Y-43019D01*
X-82609D01*
Y-43102D01*
X-82691D01*
Y-43184D01*
X-82773D01*
Y-43266D01*
X-82855D01*
Y-43348D01*
X-82937D01*
Y-43512D01*
X-83020D01*
Y-43594D01*
X-83102D01*
Y-43676D01*
X-83184D01*
Y-43758D01*
X-83348D01*
Y-43840D01*
X-83430D01*
Y-43922D01*
X-83512D01*
Y-44004D01*
X-83594D01*
Y-44086D01*
X-83676D01*
Y-44168D01*
X-83840D01*
Y-44250D01*
X-83922D01*
Y-44332D01*
X-84004D01*
Y-44414D01*
X-84168D01*
Y-44496D01*
X-84250D01*
Y-44578D01*
X-84414D01*
Y-44660D01*
X-84578D01*
Y-44742D01*
X-84742D01*
Y-44824D01*
X-84906D01*
Y-44906D01*
X-85070D01*
Y-44988D01*
X-85316D01*
Y-45070D01*
X-85562D01*
Y-45152D01*
X-85809D01*
Y-45234D01*
X-86219D01*
Y-45316D01*
X-86547D01*
Y-45398D01*
X-118047D01*
Y-45316D01*
X-118375D01*
Y-45234D01*
X-118785D01*
Y-45152D01*
X-119031D01*
Y-45070D01*
X-119277D01*
Y-44988D01*
X-119523D01*
Y-44906D01*
X-119688D01*
Y-44824D01*
X-119852D01*
Y-44742D01*
X-120016D01*
Y-44660D01*
X-120180D01*
Y-44578D01*
X-120344D01*
Y-44496D01*
X-120426D01*
Y-44414D01*
X-120590D01*
Y-44332D01*
X-120672D01*
Y-44250D01*
X-120754D01*
Y-44168D01*
X-120918D01*
Y-44086D01*
X-121000D01*
Y-44004D01*
X-121082D01*
Y-43922D01*
X-121164D01*
Y-43840D01*
X-121246D01*
Y-43758D01*
X-121410D01*
Y-43676D01*
X-121492D01*
Y-43594D01*
X-121574D01*
Y-43512D01*
X-121656D01*
Y-43348D01*
X-121738D01*
Y-43266D01*
X-121820D01*
Y-43184D01*
X-121902D01*
Y-43102D01*
X-121984D01*
Y-43019D01*
X-122066D01*
Y-42855D01*
X-122148D01*
Y-42773D01*
X-122230D01*
Y-42609D01*
X-122312D01*
Y-42527D01*
X-122395D01*
Y-42363D01*
X-122477D01*
Y-42281D01*
X-122559D01*
Y-42035D01*
X-122641D01*
Y-41871D01*
X-122723D01*
Y-41707D01*
X-122805D01*
Y-41543D01*
X-122887D01*
Y-41297D01*
X-122969D01*
Y-41051D01*
X-123051D01*
Y-40805D01*
X-123133D01*
Y-40395D01*
X-123215D01*
Y-39820D01*
X-123297D01*
Y-38590D01*
X-123215D01*
Y-38098D01*
X-123133D01*
Y-37687D01*
X-123051D01*
Y-37441D01*
X-122969D01*
Y-37195D01*
X-122887D01*
Y-36949D01*
X-122805D01*
Y-36785D01*
X-122723D01*
Y-36621D01*
X-122641D01*
Y-36457D01*
X-122559D01*
Y-36293D01*
X-122477D01*
Y-36129D01*
X-122395D01*
Y-35965D01*
X-122312D01*
Y-35883D01*
X-122230D01*
Y-35719D01*
X-122148D01*
Y-35555D01*
X-122066D01*
Y-35391D01*
X-121984D01*
Y-35227D01*
X-121902D01*
Y-35062D01*
X-121820D01*
Y-34980D01*
X-121738D01*
Y-34816D01*
X-121656D01*
Y-34652D01*
X-121574D01*
Y-34488D01*
X-121492D01*
Y-34324D01*
X-121410D01*
Y-34160D01*
X-121328D01*
Y-33996D01*
X-121246D01*
Y-33914D01*
X-121164D01*
Y-33750D01*
X-121082D01*
Y-33586D01*
X-121000D01*
Y-33422D01*
X-120918D01*
Y-33258D01*
X-120836D01*
Y-33094D01*
X-120754D01*
Y-33012D01*
X-120672D01*
Y-32848D01*
X-120590D01*
Y-32684D01*
X-120508D01*
Y-32520D01*
X-120426D01*
Y-32355D01*
X-120344D01*
Y-32191D01*
X-120262D01*
Y-32109D01*
X-120180D01*
Y-31945D01*
X-120098D01*
Y-31781D01*
X-120016D01*
Y-31617D01*
X-119934D01*
Y-31453D01*
X-119852D01*
Y-31289D01*
X-119769D01*
Y-31207D01*
X-119688D01*
Y-31043D01*
X-119606D01*
Y-30879D01*
X-119523D01*
Y-30715D01*
X-119441D01*
Y-30551D01*
X-119359D01*
Y-30387D01*
X-119277D01*
Y-30305D01*
X-119195D01*
Y-30141D01*
X-119113D01*
Y-29976D01*
X-119031D01*
Y-29813D01*
X-118949D01*
Y-29648D01*
X-118867D01*
Y-29484D01*
X-118785D01*
Y-29320D01*
X-118703D01*
Y-29238D01*
X-118621D01*
Y-29074D01*
X-118539D01*
Y-28910D01*
X-118457D01*
Y-28746D01*
X-118375D01*
Y-28582D01*
X-118293D01*
Y-28418D01*
X-118211D01*
Y-28336D01*
X-118129D01*
Y-28172D01*
X-118047D01*
Y-28008D01*
X-117965D01*
Y-27844D01*
X-117883D01*
Y-27680D01*
X-117801D01*
Y-27516D01*
X-117719D01*
Y-27434D01*
X-117637D01*
Y-27269D01*
X-117555D01*
Y-27105D01*
X-117473D01*
Y-26941D01*
X-117391D01*
Y-26777D01*
X-117309D01*
Y-26613D01*
X-117226D01*
Y-26531D01*
X-117144D01*
Y-26367D01*
X-117063D01*
Y-26203D01*
X-116980D01*
Y-26039D01*
X-116898D01*
Y-25875D01*
X-116816D01*
Y-25711D01*
X-116734D01*
Y-25629D01*
X-116652D01*
Y-25465D01*
X-116570D01*
Y-25301D01*
X-116488D01*
Y-25137D01*
X-116406D01*
Y-24973D01*
X-116324D01*
Y-24809D01*
X-116242D01*
Y-24727D01*
X-116160D01*
Y-24562D01*
X-116078D01*
Y-24398D01*
X-115996D01*
Y-24234D01*
X-115914D01*
Y-24070D01*
X-115832D01*
Y-23906D01*
X-115750D01*
Y-23742D01*
X-115668D01*
Y-23660D01*
X-115586D01*
Y-23496D01*
X-115504D01*
Y-23332D01*
X-115422D01*
Y-23168D01*
X-115340D01*
Y-23004D01*
X-115258D01*
Y-22840D01*
X-115176D01*
Y-22758D01*
X-115094D01*
Y-22594D01*
X-115012D01*
Y-22430D01*
X-114930D01*
Y-22266D01*
X-114848D01*
Y-22102D01*
X-114766D01*
Y-21937D01*
X-114684D01*
Y-21855D01*
X-114601D01*
Y-21691D01*
X-114520D01*
Y-21527D01*
X-114438D01*
Y-21363D01*
X-114355D01*
Y-21199D01*
X-114273D01*
Y-21035D01*
X-114191D01*
Y-20953D01*
X-114109D01*
Y-20789D01*
X-114027D01*
Y-20625D01*
X-113945D01*
Y-20461D01*
X-113863D01*
Y-20297D01*
X-113781D01*
Y-20133D01*
X-113699D01*
Y-20051D01*
X-113617D01*
Y-19887D01*
X-113535D01*
Y-19723D01*
X-113453D01*
Y-19559D01*
X-113371D01*
Y-19395D01*
X-113289D01*
Y-19230D01*
X-113207D01*
Y-19066D01*
X-113125D01*
Y-18984D01*
X-113043D01*
Y-18820D01*
X-112961D01*
Y-18656D01*
X-112879D01*
Y-18492D01*
X-112797D01*
Y-18328D01*
X-112715D01*
Y-18164D01*
X-112633D01*
Y-18082D01*
X-112551D01*
Y-17918D01*
X-112469D01*
Y-17754D01*
X-112387D01*
Y-17590D01*
X-112305D01*
Y-17426D01*
X-112223D01*
Y-17262D01*
X-112141D01*
Y-17180D01*
X-112059D01*
Y-17016D01*
X-111976D01*
Y-16852D01*
X-111895D01*
Y-16688D01*
X-111812D01*
Y-16523D01*
X-111730D01*
Y-16359D01*
X-111648D01*
Y-16277D01*
X-111566D01*
Y-16113D01*
X-111484D01*
Y-15949D01*
X-111402D01*
Y-15785D01*
X-111320D01*
Y-15621D01*
X-111238D01*
Y-15457D01*
X-111156D01*
Y-15375D01*
X-111074D01*
Y-15211D01*
X-110992D01*
Y-15047D01*
X-110910D01*
Y-14883D01*
X-110828D01*
Y-14719D01*
X-110746D01*
Y-14555D01*
X-110664D01*
Y-14391D01*
X-110582D01*
Y-14309D01*
X-110500D01*
Y-14145D01*
X-110418D01*
Y-13980D01*
X-110336D01*
Y-13816D01*
X-110254D01*
Y-13652D01*
X-110172D01*
Y-13488D01*
X-110090D01*
Y-13406D01*
X-110008D01*
Y-13242D01*
X-109926D01*
Y-13078D01*
X-109844D01*
Y-12914D01*
X-109762D01*
Y-12750D01*
X-109680D01*
Y-12586D01*
X-109598D01*
Y-12504D01*
X-109516D01*
Y-12340D01*
X-109434D01*
Y-12176D01*
X-109352D01*
Y-12012D01*
X-109270D01*
Y-11848D01*
X-109187D01*
Y-11684D01*
X-109105D01*
Y-11602D01*
X-109023D01*
Y-11437D01*
X-108941D01*
Y-11273D01*
X-108859D01*
Y-11109D01*
X-108777D01*
Y-10945D01*
X-108695D01*
Y-10781D01*
X-108613D01*
Y-10699D01*
X-108531D01*
Y-10535D01*
X-108449D01*
Y-10371D01*
X-108367D01*
Y-10207D01*
X-108285D01*
Y-10043D01*
X-108203D01*
Y-9879D01*
X-108121D01*
Y-9715D01*
X-108039D01*
Y-9633D01*
X-107957D01*
Y-9469D01*
X-107875D01*
Y-9305D01*
X-107793D01*
Y-9141D01*
X-107711D01*
Y-8977D01*
X-107629D01*
Y-8813D01*
X-107547D01*
Y-8730D01*
X-107465D01*
Y-8648D01*
X-107383D01*
Y-8484D01*
X-107301D01*
Y-8402D01*
X-107219D01*
Y-8238D01*
X-107137D01*
Y-8156D01*
X-107055D01*
Y-8074D01*
X-106973D01*
Y-7992D01*
X-106891D01*
Y-7910D01*
X-106809D01*
Y-7746D01*
X-106727D01*
Y-7664D01*
X-106644D01*
Y-7582D01*
X-106562D01*
Y-7500D01*
X-106480D01*
Y-7418D01*
X-106398D01*
Y-7336D01*
X-106234D01*
Y-7254D01*
X-106152D01*
Y-7172D01*
X-106070D01*
Y-7090D01*
X-105988D01*
Y-7008D01*
X-105824D01*
Y-6926D01*
X-105742D01*
Y-6844D01*
X-105578D01*
Y-6762D01*
X-105496D01*
Y-6680D01*
X-105332D01*
Y-6598D01*
X-105168D01*
Y-6516D01*
X-105004D01*
Y-6434D01*
X-104840D01*
Y-6352D01*
X-104676D01*
Y-6270D01*
X-104430D01*
Y-6187D01*
X-104184D01*
Y-6105D01*
X-103938D01*
Y-6023D01*
X-103609D01*
Y-5941D01*
X-103117D01*
Y-5859D01*
X-101476D01*
Y-5941D01*
D02*
G37*
G36*
X27689Y-38209D02*
X27815Y-38221D01*
X27952Y-38243D01*
X28112Y-38266D01*
X28296Y-38289D01*
X28662Y-38392D01*
X28857Y-38450D01*
X29052Y-38530D01*
X29247Y-38610D01*
X29430Y-38725D01*
X29613Y-38839D01*
X29773Y-38977D01*
X29785Y-38988D01*
X29808Y-39011D01*
X29854Y-39057D01*
X29899Y-39114D01*
X29968Y-39194D01*
X30037Y-39286D01*
X30117Y-39389D01*
X30197Y-39504D01*
X30266Y-39641D01*
X30346Y-39790D01*
X30415Y-39950D01*
X30484Y-40122D01*
X30530Y-40305D01*
X30575Y-40500D01*
X30598Y-40706D01*
X30610Y-40924D01*
Y-40935D01*
Y-40958D01*
Y-40993D01*
Y-41050D01*
X30598Y-41107D01*
X30587Y-41187D01*
X30564Y-41359D01*
X30518Y-41565D01*
X30449Y-41783D01*
X30346Y-42012D01*
X30220Y-42230D01*
Y-42241D01*
X30197Y-42253D01*
X30152Y-42322D01*
X30060Y-42425D01*
X29945Y-42551D01*
X29796Y-42699D01*
X29613Y-42849D01*
X29395Y-42986D01*
X29155Y-43112D01*
X29166D01*
X29189Y-43123D01*
X29235Y-43146D01*
X29304Y-43181D01*
X29373Y-43215D01*
X29464Y-43261D01*
X29659Y-43375D01*
X29865Y-43524D01*
X30094Y-43696D01*
X30312Y-43902D01*
X30495Y-44143D01*
Y-44154D01*
X30518Y-44177D01*
X30541Y-44212D01*
X30564Y-44257D01*
X30598Y-44326D01*
X30644Y-44406D01*
X30679Y-44487D01*
X30724Y-44590D01*
X30805Y-44819D01*
X30885Y-45094D01*
X30931Y-45392D01*
X30953Y-45712D01*
Y-45724D01*
Y-45781D01*
X30942Y-45850D01*
Y-45953D01*
X30931Y-46079D01*
X30908Y-46216D01*
X30873Y-46377D01*
X30839Y-46549D01*
X30782Y-46743D01*
X30724Y-46927D01*
X30644Y-47133D01*
X30552Y-47327D01*
X30449Y-47522D01*
X30323Y-47717D01*
X30175Y-47900D01*
X30014Y-48084D01*
X30003Y-48095D01*
X29968Y-48118D01*
X29922Y-48164D01*
X29842Y-48221D01*
X29751Y-48301D01*
X29636Y-48370D01*
X29499Y-48462D01*
X29350Y-48542D01*
X29178Y-48622D01*
X28995Y-48714D01*
X28788Y-48782D01*
X28571Y-48851D01*
X28330Y-48920D01*
X28078Y-48966D01*
X27815Y-48988D01*
X27528Y-49000D01*
X27391D01*
X27288Y-48988D01*
X27162Y-48977D01*
X27024Y-48954D01*
X26864Y-48931D01*
X26692Y-48908D01*
X26302Y-48817D01*
X26108Y-48759D01*
X25902Y-48679D01*
X25707Y-48599D01*
X25501Y-48496D01*
X25306Y-48381D01*
X25123Y-48244D01*
X25111Y-48232D01*
X25077Y-48198D01*
X25020Y-48152D01*
X24951Y-48084D01*
X24859Y-47992D01*
X24767Y-47877D01*
X24664Y-47751D01*
X24561Y-47602D01*
X24458Y-47431D01*
X24355Y-47247D01*
X24264Y-47053D01*
X24172Y-46835D01*
X24103Y-46594D01*
X24046Y-46342D01*
X24011Y-46079D01*
X24000Y-45792D01*
Y-45781D01*
Y-45758D01*
Y-45712D01*
X24011Y-45644D01*
Y-45575D01*
X24023Y-45483D01*
X24057Y-45277D01*
X24103Y-45036D01*
X24183Y-44773D01*
X24286Y-44498D01*
X24424Y-44223D01*
Y-44212D01*
X24447Y-44189D01*
X24470Y-44154D01*
X24504Y-44109D01*
X24607Y-43971D01*
X24745Y-43811D01*
X24939Y-43639D01*
X25168Y-43444D01*
X25432Y-43272D01*
X25753Y-43112D01*
X25741D01*
X25718Y-43101D01*
X25684Y-43078D01*
X25627Y-43055D01*
X25489Y-42975D01*
X25317Y-42871D01*
X25134Y-42745D01*
X24951Y-42585D01*
X24767Y-42413D01*
X24619Y-42207D01*
Y-42196D01*
X24607Y-42184D01*
X24584Y-42150D01*
X24561Y-42104D01*
X24504Y-41989D01*
X24447Y-41829D01*
X24378Y-41634D01*
X24321Y-41417D01*
X24275Y-41176D01*
X24264Y-40924D01*
Y-40912D01*
Y-40867D01*
X24275Y-40809D01*
Y-40729D01*
X24286Y-40626D01*
X24309Y-40512D01*
X24332Y-40374D01*
X24367Y-40237D01*
X24412Y-40088D01*
X24470Y-39927D01*
X24527Y-39767D01*
X24607Y-39607D01*
X24710Y-39446D01*
X24813Y-39286D01*
X24939Y-39125D01*
X25088Y-38977D01*
X25100Y-38965D01*
X25123Y-38942D01*
X25180Y-38908D01*
X25237Y-38851D01*
X25329Y-38793D01*
X25432Y-38725D01*
X25547Y-38656D01*
X25695Y-38587D01*
X25844Y-38518D01*
X26028Y-38438D01*
X26222Y-38381D01*
X26428Y-38324D01*
X26658Y-38266D01*
X26898Y-38232D01*
X27162Y-38209D01*
X27437Y-38198D01*
X27585D01*
X27689Y-38209D01*
D02*
G37*
G36*
X-39269Y-16337D02*
X-36636Y-20287D01*
X-38503D01*
X-39783Y-18312D01*
X-39792Y-18294D01*
X-39819Y-18249D01*
X-39864Y-18186D01*
X-39918Y-18087D01*
X-39981Y-17969D01*
X-40054Y-17843D01*
X-40126Y-17690D01*
X-40207Y-17528D01*
X-40225D01*
Y-17537D01*
X-40234Y-17546D01*
X-40261Y-17600D01*
X-40297Y-17681D01*
X-40351Y-17789D01*
X-40414Y-17906D01*
X-40486Y-18042D01*
X-40649Y-18312D01*
X-41929Y-20287D01*
X-43787D01*
X-41154Y-16274D01*
X-43543Y-12595D01*
X-41731D01*
X-40613Y-14390D01*
X-40603Y-14408D01*
X-40577Y-14453D01*
X-40531Y-14525D01*
X-40477Y-14615D01*
X-40414Y-14732D01*
X-40342Y-14868D01*
X-40270Y-15012D01*
X-40198Y-15174D01*
X-40171D01*
X-40162Y-15156D01*
X-40144Y-15111D01*
X-40108Y-15039D01*
X-40062Y-14940D01*
X-40008Y-14822D01*
X-39945Y-14696D01*
X-39792Y-14426D01*
X-38683Y-12595D01*
X-36871D01*
X-39269Y-16337D01*
D02*
G37*
G36*
X-52281Y-20287D02*
X-53714D01*
Y-14227D01*
X-55391Y-20287D01*
X-56879D01*
X-58574Y-14227D01*
Y-20287D01*
X-60008D01*
Y-12595D01*
X-57691D01*
X-56131Y-18042D01*
X-54607Y-12595D01*
X-52281D01*
Y-20287D01*
D02*
G37*
G36*
X-66248D02*
X-67871D01*
X-70576Y-12595D01*
X-68890D01*
X-67384Y-17068D01*
Y-17077D01*
X-67375Y-17095D01*
X-67366Y-17131D01*
X-67348Y-17176D01*
X-67330Y-17230D01*
X-67303Y-17302D01*
X-67285Y-17374D01*
X-67258Y-17464D01*
X-67195Y-17654D01*
X-67141Y-17879D01*
X-67077Y-18123D01*
X-67014Y-18375D01*
X-66996D01*
Y-18366D01*
X-66987Y-18339D01*
X-66978Y-18303D01*
X-66969Y-18249D01*
X-66951Y-18186D01*
X-66933Y-18114D01*
X-66906Y-18024D01*
X-66888Y-17933D01*
X-66834Y-17735D01*
X-66771Y-17519D01*
X-66708Y-17293D01*
X-66636Y-17077D01*
X-65175Y-12595D01*
X-63525D01*
X-66248Y-20287D01*
D02*
G37*
G36*
X-73543Y-12604D02*
X-73471D01*
X-73299Y-12631D01*
X-73110Y-12658D01*
X-72893Y-12703D01*
X-72686Y-12767D01*
X-72479Y-12857D01*
X-72470D01*
X-72452Y-12866D01*
X-72425Y-12884D01*
X-72389Y-12902D01*
X-72298Y-12956D01*
X-72172Y-13037D01*
X-72046Y-13136D01*
X-71911Y-13263D01*
X-71775Y-13398D01*
X-71658Y-13560D01*
Y-13569D01*
X-71649Y-13578D01*
X-71631Y-13605D01*
X-71613Y-13641D01*
X-71568Y-13731D01*
X-71514Y-13849D01*
X-71460Y-14002D01*
X-71415Y-14173D01*
X-71378Y-14372D01*
X-71370Y-14579D01*
Y-14588D01*
Y-14606D01*
Y-14633D01*
Y-14669D01*
X-71388Y-14768D01*
X-71406Y-14895D01*
X-71442Y-15048D01*
X-71496Y-15210D01*
X-71577Y-15382D01*
X-71676Y-15544D01*
Y-15553D01*
X-71694Y-15562D01*
X-71730Y-15616D01*
X-71802Y-15688D01*
X-71901Y-15787D01*
X-72028Y-15886D01*
X-72190Y-16004D01*
X-72379Y-16103D01*
X-72596Y-16202D01*
X-72587D01*
X-72569Y-16211D01*
X-72524Y-16220D01*
X-72479Y-16229D01*
X-72425Y-16247D01*
X-72352Y-16274D01*
X-72199Y-16337D01*
X-72019Y-16418D01*
X-71838Y-16527D01*
X-71667Y-16662D01*
X-71505Y-16833D01*
X-71496Y-16842D01*
X-71487Y-16851D01*
X-71469Y-16878D01*
X-71442Y-16924D01*
X-71415Y-16969D01*
X-71378Y-17023D01*
X-71306Y-17158D01*
X-71234Y-17329D01*
X-71171Y-17537D01*
X-71126Y-17762D01*
X-71108Y-17879D01*
Y-18005D01*
Y-18015D01*
Y-18042D01*
Y-18078D01*
X-71117Y-18132D01*
Y-18195D01*
X-71126Y-18276D01*
X-71135Y-18357D01*
X-71144Y-18456D01*
X-71189Y-18655D01*
X-71243Y-18880D01*
X-71315Y-19097D01*
X-71424Y-19313D01*
Y-19322D01*
X-71442Y-19340D01*
X-71460Y-19367D01*
X-71478Y-19403D01*
X-71550Y-19502D01*
X-71658Y-19620D01*
X-71784Y-19755D01*
X-71938Y-19890D01*
X-72118Y-20025D01*
X-72325Y-20143D01*
X-72334D01*
X-72352Y-20152D01*
X-72389Y-20170D01*
X-72434Y-20188D01*
X-72488Y-20206D01*
X-72551Y-20233D01*
X-72632Y-20260D01*
X-72722Y-20278D01*
X-72812Y-20305D01*
X-72920Y-20332D01*
X-73155Y-20377D01*
X-73425Y-20413D01*
X-73714Y-20422D01*
X-73831D01*
X-73885Y-20413D01*
X-73957D01*
X-74129Y-20395D01*
X-74318Y-20359D01*
X-74525Y-20323D01*
X-74742Y-20260D01*
X-74949Y-20179D01*
X-74958D01*
X-74976Y-20170D01*
X-75003Y-20152D01*
X-75039Y-20134D01*
X-75139Y-20079D01*
X-75265Y-19998D01*
X-75409Y-19890D01*
X-75562Y-19764D01*
X-75707Y-19620D01*
X-75851Y-19448D01*
Y-19439D01*
X-75869Y-19421D01*
X-75887Y-19394D01*
X-75905Y-19358D01*
X-75932Y-19313D01*
X-75968Y-19250D01*
X-76004Y-19187D01*
X-76040Y-19115D01*
X-76112Y-18934D01*
X-76185Y-18736D01*
X-76248Y-18501D01*
X-76293Y-18249D01*
X-74823Y-18078D01*
Y-18087D01*
Y-18105D01*
X-74814Y-18132D01*
X-74805Y-18168D01*
X-74787Y-18267D01*
X-74751Y-18384D01*
X-74706Y-18520D01*
X-74643Y-18664D01*
X-74571Y-18799D01*
X-74471Y-18916D01*
X-74462Y-18925D01*
X-74417Y-18961D01*
X-74354Y-19006D01*
X-74273Y-19052D01*
X-74165Y-19106D01*
X-74039Y-19151D01*
X-73885Y-19187D01*
X-73723Y-19196D01*
X-73669D01*
X-73606Y-19187D01*
X-73534Y-19178D01*
X-73443Y-19160D01*
X-73353Y-19124D01*
X-73254Y-19088D01*
X-73164Y-19033D01*
X-73155Y-19024D01*
X-73128Y-18997D01*
X-73083Y-18961D01*
X-73029Y-18907D01*
X-72965Y-18844D01*
X-72902Y-18763D01*
X-72839Y-18673D01*
X-72785Y-18574D01*
X-72776Y-18565D01*
X-72767Y-18520D01*
X-72740Y-18465D01*
X-72713Y-18384D01*
X-72695Y-18294D01*
X-72668Y-18186D01*
X-72659Y-18069D01*
X-72650Y-17942D01*
Y-17924D01*
Y-17888D01*
X-72659Y-17825D01*
X-72668Y-17744D01*
X-72686Y-17654D01*
X-72713Y-17555D01*
X-72749Y-17447D01*
X-72794Y-17347D01*
X-72803Y-17338D01*
X-72821Y-17302D01*
X-72857Y-17257D01*
X-72902Y-17194D01*
X-72957Y-17131D01*
X-73029Y-17068D01*
X-73110Y-16996D01*
X-73200Y-16941D01*
X-73209Y-16932D01*
X-73245Y-16914D01*
X-73299Y-16896D01*
X-73371Y-16869D01*
X-73461Y-16842D01*
X-73561Y-16815D01*
X-73678Y-16806D01*
X-73804Y-16797D01*
X-74498D01*
X-74345Y-15661D01*
X-74219D01*
X-74156Y-15652D01*
X-74084Y-15643D01*
X-73921Y-15625D01*
X-73732Y-15598D01*
X-73552Y-15553D01*
X-73371Y-15490D01*
X-73299Y-15454D01*
X-73227Y-15409D01*
X-73209Y-15400D01*
X-73173Y-15364D01*
X-73110Y-15300D01*
X-73047Y-15219D01*
X-72984Y-15120D01*
X-72920Y-14994D01*
X-72884Y-14841D01*
X-72866Y-14669D01*
Y-14660D01*
Y-14651D01*
Y-14606D01*
X-72875Y-14534D01*
X-72893Y-14444D01*
X-72930Y-14345D01*
X-72965Y-14245D01*
X-73029Y-14146D01*
X-73110Y-14056D01*
X-73119Y-14047D01*
X-73155Y-14020D01*
X-73209Y-13984D01*
X-73281Y-13939D01*
X-73371Y-13903D01*
X-73488Y-13867D01*
X-73615Y-13840D01*
X-73759Y-13831D01*
X-73831D01*
X-73903Y-13849D01*
X-74002Y-13867D01*
X-74111Y-13903D01*
X-74228Y-13948D01*
X-74345Y-14020D01*
X-74453Y-14110D01*
X-74462Y-14119D01*
X-74498Y-14155D01*
X-74543Y-14218D01*
X-74598Y-14299D01*
X-74652Y-14408D01*
X-74706Y-14534D01*
X-74751Y-14687D01*
X-74778Y-14850D01*
X-76185Y-14606D01*
Y-14597D01*
X-76176Y-14561D01*
X-76158Y-14507D01*
X-76139Y-14444D01*
X-76112Y-14363D01*
X-76085Y-14263D01*
X-76049Y-14155D01*
X-76004Y-14038D01*
X-75887Y-13795D01*
X-75743Y-13551D01*
X-75662Y-13425D01*
X-75562Y-13308D01*
X-75463Y-13199D01*
X-75346Y-13100D01*
X-75337Y-13091D01*
X-75319Y-13082D01*
X-75283Y-13055D01*
X-75229Y-13019D01*
X-75166Y-12983D01*
X-75094Y-12938D01*
X-75003Y-12893D01*
X-74904Y-12848D01*
X-74796Y-12803D01*
X-74670Y-12758D01*
X-74535Y-12713D01*
X-74390Y-12677D01*
X-74237Y-12640D01*
X-74075Y-12613D01*
X-73903Y-12604D01*
X-73723Y-12595D01*
X-73606D01*
X-73543Y-12604D01*
D02*
G37*
G36*
X-82614D02*
X-82542D01*
X-82370Y-12631D01*
X-82181Y-12658D01*
X-81965Y-12703D01*
X-81757Y-12767D01*
X-81550Y-12857D01*
X-81541D01*
X-81523Y-12866D01*
X-81496Y-12884D01*
X-81460Y-12902D01*
X-81369Y-12956D01*
X-81243Y-13037D01*
X-81117Y-13136D01*
X-80982Y-13263D01*
X-80846Y-13398D01*
X-80729Y-13560D01*
Y-13569D01*
X-80720Y-13578D01*
X-80702Y-13605D01*
X-80684Y-13641D01*
X-80639Y-13731D01*
X-80585Y-13849D01*
X-80531Y-14002D01*
X-80486Y-14173D01*
X-80450Y-14372D01*
X-80441Y-14579D01*
Y-14588D01*
Y-14606D01*
Y-14633D01*
Y-14669D01*
X-80459Y-14768D01*
X-80477Y-14895D01*
X-80513Y-15048D01*
X-80567Y-15210D01*
X-80648Y-15382D01*
X-80747Y-15544D01*
Y-15553D01*
X-80765Y-15562D01*
X-80801Y-15616D01*
X-80873Y-15688D01*
X-80973Y-15787D01*
X-81099Y-15886D01*
X-81261Y-16004D01*
X-81451Y-16103D01*
X-81667Y-16202D01*
X-81658D01*
X-81640Y-16211D01*
X-81595Y-16220D01*
X-81550Y-16229D01*
X-81496Y-16247D01*
X-81424Y-16274D01*
X-81270Y-16337D01*
X-81090Y-16418D01*
X-80910Y-16527D01*
X-80738Y-16662D01*
X-80576Y-16833D01*
X-80567Y-16842D01*
X-80558Y-16851D01*
X-80540Y-16878D01*
X-80513Y-16924D01*
X-80486Y-16969D01*
X-80450Y-17023D01*
X-80378Y-17158D01*
X-80305Y-17329D01*
X-80242Y-17537D01*
X-80197Y-17762D01*
X-80179Y-17879D01*
Y-18005D01*
Y-18015D01*
Y-18042D01*
Y-18078D01*
X-80188Y-18132D01*
Y-18195D01*
X-80197Y-18276D01*
X-80206Y-18357D01*
X-80215Y-18456D01*
X-80260Y-18655D01*
X-80314Y-18880D01*
X-80386Y-19097D01*
X-80495Y-19313D01*
Y-19322D01*
X-80513Y-19340D01*
X-80531Y-19367D01*
X-80549Y-19403D01*
X-80621Y-19502D01*
X-80729Y-19620D01*
X-80855Y-19755D01*
X-81009Y-19890D01*
X-81189Y-20025D01*
X-81396Y-20143D01*
X-81405D01*
X-81424Y-20152D01*
X-81460Y-20170D01*
X-81505Y-20188D01*
X-81559Y-20206D01*
X-81622Y-20233D01*
X-81703Y-20260D01*
X-81793Y-20278D01*
X-81883Y-20305D01*
X-81992Y-20332D01*
X-82226Y-20377D01*
X-82497Y-20413D01*
X-82785Y-20422D01*
X-82902D01*
X-82956Y-20413D01*
X-83028D01*
X-83200Y-20395D01*
X-83389Y-20359D01*
X-83597Y-20323D01*
X-83813Y-20260D01*
X-84020Y-20179D01*
X-84029D01*
X-84047Y-20170D01*
X-84074Y-20152D01*
X-84111Y-20134D01*
X-84210Y-20079D01*
X-84336Y-19998D01*
X-84480Y-19890D01*
X-84634Y-19764D01*
X-84778Y-19620D01*
X-84922Y-19448D01*
Y-19439D01*
X-84940Y-19421D01*
X-84958Y-19394D01*
X-84976Y-19358D01*
X-85003Y-19313D01*
X-85039Y-19250D01*
X-85075Y-19187D01*
X-85111Y-19115D01*
X-85184Y-18934D01*
X-85256Y-18736D01*
X-85319Y-18501D01*
X-85364Y-18249D01*
X-83894Y-18078D01*
Y-18087D01*
Y-18105D01*
X-83885Y-18132D01*
X-83876Y-18168D01*
X-83858Y-18267D01*
X-83822Y-18384D01*
X-83777Y-18520D01*
X-83714Y-18664D01*
X-83642Y-18799D01*
X-83542Y-18916D01*
X-83533Y-18925D01*
X-83488Y-18961D01*
X-83425Y-19006D01*
X-83344Y-19052D01*
X-83236Y-19106D01*
X-83110Y-19151D01*
X-82956Y-19187D01*
X-82794Y-19196D01*
X-82740D01*
X-82677Y-19187D01*
X-82605Y-19178D01*
X-82514Y-19160D01*
X-82424Y-19124D01*
X-82325Y-19088D01*
X-82235Y-19033D01*
X-82226Y-19024D01*
X-82199Y-18997D01*
X-82154Y-18961D01*
X-82100Y-18907D01*
X-82037Y-18844D01*
X-81973Y-18763D01*
X-81910Y-18673D01*
X-81856Y-18574D01*
X-81847Y-18565D01*
X-81838Y-18520D01*
X-81811Y-18465D01*
X-81784Y-18384D01*
X-81766Y-18294D01*
X-81739Y-18186D01*
X-81730Y-18069D01*
X-81721Y-17942D01*
Y-17924D01*
Y-17888D01*
X-81730Y-17825D01*
X-81739Y-17744D01*
X-81757Y-17654D01*
X-81784Y-17555D01*
X-81820Y-17447D01*
X-81865Y-17347D01*
X-81874Y-17338D01*
X-81892Y-17302D01*
X-81928Y-17257D01*
X-81973Y-17194D01*
X-82028Y-17131D01*
X-82100Y-17068D01*
X-82181Y-16996D01*
X-82271Y-16941D01*
X-82280Y-16932D01*
X-82316Y-16914D01*
X-82370Y-16896D01*
X-82442Y-16869D01*
X-82533Y-16842D01*
X-82632Y-16815D01*
X-82749Y-16806D01*
X-82875Y-16797D01*
X-83569D01*
X-83416Y-15661D01*
X-83290D01*
X-83227Y-15652D01*
X-83155Y-15643D01*
X-82992Y-15625D01*
X-82803Y-15598D01*
X-82623Y-15553D01*
X-82442Y-15490D01*
X-82370Y-15454D01*
X-82298Y-15409D01*
X-82280Y-15400D01*
X-82244Y-15364D01*
X-82181Y-15300D01*
X-82118Y-15219D01*
X-82055Y-15120D01*
X-81992Y-14994D01*
X-81955Y-14841D01*
X-81938Y-14669D01*
Y-14660D01*
Y-14651D01*
Y-14606D01*
X-81946Y-14534D01*
X-81965Y-14444D01*
X-82001Y-14345D01*
X-82037Y-14245D01*
X-82100Y-14146D01*
X-82181Y-14056D01*
X-82190Y-14047D01*
X-82226Y-14020D01*
X-82280Y-13984D01*
X-82352Y-13939D01*
X-82442Y-13903D01*
X-82560Y-13867D01*
X-82686Y-13840D01*
X-82830Y-13831D01*
X-82902D01*
X-82974Y-13849D01*
X-83074Y-13867D01*
X-83182Y-13903D01*
X-83299Y-13948D01*
X-83416Y-14020D01*
X-83524Y-14110D01*
X-83533Y-14119D01*
X-83569Y-14155D01*
X-83615Y-14218D01*
X-83669Y-14299D01*
X-83723Y-14408D01*
X-83777Y-14534D01*
X-83822Y-14687D01*
X-83849Y-14850D01*
X-85256Y-14606D01*
Y-14597D01*
X-85247Y-14561D01*
X-85229Y-14507D01*
X-85211Y-14444D01*
X-85184Y-14363D01*
X-85156Y-14263D01*
X-85120Y-14155D01*
X-85075Y-14038D01*
X-84958Y-13795D01*
X-84814Y-13551D01*
X-84733Y-13425D01*
X-84634Y-13308D01*
X-84534Y-13199D01*
X-84417Y-13100D01*
X-84408Y-13091D01*
X-84390Y-13082D01*
X-84354Y-13055D01*
X-84300Y-13019D01*
X-84237Y-12983D01*
X-84165Y-12938D01*
X-84074Y-12893D01*
X-83975Y-12848D01*
X-83867Y-12803D01*
X-83741Y-12758D01*
X-83606Y-12713D01*
X-83461Y-12677D01*
X-83308Y-12640D01*
X-83146Y-12613D01*
X-82974Y-12604D01*
X-82794Y-12595D01*
X-82677D01*
X-82614Y-12604D01*
D02*
G37*
G36*
X-43832Y-20287D02*
X-45527D01*
X-46194Y-18556D01*
X-49170D01*
X-49801Y-20287D01*
X-51451D01*
X-48457Y-12595D01*
X-46924D01*
X-43832Y-20287D01*
D02*
G37*
G36*
X-77429D02*
X-78935D01*
Y-18781D01*
X-77429D01*
Y-20287D01*
D02*
G37*
G36*
X-67195Y-21969D02*
X-67077Y-21978D01*
X-66951Y-21987D01*
X-66807Y-22006D01*
X-66654Y-22032D01*
X-66491Y-22060D01*
X-66320Y-22096D01*
X-66140Y-22141D01*
X-65968Y-22204D01*
X-65788Y-22267D01*
X-65617Y-22339D01*
X-65454Y-22429D01*
X-65301Y-22529D01*
X-65292Y-22538D01*
X-65265Y-22555D01*
X-65229Y-22592D01*
X-65175Y-22637D01*
X-65103Y-22691D01*
X-65031Y-22763D01*
X-64949Y-22853D01*
X-64868Y-22952D01*
X-64778Y-23070D01*
X-64679Y-23196D01*
X-64589Y-23331D01*
X-64499Y-23484D01*
X-64408Y-23647D01*
X-64327Y-23827D01*
X-64255Y-24016D01*
X-64192Y-24224D01*
X-65743Y-24512D01*
Y-24503D01*
X-65752Y-24485D01*
X-65761Y-24458D01*
X-65779Y-24413D01*
X-65815Y-24305D01*
X-65878Y-24179D01*
X-65959Y-24034D01*
X-66059Y-23881D01*
X-66185Y-23737D01*
X-66329Y-23610D01*
X-66338D01*
X-66347Y-23593D01*
X-66374Y-23583D01*
X-66401Y-23556D01*
X-66500Y-23511D01*
X-66627Y-23448D01*
X-66780Y-23394D01*
X-66960Y-23340D01*
X-67177Y-23304D01*
X-67411Y-23295D01*
X-67510D01*
X-67573Y-23304D01*
X-67663Y-23313D01*
X-67754Y-23331D01*
X-67862Y-23349D01*
X-67979Y-23376D01*
X-68105Y-23412D01*
X-68232Y-23457D01*
X-68367Y-23502D01*
X-68502Y-23565D01*
X-68628Y-23647D01*
X-68755Y-23728D01*
X-68872Y-23827D01*
X-68989Y-23944D01*
X-68998Y-23953D01*
X-69016Y-23971D01*
X-69043Y-24007D01*
X-69079Y-24061D01*
X-69124Y-24134D01*
X-69169Y-24215D01*
X-69223Y-24314D01*
X-69269Y-24422D01*
X-69323Y-24548D01*
X-69377Y-24692D01*
X-69422Y-24846D01*
X-69467Y-25017D01*
X-69503Y-25206D01*
X-69530Y-25405D01*
X-69548Y-25621D01*
X-69557Y-25856D01*
Y-25865D01*
Y-25892D01*
Y-25937D01*
Y-26000D01*
X-69548Y-26072D01*
Y-26153D01*
X-69539Y-26253D01*
X-69530Y-26352D01*
X-69494Y-26586D01*
X-69458Y-26830D01*
X-69395Y-27073D01*
X-69314Y-27317D01*
Y-27325D01*
X-69305Y-27343D01*
X-69287Y-27371D01*
X-69269Y-27416D01*
X-69241Y-27470D01*
X-69205Y-27524D01*
X-69124Y-27668D01*
X-69025Y-27812D01*
X-68899Y-27975D01*
X-68755Y-28128D01*
X-68583Y-28263D01*
X-68574D01*
X-68565Y-28281D01*
X-68538Y-28290D01*
X-68502Y-28317D01*
X-68448Y-28335D01*
X-68394Y-28363D01*
X-68259Y-28426D01*
X-68087Y-28489D01*
X-67898Y-28534D01*
X-67673Y-28570D01*
X-67429Y-28588D01*
X-67348D01*
X-67249Y-28579D01*
X-67123Y-28570D01*
X-66978Y-28552D01*
X-66816Y-28525D01*
X-66645Y-28489D01*
X-66464Y-28444D01*
X-66455D01*
X-66446Y-28435D01*
X-66419Y-28426D01*
X-66383Y-28417D01*
X-66293Y-28380D01*
X-66185Y-28335D01*
X-66049Y-28272D01*
X-65914Y-28200D01*
X-65779Y-28110D01*
X-65644Y-28011D01*
Y-26965D01*
X-67438D01*
Y-25657D01*
X-64102D01*
Y-28723D01*
X-64120Y-28741D01*
X-64165Y-28777D01*
X-64237Y-28840D01*
X-64345Y-28921D01*
X-64472Y-29021D01*
X-64625Y-29120D01*
X-64796Y-29228D01*
X-64985Y-29336D01*
X-64995D01*
X-65012Y-29345D01*
X-65040Y-29363D01*
X-65076Y-29381D01*
X-65130Y-29399D01*
X-65184Y-29427D01*
X-65328Y-29490D01*
X-65500Y-29562D01*
X-65698Y-29625D01*
X-65914Y-29697D01*
X-66149Y-29760D01*
X-66158D01*
X-66176Y-29769D01*
X-66212Y-29778D01*
X-66257Y-29787D01*
X-66311Y-29796D01*
X-66383Y-29805D01*
X-66455Y-29823D01*
X-66545Y-29832D01*
X-66735Y-29868D01*
X-66951Y-29886D01*
X-67186Y-29904D01*
X-67420Y-29913D01*
X-67537D01*
X-67618Y-29904D01*
X-67718Y-29895D01*
X-67835Y-29886D01*
X-67970Y-29868D01*
X-68114Y-29850D01*
X-68268Y-29823D01*
X-68430Y-29796D01*
X-68773Y-29706D01*
X-68944Y-29643D01*
X-69115Y-29580D01*
X-69278Y-29508D01*
X-69440Y-29417D01*
X-69449Y-29408D01*
X-69476Y-29390D01*
X-69521Y-29363D01*
X-69575Y-29327D01*
X-69647Y-29273D01*
X-69728Y-29210D01*
X-69819Y-29138D01*
X-69918Y-29048D01*
X-70017Y-28958D01*
X-70125Y-28849D01*
X-70224Y-28732D01*
X-70333Y-28615D01*
X-70441Y-28471D01*
X-70540Y-28326D01*
X-70630Y-28173D01*
X-70720Y-28011D01*
X-70729Y-28002D01*
X-70738Y-27966D01*
X-70756Y-27921D01*
X-70783Y-27848D01*
X-70820Y-27767D01*
X-70856Y-27659D01*
X-70892Y-27542D01*
X-70937Y-27407D01*
X-70973Y-27262D01*
X-71018Y-27100D01*
X-71054Y-26929D01*
X-71081Y-26748D01*
X-71117Y-26550D01*
X-71135Y-26352D01*
X-71144Y-26135D01*
X-71153Y-25919D01*
Y-25901D01*
Y-25865D01*
Y-25802D01*
X-71144Y-25721D01*
X-71135Y-25612D01*
X-71126Y-25495D01*
X-71117Y-25360D01*
X-71099Y-25215D01*
X-71072Y-25053D01*
X-71045Y-24891D01*
X-70955Y-24539D01*
X-70910Y-24359D01*
X-70847Y-24179D01*
X-70774Y-24007D01*
X-70693Y-23836D01*
X-70684Y-23827D01*
X-70675Y-23800D01*
X-70648Y-23746D01*
X-70603Y-23692D01*
X-70558Y-23610D01*
X-70504Y-23529D01*
X-70432Y-23430D01*
X-70351Y-23331D01*
X-70260Y-23223D01*
X-70161Y-23105D01*
X-70053Y-22988D01*
X-69936Y-22880D01*
X-69810Y-22763D01*
X-69674Y-22655D01*
X-69530Y-22555D01*
X-69377Y-22456D01*
X-69368Y-22447D01*
X-69341Y-22438D01*
X-69287Y-22411D01*
X-69223Y-22375D01*
X-69142Y-22339D01*
X-69043Y-22303D01*
X-68935Y-22258D01*
X-68809Y-22204D01*
X-68673Y-22159D01*
X-68520Y-22114D01*
X-68358Y-22078D01*
X-68186Y-22041D01*
X-68006Y-22006D01*
X-67817Y-21978D01*
X-67618Y-21969D01*
X-67411Y-21960D01*
X-67285D01*
X-67195Y-21969D01*
D02*
G37*
G36*
X-43759Y-28480D02*
X-40324D01*
Y-29778D01*
X-45301D01*
Y-22087D01*
X-43759D01*
Y-28480D01*
D02*
G37*
G36*
X-46131Y-29778D02*
X-47826D01*
X-48493Y-28047D01*
X-51469D01*
X-52100Y-29778D01*
X-53750D01*
X-50757Y-22087D01*
X-49224D01*
X-46131Y-29778D01*
D02*
G37*
G36*
X-54030Y-23394D02*
X-56257D01*
Y-29778D01*
X-57799D01*
Y-23394D01*
X-60026D01*
Y-22087D01*
X-54030D01*
Y-23394D01*
D02*
G37*
G36*
X-61099Y-29778D02*
X-62641D01*
Y-22087D01*
X-61099D01*
Y-29778D01*
D02*
G37*
G36*
X-72425D02*
X-73966D01*
Y-22087D01*
X-72425D01*
Y-29778D01*
D02*
G37*
G36*
X-78520Y-22096D02*
X-78439Y-22105D01*
X-78349Y-22114D01*
X-78240Y-22132D01*
X-78132Y-22150D01*
X-78006Y-22177D01*
X-77871Y-22204D01*
X-77582Y-22294D01*
X-77429Y-22348D01*
X-77276Y-22411D01*
X-77113Y-22492D01*
X-76951Y-22573D01*
X-76798Y-22673D01*
X-76635Y-22781D01*
X-76482Y-22907D01*
X-76329Y-23042D01*
X-76185Y-23187D01*
X-76040Y-23358D01*
X-75905Y-23538D01*
X-75779Y-23737D01*
X-75662Y-23944D01*
X-75562Y-24179D01*
X-75472Y-24431D01*
X-75391Y-24702D01*
X-75328Y-24990D01*
X-75283Y-25306D01*
X-75256Y-25639D01*
X-75247Y-25991D01*
Y-26000D01*
Y-26009D01*
Y-26036D01*
Y-26072D01*
X-75256Y-26162D01*
Y-26279D01*
X-75274Y-26433D01*
X-75292Y-26604D01*
X-75319Y-26793D01*
X-75355Y-27001D01*
X-75400Y-27217D01*
X-75454Y-27443D01*
X-75517Y-27677D01*
X-75599Y-27912D01*
X-75698Y-28137D01*
X-75806Y-28363D01*
X-75941Y-28570D01*
X-76085Y-28768D01*
X-76094Y-28777D01*
X-76122Y-28813D01*
X-76176Y-28858D01*
X-76248Y-28921D01*
X-76329Y-29003D01*
X-76446Y-29084D01*
X-76572Y-29183D01*
X-76726Y-29273D01*
X-76897Y-29363D01*
X-77086Y-29462D01*
X-77303Y-29544D01*
X-77537Y-29616D01*
X-77790Y-29688D01*
X-78069Y-29733D01*
X-78367Y-29769D01*
X-78682Y-29778D01*
X-81676D01*
Y-22087D01*
X-78583D01*
X-78520Y-22096D01*
D02*
G37*
G36*
X-64616Y-39269D02*
X-66158D01*
Y-31578D01*
X-64616D01*
Y-39269D01*
D02*
G37*
G36*
X-59413Y-31461D02*
X-59314Y-31470D01*
X-59197Y-31479D01*
X-59061Y-31497D01*
X-58926Y-31515D01*
X-58773Y-31542D01*
X-58611Y-31569D01*
X-58277Y-31659D01*
X-58106Y-31713D01*
X-57934Y-31785D01*
X-57772Y-31857D01*
X-57610Y-31948D01*
X-57601Y-31957D01*
X-57573Y-31975D01*
X-57528Y-32002D01*
X-57465Y-32038D01*
X-57402Y-32092D01*
X-57321Y-32155D01*
X-57222Y-32227D01*
X-57132Y-32308D01*
X-57024Y-32399D01*
X-56915Y-32507D01*
X-56807Y-32624D01*
X-56699Y-32750D01*
X-56591Y-32885D01*
X-56491Y-33030D01*
X-56392Y-33183D01*
X-56302Y-33345D01*
X-56293Y-33354D01*
X-56284Y-33390D01*
X-56257Y-33435D01*
X-56230Y-33508D01*
X-56194Y-33589D01*
X-56158Y-33697D01*
X-56113Y-33814D01*
X-56068Y-33949D01*
X-56032Y-34094D01*
X-55986Y-34256D01*
X-55950Y-34427D01*
X-55914Y-34608D01*
X-55887Y-34806D01*
X-55860Y-35013D01*
X-55851Y-35221D01*
X-55842Y-35446D01*
Y-35455D01*
Y-35500D01*
Y-35563D01*
X-55851Y-35645D01*
Y-35744D01*
X-55869Y-35861D01*
X-55878Y-35996D01*
X-55896Y-36140D01*
X-55923Y-36294D01*
X-55950Y-36465D01*
X-56032Y-36808D01*
X-56086Y-36988D01*
X-56140Y-37159D01*
X-56212Y-37340D01*
X-56293Y-37511D01*
X-56302Y-37520D01*
X-56311Y-37547D01*
X-56338Y-37592D01*
X-56374Y-37655D01*
X-56419Y-37736D01*
X-56483Y-37818D01*
X-56546Y-37917D01*
X-56627Y-38016D01*
X-56708Y-38133D01*
X-56807Y-38242D01*
X-56915Y-38359D01*
X-57032Y-38476D01*
X-57159Y-38593D01*
X-57294Y-38701D01*
X-57438Y-38809D01*
X-57592Y-38909D01*
X-57601Y-38918D01*
X-57628Y-38927D01*
X-57673Y-38954D01*
X-57736Y-38990D01*
X-57817Y-39026D01*
X-57916Y-39062D01*
X-58024Y-39107D01*
X-58151Y-39152D01*
X-58295Y-39206D01*
X-58448Y-39251D01*
X-58611Y-39287D01*
X-58782Y-39323D01*
X-58971Y-39360D01*
X-59160Y-39387D01*
X-59368Y-39396D01*
X-59575Y-39405D01*
X-59683D01*
X-59765Y-39396D01*
X-59864Y-39387D01*
X-59981Y-39378D01*
X-60116Y-39360D01*
X-60252Y-39342D01*
X-60405Y-39314D01*
X-60567Y-39287D01*
X-60901Y-39197D01*
X-61072Y-39143D01*
X-61243Y-39080D01*
X-61415Y-38999D01*
X-61577Y-38918D01*
X-61586Y-38909D01*
X-61613Y-38891D01*
X-61658Y-38864D01*
X-61721Y-38828D01*
X-61793Y-38774D01*
X-61875Y-38710D01*
X-61965Y-38638D01*
X-62064Y-38557D01*
X-62163Y-38467D01*
X-62271Y-38359D01*
X-62389Y-38251D01*
X-62497Y-38124D01*
X-62605Y-37989D01*
X-62704Y-37845D01*
X-62803Y-37691D01*
X-62894Y-37529D01*
X-62903Y-37520D01*
X-62912Y-37484D01*
X-62939Y-37439D01*
X-62966Y-37367D01*
X-63002Y-37286D01*
X-63038Y-37187D01*
X-63074Y-37069D01*
X-63119Y-36934D01*
X-63164Y-36790D01*
X-63200Y-36627D01*
X-63236Y-36465D01*
X-63272Y-36285D01*
X-63299Y-36095D01*
X-63326Y-35897D01*
X-63335Y-35690D01*
X-63344Y-35473D01*
Y-35455D01*
Y-35419D01*
Y-35356D01*
X-63335Y-35266D01*
X-63326Y-35167D01*
X-63317Y-35040D01*
X-63308Y-34905D01*
X-63290Y-34752D01*
X-63263Y-34590D01*
X-63236Y-34418D01*
X-63155Y-34067D01*
X-63101Y-33886D01*
X-63038Y-33706D01*
X-62975Y-33526D01*
X-62894Y-33354D01*
X-62884Y-33345D01*
X-62875Y-33318D01*
X-62849Y-33264D01*
X-62812Y-33201D01*
X-62758Y-33129D01*
X-62704Y-33039D01*
X-62632Y-32940D01*
X-62560Y-32840D01*
X-62470Y-32723D01*
X-62371Y-32606D01*
X-62262Y-32498D01*
X-62145Y-32380D01*
X-62019Y-32263D01*
X-61884Y-32146D01*
X-61739Y-32047D01*
X-61586Y-31948D01*
X-61577Y-31939D01*
X-61550Y-31930D01*
X-61496Y-31902D01*
X-61433Y-31867D01*
X-61352Y-31830D01*
X-61252Y-31794D01*
X-61144Y-31749D01*
X-61018Y-31695D01*
X-60874Y-31650D01*
X-60729Y-31605D01*
X-60558Y-31569D01*
X-60387Y-31533D01*
X-60206Y-31497D01*
X-60008Y-31470D01*
X-59810Y-31461D01*
X-59602Y-31452D01*
X-59494D01*
X-59413Y-31461D01*
D02*
G37*
G36*
X89689Y-83209D02*
X89815Y-83221D01*
X89952Y-83243D01*
X90112Y-83266D01*
X90296Y-83289D01*
X90662Y-83392D01*
X90857Y-83450D01*
X91052Y-83530D01*
X91247Y-83610D01*
X91430Y-83724D01*
X91613Y-83839D01*
X91774Y-83976D01*
X91785Y-83988D01*
X91808Y-84011D01*
X91854Y-84057D01*
X91899Y-84114D01*
X91968Y-84194D01*
X92037Y-84286D01*
X92117Y-84389D01*
X92197Y-84503D01*
X92266Y-84641D01*
X92346Y-84790D01*
X92415Y-84950D01*
X92484Y-85122D01*
X92530Y-85305D01*
X92575Y-85500D01*
X92598Y-85706D01*
X92610Y-85924D01*
Y-85935D01*
Y-85958D01*
Y-85993D01*
Y-86050D01*
X92598Y-86107D01*
X92587Y-86187D01*
X92564Y-86359D01*
X92518Y-86565D01*
X92449Y-86783D01*
X92346Y-87012D01*
X92220Y-87230D01*
Y-87241D01*
X92197Y-87253D01*
X92152Y-87322D01*
X92060Y-87425D01*
X91945Y-87551D01*
X91796Y-87699D01*
X91613Y-87848D01*
X91396Y-87986D01*
X91155Y-88112D01*
X91166D01*
X91189Y-88123D01*
X91235Y-88146D01*
X91304Y-88181D01*
X91373Y-88215D01*
X91464Y-88261D01*
X91659Y-88375D01*
X91865Y-88524D01*
X92094Y-88696D01*
X92312Y-88902D01*
X92495Y-89143D01*
Y-89154D01*
X92518Y-89177D01*
X92541Y-89212D01*
X92564Y-89257D01*
X92598Y-89326D01*
X92644Y-89406D01*
X92678Y-89487D01*
X92724Y-89590D01*
X92804Y-89819D01*
X92885Y-90094D01*
X92930Y-90392D01*
X92953Y-90712D01*
Y-90724D01*
Y-90781D01*
X92942Y-90850D01*
Y-90953D01*
X92930Y-91079D01*
X92908Y-91216D01*
X92873Y-91377D01*
X92839Y-91549D01*
X92782Y-91743D01*
X92724Y-91927D01*
X92644Y-92133D01*
X92552Y-92327D01*
X92449Y-92522D01*
X92323Y-92717D01*
X92175Y-92900D01*
X92014Y-93084D01*
X92003Y-93095D01*
X91968Y-93118D01*
X91922Y-93164D01*
X91842Y-93221D01*
X91751Y-93301D01*
X91636Y-93370D01*
X91499Y-93462D01*
X91350Y-93542D01*
X91178Y-93622D01*
X90995Y-93714D01*
X90788Y-93782D01*
X90571Y-93851D01*
X90330Y-93920D01*
X90078Y-93966D01*
X89815Y-93989D01*
X89528Y-94000D01*
X89391D01*
X89288Y-93989D01*
X89162Y-93977D01*
X89024Y-93954D01*
X88864Y-93931D01*
X88692Y-93908D01*
X88302Y-93817D01*
X88108Y-93759D01*
X87902Y-93679D01*
X87707Y-93599D01*
X87501Y-93496D01*
X87306Y-93381D01*
X87123Y-93244D01*
X87111Y-93232D01*
X87077Y-93198D01*
X87020Y-93152D01*
X86951Y-93084D01*
X86859Y-92992D01*
X86768Y-92877D01*
X86664Y-92751D01*
X86561Y-92602D01*
X86458Y-92431D01*
X86355Y-92247D01*
X86264Y-92053D01*
X86172Y-91835D01*
X86103Y-91594D01*
X86046Y-91342D01*
X86011Y-91079D01*
X86000Y-90793D01*
Y-90781D01*
Y-90758D01*
Y-90712D01*
X86011Y-90644D01*
Y-90575D01*
X86023Y-90483D01*
X86057Y-90277D01*
X86103Y-90036D01*
X86183Y-89773D01*
X86286Y-89498D01*
X86424Y-89223D01*
Y-89212D01*
X86447Y-89189D01*
X86470Y-89154D01*
X86504Y-89108D01*
X86607Y-88971D01*
X86745Y-88811D01*
X86939Y-88639D01*
X87169Y-88444D01*
X87432Y-88272D01*
X87753Y-88112D01*
X87741D01*
X87718Y-88101D01*
X87684Y-88077D01*
X87627Y-88055D01*
X87489Y-87974D01*
X87317Y-87871D01*
X87134Y-87745D01*
X86951Y-87585D01*
X86768Y-87413D01*
X86619Y-87207D01*
Y-87196D01*
X86607Y-87184D01*
X86584Y-87150D01*
X86561Y-87104D01*
X86504Y-86989D01*
X86447Y-86829D01*
X86378Y-86634D01*
X86321Y-86417D01*
X86275Y-86176D01*
X86264Y-85924D01*
Y-85913D01*
Y-85867D01*
X86275Y-85809D01*
Y-85729D01*
X86286Y-85626D01*
X86309Y-85512D01*
X86332Y-85374D01*
X86367Y-85237D01*
X86412Y-85088D01*
X86470Y-84927D01*
X86527Y-84767D01*
X86607Y-84607D01*
X86710Y-84446D01*
X86813Y-84286D01*
X86939Y-84125D01*
X87088Y-83976D01*
X87100Y-83965D01*
X87123Y-83942D01*
X87180Y-83908D01*
X87237Y-83850D01*
X87329Y-83793D01*
X87432Y-83724D01*
X87547Y-83656D01*
X87695Y-83587D01*
X87844Y-83518D01*
X88028Y-83438D01*
X88222Y-83381D01*
X88429Y-83324D01*
X88658Y-83266D01*
X88898Y-83232D01*
X89162Y-83209D01*
X89437Y-83197D01*
X89586D01*
X89689Y-83209D01*
D02*
G37*
G36*
X-10361Y-148000D02*
X-12388D01*
Y-140382D01*
X-12400Y-140394D01*
X-12434Y-140428D01*
X-12503Y-140485D01*
X-12583Y-140554D01*
X-12686Y-140634D01*
X-12823Y-140737D01*
X-12961Y-140852D01*
X-13133Y-140966D01*
X-13316Y-141092D01*
X-13511Y-141218D01*
X-13728Y-141344D01*
X-13958Y-141470D01*
X-14198Y-141596D01*
X-14462Y-141711D01*
X-14725Y-141814D01*
X-15000Y-141917D01*
Y-140073D01*
X-14988D01*
X-14966Y-140061D01*
X-14920Y-140050D01*
X-14863Y-140027D01*
X-14782Y-139993D01*
X-14702Y-139958D01*
X-14599Y-139913D01*
X-14484Y-139855D01*
X-14232Y-139729D01*
X-13946Y-139557D01*
X-13625Y-139351D01*
X-13282Y-139099D01*
X-13270Y-139088D01*
X-13236Y-139065D01*
X-13190Y-139030D01*
X-13133Y-138973D01*
X-13053Y-138904D01*
X-12972Y-138813D01*
X-12881Y-138721D01*
X-12778Y-138607D01*
X-12560Y-138355D01*
X-12354Y-138068D01*
X-12159Y-137747D01*
X-12079Y-137576D01*
X-12010Y-137392D01*
X-10361D01*
Y-148000D01*
D02*
G37*
G36*
X-37437Y-83209D02*
X-37334D01*
X-37208Y-83232D01*
X-37059Y-83243D01*
X-36899Y-83278D01*
X-36727Y-83312D01*
X-36532Y-83369D01*
X-36338Y-83427D01*
X-36143Y-83507D01*
X-35948Y-83598D01*
X-35742Y-83713D01*
X-35547Y-83839D01*
X-35364Y-83988D01*
X-35192Y-84160D01*
X-35181Y-84171D01*
X-35158Y-84194D01*
X-35123Y-84240D01*
X-35078Y-84297D01*
X-35020Y-84366D01*
X-34952Y-84458D01*
X-34883Y-84561D01*
X-34814Y-84675D01*
X-34677Y-84927D01*
X-34551Y-85225D01*
X-34505Y-85386D01*
X-34470Y-85557D01*
X-34448Y-85729D01*
X-34436Y-85913D01*
Y-85924D01*
Y-85970D01*
X-34448Y-86050D01*
X-34459Y-86142D01*
X-34482Y-86256D01*
X-34516Y-86394D01*
X-34562Y-86554D01*
X-34631Y-86714D01*
X-34711Y-86886D01*
X-34803Y-87070D01*
X-34929Y-87253D01*
X-35078Y-87436D01*
X-35249Y-87619D01*
X-35456Y-87803D01*
X-35696Y-87974D01*
X-35960Y-88135D01*
X-35948D01*
X-35914Y-88146D01*
X-35868Y-88158D01*
X-35811Y-88181D01*
X-35731Y-88204D01*
X-35639Y-88238D01*
X-35444Y-88318D01*
X-35204Y-88433D01*
X-34963Y-88593D01*
X-34734Y-88776D01*
X-34619Y-88891D01*
X-34516Y-89017D01*
X-34505Y-89028D01*
X-34493Y-89051D01*
X-34470Y-89086D01*
X-34425Y-89131D01*
X-34390Y-89200D01*
X-34344Y-89280D01*
X-34287Y-89372D01*
X-34241Y-89475D01*
X-34138Y-89716D01*
X-34047Y-89991D01*
X-33989Y-90311D01*
X-33978Y-90483D01*
X-33966Y-90655D01*
Y-90667D01*
Y-90712D01*
X-33978Y-90793D01*
Y-90884D01*
X-34001Y-91010D01*
X-34024Y-91148D01*
X-34047Y-91297D01*
X-34092Y-91468D01*
X-34150Y-91652D01*
X-34218Y-91846D01*
X-34299Y-92041D01*
X-34402Y-92236D01*
X-34516Y-92442D01*
X-34654Y-92637D01*
X-34803Y-92831D01*
X-34986Y-93026D01*
X-34997Y-93038D01*
X-35032Y-93072D01*
X-35089Y-93118D01*
X-35169Y-93175D01*
X-35272Y-93255D01*
X-35387Y-93336D01*
X-35524Y-93427D01*
X-35685Y-93507D01*
X-35856Y-93599D01*
X-36051Y-93691D01*
X-36269Y-93771D01*
X-36487Y-93851D01*
X-36727Y-93908D01*
X-36979Y-93954D01*
X-37254Y-93989D01*
X-37529Y-94000D01*
X-37598D01*
X-37666Y-93989D01*
X-37770D01*
X-37884Y-93977D01*
X-38033Y-93954D01*
X-38193Y-93931D01*
X-38365Y-93897D01*
X-38549Y-93851D01*
X-38743Y-93794D01*
X-38938Y-93736D01*
X-39133Y-93656D01*
X-39339Y-93553D01*
X-39534Y-93450D01*
X-39728Y-93324D01*
X-39912Y-93175D01*
X-39923Y-93164D01*
X-39958Y-93141D01*
X-40003Y-93095D01*
X-40061Y-93026D01*
X-40129Y-92946D01*
X-40221Y-92843D01*
X-40301Y-92728D01*
X-40404Y-92591D01*
X-40496Y-92442D01*
X-40588Y-92282D01*
X-40679Y-92110D01*
X-40771Y-91915D01*
X-40840Y-91709D01*
X-40908Y-91491D01*
X-40966Y-91251D01*
X-41000Y-91010D01*
X-39041Y-90770D01*
Y-90781D01*
Y-90804D01*
X-39030Y-90838D01*
X-39018Y-90896D01*
X-38995Y-91033D01*
X-38938Y-91193D01*
X-38881Y-91388D01*
X-38789Y-91571D01*
X-38674Y-91766D01*
X-38537Y-91927D01*
X-38514Y-91938D01*
X-38468Y-91984D01*
X-38377Y-92053D01*
X-38262Y-92121D01*
X-38113Y-92190D01*
X-37941Y-92259D01*
X-37747Y-92305D01*
X-37541Y-92316D01*
X-37483D01*
X-37437Y-92305D01*
X-37323Y-92293D01*
X-37174Y-92259D01*
X-37002Y-92201D01*
X-36830Y-92121D01*
X-36647Y-92007D01*
X-36475Y-91846D01*
X-36452Y-91824D01*
X-36406Y-91755D01*
X-36338Y-91652D01*
X-36258Y-91503D01*
X-36177Y-91319D01*
X-36109Y-91102D01*
X-36063Y-90850D01*
X-36040Y-90563D01*
Y-90552D01*
Y-90529D01*
Y-90495D01*
X-36051Y-90437D01*
Y-90369D01*
X-36063Y-90300D01*
X-36086Y-90128D01*
X-36143Y-89933D01*
X-36212Y-89727D01*
X-36315Y-89532D01*
X-36452Y-89349D01*
X-36475Y-89326D01*
X-36521Y-89280D01*
X-36613Y-89200D01*
X-36727Y-89120D01*
X-36876Y-89040D01*
X-37048Y-88960D01*
X-37243Y-88914D01*
X-37460Y-88891D01*
X-37529D01*
X-37609Y-88902D01*
X-37724Y-88914D01*
X-37861Y-88925D01*
X-38010Y-88960D01*
X-38193Y-88994D01*
X-38388Y-89051D01*
X-38170Y-87402D01*
X-38033D01*
X-37964Y-87390D01*
X-37884D01*
X-37701Y-87367D01*
X-37495Y-87333D01*
X-37288Y-87264D01*
X-37094Y-87173D01*
X-36910Y-87058D01*
X-36888Y-87035D01*
X-36842Y-86989D01*
X-36773Y-86909D01*
X-36681Y-86795D01*
X-36601Y-86646D01*
X-36532Y-86474D01*
X-36487Y-86279D01*
X-36464Y-86050D01*
Y-86039D01*
Y-86027D01*
Y-85958D01*
X-36475Y-85867D01*
X-36498Y-85741D01*
X-36544Y-85615D01*
X-36601Y-85466D01*
X-36681Y-85328D01*
X-36784Y-85202D01*
X-36796Y-85191D01*
X-36842Y-85156D01*
X-36910Y-85099D01*
X-37013Y-85042D01*
X-37139Y-84985D01*
X-37277Y-84927D01*
X-37449Y-84893D01*
X-37644Y-84881D01*
X-37735D01*
X-37827Y-84904D01*
X-37953Y-84927D01*
X-38090Y-84973D01*
X-38239Y-85030D01*
X-38388Y-85122D01*
X-38537Y-85248D01*
X-38549Y-85260D01*
X-38594Y-85317D01*
X-38652Y-85397D01*
X-38732Y-85512D01*
X-38812Y-85660D01*
X-38881Y-85832D01*
X-38938Y-86050D01*
X-38984Y-86291D01*
X-40851Y-85981D01*
Y-85970D01*
X-40840Y-85935D01*
X-40828Y-85890D01*
X-40817Y-85821D01*
X-40794Y-85741D01*
X-40771Y-85649D01*
X-40702Y-85431D01*
X-40622Y-85179D01*
X-40519Y-84927D01*
X-40404Y-84675D01*
X-40267Y-84446D01*
Y-84435D01*
X-40244Y-84423D01*
X-40198Y-84354D01*
X-40107Y-84240D01*
X-39980Y-84114D01*
X-39832Y-83965D01*
X-39648Y-83816D01*
X-39431Y-83667D01*
X-39179Y-83530D01*
X-39167D01*
X-39144Y-83518D01*
X-39110Y-83495D01*
X-39053Y-83472D01*
X-38984Y-83450D01*
X-38904Y-83427D01*
X-38812Y-83392D01*
X-38709Y-83358D01*
X-38480Y-83301D01*
X-38205Y-83243D01*
X-37907Y-83209D01*
X-37586Y-83197D01*
X-37518D01*
X-37437Y-83209D01*
D02*
G37*
G36*
X-87361Y-94000D02*
X-89388D01*
Y-86382D01*
X-89400Y-86394D01*
X-89434Y-86428D01*
X-89503Y-86485D01*
X-89583Y-86554D01*
X-89686Y-86634D01*
X-89824Y-86737D01*
X-89961Y-86852D01*
X-90133Y-86966D01*
X-90316Y-87092D01*
X-90511Y-87218D01*
X-90728Y-87344D01*
X-90958Y-87470D01*
X-91198Y-87596D01*
X-91462Y-87711D01*
X-91725Y-87814D01*
X-92000Y-87917D01*
Y-86073D01*
X-91988D01*
X-91966Y-86061D01*
X-91920Y-86050D01*
X-91862Y-86027D01*
X-91782Y-85993D01*
X-91702Y-85958D01*
X-91599Y-85913D01*
X-91484Y-85855D01*
X-91233Y-85729D01*
X-90946Y-85557D01*
X-90625Y-85351D01*
X-90282Y-85099D01*
X-90270Y-85088D01*
X-90236Y-85065D01*
X-90190Y-85030D01*
X-90133Y-84973D01*
X-90053Y-84904D01*
X-89972Y-84813D01*
X-89881Y-84721D01*
X-89778Y-84607D01*
X-89560Y-84354D01*
X-89354Y-84068D01*
X-89159Y-83747D01*
X-89079Y-83576D01*
X-89010Y-83392D01*
X-87361D01*
Y-94000D01*
D02*
G37*
G36*
X-35361Y-148000D02*
X-37388D01*
Y-140382D01*
X-37400Y-140394D01*
X-37434Y-140428D01*
X-37503Y-140485D01*
X-37583Y-140554D01*
X-37686Y-140634D01*
X-37824Y-140737D01*
X-37961Y-140852D01*
X-38133Y-140966D01*
X-38316Y-141092D01*
X-38511Y-141218D01*
X-38728Y-141344D01*
X-38958Y-141470D01*
X-39198Y-141596D01*
X-39462Y-141711D01*
X-39725Y-141814D01*
X-40000Y-141917D01*
Y-140073D01*
X-39989D01*
X-39966Y-140061D01*
X-39920Y-140050D01*
X-39862Y-140027D01*
X-39782Y-139993D01*
X-39702Y-139958D01*
X-39599Y-139913D01*
X-39485Y-139855D01*
X-39232Y-139729D01*
X-38946Y-139557D01*
X-38625Y-139351D01*
X-38282Y-139099D01*
X-38270Y-139088D01*
X-38236Y-139065D01*
X-38190Y-139030D01*
X-38133Y-138973D01*
X-38053Y-138904D01*
X-37972Y-138813D01*
X-37881Y-138721D01*
X-37778Y-138607D01*
X-37560Y-138355D01*
X-37354Y-138068D01*
X-37159Y-137747D01*
X-37079Y-137576D01*
X-37010Y-137392D01*
X-35361D01*
Y-148000D01*
D02*
G37*
G36*
X-61991Y-83404D02*
X-61865Y-83415D01*
X-61716Y-83438D01*
X-61544Y-83461D01*
X-61361Y-83495D01*
X-61166Y-83541D01*
X-60971Y-83598D01*
X-60765Y-83667D01*
X-60559Y-83747D01*
X-60364Y-83850D01*
X-60169Y-83965D01*
X-59974Y-84091D01*
X-59803Y-84240D01*
X-59791Y-84251D01*
X-59768Y-84274D01*
X-59722Y-84332D01*
X-59665Y-84389D01*
X-59596Y-84469D01*
X-59516Y-84572D01*
X-59436Y-84687D01*
X-59344Y-84824D01*
X-59264Y-84962D01*
X-59184Y-85122D01*
X-59104Y-85294D01*
X-59035Y-85477D01*
X-58978Y-85683D01*
X-58932Y-85890D01*
X-58909Y-86107D01*
X-58898Y-86336D01*
Y-86348D01*
Y-86371D01*
Y-86405D01*
Y-86462D01*
X-58909Y-86520D01*
Y-86600D01*
X-58932Y-86772D01*
X-58966Y-86989D01*
X-59012Y-87218D01*
X-59069Y-87459D01*
X-59161Y-87699D01*
Y-87711D01*
X-59173Y-87722D01*
X-59184Y-87768D01*
X-59207Y-87814D01*
X-59241Y-87871D01*
X-59276Y-87940D01*
X-59356Y-88112D01*
X-59470Y-88307D01*
X-59608Y-88536D01*
X-59780Y-88788D01*
X-59974Y-89051D01*
X-59997Y-89074D01*
X-60043Y-89143D01*
X-60146Y-89246D01*
X-60272Y-89395D01*
X-60364Y-89487D01*
X-60456Y-89590D01*
X-60570Y-89693D01*
X-60685Y-89819D01*
X-60822Y-89945D01*
X-60971Y-90094D01*
X-61131Y-90243D01*
X-61303Y-90403D01*
X-61315Y-90414D01*
X-61349Y-90437D01*
X-61395Y-90483D01*
X-61452Y-90541D01*
X-61532Y-90609D01*
X-61624Y-90689D01*
X-61819Y-90873D01*
X-62025Y-91067D01*
X-62220Y-91262D01*
X-62311Y-91354D01*
X-62392Y-91434D01*
X-62460Y-91514D01*
X-62518Y-91571D01*
X-62529Y-91583D01*
X-62563Y-91617D01*
X-62609Y-91674D01*
X-62667Y-91743D01*
X-62724Y-91835D01*
X-62793Y-91927D01*
X-62930Y-92121D01*
X-58898D01*
Y-94000D01*
X-66000D01*
Y-93989D01*
X-65988Y-93954D01*
Y-93897D01*
X-65977Y-93817D01*
X-65954Y-93725D01*
X-65931Y-93610D01*
X-65908Y-93484D01*
X-65874Y-93347D01*
X-65782Y-93038D01*
X-65656Y-92694D01*
X-65507Y-92339D01*
X-65313Y-91984D01*
X-65301Y-91972D01*
X-65290Y-91938D01*
X-65244Y-91881D01*
X-65198Y-91812D01*
X-65129Y-91720D01*
X-65038Y-91594D01*
X-64935Y-91468D01*
X-64809Y-91308D01*
X-64671Y-91136D01*
X-64499Y-90953D01*
X-64316Y-90735D01*
X-64110Y-90518D01*
X-63881Y-90277D01*
X-63617Y-90014D01*
X-63342Y-89739D01*
X-63033Y-89452D01*
X-63022Y-89441D01*
X-62976Y-89395D01*
X-62907Y-89326D01*
X-62815Y-89246D01*
X-62701Y-89143D01*
X-62586Y-89028D01*
X-62449Y-88891D01*
X-62311Y-88753D01*
X-62014Y-88467D01*
X-61739Y-88181D01*
X-61624Y-88055D01*
X-61509Y-87929D01*
X-61418Y-87814D01*
X-61349Y-87722D01*
Y-87711D01*
X-61326Y-87699D01*
X-61315Y-87665D01*
X-61280Y-87619D01*
X-61212Y-87493D01*
X-61131Y-87333D01*
X-61063Y-87150D01*
X-60994Y-86944D01*
X-60948Y-86714D01*
X-60925Y-86485D01*
Y-86474D01*
Y-86451D01*
Y-86417D01*
Y-86371D01*
X-60948Y-86256D01*
X-60971Y-86096D01*
X-61017Y-85935D01*
X-61074Y-85764D01*
X-61166Y-85592D01*
X-61292Y-85443D01*
X-61303Y-85431D01*
X-61361Y-85386D01*
X-61441Y-85328D01*
X-61555Y-85260D01*
X-61704Y-85191D01*
X-61876Y-85133D01*
X-62071Y-85088D01*
X-62300Y-85076D01*
X-62403D01*
X-62518Y-85099D01*
X-62667Y-85122D01*
X-62827Y-85168D01*
X-62999Y-85237D01*
X-63170Y-85340D01*
X-63319Y-85466D01*
X-63331Y-85489D01*
X-63377Y-85534D01*
X-63434Y-85626D01*
X-63514Y-85764D01*
X-63583Y-85935D01*
X-63652Y-86153D01*
X-63709Y-86417D01*
X-63732Y-86565D01*
X-63743Y-86726D01*
X-65759Y-86531D01*
Y-86508D01*
X-65748Y-86462D01*
X-65736Y-86371D01*
X-65714Y-86256D01*
X-65691Y-86119D01*
X-65656Y-85958D01*
X-65610Y-85787D01*
X-65553Y-85603D01*
X-65484Y-85408D01*
X-65404Y-85214D01*
X-65313Y-85007D01*
X-65210Y-84813D01*
X-65095Y-84618D01*
X-64958Y-84435D01*
X-64809Y-84274D01*
X-64637Y-84125D01*
X-64625Y-84114D01*
X-64591Y-84091D01*
X-64534Y-84057D01*
X-64465Y-84011D01*
X-64373Y-83954D01*
X-64259Y-83896D01*
X-64133Y-83828D01*
X-63984Y-83759D01*
X-63812Y-83690D01*
X-63640Y-83621D01*
X-63445Y-83564D01*
X-63228Y-83507D01*
X-63010Y-83461D01*
X-62770Y-83427D01*
X-62518Y-83404D01*
X-62254Y-83392D01*
X-62105D01*
X-61991Y-83404D01*
D02*
G37*
G36*
X-85361Y-148000D02*
X-87388D01*
Y-140382D01*
X-87400Y-140394D01*
X-87434Y-140428D01*
X-87503Y-140485D01*
X-87583Y-140554D01*
X-87686Y-140634D01*
X-87823Y-140737D01*
X-87961Y-140852D01*
X-88133Y-140966D01*
X-88316Y-141092D01*
X-88511Y-141218D01*
X-88728Y-141344D01*
X-88958Y-141470D01*
X-89198Y-141596D01*
X-89462Y-141711D01*
X-89725Y-141814D01*
X-90000Y-141917D01*
Y-140073D01*
X-89988D01*
X-89966Y-140061D01*
X-89920Y-140050D01*
X-89862Y-140027D01*
X-89782Y-139993D01*
X-89702Y-139958D01*
X-89599Y-139913D01*
X-89485Y-139855D01*
X-89233Y-139729D01*
X-88946Y-139557D01*
X-88625Y-139351D01*
X-88282Y-139099D01*
X-88270Y-139088D01*
X-88236Y-139065D01*
X-88190Y-139030D01*
X-88133Y-138973D01*
X-88053Y-138904D01*
X-87972Y-138813D01*
X-87881Y-138721D01*
X-87778Y-138607D01*
X-87560Y-138355D01*
X-87354Y-138068D01*
X-87159Y-137747D01*
X-87079Y-137576D01*
X-87010Y-137392D01*
X-85361D01*
Y-148000D01*
D02*
G37*
G36*
X66239D02*
X64212D01*
Y-140382D01*
X64200Y-140394D01*
X64166Y-140428D01*
X64097Y-140485D01*
X64017Y-140554D01*
X63914Y-140634D01*
X63776Y-140737D01*
X63639Y-140852D01*
X63467Y-140966D01*
X63284Y-141092D01*
X63089Y-141218D01*
X62872Y-141344D01*
X62642Y-141470D01*
X62402Y-141596D01*
X62138Y-141711D01*
X61875Y-141814D01*
X61600Y-141917D01*
Y-140073D01*
X61611D01*
X61634Y-140061D01*
X61680Y-140050D01*
X61737Y-140027D01*
X61818Y-139993D01*
X61898Y-139958D01*
X62001Y-139913D01*
X62116Y-139855D01*
X62368Y-139729D01*
X62654Y-139557D01*
X62975Y-139351D01*
X63318Y-139099D01*
X63330Y-139088D01*
X63364Y-139065D01*
X63410Y-139030D01*
X63467Y-138973D01*
X63547Y-138904D01*
X63628Y-138813D01*
X63719Y-138721D01*
X63822Y-138607D01*
X64040Y-138355D01*
X64246Y-138068D01*
X64441Y-137747D01*
X64521Y-137576D01*
X64590Y-137392D01*
X66239D01*
Y-148000D01*
D02*
G37*
G36*
X14639D02*
X12612D01*
Y-140382D01*
X12600Y-140394D01*
X12566Y-140428D01*
X12497Y-140485D01*
X12417Y-140554D01*
X12314Y-140634D01*
X12177Y-140737D01*
X12039Y-140852D01*
X11867Y-140966D01*
X11684Y-141092D01*
X11489Y-141218D01*
X11272Y-141344D01*
X11042Y-141470D01*
X10802Y-141596D01*
X10538Y-141711D01*
X10275Y-141814D01*
X10000Y-141917D01*
Y-140073D01*
X10012D01*
X10034Y-140061D01*
X10080Y-140050D01*
X10137Y-140027D01*
X10218Y-139993D01*
X10298Y-139958D01*
X10401Y-139913D01*
X10516Y-139855D01*
X10768Y-139729D01*
X11054Y-139557D01*
X11375Y-139351D01*
X11718Y-139099D01*
X11730Y-139088D01*
X11764Y-139065D01*
X11810Y-139030D01*
X11867Y-138973D01*
X11947Y-138904D01*
X12028Y-138813D01*
X12119Y-138721D01*
X12222Y-138607D01*
X12440Y-138355D01*
X12646Y-138068D01*
X12841Y-137747D01*
X12921Y-137576D01*
X12990Y-137392D01*
X14639D01*
Y-148000D01*
D02*
G37*
G36*
X90279Y-18537D02*
X90409Y-18560D01*
X90562Y-18584D01*
X90715Y-18631D01*
X90892Y-18702D01*
X91057Y-18784D01*
X91081Y-18796D01*
X91128Y-18831D01*
X91210Y-18890D01*
X91305Y-18961D01*
X91411Y-19067D01*
X91529Y-19185D01*
X91646Y-19326D01*
X91741Y-19480D01*
X91753Y-19503D01*
X91776Y-19550D01*
X91823Y-19645D01*
X91870Y-19762D01*
X91906Y-19904D01*
X91953Y-20069D01*
X91976Y-20246D01*
X91988Y-20434D01*
Y-24465D01*
Y-24488D01*
Y-24547D01*
X91976Y-24653D01*
X91965Y-24771D01*
X91929Y-24913D01*
X91882Y-25078D01*
X91823Y-25243D01*
X91729Y-25408D01*
X91717Y-25431D01*
X91682Y-25478D01*
X91623Y-25561D01*
X91552Y-25655D01*
X91446Y-25773D01*
X91328Y-25879D01*
X91199Y-25997D01*
X91045Y-26103D01*
X91022Y-26115D01*
X90975Y-26139D01*
X90880Y-26186D01*
X90763Y-26233D01*
X90621Y-26280D01*
X90456Y-26327D01*
X90279Y-26351D01*
X90079Y-26362D01*
X85860D01*
X85754Y-26351D01*
X85624Y-26327D01*
X85483Y-26304D01*
X85318Y-26256D01*
X85153Y-26186D01*
X84988Y-26103D01*
X84964Y-26091D01*
X84917Y-26056D01*
X84834Y-25997D01*
X84740Y-25914D01*
X84634Y-25820D01*
X84516Y-25702D01*
X84398Y-25561D01*
X84292Y-25408D01*
X84280Y-25384D01*
X84257Y-25337D01*
X84210Y-25243D01*
X84163Y-25125D01*
X84115Y-24983D01*
X84068Y-24830D01*
X84045Y-24653D01*
X84033Y-24465D01*
Y-20434D01*
Y-20422D01*
Y-20411D01*
Y-20352D01*
X84045Y-20246D01*
X84068Y-20116D01*
X84092Y-19975D01*
X84139Y-19810D01*
X84210Y-19645D01*
X84292Y-19480D01*
X84304Y-19456D01*
X84339Y-19409D01*
X84398Y-19326D01*
X84481Y-19232D01*
X84587Y-19114D01*
X84705Y-18996D01*
X84834Y-18890D01*
X84988Y-18784D01*
X85011Y-18772D01*
X85070Y-18749D01*
X85153Y-18702D01*
X85270Y-18655D01*
X85412Y-18607D01*
X85577Y-18560D01*
X85754Y-18537D01*
X85942Y-18525D01*
X90173D01*
X90279Y-18537D01*
D02*
G37*
G36*
X82595Y-26362D02*
X76455D01*
X76361Y-26351D01*
X76219Y-26327D01*
X76078Y-26304D01*
X75913Y-26256D01*
X75736Y-26197D01*
X75571Y-26115D01*
X75547Y-26103D01*
X75500Y-26068D01*
X75418Y-26009D01*
X75323Y-25926D01*
X75217Y-25832D01*
X75099Y-25714D01*
X74993Y-25573D01*
X74887Y-25419D01*
X74875Y-25396D01*
X74852Y-25337D01*
X74805Y-25254D01*
X74758Y-25137D01*
X74710Y-24983D01*
X74663Y-24830D01*
X74640Y-24653D01*
X74628Y-24465D01*
Y-20434D01*
Y-20422D01*
Y-20411D01*
Y-20352D01*
X74640Y-20246D01*
X74663Y-20116D01*
X74687Y-19975D01*
X74734Y-19810D01*
X74805Y-19645D01*
X74887Y-19480D01*
X74899Y-19456D01*
X74934Y-19409D01*
X74993Y-19326D01*
X75076Y-19232D01*
X75170Y-19114D01*
X75288Y-18996D01*
X75418Y-18890D01*
X75571Y-18784D01*
X75594Y-18772D01*
X75653Y-18749D01*
X75736Y-18702D01*
X75854Y-18655D01*
X76007Y-18607D01*
X76172Y-18560D01*
X76349Y-18537D01*
X76549Y-18525D01*
X80674D01*
Y-15956D01*
X82607D01*
X82595Y-26362D01*
D02*
G37*
G36*
X73567D02*
X67427D01*
X67333Y-26351D01*
X67191Y-26327D01*
X67050Y-26304D01*
X66885Y-26256D01*
X66708Y-26197D01*
X66543Y-26115D01*
X66519Y-26103D01*
X66472Y-26068D01*
X66390Y-26009D01*
X66296Y-25926D01*
X66189Y-25832D01*
X66072Y-25714D01*
X65966Y-25573D01*
X65859Y-25419D01*
X65848Y-25396D01*
X65824Y-25337D01*
X65777Y-25254D01*
X65730Y-25137D01*
X65683Y-24983D01*
X65636Y-24830D01*
X65612Y-24653D01*
X65600Y-24465D01*
Y-20434D01*
Y-20422D01*
Y-20411D01*
Y-20352D01*
X65612Y-20246D01*
X65636Y-20116D01*
X65659Y-19975D01*
X65706Y-19810D01*
X65777Y-19645D01*
X65859Y-19480D01*
X65871Y-19456D01*
X65907Y-19409D01*
X65966Y-19326D01*
X66048Y-19232D01*
X66142Y-19114D01*
X66260Y-18996D01*
X66390Y-18890D01*
X66543Y-18784D01*
X66567Y-18772D01*
X66626Y-18749D01*
X66708Y-18702D01*
X66826Y-18655D01*
X66979Y-18607D01*
X67144Y-18560D01*
X67321Y-18537D01*
X67521Y-18525D01*
X71646D01*
Y-15956D01*
X73579D01*
X73567Y-26362D01*
D02*
G37*
G36*
X62854Y-18537D02*
X62984Y-18560D01*
X63137Y-18584D01*
X63290Y-18631D01*
X63467Y-18702D01*
X63632Y-18784D01*
X63656Y-18796D01*
X63703Y-18831D01*
X63785Y-18890D01*
X63880Y-18961D01*
X63986Y-19067D01*
X64103Y-19185D01*
X64221Y-19326D01*
X64316Y-19480D01*
X64327Y-19503D01*
X64351Y-19550D01*
X64398Y-19645D01*
X64445Y-19762D01*
X64481Y-19904D01*
X64528Y-20069D01*
X64551Y-20246D01*
X64563Y-20434D01*
Y-24465D01*
Y-24488D01*
Y-24547D01*
X64551Y-24653D01*
X64539Y-24771D01*
X64504Y-24913D01*
X64457Y-25078D01*
X64398Y-25243D01*
X64304Y-25408D01*
X64292Y-25431D01*
X64257Y-25478D01*
X64198Y-25561D01*
X64127Y-25655D01*
X64021Y-25773D01*
X63903Y-25879D01*
X63773Y-25997D01*
X63620Y-26103D01*
X63597Y-26115D01*
X63550Y-26139D01*
X63455Y-26186D01*
X63337Y-26233D01*
X63196Y-26280D01*
X63031Y-26327D01*
X62854Y-26351D01*
X62654Y-26362D01*
X58435D01*
X58328Y-26351D01*
X58199Y-26327D01*
X58057Y-26304D01*
X57892Y-26256D01*
X57727Y-26186D01*
X57562Y-26103D01*
X57539Y-26091D01*
X57492Y-26056D01*
X57409Y-25997D01*
X57315Y-25914D01*
X57209Y-25820D01*
X57091Y-25702D01*
X56973Y-25561D01*
X56867Y-25408D01*
X56855Y-25384D01*
X56832Y-25337D01*
X56785Y-25243D01*
X56737Y-25125D01*
X56690Y-24983D01*
X56643Y-24830D01*
X56620Y-24653D01*
X56608Y-24465D01*
Y-20434D01*
Y-20422D01*
Y-20411D01*
Y-20352D01*
X56620Y-20246D01*
X56643Y-20116D01*
X56667Y-19975D01*
X56714Y-19810D01*
X56785Y-19645D01*
X56867Y-19480D01*
X56879Y-19456D01*
X56914Y-19409D01*
X56973Y-19326D01*
X57056Y-19232D01*
X57162Y-19114D01*
X57280Y-18996D01*
X57409Y-18890D01*
X57562Y-18784D01*
X57586Y-18772D01*
X57645Y-18749D01*
X57727Y-18702D01*
X57845Y-18655D01*
X57987Y-18607D01*
X58152Y-18560D01*
X58328Y-18537D01*
X58517Y-18525D01*
X62748D01*
X62854Y-18537D01*
D02*
G37*
G36*
X53190D02*
X53320Y-18560D01*
X53473Y-18584D01*
X53626Y-18631D01*
X53803Y-18702D01*
X53968Y-18784D01*
X53991Y-18796D01*
X54039Y-18831D01*
X54121Y-18890D01*
X54215Y-18973D01*
X54321Y-19067D01*
X54439Y-19185D01*
X54557Y-19326D01*
X54651Y-19480D01*
X54663Y-19503D01*
X54687Y-19550D01*
X54734Y-19645D01*
X54781Y-19762D01*
X54828Y-19904D01*
X54875Y-20069D01*
X54899Y-20246D01*
X54911Y-20434D01*
Y-26362D01*
X53001D01*
X52990Y-20529D01*
Y-20517D01*
Y-20505D01*
Y-20481D01*
X52978Y-20470D01*
X52966Y-20458D01*
X52907Y-20446D01*
X50208D01*
X50161Y-20470D01*
X50149Y-20481D01*
X50138Y-20493D01*
Y-20529D01*
Y-26362D01*
X48205D01*
Y-20529D01*
Y-20517D01*
Y-20505D01*
X48193Y-20481D01*
X48181Y-20470D01*
X48169Y-20458D01*
X48122Y-20446D01*
X45400D01*
X45364Y-20470D01*
X45353Y-20481D01*
Y-20493D01*
Y-20529D01*
X45341Y-26362D01*
X43408D01*
Y-18525D01*
X53084D01*
X53190Y-18537D01*
D02*
G37*
G36*
X92000Y-30266D02*
X84988Y-30254D01*
X84999Y-32187D01*
X90621Y-32210D01*
X90633Y-34167D01*
X84988Y-34155D01*
X84999Y-36088D01*
X91988Y-36100D01*
X92000Y-38044D01*
X83019D01*
Y-28309D01*
X91988D01*
X92000Y-30266D01*
D02*
G37*
G36*
X79755Y-28321D02*
X79884Y-28345D01*
X80038Y-28380D01*
X80203Y-28427D01*
X80368Y-28486D01*
X80533Y-28580D01*
X80556Y-28592D01*
X80603Y-28628D01*
X80686Y-28686D01*
X80780Y-28769D01*
X80898Y-28863D01*
X81016Y-28981D01*
X81122Y-29123D01*
X81228Y-29276D01*
X81240Y-29299D01*
X81275Y-29346D01*
X81311Y-29441D01*
X81369Y-29559D01*
X81417Y-29700D01*
X81464Y-29877D01*
X81499Y-30054D01*
X81511Y-30254D01*
X81499Y-31079D01*
X79531D01*
Y-30348D01*
Y-30336D01*
Y-30325D01*
X79507Y-30289D01*
X79496Y-30278D01*
X79484Y-30266D01*
X73744D01*
X73720Y-30289D01*
Y-30301D01*
Y-30348D01*
Y-32128D01*
Y-32152D01*
Y-32187D01*
X73744Y-32199D01*
X73756D01*
X73791Y-32187D01*
X79590D01*
X79661Y-32199D01*
X79755Y-32210D01*
X79884Y-32234D01*
X80038Y-32269D01*
X80203Y-32317D01*
X80368Y-32387D01*
X80533Y-32470D01*
X80556Y-32482D01*
X80603Y-32517D01*
X80686Y-32576D01*
X80780Y-32647D01*
X80898Y-32752D01*
X81016Y-32870D01*
X81122Y-33012D01*
X81228Y-33165D01*
X81240Y-33189D01*
X81275Y-33247D01*
X81311Y-33330D01*
X81369Y-33460D01*
X81417Y-33601D01*
X81464Y-33766D01*
X81499Y-33943D01*
X81511Y-34143D01*
Y-36100D01*
Y-36123D01*
Y-36194D01*
X81499Y-36300D01*
X81475Y-36430D01*
X81440Y-36583D01*
X81381Y-36748D01*
X81322Y-36913D01*
X81228Y-37090D01*
X81216Y-37113D01*
X81181Y-37160D01*
X81122Y-37243D01*
X81039Y-37337D01*
X80945Y-37455D01*
X80827Y-37561D01*
X80686Y-37679D01*
X80533Y-37785D01*
X80509Y-37797D01*
X80462Y-37820D01*
X80368Y-37868D01*
X80250Y-37915D01*
X80108Y-37962D01*
X79943Y-38009D01*
X79755Y-38033D01*
X79566Y-38044D01*
X73615D01*
X73520Y-38033D01*
X73390Y-38009D01*
X73237Y-37985D01*
X73072Y-37938D01*
X72907Y-37868D01*
X72730Y-37785D01*
X72707Y-37773D01*
X72660Y-37738D01*
X72577Y-37679D01*
X72471Y-37596D01*
X72353Y-37502D01*
X72235Y-37384D01*
X72118Y-37243D01*
X72012Y-37090D01*
X72000Y-37066D01*
X71976Y-37007D01*
X71929Y-36925D01*
X71882Y-36795D01*
X71835Y-36654D01*
X71800Y-36477D01*
X71776Y-36300D01*
X71764Y-36100D01*
X71752Y-35275D01*
X73720D01*
Y-36005D01*
Y-36017D01*
Y-36029D01*
Y-36076D01*
X73744Y-36088D01*
X79496D01*
X79507Y-36076D01*
X79519Y-36052D01*
X79531Y-36005D01*
Y-34237D01*
Y-34226D01*
Y-34214D01*
X79519Y-34190D01*
X79507Y-34179D01*
X79496Y-34167D01*
X73685D01*
X73615Y-34155D01*
X73520Y-34143D01*
X73390Y-34132D01*
X73237Y-34096D01*
X73072Y-34049D01*
X72907Y-33978D01*
X72730Y-33896D01*
X72707Y-33884D01*
X72660Y-33849D01*
X72577Y-33790D01*
X72471Y-33707D01*
X72353Y-33613D01*
X72235Y-33483D01*
X72118Y-33342D01*
X72012Y-33189D01*
X72000Y-33165D01*
X71976Y-33106D01*
X71929Y-33024D01*
X71882Y-32894D01*
X71835Y-32752D01*
X71800Y-32587D01*
X71776Y-32411D01*
X71764Y-32222D01*
Y-30254D01*
Y-30242D01*
Y-30230D01*
Y-30160D01*
X71776Y-30054D01*
X71788Y-29924D01*
X71823Y-29771D01*
X71858Y-29618D01*
X71929Y-29441D01*
X72012Y-29276D01*
X72023Y-29252D01*
X72059Y-29205D01*
X72118Y-29123D01*
X72200Y-29028D01*
X72306Y-28910D01*
X72424Y-28793D01*
X72577Y-28686D01*
X72730Y-28580D01*
X72754Y-28569D01*
X72813Y-28533D01*
X72895Y-28498D01*
X73025Y-28439D01*
X73167Y-28392D01*
X73332Y-28356D01*
X73520Y-28321D01*
X73709Y-28309D01*
X79661D01*
X79755Y-28321D01*
D02*
G37*
G36*
X47780Y-38044D02*
X45812D01*
Y-31220D01*
X42300Y-35428D01*
X38764Y-31232D01*
Y-38044D01*
X36820D01*
Y-28309D01*
X38882D01*
X42300Y-32375D01*
X45694Y-28309D01*
X47780D01*
Y-38044D01*
D02*
G37*
G36*
X70303Y-36100D02*
Y-36123D01*
Y-36194D01*
X70291Y-36300D01*
X70267Y-36430D01*
X70232Y-36583D01*
X70185Y-36748D01*
X70126Y-36913D01*
X70032Y-37090D01*
X70020Y-37113D01*
X69984Y-37160D01*
X69926Y-37243D01*
X69843Y-37337D01*
X69737Y-37455D01*
X69619Y-37561D01*
X69478Y-37679D01*
X69324Y-37785D01*
X69301Y-37797D01*
X69254Y-37820D01*
X69159Y-37868D01*
X69042Y-37915D01*
X68900Y-37962D01*
X68735Y-38009D01*
X68558Y-38033D01*
X68358Y-38044D01*
X62418D01*
X62312Y-38033D01*
X62182Y-38009D01*
X62029Y-37985D01*
X61864Y-37938D01*
X61699Y-37868D01*
X61522Y-37785D01*
X61499Y-37773D01*
X61452Y-37738D01*
X61369Y-37679D01*
X61275Y-37596D01*
X61157Y-37502D01*
X61039Y-37384D01*
X60921Y-37243D01*
X60815Y-37090D01*
X60803Y-37066D01*
X60780Y-37007D01*
X60733Y-36925D01*
X60686Y-36795D01*
X60638Y-36654D01*
X60591Y-36477D01*
X60568Y-36300D01*
X60556Y-36100D01*
Y-28309D01*
X62512D01*
Y-36005D01*
Y-36017D01*
Y-36029D01*
X62524Y-36076D01*
X62548Y-36088D01*
X68287D01*
X68311Y-36076D01*
X68323Y-36052D01*
X68334Y-36041D01*
X68323Y-36005D01*
X68346Y-28309D01*
X70303D01*
Y-36100D01*
D02*
G37*
G36*
X57339Y-28321D02*
X57480Y-28345D01*
X57621Y-28380D01*
X57786Y-28427D01*
X57951Y-28486D01*
X58116Y-28580D01*
X58140Y-28592D01*
X58187Y-28628D01*
X58270Y-28686D01*
X58364Y-28769D01*
X58482Y-28863D01*
X58600Y-28981D01*
X58717Y-29123D01*
X58823Y-29276D01*
X58835Y-29299D01*
X58871Y-29346D01*
X58906Y-29441D01*
X58965Y-29559D01*
X59012Y-29700D01*
X59047Y-29877D01*
X59083Y-30054D01*
X59095Y-30254D01*
Y-36100D01*
Y-36123D01*
Y-36194D01*
X59083Y-36300D01*
X59059Y-36430D01*
X59024Y-36583D01*
X58977Y-36748D01*
X58918Y-36913D01*
X58823Y-37090D01*
X58812Y-37113D01*
X58776Y-37160D01*
X58717Y-37243D01*
X58635Y-37337D01*
X58529Y-37455D01*
X58411Y-37561D01*
X58270Y-37679D01*
X58116Y-37785D01*
X58093Y-37797D01*
X58046Y-37820D01*
X57951Y-37868D01*
X57833Y-37915D01*
X57692Y-37962D01*
X57527Y-38009D01*
X57350Y-38033D01*
X57150Y-38044D01*
X51210D01*
X51104Y-38033D01*
X50974Y-38009D01*
X50821Y-37985D01*
X50656Y-37938D01*
X50491Y-37868D01*
X50314Y-37785D01*
X50291Y-37773D01*
X50244Y-37738D01*
X50161Y-37679D01*
X50067Y-37596D01*
X49949Y-37502D01*
X49831Y-37384D01*
X49713Y-37243D01*
X49607Y-37090D01*
X49595Y-37066D01*
X49572Y-37007D01*
X49525Y-36925D01*
X49478Y-36795D01*
X49430Y-36654D01*
X49383Y-36477D01*
X49360Y-36300D01*
X49348Y-36100D01*
Y-30254D01*
Y-30242D01*
Y-30230D01*
Y-30160D01*
X49360Y-30054D01*
X49383Y-29924D01*
X49407Y-29771D01*
X49454Y-29618D01*
X49525Y-29441D01*
X49607Y-29276D01*
X49619Y-29252D01*
X49654Y-29205D01*
X49713Y-29123D01*
X49796Y-29028D01*
X49902Y-28910D01*
X50020Y-28793D01*
X50161Y-28686D01*
X50314Y-28580D01*
X50338Y-28569D01*
X50397Y-28533D01*
X50479Y-28498D01*
X50609Y-28439D01*
X50750Y-28392D01*
X50927Y-28356D01*
X51104Y-28321D01*
X51304Y-28309D01*
X57244D01*
X57339Y-28321D01*
D02*
G37*
G36*
X38982Y-83059D02*
X39074Y-83071D01*
X39200Y-83082D01*
X39337Y-83105D01*
X39475Y-83128D01*
X39795Y-83219D01*
X39956Y-83265D01*
X40128Y-83334D01*
X40288Y-83414D01*
X40460Y-83506D01*
X40620Y-83609D01*
X40769Y-83735D01*
X40781Y-83747D01*
X40803Y-83769D01*
X40849Y-83804D01*
X40895Y-83861D01*
X40964Y-83930D01*
X41033Y-84021D01*
X41113Y-84113D01*
X41193Y-84239D01*
X41273Y-84365D01*
X41365Y-84514D01*
X41445Y-84674D01*
X41525Y-84846D01*
X41605Y-85041D01*
X41674Y-85247D01*
X41731Y-85465D01*
X41777Y-85705D01*
X39818Y-85912D01*
Y-85900D01*
Y-85889D01*
X39807Y-85808D01*
X39773Y-85705D01*
X39738Y-85579D01*
X39692Y-85430D01*
X39624Y-85293D01*
X39532Y-85144D01*
X39429Y-85029D01*
X39417Y-85018D01*
X39372Y-84984D01*
X39314Y-84938D01*
X39223Y-84881D01*
X39108Y-84823D01*
X38971Y-84777D01*
X38822Y-84743D01*
X38650Y-84732D01*
X38593D01*
X38547Y-84743D01*
X38421Y-84766D01*
X38272Y-84800D01*
X38100Y-84869D01*
X37917Y-84972D01*
X37825Y-85041D01*
X37734Y-85121D01*
X37653Y-85213D01*
X37562Y-85316D01*
Y-85327D01*
X37539Y-85339D01*
X37516Y-85385D01*
X37493Y-85430D01*
X37459Y-85499D01*
X37413Y-85591D01*
X37378Y-85705D01*
X37332Y-85831D01*
X37287Y-85980D01*
X37229Y-86152D01*
X37184Y-86347D01*
X37138Y-86576D01*
X37103Y-86817D01*
X37058Y-87092D01*
X37023Y-87389D01*
X37000Y-87722D01*
X37012Y-87710D01*
X37035Y-87687D01*
X37081Y-87641D01*
X37138Y-87584D01*
X37218Y-87515D01*
X37298Y-87435D01*
X37401Y-87355D01*
X37527Y-87263D01*
X37653Y-87183D01*
X37802Y-87103D01*
X37951Y-87023D01*
X38123Y-86954D01*
X38295Y-86897D01*
X38489Y-86851D01*
X38684Y-86828D01*
X38890Y-86817D01*
X38948D01*
X39016Y-86828D01*
X39108D01*
X39211Y-86851D01*
X39337Y-86862D01*
X39486Y-86897D01*
X39635Y-86943D01*
X39807Y-86988D01*
X39979Y-87057D01*
X40162Y-87137D01*
X40345Y-87229D01*
X40529Y-87344D01*
X40712Y-87470D01*
X40895Y-87618D01*
X41067Y-87790D01*
X41078Y-87802D01*
X41101Y-87836D01*
X41147Y-87893D01*
X41204Y-87962D01*
X41273Y-88065D01*
X41353Y-88180D01*
X41434Y-88306D01*
X41525Y-88466D01*
X41605Y-88626D01*
X41686Y-88821D01*
X41766Y-89027D01*
X41835Y-89245D01*
X41892Y-89486D01*
X41938Y-89726D01*
X41961Y-90001D01*
X41972Y-90276D01*
Y-90299D01*
Y-90345D01*
X41961Y-90436D01*
Y-90540D01*
X41938Y-90677D01*
X41926Y-90837D01*
X41892Y-91021D01*
X41857Y-91215D01*
X41800Y-91410D01*
X41743Y-91628D01*
X41663Y-91846D01*
X41571Y-92063D01*
X41456Y-92269D01*
X41330Y-92487D01*
X41182Y-92682D01*
X41010Y-92876D01*
X40998Y-92888D01*
X40964Y-92922D01*
X40918Y-92968D01*
X40838Y-93025D01*
X40746Y-93106D01*
X40632Y-93186D01*
X40494Y-93277D01*
X40345Y-93358D01*
X40185Y-93449D01*
X40002Y-93541D01*
X39795Y-93621D01*
X39578Y-93701D01*
X39349Y-93758D01*
X39108Y-93804D01*
X38845Y-93839D01*
X38570Y-93850D01*
X38501D01*
X38421Y-93839D01*
X38306Y-93827D01*
X38169Y-93816D01*
X38008Y-93781D01*
X37837Y-93747D01*
X37642Y-93690D01*
X37436Y-93632D01*
X37218Y-93552D01*
X37000Y-93449D01*
X36783Y-93323D01*
X36565Y-93186D01*
X36347Y-93025D01*
X36130Y-92831D01*
X35935Y-92613D01*
X35924Y-92601D01*
X35889Y-92556D01*
X35843Y-92476D01*
X35775Y-92372D01*
X35694Y-92235D01*
X35614Y-92063D01*
X35523Y-91868D01*
X35431Y-91639D01*
X35328Y-91364D01*
X35236Y-91067D01*
X35156Y-90734D01*
X35076Y-90368D01*
X35007Y-89967D01*
X34961Y-89520D01*
X34927Y-89050D01*
X34915Y-88535D01*
Y-88523D01*
Y-88500D01*
Y-88466D01*
Y-88409D01*
Y-88340D01*
X34927Y-88260D01*
Y-88168D01*
Y-88065D01*
X34950Y-87825D01*
X34973Y-87550D01*
X35007Y-87240D01*
X35053Y-86920D01*
X35110Y-86576D01*
X35179Y-86232D01*
X35259Y-85877D01*
X35362Y-85534D01*
X35488Y-85201D01*
X35626Y-84892D01*
X35798Y-84606D01*
X35981Y-84342D01*
X35992Y-84331D01*
X36027Y-84285D01*
X36095Y-84228D01*
X36175Y-84136D01*
X36279Y-84044D01*
X36416Y-83930D01*
X36565Y-83815D01*
X36737Y-83689D01*
X36920Y-83575D01*
X37138Y-83460D01*
X37367Y-83346D01*
X37619Y-83254D01*
X37882Y-83162D01*
X38157Y-83105D01*
X38467Y-83059D01*
X38776Y-83048D01*
X38890D01*
X38982Y-83059D01*
D02*
G37*
G36*
X40639Y-148000D02*
X38612D01*
Y-140382D01*
X38600Y-140394D01*
X38566Y-140428D01*
X38497Y-140485D01*
X38417Y-140554D01*
X38314Y-140634D01*
X38177Y-140737D01*
X38039Y-140852D01*
X37867Y-140966D01*
X37684Y-141092D01*
X37489Y-141218D01*
X37272Y-141344D01*
X37042Y-141470D01*
X36802Y-141596D01*
X36538Y-141711D01*
X36275Y-141814D01*
X36000Y-141917D01*
Y-140073D01*
X36012D01*
X36034Y-140061D01*
X36080Y-140050D01*
X36137Y-140027D01*
X36218Y-139993D01*
X36298Y-139958D01*
X36401Y-139913D01*
X36516Y-139855D01*
X36767Y-139729D01*
X37054Y-139557D01*
X37375Y-139351D01*
X37718Y-139099D01*
X37730Y-139088D01*
X37764Y-139065D01*
X37810Y-139030D01*
X37867Y-138973D01*
X37947Y-138904D01*
X38028Y-138813D01*
X38119Y-138721D01*
X38222Y-138607D01*
X38440Y-138355D01*
X38646Y-138068D01*
X38841Y-137747D01*
X38921Y-137576D01*
X38990Y-137392D01*
X40639D01*
Y-148000D01*
D02*
G37*
G36*
X16644Y-85271D02*
X12807D01*
X12486Y-87070D01*
X12497D01*
X12520Y-87058D01*
X12555Y-87035D01*
X12600Y-87012D01*
X12669Y-86989D01*
X12738Y-86955D01*
X12910Y-86898D01*
X13127Y-86829D01*
X13356Y-86783D01*
X13608Y-86737D01*
X13872Y-86726D01*
X13929D01*
X13998Y-86737D01*
X14101D01*
X14216Y-86760D01*
X14353Y-86783D01*
X14502Y-86806D01*
X14662Y-86852D01*
X14846Y-86898D01*
X15029Y-86966D01*
X15212Y-87047D01*
X15407Y-87138D01*
X15602Y-87253D01*
X15796Y-87390D01*
X15980Y-87539D01*
X16163Y-87711D01*
X16174Y-87722D01*
X16209Y-87757D01*
X16255Y-87814D01*
X16312Y-87894D01*
X16381Y-87986D01*
X16461Y-88101D01*
X16552Y-88238D01*
X16644Y-88398D01*
X16724Y-88570D01*
X16816Y-88765D01*
X16896Y-88982D01*
X16965Y-89200D01*
X17022Y-89452D01*
X17068Y-89704D01*
X17102Y-89979D01*
X17114Y-90266D01*
Y-90277D01*
Y-90323D01*
Y-90392D01*
X17102Y-90483D01*
X17091Y-90598D01*
X17068Y-90735D01*
X17045Y-90884D01*
X17022Y-91045D01*
X16976Y-91228D01*
X16931Y-91411D01*
X16862Y-91606D01*
X16793Y-91801D01*
X16701Y-92007D01*
X16598Y-92201D01*
X16484Y-92408D01*
X16346Y-92602D01*
X16335Y-92614D01*
X16300Y-92660D01*
X16243Y-92728D01*
X16152Y-92820D01*
X16049Y-92923D01*
X15922Y-93049D01*
X15774Y-93175D01*
X15602Y-93301D01*
X15407Y-93427D01*
X15189Y-93553D01*
X14960Y-93679D01*
X14708Y-93782D01*
X14433Y-93874D01*
X14135Y-93943D01*
X13815Y-93989D01*
X13482Y-94000D01*
X13345D01*
X13242Y-93989D01*
X13116Y-93977D01*
X12967Y-93954D01*
X12807Y-93931D01*
X12635Y-93897D01*
X12257Y-93805D01*
X12050Y-93748D01*
X11856Y-93668D01*
X11650Y-93576D01*
X11455Y-93473D01*
X11272Y-93358D01*
X11088Y-93221D01*
X11077Y-93210D01*
X11054Y-93187D01*
X11008Y-93141D01*
X10939Y-93072D01*
X10871Y-92992D01*
X10790Y-92900D01*
X10699Y-92786D01*
X10607Y-92660D01*
X10516Y-92511D01*
X10424Y-92350D01*
X10332Y-92179D01*
X10241Y-91995D01*
X10160Y-91789D01*
X10092Y-91571D01*
X10046Y-91342D01*
X10000Y-91102D01*
X12016Y-90884D01*
Y-90896D01*
Y-90919D01*
X12028Y-90953D01*
X12039Y-90999D01*
X12062Y-91125D01*
X12108Y-91274D01*
X12177Y-91457D01*
X12268Y-91629D01*
X12383Y-91812D01*
X12520Y-91972D01*
X12543Y-91984D01*
X12600Y-92030D01*
X12681Y-92098D01*
X12807Y-92167D01*
X12944Y-92247D01*
X13116Y-92305D01*
X13299Y-92350D01*
X13505Y-92373D01*
X13563D01*
X13608Y-92362D01*
X13735Y-92350D01*
X13883Y-92305D01*
X14055Y-92247D01*
X14227Y-92156D01*
X14410Y-92030D01*
X14502Y-91950D01*
X14582Y-91858D01*
Y-91846D01*
X14605Y-91835D01*
X14628Y-91801D01*
X14651Y-91766D01*
X14685Y-91709D01*
X14720Y-91640D01*
X14765Y-91560D01*
X14811Y-91468D01*
X14846Y-91365D01*
X14892Y-91251D01*
X14926Y-91125D01*
X14960Y-90987D01*
X14983Y-90827D01*
X15006Y-90667D01*
X15029Y-90483D01*
Y-90300D01*
Y-90288D01*
Y-90254D01*
Y-90208D01*
X15017Y-90140D01*
Y-90059D01*
X15006Y-89968D01*
X14972Y-89750D01*
X14926Y-89509D01*
X14846Y-89269D01*
X14731Y-89040D01*
X14582Y-88834D01*
Y-88822D01*
X14559Y-88811D01*
X14502Y-88753D01*
X14410Y-88673D01*
X14273Y-88582D01*
X14112Y-88501D01*
X13918Y-88421D01*
X13700Y-88364D01*
X13574Y-88341D01*
X13368D01*
X13299Y-88352D01*
X13219Y-88364D01*
X13139Y-88387D01*
X12921Y-88433D01*
X12681Y-88524D01*
X12543Y-88593D01*
X12417Y-88662D01*
X12280Y-88753D01*
X12142Y-88856D01*
X12005Y-88971D01*
X11879Y-89108D01*
X10241Y-88879D01*
X11283Y-83369D01*
X16644D01*
Y-85271D01*
D02*
G37*
G36*
X67930Y-85030D02*
X67919Y-85042D01*
X67896Y-85065D01*
X67850Y-85122D01*
X67782Y-85191D01*
X67701Y-85271D01*
X67610Y-85386D01*
X67507Y-85512D01*
X67392Y-85649D01*
X67266Y-85809D01*
X67129Y-85993D01*
X66980Y-86199D01*
X66831Y-86417D01*
X66670Y-86646D01*
X66510Y-86898D01*
X66350Y-87173D01*
X66178Y-87459D01*
X66166Y-87482D01*
X66143Y-87528D01*
X66098Y-87619D01*
X66029Y-87734D01*
X65960Y-87883D01*
X65880Y-88055D01*
X65777Y-88249D01*
X65674Y-88467D01*
X65571Y-88719D01*
X65456Y-88971D01*
X65353Y-89257D01*
X65238Y-89544D01*
X65124Y-89853D01*
X65021Y-90174D01*
X64826Y-90827D01*
Y-90850D01*
X64803Y-90907D01*
X64780Y-90999D01*
X64757Y-91125D01*
X64723Y-91285D01*
X64677Y-91457D01*
X64643Y-91663D01*
X64597Y-91892D01*
X64551Y-92133D01*
X64517Y-92385D01*
X64448Y-92912D01*
X64391Y-93462D01*
X64379Y-94000D01*
X62421D01*
Y-93989D01*
Y-93977D01*
Y-93943D01*
Y-93897D01*
X62432Y-93782D01*
X62443Y-93622D01*
X62455Y-93427D01*
X62478Y-93187D01*
X62512Y-92923D01*
X62547Y-92625D01*
X62604Y-92293D01*
X62661Y-91950D01*
X62730Y-91583D01*
X62821Y-91193D01*
X62913Y-90793D01*
X63028Y-90380D01*
X63165Y-89956D01*
X63314Y-89532D01*
Y-89521D01*
X63326Y-89509D01*
X63337Y-89475D01*
X63348Y-89429D01*
X63406Y-89303D01*
X63474Y-89143D01*
X63555Y-88948D01*
X63658Y-88708D01*
X63784Y-88444D01*
X63921Y-88158D01*
X64082Y-87848D01*
X64253Y-87528D01*
X64437Y-87184D01*
X64643Y-86840D01*
X64861Y-86485D01*
X65101Y-86130D01*
X65342Y-85787D01*
X65605Y-85443D01*
X61000D01*
Y-83564D01*
X67930D01*
Y-85030D01*
D02*
G37*
G36*
X-9722Y-90094D02*
X-8405D01*
Y-91869D01*
X-9722D01*
Y-94000D01*
X-11681D01*
Y-91869D01*
X-16000D01*
Y-90105D01*
X-11429Y-83392D01*
X-9722D01*
Y-90094D01*
D02*
G37*
G36*
X-61361Y-148000D02*
X-63388D01*
Y-140382D01*
X-63400Y-140394D01*
X-63434Y-140428D01*
X-63503Y-140485D01*
X-63583Y-140554D01*
X-63686Y-140634D01*
X-63823Y-140737D01*
X-63961Y-140852D01*
X-64133Y-140966D01*
X-64316Y-141092D01*
X-64511Y-141218D01*
X-64728Y-141344D01*
X-64958Y-141470D01*
X-65198Y-141596D01*
X-65462Y-141711D01*
X-65725Y-141814D01*
X-66000Y-141917D01*
Y-140073D01*
X-65988D01*
X-65966Y-140061D01*
X-65920Y-140050D01*
X-65862Y-140027D01*
X-65782Y-139993D01*
X-65702Y-139958D01*
X-65599Y-139913D01*
X-65484Y-139855D01*
X-65233Y-139729D01*
X-64946Y-139557D01*
X-64625Y-139351D01*
X-64282Y-139099D01*
X-64270Y-139088D01*
X-64236Y-139065D01*
X-64190Y-139030D01*
X-64133Y-138973D01*
X-64053Y-138904D01*
X-63972Y-138813D01*
X-63881Y-138721D01*
X-63778Y-138607D01*
X-63560Y-138355D01*
X-63354Y-138068D01*
X-63159Y-137747D01*
X-63079Y-137576D01*
X-63010Y-137392D01*
X-61361D01*
Y-148000D01*
D02*
G37*
G36*
X91639D02*
X89612D01*
Y-140382D01*
X89600Y-140394D01*
X89566Y-140428D01*
X89497Y-140485D01*
X89417Y-140554D01*
X89314Y-140634D01*
X89177Y-140737D01*
X89039Y-140852D01*
X88867Y-140966D01*
X88684Y-141092D01*
X88489Y-141218D01*
X88272Y-141344D01*
X88042Y-141470D01*
X87802Y-141596D01*
X87538Y-141711D01*
X87275Y-141814D01*
X87000Y-141917D01*
Y-140073D01*
X87011D01*
X87034Y-140061D01*
X87080Y-140050D01*
X87137Y-140027D01*
X87218Y-139993D01*
X87298Y-139958D01*
X87401Y-139913D01*
X87515Y-139855D01*
X87767Y-139729D01*
X88054Y-139557D01*
X88375Y-139351D01*
X88718Y-139099D01*
X88730Y-139088D01*
X88764Y-139065D01*
X88810Y-139030D01*
X88867Y-138973D01*
X88947Y-138904D01*
X89028Y-138813D01*
X89119Y-138721D01*
X89222Y-138607D01*
X89440Y-138355D01*
X89646Y-138068D01*
X89841Y-137747D01*
X89921Y-137576D01*
X89990Y-137392D01*
X91639D01*
Y-148000D01*
D02*
G37*
G36*
X-26361Y-49000D02*
X-28388D01*
Y-41382D01*
X-28400Y-41394D01*
X-28434Y-41428D01*
X-28503Y-41485D01*
X-28583Y-41554D01*
X-28686Y-41634D01*
X-28823Y-41737D01*
X-28961Y-41852D01*
X-29133Y-41966D01*
X-29316Y-42092D01*
X-29511Y-42218D01*
X-29728Y-42344D01*
X-29957Y-42470D01*
X-30198Y-42596D01*
X-30462Y-42711D01*
X-30725Y-42814D01*
X-31000Y-42917D01*
Y-41073D01*
X-30989D01*
X-30966Y-41061D01*
X-30920Y-41050D01*
X-30863Y-41027D01*
X-30782Y-40993D01*
X-30702Y-40958D01*
X-30599Y-40912D01*
X-30484Y-40855D01*
X-30233Y-40729D01*
X-29946Y-40557D01*
X-29625Y-40351D01*
X-29282Y-40099D01*
X-29270Y-40088D01*
X-29236Y-40065D01*
X-29190Y-40030D01*
X-29133Y-39973D01*
X-29053Y-39904D01*
X-28972Y-39813D01*
X-28881Y-39721D01*
X-28778Y-39607D01*
X-28560Y-39355D01*
X-28354Y-39068D01*
X-28159Y-38747D01*
X-28079Y-38576D01*
X-28010Y-38392D01*
X-26361D01*
Y-49000D01*
D02*
G37*
%LPC*%
G36*
X-102051Y-15867D02*
X-102543D01*
Y-15949D01*
X-102953D01*
Y-16031D01*
X-103199D01*
Y-16113D01*
X-103363D01*
Y-16195D01*
X-103527D01*
Y-16277D01*
X-103691D01*
Y-16359D01*
X-103773D01*
Y-16441D01*
X-103855D01*
Y-16523D01*
X-104019D01*
Y-16605D01*
X-104101D01*
Y-16769D01*
X-104184D01*
Y-16852D01*
X-104266D01*
Y-16934D01*
X-104348D01*
Y-17098D01*
X-104430D01*
Y-17180D01*
X-104512D01*
Y-17344D01*
X-104594D01*
Y-17590D01*
X-104676D01*
Y-17918D01*
X-104758D01*
Y-31043D01*
X-104676D01*
Y-31371D01*
X-104594D01*
Y-31617D01*
X-104512D01*
Y-31781D01*
X-104430D01*
Y-31945D01*
X-104348D01*
Y-32027D01*
X-104266D01*
Y-32191D01*
X-104184D01*
Y-32273D01*
X-104101D01*
Y-32355D01*
X-104019D01*
Y-32438D01*
X-103938D01*
Y-32520D01*
X-103855D01*
Y-32601D01*
X-103773D01*
Y-32684D01*
X-103609D01*
Y-32766D01*
X-103445D01*
Y-32848D01*
X-103281D01*
Y-32930D01*
X-103117D01*
Y-33012D01*
X-102789D01*
Y-33094D01*
X-101805D01*
Y-33012D01*
X-101476D01*
Y-32930D01*
X-101313D01*
Y-32848D01*
X-101148D01*
Y-32766D01*
X-100984D01*
Y-32684D01*
X-100820D01*
Y-32601D01*
X-100738D01*
Y-32520D01*
X-100656D01*
Y-32438D01*
X-100574D01*
Y-32355D01*
X-100492D01*
Y-32273D01*
X-100410D01*
Y-32191D01*
X-100328D01*
Y-32027D01*
X-100246D01*
Y-31945D01*
X-100164D01*
Y-31781D01*
X-100082D01*
Y-31617D01*
X-100000D01*
Y-31371D01*
X-99918D01*
Y-31043D01*
X-99836D01*
Y-17918D01*
X-99918D01*
Y-17590D01*
X-100000D01*
Y-17344D01*
X-100082D01*
Y-17180D01*
X-100164D01*
Y-17098D01*
X-100246D01*
Y-16934D01*
X-100328D01*
Y-16852D01*
X-100410D01*
Y-16769D01*
X-100492D01*
Y-16605D01*
X-100574D01*
Y-16523D01*
X-100738D01*
Y-16441D01*
X-100820D01*
Y-16359D01*
X-100902D01*
Y-16277D01*
X-101066D01*
Y-16195D01*
X-101230D01*
Y-16113D01*
X-101395D01*
Y-16031D01*
X-101641D01*
Y-15949D01*
X-102051D01*
Y-15867D01*
D02*
G37*
G36*
Y-35555D02*
X-102543D01*
Y-35637D01*
X-102953D01*
Y-35719D01*
X-103199D01*
Y-35801D01*
X-103363D01*
Y-35883D01*
X-103527D01*
Y-35965D01*
X-103691D01*
Y-36047D01*
X-103773D01*
Y-36129D01*
X-103855D01*
Y-36211D01*
X-104019D01*
Y-36293D01*
X-104101D01*
Y-36457D01*
X-104184D01*
Y-36539D01*
X-104266D01*
Y-36621D01*
X-104348D01*
Y-36785D01*
X-104430D01*
Y-36867D01*
X-104512D01*
Y-37031D01*
X-104594D01*
Y-37277D01*
X-104676D01*
Y-37605D01*
X-104758D01*
Y-38426D01*
X-104676D01*
Y-38754D01*
X-104594D01*
Y-39000D01*
X-104512D01*
Y-39164D01*
X-104430D01*
Y-39328D01*
X-104348D01*
Y-39410D01*
X-104266D01*
Y-39574D01*
X-104184D01*
Y-39656D01*
X-104101D01*
Y-39738D01*
X-104019D01*
Y-39820D01*
X-103938D01*
Y-39902D01*
X-103855D01*
Y-39984D01*
X-103773D01*
Y-40066D01*
X-103609D01*
Y-40148D01*
X-103445D01*
Y-40230D01*
X-103281D01*
Y-40312D01*
X-103117D01*
Y-40395D01*
X-102789D01*
Y-40477D01*
X-101805D01*
Y-40395D01*
X-101476D01*
Y-40312D01*
X-101313D01*
Y-40230D01*
X-101148D01*
Y-40148D01*
X-100984D01*
Y-40066D01*
X-100820D01*
Y-39984D01*
X-100738D01*
Y-39902D01*
X-100656D01*
Y-39820D01*
X-100574D01*
Y-39738D01*
X-100492D01*
Y-39656D01*
X-100410D01*
Y-39574D01*
X-100328D01*
Y-39410D01*
X-100246D01*
Y-39328D01*
X-100164D01*
Y-39164D01*
X-100082D01*
Y-39000D01*
X-100000D01*
Y-38754D01*
X-99918D01*
Y-38508D01*
Y-38426D01*
X-99836D01*
Y-37605D01*
X-99918D01*
Y-37277D01*
X-100000D01*
Y-37031D01*
X-100082D01*
Y-36867D01*
X-100164D01*
Y-36785D01*
X-100246D01*
Y-36621D01*
X-100328D01*
Y-36539D01*
X-100410D01*
Y-36457D01*
X-100492D01*
Y-36293D01*
X-100574D01*
Y-36211D01*
X-100738D01*
Y-36129D01*
X-100820D01*
Y-36047D01*
X-100902D01*
Y-35965D01*
X-101066D01*
Y-35883D01*
X-101230D01*
Y-35801D01*
X-101395D01*
Y-35719D01*
X-101641D01*
Y-35637D01*
X-102051D01*
Y-35555D01*
D02*
G37*
G36*
X27448Y-39801D02*
X27356D01*
X27242Y-39824D01*
X27116Y-39847D01*
X26967Y-39893D01*
X26807Y-39950D01*
X26658Y-40042D01*
X26520Y-40156D01*
X26509Y-40168D01*
X26463Y-40214D01*
X26417Y-40294D01*
X26348Y-40397D01*
X26291Y-40535D01*
X26234Y-40683D01*
X26188Y-40867D01*
X26177Y-41073D01*
Y-41084D01*
Y-41096D01*
Y-41130D01*
Y-41176D01*
X26199Y-41279D01*
X26222Y-41417D01*
X26257Y-41577D01*
X26314Y-41726D01*
X26394Y-41886D01*
X26509Y-42024D01*
X26520Y-42035D01*
X26577Y-42070D01*
X26646Y-42127D01*
X26749Y-42184D01*
X26887Y-42253D01*
X27036Y-42299D01*
X27219Y-42344D01*
X27425Y-42356D01*
X27448D01*
X27517Y-42344D01*
X27631Y-42333D01*
X27757Y-42310D01*
X27906Y-42276D01*
X28067Y-42207D01*
X28216Y-42127D01*
X28353Y-42012D01*
X28365Y-42001D01*
X28410Y-41943D01*
X28468Y-41875D01*
X28536Y-41760D01*
X28594Y-41634D01*
X28651Y-41462D01*
X28697Y-41279D01*
X28708Y-41061D01*
Y-41050D01*
Y-41038D01*
Y-40970D01*
X28685Y-40867D01*
X28662Y-40741D01*
X28628Y-40592D01*
X28559Y-40443D01*
X28479Y-40294D01*
X28365Y-40156D01*
X28353Y-40145D01*
X28307Y-40099D01*
X28227Y-40042D01*
X28124Y-39973D01*
X27987Y-39916D01*
X27838Y-39859D01*
X27654Y-39813D01*
X27448Y-39801D01*
D02*
G37*
G36*
X27459Y-43960D02*
X27391D01*
X27334Y-43971D01*
X27208Y-43983D01*
X27047Y-44028D01*
X26864Y-44086D01*
X26681Y-44177D01*
X26497Y-44303D01*
X26417Y-44384D01*
X26348Y-44475D01*
X26337Y-44498D01*
X26291Y-44567D01*
X26234Y-44670D01*
X26177Y-44807D01*
X26108Y-44979D01*
X26051Y-45162D01*
X26005Y-45380D01*
X25993Y-45598D01*
Y-45609D01*
Y-45632D01*
Y-45678D01*
X26005Y-45735D01*
Y-45804D01*
X26016Y-45884D01*
X26051Y-46079D01*
X26096Y-46285D01*
X26177Y-46503D01*
X26280Y-46709D01*
X26417Y-46904D01*
X26440Y-46927D01*
X26497Y-46972D01*
X26589Y-47053D01*
X26715Y-47133D01*
X26875Y-47224D01*
X27059Y-47305D01*
X27265Y-47350D01*
X27494Y-47373D01*
X27551D01*
X27597Y-47362D01*
X27712Y-47350D01*
X27861Y-47316D01*
X28021Y-47259D01*
X28204Y-47190D01*
X28376Y-47076D01*
X28536Y-46927D01*
X28559Y-46904D01*
X28605Y-46846D01*
X28662Y-46732D01*
X28742Y-46594D01*
X28823Y-46411D01*
X28880Y-46182D01*
X28926Y-45918D01*
X28949Y-45621D01*
Y-45609D01*
Y-45586D01*
Y-45552D01*
X28937Y-45495D01*
X28926Y-45357D01*
X28891Y-45185D01*
X28846Y-45002D01*
X28765Y-44796D01*
X28662Y-44601D01*
X28525Y-44418D01*
X28502Y-44395D01*
X28445Y-44349D01*
X28353Y-44269D01*
X28238Y-44189D01*
X28078Y-44109D01*
X27895Y-44028D01*
X27689Y-43983D01*
X27459Y-43960D01*
D02*
G37*
G36*
X-47691Y-14254D02*
X-47736D01*
Y-14263D01*
Y-14282D01*
X-47745Y-14318D01*
X-47754Y-14363D01*
X-47763Y-14417D01*
X-47781Y-14489D01*
X-47790Y-14561D01*
X-47808Y-14651D01*
X-47853Y-14841D01*
X-47907Y-15057D01*
X-47979Y-15282D01*
X-48061Y-15517D01*
X-48692Y-17248D01*
X-46690D01*
X-47339Y-15517D01*
X-47348Y-15499D01*
X-47357Y-15454D01*
X-47384Y-15391D01*
X-47411Y-15300D01*
X-47447Y-15192D01*
X-47484Y-15075D01*
X-47565Y-14822D01*
Y-14805D01*
X-47583Y-14759D01*
X-47601Y-14696D01*
X-47619Y-14615D01*
X-47637Y-14525D01*
X-47664Y-14435D01*
X-47682Y-14345D01*
X-47691Y-14254D01*
D02*
G37*
G36*
X-49990Y-23746D02*
X-50035D01*
Y-23755D01*
Y-23773D01*
X-50044Y-23809D01*
X-50053Y-23854D01*
X-50062Y-23908D01*
X-50080Y-23980D01*
X-50089Y-24052D01*
X-50107Y-24142D01*
X-50153Y-24332D01*
X-50207Y-24548D01*
X-50279Y-24774D01*
X-50360Y-25008D01*
X-50991Y-26739D01*
X-48989D01*
X-49639Y-25008D01*
X-49648Y-24990D01*
X-49657Y-24945D01*
X-49684Y-24882D01*
X-49711Y-24792D01*
X-49747Y-24683D01*
X-49783Y-24566D01*
X-49864Y-24314D01*
Y-24296D01*
X-49882Y-24251D01*
X-49900Y-24188D01*
X-49918Y-24106D01*
X-49936Y-24016D01*
X-49963Y-23926D01*
X-49981Y-23836D01*
X-49990Y-23746D01*
D02*
G37*
G36*
X-78917Y-23394D02*
X-80134D01*
Y-28480D01*
X-78763D01*
X-78700Y-28471D01*
X-78619D01*
X-78448Y-28453D01*
X-78259Y-28426D01*
X-78060Y-28380D01*
X-77862Y-28326D01*
X-77681Y-28245D01*
X-77672D01*
X-77663Y-28236D01*
X-77609Y-28200D01*
X-77528Y-28137D01*
X-77438Y-28056D01*
X-77330Y-27948D01*
X-77222Y-27812D01*
X-77122Y-27650D01*
X-77041Y-27461D01*
Y-27452D01*
X-77032Y-27434D01*
X-77023Y-27407D01*
X-77014Y-27362D01*
X-76996Y-27308D01*
X-76978Y-27235D01*
X-76960Y-27154D01*
X-76942Y-27064D01*
X-76924Y-26965D01*
X-76906Y-26848D01*
X-76888Y-26721D01*
X-76870Y-26586D01*
X-76861Y-26442D01*
X-76852Y-26288D01*
X-76843Y-26117D01*
Y-25946D01*
Y-25937D01*
Y-25901D01*
Y-25856D01*
Y-25793D01*
X-76852Y-25712D01*
Y-25612D01*
X-76861Y-25513D01*
X-76870Y-25405D01*
X-76897Y-25161D01*
X-76933Y-24909D01*
X-76987Y-24666D01*
X-77023Y-24548D01*
X-77059Y-24440D01*
Y-24431D01*
X-77068Y-24413D01*
X-77086Y-24386D01*
X-77095Y-24350D01*
X-77149Y-24251D01*
X-77222Y-24134D01*
X-77321Y-23998D01*
X-77429Y-23863D01*
X-77564Y-23746D01*
X-77726Y-23637D01*
X-77736D01*
X-77744Y-23628D01*
X-77772Y-23610D01*
X-77808Y-23602D01*
X-77853Y-23583D01*
X-77907Y-23556D01*
X-77970Y-23538D01*
X-78042Y-23511D01*
X-78213Y-23475D01*
X-78412Y-23430D01*
X-78646Y-23403D01*
X-78917Y-23394D01*
D02*
G37*
G36*
X-59602Y-32786D02*
X-59665D01*
X-59710Y-32795D01*
X-59774D01*
X-59837Y-32804D01*
X-59990Y-32831D01*
X-60170Y-32867D01*
X-60360Y-32931D01*
X-60558Y-33012D01*
X-60747Y-33129D01*
X-60757D01*
X-60766Y-33147D01*
X-60793Y-33165D01*
X-60829Y-33192D01*
X-60919Y-33264D01*
X-61027Y-33372D01*
X-61144Y-33508D01*
X-61270Y-33661D01*
X-61388Y-33850D01*
X-61496Y-34067D01*
Y-34076D01*
X-61505Y-34094D01*
X-61523Y-34130D01*
X-61532Y-34175D01*
X-61550Y-34229D01*
X-61577Y-34292D01*
X-61595Y-34373D01*
X-61622Y-34463D01*
X-61667Y-34662D01*
X-61712Y-34896D01*
X-61739Y-35149D01*
X-61748Y-35428D01*
Y-35437D01*
Y-35464D01*
Y-35500D01*
Y-35554D01*
X-61739Y-35626D01*
X-61730Y-35708D01*
Y-35798D01*
X-61712Y-35888D01*
X-61685Y-36104D01*
X-61640Y-36339D01*
X-61577Y-36573D01*
X-61496Y-36808D01*
Y-36817D01*
X-61487Y-36835D01*
X-61469Y-36862D01*
X-61451Y-36907D01*
X-61388Y-37015D01*
X-61307Y-37150D01*
X-61207Y-37295D01*
X-61081Y-37457D01*
X-60928Y-37610D01*
X-60757Y-37745D01*
X-60747D01*
X-60729Y-37764D01*
X-60702Y-37773D01*
X-60666Y-37800D01*
X-60621Y-37827D01*
X-60567Y-37854D01*
X-60423Y-37908D01*
X-60252Y-37971D01*
X-60053Y-38025D01*
X-59828Y-38061D01*
X-59584Y-38079D01*
X-59521D01*
X-59476Y-38070D01*
X-59413D01*
X-59350Y-38061D01*
X-59197Y-38034D01*
X-59016Y-37998D01*
X-58827Y-37935D01*
X-58629Y-37854D01*
X-58439Y-37745D01*
X-58430D01*
X-58421Y-37727D01*
X-58394Y-37710D01*
X-58358Y-37682D01*
X-58268Y-37601D01*
X-58160Y-37502D01*
X-58042Y-37367D01*
X-57925Y-37204D01*
X-57808Y-37015D01*
X-57700Y-36799D01*
Y-36790D01*
X-57691Y-36772D01*
X-57673Y-36736D01*
X-57655Y-36691D01*
X-57637Y-36637D01*
X-57619Y-36564D01*
X-57592Y-36483D01*
X-57565Y-36402D01*
X-57547Y-36303D01*
X-57519Y-36195D01*
X-57474Y-35960D01*
X-57447Y-35699D01*
X-57438Y-35410D01*
Y-35401D01*
Y-35374D01*
Y-35338D01*
Y-35284D01*
X-57447Y-35212D01*
Y-35140D01*
X-57456Y-35050D01*
X-57474Y-34959D01*
X-57501Y-34743D01*
X-57547Y-34518D01*
X-57610Y-34283D01*
X-57700Y-34058D01*
Y-34049D01*
X-57709Y-34030D01*
X-57727Y-34004D01*
X-57745Y-33958D01*
X-57808Y-33850D01*
X-57889Y-33715D01*
X-57988Y-33571D01*
X-58115Y-33417D01*
X-58268Y-33264D01*
X-58439Y-33129D01*
X-58448D01*
X-58457Y-33111D01*
X-58484Y-33093D01*
X-58529Y-33075D01*
X-58574Y-33048D01*
X-58629Y-33021D01*
X-58764Y-32957D01*
X-58935Y-32894D01*
X-59134Y-32840D01*
X-59359Y-32804D01*
X-59602Y-32786D01*
D02*
G37*
G36*
X89448Y-84801D02*
X89356D01*
X89242Y-84824D01*
X89116Y-84847D01*
X88967Y-84893D01*
X88807Y-84950D01*
X88658Y-85042D01*
X88520Y-85156D01*
X88509Y-85168D01*
X88463Y-85214D01*
X88417Y-85294D01*
X88348Y-85397D01*
X88291Y-85534D01*
X88234Y-85683D01*
X88188Y-85867D01*
X88176Y-86073D01*
Y-86084D01*
Y-86096D01*
Y-86130D01*
Y-86176D01*
X88199Y-86279D01*
X88222Y-86417D01*
X88257Y-86577D01*
X88314Y-86726D01*
X88394Y-86886D01*
X88509Y-87024D01*
X88520Y-87035D01*
X88577Y-87070D01*
X88646Y-87127D01*
X88749Y-87184D01*
X88887Y-87253D01*
X89036Y-87299D01*
X89219Y-87344D01*
X89425Y-87356D01*
X89448D01*
X89517Y-87344D01*
X89631Y-87333D01*
X89757Y-87310D01*
X89906Y-87276D01*
X90067Y-87207D01*
X90216Y-87127D01*
X90353Y-87012D01*
X90365Y-87001D01*
X90410Y-86944D01*
X90468Y-86875D01*
X90536Y-86760D01*
X90594Y-86634D01*
X90651Y-86462D01*
X90697Y-86279D01*
X90708Y-86061D01*
Y-86050D01*
Y-86039D01*
Y-85970D01*
X90685Y-85867D01*
X90662Y-85741D01*
X90628Y-85592D01*
X90559Y-85443D01*
X90479Y-85294D01*
X90365Y-85156D01*
X90353Y-85145D01*
X90307Y-85099D01*
X90227Y-85042D01*
X90124Y-84973D01*
X89986Y-84916D01*
X89838Y-84859D01*
X89654Y-84813D01*
X89448Y-84801D01*
D02*
G37*
G36*
X89459Y-88960D02*
X89391D01*
X89333Y-88971D01*
X89207Y-88982D01*
X89047Y-89028D01*
X88864Y-89086D01*
X88681Y-89177D01*
X88497Y-89303D01*
X88417Y-89383D01*
X88348Y-89475D01*
X88337Y-89498D01*
X88291Y-89567D01*
X88234Y-89670D01*
X88176Y-89807D01*
X88108Y-89979D01*
X88050Y-90162D01*
X88005Y-90380D01*
X87993Y-90598D01*
Y-90609D01*
Y-90632D01*
Y-90678D01*
X88005Y-90735D01*
Y-90804D01*
X88016Y-90884D01*
X88050Y-91079D01*
X88096Y-91285D01*
X88176Y-91503D01*
X88280Y-91709D01*
X88417Y-91904D01*
X88440Y-91927D01*
X88497Y-91972D01*
X88589Y-92053D01*
X88715Y-92133D01*
X88875Y-92224D01*
X89059Y-92305D01*
X89265Y-92350D01*
X89494Y-92373D01*
X89551D01*
X89597Y-92362D01*
X89712Y-92350D01*
X89860Y-92316D01*
X90021Y-92259D01*
X90204Y-92190D01*
X90376Y-92076D01*
X90536Y-91927D01*
X90559Y-91904D01*
X90605Y-91846D01*
X90662Y-91732D01*
X90743Y-91594D01*
X90823Y-91411D01*
X90880Y-91182D01*
X90926Y-90919D01*
X90949Y-90621D01*
Y-90609D01*
Y-90586D01*
Y-90552D01*
X90937Y-90495D01*
X90926Y-90357D01*
X90892Y-90185D01*
X90846Y-90002D01*
X90765Y-89796D01*
X90662Y-89601D01*
X90525Y-89418D01*
X90502Y-89395D01*
X90445Y-89349D01*
X90353Y-89269D01*
X90239Y-89189D01*
X90078Y-89108D01*
X89895Y-89028D01*
X89689Y-88982D01*
X89459Y-88960D01*
D02*
G37*
G36*
X90020Y-20446D02*
X86013D01*
X85978Y-20470D01*
X85966Y-20481D01*
X85954Y-20493D01*
Y-20529D01*
Y-24371D01*
Y-24394D01*
X85978Y-24430D01*
X85989D01*
X86037Y-24441D01*
X90032D01*
X90044Y-24430D01*
X90055Y-24418D01*
X90067Y-24371D01*
Y-20529D01*
Y-20517D01*
Y-20505D01*
X90055Y-20481D01*
X90044Y-20470D01*
X90032Y-20458D01*
X90020Y-20446D01*
D02*
G37*
G36*
X80627D02*
X76620D01*
X76584Y-20470D01*
X76573Y-20481D01*
X76561Y-20493D01*
Y-20529D01*
Y-24371D01*
Y-24394D01*
X76584Y-24430D01*
X76596D01*
X76643Y-24441D01*
X80639D01*
X80651Y-24430D01*
X80662Y-24418D01*
X80674Y-24371D01*
Y-20529D01*
Y-20517D01*
Y-20505D01*
X80662Y-20481D01*
X80651Y-20470D01*
X80639Y-20458D01*
X80627Y-20446D01*
D02*
G37*
G36*
X71599D02*
X67592D01*
X67557Y-20470D01*
X67545Y-20481D01*
X67533Y-20493D01*
Y-20529D01*
Y-24371D01*
Y-24394D01*
X67557Y-24430D01*
X67568D01*
X67616Y-24441D01*
X71611D01*
X71623Y-24430D01*
X71634Y-24418D01*
X71646Y-24371D01*
Y-20529D01*
Y-20517D01*
Y-20505D01*
X71634Y-20481D01*
X71623Y-20470D01*
X71611Y-20458D01*
X71599Y-20446D01*
D02*
G37*
G36*
X62595D02*
X58588D01*
X58552Y-20470D01*
X58541Y-20481D01*
X58529Y-20493D01*
Y-20529D01*
Y-24371D01*
Y-24394D01*
X58552Y-24430D01*
X58564D01*
X58611Y-24441D01*
X62607D01*
X62618Y-24430D01*
X62630Y-24418D01*
X62642Y-24371D01*
Y-20529D01*
Y-20517D01*
Y-20505D01*
X62630Y-20481D01*
X62618Y-20470D01*
X62607Y-20458D01*
X62595Y-20446D01*
D02*
G37*
G36*
X57067Y-30266D02*
X51340D01*
X51316Y-30289D01*
Y-30301D01*
X51304Y-30348D01*
Y-36005D01*
Y-36017D01*
Y-36029D01*
X51316Y-36076D01*
X51340Y-36088D01*
X57079D01*
X57103Y-36076D01*
X57115Y-36052D01*
X57126Y-36041D01*
X57115Y-36005D01*
Y-30348D01*
Y-30336D01*
X57126Y-30325D01*
X57115Y-30313D01*
X57103Y-30289D01*
X57091Y-30278D01*
X57067Y-30266D01*
D02*
G37*
G36*
X38570Y-88306D02*
X38547D01*
X38478Y-88317D01*
X38363Y-88329D01*
X38226Y-88363D01*
X38077Y-88420D01*
X37905Y-88500D01*
X37745Y-88615D01*
X37585Y-88764D01*
X37573Y-88787D01*
X37527Y-88844D01*
X37459Y-88959D01*
X37390Y-89108D01*
X37310Y-89291D01*
X37252Y-89531D01*
X37206Y-89806D01*
X37184Y-90116D01*
Y-90127D01*
Y-90162D01*
Y-90207D01*
X37195Y-90276D01*
Y-90356D01*
X37206Y-90459D01*
X37241Y-90677D01*
X37298Y-90918D01*
X37367Y-91170D01*
X37481Y-91422D01*
X37630Y-91639D01*
X37653Y-91662D01*
X37710Y-91720D01*
X37802Y-91811D01*
X37928Y-91903D01*
X38089Y-91994D01*
X38260Y-92086D01*
X38455Y-92143D01*
X38570Y-92155D01*
X38673Y-92166D01*
X38696D01*
X38764Y-92155D01*
X38867Y-92143D01*
X39005Y-92109D01*
X39154Y-92063D01*
X39303Y-91983D01*
X39463Y-91880D01*
X39612Y-91731D01*
X39624Y-91708D01*
X39669Y-91651D01*
X39727Y-91536D01*
X39761Y-91467D01*
X39807Y-91387D01*
X39841Y-91296D01*
X39876Y-91193D01*
X39899Y-91078D01*
X39933Y-90941D01*
X39956Y-90803D01*
X39979Y-90643D01*
X39990Y-90482D01*
Y-90299D01*
Y-90288D01*
Y-90253D01*
Y-90196D01*
X39979Y-90127D01*
Y-90047D01*
X39967Y-89944D01*
X39944Y-89726D01*
X39887Y-89474D01*
X39818Y-89222D01*
X39715Y-88993D01*
X39646Y-88878D01*
X39578Y-88787D01*
X39555Y-88764D01*
X39509Y-88707D01*
X39417Y-88638D01*
X39303Y-88546D01*
X39154Y-88455D01*
X38982Y-88386D01*
X38787Y-88329D01*
X38570Y-88306D01*
D02*
G37*
G36*
X-11681Y-86497D02*
X-14098Y-90094D01*
X-11681D01*
Y-86497D01*
D02*
G37*
%LPD*%
D10*
X-16501Y-41800D02*
G03*
X-16501Y-41800I-1000J0D01*
G01*
X102500Y-134700D02*
Y-109300D01*
X-100700Y-134700D02*
X102500D01*
X-100700D02*
Y-109300D01*
X102500D01*
Y-79700D02*
Y-54300D01*
X-100700Y-79700D02*
X102500D01*
X-100700D02*
Y-54300D01*
X102500D01*
D11*
X-99299Y-146000D02*
Y-142215D01*
X-100000Y-147000D02*
Y-141000D01*
Y-147000D02*
X-97000Y-144000D01*
X-100000Y-141000D02*
X-97000Y-144000D01*
X-109000D02*
X-97000D01*
X-111000Y-142000D02*
X-109000Y-144000D01*
X-111000Y-142000D02*
Y-92000D01*
X-109000Y-90000D01*
X-96000D01*
D12*
X21499Y-35500D02*
X29999D01*
Y-16500D01*
X-30001Y-35500D02*
X-21501D01*
X-30001D02*
Y-16500D01*
X-24001Y-4000D02*
X23999D01*
D13*
X36000Y-5001D02*
X34001D01*
X35000D01*
Y-9999D01*
X34001Y-10999D01*
X33001D01*
X32001Y-9999D01*
X37999Y-10999D02*
X39999D01*
X38999D01*
Y-5001D01*
X37999Y-6001D01*
X106002Y-115999D02*
Y-110001D01*
X109001D01*
X110000Y-111001D01*
Y-113000D01*
X109001Y-114000D01*
X106002D01*
X115998Y-115999D02*
X112000D01*
X115998Y-112000D01*
Y-111001D01*
X114999Y-110001D01*
X112999D01*
X112000Y-111001D01*
X106601Y-60999D02*
Y-55001D01*
X109600D01*
X110600Y-56001D01*
Y-58000D01*
X109600Y-59000D01*
X106601D01*
X112599Y-60999D02*
X114599D01*
X113599D01*
Y-55001D01*
X112599Y-56001D01*
M02*
