G04*
G04 #@! TF.GenerationSoftware,Altium Limited,Altium Designer,26.5.0 (11)*
G04*
G04 Layer_Color=255*
G04 Board_Origin=35978347|37896062*
%FSLAX44Y44*%
%MOMM*%
G71*
G04*
G04 #@! TF.SameCoordinates,F414C389-7A47-4758-8F6A-5CB98E730E64*
G04*
G04*
G04 #@! TF.FilePolarity,Positive*
G04*
G01*
G75*
%ADD14R,0.3000X0.8000*%
%ADD15R,0.4000X0.8000*%
%ADD26R,1.5000X1.5000*%
%ADD27C,1.5000*%
%ADD28C,2.2000*%
%ADD29C,2.5000*%
D14*
X-17501Y-35000D02*
D03*
X-12501D02*
D03*
X-7501D02*
D03*
X-2501D02*
D03*
X2499D02*
D03*
X7499D02*
D03*
X12499D02*
D03*
X17499D02*
D03*
D15*
X-27501Y-10000D02*
D03*
X27499D02*
D03*
D26*
X-88000Y-122000D02*
D03*
Y-67000D02*
D03*
D27*
X-62600Y-122000D02*
D03*
X-37200D02*
D03*
X-11800D02*
D03*
X13600D02*
D03*
X39000D02*
D03*
X64400D02*
D03*
X89800D02*
D03*
X-62600Y-67000D02*
D03*
X-37200D02*
D03*
X-11800D02*
D03*
X13600D02*
D03*
X39000D02*
D03*
X64400D02*
D03*
X89800D02*
D03*
D28*
X-135000Y-96000D02*
D03*
Y-18000D02*
D03*
X135000D02*
D03*
Y-96000D02*
D03*
D29*
X-135000Y-57000D02*
D03*
Y-135000D02*
D03*
X135000Y-57000D02*
D03*
Y-135000D02*
D03*
M02*
