M48
;Layer_Color=9474304
;FILE_FORMAT=2:4
INCH,TZ
;TYPE=PLATED
T01F00S00C0.0354
T02F00S00C0.0433
T03F00S00C0.0807
%
T01
X-3465Y-4803
X-2465
X-1465
X-465
X535
X1535
X2535
X3535
Y-2638
X2535
X1535
X535
X-465
X-1465
X-2465
X-3465
T02
X-5315Y-3780
Y-709
X5315
Y-3780
T03
X-5315Y-5315
Y-2244
X5315
Y-5315
M30
