G04*
G04 #@! TF.GenerationSoftware,Altium Limited,Altium Designer,26.5.0 (11)*
G04*
G04 Layer_Physical_Order=1*
G04 Layer_Color=255*
G04 Board_Origin=35978347|37896062*
%FSLAX44Y44*%
%MOMM*%
G71*
G04*
G04 #@! TF.SameCoordinates,F414C389-7A47-4758-8F6A-5CB98E730E64*
G04*
G04*
G04 #@! TF.FilePolarity,Positive*
G04*
G01*
G75*
%ADD14R,0.3000X0.8000*%
%ADD15R,0.4000X0.8000*%
%ADD22C,0.3000*%
%ADD23R,3.0698X13.2000*%
%ADD24R,2.6000X1.2000*%
%ADD25R,2.5869X1.7646*%
%ADD26R,1.5000X1.5000*%
%ADD27C,1.5000*%
%ADD28C,2.2000*%
%ADD29C,2.5000*%
G36*
X-32495Y-3334D02*
X-31501Y-4000D01*
X-31501Y-4604D01*
Y-8730D01*
X-27501D01*
X-23501D01*
Y-4604D01*
X-22507Y-3334D01*
X22505Y-3334D01*
X23499Y-4000D01*
X23499Y-4604D01*
Y-8730D01*
X27499D01*
X31499D01*
Y-4604D01*
X32493Y-3334D01*
X143000D01*
Y-3340D01*
X144724Y-3567D01*
X146330Y-4232D01*
X147709Y-5291D01*
X148768Y-6670D01*
X149433Y-8276D01*
X149660Y-10000D01*
X149666D01*
X149666Y-10000D01*
Y-50980D01*
X149092Y-51190D01*
X148396Y-51203D01*
X146603Y-48097D01*
X143903Y-45397D01*
X140597Y-43488D01*
X136909Y-42500D01*
X136270D01*
Y-57000D01*
Y-71500D01*
X136909D01*
X140597Y-70512D01*
X143903Y-68603D01*
X146603Y-65903D01*
X148396Y-62798D01*
X149092Y-62810D01*
X149666Y-63020D01*
Y-128980D01*
X149092Y-129190D01*
X148396Y-129202D01*
X146603Y-126097D01*
X143903Y-123397D01*
X140597Y-121488D01*
X136909Y-120500D01*
X136270D01*
Y-135000D01*
X135000D01*
Y-136270D01*
X120500D01*
Y-136909D01*
X121488Y-140597D01*
X123397Y-143903D01*
X126097Y-146603D01*
X129202Y-148396D01*
X129190Y-149092D01*
X128980Y-149666D01*
X-128980Y-149666D01*
X-129190Y-149092D01*
X-129202Y-148396D01*
X-126097Y-146603D01*
X-123397Y-143903D01*
X-121488Y-140597D01*
X-120500Y-136909D01*
Y-136270D01*
X-135000D01*
Y-135000D01*
X-136270D01*
Y-120500D01*
X-136909D01*
X-140597Y-121488D01*
X-143903Y-123397D01*
X-146603Y-126097D01*
X-148396Y-129202D01*
X-149092Y-129190D01*
X-149666Y-128980D01*
Y-63020D01*
X-149092Y-62810D01*
X-148396Y-62798D01*
X-146603Y-65903D01*
X-143903Y-68603D01*
X-140597Y-70512D01*
X-136909Y-71500D01*
X-136270D01*
Y-57000D01*
Y-42500D01*
X-136909D01*
X-140597Y-43488D01*
X-143903Y-45397D01*
X-146603Y-48097D01*
X-148396Y-51203D01*
X-149092Y-51190D01*
X-149666Y-50980D01*
Y-10000D01*
X-149666Y-10000D01*
X-149660D01*
X-149433Y-8276D01*
X-148768Y-6670D01*
X-147709Y-5291D01*
X-146330Y-4232D01*
X-144724Y-3567D01*
X-143000Y-3340D01*
X-143000Y-3340D01*
Y-3340D01*
X-141730Y-3334D01*
X-32495D01*
D02*
G37*
%LPC*%
G36*
X31499Y-11270D02*
X28769D01*
Y-16000D01*
X31499D01*
Y-11270D01*
D02*
G37*
G36*
X26229D02*
X23499D01*
Y-16000D01*
X26229D01*
Y-11270D01*
D02*
G37*
G36*
X-23501D02*
X-26231D01*
Y-16000D01*
X-23501D01*
Y-11270D01*
D02*
G37*
G36*
X-28771D02*
X-31501D01*
Y-16000D01*
X-28771D01*
Y-11270D01*
D02*
G37*
G36*
X-133288Y-5000D02*
X-133730D01*
Y-16730D01*
X-122000D01*
Y-16289D01*
X-122886Y-12982D01*
X-124597Y-10018D01*
X-127018Y-7598D01*
X-129982Y-5886D01*
X-133288Y-5000D01*
D02*
G37*
G36*
X-136270D02*
X-136712D01*
X-140018Y-5886D01*
X-142982Y-7598D01*
X-145403Y-10018D01*
X-147114Y-12982D01*
X-148000Y-16289D01*
Y-16730D01*
X-136270D01*
Y-5000D01*
D02*
G37*
G36*
X136712D02*
X136270D01*
Y-16730D01*
X148000D01*
Y-16289D01*
X147114Y-12982D01*
X145403Y-10018D01*
X142982Y-7598D01*
X140018Y-5886D01*
X136712Y-5000D01*
D02*
G37*
G36*
X133730D02*
X133288D01*
X129982Y-5886D01*
X127018Y-7598D01*
X124597Y-10018D01*
X122886Y-12982D01*
X122000Y-16289D01*
Y-16730D01*
X133730D01*
Y-5000D01*
D02*
G37*
G36*
X148000Y-19270D02*
X136270D01*
Y-31000D01*
X136712D01*
X140018Y-30114D01*
X142982Y-28403D01*
X145403Y-25982D01*
X147114Y-23018D01*
X148000Y-19712D01*
Y-19270D01*
D02*
G37*
G36*
X133730D02*
X122000D01*
Y-19712D01*
X122886Y-23018D01*
X124597Y-25982D01*
X127018Y-28403D01*
X129982Y-30114D01*
X133288Y-31000D01*
X133730D01*
Y-19270D01*
D02*
G37*
G36*
X-122000Y-19270D02*
X-133730D01*
Y-31000D01*
X-133288D01*
X-129982Y-30114D01*
X-127018Y-28403D01*
X-124597Y-25982D01*
X-122886Y-23018D01*
X-122000Y-19712D01*
Y-19270D01*
D02*
G37*
G36*
X-136270D02*
X-148000D01*
Y-19712D01*
X-147114Y-23018D01*
X-145403Y-25982D01*
X-142982Y-28403D01*
X-140018Y-30114D01*
X-136712Y-31000D01*
X-136270D01*
Y-19270D01*
D02*
G37*
G36*
X-18771Y-29000D02*
X-21001D01*
Y-33730D01*
X-18771D01*
Y-29000D01*
D02*
G37*
G36*
X-133091Y-42500D02*
X-133730D01*
Y-55730D01*
X-120500D01*
Y-55091D01*
X-121488Y-51403D01*
X-123397Y-48097D01*
X-126097Y-45397D01*
X-129403Y-43488D01*
X-133091Y-42500D01*
D02*
G37*
G36*
X133730D02*
X133091D01*
X129403Y-43488D01*
X126097Y-45397D01*
X123397Y-48097D01*
X121488Y-51403D01*
X120500Y-55091D01*
Y-55730D01*
X133730D01*
Y-42500D01*
D02*
G37*
G36*
X-78500Y-57500D02*
X-86730D01*
Y-65730D01*
X-78500D01*
Y-57500D01*
D02*
G37*
G36*
X-89270D02*
X-97500D01*
Y-65730D01*
X-89270D01*
Y-57500D01*
D02*
G37*
G36*
X133730Y-58270D02*
X120500D01*
Y-58909D01*
X121488Y-62597D01*
X123397Y-65903D01*
X126097Y-68603D01*
X129403Y-70512D01*
X133091Y-71500D01*
X133730D01*
Y-58270D01*
D02*
G37*
G36*
X-120500Y-58270D02*
X-133730D01*
Y-71500D01*
X-133091D01*
X-129403Y-70512D01*
X-126097Y-68603D01*
X-123397Y-65903D01*
X-121488Y-62597D01*
X-120500Y-58909D01*
Y-58270D01*
D02*
G37*
G36*
X20999Y-29000D02*
X-16231D01*
Y-35000D01*
X-17501D01*
Y-36270D01*
X-21001D01*
Y-41000D01*
X-16667D01*
X-16317Y-42270D01*
X-18478Y-44431D01*
X-43600D01*
X-44966Y-44703D01*
X-46123Y-45477D01*
X-58845Y-58198D01*
X-58933Y-58147D01*
X-61349Y-57500D01*
X-63851D01*
X-66267Y-58147D01*
X-68433Y-59398D01*
X-70202Y-61167D01*
X-71453Y-63333D01*
X-72100Y-65749D01*
Y-68251D01*
X-71453Y-70667D01*
X-70202Y-72833D01*
X-68433Y-74602D01*
X-66267Y-75853D01*
X-63851Y-76500D01*
X-61349D01*
X-58933Y-75853D01*
X-56767Y-74602D01*
X-54998Y-72833D01*
X-53747Y-70667D01*
X-53100Y-68251D01*
Y-65749D01*
X-53747Y-63333D01*
X-53798Y-63245D01*
X-42122Y-51569D01*
X-28475D01*
X-27989Y-52742D01*
X-33445Y-58198D01*
X-33533Y-58147D01*
X-35949Y-57500D01*
X-38451D01*
X-40867Y-58147D01*
X-43033Y-59398D01*
X-44802Y-61167D01*
X-46053Y-63333D01*
X-46700Y-65749D01*
Y-68251D01*
X-46053Y-70667D01*
X-44802Y-72833D01*
X-43033Y-74602D01*
X-40867Y-75853D01*
X-38451Y-76500D01*
X-35949D01*
X-33533Y-75853D01*
X-31367Y-74602D01*
X-29598Y-72833D01*
X-28347Y-70667D01*
X-27700Y-68251D01*
Y-65749D01*
X-28347Y-63333D01*
X-28398Y-63245D01*
X-22722Y-57569D01*
X-17004D01*
X-16664Y-58839D01*
X-17633Y-59398D01*
X-19402Y-61167D01*
X-20653Y-63333D01*
X-21300Y-65749D01*
Y-68251D01*
X-20653Y-70667D01*
X-19402Y-72833D01*
X-17633Y-74602D01*
X-15467Y-75853D01*
X-13051Y-76500D01*
X-10549D01*
X-8133Y-75853D01*
X-5967Y-74602D01*
X-4198Y-72833D01*
X-2947Y-70667D01*
X-2300Y-68251D01*
Y-65749D01*
X-2947Y-63333D01*
X-2998Y-63245D01*
X23Y-60224D01*
X164Y-60210D01*
X4439Y-64485D01*
X4100Y-65749D01*
Y-68251D01*
X4747Y-70667D01*
X5998Y-72833D01*
X7767Y-74602D01*
X9933Y-75853D01*
X12349Y-76500D01*
X14851D01*
X17267Y-75853D01*
X19433Y-74602D01*
X21202Y-72833D01*
X22453Y-70667D01*
X23100Y-68251D01*
Y-65749D01*
X22453Y-63333D01*
X21202Y-61167D01*
X19433Y-59398D01*
X18464Y-58839D01*
X18804Y-57569D01*
X24522D01*
X30198Y-63245D01*
X30147Y-63333D01*
X29500Y-65749D01*
Y-68251D01*
X30147Y-70667D01*
X31398Y-72833D01*
X33167Y-74602D01*
X35333Y-75853D01*
X37749Y-76500D01*
X40251D01*
X42667Y-75853D01*
X44833Y-74602D01*
X46602Y-72833D01*
X47853Y-70667D01*
X48500Y-68251D01*
Y-65749D01*
X47853Y-63333D01*
X46602Y-61167D01*
X44833Y-59398D01*
X42667Y-58147D01*
X40251Y-57500D01*
X37749D01*
X35333Y-58147D01*
X35245Y-58198D01*
X29789Y-52742D01*
X30275Y-51569D01*
X43922D01*
X55598Y-63245D01*
X55547Y-63333D01*
X54900Y-65749D01*
Y-68251D01*
X55547Y-70667D01*
X56798Y-72833D01*
X58567Y-74602D01*
X60733Y-75853D01*
X63149Y-76500D01*
X65651D01*
X68067Y-75853D01*
X70233Y-74602D01*
X72002Y-72833D01*
X73253Y-70667D01*
X73900Y-68251D01*
Y-65749D01*
X73253Y-63333D01*
X72002Y-61167D01*
X70233Y-59398D01*
X68067Y-58147D01*
X65651Y-57500D01*
X63149D01*
X60733Y-58147D01*
X60645Y-58198D01*
X49189Y-46742D01*
X49675Y-45569D01*
X63322D01*
X80998Y-63245D01*
X80947Y-63333D01*
X80300Y-65749D01*
Y-68251D01*
X80947Y-70667D01*
X82198Y-72833D01*
X83967Y-74602D01*
X86133Y-75853D01*
X88549Y-76500D01*
X91051D01*
X93467Y-75853D01*
X95633Y-74602D01*
X97402Y-72833D01*
X98653Y-70667D01*
X99300Y-68251D01*
Y-65749D01*
X98653Y-63333D01*
X97402Y-61167D01*
X95633Y-59398D01*
X93467Y-58147D01*
X91051Y-57500D01*
X88549D01*
X86133Y-58147D01*
X86045Y-58198D01*
X67323Y-39477D01*
X66166Y-38703D01*
X64800Y-38431D01*
X21068D01*
Y-35000D01*
X20999Y-34655D01*
Y-29000D01*
D02*
G37*
G36*
X-78500Y-68270D02*
X-86730D01*
Y-76500D01*
X-78500D01*
Y-68270D01*
D02*
G37*
G36*
X-89270D02*
X-97500D01*
Y-76500D01*
X-89270D01*
Y-68270D01*
D02*
G37*
G36*
X-133288Y-83000D02*
X-133730D01*
Y-94730D01*
X-122000D01*
Y-94289D01*
X-122886Y-90982D01*
X-124597Y-88018D01*
X-127018Y-85597D01*
X-129982Y-83886D01*
X-133288Y-83000D01*
D02*
G37*
G36*
X-136270D02*
X-136712D01*
X-140018Y-83886D01*
X-142982Y-85597D01*
X-145403Y-88018D01*
X-147114Y-90982D01*
X-148000Y-94289D01*
Y-94730D01*
X-136270D01*
Y-83000D01*
D02*
G37*
G36*
X136712D02*
X136270D01*
Y-94730D01*
X148000D01*
Y-94289D01*
X147114Y-90982D01*
X145403Y-88018D01*
X142982Y-85597D01*
X140018Y-83886D01*
X136712Y-83000D01*
D02*
G37*
G36*
X133730D02*
X133288D01*
X129982Y-83886D01*
X127018Y-85597D01*
X124597Y-88018D01*
X122886Y-90982D01*
X122000Y-94289D01*
Y-94730D01*
X133730D01*
Y-83000D01*
D02*
G37*
G36*
X148000Y-97270D02*
X136270D01*
Y-109000D01*
X136712D01*
X140018Y-108114D01*
X142982Y-106403D01*
X145403Y-103982D01*
X147114Y-101018D01*
X148000Y-97711D01*
Y-97270D01*
D02*
G37*
G36*
X133730D02*
X122000D01*
Y-97711D01*
X122886Y-101018D01*
X124597Y-103982D01*
X127018Y-106403D01*
X129982Y-108114D01*
X133288Y-109000D01*
X133730D01*
Y-97270D01*
D02*
G37*
G36*
X-122000Y-97270D02*
X-133730D01*
Y-109000D01*
X-133288D01*
X-129982Y-108114D01*
X-127018Y-106403D01*
X-124597Y-103982D01*
X-122886Y-101018D01*
X-122000Y-97711D01*
Y-97270D01*
D02*
G37*
G36*
X-136270D02*
X-148000D01*
Y-97711D01*
X-147114Y-101018D01*
X-145403Y-103982D01*
X-142982Y-106403D01*
X-140018Y-108114D01*
X-136712Y-109000D01*
X-136270D01*
Y-97270D01*
D02*
G37*
G36*
X91070Y-112505D02*
Y-120730D01*
X99295D01*
X98653Y-118333D01*
X97402Y-116167D01*
X95633Y-114398D01*
X93467Y-113147D01*
X91070Y-112505D01*
D02*
G37*
G36*
X88530D02*
X86133Y-113147D01*
X83967Y-114398D01*
X82198Y-116167D01*
X80947Y-118333D01*
X80305Y-120730D01*
X88530D01*
Y-112505D01*
D02*
G37*
G36*
X65670D02*
Y-120730D01*
X73895D01*
X73253Y-118333D01*
X72002Y-116167D01*
X70233Y-114398D01*
X68067Y-113147D01*
X65670Y-112505D01*
D02*
G37*
G36*
X63130D02*
X60733Y-113147D01*
X58567Y-114398D01*
X56798Y-116167D01*
X55547Y-118333D01*
X54905Y-120730D01*
X63130D01*
Y-112505D01*
D02*
G37*
G36*
X40270D02*
Y-120730D01*
X48495D01*
X47853Y-118333D01*
X46602Y-116167D01*
X44833Y-114398D01*
X42667Y-113147D01*
X40270Y-112505D01*
D02*
G37*
G36*
X37730D02*
X35333Y-113147D01*
X33167Y-114398D01*
X31398Y-116167D01*
X30147Y-118333D01*
X29505Y-120730D01*
X37730D01*
Y-112505D01*
D02*
G37*
G36*
X14870D02*
Y-120730D01*
X23095D01*
X22453Y-118333D01*
X21202Y-116167D01*
X19433Y-114398D01*
X17267Y-113147D01*
X14870Y-112505D01*
D02*
G37*
G36*
X12330D02*
X9933Y-113147D01*
X7767Y-114398D01*
X5998Y-116167D01*
X4747Y-118333D01*
X4105Y-120730D01*
X12330D01*
Y-112505D01*
D02*
G37*
G36*
X-10530D02*
Y-120730D01*
X-2305D01*
X-2947Y-118333D01*
X-4198Y-116167D01*
X-5967Y-114398D01*
X-8133Y-113147D01*
X-10530Y-112505D01*
D02*
G37*
G36*
X-13070D02*
X-15467Y-113147D01*
X-17633Y-114398D01*
X-19402Y-116167D01*
X-20653Y-118333D01*
X-21295Y-120730D01*
X-13070D01*
Y-112505D01*
D02*
G37*
G36*
X-35930D02*
Y-120730D01*
X-27705D01*
X-28347Y-118333D01*
X-29598Y-116167D01*
X-31367Y-114398D01*
X-33533Y-113147D01*
X-35930Y-112505D01*
D02*
G37*
G36*
X-38470D02*
X-40867Y-113147D01*
X-43033Y-114398D01*
X-44802Y-116167D01*
X-46053Y-118333D01*
X-46695Y-120730D01*
X-38470D01*
Y-112505D01*
D02*
G37*
G36*
X-61330D02*
Y-120730D01*
X-53105D01*
X-53747Y-118333D01*
X-54998Y-116167D01*
X-56767Y-114398D01*
X-58933Y-113147D01*
X-61330Y-112505D01*
D02*
G37*
G36*
X-63870D02*
X-66267Y-113147D01*
X-68433Y-114398D01*
X-70202Y-116167D01*
X-71453Y-118333D01*
X-72095Y-120730D01*
X-63870D01*
Y-112505D01*
D02*
G37*
G36*
X-78500Y-112500D02*
X-86730D01*
Y-120730D01*
X-78500D01*
Y-112500D01*
D02*
G37*
G36*
X-89270D02*
X-97500D01*
Y-120730D01*
X-89270D01*
Y-112500D01*
D02*
G37*
G36*
X99295Y-123270D02*
X91070D01*
Y-131495D01*
X93467Y-130853D01*
X95633Y-129602D01*
X97402Y-127833D01*
X98653Y-125667D01*
X99295Y-123270D01*
D02*
G37*
G36*
X88530D02*
X80305D01*
X80947Y-125667D01*
X82198Y-127833D01*
X83967Y-129602D01*
X86133Y-130853D01*
X88530Y-131495D01*
Y-123270D01*
D02*
G37*
G36*
X73895D02*
X65670D01*
Y-131495D01*
X68067Y-130853D01*
X70233Y-129602D01*
X72002Y-127833D01*
X73253Y-125667D01*
X73895Y-123270D01*
D02*
G37*
G36*
X63130D02*
X54905D01*
X55547Y-125667D01*
X56798Y-127833D01*
X58567Y-129602D01*
X60733Y-130853D01*
X63130Y-131495D01*
Y-123270D01*
D02*
G37*
G36*
X48495D02*
X40270D01*
Y-131495D01*
X42667Y-130853D01*
X44833Y-129602D01*
X46602Y-127833D01*
X47853Y-125667D01*
X48495Y-123270D01*
D02*
G37*
G36*
X37730D02*
X29505D01*
X30147Y-125667D01*
X31398Y-127833D01*
X33167Y-129602D01*
X35333Y-130853D01*
X37730Y-131495D01*
Y-123270D01*
D02*
G37*
G36*
X23095D02*
X14870D01*
Y-131495D01*
X17267Y-130853D01*
X19433Y-129602D01*
X21202Y-127833D01*
X22453Y-125667D01*
X23095Y-123270D01*
D02*
G37*
G36*
X12330D02*
X4105D01*
X4747Y-125667D01*
X5998Y-127833D01*
X7767Y-129602D01*
X9933Y-130853D01*
X12330Y-131495D01*
Y-123270D01*
D02*
G37*
G36*
X-2305D02*
X-10530D01*
Y-131495D01*
X-8133Y-130853D01*
X-5967Y-129602D01*
X-4198Y-127833D01*
X-2947Y-125667D01*
X-2305Y-123270D01*
D02*
G37*
G36*
X-13070D02*
X-21295D01*
X-20653Y-125667D01*
X-19402Y-127833D01*
X-17633Y-129602D01*
X-15467Y-130853D01*
X-13070Y-131495D01*
Y-123270D01*
D02*
G37*
G36*
X-27705D02*
X-35930D01*
Y-131495D01*
X-33533Y-130853D01*
X-31367Y-129602D01*
X-29598Y-127833D01*
X-28347Y-125667D01*
X-27705Y-123270D01*
D02*
G37*
G36*
X-38470D02*
X-46695D01*
X-46053Y-125667D01*
X-44802Y-127833D01*
X-43033Y-129602D01*
X-40867Y-130853D01*
X-38470Y-131495D01*
Y-123270D01*
D02*
G37*
G36*
X-53105D02*
X-61330D01*
Y-131495D01*
X-58933Y-130853D01*
X-56767Y-129602D01*
X-54998Y-127833D01*
X-53747Y-125667D01*
X-53105Y-123270D01*
D02*
G37*
G36*
X-63870D02*
X-72095D01*
X-71453Y-125667D01*
X-70202Y-127833D01*
X-68433Y-129602D01*
X-66267Y-130853D01*
X-63870Y-131495D01*
Y-123270D01*
D02*
G37*
G36*
X-78500D02*
X-86730D01*
Y-131500D01*
X-78500D01*
Y-123270D01*
D02*
G37*
G36*
X-89270D02*
X-97500D01*
Y-131500D01*
X-89270D01*
Y-123270D01*
D02*
G37*
G36*
X133730Y-120500D02*
X133091D01*
X129403Y-121488D01*
X126097Y-123397D01*
X123397Y-126097D01*
X121488Y-129403D01*
X120500Y-133091D01*
Y-133730D01*
X133730D01*
Y-120500D01*
D02*
G37*
G36*
X-133091D02*
X-133730D01*
Y-133730D01*
X-120500D01*
Y-133091D01*
X-121488Y-129403D01*
X-123397Y-126097D01*
X-126097Y-123397D01*
X-129403Y-121488D01*
X-133091Y-120500D01*
D02*
G37*
%LPD*%
D14*
X-17501Y-35000D02*
D03*
X-12501D02*
D03*
X-7501D02*
D03*
X-2501D02*
D03*
X2499D02*
D03*
X7499D02*
D03*
X12499D02*
D03*
X17499D02*
D03*
D15*
X-27501Y-10000D02*
D03*
X27499D02*
D03*
D22*
X-2501Y-57701D02*
Y-35000D01*
X-11800Y-67000D02*
X-2501Y-57701D01*
X64800Y-42000D02*
X89800Y-67000D01*
X19257Y-42000D02*
X64800D01*
X17499Y-40243D02*
X19257Y-42000D01*
X12499Y-43499D02*
X17000Y-48000D01*
X17499Y-40243D02*
Y-35000D01*
X17000Y-48000D02*
X45400D01*
X12499Y-43499D02*
Y-35000D01*
X7499Y-46499D02*
X15000Y-54000D01*
X45400Y-48000D02*
X64400Y-67000D01*
X26000Y-54000D02*
X39000Y-67000D01*
X15000Y-54000D02*
X26000D01*
X7499Y-46499D02*
Y-35000D01*
X-17501Y-40243D02*
Y-35000D01*
X-19258Y-42000D02*
X-17501Y-40243D01*
X-63000Y-42000D02*
X-19258D01*
X-12501Y-43501D02*
Y-35000D01*
X-17000Y-48000D02*
X-12501Y-43501D01*
X-62600Y-67000D02*
X-43600Y-48000D01*
X-17000D01*
X-24200Y-54000D02*
X-15000D01*
X-7501Y-46501D01*
X-37200Y-67000D02*
X-24200Y-54000D01*
X2499Y-57499D02*
X12000Y-67000D01*
X2499Y-57499D02*
Y-35000D01*
X12000Y-67000D02*
X13600D01*
X-7501Y-46501D02*
Y-35000D01*
D23*
X134349Y-77000D02*
D03*
X-134349D02*
D03*
D24*
X133000Y-11000D02*
D03*
X-133000D02*
D03*
D25*
X129934Y-140823D02*
D03*
X-129934D02*
D03*
D26*
X-88000Y-122000D02*
D03*
Y-67000D02*
D03*
D27*
X-62600Y-122000D02*
D03*
X-37200D02*
D03*
X-11800D02*
D03*
X13600D02*
D03*
X39000D02*
D03*
X64400D02*
D03*
X89800D02*
D03*
X-62600Y-67000D02*
D03*
X-37200D02*
D03*
X-11800D02*
D03*
X13600D02*
D03*
X39000D02*
D03*
X64400D02*
D03*
X89800D02*
D03*
D28*
X-135000Y-96000D02*
D03*
Y-18000D02*
D03*
X135000D02*
D03*
Y-96000D02*
D03*
D29*
X-135000Y-57000D02*
D03*
Y-135000D02*
D03*
X135000Y-57000D02*
D03*
Y-135000D02*
D03*
M02*
