M48
;Layer_Color=9474304
;FILE_FORMAT=2:4
INCH,TZ
;TYPE=PLATED
T01F00S00C0.0118
T03F00S00C0.0244
T04F00S00C0.0354
T05F00S00C0.0433
T06F00S00C0.0807
;TYPE=NON_PLATED
T07F00S00C0.0256
%
T01
X-6201Y-8091
X-4803Y-7913
X-4419Y-6772
X-4567Y-6063
X-4419Y-5709
X-5394Y-5945
X-3187Y-6036
X-3189Y-6299
Y-6772
X-3228Y-7047
X-3031Y-7323
X-3386Y-8268
X-3346Y-8819
X-3189Y-5748
Y-5472
Y-5157
X-1727Y-5221
X-1917Y-5421
X315Y-6614
X276Y-6850
X866Y-6811
X886Y-7815
X295Y-8091
X98Y-8248
X-98Y-8091
X-295Y-8248
X-492Y-8091
X-886Y-7815
X2661Y-7992
Y-6201
X3323
X3858Y-7008
X4646Y-7835
X4567Y-5984
X5315Y-5591
X5669Y-5276
X5984
X6299
X6732Y-5236
X7165Y-5472
X7362Y-5630
X6929Y-5787
Y-6063
X7165Y-6024
X6496Y-6575
X6811Y-7441
X2402Y-5315
X2165Y-5528
X1890Y-5669
X1575
X-7579Y-8091
X-3189Y-4843
X-3031Y-4646
X-1929
X-1772Y-4833
X-1929Y-5039
X-2008Y-4055
X-1693
X-1811Y-3425
X-1929Y-3071
X-1378Y-3031
X-787Y-3543
X0
X787
Y-4331
Y-5118
X0
Y-4331
X-787
Y-5118
X-502Y-2638
X472Y-2677
X2244Y-2874
X2520
X3150Y-3858
Y-4449
X1732Y-4439
Y-4813
X1929Y-5000
X6654
X7165Y-3150
X7411Y-3268
X-2638
X-2756Y-2205
T03
X-5709Y-1102
X-5209
X-4709
X-4209
X-3709
X-3209
X3209
X3709
X4209
X4709
X5209
X5709
T04
X-6945Y-3047
Y-2047
X-5945
X-4945
Y-3047
X-5945
X-2000Y-2047
X-1000
X0
X1000
X2000
X3937
X4937
X5937
X6937
X6803Y-4252
X5803
X4803
X3803
T05
X-5315Y-7323
X5315
X8189Y-6496
X-8189
Y-4370
Y-2244
X8189
Y-4370
T06
X8189Y-5433
X-8189
Y-3307
Y-1181
X8189
Y-3307
T07
X-1138Y-6569
X1138
M30
