G04*
G04 #@! TF.GenerationSoftware,Altium Limited,Altium Designer,25.8.1 (18)*
G04*
G04 Layer_Color=255*
%FSLAX44Y44*%
%MOMM*%
G71*
G04*
G04 #@! TF.SameCoordinates,AEC5E859-BCC1-4B89-9571-4312C6F7A3D7*
G04*
G04*
G04 #@! TF.FilePolarity,Positive*
G04*
G01*
G75*
%ADD26C,1.0000*%
%ADD27R,1.0000X1.0000*%
%ADD28C,1.5000*%
%ADD29R,1.5000X1.5000*%
%ADD30C,2.5000*%
%ADD31C,1.8000*%
D26*
X81500Y-28000D02*
D03*
X94200D02*
D03*
X132300D02*
D03*
X119600D02*
D03*
X106900D02*
D03*
X-145000D02*
D03*
X-132300D02*
D03*
X-94200D02*
D03*
X-106900D02*
D03*
X-119600D02*
D03*
D27*
X145000D02*
D03*
X-81500D02*
D03*
D28*
X-12700Y-86600D02*
D03*
X63500D02*
D03*
Y-112000D02*
D03*
X38100Y-86600D02*
D03*
Y-112000D02*
D03*
X12700Y-86600D02*
D03*
Y-112000D02*
D03*
X-12700D02*
D03*
X-38100Y-86600D02*
D03*
Y-112000D02*
D03*
X-63500Y-86600D02*
D03*
D29*
Y-112000D02*
D03*
D30*
X208000Y-30000D02*
D03*
Y-138000D02*
D03*
Y-84000D02*
D03*
X149000Y-152000D02*
D03*
X95000D02*
D03*
X-95000D02*
D03*
X-149000D02*
D03*
X-208000Y-84000D02*
D03*
Y-138000D02*
D03*
Y-30000D02*
D03*
D31*
X208000Y-57000D02*
D03*
Y-111000D02*
D03*
X122000Y-152000D02*
D03*
X176000D02*
D03*
X-176000D02*
D03*
X-122000D02*
D03*
X-208000Y-111000D02*
D03*
Y-57000D02*
D03*
M02*
