G04*
G04 #@! TF.GenerationSoftware,Altium Limited,Altium Designer,26.2.0 (7)*
G04*
G04 Layer_Color=8388736*
%FSLAX44Y44*%
%MOMM*%
G71*
G04*
G04 #@! TF.SameCoordinates,22E9B78E-4E2C-48CF-9F74-CD5CA387B853*
G04*
G04*
G04 #@! TF.FilePolarity,Negative*
G04*
G01*
G75*
G04:AMPARAMS|DCode=18|XSize=0.85mm|YSize=0.3mm|CornerRadius=0.15mm|HoleSize=0mm|Usage=FLASHONLY|Rotation=270.000|XOffset=0mm|YOffset=0mm|HoleType=Round|Shape=RoundedRectangle|*
%AMROUNDEDRECTD18*
21,1,0.8500,0.0000,0,0,270.0*
21,1,0.5500,0.3000,0,0,270.0*
1,1,0.3000,0.0000,-0.2750*
1,1,0.3000,0.0000,0.2750*
1,1,0.3000,0.0000,0.2750*
1,1,0.3000,0.0000,-0.2750*
%
%ADD18ROUNDEDRECTD18*%
G04:AMPARAMS|DCode=19|XSize=0.3mm|YSize=0.85mm|CornerRadius=0.15mm|HoleSize=0mm|Usage=FLASHONLY|Rotation=270.000|XOffset=0mm|YOffset=0mm|HoleType=Round|Shape=RoundedRectangle|*
%AMROUNDEDRECTD19*
21,1,0.3000,0.5500,0,0,270.0*
21,1,0.0000,0.8500,0,0,270.0*
1,1,0.3000,-0.2750,0.0000*
1,1,0.3000,-0.2750,0.0000*
1,1,0.3000,0.2750,0.0000*
1,1,0.3000,0.2750,0.0000*
%
%ADD19ROUNDEDRECTD19*%
%ADD21R,5.2500X5.2500*%
%ADD22C,0.6096*%
%ADD23R,0.6000X0.7000*%
%ADD24R,0.4000X0.9000*%
%ADD25R,0.5000X0.9000*%
%ADD26R,0.9000X1.0500*%
%ADD27R,0.3200X0.5200*%
%ADD28C,0.3000*%
%ADD29C,1.6000*%
%ADD30R,1.6000X1.6000*%
%ADD31C,2.6000*%
%ADD32C,1.9000*%
%ADD33C,1.1000*%
%ADD34C,2.1000*%
%ADD35O,1.0000X2.1000*%
%ADD36O,1.0000X1.8000*%
%ADD37R,1.1000X1.1000*%
%ADD38C,0.6500*%
D18*
X7500Y-75500D02*
D03*
X22500Y-144500D02*
D03*
X-27500Y-75500D02*
D03*
X-17500D02*
D03*
X2500D02*
D03*
X27500Y-144500D02*
D03*
X7500D02*
D03*
X22500Y-75500D02*
D03*
X-22500D02*
D03*
X27500D02*
D03*
X12500Y-144500D02*
D03*
X17500D02*
D03*
X-17500D02*
D03*
X-22500D02*
D03*
X-12500D02*
D03*
X-27500D02*
D03*
X17500Y-75500D02*
D03*
X12500D02*
D03*
X-2500D02*
D03*
X-7500D02*
D03*
X-12500D02*
D03*
X-7500Y-144500D02*
D03*
X-2500D02*
D03*
X2500D02*
D03*
D19*
X34500Y-112500D02*
D03*
X-34500Y-107500D02*
D03*
Y-117500D02*
D03*
Y-122500D02*
D03*
Y-112500D02*
D03*
X34500Y-87500D02*
D03*
Y-82500D02*
D03*
X-34500Y-102500D02*
D03*
Y-137500D02*
D03*
Y-92500D02*
D03*
Y-97500D02*
D03*
Y-132500D02*
D03*
X34500Y-117500D02*
D03*
X-34500Y-127500D02*
D03*
Y-82500D02*
D03*
Y-87500D02*
D03*
X34500Y-137500D02*
D03*
Y-132500D02*
D03*
Y-127500D02*
D03*
Y-122500D02*
D03*
Y-107500D02*
D03*
Y-102500D02*
D03*
Y-97500D02*
D03*
Y-92500D02*
D03*
D21*
X0Y-110000D02*
D03*
D22*
X-91206Y-53901D02*
G03*
X-91206Y-53901I-2794J0D01*
G01*
X-91206Y-53342D02*
G03*
X-91206Y-53342I-2794J0D01*
G01*
X-135305Y-105000D02*
G03*
X-135305Y-105000I-2794J0D01*
G01*
X-158181D02*
G03*
X-158181Y-105000I-2794J0D01*
G01*
D23*
X-56200Y-103000D02*
D03*
X-65800D02*
D03*
D24*
X17501Y-198500D02*
D03*
X12501D02*
D03*
X7501D02*
D03*
X2501D02*
D03*
X-2499D02*
D03*
X-7499D02*
D03*
X-12499D02*
D03*
X-17499D02*
D03*
X77501D02*
D03*
X112501D02*
D03*
X-112499D02*
D03*
X-157499D02*
D03*
X-192499D02*
D03*
X-162499D02*
D03*
X-167499D02*
D03*
X-172499D02*
D03*
X-177499D02*
D03*
X-182499D02*
D03*
X-187499D02*
D03*
X-77499D02*
D03*
X-82499D02*
D03*
X-87499D02*
D03*
X-92499D02*
D03*
X-97499D02*
D03*
X-102499D02*
D03*
X-107499D02*
D03*
X107501D02*
D03*
X102501D02*
D03*
X97501D02*
D03*
X92501D02*
D03*
X87501D02*
D03*
X82501D02*
D03*
X192501D02*
D03*
X187501D02*
D03*
X182501D02*
D03*
X177501D02*
D03*
X172501D02*
D03*
X167501D02*
D03*
X162501D02*
D03*
X157501D02*
D03*
D25*
X27501Y-223500D02*
D03*
X-27499D02*
D03*
X202501D02*
D03*
X147501D02*
D03*
X122501D02*
D03*
X67501D02*
D03*
X-67499D02*
D03*
X-122499D02*
D03*
X-147499D02*
D03*
X-202499D02*
D03*
D26*
X73500Y-98000D02*
D03*
Y-113000D02*
D03*
X58500Y-98000D02*
D03*
Y-113000D02*
D03*
D27*
X21540Y-159000D02*
D03*
X13540D02*
D03*
Y-165500D02*
D03*
X21540D02*
D03*
X17540D02*
D03*
Y-159000D02*
D03*
D28*
X-94000Y-57000D02*
D03*
X-141248Y-105000D02*
D03*
X-164124D02*
D03*
X-94000Y-50244D02*
D03*
X-135000Y-105000D02*
D03*
X-157876D02*
D03*
D29*
X172800Y-108000D02*
D03*
X147400D02*
D03*
X122000D02*
D03*
X100000Y-52000D02*
D03*
X-50800D02*
D03*
X-151000D02*
D03*
X-125600Y-77400D02*
D03*
X-151000D02*
D03*
X-176400Y-52000D02*
D03*
Y-77400D02*
D03*
X-25400Y-52000D02*
D03*
X0D02*
D03*
X25400D02*
D03*
X125400D02*
D03*
X150800D02*
D03*
D30*
X96600Y-108000D02*
D03*
X176200Y-52000D02*
D03*
X50800D02*
D03*
X-125600D02*
D03*
D31*
X208000Y-30000D02*
D03*
Y-84000D02*
D03*
Y-138000D02*
D03*
X-208000Y-30000D02*
D03*
Y-84000D02*
D03*
Y-138000D02*
D03*
D32*
X208000Y-57000D02*
D03*
Y-111000D02*
D03*
Y-165000D02*
D03*
X-208000Y-57000D02*
D03*
Y-111000D02*
D03*
Y-165000D02*
D03*
D33*
X81500Y-28000D02*
D03*
X-106900D02*
D03*
X-132300D02*
D03*
X106900D02*
D03*
X-119600D02*
D03*
X94200D02*
D03*
X132300D02*
D03*
X119600D02*
D03*
X-145000D02*
D03*
X-94200D02*
D03*
D34*
X135000Y-186000D02*
D03*
X-135000D02*
D03*
D35*
X43200Y-161850D02*
D03*
X-43200D02*
D03*
D36*
X43200Y-203650D02*
D03*
X-43200D02*
D03*
D37*
X-81500Y-28000D02*
D03*
X145000D02*
D03*
D38*
X-28900Y-166850D02*
D03*
X28900D02*
D03*
M02*
