G04*
G04 #@! TF.GenerationSoftware,Altium Limited,Altium Designer,26.5.0 (11)*
G04*
G04 Layer_Physical_Order=1*
G04 Layer_Color=255*
G04 Board_Origin=37750000|36400000*
%FSLAX44Y44*%
%MOMM*%
G71*
G04*
G04 #@! TF.SameCoordinates,0A58002B-885F-4A8B-801D-3CB6CDD3C1E0*
G04*
G04*
G04 #@! TF.FilePolarity,Positive*
G04*
G01*
G75*
%ADD10C,0.2000*%
%ADD11C,0.2500*%
%ADD14R,0.3000X0.8000*%
%ADD15R,0.4000X0.8000*%
G04:AMPARAMS|DCode=16|XSize=0.3mm|YSize=0.85mm|CornerRadius=0.15mm|HoleSize=0mm|Usage=FLASHONLY|Rotation=270.000|XOffset=0mm|YOffset=0mm|HoleType=Round|Shape=RoundedRectangle|*
%AMROUNDEDRECTD16*
21,1,0.3000,0.5500,0,0,270.0*
21,1,0.0000,0.8500,0,0,270.0*
1,1,0.3000,-0.2750,0.0000*
1,1,0.3000,-0.2750,0.0000*
1,1,0.3000,0.2750,0.0000*
1,1,0.3000,0.2750,0.0000*
%
%ADD16ROUNDEDRECTD16*%
%ADD17R,5.2500X5.2500*%
%ADD18R,0.2200X0.4200*%
G04:AMPARAMS|DCode=19|XSize=0.85mm|YSize=0.3mm|CornerRadius=0.15mm|HoleSize=0mm|Usage=FLASHONLY|Rotation=270.000|XOffset=0mm|YOffset=0mm|HoleType=Round|Shape=RoundedRectangle|*
%AMROUNDEDRECTD19*
21,1,0.8500,0.0000,0,0,270.0*
21,1,0.5500,0.3000,0,0,270.0*
1,1,0.3000,0.0000,-0.2750*
1,1,0.3000,0.0000,0.2750*
1,1,0.3000,0.0000,0.2750*
1,1,0.3000,0.0000,-0.2750*
%
%ADD19ROUNDEDRECTD19*%
%ADD20R,0.8000X0.9500*%
%ADD21R,0.5000X0.6000*%
%ADD32O,1.0000X1.8000*%
%ADD33O,1.0000X2.1000*%
%ADD38C,0.6500*%
%ADD39C,0.1524*%
%ADD40C,0.2000*%
%ADD41C,0.2032*%
%ADD42C,0.3000*%
%ADD43C,0.2200*%
%ADD44C,0.4500*%
%ADD45C,0.4000*%
%ADD46R,2.9000X16.7000*%
%ADD47C,2.0000*%
%ADD48C,1.8000*%
%ADD49C,2.5000*%
%ADD50C,1.5000*%
%ADD51R,1.0000X1.0000*%
%ADD52C,1.0000*%
%ADD53R,1.5000X1.5000*%
%ADD54C,0.4500*%
%ADD55C,0.6000*%
G36*
X214000Y-2836D02*
X215854Y-3080D01*
X217582Y-3796D01*
X219066Y-4934D01*
X220205Y-6418D01*
X220920Y-8146D01*
X221164Y-10000D01*
X221176D01*
Y-23281D01*
X219906Y-23621D01*
X218803Y-21711D01*
X216289Y-19197D01*
X213211Y-17420D01*
X209777Y-16500D01*
X209270D01*
Y-30000D01*
Y-43500D01*
X209777D01*
X213211Y-42580D01*
X216289Y-40803D01*
X218803Y-38289D01*
X219906Y-36379D01*
X221176Y-36719D01*
Y-77281D01*
X219906Y-77621D01*
X218803Y-75711D01*
X216289Y-73197D01*
X213211Y-71420D01*
X209777Y-70500D01*
X209270D01*
Y-84000D01*
Y-97500D01*
X209777D01*
X213211Y-96580D01*
X216289Y-94803D01*
X218803Y-92289D01*
X219906Y-90379D01*
X221176Y-90719D01*
Y-131281D01*
X219906Y-131621D01*
X218803Y-129711D01*
X216289Y-127197D01*
X213211Y-125420D01*
X209777Y-124500D01*
X209270D01*
Y-138000D01*
Y-151500D01*
X209777D01*
X213211Y-150580D01*
X216289Y-148803D01*
X218803Y-146289D01*
X219906Y-144379D01*
X221176Y-144719D01*
Y-223000D01*
X221164D01*
X220920Y-224854D01*
X220205Y-226582D01*
X219066Y-228066D01*
X217582Y-229205D01*
X215854Y-229920D01*
X214000Y-230164D01*
Y-230176D01*
X-214000D01*
Y-230164D01*
X-215854Y-229920D01*
X-217582Y-229205D01*
X-219066Y-228066D01*
X-220205Y-226582D01*
X-220920Y-224854D01*
X-221164Y-223000D01*
X-221176D01*
Y-144719D01*
X-219906Y-144379D01*
X-218803Y-146289D01*
X-216289Y-148803D01*
X-213211Y-150580D01*
X-209777Y-151500D01*
X-209270D01*
Y-138000D01*
Y-124500D01*
X-209777D01*
X-213211Y-125420D01*
X-216289Y-127197D01*
X-218803Y-129711D01*
X-219906Y-131621D01*
X-221176Y-131281D01*
Y-90719D01*
X-219906Y-90379D01*
X-218803Y-92289D01*
X-216289Y-94803D01*
X-213211Y-96580D01*
X-209777Y-97500D01*
X-209270D01*
Y-84000D01*
Y-70500D01*
X-209777D01*
X-213211Y-71420D01*
X-216289Y-73197D01*
X-218803Y-75711D01*
X-219906Y-77621D01*
X-221176Y-77281D01*
Y-36719D01*
X-219906Y-36379D01*
X-218803Y-38289D01*
X-216289Y-40803D01*
X-213211Y-42580D01*
X-209777Y-43500D01*
X-209270D01*
Y-30000D01*
Y-16500D01*
X-209777D01*
X-213211Y-17420D01*
X-216289Y-19197D01*
X-218803Y-21711D01*
X-219906Y-23621D01*
X-221176Y-23281D01*
Y-10000D01*
X-221164D01*
X-220920Y-8146D01*
X-220205Y-6418D01*
X-219066Y-4934D01*
X-217582Y-3796D01*
X-215854Y-3080D01*
X-214000Y-2836D01*
Y-2824D01*
X-87344D01*
X-86074Y-2825D01*
X-84850Y-2936D01*
X-82372Y-3262D01*
X-78922Y-4692D01*
X-75959Y-6965D01*
X-73686Y-9927D01*
X-72257Y-13378D01*
X-71789Y-16930D01*
X-71819Y-17080D01*
Y-21362D01*
X-71844D01*
X-71527Y-24576D01*
X-70590Y-27666D01*
X-69068Y-30514D01*
X-67019Y-33011D01*
X-64522Y-35059D01*
X-62424Y-36181D01*
X-62742Y-37451D01*
X-64000D01*
X-64976Y-37645D01*
X-65802Y-38198D01*
X-130056Y-102451D01*
X-131487D01*
X-131490Y-102448D01*
X-131519Y-102245D01*
X-131730Y-101887D01*
X-131841Y-101618D01*
X-132045Y-101352D01*
X-132103Y-101254D01*
X-132144Y-101223D01*
X-132280Y-101046D01*
X-132302Y-100984D01*
X-132459Y-100813D01*
X-132916Y-100217D01*
X-133349Y-99885D01*
X-133623Y-99610D01*
X-133779Y-99545D01*
X-133874Y-99405D01*
X-134519Y-98977D01*
X-134742Y-98934D01*
X-134915Y-98786D01*
X-136098Y-98401D01*
X-136347Y-98421D01*
X-136576Y-98322D01*
X-136893Y-98448D01*
X-137027Y-98474D01*
X-137337Y-98499D01*
X-137376Y-98544D01*
X-137477Y-98564D01*
X-138699Y-97853D01*
Y-90304D01*
X-137198Y-88802D01*
X-136645Y-87976D01*
X-136451Y-87000D01*
Y-42056D01*
X-134944Y-40549D01*
X-109000D01*
X-108025Y-40355D01*
X-107198Y-39802D01*
X-105098Y-37702D01*
X-104545Y-36875D01*
X-104351Y-35900D01*
Y-34034D01*
X-102909Y-33201D01*
X-101699Y-31991D01*
X-101283Y-31271D01*
X-99817D01*
X-99401Y-31991D01*
X-98191Y-33201D01*
X-97569Y-33561D01*
Y-49342D01*
X-97505Y-49278D01*
X-96921Y-48745D01*
X-95930Y-48161D01*
X-94991Y-47881D01*
X-92781Y-47932D01*
X-92070Y-48186D01*
X-90698Y-49024D01*
X-90431Y-49299D01*
Y-33330D01*
X-90209Y-33201D01*
X-88999Y-31991D01*
X-88770Y-31595D01*
X-87500Y-31935D01*
Y-34000D01*
X-82770D01*
Y-28000D01*
Y-22000D01*
X-87500D01*
Y-24065D01*
X-88770Y-24405D01*
X-88999Y-24009D01*
X-90209Y-22799D01*
X-91691Y-21943D01*
X-93344Y-21500D01*
X-95056D01*
X-96709Y-21943D01*
X-98191Y-22799D01*
X-99401Y-24009D01*
X-99817Y-24729D01*
X-101283D01*
X-101699Y-24009D01*
X-102909Y-22799D01*
X-104351Y-21966D01*
Y-17100D01*
X-104545Y-16125D01*
X-105098Y-15298D01*
X-107198Y-13198D01*
X-108025Y-12645D01*
X-109000Y-12451D01*
X-179000D01*
X-179975Y-12645D01*
X-180802Y-13198D01*
X-189802Y-22198D01*
X-190355Y-23024D01*
X-190549Y-24000D01*
Y-185944D01*
X-193056Y-188451D01*
X-197828D01*
X-198804Y-188645D01*
X-199631Y-189198D01*
X-200802Y-190369D01*
X-201355Y-191196D01*
X-201549Y-192172D01*
Y-210500D01*
X-201355Y-211476D01*
X-200802Y-212302D01*
X-199302Y-213802D01*
X-198475Y-214355D01*
X-197500Y-214549D01*
X-181000D01*
X-180025Y-214355D01*
X-179198Y-213802D01*
X-176443Y-211048D01*
X-173499D01*
X-172524Y-210854D01*
X-171697Y-210302D01*
X-170697Y-209301D01*
X-170144Y-208475D01*
X-169950Y-207499D01*
Y-204000D01*
X-159499D01*
Y-203500D01*
X-158769D01*
Y-198500D01*
Y-193500D01*
X-159499D01*
Y-193000D01*
X-164950D01*
Y-189501D01*
X-165144Y-188525D01*
X-165697Y-187698D01*
X-167198Y-186198D01*
X-168025Y-185645D01*
X-169000Y-185451D01*
X-178443D01*
X-179950Y-183944D01*
Y-103555D01*
X-167722Y-91327D01*
X-166549Y-91813D01*
Y-100661D01*
X-166652Y-100795D01*
X-166729Y-100851D01*
X-166861Y-101068D01*
X-167283Y-101618D01*
X-167463Y-102053D01*
X-167567Y-102223D01*
X-167587Y-102353D01*
X-167614Y-102416D01*
X-167711Y-102523D01*
X-167965Y-103235D01*
X-167962Y-103278D01*
X-168009Y-103630D01*
X-168059Y-103743D01*
X-168066Y-104066D01*
X-168189Y-105000D01*
X-168103Y-105656D01*
X-168110Y-105953D01*
X-168040Y-106133D01*
X-168023Y-106263D01*
X-168043Y-106453D01*
X-167962Y-106724D01*
X-167959Y-106751D01*
X-167943Y-106789D01*
X-167763Y-107393D01*
X-167634Y-107552D01*
X-167605Y-107755D01*
X-167394Y-108113D01*
X-167283Y-108382D01*
X-167079Y-108648D01*
X-167021Y-108746D01*
X-166980Y-108777D01*
X-166844Y-108954D01*
X-166822Y-109016D01*
X-166665Y-109187D01*
X-166208Y-109783D01*
X-165776Y-110115D01*
X-165501Y-110390D01*
X-165345Y-110455D01*
X-165251Y-110595D01*
X-164605Y-111023D01*
X-164382Y-111066D01*
X-164209Y-111214D01*
X-163026Y-111599D01*
X-162777Y-111579D01*
X-162548Y-111678D01*
X-162231Y-111552D01*
X-162097Y-111526D01*
X-161787Y-111501D01*
X-161749Y-111456D01*
X-161647Y-111436D01*
X-161000Y-111004D01*
X-160471Y-111357D01*
X-160470Y-111358D01*
X-160469Y-111359D01*
X-160353Y-111436D01*
X-160109Y-111485D01*
X-159962Y-111536D01*
X-159874Y-111531D01*
X-159470Y-111612D01*
X-159108Y-111540D01*
X-158945Y-111555D01*
X-158900Y-111541D01*
X-158896Y-111544D01*
X-158825Y-111534D01*
X-158696Y-111481D01*
X-157932Y-111241D01*
X-157765Y-111102D01*
X-157550Y-111066D01*
X-157271Y-110891D01*
X-157193Y-110859D01*
X-157076Y-110768D01*
X-156632Y-110491D01*
X-156535Y-110353D01*
X-156520Y-110342D01*
X-156364Y-110280D01*
X-156079Y-110004D01*
X-155792Y-109783D01*
X-155618Y-109557D01*
X-155526Y-109468D01*
X-155496Y-109397D01*
X-155348Y-109205D01*
X-155271Y-109149D01*
X-155139Y-108932D01*
X-154717Y-108382D01*
X-154537Y-107947D01*
X-154433Y-107777D01*
X-154413Y-107647D01*
X-154386Y-107584D01*
X-154355Y-107549D01*
X-153056D01*
X-143802Y-116802D01*
X-142975Y-117355D01*
X-142000Y-117549D01*
X-133000D01*
X-132024Y-117355D01*
X-131198Y-116802D01*
X-111222Y-96827D01*
X-110049Y-97313D01*
Y-191905D01*
X-110499Y-193000D01*
X-111229Y-193343D01*
Y-198500D01*
Y-203500D01*
X-110499D01*
Y-204000D01*
X-85849D01*
X-85656Y-204242D01*
X-85757Y-205837D01*
X-85757Y-205837D01*
X-86170Y-206250D01*
X-86746D01*
X-88124Y-206821D01*
X-89179Y-207876D01*
X-89750Y-209254D01*
Y-210746D01*
X-89179Y-212124D01*
X-89059Y-212244D01*
Y-222594D01*
X-89059Y-222594D01*
X-88826Y-223765D01*
X-88750Y-223878D01*
Y-224746D01*
X-88179Y-226124D01*
X-87124Y-227179D01*
X-85746Y-227750D01*
X-84254D01*
X-82876Y-227179D01*
X-81821Y-226124D01*
X-81250Y-224746D01*
Y-223254D01*
X-81821Y-221876D01*
X-82876Y-220821D01*
X-82941Y-220794D01*
Y-212244D01*
X-82821Y-212124D01*
X-82417Y-211148D01*
X-82327Y-211059D01*
X-79257D01*
X-79257Y-211059D01*
X-78086Y-210826D01*
X-77094Y-210163D01*
X-75336Y-208406D01*
X-75336Y-208405D01*
X-74673Y-207413D01*
X-74440Y-206243D01*
X-74440Y-206243D01*
Y-198500D01*
X-74499Y-198205D01*
Y-193000D01*
X-79950D01*
Y-190012D01*
X-78680Y-189363D01*
X-77746Y-189750D01*
X-76254D01*
X-75265Y-189340D01*
X-63549Y-201056D01*
Y-215000D01*
X-63355Y-215975D01*
X-62802Y-216802D01*
X-56802Y-222802D01*
X-55975Y-223355D01*
X-55000Y-223549D01*
X-36000D01*
X-35024Y-223355D01*
X-34198Y-222802D01*
X-31672Y-220277D01*
X-30499Y-220763D01*
Y-222230D01*
X-24499D01*
Y-218500D01*
X-28236D01*
X-28722Y-217327D01*
X-26944Y-215549D01*
X-22056D01*
X-19802Y-217802D01*
X-18975Y-218355D01*
X-18000Y-218549D01*
X11000D01*
X11976Y-218355D01*
X12802Y-217802D01*
X14056Y-216549D01*
X31944D01*
X35198Y-219802D01*
X36025Y-220355D01*
X37000Y-220549D01*
X51000D01*
X51975Y-220355D01*
X52802Y-219802D01*
X55056Y-217549D01*
X63731D01*
X64501Y-218500D01*
X64501Y-218819D01*
Y-222230D01*
X70501D01*
Y-218819D01*
X70501Y-218500D01*
X71271Y-217549D01*
X106000D01*
X106975Y-217355D01*
X107802Y-216802D01*
X109056Y-215549D01*
X189000D01*
X189975Y-215355D01*
X190802Y-214802D01*
X194303Y-211301D01*
X194856Y-210475D01*
X195050Y-209499D01*
Y-204000D01*
X195501D01*
Y-193000D01*
X190050D01*
Y-151501D01*
X189856Y-150525D01*
X189303Y-149698D01*
X187528Y-147923D01*
X188032Y-146631D01*
X189124Y-146179D01*
X190179Y-145124D01*
X190750Y-143746D01*
Y-142433D01*
X190802Y-142381D01*
X191355Y-141554D01*
X191549Y-140578D01*
Y-93000D01*
X191355Y-92025D01*
X190802Y-91198D01*
X187625Y-88020D01*
X188151Y-86750D01*
X188996D01*
X190374Y-86179D01*
X191429Y-85124D01*
X192000Y-83746D01*
Y-82254D01*
X191429Y-80876D01*
X190799Y-80246D01*
Y-74250D01*
X190605Y-73275D01*
X190052Y-72448D01*
X182802Y-65198D01*
X181975Y-64645D01*
X181000Y-64451D01*
X166856D01*
X158708Y-56303D01*
X159187Y-55474D01*
X159800Y-53185D01*
Y-50815D01*
X159187Y-48526D01*
X158002Y-46474D01*
X156326Y-44798D01*
X154274Y-43613D01*
X151985Y-43000D01*
X149615D01*
X147326Y-43613D01*
X145274Y-44798D01*
X143598Y-46474D01*
X142413Y-48526D01*
X141800Y-50815D01*
Y-53185D01*
X142413Y-55474D01*
X143598Y-57526D01*
X145274Y-59202D01*
X147326Y-60387D01*
X149615Y-61000D01*
X151985D01*
X154274Y-60387D01*
X155103Y-59908D01*
X163376Y-68181D01*
X162850Y-69451D01*
X146456D01*
X133308Y-56303D01*
X133787Y-55474D01*
X134400Y-53185D01*
Y-50815D01*
X133787Y-48526D01*
X132602Y-46474D01*
X130926Y-44798D01*
X128874Y-43613D01*
X126585Y-43000D01*
X124215D01*
X121926Y-43613D01*
X119874Y-44798D01*
X118198Y-46474D01*
X117013Y-48526D01*
X116400Y-50815D01*
Y-53185D01*
X117013Y-55474D01*
X118198Y-57526D01*
X119874Y-59202D01*
X121926Y-60387D01*
X124215Y-61000D01*
X126585D01*
X128874Y-60387D01*
X129703Y-59908D01*
X143598Y-73802D01*
X144425Y-74355D01*
X145400Y-74549D01*
X176944D01*
X178973Y-76578D01*
Y-77724D01*
X178821Y-77876D01*
X178250Y-79254D01*
Y-80746D01*
X178662Y-81741D01*
X178048Y-83011D01*
X146206D01*
X139392Y-76198D01*
X138566Y-75645D01*
X137590Y-75451D01*
X80418D01*
X79570Y-74181D01*
X79750Y-73746D01*
Y-72254D01*
X79179Y-70876D01*
X78124Y-69821D01*
X76746Y-69250D01*
X75855D01*
X68802Y-62198D01*
X67976Y-61645D01*
X67000Y-61451D01*
X60883D01*
X59800Y-61000D01*
Y-43000D01*
X45405D01*
X41499Y-39094D01*
X42025Y-37824D01*
X55000D01*
X55370Y-37836D01*
Y-37836D01*
X58584Y-37519D01*
X61674Y-36582D01*
X64522Y-35059D01*
X67019Y-33011D01*
X69068Y-30514D01*
X70590Y-27666D01*
X71527Y-24576D01*
X71844Y-21362D01*
X71819D01*
Y-17080D01*
X71789Y-16930D01*
X72257Y-13378D01*
X73686Y-9927D01*
X75959Y-6965D01*
X78922Y-4692D01*
X82372Y-3262D01*
X84850Y-2936D01*
X86074Y-2825D01*
Y-2825D01*
X86076Y-2824D01*
X214000D01*
Y-2836D01*
D02*
G37*
G36*
X-161327Y-18722D02*
X-165802Y-23198D01*
X-166355Y-24025D01*
X-166549Y-25000D01*
Y-49084D01*
X-167819Y-49252D01*
X-168013Y-48526D01*
X-169198Y-46474D01*
X-170874Y-44798D01*
X-172926Y-43613D01*
X-175215Y-43000D01*
X-177585D01*
X-179874Y-43613D01*
X-181926Y-44798D01*
X-183602Y-46474D01*
X-184181Y-47477D01*
X-185451Y-47137D01*
Y-25056D01*
X-177944Y-17549D01*
X-161813D01*
X-161327Y-18722D01*
D02*
G37*
G36*
X-149013Y-22724D02*
X-149011Y-22819D01*
X-150201Y-24009D01*
X-151057Y-25491D01*
X-151500Y-27144D01*
Y-28856D01*
X-151057Y-30509D01*
X-150201Y-31991D01*
X-148991Y-33201D01*
X-147509Y-34057D01*
X-145856Y-34500D01*
X-144144D01*
X-142491Y-34057D01*
X-141009Y-33201D01*
X-139799Y-31991D01*
X-139383Y-31271D01*
X-137917D01*
X-137501Y-31991D01*
X-136291Y-33201D01*
X-134809Y-34057D01*
X-134346Y-34181D01*
X-134513Y-35451D01*
X-136000D01*
X-136975Y-35645D01*
X-137802Y-36198D01*
X-140802Y-39198D01*
X-141355Y-40024D01*
X-141549Y-41000D01*
Y-49523D01*
X-142819Y-49691D01*
X-143079Y-48719D01*
X-144198Y-46781D01*
X-145781Y-45198D01*
X-147719Y-44079D01*
X-149730Y-43541D01*
Y-52000D01*
Y-60459D01*
X-147719Y-59921D01*
X-145781Y-58802D01*
X-144198Y-57219D01*
X-143079Y-55281D01*
X-142819Y-54309D01*
X-141549Y-54477D01*
Y-73230D01*
X-142819Y-73570D01*
X-143798Y-71874D01*
X-145474Y-70198D01*
X-147526Y-69013D01*
X-149815Y-68400D01*
X-152185D01*
X-154474Y-69013D01*
X-156526Y-70198D01*
X-158202Y-71874D01*
X-159387Y-73926D01*
X-160000Y-76215D01*
Y-78585D01*
X-159387Y-80874D01*
X-158202Y-82926D01*
X-156526Y-84602D01*
X-154474Y-85787D01*
X-152185Y-86400D01*
X-149815D01*
X-147526Y-85787D01*
X-145474Y-84602D01*
X-143798Y-82926D01*
X-142819Y-81230D01*
X-141549Y-81570D01*
Y-85944D01*
X-143051Y-87446D01*
X-143603Y-88273D01*
X-143797Y-89248D01*
Y-100811D01*
X-143853Y-100851D01*
X-143986Y-101068D01*
X-144407Y-101618D01*
X-144587Y-102053D01*
X-144691Y-102223D01*
X-144712Y-102353D01*
X-144738Y-102416D01*
X-144835Y-102523D01*
X-145089Y-103235D01*
X-145087Y-103278D01*
X-145133Y-103630D01*
X-145183Y-103743D01*
X-145190Y-104066D01*
X-145313Y-105000D01*
X-145227Y-105656D01*
X-145234Y-105953D01*
X-145164Y-106133D01*
X-145147Y-106263D01*
X-145165Y-106434D01*
X-145248Y-106501D01*
X-146280Y-107114D01*
X-146281Y-107114D01*
X-150198Y-103198D01*
X-151025Y-102645D01*
X-152000Y-102451D01*
X-154363D01*
X-154366Y-102448D01*
X-154395Y-102245D01*
X-154606Y-101887D01*
X-154717Y-101618D01*
X-154921Y-101352D01*
X-154979Y-101254D01*
X-155020Y-101223D01*
X-155156Y-101046D01*
X-155178Y-100984D01*
X-155335Y-100813D01*
X-155792Y-100217D01*
X-156224Y-99885D01*
X-156499Y-99610D01*
X-156655Y-99545D01*
X-156749Y-99405D01*
X-157395Y-98977D01*
X-157618Y-98934D01*
X-157791Y-98786D01*
X-158974Y-98401D01*
X-159223Y-98421D01*
X-159452Y-98322D01*
X-159769Y-98448D01*
X-159903Y-98474D01*
X-160181Y-98496D01*
X-160248Y-98497D01*
X-160387Y-98490D01*
X-160537Y-98431D01*
X-161451Y-97770D01*
Y-84000D01*
Y-26056D01*
X-156944Y-21549D01*
X-149366D01*
X-149013Y-22724D01*
D02*
G37*
G36*
X-29230Y-43819D02*
X-30926Y-44798D01*
X-32602Y-46474D01*
X-33787Y-48526D01*
X-34400Y-50815D01*
Y-53185D01*
X-33787Y-55474D01*
X-32602Y-57526D01*
X-30947Y-59181D01*
X-30949Y-59278D01*
X-31302Y-60451D01*
X-45898D01*
X-46238Y-59181D01*
X-45581Y-58802D01*
X-43998Y-57219D01*
X-42879Y-55281D01*
X-42340Y-53270D01*
X-50800D01*
X-59260D01*
X-58721Y-55281D01*
X-57602Y-57219D01*
X-56019Y-58802D01*
X-55362Y-59181D01*
X-55702Y-60451D01*
X-67628D01*
X-67881Y-59181D01*
X-67876Y-59179D01*
X-66821Y-58124D01*
X-66250Y-56746D01*
Y-55254D01*
X-66821Y-53876D01*
X-67876Y-52821D01*
X-69254Y-52250D01*
X-70746D01*
X-70922Y-52323D01*
X-71642Y-51246D01*
X-62944Y-42549D01*
X-53277D01*
X-53109Y-43819D01*
X-54081Y-44079D01*
X-56019Y-45198D01*
X-57602Y-46781D01*
X-58721Y-48719D01*
X-59260Y-50730D01*
X-50800D01*
X-42340D01*
X-42879Y-48719D01*
X-43998Y-46781D01*
X-45581Y-45198D01*
X-47519Y-44079D01*
X-48491Y-43819D01*
X-48323Y-42549D01*
X-29570D01*
X-29230Y-43819D01*
D02*
G37*
G36*
X-166549Y-54916D02*
Y-74484D01*
X-167819Y-74652D01*
X-168013Y-73926D01*
X-169198Y-71874D01*
X-170874Y-70198D01*
X-172926Y-69013D01*
X-175215Y-68400D01*
X-177585D01*
X-179874Y-69013D01*
X-181926Y-70198D01*
X-183602Y-71874D01*
X-184181Y-72877D01*
X-185451Y-72537D01*
Y-56863D01*
X-184181Y-56523D01*
X-183602Y-57526D01*
X-181926Y-59202D01*
X-179874Y-60387D01*
X-177585Y-61000D01*
X-175215D01*
X-172926Y-60387D01*
X-170874Y-59202D01*
X-169198Y-57526D01*
X-168013Y-55474D01*
X-167819Y-54748D01*
X-166549Y-54916D01*
D02*
G37*
G36*
X41800Y-46605D02*
Y-61000D01*
X40717Y-61451D01*
X29570D01*
X29230Y-60181D01*
X30926Y-59202D01*
X32602Y-57526D01*
X33787Y-55474D01*
X34400Y-53185D01*
Y-50815D01*
X33787Y-48526D01*
X32602Y-46474D01*
X30926Y-44798D01*
X29230Y-43819D01*
X29570Y-42549D01*
X37744D01*
X41800Y-46605D01*
D02*
G37*
G36*
X8770Y-80408D02*
X8795Y-80391D01*
X10337Y-80413D01*
X11329Y-81076D01*
X12500Y-81309D01*
X13671Y-81076D01*
X14073Y-80807D01*
X15000Y-80518D01*
X15927Y-80807D01*
X16329Y-81076D01*
X17500Y-81309D01*
X18671Y-81076D01*
X19073Y-80807D01*
X20000Y-80518D01*
X20927Y-80807D01*
X21330Y-81076D01*
X22500Y-81309D01*
X23670Y-81076D01*
X24073Y-80807D01*
X25000Y-80518D01*
X25927Y-80807D01*
X26330Y-81076D01*
X27500Y-81309D01*
X27639Y-81281D01*
X28719Y-82361D01*
X28691Y-82500D01*
X28924Y-83671D01*
X29587Y-84663D01*
Y-85337D01*
X28924Y-86329D01*
X28691Y-87500D01*
X28924Y-88671D01*
X29587Y-89663D01*
Y-90337D01*
X28924Y-91329D01*
X28691Y-92500D01*
X28924Y-93671D01*
X29587Y-94663D01*
Y-95337D01*
X28924Y-96329D01*
X28691Y-97500D01*
X28924Y-98671D01*
X29587Y-99663D01*
Y-100337D01*
X28924Y-101329D01*
X28691Y-102500D01*
X28924Y-103671D01*
X29587Y-104663D01*
Y-105337D01*
X28924Y-106329D01*
X28691Y-107500D01*
X28924Y-108671D01*
X29587Y-109663D01*
X29609Y-111205D01*
X29592Y-111230D01*
X34500D01*
Y-113770D01*
X29592D01*
X29609Y-113795D01*
X29587Y-115337D01*
X28924Y-116329D01*
X28691Y-117500D01*
X28924Y-118671D01*
X29587Y-119663D01*
Y-120337D01*
X28924Y-121329D01*
X28691Y-122500D01*
X28924Y-123671D01*
X29587Y-124663D01*
Y-125337D01*
X28924Y-126329D01*
X28691Y-127500D01*
X28924Y-128671D01*
X29587Y-129663D01*
Y-130337D01*
X28924Y-131329D01*
X28691Y-132500D01*
X28924Y-133671D01*
X29587Y-134663D01*
Y-135337D01*
X28924Y-136329D01*
X28691Y-137500D01*
X28719Y-137639D01*
X27639Y-138719D01*
X27500Y-138691D01*
X26330Y-138924D01*
X25337Y-139587D01*
X23795Y-139609D01*
X23770Y-139592D01*
Y-144500D01*
Y-149408D01*
X23795Y-149391D01*
X25337Y-149413D01*
X26330Y-150076D01*
X27500Y-150309D01*
X28670Y-150076D01*
X29663Y-149413D01*
X30326Y-148421D01*
X30497Y-147559D01*
X38264D01*
X39594Y-147823D01*
X48000D01*
X48369Y-147750D01*
X48746D01*
X49094Y-147606D01*
X49463Y-147532D01*
X49776Y-147323D01*
X50124Y-147179D01*
X50390Y-146913D01*
X50704Y-146704D01*
X50913Y-146390D01*
X51179Y-146124D01*
X51323Y-145776D01*
X51532Y-145463D01*
X51606Y-145094D01*
X51750Y-144746D01*
Y-144369D01*
X51766Y-144287D01*
X52459Y-143858D01*
X52590Y-143797D01*
X53053Y-143674D01*
X54254Y-144172D01*
X54451D01*
Y-166000D01*
X54645Y-166975D01*
X55198Y-167802D01*
X79198Y-191802D01*
X78818Y-192946D01*
X78771Y-193011D01*
Y-198500D01*
Y-203500D01*
X79501D01*
Y-204000D01*
X79952D01*
Y-207501D01*
X80146Y-208476D01*
X80698Y-209303D01*
X82673Y-211278D01*
X82187Y-212451D01*
X54000D01*
X53025Y-212645D01*
X52198Y-213198D01*
X49944Y-215451D01*
X38056D01*
X34802Y-212198D01*
X33976Y-211645D01*
X33000Y-211451D01*
X13000D01*
X12025Y-211645D01*
X11198Y-212198D01*
X9944Y-213451D01*
X5649D01*
X5123Y-212181D01*
X5680Y-211624D01*
X6251Y-210246D01*
Y-209587D01*
X6755Y-209250D01*
X8247D01*
X9625Y-208679D01*
X10680Y-207624D01*
X11251Y-206246D01*
Y-204754D01*
X11755Y-204000D01*
X20501D01*
Y-202873D01*
X21557Y-202168D01*
X21755Y-202250D01*
X23247D01*
X24625Y-201679D01*
X25680Y-200624D01*
X26251Y-199246D01*
Y-197754D01*
X25680Y-196376D01*
X24625Y-195321D01*
X23247Y-194750D01*
X21755D01*
X21557Y-194832D01*
X20501Y-194126D01*
Y-193000D01*
X15050D01*
Y-191501D01*
X14856Y-190525D01*
X14303Y-189698D01*
X4549Y-179944D01*
Y-178418D01*
X5819Y-177570D01*
X6254Y-177750D01*
X7746D01*
X9124Y-177179D01*
X10092Y-176211D01*
X12357D01*
X12357Y-176211D01*
X13371Y-176009D01*
X14231Y-175434D01*
X16980Y-172686D01*
X18250Y-173212D01*
Y-173746D01*
X18821Y-175124D01*
X19876Y-176179D01*
X21254Y-176750D01*
X22746D01*
X24124Y-176179D01*
X25179Y-175124D01*
X25750Y-173746D01*
Y-172254D01*
X25625Y-171952D01*
X26626Y-171049D01*
X27955Y-171600D01*
X29845D01*
X31591Y-170877D01*
X32927Y-169541D01*
X33650Y-167795D01*
Y-165905D01*
X32927Y-164159D01*
X31591Y-162823D01*
X29845Y-162100D01*
X27955D01*
X26209Y-162823D01*
X25410Y-163622D01*
X24140Y-163097D01*
Y-161900D01*
X23640D01*
Y-160270D01*
X21540D01*
Y-159000D01*
X20270D01*
Y-155900D01*
X20191D01*
Y-150241D01*
X21230Y-149686D01*
Y-144500D01*
Y-139592D01*
X21205Y-139609D01*
X19663Y-139587D01*
X18671Y-138924D01*
X17500Y-138691D01*
X16329Y-138924D01*
X15927Y-139193D01*
X15000Y-139482D01*
X14073Y-139193D01*
X13671Y-138924D01*
X12500Y-138691D01*
X11329Y-138924D01*
X10927Y-139193D01*
X10000Y-139482D01*
X9073Y-139193D01*
X8670Y-138924D01*
X7500Y-138691D01*
X6330Y-138924D01*
X5927Y-139193D01*
X5000Y-139482D01*
X4073Y-139193D01*
X3670Y-138924D01*
X2500Y-138691D01*
X1329Y-138924D01*
X927Y-139193D01*
X0Y-139482D01*
X-927Y-139193D01*
X-1329Y-138924D01*
X-2500Y-138691D01*
X-3670Y-138924D01*
X-4073Y-139193D01*
X-5000Y-139482D01*
X-5927Y-139193D01*
X-6330Y-138924D01*
X-7500Y-138691D01*
X-8670Y-138924D01*
X-9073Y-139193D01*
X-10000Y-139482D01*
X-10927Y-139193D01*
X-11329Y-138924D01*
X-12500Y-138691D01*
X-13671Y-138924D01*
X-14073Y-139193D01*
X-15000Y-139482D01*
X-15927Y-139193D01*
X-16329Y-138924D01*
X-17500Y-138691D01*
X-18671Y-138924D01*
X-19073Y-139193D01*
X-20000Y-139482D01*
X-20927Y-139193D01*
X-21330Y-138924D01*
X-22500Y-138691D01*
X-23670Y-138924D01*
X-24073Y-139193D01*
X-25000Y-139482D01*
X-25927Y-139193D01*
X-26330Y-138924D01*
X-27500Y-138691D01*
X-27639Y-138719D01*
X-28719Y-137639D01*
X-28691Y-137500D01*
X-28924Y-136329D01*
X-29587Y-135337D01*
Y-134663D01*
X-28924Y-133671D01*
X-28691Y-132500D01*
X-28924Y-131329D01*
X-29587Y-130337D01*
Y-129663D01*
X-28924Y-128671D01*
X-28691Y-127500D01*
X-28924Y-126329D01*
X-29587Y-125337D01*
Y-124663D01*
X-28924Y-123671D01*
X-28691Y-122500D01*
X-28924Y-121329D01*
X-29587Y-120337D01*
Y-119663D01*
X-28924Y-118671D01*
X-28691Y-117500D01*
X-28924Y-116329D01*
X-29587Y-115337D01*
Y-114663D01*
X-28924Y-113671D01*
X-28691Y-112500D01*
X-28924Y-111329D01*
X-29587Y-110337D01*
X-29609Y-108795D01*
X-29592Y-108770D01*
X-34500D01*
X-39515D01*
X-40146Y-109951D01*
X-80500D01*
X-81475Y-110145D01*
X-82302Y-110698D01*
X-87278Y-115673D01*
X-88451Y-115187D01*
Y-106056D01*
X-81271Y-98875D01*
X-70518D01*
X-69300Y-99000D01*
X-69300Y-100145D01*
Y-101730D01*
X-65800D01*
X-62300D01*
X-62300Y-99777D01*
X-61030Y-99198D01*
X-60200Y-99733D01*
Y-107500D01*
X-52200D01*
Y-106823D01*
X-43000D01*
X-42631Y-106750D01*
X-42254D01*
X-41906Y-106606D01*
X-41537Y-106532D01*
X-41224Y-106323D01*
X-40876Y-106179D01*
X-40697Y-106000D01*
X-40320Y-106181D01*
X-40268Y-106230D01*
X-34500D01*
X-29592D01*
X-29609Y-106205D01*
X-29587Y-104663D01*
X-28924Y-103671D01*
X-28691Y-102500D01*
X-28924Y-101329D01*
X-29587Y-100337D01*
Y-99663D01*
X-28924Y-98671D01*
X-28691Y-97500D01*
X-28924Y-96329D01*
X-29587Y-95337D01*
Y-94663D01*
X-28924Y-93671D01*
X-28691Y-92500D01*
X-28924Y-91329D01*
X-29587Y-90337D01*
Y-89663D01*
X-28924Y-88671D01*
X-28691Y-87500D01*
X-28924Y-86329D01*
X-29587Y-85337D01*
Y-84663D01*
X-28924Y-83671D01*
X-28691Y-82500D01*
X-28719Y-82361D01*
X-27639Y-81281D01*
X-27500Y-81309D01*
X-26330Y-81076D01*
X-25927Y-80807D01*
X-25000Y-80518D01*
X-24073Y-80807D01*
X-23670Y-81076D01*
X-22500Y-81309D01*
X-21330Y-81076D01*
X-20927Y-80807D01*
X-20000Y-80518D01*
X-19073Y-80807D01*
X-18671Y-81076D01*
X-17500Y-81309D01*
X-16329Y-81076D01*
X-15927Y-80807D01*
X-15000Y-80518D01*
X-14073Y-80807D01*
X-13671Y-81076D01*
X-12500Y-81309D01*
X-11329Y-81076D01*
X-10927Y-80807D01*
X-10000Y-80518D01*
X-9073Y-80807D01*
X-8670Y-81076D01*
X-7500Y-81309D01*
X-6330Y-81076D01*
X-5927Y-80807D01*
X-5000Y-80518D01*
X-4073Y-80807D01*
X-3670Y-81076D01*
X-2500Y-81309D01*
X-1329Y-81076D01*
X-927Y-80807D01*
X0Y-80518D01*
X927Y-80807D01*
X1329Y-81076D01*
X2500Y-81309D01*
X3670Y-81076D01*
X4663Y-80413D01*
X6205Y-80391D01*
X6230Y-80408D01*
Y-75500D01*
X8770D01*
Y-80408D01*
D02*
G37*
G36*
X-38122Y-74819D02*
X-38179Y-74876D01*
X-38750Y-76254D01*
Y-77746D01*
X-38482Y-78391D01*
X-38433Y-79411D01*
X-39023Y-80077D01*
X-39413Y-80337D01*
X-40076Y-81329D01*
X-40309Y-82500D01*
X-40076Y-83671D01*
X-40069Y-83681D01*
X-40748Y-84951D01*
X-42790D01*
X-42821Y-84876D01*
X-43876Y-83821D01*
X-45254Y-83250D01*
X-46746D01*
X-48124Y-83821D01*
X-49179Y-84876D01*
X-49750Y-86254D01*
Y-87746D01*
X-49363Y-88681D01*
X-50012Y-89951D01*
X-84687D01*
X-85173Y-88778D01*
X-69944Y-73549D01*
X-38648D01*
X-38122Y-74819D01*
D02*
G37*
G36*
X-135417Y-100330D02*
X-134771Y-100758D01*
X-134035Y-101495D01*
X-133501Y-102079D01*
X-132917Y-103070D01*
X-132638Y-104009D01*
X-132689Y-106219D01*
X-132943Y-106930D01*
X-133781Y-108302D01*
X-134619Y-109115D01*
X-135537Y-109690D01*
X-136549Y-110004D01*
X-137057Y-109826D01*
X-137357Y-109300D01*
Y-100680D01*
X-136600Y-99945D01*
X-135417Y-100330D01*
D02*
G37*
G36*
X-158292D02*
X-157647Y-100758D01*
X-156911Y-101495D01*
X-156377Y-102079D01*
X-155793Y-103070D01*
X-155514Y-104009D01*
X-155564Y-106219D01*
X-155818Y-106930D01*
X-156657Y-108302D01*
X-157495Y-109115D01*
X-158412Y-109690D01*
X-159425Y-110004D01*
X-159933Y-109826D01*
X-160232Y-109300D01*
Y-100680D01*
X-159476Y-99945D01*
X-158292Y-100330D01*
D02*
G37*
G36*
X-139191Y-100174D02*
X-138892Y-100700D01*
Y-109320D01*
X-139648Y-110055D01*
X-140832Y-109670D01*
X-141477Y-109242D01*
X-142214Y-108505D01*
X-142747Y-107921D01*
X-143331Y-106930D01*
X-143611Y-105991D01*
X-143560Y-103781D01*
X-143306Y-103070D01*
X-142468Y-101698D01*
X-141629Y-100885D01*
X-140712Y-100310D01*
X-139699Y-99996D01*
X-139191Y-100174D01*
D02*
G37*
G36*
X-162067D02*
X-161768Y-100700D01*
Y-109320D01*
X-162524Y-110055D01*
X-163708Y-109670D01*
X-164353Y-109242D01*
X-165089Y-108505D01*
X-165623Y-107921D01*
X-166207Y-106930D01*
X-166486Y-105991D01*
X-166436Y-103781D01*
X-166182Y-103070D01*
X-165343Y-101698D01*
X-164505Y-100885D01*
X-163588Y-100310D01*
X-162575Y-99996D01*
X-162067Y-100174D01*
D02*
G37*
G36*
X141198Y-91802D02*
X142024Y-92355D01*
X143000Y-92549D01*
X178944D01*
X182451Y-96056D01*
Y-106270D01*
X181181Y-106437D01*
X180721Y-104719D01*
X179602Y-102781D01*
X178019Y-101198D01*
X176081Y-100079D01*
X174070Y-99541D01*
Y-108000D01*
Y-116460D01*
X176081Y-115921D01*
X178019Y-114802D01*
X179602Y-113219D01*
X180721Y-111281D01*
X181181Y-109563D01*
X182451Y-109730D01*
Y-134944D01*
X182145Y-135250D01*
X181254D01*
X179876Y-135821D01*
X179819Y-135878D01*
X178549Y-135352D01*
Y-126000D01*
X178355Y-125024D01*
X177802Y-124198D01*
X172802Y-119198D01*
X171975Y-118645D01*
X171000Y-118451D01*
X78500D01*
Y-114270D01*
X73500D01*
X68500D01*
Y-118451D01*
X64000D01*
Y-106750D01*
X53000D01*
Y-108736D01*
X51827Y-109222D01*
X48382Y-105777D01*
X48302Y-105618D01*
Y-104382D01*
X48382Y-104223D01*
X51730Y-100875D01*
X53000Y-101336D01*
Y-104250D01*
X64000D01*
Y-92549D01*
X68500D01*
Y-96730D01*
X73500D01*
X78500D01*
Y-92549D01*
X106144D01*
X115434Y-101839D01*
X114798Y-102474D01*
X113613Y-104526D01*
X113000Y-106815D01*
Y-109185D01*
X113613Y-111474D01*
X114798Y-113526D01*
X116474Y-115202D01*
X118526Y-116387D01*
X120815Y-117000D01*
X123185D01*
X125474Y-116387D01*
X127526Y-115202D01*
X129202Y-113526D01*
X130387Y-111474D01*
X131000Y-109185D01*
Y-106815D01*
X130387Y-104526D01*
X129202Y-102474D01*
X127526Y-100798D01*
X125474Y-99613D01*
X123185Y-99000D01*
X120815D01*
X120018Y-99213D01*
X110527Y-89722D01*
X111013Y-88549D01*
X127544D01*
X140834Y-101839D01*
X140198Y-102474D01*
X139013Y-104526D01*
X138400Y-106815D01*
Y-109185D01*
X139013Y-111474D01*
X140198Y-113526D01*
X141874Y-115202D01*
X143926Y-116387D01*
X146215Y-117000D01*
X148585D01*
X150874Y-116387D01*
X152926Y-115202D01*
X154602Y-113526D01*
X155787Y-111474D01*
X156400Y-109185D01*
Y-106815D01*
X155787Y-104526D01*
X154602Y-102474D01*
X152926Y-100798D01*
X150874Y-99613D01*
X148585Y-99000D01*
X146215D01*
X145418Y-99213D01*
X131927Y-85722D01*
X132413Y-84549D01*
X133944D01*
X141198Y-91802D01*
D02*
G37*
G36*
X-52363Y-116319D02*
X-52750Y-117254D01*
Y-118746D01*
X-52179Y-120124D01*
X-51124Y-121179D01*
X-49746Y-121750D01*
X-48920D01*
X-48750Y-122004D01*
Y-123496D01*
X-49254Y-124250D01*
X-49746D01*
X-51124Y-124821D01*
X-52179Y-125876D01*
X-52750Y-127254D01*
Y-128746D01*
X-52179Y-130124D01*
X-51124Y-131179D01*
X-49746Y-131750D01*
X-48971D01*
X-48565Y-132185D01*
X-48145Y-132970D01*
X-48377Y-133748D01*
X-48763Y-133941D01*
X-49437D01*
X-50816Y-134512D01*
X-51870Y-135567D01*
X-52211Y-136389D01*
X-53615Y-136781D01*
X-72985Y-117410D01*
X-73262Y-117225D01*
X-73637Y-116319D01*
X-72988Y-115049D01*
X-53012D01*
X-52363Y-116319D01*
D02*
G37*
G36*
X-69549Y-161056D02*
Y-173187D01*
X-70722Y-173673D01*
X-74198Y-170198D01*
X-75024Y-169645D01*
X-76000Y-169451D01*
X-78246D01*
X-78876Y-168821D01*
X-80254Y-168250D01*
X-81746D01*
X-83124Y-168821D01*
X-83181Y-168878D01*
X-84451Y-168352D01*
Y-156908D01*
X-83181Y-156382D01*
X-83080Y-156483D01*
X-81702Y-157053D01*
X-80210D01*
X-78832Y-156483D01*
X-78110Y-155761D01*
X-74844D01*
X-69549Y-161056D01*
D02*
G37*
G36*
X-30802Y-154802D02*
X-29975Y-155355D01*
X-29000Y-155549D01*
X-24000D01*
X-23024Y-155355D01*
X-22819Y-155218D01*
X-21549Y-155896D01*
Y-169944D01*
X-24056Y-172451D01*
X-26691D01*
X-26944Y-171181D01*
X-26209Y-170877D01*
X-24873Y-169541D01*
X-24150Y-167795D01*
Y-165905D01*
X-24873Y-164159D01*
X-26209Y-162823D01*
X-27955Y-162100D01*
X-29845D01*
X-31591Y-162823D01*
X-32927Y-164159D01*
X-33650Y-165905D01*
Y-167795D01*
X-32927Y-169541D01*
X-31591Y-170877D01*
X-30856Y-171181D01*
X-31109Y-172451D01*
X-33000D01*
X-33976Y-172645D01*
X-34802Y-173198D01*
X-37056Y-175451D01*
X-51773D01*
X-52451Y-174773D01*
Y-152000D01*
X-52645Y-151025D01*
X-52782Y-150819D01*
X-52104Y-149549D01*
X-45933D01*
X-45755Y-150071D01*
X-45722Y-150819D01*
X-47526Y-152024D01*
X-48852Y-154009D01*
X-49317Y-156350D01*
Y-160580D01*
X-43200D01*
X-37083D01*
Y-156350D01*
X-37548Y-154009D01*
X-38874Y-152024D01*
X-40678Y-150819D01*
X-40645Y-150071D01*
X-40467Y-149549D01*
X-36056D01*
X-30802Y-154802D01*
D02*
G37*
G36*
X178633Y-151330D02*
X178250Y-152254D01*
Y-153746D01*
X178821Y-155124D01*
X179451Y-155754D01*
Y-180944D01*
X178944Y-181451D01*
X170950D01*
X170424Y-180181D01*
X172802Y-177802D01*
X173355Y-176975D01*
X173549Y-176000D01*
Y-153056D01*
X175855Y-150750D01*
X176746D01*
X177670Y-150367D01*
X178633Y-151330D01*
D02*
G37*
G36*
X139622Y-131574D02*
X139909Y-131901D01*
X140412Y-132819D01*
X140394Y-132906D01*
X140250Y-133254D01*
Y-133631D01*
X140177Y-134000D01*
X140250Y-134369D01*
Y-134746D01*
X140394Y-135094D01*
X140468Y-135463D01*
X140677Y-135776D01*
X140821Y-136124D01*
X141087Y-136390D01*
X141296Y-136704D01*
X141610Y-136913D01*
X141876Y-137179D01*
X142224Y-137323D01*
X142537Y-137532D01*
X142906Y-137606D01*
X143254Y-137750D01*
X143631D01*
X144000Y-137823D01*
X160000D01*
X160369Y-137750D01*
X160746D01*
X161094Y-137606D01*
X161463Y-137532D01*
X161776Y-137323D01*
X162124Y-137179D01*
X162390Y-136913D01*
X162704Y-136704D01*
X162913Y-136390D01*
X163179Y-136124D01*
X163323Y-135776D01*
X163532Y-135463D01*
X163606Y-135094D01*
X163631Y-135032D01*
X164026Y-134775D01*
X164463Y-134622D01*
X165020Y-134525D01*
X165546Y-134877D01*
X166522Y-135071D01*
X167799D01*
X167821Y-135124D01*
X168876Y-136179D01*
X170254Y-136750D01*
X171746D01*
X172181Y-136570D01*
X173451Y-137418D01*
Y-140000D01*
X173645Y-140975D01*
X174198Y-141802D01*
X174559Y-142163D01*
X174261Y-143661D01*
X173876Y-143821D01*
X172821Y-144876D01*
X172250Y-146254D01*
Y-147145D01*
X169198Y-150198D01*
X168645Y-151025D01*
X168451Y-152000D01*
Y-174944D01*
X160699Y-182697D01*
X160146Y-183524D01*
X159952Y-184499D01*
Y-193000D01*
X154501D01*
Y-204000D01*
X154952D01*
Y-209443D01*
X153944Y-210451D01*
X109779D01*
X109572Y-209952D01*
X109384Y-209181D01*
X109856Y-208475D01*
X110050Y-207499D01*
Y-204000D01*
X110501D01*
Y-203500D01*
X111231D01*
Y-198500D01*
Y-193500D01*
X110501D01*
Y-193000D01*
X110050D01*
Y-142750D01*
X110746D01*
X112124Y-142179D01*
X113179Y-141124D01*
X113750Y-139746D01*
Y-138254D01*
X113179Y-136876D01*
X112124Y-135821D01*
X110746Y-135250D01*
X109254D01*
X107876Y-135821D01*
X106821Y-136876D01*
X106250Y-138254D01*
Y-139145D01*
X105698Y-139697D01*
X105146Y-140524D01*
X104952Y-141499D01*
Y-187601D01*
X103682Y-188127D01*
X99566Y-184012D01*
X98739Y-183459D01*
X97764Y-183265D01*
X83870D01*
X63549Y-162944D01*
Y-137754D01*
X64179Y-137124D01*
X64750Y-135746D01*
Y-134254D01*
X64179Y-132876D01*
X64122Y-132819D01*
X64648Y-131549D01*
X139582D01*
X139622Y-131574D01*
D02*
G37*
G36*
X-19999Y-197230D02*
X-17499D01*
Y-198500D01*
X-16229D01*
Y-204463D01*
X-16167Y-204556D01*
X-16249Y-204754D01*
Y-206246D01*
X-15678Y-207624D01*
X-14623Y-208679D01*
X-13245Y-209250D01*
X-11753D01*
X-11189Y-210391D01*
X-10678Y-211624D01*
X-10121Y-212181D01*
X-10647Y-213451D01*
X-16944D01*
X-19198Y-211198D01*
X-20024Y-210645D01*
X-21000Y-210451D01*
X-28000D01*
X-28976Y-210645D01*
X-29181Y-210782D01*
X-30451Y-210104D01*
Y-200056D01*
X-23944Y-193549D01*
X-19999D01*
Y-197230D01*
D02*
G37*
%LPC*%
G36*
X151500Y-21500D02*
X138500D01*
Y-23296D01*
X138360Y-23396D01*
X137230Y-23738D01*
X136291Y-22799D01*
X134809Y-21943D01*
X133156Y-21500D01*
X131444D01*
X129791Y-21943D01*
X128309Y-22799D01*
X127099Y-24009D01*
X126683Y-24729D01*
X125217D01*
X124801Y-24009D01*
X123591Y-22799D01*
X122109Y-21943D01*
X120456Y-21500D01*
X118744D01*
X117091Y-21943D01*
X115609Y-22799D01*
X114399Y-24009D01*
X113983Y-24729D01*
X112517D01*
X112101Y-24009D01*
X110891Y-22799D01*
X109409Y-21943D01*
X107756Y-21500D01*
X106044D01*
X104391Y-21943D01*
X102909Y-22799D01*
X101699Y-24009D01*
X101283Y-24729D01*
X99817D01*
X99401Y-24009D01*
X98191Y-22799D01*
X96709Y-21943D01*
X95056Y-21500D01*
X93344D01*
X91691Y-21943D01*
X90209Y-22799D01*
X88999Y-24009D01*
X88252Y-25303D01*
X87568Y-25406D01*
X86878Y-25305D01*
X86587Y-24601D01*
X84899Y-22913D01*
X82770Y-22032D01*
Y-28000D01*
Y-33968D01*
X84899Y-33087D01*
X86587Y-31399D01*
X86878Y-30695D01*
X87568Y-30594D01*
X88252Y-30697D01*
X88999Y-31991D01*
X90209Y-33201D01*
X91691Y-34057D01*
X93344Y-34500D01*
X95056D01*
X96709Y-34057D01*
X98191Y-33201D01*
X99401Y-31991D01*
X99817Y-31271D01*
X101283D01*
X101699Y-31991D01*
X102909Y-33201D01*
X104391Y-34057D01*
X106044Y-34500D01*
X107756D01*
X109409Y-34057D01*
X110891Y-33201D01*
X112101Y-31991D01*
X112517Y-31271D01*
X113983D01*
X114399Y-31991D01*
X115609Y-33201D01*
X117091Y-34057D01*
X118744Y-34500D01*
X120456D01*
X122109Y-34057D01*
X123591Y-33201D01*
X124801Y-31991D01*
X125217Y-31271D01*
X126683D01*
X127099Y-31991D01*
X128309Y-33201D01*
X129791Y-34057D01*
X131444Y-34500D01*
X133156D01*
X134809Y-34057D01*
X136291Y-33201D01*
X137230Y-32262D01*
X138360Y-32604D01*
X138500Y-32704D01*
Y-34500D01*
X151500D01*
Y-21500D01*
D02*
G37*
G36*
X-75500Y-22000D02*
X-80230D01*
Y-26730D01*
X-75500D01*
Y-22000D01*
D02*
G37*
G36*
X80230Y-22032D02*
X78101Y-22913D01*
X76413Y-24601D01*
X75532Y-26730D01*
X80230D01*
Y-22032D01*
D02*
G37*
G36*
X-206223Y-16500D02*
X-206730D01*
Y-28730D01*
X-194500D01*
Y-28223D01*
X-195420Y-24789D01*
X-197197Y-21711D01*
X-199711Y-19197D01*
X-202789Y-17420D01*
X-206223Y-16500D01*
D02*
G37*
G36*
X206730D02*
X206223D01*
X202789Y-17420D01*
X199711Y-19197D01*
X197197Y-21711D01*
X195420Y-24789D01*
X194500Y-28223D01*
Y-28730D01*
X206730D01*
Y-16500D01*
D02*
G37*
G36*
X80230Y-29270D02*
X75532D01*
X76413Y-31399D01*
X78101Y-33087D01*
X80230Y-33968D01*
Y-29270D01*
D02*
G37*
G36*
X-75500Y-29270D02*
X-80230D01*
Y-34000D01*
X-75500D01*
Y-29270D01*
D02*
G37*
G36*
X206730Y-31270D02*
X194500D01*
Y-31777D01*
X195420Y-35211D01*
X197197Y-38289D01*
X199711Y-40803D01*
X202789Y-42580D01*
X206223Y-43500D01*
X206730D01*
Y-31270D01*
D02*
G37*
G36*
X-194500Y-31270D02*
X-206730D01*
Y-43500D01*
X-206223D01*
X-202789Y-42580D01*
X-199711Y-40803D01*
X-197197Y-38289D01*
X-195420Y-35211D01*
X-194500Y-31777D01*
Y-31270D01*
D02*
G37*
G36*
X101270Y-43541D02*
Y-50730D01*
X108460D01*
X107921Y-48719D01*
X106802Y-46781D01*
X105219Y-45198D01*
X103281Y-44079D01*
X101270Y-43541D01*
D02*
G37*
G36*
X98730D02*
X96719Y-44079D01*
X94781Y-45198D01*
X93198Y-46781D01*
X92079Y-48719D01*
X91540Y-50730D01*
X98730D01*
Y-43541D01*
D02*
G37*
G36*
X-96635Y-52600D02*
X-96523Y-52767D01*
X-95366Y-53541D01*
X-94403Y-53732D01*
X-94399Y-54643D01*
X-93601Y-54643D01*
X-93597Y-53732D01*
X-93167Y-53646D01*
X-92634Y-53541D01*
X-91477Y-52767D01*
X-91365Y-52600D01*
X-96635Y-52600D01*
D02*
G37*
G36*
X-206684Y-47000D02*
X-206730D01*
Y-55730D01*
X-198000D01*
Y-55683D01*
X-198682Y-53140D01*
X-199998Y-50860D01*
X-201860Y-48998D01*
X-204140Y-47681D01*
X-206684Y-47000D01*
D02*
G37*
G36*
X-209270D02*
X-209317D01*
X-211860Y-47681D01*
X-214140Y-48998D01*
X-216002Y-50860D01*
X-217318Y-53140D01*
X-218000Y-55683D01*
Y-55730D01*
X-209270D01*
Y-47000D01*
D02*
G37*
G36*
X209317D02*
X209270D01*
Y-55730D01*
X218000D01*
Y-55683D01*
X217318Y-53140D01*
X216002Y-50860D01*
X214140Y-48998D01*
X211860Y-47681D01*
X209317Y-47000D01*
D02*
G37*
G36*
X206730D02*
X206684D01*
X204140Y-47681D01*
X201860Y-48998D01*
X199998Y-50860D01*
X198682Y-53140D01*
X198000Y-55683D01*
Y-55730D01*
X206730D01*
Y-47000D01*
D02*
G37*
G36*
X108460Y-53270D02*
X101270D01*
Y-60459D01*
X103281Y-59921D01*
X105219Y-58802D01*
X106802Y-57219D01*
X107921Y-55281D01*
X108460Y-53270D01*
D02*
G37*
G36*
X98730D02*
X91540D01*
X92079Y-55281D01*
X93198Y-57219D01*
X94781Y-58802D01*
X96719Y-59921D01*
X98730Y-60459D01*
Y-53270D01*
D02*
G37*
G36*
X185200Y-43000D02*
X167200D01*
Y-61000D01*
X185200D01*
Y-43000D01*
D02*
G37*
G36*
X-116600D02*
X-134600D01*
Y-61000D01*
X-116600D01*
Y-43000D01*
D02*
G37*
G36*
X218000Y-58270D02*
X209270D01*
Y-67000D01*
X209317D01*
X211860Y-66318D01*
X214140Y-65002D01*
X216002Y-63140D01*
X217318Y-60860D01*
X218000Y-58316D01*
Y-58270D01*
D02*
G37*
G36*
X206730D02*
X198000D01*
Y-58316D01*
X198682Y-60860D01*
X199998Y-63140D01*
X201860Y-65002D01*
X204140Y-66318D01*
X206684Y-67000D01*
X206730D01*
Y-58270D01*
D02*
G37*
G36*
X-198000Y-58270D02*
X-206730D01*
Y-67000D01*
X-206684D01*
X-204140Y-66318D01*
X-201860Y-65002D01*
X-199998Y-63140D01*
X-198682Y-60860D01*
X-198000Y-58316D01*
Y-58270D01*
D02*
G37*
G36*
X-209270D02*
X-218000D01*
Y-58316D01*
X-217318Y-60860D01*
X-216002Y-63140D01*
X-214140Y-65002D01*
X-211860Y-66318D01*
X-209317Y-67000D01*
X-209270D01*
Y-58270D01*
D02*
G37*
G36*
X-206223Y-70500D02*
X-206730D01*
Y-82730D01*
X-194500D01*
Y-82223D01*
X-195420Y-78789D01*
X-197197Y-75711D01*
X-199711Y-73197D01*
X-202789Y-71420D01*
X-206223Y-70500D01*
D02*
G37*
G36*
X206730D02*
X206223D01*
X202789Y-71420D01*
X199711Y-73197D01*
X197197Y-75711D01*
X195420Y-78789D01*
X194500Y-82223D01*
Y-82730D01*
X206730D01*
Y-70500D01*
D02*
G37*
G36*
X-124415Y-68400D02*
X-126785D01*
X-129074Y-69013D01*
X-131126Y-70198D01*
X-132802Y-71874D01*
X-133987Y-73926D01*
X-134600Y-76215D01*
Y-78585D01*
X-133987Y-80874D01*
X-132802Y-82926D01*
X-131126Y-84602D01*
X-129074Y-85787D01*
X-126785Y-86400D01*
X-124415D01*
X-122126Y-85787D01*
X-120074Y-84602D01*
X-118398Y-82926D01*
X-117213Y-80874D01*
X-116600Y-78585D01*
Y-76215D01*
X-117213Y-73926D01*
X-118398Y-71874D01*
X-120074Y-70198D01*
X-122126Y-69013D01*
X-124415Y-68400D01*
D02*
G37*
G36*
X206730Y-85270D02*
X194500D01*
Y-85777D01*
X195420Y-89211D01*
X197197Y-92289D01*
X199711Y-94803D01*
X202789Y-96580D01*
X206223Y-97500D01*
X206730D01*
Y-85270D01*
D02*
G37*
G36*
X-194500Y-85270D02*
X-206730D01*
Y-97500D01*
X-206223D01*
X-202789Y-96580D01*
X-199711Y-94803D01*
X-197197Y-92289D01*
X-195420Y-89211D01*
X-194500Y-85777D01*
Y-85270D01*
D02*
G37*
G36*
X-206684Y-101000D02*
X-206730D01*
Y-109730D01*
X-198000D01*
Y-109684D01*
X-198682Y-107140D01*
X-199998Y-104860D01*
X-201860Y-102998D01*
X-204140Y-101681D01*
X-206684Y-101000D01*
D02*
G37*
G36*
X-209270D02*
X-209317D01*
X-211860Y-101681D01*
X-214140Y-102998D01*
X-216002Y-104860D01*
X-217318Y-107140D01*
X-218000Y-109684D01*
Y-109730D01*
X-209270D01*
Y-101000D01*
D02*
G37*
G36*
X209317D02*
X209270D01*
Y-109730D01*
X218000D01*
Y-109684D01*
X217318Y-107140D01*
X216002Y-104860D01*
X214140Y-102998D01*
X211860Y-101681D01*
X209317Y-101000D01*
D02*
G37*
G36*
X206730D02*
X206684D01*
X204140Y-101681D01*
X201860Y-102998D01*
X199998Y-104860D01*
X198682Y-107140D01*
X198000Y-109684D01*
Y-109730D01*
X206730D01*
Y-101000D01*
D02*
G37*
G36*
X218000Y-112270D02*
X209270D01*
Y-121000D01*
X209317D01*
X211860Y-120318D01*
X214140Y-119002D01*
X216002Y-117140D01*
X217318Y-114860D01*
X218000Y-112317D01*
Y-112270D01*
D02*
G37*
G36*
X206730D02*
X198000D01*
Y-112317D01*
X198682Y-114860D01*
X199998Y-117140D01*
X201860Y-119002D01*
X204140Y-120318D01*
X206684Y-121000D01*
X206730D01*
Y-112270D01*
D02*
G37*
G36*
X-198000Y-112270D02*
X-206730D01*
Y-121000D01*
X-206684D01*
X-204140Y-120318D01*
X-201860Y-119002D01*
X-199998Y-117140D01*
X-198682Y-114860D01*
X-198000Y-112317D01*
Y-112270D01*
D02*
G37*
G36*
X-209270D02*
X-218000D01*
Y-112317D01*
X-217318Y-114860D01*
X-216002Y-117140D01*
X-214140Y-119002D01*
X-211860Y-120318D01*
X-209317Y-121000D01*
X-209270D01*
Y-112270D01*
D02*
G37*
G36*
X-206223Y-124500D02*
X-206730D01*
Y-136730D01*
X-194500D01*
Y-136223D01*
X-195420Y-132789D01*
X-197197Y-129711D01*
X-199711Y-127197D01*
X-202789Y-125420D01*
X-206223Y-124500D01*
D02*
G37*
G36*
X206730D02*
X206223D01*
X202789Y-125420D01*
X199711Y-127197D01*
X197197Y-129711D01*
X195420Y-132789D01*
X194500Y-136223D01*
Y-136730D01*
X206730D01*
Y-124500D01*
D02*
G37*
G36*
Y-139270D02*
X194500D01*
Y-139777D01*
X195420Y-143211D01*
X197197Y-146289D01*
X199711Y-148803D01*
X202789Y-150580D01*
X206223Y-151500D01*
X206730D01*
Y-139270D01*
D02*
G37*
G36*
X-194500Y-139270D02*
X-206730D01*
Y-151500D01*
X-206223D01*
X-202789Y-150580D01*
X-199711Y-148803D01*
X-197197Y-146289D01*
X-195420Y-143211D01*
X-194500Y-139777D01*
Y-139270D01*
D02*
G37*
G36*
X-136254Y-147250D02*
X-137746D01*
X-139124Y-147821D01*
X-140179Y-148876D01*
X-140750Y-150254D01*
Y-151746D01*
X-140179Y-153124D01*
X-139124Y-154179D01*
X-137746Y-154750D01*
X-136855D01*
X-135802Y-155802D01*
X-134976Y-156355D01*
X-134000Y-156549D01*
X-118754D01*
X-118124Y-157179D01*
X-116746Y-157750D01*
X-115254D01*
X-113876Y-157179D01*
X-112821Y-156124D01*
X-112250Y-154746D01*
Y-153254D01*
X-112821Y-151876D01*
X-113876Y-150821D01*
X-115254Y-150250D01*
X-116746D01*
X-118124Y-150821D01*
X-118754Y-151451D01*
X-132944D01*
X-133250Y-151145D01*
Y-150254D01*
X-133821Y-148876D01*
X-134876Y-147821D01*
X-136254Y-147250D01*
D02*
G37*
G36*
X209317Y-155000D02*
X209270D01*
Y-163730D01*
X218000D01*
Y-163683D01*
X217318Y-161140D01*
X216002Y-158860D01*
X214140Y-156998D01*
X211860Y-155681D01*
X209317Y-155000D01*
D02*
G37*
G36*
X-206684D02*
X-206730D01*
Y-163730D01*
X-198000D01*
Y-163683D01*
X-198682Y-161140D01*
X-199998Y-158860D01*
X-201860Y-156998D01*
X-204140Y-155681D01*
X-206684Y-155000D01*
D02*
G37*
G36*
X206730D02*
X206684D01*
X204140Y-155681D01*
X201860Y-156998D01*
X199998Y-158860D01*
X198682Y-161140D01*
X198000Y-163683D01*
Y-163730D01*
X206730D01*
Y-155000D01*
D02*
G37*
G36*
X-209270D02*
X-209317D01*
X-211860Y-155681D01*
X-214140Y-156998D01*
X-216002Y-158860D01*
X-217318Y-161140D01*
X-218000Y-163683D01*
Y-163730D01*
X-209270D01*
Y-155000D01*
D02*
G37*
G36*
X218000Y-166270D02*
X209270D01*
Y-175000D01*
X209317D01*
X211860Y-174319D01*
X214140Y-173002D01*
X216002Y-171140D01*
X217318Y-168860D01*
X218000Y-166317D01*
Y-166270D01*
D02*
G37*
G36*
X206730D02*
X198000D01*
Y-166317D01*
X198682Y-168860D01*
X199998Y-171140D01*
X201860Y-173002D01*
X204140Y-174319D01*
X206684Y-175000D01*
X206730D01*
Y-166270D01*
D02*
G37*
G36*
X-198000D02*
X-206730D01*
Y-175000D01*
X-206684D01*
X-204140Y-174319D01*
X-201860Y-173002D01*
X-199998Y-171140D01*
X-198682Y-168860D01*
X-198000Y-166317D01*
Y-166270D01*
D02*
G37*
G36*
X-209270D02*
X-218000D01*
Y-166317D01*
X-217318Y-168860D01*
X-216002Y-171140D01*
X-214140Y-173002D01*
X-211860Y-174319D01*
X-209317Y-175000D01*
X-209270D01*
Y-166270D01*
D02*
G37*
G36*
X-133552Y-175000D02*
X-133730D01*
Y-184730D01*
X-124000D01*
Y-184552D01*
X-124750Y-181754D01*
X-126198Y-179246D01*
X-128246Y-177198D01*
X-130754Y-175750D01*
X-133552Y-175000D01*
D02*
G37*
G36*
X-136270D02*
X-136448D01*
X-139246Y-175750D01*
X-141754Y-177198D01*
X-143802Y-179246D01*
X-145250Y-181754D01*
X-146000Y-184552D01*
Y-184730D01*
X-136270D01*
Y-175000D01*
D02*
G37*
G36*
X-124000Y-187270D02*
X-133730D01*
Y-197000D01*
X-133552D01*
X-130754Y-196250D01*
X-128246Y-194802D01*
X-126198Y-192754D01*
X-124750Y-190246D01*
X-124000Y-187448D01*
Y-187270D01*
D02*
G37*
G36*
X-136270D02*
X-146000D01*
Y-187448D01*
X-145250Y-190246D01*
X-143802Y-192754D01*
X-141754Y-194802D01*
X-139246Y-196250D01*
X-136448Y-197000D01*
X-136270D01*
Y-187270D01*
D02*
G37*
G36*
X-113769Y-193500D02*
X-114999D01*
Y-197230D01*
X-113769D01*
Y-193500D01*
D02*
G37*
G36*
X-154999D02*
X-156229D01*
Y-197230D01*
X-154999D01*
Y-193500D01*
D02*
G37*
G36*
X-113769Y-199770D02*
X-114999D01*
Y-203500D01*
X-113769D01*
Y-199770D01*
D02*
G37*
G36*
X-154999D02*
X-156229D01*
Y-203500D01*
X-154999D01*
Y-199770D01*
D02*
G37*
G36*
X205501Y-218500D02*
X203771D01*
Y-222230D01*
X205501D01*
Y-218500D01*
D02*
G37*
G36*
X201231D02*
X199501D01*
Y-222230D01*
X201231D01*
Y-218500D01*
D02*
G37*
G36*
X150501D02*
X148771D01*
Y-222230D01*
X150501D01*
Y-218500D01*
D02*
G37*
G36*
X146231D02*
X144501D01*
Y-222230D01*
X146231D01*
Y-218500D01*
D02*
G37*
G36*
X125501D02*
X123771D01*
Y-222230D01*
X125501D01*
Y-218500D01*
D02*
G37*
G36*
X121231D02*
X119501D01*
Y-222230D01*
X121231D01*
Y-218500D01*
D02*
G37*
G36*
X30501D02*
X28771D01*
Y-222230D01*
X30501D01*
Y-218500D01*
D02*
G37*
G36*
X26231D02*
X24501D01*
Y-222230D01*
X26231D01*
Y-218500D01*
D02*
G37*
G36*
X-64499D02*
X-66229D01*
Y-222230D01*
X-64499D01*
Y-218500D01*
D02*
G37*
G36*
X-68769D02*
X-70499D01*
Y-222230D01*
X-68769D01*
Y-218500D01*
D02*
G37*
G36*
X-119499D02*
X-121229D01*
Y-222230D01*
X-119499D01*
Y-218500D01*
D02*
G37*
G36*
X-123769D02*
X-125499D01*
Y-222230D01*
X-123769D01*
Y-218500D01*
D02*
G37*
G36*
X-144499D02*
X-146229D01*
Y-222230D01*
X-144499D01*
Y-218500D01*
D02*
G37*
G36*
X-148769D02*
X-150499D01*
Y-222230D01*
X-148769D01*
Y-218500D01*
D02*
G37*
G36*
X-199499D02*
X-201229D01*
Y-222230D01*
X-199499D01*
Y-218500D01*
D02*
G37*
G36*
X-203769D02*
X-205499D01*
Y-222230D01*
X-203769D01*
Y-218500D01*
D02*
G37*
G36*
X205501Y-224770D02*
X203771D01*
Y-228500D01*
X205501D01*
Y-224770D01*
D02*
G37*
G36*
X201231D02*
X199501D01*
Y-228500D01*
X201231D01*
Y-224770D01*
D02*
G37*
G36*
X150501D02*
X148771D01*
Y-228500D01*
X150501D01*
Y-224770D01*
D02*
G37*
G36*
X146231D02*
X144501D01*
Y-228500D01*
X146231D01*
Y-224770D01*
D02*
G37*
G36*
X125501D02*
X123771D01*
Y-228500D01*
X125501D01*
Y-224770D01*
D02*
G37*
G36*
X121231D02*
X119501D01*
Y-228500D01*
X121231D01*
Y-224770D01*
D02*
G37*
G36*
X70501D02*
X68771D01*
Y-228500D01*
X70501D01*
Y-224770D01*
D02*
G37*
G36*
X66231D02*
X64501D01*
Y-228500D01*
X66231D01*
Y-224770D01*
D02*
G37*
G36*
X30501D02*
X28771D01*
Y-228500D01*
X30501D01*
Y-224770D01*
D02*
G37*
G36*
X26231D02*
X24501D01*
Y-228500D01*
X26231D01*
Y-224770D01*
D02*
G37*
G36*
X-24499D02*
X-26229D01*
Y-228500D01*
X-24499D01*
Y-224770D01*
D02*
G37*
G36*
X-28769D02*
X-30499D01*
Y-228500D01*
X-28769D01*
Y-224770D01*
D02*
G37*
G36*
X-64499D02*
X-66229D01*
Y-228500D01*
X-64499D01*
Y-224770D01*
D02*
G37*
G36*
X-68769D02*
X-70499D01*
Y-228500D01*
X-68769D01*
Y-224770D01*
D02*
G37*
G36*
X-119499D02*
X-121229D01*
Y-228500D01*
X-119499D01*
Y-224770D01*
D02*
G37*
G36*
X-123769D02*
X-125499D01*
Y-228500D01*
X-123769D01*
Y-224770D01*
D02*
G37*
G36*
X-144499D02*
X-146229D01*
Y-228500D01*
X-144499D01*
Y-224770D01*
D02*
G37*
G36*
X-148769D02*
X-150499D01*
Y-228500D01*
X-148769D01*
Y-224770D01*
D02*
G37*
G36*
X-199499D02*
X-201229D01*
Y-228500D01*
X-199499D01*
Y-224770D01*
D02*
G37*
G36*
X-203769D02*
X-205499D01*
Y-228500D01*
X-203769D01*
Y-224770D01*
D02*
G37*
G36*
X-152270Y-43541D02*
X-154281Y-44079D01*
X-156219Y-45198D01*
X-157802Y-46781D01*
X-158921Y-48719D01*
X-159459Y-50730D01*
X-152270D01*
Y-43541D01*
D02*
G37*
G36*
Y-53270D02*
X-159459D01*
X-158921Y-55281D01*
X-157802Y-57219D01*
X-156219Y-58802D01*
X-154281Y-59921D01*
X-152270Y-60459D01*
Y-53270D01*
D02*
G37*
G36*
X-62300Y-104270D02*
X-64530D01*
Y-107000D01*
X-62300D01*
Y-104270D01*
D02*
G37*
G36*
X-67070D02*
X-69300D01*
Y-107000D01*
X-67070D01*
Y-104270D01*
D02*
G37*
G36*
X27250Y-82750D02*
X1270D01*
Y-108730D01*
X27250D01*
Y-82750D01*
D02*
G37*
G36*
X-1270D02*
X-27250D01*
Y-108730D01*
X-1270D01*
Y-82750D01*
D02*
G37*
G36*
X27250Y-111270D02*
X1270D01*
Y-137250D01*
X27250D01*
Y-111270D01*
D02*
G37*
G36*
X-1270D02*
X-27250D01*
Y-137250D01*
X-1270D01*
Y-111270D01*
D02*
G37*
G36*
X23640Y-155900D02*
X22810D01*
Y-157730D01*
X23640D01*
Y-155900D01*
D02*
G37*
G36*
X44470Y-150485D02*
Y-160580D01*
X49317D01*
Y-156350D01*
X48852Y-154009D01*
X47526Y-152024D01*
X45541Y-150698D01*
X44470Y-150485D01*
D02*
G37*
G36*
X41930Y-150485D02*
X40859Y-150698D01*
X38874Y-152024D01*
X37548Y-154009D01*
X37083Y-156350D01*
Y-160580D01*
X41930D01*
Y-150485D01*
D02*
G37*
G36*
X49317Y-163120D02*
X44470D01*
Y-173215D01*
X45541Y-173002D01*
X47526Y-171676D01*
X48852Y-169691D01*
X49317Y-167350D01*
Y-163120D01*
D02*
G37*
G36*
X41930D02*
X37083D01*
Y-167350D01*
X37548Y-169691D01*
X38874Y-171676D01*
X40859Y-173002D01*
X41930Y-173215D01*
Y-163120D01*
D02*
G37*
G36*
X76231Y-193500D02*
X75001D01*
Y-197230D01*
X76231D01*
Y-193500D01*
D02*
G37*
G36*
X44470Y-193785D02*
Y-202380D01*
X49317D01*
Y-199650D01*
X48852Y-197309D01*
X47526Y-195324D01*
X45541Y-193998D01*
X44470Y-193785D01*
D02*
G37*
G36*
X41930Y-193785D02*
X40859Y-193998D01*
X38874Y-195324D01*
X37548Y-197309D01*
X37083Y-199650D01*
Y-202380D01*
X41930D01*
Y-193785D01*
D02*
G37*
G36*
X76231Y-199770D02*
X75001D01*
Y-203500D01*
X76231D01*
Y-199770D01*
D02*
G37*
G36*
X49317Y-204920D02*
X44470D01*
Y-213515D01*
X45541Y-213302D01*
X47526Y-211976D01*
X48852Y-209991D01*
X49317Y-207650D01*
Y-204920D01*
D02*
G37*
G36*
X41930D02*
X37083D01*
Y-207650D01*
X37548Y-209991D01*
X38874Y-211976D01*
X40859Y-213302D01*
X41930Y-213515D01*
Y-204920D01*
D02*
G37*
G36*
X78500Y-99270D02*
X74770D01*
Y-103750D01*
X78500D01*
Y-99270D01*
D02*
G37*
G36*
X72230D02*
X68500D01*
Y-103750D01*
X72230D01*
Y-99270D01*
D02*
G37*
G36*
X171530Y-99541D02*
X169519Y-100079D01*
X167581Y-101198D01*
X165998Y-102781D01*
X164879Y-104719D01*
X164340Y-106730D01*
X171530D01*
Y-99541D01*
D02*
G37*
G36*
X78500Y-107250D02*
X74770D01*
Y-111730D01*
X78500D01*
Y-107250D01*
D02*
G37*
G36*
X72230D02*
X68500D01*
Y-111730D01*
X72230D01*
Y-107250D01*
D02*
G37*
G36*
X171530Y-109270D02*
X164340D01*
X164879Y-111281D01*
X165998Y-113219D01*
X167581Y-114802D01*
X169519Y-115921D01*
X171530Y-116460D01*
Y-109270D01*
D02*
G37*
G36*
X105600Y-99000D02*
X87600D01*
Y-117000D01*
X105600D01*
Y-99000D01*
D02*
G37*
G36*
X-37083Y-163120D02*
X-41930D01*
Y-173215D01*
X-40859Y-173002D01*
X-38874Y-171676D01*
X-37548Y-169691D01*
X-37083Y-167350D01*
Y-163120D01*
D02*
G37*
G36*
X-44470D02*
X-49317D01*
Y-167350D01*
X-48852Y-169691D01*
X-47526Y-171676D01*
X-45541Y-173002D01*
X-44470Y-173215D01*
Y-163120D01*
D02*
G37*
G36*
X136448Y-175000D02*
X136270D01*
Y-184730D01*
X146000D01*
Y-184552D01*
X145250Y-181754D01*
X143802Y-179246D01*
X141754Y-177198D01*
X139246Y-175750D01*
X136448Y-175000D01*
D02*
G37*
G36*
X133730D02*
X133552D01*
X130754Y-175750D01*
X128246Y-177198D01*
X126198Y-179246D01*
X124750Y-181754D01*
X124000Y-184552D01*
Y-184730D01*
X133730D01*
Y-175000D01*
D02*
G37*
G36*
X146000Y-187270D02*
X136270D01*
Y-197000D01*
X136448D01*
X139246Y-196250D01*
X141754Y-194802D01*
X143802Y-192754D01*
X145250Y-190246D01*
X146000Y-187448D01*
Y-187270D01*
D02*
G37*
G36*
X133730D02*
X124000D01*
Y-187448D01*
X124750Y-190246D01*
X126198Y-192754D01*
X128246Y-194802D01*
X130754Y-196250D01*
X133552Y-197000D01*
X133730D01*
Y-187270D01*
D02*
G37*
G36*
X115001Y-193500D02*
X113771D01*
Y-197230D01*
X115001D01*
Y-193500D01*
D02*
G37*
G36*
Y-199770D02*
X113771D01*
Y-203500D01*
X115001D01*
Y-199770D01*
D02*
G37*
G36*
X-18769D02*
X-19999D01*
Y-203500D01*
X-18769D01*
Y-199770D01*
D02*
G37*
%LPD*%
D10*
X107501Y-198500D02*
Y-141499D01*
X110000Y-139000D01*
X107501Y-207499D02*
Y-198500D01*
X108000Y-213000D02*
X155000D01*
X106000Y-215000D02*
X108000Y-213000D01*
X54000Y-215000D02*
X106000D01*
X86000Y-211000D02*
X104000D01*
X82501Y-207501D02*
Y-198500D01*
Y-207501D02*
X86000Y-211000D01*
X104000D02*
X107501Y-207499D01*
X100828Y-207000D02*
X102501Y-205328D01*
X89000Y-207000D02*
X100828D01*
X102501Y-205328D02*
Y-198500D01*
X87501Y-205501D02*
Y-198500D01*
Y-205501D02*
X89000Y-207000D01*
X102501Y-198500D02*
Y-190551D01*
X187501Y-198500D02*
Y-151501D01*
X34500Y-117500D02*
X47500D01*
X51000Y-121000D01*
X171000D01*
X176000Y-140000D02*
X187501Y-151501D01*
X171000Y-121000D02*
X176000Y-126000D01*
Y-140000D02*
Y-126000D01*
X-192499Y-205500D02*
Y-198500D01*
X-22499D02*
X-17499D01*
X-157499Y-205500D02*
Y-198500D01*
X2500Y-75500D02*
Y-67500D01*
X13000Y-57000D01*
Y-44000D01*
X17000Y-40000D01*
X38800D02*
X50800Y-52000D01*
X17000Y-40000D02*
X38800D01*
X172501Y-198500D02*
Y-190176D01*
X173000Y-189676D01*
Y-189000D01*
X17501Y-198500D02*
X22501D01*
X19500Y-64000D02*
X67000D01*
X76000Y-73000D01*
X63522Y-72522D02*
X64000Y-73000D01*
X63522Y-72522D02*
Y-70522D01*
X137590Y-78000D02*
X145150Y-85560D01*
X50000Y-90000D02*
X107200D01*
X122000Y-104800D01*
X46000Y-82000D02*
X135000D01*
X44000Y-78000D02*
X137590D01*
X40557Y-87443D02*
X46000Y-82000D01*
X41500Y-92500D02*
X48000Y-86000D01*
X128600D01*
X147400Y-104800D01*
X39557Y-82443D02*
X44000Y-78000D01*
X42500Y-97500D02*
X50000Y-90000D01*
X135000Y-82000D02*
X143000Y-90000D01*
X61000Y-68000D02*
X63522Y-70522D01*
X17500Y-66000D02*
X19500Y-64000D01*
X42000Y-73000D02*
X57000D01*
X22500Y-75500D02*
X22691Y-75309D01*
X24000Y-68000D02*
X61000D01*
X22691Y-69309D02*
X24000Y-68000D01*
X22691Y-75309D02*
Y-69309D01*
X17500Y-75500D02*
Y-61070D01*
X-12499Y-205500D02*
Y-198500D01*
X-137000Y-151000D02*
X-134000Y-154000D01*
X-116000D01*
X-103342Y-190658D02*
X-102499Y-191501D01*
X-107499Y-198500D02*
Y-192451D01*
X-95000Y-101000D02*
X-86500Y-92500D01*
X-95000Y-186000D02*
X-92499Y-188501D01*
X-99000Y-188000D02*
X-97328Y-189672D01*
X-99000Y-99000D02*
X-71000Y-71000D01*
X-107500Y-95500D02*
X-75000Y-63000D01*
X-103342Y-190658D02*
Y-97342D01*
X-95000Y-186000D02*
Y-101000D01*
X-103342Y-97342D02*
X-73000Y-67000D01*
X-99000Y-188000D02*
Y-99000D01*
X-102499Y-198500D02*
Y-191501D01*
X-107500Y-192450D02*
Y-95500D01*
Y-192450D02*
X-107499Y-192451D01*
X-80865Y-153212D02*
X-73788D01*
X-80956Y-153303D02*
X-80865Y-153212D01*
X-82499Y-198500D02*
Y-185501D01*
X-87000Y-181000D02*
X-82499Y-185501D01*
X-87000Y-181000D02*
Y-119000D01*
X-76522Y-186478D02*
X-74522D01*
X-77000Y-186000D02*
X-76522Y-186478D01*
X-97328Y-198329D02*
Y-189672D01*
X-92499Y-198500D02*
Y-188501D01*
X-87499Y-198500D02*
Y-187501D01*
X-91000Y-184000D02*
Y-105000D01*
X-87000Y-119000D02*
X-80500Y-112500D01*
X-91000Y-105000D02*
X-82326Y-96326D01*
X-91000Y-184000D02*
X-87499Y-187501D01*
X-73788Y-153212D02*
X-67000Y-160000D01*
X-74522Y-186478D02*
X-61000Y-200000D01*
Y-215000D02*
Y-200000D01*
X-76000Y-172000D02*
X-71000Y-177000D01*
X-81000Y-172000D02*
X-76000D01*
X-71000Y-184000D02*
Y-177000D01*
Y-184000D02*
X-57000Y-198000D01*
X-74788Y-119212D02*
X-51000Y-143000D01*
X-75111Y-119212D02*
X-74788D01*
X-77000Y-118000D02*
X-76323D01*
X-75111Y-119212D01*
X-80500Y-112500D02*
X-34500D01*
X-81000Y-123000D02*
X-80522Y-123478D01*
X-76522D01*
X-53000Y-147000D01*
X-35000D01*
X-55000Y-175828D02*
Y-152000D01*
X-81000Y-131000D02*
X-80750Y-131250D01*
X-75750D02*
X-55000Y-152000D01*
X-80750Y-131250D02*
X-75750D01*
X-80750Y-139250D02*
X-74750D01*
X-81000Y-139000D02*
X-80750Y-139250D01*
X-74750D02*
X-59000Y-155000D01*
X-75000Y-146000D02*
X-63000Y-158000D01*
X-81000Y-146000D02*
X-75000D01*
X-97499Y-198500D02*
X-97328Y-198329D01*
X-61000Y-215000D02*
X-55000Y-221000D01*
X-36000D01*
X-67000Y-182000D02*
Y-160000D01*
Y-182000D02*
X-59000Y-190000D01*
X-63000Y-180000D02*
Y-158000D01*
Y-180000D02*
X-57000Y-186000D01*
X-59000Y-178000D02*
X-55000Y-182000D01*
X-59000Y-178000D02*
Y-155000D01*
X-55000Y-175828D02*
X-52828Y-178000D01*
X-57000Y-213000D02*
Y-198000D01*
Y-213000D02*
X-53000Y-217000D01*
X-57000Y-186000D02*
X-32000D01*
X-55000Y-182000D02*
X-34000D01*
X-33000Y-212000D02*
Y-199000D01*
X-38000Y-217000D02*
X-33000Y-212000D01*
X-53000Y-217000D02*
X-38000D01*
X-36000Y-221000D02*
X-28000Y-213000D01*
X-21000D01*
X-18000Y-216000D01*
X11000D01*
X13000Y-214000D01*
X33000D01*
X2501Y-209500D02*
Y-198500D01*
X-7499Y-209500D02*
Y-198500D01*
X-33000Y-199000D02*
X-25000Y-191000D01*
X-59000Y-190000D02*
X-30000D01*
X-32000Y-186000D02*
X-29000Y-183000D01*
X-34000Y-182000D02*
X-31000Y-179000D01*
X-52828Y-178000D02*
X-36000D01*
X-33000Y-175000D01*
X33000Y-214000D02*
X37000Y-218000D01*
X51000D01*
X54000Y-215000D01*
X155000Y-213000D02*
X189000D01*
X155000D02*
X157501Y-210499D01*
Y-198500D01*
X189000Y-213000D02*
X192501Y-209499D01*
Y-198500D01*
X166578Y-125000D02*
X168578Y-127000D01*
X57717Y-125000D02*
X166578D01*
X168578Y-127000D02*
X169000D01*
X166522Y-132522D02*
X170522D01*
X163000Y-129000D02*
X166522Y-132522D01*
X170522D02*
X171000Y-133000D01*
X59000Y-129000D02*
X163000D01*
X50500Y-137500D02*
X59000Y-129000D01*
X50217Y-132500D02*
X57717Y-125000D01*
X-141248Y-101469D02*
Y-89248D01*
Y-105000D02*
Y-101469D01*
X-106900Y-28000D02*
Y-17100D01*
Y-35900D02*
Y-28000D01*
X-141248Y-89248D02*
X-139000Y-87000D01*
X-136000Y-38000D02*
X-109000D01*
X-106900Y-35900D01*
X-139000Y-41000D02*
X-136000Y-38000D01*
X-139000Y-87000D02*
Y-41000D01*
X-164000Y-101377D02*
Y-84000D01*
Y-104876D02*
Y-101377D01*
X-164124Y-105000D02*
X-164000Y-104876D01*
X-133255Y-105000D02*
X-129000D01*
X-135000D02*
X-133255D01*
X-156131D02*
X-152000D01*
X-157876D02*
X-156131D01*
X-152000D02*
X-142000Y-115000D01*
X-133000D01*
X-74000Y-56000D01*
X-129000Y-105000D02*
X-64000Y-40000D01*
X-12000D01*
X-74000Y-56000D02*
X-70000D01*
X-75000Y-63000D02*
X-21000D01*
X-73000Y-67000D02*
X-23672D01*
X57000Y-166000D02*
Y-142422D01*
X55000Y-140422D02*
X57000Y-142422D01*
Y-166000D02*
X81000Y-190000D01*
X61000Y-164000D02*
Y-135000D01*
Y-164000D02*
X82814Y-185814D01*
X97764D01*
X81000Y-190000D02*
X92501D01*
X96329D02*
X97501Y-191172D01*
X97764Y-185814D02*
X102501Y-190551D01*
X92501Y-190000D02*
X96329D01*
X97501Y-198500D02*
Y-191172D01*
X92501Y-198500D02*
Y-190000D01*
X48691Y-127309D02*
X49000Y-127000D01*
X34500Y-137500D02*
X50500D01*
X34500Y-132500D02*
X50217D01*
X34691Y-127309D02*
X48691D01*
X39500Y-75500D02*
X42000Y-73000D01*
X43750Y-122500D02*
X44000Y-122250D01*
X34500Y-122500D02*
X43750D01*
X34500Y-127500D02*
X34691Y-127309D01*
X147400Y-108000D02*
Y-104800D01*
X122000Y-108000D02*
Y-104800D01*
X-33000Y-175000D02*
X-23000D01*
X-29000Y-183000D02*
X-19000D01*
X-31000Y-179000D02*
X-21000D01*
X-14000Y-172000D01*
X-23000Y-175000D02*
X-19000Y-171000D01*
X-12000Y-40000D02*
X0Y-52000D01*
Y-55247D02*
Y-52000D01*
X-71000Y-71000D02*
X-29172D01*
X-21000Y-63000D02*
X-17500Y-66500D01*
Y-75500D02*
Y-66500D01*
X-27000Y-187000D02*
X-17000D01*
X-30000Y-190000D02*
X-27000Y-187000D01*
X-19000Y-183000D02*
X-10000Y-174000D01*
X-17000Y-187000D02*
X-6000Y-176000D01*
X-15000Y-191000D02*
X-2000Y-178000D01*
X-25000Y-191000D02*
X-15000D01*
X-17500Y-153500D02*
Y-144500D01*
X-19000Y-155000D02*
X-17500Y-153500D01*
X-19000Y-171000D02*
Y-155000D01*
X-14000Y-172000D02*
Y-156000D01*
X-12500Y-154500D01*
X-10000Y-158000D02*
X-7500Y-155500D01*
X-6000Y-176000D02*
Y-162000D01*
X-2691Y-158691D01*
X-12500Y-154500D02*
Y-144500D01*
X-10000Y-174000D02*
Y-158000D01*
X-2000Y-178000D02*
Y-164000D01*
X2500Y-159500D01*
X-7500Y-155500D02*
Y-144500D01*
X-2691Y-158691D02*
Y-144691D01*
X2000Y-166000D02*
X7500Y-160500D01*
X2000Y-181000D02*
X12501Y-191501D01*
X2000Y-181000D02*
Y-166000D01*
X2500Y-159500D02*
Y-144500D01*
X7500Y-160500D02*
Y-144500D01*
X-22500Y-151500D02*
Y-144500D01*
X-24000Y-153000D02*
X-22500Y-151500D01*
X-29000Y-153000D02*
X-24000D01*
X-51000Y-143000D02*
X-27962D01*
X-48691Y-137691D02*
X-34691D01*
X-34500Y-137500D01*
X-47824Y-127500D02*
X-34500D01*
X-49000Y-128000D02*
X-48323D01*
X-47824Y-127500D01*
X-27962Y-143000D02*
X-27500Y-143462D01*
Y-144500D02*
Y-143462D01*
X-35000Y-147000D02*
X-29000Y-153000D01*
X-51674Y-96326D02*
X-50500Y-97500D01*
X-82326Y-96326D02*
X-51674D01*
X-50500Y-97500D02*
X-34500D01*
X-86500Y-92500D02*
X-34500D01*
X-34750Y-82250D02*
Y-77250D01*
X-35000Y-77000D02*
X-34750Y-77250D01*
Y-82250D02*
X-34500Y-82500D01*
X-29172Y-71000D02*
X-27500Y-72672D01*
Y-75500D02*
Y-72672D01*
X-22500Y-75500D02*
Y-68172D01*
X-23672Y-67000D02*
X-22500Y-68172D01*
X-12750Y-67000D02*
X-12625Y-67125D01*
Y-75375D02*
X-12500Y-75500D01*
X-12625Y-75375D02*
Y-67125D01*
X-46754Y-117522D02*
X-46732Y-117500D01*
X-34500D01*
X-48522Y-117522D02*
X-46754D01*
X-49000Y-118000D02*
X-48522Y-117522D01*
X-34625Y-122625D02*
X-34500Y-122500D01*
X-44875Y-122625D02*
X-34625D01*
X-45000Y-122750D02*
X-44875Y-122625D01*
X171000Y-152000D02*
X176000Y-147000D01*
X180000Y-90000D02*
X185000Y-95000D01*
X143000Y-90000D02*
X180000D01*
X185000Y-136000D02*
Y-95000D01*
X182000Y-139000D02*
X185000Y-136000D01*
X177501Y-207828D02*
Y-198500D01*
X176329Y-209000D02*
X177501Y-207828D01*
X171000Y-176000D02*
Y-152000D01*
X163672Y-209000D02*
X176329D01*
X34500Y-87500D02*
X34557Y-87443D01*
X40557D01*
X162501Y-184499D02*
X171000Y-176000D01*
X162501Y-207828D02*
X163672Y-209000D01*
X162501Y-207828D02*
Y-198500D01*
Y-184499D01*
X182000Y-182000D02*
Y-153000D01*
X181560Y-85560D02*
X189000Y-93000D01*
Y-140578D02*
Y-93000D01*
X145150Y-85560D02*
X181560D01*
X187000Y-142578D02*
X189000Y-140578D01*
X187000Y-143000D02*
Y-142578D01*
X180000Y-184000D02*
X182501Y-186501D01*
Y-198500D02*
Y-186501D01*
X180000Y-184000D02*
X182000Y-182000D01*
X34500Y-82500D02*
X34557Y-82443D01*
X39557D01*
X167501Y-186499D02*
X170000Y-184000D01*
X180000D01*
X167501Y-198500D02*
Y-186499D01*
X-197828Y-191000D02*
X-192000D01*
X-197500Y-212000D02*
X-181000D01*
X-199000Y-210500D02*
Y-192172D01*
X-181000Y-212000D02*
X-177499Y-208499D01*
X-199000Y-192172D02*
X-197828Y-191000D01*
X-199000Y-210500D02*
X-197500Y-212000D01*
X-109000Y-15000D02*
X-106900Y-17100D01*
X-172499Y-207499D02*
Y-198500D01*
X-177499Y-208499D02*
Y-198500D01*
X-173499Y-208499D02*
X-172499Y-207499D01*
X-179000Y-15000D02*
X-109000D01*
X-188000Y-24000D02*
X-179000Y-15000D01*
X-192000Y-191000D02*
X-188000Y-187000D01*
Y-24000D01*
X-177499Y-208499D02*
X-173499D01*
X7501Y-205500D02*
Y-198500D01*
X12501D02*
Y-191501D01*
X-182499Y-185000D02*
Y-102499D01*
X-164000Y-84000D02*
Y-25000D01*
X-182499Y-102499D02*
X-164000Y-84000D01*
X-182499Y-198500D02*
Y-185000D01*
X-179499Y-188000D02*
X-169000D01*
X-182499Y-185000D02*
X-179499Y-188000D01*
X-132300Y-28000D02*
Y-20172D01*
X-133472Y-19000D02*
X-132300Y-20172D01*
X-158000Y-19000D02*
X-133472D01*
X-164000Y-25000D02*
X-158000Y-19000D01*
X-169000Y-188000D02*
X-167499Y-189501D01*
Y-198500D02*
Y-189501D01*
X-34625Y-132625D02*
X-34500Y-132500D01*
X-43875Y-132625D02*
X-34625D01*
X-2499Y-205500D02*
Y-198500D01*
X27500Y-75500D02*
X39500D01*
X-2691Y-144691D02*
X-2500Y-144500D01*
X46500Y-102500D02*
X51000Y-98000D01*
X58500D01*
X34500Y-102500D02*
X46500D01*
X34500Y-107500D02*
X46500D01*
X52000Y-113000D02*
X58500D01*
X46500Y-107500D02*
X52000Y-113000D01*
X12000Y-68677D02*
Y-68000D01*
X12500Y-75500D02*
Y-69177D01*
X12000Y-68677D02*
X12500Y-69177D01*
X17500Y-61070D02*
X25400Y-53170D01*
X178000Y-72000D02*
X181522Y-75522D01*
Y-79522D02*
Y-75522D01*
Y-79522D02*
X182000Y-80000D01*
X181000Y-67000D02*
X188250Y-74250D01*
Y-83000D02*
Y-74250D01*
X145400Y-72000D02*
X178000D01*
X125400Y-52000D02*
X145400Y-72000D01*
X150800Y-52000D02*
X165800Y-67000D01*
X181000D01*
X-46000Y-87000D02*
X-45594D01*
X-45094Y-87500D02*
X-34500D01*
X-45594Y-87000D02*
X-45094Y-87500D01*
X34500Y-97500D02*
X42500D01*
X34500Y-92500D02*
X41500D01*
X-2500Y-57747D02*
X0Y-55247D01*
X-16715Y-55285D02*
X-7500Y-64500D01*
X-2500Y-75500D02*
Y-57747D01*
X-7500Y-75500D02*
Y-64500D01*
X-18867Y-55285D02*
X-16715D01*
X-25400Y-52000D02*
X-22153D01*
X-18867Y-55285D01*
X25400Y-53170D02*
Y-52000D01*
D11*
X-122000Y-201000D02*
X-119500Y-198500D01*
X-112499D01*
D14*
X157501D02*
D03*
X162501D02*
D03*
X167501D02*
D03*
X172501D02*
D03*
X177501D02*
D03*
X182501D02*
D03*
X187501D02*
D03*
X192501D02*
D03*
X-192499D02*
D03*
X-157499D02*
D03*
X-112499D02*
D03*
X112501D02*
D03*
X77501D02*
D03*
X-17499D02*
D03*
X-77499D02*
D03*
X17501D02*
D03*
X12501D02*
D03*
X7501D02*
D03*
X2501D02*
D03*
X-2499D02*
D03*
X-7499D02*
D03*
X-12499D02*
D03*
X-162499D02*
D03*
X-167499D02*
D03*
X-172499D02*
D03*
X-177499D02*
D03*
X-182499D02*
D03*
X-187499D02*
D03*
X-82499D02*
D03*
X-87499D02*
D03*
X-92499D02*
D03*
X-97499D02*
D03*
X-102499D02*
D03*
X-107499D02*
D03*
X107501D02*
D03*
X102501D02*
D03*
X97501D02*
D03*
X92501D02*
D03*
X87501D02*
D03*
X82501D02*
D03*
D15*
X147501Y-223500D02*
D03*
X202501D02*
D03*
X-202499D02*
D03*
X-147499D02*
D03*
X-122499D02*
D03*
X-67499D02*
D03*
X67501D02*
D03*
X122501D02*
D03*
X-27499D02*
D03*
X27501D02*
D03*
D16*
X34500Y-117500D02*
D03*
X-34500Y-107500D02*
D03*
X34500Y-112500D02*
D03*
X-34500Y-102500D02*
D03*
Y-117500D02*
D03*
Y-122500D02*
D03*
Y-112500D02*
D03*
X34500Y-87500D02*
D03*
Y-82500D02*
D03*
X-34500Y-137500D02*
D03*
Y-92500D02*
D03*
Y-97500D02*
D03*
Y-132500D02*
D03*
Y-127500D02*
D03*
Y-82500D02*
D03*
Y-87500D02*
D03*
X34500Y-137500D02*
D03*
Y-132500D02*
D03*
Y-127500D02*
D03*
Y-122500D02*
D03*
Y-107500D02*
D03*
Y-102500D02*
D03*
Y-97500D02*
D03*
Y-92500D02*
D03*
D17*
X0Y-110000D02*
D03*
D18*
X21540Y-159000D02*
D03*
X13540D02*
D03*
Y-165500D02*
D03*
X21540D02*
D03*
X17540D02*
D03*
Y-159000D02*
D03*
D19*
X22500Y-144500D02*
D03*
X7500Y-75500D02*
D03*
X27500Y-144500D02*
D03*
X2500Y-75500D02*
D03*
X-27500D02*
D03*
X-17500D02*
D03*
X7500Y-144500D02*
D03*
X22500Y-75500D02*
D03*
X-22500D02*
D03*
X27500D02*
D03*
X12500Y-144500D02*
D03*
X17500D02*
D03*
X-17500D02*
D03*
X-22500D02*
D03*
X-12500D02*
D03*
X-27500D02*
D03*
X17500Y-75500D02*
D03*
X12500D02*
D03*
X-2500D02*
D03*
X-7500D02*
D03*
X-12500D02*
D03*
X-7500Y-144500D02*
D03*
X-2500D02*
D03*
X2500D02*
D03*
D20*
X73500Y-113000D02*
D03*
Y-98000D02*
D03*
X58500D02*
D03*
Y-113000D02*
D03*
D21*
X-65800Y-103000D02*
D03*
X-56200D02*
D03*
D32*
X-43200Y-203650D02*
D03*
X43200D02*
D03*
D33*
X-43200Y-161850D02*
D03*
X43200D02*
D03*
D38*
X-28900Y-166850D02*
D03*
X28900D02*
D03*
D39*
X-89695Y-51838D02*
G03*
X-98305Y-51838I-4305J-1105D01*
G01*
X-98305Y-55405D02*
G03*
X-89695Y-55405I4305J1105D01*
G01*
X-139654Y-100695D02*
G03*
X-141248Y-101469I1105J-4305D01*
G01*
D02*
G03*
X-139654Y-109305I2700J-3531D01*
G01*
X-164000Y-101377D02*
G03*
X-164124Y-101469I2576J-3623D01*
G01*
X-162530Y-100695D02*
G03*
X-164000Y-101377I1105J-4305D01*
G01*
X-133255Y-105000D02*
G03*
X-133413Y-103825I-4445J0D01*
G01*
X-156131Y-105000D02*
G03*
X-156289Y-103825I-4445J0D01*
G01*
Y-106175D02*
G03*
X-156131Y-105000I-4287J1175D01*
G01*
X-133413Y-106175D02*
G03*
X-133255Y-105000I-4287J1175D01*
G01*
X-156387Y-106488D02*
G03*
X-156289Y-106175I-4188J1488D01*
G01*
X-159470Y-109305D02*
G03*
X-156387Y-106488I-1105J4305D01*
G01*
X-133512Y-103512D02*
G03*
X-136594Y-100695I-4188J-1488D01*
G01*
X-133413Y-103825D02*
G03*
X-133512Y-103512I-4287J-1175D01*
G01*
X-164124Y-101469D02*
G03*
X-162530Y-109305I2700J-3531D01*
G01*
X-136594D02*
G03*
X-133413Y-106175I-1105J4305D01*
G01*
X-156289Y-103825D02*
G03*
X-159470Y-100695I-4287J-1175D01*
G01*
D40*
X-94000Y-57000D02*
D03*
X-141248Y-105000D02*
D03*
X-164124D02*
D03*
X-94000Y-50244D02*
D03*
X-135000Y-105000D02*
D03*
X-157876D02*
D03*
D41*
X-94000Y-50244D02*
X-94000Y-57000D01*
D42*
X-2500Y-107500D02*
X0Y-110000D01*
X20000Y-130000D02*
X22500Y-132500D01*
Y-144500D02*
Y-132500D01*
X0Y-110000D02*
X2500Y-112500D01*
X20000Y-130000D01*
X0Y-110000D02*
X7500Y-102500D01*
Y-75500D01*
X34500Y-112500D02*
X43750D01*
X44000Y-112750D01*
X73500Y-98000D02*
X80000D01*
X73500Y-113000D02*
X80000D01*
X77501Y-201243D02*
Y-198500D01*
X67600Y-203000D02*
X75743D01*
X77501Y-201243D01*
X112501Y-199000D02*
Y-198500D01*
X-34500Y-107500D02*
X-2500D01*
X2500Y-112500D02*
X34500D01*
X112501Y-199000D02*
X118000D01*
X39094Y-144500D02*
X39594Y-144000D01*
X27500Y-144500D02*
X39094D01*
X-43000Y-102500D02*
X-34500D01*
X-86000Y-222594D02*
X-85000Y-223594D01*
Y-224000D02*
Y-223594D01*
X-86000Y-222594D02*
Y-210000D01*
X-83594Y-208000D02*
X-79257D01*
X-85594Y-210000D02*
X-83594Y-208000D01*
X-86000Y-210000D02*
X-85594D01*
X-77499Y-206243D02*
Y-198500D01*
X-79257Y-208000D02*
X-77499Y-206243D01*
D43*
X21540Y-159000D02*
Y-151898D01*
X22500Y-150938D02*
Y-144500D01*
X21540Y-151898D02*
X22500Y-150938D01*
X21560Y-172560D02*
X22000Y-173000D01*
X21560Y-172560D02*
Y-168560D01*
X21540Y-168540D02*
X21560Y-168560D01*
X21540Y-168540D02*
Y-166278D01*
X17540Y-165500D02*
Y-159000D01*
Y-168377D02*
Y-165500D01*
X7000Y-174000D02*
X7440Y-173560D01*
X12357D01*
X8000Y-168000D02*
X8622D01*
X10122Y-166500D01*
X12357Y-173560D02*
X17540Y-168377D01*
X10122Y-166500D02*
X13540D01*
X17540Y-159000D02*
Y-144540D01*
X12500Y-150500D02*
X13540Y-151540D01*
Y-159000D02*
Y-151540D01*
Y-165500D02*
Y-159000D01*
X12500Y-150500D02*
Y-144500D01*
D44*
X-51000Y-103000D02*
X-43000D01*
X-56200D02*
X-51000D01*
X39594Y-144000D02*
X40000D01*
X48000D01*
X144000Y-134000D02*
X152000D01*
X160000D01*
D45*
X-94000Y-50244D02*
Y-28200D01*
X-94200Y-28000D02*
X-94000Y-28200D01*
D46*
X-206500Y-96500D02*
D03*
X206500D02*
D03*
D47*
X-135000Y-186000D02*
D03*
X135000D02*
D03*
D48*
X-208000Y-165000D02*
D03*
Y-111000D02*
D03*
Y-57000D02*
D03*
X208000Y-165000D02*
D03*
Y-111000D02*
D03*
Y-57000D02*
D03*
D49*
X-208000Y-138000D02*
D03*
Y-84000D02*
D03*
Y-30000D02*
D03*
X208000Y-138000D02*
D03*
Y-84000D02*
D03*
Y-30000D02*
D03*
D50*
X-151000Y-52000D02*
D03*
X-50800D02*
D03*
X100000D02*
D03*
X172800Y-108000D02*
D03*
X147400D02*
D03*
X122000D02*
D03*
X-125600Y-77400D02*
D03*
X-151000D02*
D03*
X-176400Y-52000D02*
D03*
Y-77400D02*
D03*
X-25400Y-52000D02*
D03*
X0D02*
D03*
X25400D02*
D03*
X125400D02*
D03*
X150800D02*
D03*
D51*
X-81500Y-28000D02*
D03*
X145000D02*
D03*
D52*
X81500D02*
D03*
X-106900D02*
D03*
X-132300D02*
D03*
X106900D02*
D03*
X-119600D02*
D03*
X94200D02*
D03*
X132300D02*
D03*
X119600D02*
D03*
X-145000D02*
D03*
X-94200D02*
D03*
D53*
X-125600Y-52000D02*
D03*
X50800D02*
D03*
X176200D02*
D03*
X96600Y-108000D02*
D03*
D54*
X110000Y-139000D02*
D03*
X-192499Y-205500D02*
D03*
X-22499Y-198500D02*
D03*
X-67000Y-83000D02*
D03*
X-49000Y-78000D02*
D03*
X176000Y-154000D02*
D03*
X44000Y-112750D02*
D03*
X80000Y-98000D02*
D03*
Y-113000D02*
D03*
X135000Y-142000D02*
D03*
X116000Y-152000D02*
D03*
X67600Y-157500D02*
D03*
X84400D02*
D03*
X67600Y-203000D02*
D03*
X118000Y-199000D02*
D03*
X165000Y-167000D02*
D03*
X98000Y-178000D02*
D03*
X-81000Y-160000D02*
D03*
X-82000Y-179000D02*
D03*
X-112250Y-145000D02*
D03*
Y-172000D02*
D03*
X-122000Y-201000D02*
D03*
X-157499Y-205500D02*
D03*
X173000Y-189000D02*
D03*
X22501Y-198500D02*
D03*
X-51000Y-103000D02*
D03*
X-43000D02*
D03*
X48000Y-144000D02*
D03*
X40000D02*
D03*
X160000Y-134000D02*
D03*
X152000D02*
D03*
X144000D02*
D03*
X-85000Y-224000D02*
D03*
X-86000Y-210000D02*
D03*
X76000Y-73000D02*
D03*
X64000D02*
D03*
X57000D02*
D03*
X-12499Y-205500D02*
D03*
X-116000Y-154000D02*
D03*
X-137000Y-151000D02*
D03*
X-80956Y-153303D02*
D03*
X-77000Y-186000D02*
D03*
X-81000Y-172000D02*
D03*
X-77000Y-118000D02*
D03*
X-81000Y-123000D02*
D03*
Y-131000D02*
D03*
Y-139000D02*
D03*
Y-146000D02*
D03*
X2501Y-209500D02*
D03*
X-7499D02*
D03*
X169000Y-127000D02*
D03*
X171000Y-133000D02*
D03*
X55000Y-140422D02*
D03*
X-70000Y-56000D02*
D03*
X61000Y-135000D02*
D03*
X49000Y-127000D02*
D03*
X44000Y-122250D02*
D03*
X22000Y-173000D02*
D03*
X8000Y-168000D02*
D03*
X7000Y-174000D02*
D03*
X-48691Y-137691D02*
D03*
X-49000Y-128000D02*
D03*
X-35000Y-77000D02*
D03*
X-12750Y-67000D02*
D03*
X-49000Y-118000D02*
D03*
X-45000Y-122750D02*
D03*
X176000Y-147000D02*
D03*
X182000Y-139000D02*
D03*
Y-153000D02*
D03*
X187000Y-143000D02*
D03*
X7501Y-205500D02*
D03*
X-43875Y-132625D02*
D03*
X-2499Y-205500D02*
D03*
X12000Y-68000D02*
D03*
X182000Y-80000D02*
D03*
X188250Y-83000D02*
D03*
X-46000Y-87000D02*
D03*
D55*
X-20000Y-130000D02*
D03*
X0D02*
D03*
X-20000Y-90000D02*
D03*
X0Y-110000D02*
D03*
X-20000D02*
D03*
X0Y-90000D02*
D03*
X20000Y-130000D02*
D03*
Y-110000D02*
D03*
Y-90000D02*
D03*
M02*
