G04*
G04 #@! TF.GenerationSoftware,Altium Limited,Altium Designer,26.2.0 (7)*
G04*
G04 Layer_Color=16711935*
%FSLAX44Y44*%
%MOMM*%
G71*
G04*
G04 #@! TF.SameCoordinates,22E9B78E-4E2C-48CF-9F74-CD5CA387B853*
G04*
G04*
G04 #@! TF.FilePolarity,Negative*
G04*
G01*
G75*
%ADD23R,0.6000X0.7000*%
%ADD26R,0.9000X1.0500*%
%ADD29C,1.6000*%
%ADD30R,1.6000X1.6000*%
%ADD31C,2.6000*%
%ADD32C,1.9000*%
%ADD33C,1.1000*%
%ADD34C,2.1000*%
%ADD35O,1.0000X2.1000*%
%ADD36O,1.0000X1.8000*%
%ADD37R,1.1000X1.1000*%
%ADD38C,0.6500*%
%ADD61R,0.8000X1.7000*%
%ADD62R,0.8000X1.1000*%
G04:AMPARAMS|DCode=63|XSize=1.1mm|YSize=0.6mm|CornerRadius=0.027mm|HoleSize=0mm|Usage=FLASHONLY|Rotation=0.000|XOffset=0mm|YOffset=0mm|HoleType=Round|Shape=RoundedRectangle|*
%AMROUNDEDRECTD63*
21,1,1.1000,0.5460,0,0,0.0*
21,1,1.0460,0.6000,0,0,0.0*
1,1,0.0540,0.5230,-0.2730*
1,1,0.0540,-0.5230,-0.2730*
1,1,0.0540,-0.5230,0.2730*
1,1,0.0540,0.5230,0.2730*
%
%ADD63ROUNDEDRECTD63*%
%ADD68R,0.6000X1.1500*%
%ADD69R,0.9720X0.8020*%
%ADD70R,0.3000X1.1500*%
%ADD71R,0.8000X0.8000*%
%ADD73R,0.8400X0.4400*%
%ADD74R,0.3520X0.7020*%
%ADD75R,0.5400X0.8400*%
%ADD76R,0.7300X0.9300*%
%ADD77R,0.6000X0.6500*%
%ADD78R,1.0500X0.9000*%
%ADD79R,0.7000X0.6000*%
%ADD80R,0.6500X0.6000*%
%ADD81R,1.1200X1.7200*%
D23*
X150000Y-142000D02*
D03*
X140400D02*
D03*
X31800Y-79000D02*
D03*
X-99800Y-92000D02*
D03*
X-90200D02*
D03*
X22200Y-79000D02*
D03*
D26*
X91000Y-183000D02*
D03*
X76000D02*
D03*
D29*
X172800Y-108000D02*
D03*
X147400D02*
D03*
X122000D02*
D03*
X100000Y-52000D02*
D03*
X-50800D02*
D03*
X-151000D02*
D03*
X-125600Y-77400D02*
D03*
X-151000D02*
D03*
X-176400Y-52000D02*
D03*
Y-77400D02*
D03*
X-25400Y-52000D02*
D03*
X0D02*
D03*
X25400D02*
D03*
X125400D02*
D03*
X150800D02*
D03*
D30*
X96600Y-108000D02*
D03*
X176200Y-52000D02*
D03*
X50800D02*
D03*
X-125600D02*
D03*
D31*
X208000Y-30000D02*
D03*
Y-84000D02*
D03*
Y-138000D02*
D03*
X-208000Y-30000D02*
D03*
Y-84000D02*
D03*
Y-138000D02*
D03*
D32*
X208000Y-57000D02*
D03*
Y-111000D02*
D03*
Y-165000D02*
D03*
X-208000Y-57000D02*
D03*
Y-111000D02*
D03*
Y-165000D02*
D03*
D33*
X81500Y-28000D02*
D03*
X-106900D02*
D03*
X-132300D02*
D03*
X106900D02*
D03*
X-119600D02*
D03*
X94200D02*
D03*
X132300D02*
D03*
X119600D02*
D03*
X-145000D02*
D03*
X-94200D02*
D03*
D34*
X135000Y-186000D02*
D03*
X-135000D02*
D03*
D35*
X43200Y-161850D02*
D03*
X-43200D02*
D03*
D36*
X43200Y-203650D02*
D03*
X-43200D02*
D03*
D37*
X-81500Y-28000D02*
D03*
X145000D02*
D03*
D38*
X-28900Y-166850D02*
D03*
X28900D02*
D03*
D61*
X67000Y-112000D02*
D03*
X33000D02*
D03*
D62*
X50000Y-95500D02*
D03*
D63*
X76000Y-157500D02*
D03*
X102000Y-148000D02*
D03*
Y-167000D02*
D03*
X76000D02*
D03*
Y-148000D02*
D03*
D68*
X32000Y-156100D02*
D03*
X-32000D02*
D03*
X24000D02*
D03*
X-24000D02*
D03*
D69*
X-58150Y-82500D02*
D03*
X-75850Y-92000D02*
D03*
X-58150Y-101500D02*
D03*
D70*
X-17500Y-156100D02*
D03*
X12500D02*
D03*
X7500D02*
D03*
X-2500D02*
D03*
X2500D02*
D03*
X-7500D02*
D03*
X-12500D02*
D03*
X17500D02*
D03*
D71*
X74500Y-222000D02*
D03*
X89500D02*
D03*
D73*
X-113000Y-225000D02*
D03*
X-95000D02*
D03*
Y-217000D02*
D03*
X-113000D02*
D03*
Y-209000D02*
D03*
X-95000D02*
D03*
X-113000Y-201000D02*
D03*
X-95000D02*
D03*
D74*
X-100000Y-166000D02*
D03*
Y-138500D02*
D03*
X-110000Y-153500D02*
D03*
Y-181000D02*
D03*
X-105000D02*
D03*
X-100000D02*
D03*
X-105000Y-166000D02*
D03*
X-110000D02*
D03*
X-105000Y-138500D02*
D03*
X-110000D02*
D03*
X-105000Y-153500D02*
D03*
X-100000D02*
D03*
D75*
X-78500Y-208000D02*
D03*
X-69500D02*
D03*
Y-224000D02*
D03*
X-78500D02*
D03*
D76*
X149300Y-159000D02*
D03*
X127000D02*
D03*
D77*
X-99700Y-104000D02*
D03*
X-90300D02*
D03*
D78*
X165000Y-144000D02*
D03*
Y-159000D02*
D03*
X10000Y-94000D02*
D03*
Y-79000D02*
D03*
D79*
X116000Y-167000D02*
D03*
Y-157400D02*
D03*
D80*
X10000Y-123600D02*
D03*
X-10000D02*
D03*
Y-133000D02*
D03*
X10000D02*
D03*
D81*
X76000Y-203000D02*
D03*
X106000D02*
D03*
M02*
