G04*
G04 #@! TF.GenerationSoftware,Altium Limited,Altium Designer,26.5.0 (11)*
G04*
G04 Layer_Color=128*
G04 Board_Origin=37750000|36400000*
%FSLAX44Y44*%
%MOMM*%
G71*
G04*
G04 #@! TF.SameCoordinates,0A58002B-885F-4A8B-801D-3CB6CDD3C1E0*
G04*
G04*
G04 #@! TF.FilePolarity,Positive*
G04*
G01*
G75*
%ADD20R,0.8000X0.9500*%
%ADD21R,0.5000X0.6000*%
%ADD57R,0.6000X1.1500*%
%ADD58R,0.5500X0.5000*%
%ADD59R,0.9720X0.8020*%
%ADD60R,1.0000X1.6000*%
%ADD61R,0.9500X0.8000*%
%ADD62R,0.6000X0.5000*%
G04:AMPARAMS|DCode=63|XSize=1.1mm|YSize=0.6mm|CornerRadius=0.027mm|HoleSize=0mm|Usage=FLASHONLY|Rotation=0.000|XOffset=0mm|YOffset=0mm|HoleType=Round|Shape=RoundedRectangle|*
%AMROUNDEDRECTD63*
21,1,1.1000,0.5460,0,0,0.0*
21,1,1.0460,0.6000,0,0,0.0*
1,1,0.0540,0.5230,-0.2730*
1,1,0.0540,-0.5230,-0.2730*
1,1,0.0540,-0.5230,0.2730*
1,1,0.0540,0.5230,0.2730*
%
%ADD63ROUNDEDRECTD63*%
%ADD64R,0.8000X1.1000*%
%ADD65R,0.8000X1.7000*%
%ADD66R,0.2500X0.6000*%
%ADD67R,0.5000X0.5500*%
%ADD68R,0.5000X0.8000*%
%ADD69R,0.6300X0.8300*%
%ADD70R,0.8000X0.4000*%
%ADD71R,0.3000X1.1500*%
%ADD72R,0.8000X0.8000*%
%ADD82R,0.9000X0.5000*%
D20*
X91000Y-183000D02*
D03*
X76000D02*
D03*
D21*
X-99800Y-92000D02*
D03*
X31800Y-79000D02*
D03*
X140400Y-142000D02*
D03*
X150000D02*
D03*
X-90200Y-92000D02*
D03*
X22200Y-79000D02*
D03*
D57*
X-32000Y-156100D02*
D03*
X32000D02*
D03*
X24000D02*
D03*
X-24000D02*
D03*
D58*
X-10000Y-123600D02*
D03*
X10000D02*
D03*
X-10000Y-133000D02*
D03*
X10000D02*
D03*
D59*
X-58150Y-82500D02*
D03*
Y-101500D02*
D03*
X-75850Y-92000D02*
D03*
D60*
X76000Y-203000D02*
D03*
X106000D02*
D03*
D61*
X10000Y-94000D02*
D03*
X165000Y-159000D02*
D03*
Y-144000D02*
D03*
X10000Y-79000D02*
D03*
D62*
X116000Y-157400D02*
D03*
Y-167000D02*
D03*
D63*
X76000Y-157500D02*
D03*
X102000Y-148000D02*
D03*
Y-167000D02*
D03*
X76000D02*
D03*
Y-148000D02*
D03*
D64*
X50000Y-95500D02*
D03*
D65*
X33000Y-112000D02*
D03*
X67000D02*
D03*
D66*
X-100000Y-153500D02*
D03*
X-110000Y-138500D02*
D03*
Y-166000D02*
D03*
X-100000Y-181000D02*
D03*
Y-166000D02*
D03*
Y-138500D02*
D03*
X-110000Y-153500D02*
D03*
Y-181000D02*
D03*
X-105000D02*
D03*
Y-166000D02*
D03*
Y-138500D02*
D03*
Y-153500D02*
D03*
D67*
X-99700Y-104000D02*
D03*
X-90300D02*
D03*
D68*
X-78500Y-224000D02*
D03*
Y-208000D02*
D03*
X-69500D02*
D03*
Y-224000D02*
D03*
D69*
X149300Y-159000D02*
D03*
X127000D02*
D03*
D70*
X-113000Y-225000D02*
D03*
X-95000D02*
D03*
X-113000Y-201000D02*
D03*
X-95000D02*
D03*
D71*
X-17500Y-156100D02*
D03*
X12500D02*
D03*
X7500D02*
D03*
X-2500D02*
D03*
X2500D02*
D03*
X-7500D02*
D03*
X-12500D02*
D03*
X17500D02*
D03*
D72*
X74500Y-222000D02*
D03*
X89500D02*
D03*
D82*
X-95000Y-217000D02*
D03*
X-113000D02*
D03*
Y-209000D02*
D03*
X-95000D02*
D03*
M02*
