G04*
G04 #@! TF.GenerationSoftware,Altium Limited,Altium Designer,26.5.0 (11)*
G04*
G04 Layer_Physical_Order=4*
G04 Layer_Color=16711680*
G04 Board_Origin=37750000|36400000*
%FSLAX44Y44*%
%MOMM*%
G71*
G04*
G04 #@! TF.SameCoordinates,0A58002B-885F-4A8B-801D-3CB6CDD3C1E0*
G04*
G04*
G04 #@! TF.FilePolarity,Positive*
G04*
G01*
G75*
%ADD10C,0.2000*%
%ADD11C,0.2500*%
%ADD20R,0.8000X0.9500*%
%ADD21R,0.5000X0.6000*%
%ADD32O,1.0000X1.8000*%
%ADD33O,1.0000X2.1000*%
%ADD38C,0.6500*%
%ADD42C,0.3000*%
%ADD43C,0.2200*%
%ADD44C,0.4500*%
%ADD45C,0.4000*%
%ADD46R,2.9000X16.7000*%
%ADD47C,2.0000*%
%ADD48C,1.8000*%
%ADD49C,2.5000*%
%ADD50C,1.5000*%
%ADD51R,1.0000X1.0000*%
%ADD52C,1.0000*%
%ADD53R,1.5000X1.5000*%
%ADD54C,0.4500*%
%ADD55C,0.6000*%
%ADD56C,0.5000*%
%ADD57R,0.6000X1.1500*%
%ADD58R,0.5500X0.5000*%
%ADD59R,0.9720X0.8020*%
%ADD60R,1.0000X1.6000*%
%ADD61R,0.9500X0.8000*%
%ADD62R,0.6000X0.5000*%
G04:AMPARAMS|DCode=63|XSize=1.1mm|YSize=0.6mm|CornerRadius=0.027mm|HoleSize=0mm|Usage=FLASHONLY|Rotation=0.000|XOffset=0mm|YOffset=0mm|HoleType=Round|Shape=RoundedRectangle|*
%AMROUNDEDRECTD63*
21,1,1.1000,0.5460,0,0,0.0*
21,1,1.0460,0.6000,0,0,0.0*
1,1,0.0540,0.5230,-0.2730*
1,1,0.0540,-0.5230,-0.2730*
1,1,0.0540,-0.5230,0.2730*
1,1,0.0540,0.5230,0.2730*
%
%ADD63ROUNDEDRECTD63*%
%ADD64R,0.8000X1.1000*%
%ADD65R,0.8000X1.7000*%
%ADD66R,0.2500X0.6000*%
%ADD67R,0.5000X0.5500*%
%ADD68R,0.5000X0.8000*%
%ADD69R,0.6300X0.8300*%
%ADD70R,0.8000X0.4000*%
%ADD71R,0.3000X1.1500*%
%ADD72R,0.8000X0.8000*%
G36*
X214000Y-2836D02*
X215854Y-3080D01*
X217582Y-3796D01*
X219066Y-4934D01*
X220205Y-6418D01*
X220920Y-8146D01*
X221164Y-10000D01*
X221176D01*
Y-23281D01*
X219906Y-23621D01*
X218803Y-21711D01*
X216289Y-19197D01*
X213211Y-17420D01*
X209777Y-16500D01*
X209270D01*
Y-30000D01*
Y-43500D01*
X209777D01*
X213211Y-42580D01*
X216289Y-40803D01*
X218803Y-38289D01*
X219906Y-36379D01*
X221176Y-36719D01*
Y-77281D01*
X219906Y-77621D01*
X218803Y-75711D01*
X216289Y-73197D01*
X213211Y-71420D01*
X209777Y-70500D01*
X209270D01*
Y-84000D01*
Y-97500D01*
X209777D01*
X213211Y-96580D01*
X216289Y-94803D01*
X218803Y-92289D01*
X219906Y-90379D01*
X221176Y-90719D01*
Y-131281D01*
X219906Y-131621D01*
X218803Y-129711D01*
X216289Y-127197D01*
X213211Y-125420D01*
X209777Y-124500D01*
X209270D01*
Y-138000D01*
Y-151500D01*
X209777D01*
X213211Y-150580D01*
X216289Y-148803D01*
X218803Y-146289D01*
X219906Y-144379D01*
X221176Y-144719D01*
Y-223000D01*
X221164D01*
X220920Y-224854D01*
X220205Y-226582D01*
X219066Y-228066D01*
X217582Y-229205D01*
X215854Y-229920D01*
X214000Y-230164D01*
Y-230176D01*
X-64510D01*
X-65500Y-229500D01*
X-65500Y-228906D01*
Y-218500D01*
X-66951D01*
Y-217172D01*
X-67145Y-216196D01*
X-67698Y-215369D01*
X-68297Y-214770D01*
X-67771Y-213500D01*
X-65500D01*
Y-202500D01*
X-66951D01*
Y-200500D01*
X-67145Y-199525D01*
X-67698Y-198698D01*
X-72198Y-194198D01*
X-73025Y-193645D01*
X-74000Y-193451D01*
X-101828D01*
X-102804Y-193645D01*
X-103631Y-194198D01*
X-105802Y-196369D01*
X-106355Y-197196D01*
X-106355Y-197198D01*
X-107500Y-197500D01*
X-107710Y-197500D01*
X-112451D01*
Y-189778D01*
X-111181Y-189252D01*
X-110631Y-189802D01*
X-109804Y-190355D01*
X-108828Y-190549D01*
X-92753D01*
X-91777Y-190355D01*
X-90950Y-189802D01*
X-89697Y-188549D01*
X-79754D01*
X-79124Y-189179D01*
X-77746Y-189750D01*
X-76254D01*
X-74876Y-189179D01*
X-73821Y-188124D01*
X-73250Y-186746D01*
Y-185254D01*
X-73821Y-183876D01*
X-74876Y-182821D01*
X-76254Y-182250D01*
X-77746D01*
X-79124Y-182821D01*
X-79754Y-183451D01*
X-90752D01*
X-91728Y-183645D01*
X-92555Y-184198D01*
X-93808Y-185451D01*
X-96667D01*
X-97750Y-185000D01*
Y-182270D01*
X-100000D01*
Y-179730D01*
X-97750D01*
Y-177796D01*
X-88247D01*
X-87272Y-177602D01*
X-86445Y-177050D01*
X-83944Y-174549D01*
X-83754D01*
X-83124Y-175179D01*
X-81746Y-175750D01*
X-80254D01*
X-78876Y-175179D01*
X-77821Y-174124D01*
X-77250Y-172746D01*
Y-171254D01*
X-77821Y-169876D01*
X-77878Y-169819D01*
X-77352Y-168549D01*
X-76000D01*
X-75024Y-168355D01*
X-74198Y-167802D01*
X-72722Y-166327D01*
X-71549Y-166813D01*
Y-182000D01*
X-71355Y-182976D01*
X-70802Y-183802D01*
X-61549Y-193056D01*
Y-217000D01*
X-61355Y-217975D01*
X-60802Y-218802D01*
X-55802Y-223802D01*
X-54975Y-224355D01*
X-54000Y-224549D01*
X-22000D01*
X-21024Y-224355D01*
X-20198Y-223802D01*
X-9235Y-212840D01*
X-8245Y-213250D01*
X-6753D01*
X-5375Y-212679D01*
X-4320Y-211624D01*
X-3749Y-210246D01*
X-2912Y-209508D01*
X-1532Y-209698D01*
X-1189Y-210391D01*
X-678Y-211624D01*
X377Y-212679D01*
X1755Y-213250D01*
X3247D01*
X4625Y-212679D01*
X5680Y-211624D01*
X6191Y-210391D01*
X6755Y-209250D01*
X8247D01*
X9625Y-208679D01*
X10680Y-207624D01*
X11251Y-206246D01*
Y-204754D01*
X10680Y-203376D01*
X10050Y-202746D01*
Y-196501D01*
X9856Y-195525D01*
X9303Y-194698D01*
X-114Y-185282D01*
X460Y-184059D01*
X12012D01*
X13477Y-185523D01*
X14634Y-186297D01*
X16000Y-186569D01*
X45522D01*
X52431Y-193478D01*
Y-216000D01*
X52703Y-217366D01*
X53477Y-218523D01*
X59477Y-224523D01*
X60634Y-225297D01*
X62000Y-225569D01*
X69000D01*
Y-227500D01*
X80000D01*
Y-216500D01*
X69000D01*
Y-218431D01*
X63478D01*
X59569Y-214522D01*
Y-192000D01*
X59297Y-190634D01*
X58523Y-189477D01*
X56789Y-187742D01*
X57275Y-186569D01*
X70500D01*
Y-189250D01*
X81500D01*
Y-176750D01*
X79569D01*
Y-171535D01*
X81230D01*
X81921Y-171397D01*
X82506Y-171006D01*
X82897Y-170421D01*
X83035Y-169730D01*
Y-169549D01*
X88544D01*
X89519Y-169355D01*
X90346Y-168802D01*
X92689Y-166459D01*
X93242Y-165632D01*
X93436Y-164657D01*
Y-150343D01*
X93242Y-149368D01*
X92689Y-148541D01*
X90346Y-146198D01*
X89519Y-145645D01*
X88544Y-145451D01*
X83035D01*
Y-145270D01*
X82897Y-144579D01*
X82506Y-143994D01*
X81921Y-143603D01*
X81230Y-143465D01*
X70770D01*
X70079Y-143603D01*
X69494Y-143994D01*
X69103Y-144579D01*
X68965Y-145270D01*
Y-150730D01*
X69103Y-151421D01*
X69494Y-152006D01*
X69996Y-152341D01*
X70074Y-152784D01*
X70062Y-153689D01*
X69798Y-153798D01*
X69395Y-154770D01*
Y-156230D01*
X76000D01*
Y-158770D01*
X69395D01*
Y-160230D01*
X69798Y-161202D01*
X70062Y-161311D01*
X70074Y-162216D01*
X69996Y-162659D01*
X69494Y-162994D01*
X69103Y-163579D01*
X68965Y-164270D01*
Y-169730D01*
X69103Y-170421D01*
X69494Y-171006D01*
X70079Y-171397D01*
X70770Y-171535D01*
X72431D01*
Y-176750D01*
X70500D01*
Y-179431D01*
X21554D01*
X21068Y-178258D01*
X22576Y-176750D01*
X22746D01*
X24124Y-176179D01*
X25179Y-175124D01*
X25750Y-173746D01*
Y-172254D01*
X25680Y-172086D01*
X25694Y-172020D01*
X25740Y-171926D01*
X26979Y-171196D01*
X27955Y-171600D01*
X29845D01*
X31591Y-170877D01*
X32927Y-169541D01*
X33650Y-167795D01*
Y-165905D01*
X32927Y-164159D01*
X32791Y-164023D01*
X33277Y-162850D01*
X35812D01*
X36000Y-162850D01*
X37083Y-163303D01*
Y-167350D01*
X37548Y-169691D01*
X38874Y-171676D01*
X40859Y-173002D01*
X41930Y-173215D01*
Y-161850D01*
Y-150485D01*
X40859Y-150698D01*
X38874Y-152024D01*
X37548Y-154009D01*
X37270Y-155407D01*
X36000Y-155282D01*
Y-149350D01*
X33270D01*
Y-156100D01*
X30730D01*
Y-149350D01*
X28500D01*
Y-148850D01*
X15151D01*
Y-142875D01*
X15151Y-142875D01*
X14949Y-141861D01*
X14375Y-141000D01*
X12651Y-139277D01*
Y-137000D01*
X14250D01*
Y-129000D01*
X5750D01*
Y-137000D01*
X7349D01*
Y-140375D01*
X7349Y-140375D01*
X7534Y-141305D01*
X7532Y-141310D01*
X7252Y-141700D01*
X6649Y-142325D01*
X6000Y-142196D01*
X-1036D01*
X-2109Y-142410D01*
X-3018Y-143017D01*
X-4483Y-144482D01*
X-5090Y-145392D01*
X-5304Y-146465D01*
Y-148850D01*
X-14849D01*
Y-141598D01*
X-10251Y-137000D01*
X-5750D01*
Y-129000D01*
X-14250D01*
Y-133501D01*
X-19375Y-138625D01*
X-19949Y-139486D01*
X-20151Y-140500D01*
X-20151Y-140500D01*
Y-148850D01*
X-28500D01*
Y-149350D01*
X-30730D01*
Y-156100D01*
X-33270D01*
Y-149350D01*
X-36000D01*
Y-155282D01*
X-37270Y-155407D01*
X-37548Y-154009D01*
X-38874Y-152024D01*
X-40859Y-150698D01*
X-41930Y-150485D01*
Y-161850D01*
Y-173215D01*
X-40859Y-173002D01*
X-38874Y-171676D01*
X-37548Y-169691D01*
X-37083Y-167350D01*
Y-163303D01*
X-36000Y-162850D01*
X-35812Y-162850D01*
X-33277D01*
X-32791Y-164023D01*
X-32927Y-164159D01*
X-33650Y-165905D01*
Y-167795D01*
X-32927Y-169541D01*
X-31591Y-170877D01*
X-29845Y-171600D01*
X-27955D01*
X-26209Y-170877D01*
X-25708Y-170376D01*
X-24705Y-169692D01*
X-23999Y-170326D01*
X-18145Y-176181D01*
X-18671Y-177451D01*
X-45944D01*
X-50451Y-172944D01*
Y-168161D01*
X-49181Y-168036D01*
X-48852Y-169691D01*
X-47526Y-171676D01*
X-45541Y-173002D01*
X-44470Y-173215D01*
Y-161850D01*
Y-150485D01*
X-45541Y-150698D01*
X-47526Y-152024D01*
X-48852Y-154009D01*
X-49181Y-155664D01*
X-50451Y-155539D01*
Y-142396D01*
X-49437Y-141441D01*
X-47945D01*
X-46567Y-140870D01*
X-45512Y-139816D01*
X-44941Y-138437D01*
Y-137548D01*
X-44751Y-136850D01*
X-43803Y-136375D01*
X-43129D01*
X-41751Y-135804D01*
X-40696Y-134749D01*
X-40125Y-133371D01*
Y-131879D01*
X-40696Y-130501D01*
X-41751Y-129446D01*
X-43129Y-128875D01*
X-44077D01*
X-44657Y-128811D01*
X-45250Y-127761D01*
Y-127254D01*
X-44746Y-126500D01*
X-44254D01*
X-42876Y-125929D01*
X-41821Y-124874D01*
X-41250Y-123496D01*
Y-122004D01*
X-41611Y-121133D01*
X-41451Y-120328D01*
Y-114172D01*
X-41516Y-113843D01*
X-40816Y-112530D01*
X-40651Y-112398D01*
X-40275Y-112330D01*
X-33802Y-118802D01*
X-32975Y-119355D01*
X-32000Y-119549D01*
X-14792D01*
X-13750Y-120100D01*
X-13750Y-120819D01*
Y-122330D01*
X-10000D01*
X-6250D01*
Y-120100D01*
X-5208Y-119549D01*
X5208D01*
X6250Y-120100D01*
X6250Y-120819D01*
Y-122330D01*
X10000D01*
X13750D01*
Y-120100D01*
X14792Y-119549D01*
X17944D01*
X29198Y-130802D01*
X30025Y-131355D01*
X31000Y-131549D01*
X46323D01*
X47299Y-131355D01*
X48126Y-130802D01*
X48200Y-130728D01*
X48254Y-130750D01*
X49746D01*
X51124Y-130179D01*
X52179Y-129124D01*
X52750Y-127746D01*
Y-126254D01*
X52179Y-124876D01*
X51124Y-123821D01*
X49746Y-123250D01*
X49913Y-122049D01*
X64000D01*
X64246Y-122000D01*
X71664D01*
X72125Y-123270D01*
X70944Y-124451D01*
X60000D01*
X59025Y-124645D01*
X58198Y-125198D01*
X53198Y-130198D01*
X52645Y-131025D01*
X52451Y-132000D01*
Y-137667D01*
X51821Y-138297D01*
X51250Y-139676D01*
Y-140134D01*
X51218Y-140170D01*
X50635Y-140517D01*
X49980Y-140761D01*
X49776Y-140677D01*
X49463Y-140468D01*
X49094Y-140394D01*
X48746Y-140250D01*
X48369D01*
X48000Y-140177D01*
X40000D01*
X39631Y-140250D01*
X39254D01*
X38906Y-140394D01*
X38537Y-140468D01*
X38224Y-140677D01*
X37876Y-140821D01*
X37610Y-141087D01*
X37296Y-141296D01*
X37087Y-141610D01*
X36821Y-141876D01*
X36677Y-142224D01*
X36468Y-142537D01*
X36394Y-142906D01*
X36250Y-143254D01*
Y-143631D01*
X36177Y-144000D01*
X36250Y-144369D01*
Y-144746D01*
X36394Y-145094D01*
X36468Y-145463D01*
X36677Y-145776D01*
X36821Y-146124D01*
X37087Y-146390D01*
X37296Y-146704D01*
X37610Y-146913D01*
X37876Y-147179D01*
X38224Y-147323D01*
X38537Y-147532D01*
X38906Y-147606D01*
X39254Y-147750D01*
X39631D01*
X40000Y-147823D01*
X48000D01*
X48369Y-147750D01*
X48746D01*
X49094Y-147606D01*
X49463Y-147532D01*
X49776Y-147323D01*
X50124Y-147179D01*
X50390Y-146913D01*
X50704Y-146704D01*
X50913Y-146390D01*
X51179Y-146124D01*
X51323Y-145776D01*
X51532Y-145463D01*
X51606Y-145094D01*
X51750Y-144746D01*
Y-144369D01*
X51766Y-144287D01*
X52459Y-143858D01*
X52590Y-143797D01*
X53053Y-143674D01*
X54254Y-144172D01*
X55746D01*
X57124Y-143601D01*
X58179Y-142546D01*
X58750Y-141167D01*
Y-139676D01*
X58663Y-139466D01*
X59635Y-138493D01*
X60254Y-138750D01*
X61746D01*
X63124Y-138179D01*
X64179Y-137124D01*
X64750Y-135746D01*
Y-134254D01*
X65221Y-133549D01*
X77000D01*
X77976Y-133355D01*
X78802Y-132802D01*
X86802Y-124802D01*
X87355Y-123975D01*
X87549Y-123000D01*
Y-118249D01*
X87600Y-117000D01*
X88819Y-117000D01*
X105600D01*
Y-99000D01*
X87600Y-99000D01*
X87549Y-97751D01*
Y-92000D01*
X87355Y-91025D01*
X86802Y-90198D01*
X74639Y-78034D01*
X75280Y-76880D01*
X76241Y-76845D01*
X93198Y-93802D01*
X94025Y-94355D01*
X95000Y-94549D01*
X105944D01*
X107451Y-96056D01*
Y-136246D01*
X106821Y-136876D01*
X106250Y-138254D01*
Y-139746D01*
X106821Y-141124D01*
X107876Y-142179D01*
X109254Y-142750D01*
X110746D01*
X112124Y-142179D01*
X113179Y-141124D01*
X113750Y-139746D01*
Y-138254D01*
X113179Y-136876D01*
X112549Y-136246D01*
Y-112170D01*
X113819Y-111830D01*
X114798Y-113526D01*
X116474Y-115202D01*
X118526Y-116387D01*
X120815Y-117000D01*
X123185D01*
X125474Y-116387D01*
X127526Y-115202D01*
X129202Y-113526D01*
X130387Y-111474D01*
X131000Y-109185D01*
Y-106815D01*
X130387Y-104526D01*
X129202Y-102474D01*
X127526Y-100798D01*
X125474Y-99613D01*
X123185Y-99000D01*
X120815D01*
X118526Y-99613D01*
X116474Y-100798D01*
X114798Y-102474D01*
X113819Y-104170D01*
X112549Y-103830D01*
Y-95000D01*
X112355Y-94024D01*
X111802Y-93198D01*
X108802Y-90198D01*
X107976Y-89645D01*
X107000Y-89451D01*
X96056D01*
X79750Y-73145D01*
Y-72254D01*
X79570Y-71819D01*
X80418Y-70549D01*
X156000D01*
X156975Y-70355D01*
X157802Y-69802D01*
X164802Y-62802D01*
X165355Y-61975D01*
X165549Y-61000D01*
Y-20000D01*
X165355Y-19024D01*
X164802Y-18198D01*
X158802Y-12198D01*
X157976Y-11645D01*
X157000Y-11451D01*
X114000D01*
X113025Y-11645D01*
X112198Y-12198D01*
X105098Y-19298D01*
X104545Y-20124D01*
X104351Y-21100D01*
Y-21966D01*
X102909Y-22799D01*
X101699Y-24009D01*
X101283Y-24729D01*
X99817D01*
X99401Y-24009D01*
X98191Y-22799D01*
X96709Y-21943D01*
X95056Y-21500D01*
X93344D01*
X91691Y-21943D01*
X90209Y-22799D01*
X88999Y-24009D01*
X88252Y-25303D01*
X87568Y-25406D01*
X86878Y-25305D01*
X86587Y-24601D01*
X84899Y-22913D01*
X82770Y-22032D01*
Y-28000D01*
Y-33968D01*
X84899Y-33087D01*
X86587Y-31399D01*
X86878Y-30695D01*
X87568Y-30594D01*
X88252Y-30697D01*
X88999Y-31991D01*
X90209Y-33201D01*
X91691Y-34057D01*
X93344Y-34500D01*
X95056D01*
X96709Y-34057D01*
X98191Y-33201D01*
X99401Y-31991D01*
X99817Y-31271D01*
X101283D01*
X101699Y-31991D01*
X102909Y-33201D01*
X104391Y-34057D01*
X106044Y-34500D01*
X107756D01*
X109409Y-34057D01*
X110891Y-33201D01*
X112101Y-31991D01*
X112517Y-31271D01*
X113983D01*
X114399Y-31991D01*
X115609Y-33201D01*
X117091Y-34057D01*
X118744Y-34500D01*
X120456D01*
X122109Y-34057D01*
X123591Y-33201D01*
X124801Y-31991D01*
X125217Y-31271D01*
X126683D01*
X127099Y-31991D01*
X128309Y-33201D01*
X129751Y-34034D01*
Y-35644D01*
X127944Y-37451D01*
X62742D01*
X62424Y-36181D01*
X64522Y-35059D01*
X67019Y-33011D01*
X69068Y-30514D01*
X70590Y-27666D01*
X71527Y-24576D01*
X71844Y-21362D01*
X71819D01*
Y-17080D01*
X71789Y-16930D01*
X72257Y-13378D01*
X73686Y-9927D01*
X75959Y-6965D01*
X78922Y-4692D01*
X82372Y-3262D01*
X84850Y-2936D01*
X86074Y-2825D01*
Y-2825D01*
X86076Y-2824D01*
X214000D01*
Y-2836D01*
D02*
G37*
G36*
X-86074Y-2825D02*
D01*
X-84819Y-2940D01*
X-82372Y-3262D01*
X-78922Y-4692D01*
X-75959Y-6965D01*
X-73686Y-9927D01*
X-72257Y-13378D01*
X-71789Y-16930D01*
X-71819Y-17080D01*
Y-21362D01*
X-71844D01*
X-71527Y-24576D01*
X-70590Y-27666D01*
X-69068Y-30514D01*
X-67019Y-33011D01*
X-64522Y-35059D01*
X-61674Y-36582D01*
X-58584Y-37519D01*
X-55370Y-37836D01*
X-55370Y-37836D01*
X-54100Y-37824D01*
X-12225D01*
X-11699Y-39094D01*
X-14715Y-42111D01*
X-15268Y-42937D01*
X-15462Y-43913D01*
Y-49409D01*
X-16732Y-49576D01*
X-17013Y-48526D01*
X-18198Y-46474D01*
X-19874Y-44798D01*
X-21926Y-43613D01*
X-24215Y-43000D01*
X-26585D01*
X-28874Y-43613D01*
X-30926Y-44798D01*
X-32602Y-46474D01*
X-33787Y-48526D01*
X-34400Y-50815D01*
Y-53185D01*
X-33787Y-55474D01*
X-33308Y-56303D01*
X-39456Y-62451D01*
X-59944D01*
X-66250Y-56145D01*
Y-55254D01*
X-66821Y-53876D01*
X-67876Y-52821D01*
X-69254Y-52250D01*
X-70746D01*
X-72124Y-52821D01*
X-73179Y-53876D01*
X-73750Y-55254D01*
Y-56746D01*
X-73179Y-58124D01*
X-72124Y-59179D01*
X-70746Y-59750D01*
X-69855D01*
X-62802Y-66802D01*
X-61975Y-67355D01*
X-61000Y-67549D01*
X-38400D01*
X-37424Y-67355D01*
X-36598Y-66802D01*
X-29703Y-59908D01*
X-28874Y-60387D01*
X-26585Y-61000D01*
X-24215D01*
X-21926Y-60387D01*
X-19874Y-59202D01*
X-18198Y-57526D01*
X-17013Y-55474D01*
X-16732Y-54424D01*
X-15462Y-54591D01*
Y-64409D01*
X-15929Y-64876D01*
X-16500Y-66254D01*
Y-67746D01*
X-15929Y-69124D01*
X-14874Y-70179D01*
X-13496Y-70750D01*
X-12004D01*
X-10626Y-70179D01*
X-9571Y-69124D01*
X-9000Y-67746D01*
Y-66254D01*
X-9571Y-64876D01*
X-10364Y-64083D01*
Y-44969D01*
X-7944Y-42549D01*
X-4170D01*
X-3830Y-43819D01*
X-5526Y-44798D01*
X-7202Y-46474D01*
X-8387Y-48526D01*
X-9000Y-50815D01*
Y-53185D01*
X-8387Y-55474D01*
X-7202Y-57526D01*
X-5526Y-59202D01*
X-3474Y-60387D01*
X-1185Y-61000D01*
X1185D01*
X3474Y-60387D01*
X5526Y-59202D01*
X7202Y-57526D01*
X8387Y-55474D01*
X9000Y-53185D01*
Y-50815D01*
X8387Y-48526D01*
X7202Y-46474D01*
X5526Y-44798D01*
X3830Y-43819D01*
X4170Y-42549D01*
X21230D01*
X21570Y-43819D01*
X19874Y-44798D01*
X18198Y-46474D01*
X17013Y-48526D01*
X16400Y-50815D01*
Y-53185D01*
X17013Y-55474D01*
X18198Y-57526D01*
X19874Y-59202D01*
X20271Y-59431D01*
X19931Y-60701D01*
X8750D01*
X7775Y-60895D01*
X6948Y-61448D01*
X-6056Y-74451D01*
X-32246D01*
X-32876Y-73821D01*
X-34254Y-73250D01*
X-35746D01*
X-37124Y-73821D01*
X-38179Y-74876D01*
X-38750Y-76254D01*
Y-77746D01*
X-38179Y-79124D01*
X-37124Y-80179D01*
X-35746Y-80750D01*
X-34254D01*
X-32876Y-80179D01*
X-32246Y-79549D01*
X-5000D01*
X-4025Y-79355D01*
X-3198Y-78802D01*
X2745Y-72859D01*
X3750Y-73651D01*
Y-84500D01*
X16250D01*
Y-81549D01*
X18200D01*
Y-83500D01*
X26200D01*
Y-74500D01*
X24549D01*
Y-73000D01*
X24355Y-72024D01*
X23802Y-71198D01*
X19674Y-67069D01*
X20200Y-65799D01*
X49800D01*
X50326Y-67069D01*
X36473Y-80922D01*
X35300Y-80436D01*
Y-80270D01*
X33070D01*
Y-83806D01*
X33222Y-84173D01*
X17944Y-99451D01*
X16833D01*
X15750Y-99000D01*
X15750Y-98181D01*
Y-95270D01*
X10000D01*
X4250D01*
Y-99000D01*
X3167Y-99451D01*
X-23944D01*
X-38410Y-84985D01*
X-39237Y-84433D01*
X-40212Y-84239D01*
X-43458D01*
X-43876Y-83821D01*
X-45254Y-83250D01*
X-46746D01*
X-48124Y-83821D01*
X-49179Y-84876D01*
X-49750Y-86254D01*
Y-87746D01*
X-49179Y-89124D01*
X-48124Y-90179D01*
X-46746Y-90750D01*
X-45254D01*
X-43876Y-90179D01*
X-43033Y-89337D01*
X-41268D01*
X-26802Y-103802D01*
X-25975Y-104355D01*
X-25000Y-104549D01*
X19000D01*
X19976Y-104355D01*
X20802Y-103802D01*
X51980Y-72625D01*
X53250Y-73151D01*
Y-73746D01*
X53821Y-75124D01*
X54663Y-75967D01*
Y-76212D01*
X54857Y-77188D01*
X55410Y-78015D01*
X58198Y-80802D01*
X59025Y-81355D01*
X60000Y-81549D01*
X64944D01*
X72451Y-89056D01*
Y-102000D01*
X61500D01*
Y-116951D01*
X46750D01*
X45774Y-117145D01*
X44948Y-117698D01*
X44145Y-118500D01*
X43254D01*
X41876Y-119071D01*
X40821Y-120126D01*
X40250Y-121504D01*
Y-122996D01*
X40821Y-124374D01*
X41628Y-125181D01*
X41308Y-126340D01*
X41238Y-126451D01*
X32056D01*
X28375Y-122770D01*
X28901Y-121500D01*
X31730D01*
Y-113270D01*
X28000D01*
Y-120599D01*
X26730Y-121125D01*
X20802Y-115198D01*
X19975Y-114645D01*
X19000Y-114451D01*
X-30944D01*
X-38198Y-107198D01*
X-39025Y-106645D01*
X-39116Y-106627D01*
X-39673Y-105221D01*
X-39232Y-104561D01*
X-38922Y-103000D01*
X-39232Y-101439D01*
X-40116Y-100116D01*
X-41439Y-99232D01*
X-43000Y-98922D01*
X-51790D01*
Y-95990D01*
X-64510D01*
Y-106451D01*
X-67944D01*
X-72198Y-102198D01*
X-73025Y-101645D01*
X-74000Y-101451D01*
X-86300D01*
Y-99750D01*
X-94300D01*
Y-108250D01*
X-86300D01*
Y-106549D01*
X-75056D01*
X-70802Y-110802D01*
X-69975Y-111355D01*
X-69000Y-111549D01*
X-64448D01*
X-63513Y-112819D01*
X-63549Y-113000D01*
Y-116944D01*
X-74802Y-128198D01*
X-75355Y-129025D01*
X-75549Y-130000D01*
Y-161944D01*
X-77056Y-163451D01*
X-84000D01*
X-84975Y-163645D01*
X-85802Y-164198D01*
X-90803Y-169198D01*
X-97250D01*
Y-161500D01*
X-97451D01*
Y-160793D01*
X-97645Y-159817D01*
X-98198Y-158991D01*
X-98418Y-158770D01*
X-97892Y-157500D01*
X-97750D01*
Y-154770D01*
X-100000D01*
Y-152230D01*
X-97750D01*
Y-150221D01*
X-89384D01*
X-84977Y-154628D01*
X-84271Y-155099D01*
X-84135Y-155428D01*
X-83080Y-156483D01*
X-81702Y-157053D01*
X-80210D01*
X-78832Y-156483D01*
X-77777Y-155428D01*
X-77206Y-154050D01*
Y-152558D01*
X-77777Y-151179D01*
X-78541Y-150415D01*
X-78738Y-149689D01*
X-78559Y-148863D01*
X-77821Y-148124D01*
X-77250Y-146746D01*
Y-145254D01*
X-77821Y-143876D01*
X-78367Y-143330D01*
X-78734Y-142500D01*
X-78367Y-141670D01*
X-77821Y-141124D01*
X-77250Y-139746D01*
Y-138254D01*
X-77821Y-136876D01*
X-78876Y-135821D01*
X-79198Y-135687D01*
Y-134313D01*
X-78876Y-134179D01*
X-77821Y-133124D01*
X-77250Y-131746D01*
Y-130254D01*
X-77821Y-128876D01*
X-78876Y-127821D01*
X-79198Y-127687D01*
Y-126313D01*
X-78876Y-126179D01*
X-77821Y-125124D01*
X-77250Y-123746D01*
Y-122254D01*
X-76109Y-121690D01*
X-74876Y-121179D01*
X-73821Y-120124D01*
X-73250Y-118746D01*
Y-117254D01*
X-73821Y-115876D01*
X-74876Y-114821D01*
X-76254Y-114250D01*
X-77145D01*
X-80198Y-111198D01*
X-81025Y-110645D01*
X-82000Y-110451D01*
X-116944D01*
X-123051Y-104344D01*
Y-86034D01*
X-122126Y-85787D01*
X-120074Y-84602D01*
X-118398Y-82926D01*
X-117213Y-80874D01*
X-116600Y-78585D01*
Y-76215D01*
X-117213Y-73926D01*
X-118398Y-71874D01*
X-120074Y-70198D01*
X-122126Y-69013D01*
X-124415Y-68400D01*
X-126785D01*
X-129074Y-69013D01*
X-131126Y-70198D01*
X-132802Y-71874D01*
X-133987Y-73926D01*
X-134600Y-76215D01*
Y-78585D01*
X-133987Y-80874D01*
X-132802Y-82926D01*
X-131126Y-84602D01*
X-129074Y-85787D01*
X-128149Y-86034D01*
Y-103587D01*
X-129322Y-104073D01*
X-146649Y-86747D01*
X-146440Y-85159D01*
X-145474Y-84602D01*
X-143798Y-82926D01*
X-142613Y-80874D01*
X-142000Y-78585D01*
Y-76215D01*
X-142613Y-73926D01*
X-143798Y-71874D01*
X-145474Y-70198D01*
X-147526Y-69013D01*
X-149815Y-68400D01*
X-152185D01*
X-154474Y-69013D01*
X-156526Y-70198D01*
X-158202Y-71874D01*
X-159387Y-73926D01*
X-160000Y-76215D01*
Y-78585D01*
X-159387Y-80874D01*
X-158202Y-82926D01*
X-156526Y-84602D01*
X-154474Y-85787D01*
X-152821Y-86230D01*
Y-86728D01*
X-152626Y-87704D01*
X-152074Y-88531D01*
X-123327Y-117278D01*
X-123813Y-118451D01*
X-131744D01*
X-168492Y-81703D01*
X-168013Y-80874D01*
X-167400Y-78585D01*
Y-76215D01*
X-168013Y-73926D01*
X-169198Y-71874D01*
X-170874Y-70198D01*
X-172926Y-69013D01*
X-175215Y-68400D01*
X-177585D01*
X-179874Y-69013D01*
X-181926Y-70198D01*
X-183602Y-71874D01*
X-184181Y-72877D01*
X-185451Y-72537D01*
Y-64656D01*
X-180703Y-59908D01*
X-179874Y-60387D01*
X-177585Y-61000D01*
X-175215D01*
X-172926Y-60387D01*
X-170874Y-59202D01*
X-169198Y-57526D01*
X-168013Y-55474D01*
X-167400Y-53185D01*
Y-50815D01*
X-168013Y-48526D01*
X-169198Y-46474D01*
X-170874Y-44798D01*
X-172926Y-43613D01*
X-175215Y-43000D01*
X-177585D01*
X-179874Y-43613D01*
X-181926Y-44798D01*
X-183602Y-46474D01*
X-184787Y-48526D01*
X-185400Y-50815D01*
Y-53185D01*
X-184787Y-55474D01*
X-184308Y-56303D01*
X-189802Y-61798D01*
X-190355Y-62625D01*
X-190549Y-63600D01*
Y-86000D01*
X-190355Y-86975D01*
X-189802Y-87802D01*
X-183802Y-93802D01*
X-182976Y-94355D01*
X-182000Y-94549D01*
X-171056D01*
X-138302Y-127302D01*
X-137476Y-127855D01*
X-136500Y-128049D01*
X-121369D01*
X-120992Y-128813D01*
X-120924Y-129319D01*
X-133802Y-142198D01*
X-134355Y-143025D01*
X-134549Y-144000D01*
Y-146582D01*
X-135819Y-147430D01*
X-136254Y-147250D01*
X-137746D01*
X-139124Y-147821D01*
X-140179Y-148876D01*
X-140750Y-150254D01*
Y-151746D01*
X-140340Y-152735D01*
X-160802Y-173198D01*
X-161355Y-174025D01*
X-161549Y-175000D01*
Y-196950D01*
X-161355Y-197925D01*
X-160802Y-198752D01*
X-144752Y-214802D01*
X-143925Y-215355D01*
X-142950Y-215549D01*
X-134056D01*
X-122802Y-226802D01*
X-121975Y-227355D01*
X-121000Y-227549D01*
X-118500D01*
Y-228500D01*
X-107500D01*
Y-225202D01*
X-107019Y-225035D01*
X-106230Y-224991D01*
X-105802Y-225631D01*
X-104631Y-226802D01*
X-103804Y-227355D01*
X-102828Y-227549D01*
X-100500D01*
Y-228500D01*
X-89500D01*
Y-226756D01*
X-88328Y-226065D01*
X-88179Y-226124D01*
X-87913Y-226390D01*
X-87704Y-226704D01*
X-87390Y-226913D01*
X-87124Y-227179D01*
X-86776Y-227323D01*
X-86463Y-227532D01*
X-86094Y-227606D01*
X-85746Y-227750D01*
X-85369D01*
X-85000Y-227823D01*
X-83398D01*
X-82847Y-228374D01*
X-82948Y-229806D01*
X-83490Y-230176D01*
X-214000D01*
Y-230164D01*
X-215854Y-229920D01*
X-217582Y-229205D01*
X-219066Y-228066D01*
X-220205Y-226582D01*
X-220920Y-224854D01*
X-221164Y-223000D01*
X-221176D01*
Y-144719D01*
X-219906Y-144379D01*
X-218803Y-146289D01*
X-216289Y-148803D01*
X-213211Y-150580D01*
X-209777Y-151500D01*
X-209270D01*
Y-138000D01*
Y-124500D01*
X-209777D01*
X-213211Y-125420D01*
X-216289Y-127197D01*
X-218803Y-129711D01*
X-219906Y-131621D01*
X-221176Y-131281D01*
Y-90719D01*
X-219906Y-90379D01*
X-218803Y-92289D01*
X-216289Y-94803D01*
X-213211Y-96580D01*
X-209777Y-97500D01*
X-209270D01*
Y-84000D01*
Y-70500D01*
X-209777D01*
X-213211Y-71420D01*
X-216289Y-73197D01*
X-218803Y-75711D01*
X-219906Y-77621D01*
X-221176Y-77281D01*
Y-36719D01*
X-219906Y-36379D01*
X-218803Y-38289D01*
X-216289Y-40803D01*
X-213211Y-42580D01*
X-209777Y-43500D01*
X-209270D01*
Y-30000D01*
Y-16500D01*
X-209777D01*
X-213211Y-17420D01*
X-216289Y-19197D01*
X-218803Y-21711D01*
X-219906Y-23621D01*
X-221176Y-23281D01*
Y-10000D01*
X-221164D01*
X-220920Y-8146D01*
X-220205Y-6418D01*
X-219066Y-4934D01*
X-217582Y-3796D01*
X-215854Y-3080D01*
X-214000Y-2836D01*
Y-2824D01*
X-87344D01*
X-86074Y-2825D01*
D02*
G37*
G36*
X121570Y-43819D02*
X119874Y-44798D01*
X118198Y-46474D01*
X117013Y-48526D01*
X116400Y-50815D01*
Y-53185D01*
X117013Y-55474D01*
X118198Y-57526D01*
X119874Y-59202D01*
X120271Y-59431D01*
X119931Y-60701D01*
X104469D01*
X104129Y-59431D01*
X105219Y-58802D01*
X106802Y-57219D01*
X107921Y-55281D01*
X108460Y-53270D01*
X100000D01*
X91540D01*
X92079Y-55281D01*
X93198Y-57219D01*
X94781Y-58802D01*
X95871Y-59431D01*
X95531Y-60701D01*
X59800D01*
Y-43000D01*
X60883Y-42549D01*
X97523D01*
X97691Y-43819D01*
X96719Y-44079D01*
X94781Y-45198D01*
X93198Y-46781D01*
X92079Y-48719D01*
X91540Y-50730D01*
X100000D01*
X108460D01*
X107921Y-48719D01*
X106802Y-46781D01*
X105219Y-45198D01*
X103281Y-44079D01*
X102309Y-43819D01*
X102477Y-42549D01*
X121230D01*
X121570Y-43819D01*
D02*
G37*
G36*
X41800Y-43000D02*
Y-60701D01*
X30869D01*
X30529Y-59431D01*
X30926Y-59202D01*
X32602Y-57526D01*
X33787Y-55474D01*
X34400Y-53185D01*
Y-50815D01*
X33787Y-48526D01*
X32602Y-46474D01*
X30926Y-44798D01*
X29230Y-43819D01*
X29570Y-42549D01*
X40717D01*
X41800Y-43000D01*
D02*
G37*
G36*
X82451Y-93056D02*
Y-121944D01*
X77704Y-126691D01*
X76802Y-125802D01*
X77355Y-124976D01*
X77549Y-124000D01*
Y-89813D01*
X78722Y-89327D01*
X82451Y-93056D01*
D02*
G37*
G36*
X-112250Y-134500D02*
X-112250Y-134819D01*
Y-137230D01*
X-110000D01*
Y-138500D01*
X-108730D01*
Y-142539D01*
X-107750Y-143000D01*
X-107606D01*
X-107423Y-143634D01*
X-107355Y-143975D01*
X-106802Y-144802D01*
X-105683Y-145922D01*
X-106802Y-147041D01*
X-107355Y-147868D01*
X-107549Y-148844D01*
Y-149000D01*
X-112750D01*
Y-150151D01*
X-113365Y-150517D01*
X-114020Y-150761D01*
X-115254Y-150250D01*
X-116746D01*
X-118124Y-150821D01*
X-119179Y-151876D01*
X-119750Y-153254D01*
Y-154746D01*
X-119179Y-156124D01*
X-118124Y-157179D01*
X-117739Y-157338D01*
X-117441Y-158837D01*
X-119802Y-161198D01*
X-120355Y-162024D01*
X-120549Y-163000D01*
Y-175000D01*
X-120355Y-175975D01*
X-119802Y-176802D01*
X-117549Y-179056D01*
Y-197500D01*
X-118500D01*
Y-204500D01*
X-118500D01*
Y-205181D01*
X-119270Y-206451D01*
X-139944D01*
X-152451Y-193944D01*
Y-178056D01*
X-130198Y-155802D01*
X-129645Y-154975D01*
X-129451Y-154000D01*
Y-145056D01*
X-117944Y-133549D01*
X-113020D01*
X-112250Y-134500D01*
D02*
G37*
G36*
X-51000Y-190549D02*
X-14056D01*
X-5048Y-199557D01*
Y-202746D01*
X-5678Y-203376D01*
X-6249Y-204754D01*
X-7086Y-205492D01*
X-8467Y-205302D01*
X-8809Y-204609D01*
X-9320Y-203376D01*
X-10375Y-202321D01*
X-11753Y-201750D01*
X-13245D01*
X-14623Y-202321D01*
X-15678Y-203376D01*
X-16249Y-204754D01*
Y-205645D01*
X-26055Y-215451D01*
X-50944D01*
X-52451Y-213944D01*
Y-191448D01*
X-51181Y-190513D01*
X-51000Y-190549D01*
D02*
G37*
%LPC*%
G36*
X80230Y-22032D02*
X78101Y-22913D01*
X76413Y-24601D01*
X75532Y-26730D01*
X80230D01*
Y-22032D01*
D02*
G37*
G36*
X206730Y-16500D02*
X206223D01*
X202789Y-17420D01*
X199711Y-19197D01*
X197197Y-21711D01*
X195420Y-24789D01*
X194500Y-28223D01*
Y-28730D01*
X206730D01*
Y-16500D01*
D02*
G37*
G36*
X80230Y-29270D02*
X75532D01*
X76413Y-31399D01*
X78101Y-33087D01*
X80230Y-33968D01*
Y-29270D01*
D02*
G37*
G36*
X206730Y-31270D02*
X194500D01*
Y-31777D01*
X195420Y-35211D01*
X197197Y-38289D01*
X199711Y-40803D01*
X202789Y-42580D01*
X206223Y-43500D01*
X206730D01*
Y-31270D01*
D02*
G37*
G36*
X209317Y-47000D02*
X209270D01*
Y-55730D01*
X218000D01*
Y-55683D01*
X217318Y-53140D01*
X216002Y-50860D01*
X214140Y-48998D01*
X211860Y-47681D01*
X209317Y-47000D01*
D02*
G37*
G36*
X206730D02*
X206684D01*
X204140Y-47681D01*
X201860Y-48998D01*
X199998Y-50860D01*
X198682Y-53140D01*
X198000Y-55683D01*
Y-55730D01*
X206730D01*
Y-47000D01*
D02*
G37*
G36*
X185200Y-43000D02*
X167200D01*
Y-61000D01*
X185200D01*
Y-43000D01*
D02*
G37*
G36*
X218000Y-58270D02*
X209270D01*
Y-67000D01*
X209317D01*
X211860Y-66318D01*
X214140Y-65002D01*
X216002Y-63140D01*
X217318Y-60860D01*
X218000Y-58316D01*
Y-58270D01*
D02*
G37*
G36*
X206730D02*
X198000D01*
Y-58316D01*
X198682Y-60860D01*
X199998Y-63140D01*
X201860Y-65002D01*
X204140Y-66318D01*
X206684Y-67000D01*
X206730D01*
Y-58270D01*
D02*
G37*
G36*
Y-70500D02*
X206223D01*
X202789Y-71420D01*
X199711Y-73197D01*
X197197Y-75711D01*
X195420Y-78789D01*
X194500Y-82223D01*
Y-82730D01*
X206730D01*
Y-70500D01*
D02*
G37*
G36*
Y-85270D02*
X194500D01*
Y-85777D01*
X195420Y-89211D01*
X197197Y-92289D01*
X199711Y-94803D01*
X202789Y-96580D01*
X206223Y-97500D01*
X206730D01*
Y-85270D01*
D02*
G37*
G36*
X182746Y-76250D02*
X181254D01*
X179876Y-76821D01*
X178821Y-77876D01*
X178250Y-79254D01*
Y-80746D01*
X178821Y-82124D01*
X179451Y-82754D01*
Y-85000D01*
X179645Y-85976D01*
X180198Y-86802D01*
X182451Y-89056D01*
Y-106270D01*
X181181Y-106437D01*
X180721Y-104719D01*
X179602Y-102781D01*
X178019Y-101198D01*
X176081Y-100079D01*
X174070Y-99541D01*
Y-108000D01*
Y-116460D01*
X176081Y-115921D01*
X178019Y-114802D01*
X179602Y-113219D01*
X180721Y-111281D01*
X181181Y-109563D01*
X182451Y-109730D01*
Y-115194D01*
X173304Y-124341D01*
X172179Y-124876D01*
X171124Y-123821D01*
X169746Y-123250D01*
X168254D01*
X166876Y-123821D01*
X165821Y-124876D01*
X165250Y-126254D01*
Y-127746D01*
X165821Y-129124D01*
X166876Y-130179D01*
X167473Y-131716D01*
X167250Y-132254D01*
Y-133746D01*
X167821Y-135124D01*
X168876Y-136179D01*
X170254Y-136750D01*
X171746D01*
X173124Y-136179D01*
X174004Y-135299D01*
X174250D01*
X175226Y-135105D01*
X176052Y-134552D01*
X190802Y-119802D01*
X191355Y-118975D01*
X191549Y-118000D01*
Y-85422D01*
X191470Y-85025D01*
X192000Y-83746D01*
Y-82254D01*
X191429Y-80876D01*
X190374Y-79821D01*
X188996Y-79250D01*
X187504D01*
X187020Y-79451D01*
X185820Y-79265D01*
X185556Y-78787D01*
X185179Y-77876D01*
X184124Y-76821D01*
X182746Y-76250D01*
D02*
G37*
G36*
X171530Y-99541D02*
X169519Y-100079D01*
X167581Y-101198D01*
X165998Y-102781D01*
X164879Y-104719D01*
X164340Y-106730D01*
X171530D01*
Y-99541D01*
D02*
G37*
G36*
X209317Y-101000D02*
X209270D01*
Y-109730D01*
X218000D01*
Y-109684D01*
X217318Y-107140D01*
X216002Y-104860D01*
X214140Y-102998D01*
X211860Y-101681D01*
X209317Y-101000D01*
D02*
G37*
G36*
X206730D02*
X206684D01*
X204140Y-101681D01*
X201860Y-102998D01*
X199998Y-104860D01*
X198682Y-107140D01*
X198000Y-109684D01*
Y-109730D01*
X206730D01*
Y-101000D01*
D02*
G37*
G36*
X171530Y-109270D02*
X164340D01*
X164879Y-111281D01*
X165998Y-113219D01*
X167581Y-114802D01*
X169519Y-115921D01*
X171530Y-116460D01*
Y-109270D01*
D02*
G37*
G36*
X148585Y-99000D02*
X146215D01*
X143926Y-99613D01*
X141874Y-100798D01*
X140198Y-102474D01*
X139013Y-104526D01*
X138400Y-106815D01*
Y-109185D01*
X139013Y-111474D01*
X140198Y-113526D01*
X141874Y-115202D01*
X143926Y-116387D01*
X146215Y-117000D01*
X148585D01*
X150874Y-116387D01*
X152926Y-115202D01*
X154602Y-113526D01*
X155787Y-111474D01*
X156400Y-109185D01*
Y-106815D01*
X155787Y-104526D01*
X154602Y-102474D01*
X152926Y-100798D01*
X150874Y-99613D01*
X148585Y-99000D01*
D02*
G37*
G36*
X218000Y-112270D02*
X209270D01*
Y-121000D01*
X209317D01*
X211860Y-120318D01*
X214140Y-119002D01*
X216002Y-117140D01*
X217318Y-114860D01*
X218000Y-112317D01*
Y-112270D01*
D02*
G37*
G36*
X206730D02*
X198000D01*
Y-112317D01*
X198682Y-114860D01*
X199998Y-117140D01*
X201860Y-119002D01*
X204140Y-120318D01*
X206684Y-121000D01*
X206730D01*
Y-112270D01*
D02*
G37*
G36*
X13750Y-124870D02*
X11270D01*
Y-127100D01*
X13750D01*
Y-124870D01*
D02*
G37*
G36*
X8730D02*
X6250D01*
Y-127100D01*
X8730D01*
Y-124870D01*
D02*
G37*
G36*
X-6250D02*
X-8730D01*
Y-127100D01*
X-6250D01*
Y-124870D01*
D02*
G37*
G36*
X-11270D02*
X-13750D01*
Y-127100D01*
X-11270D01*
Y-124870D01*
D02*
G37*
G36*
X206730Y-124500D02*
X206223D01*
X202789Y-125420D01*
X199711Y-127197D01*
X197197Y-129711D01*
X195420Y-132789D01*
X194500Y-136223D01*
Y-136730D01*
X206730D01*
Y-124500D01*
D02*
G37*
G36*
X143900Y-143270D02*
X141670D01*
Y-146000D01*
X143900D01*
Y-143270D01*
D02*
G37*
G36*
X139130D02*
X136900D01*
Y-146000D01*
X139130D01*
Y-143270D01*
D02*
G37*
G36*
X206730Y-139270D02*
X194500D01*
Y-139777D01*
X195420Y-143211D01*
X197197Y-146289D01*
X199711Y-148803D01*
X202789Y-150580D01*
X206223Y-151500D01*
X206730D01*
Y-139270D01*
D02*
G37*
G36*
X107230Y-143465D02*
X96770D01*
X96079Y-143603D01*
X95494Y-143994D01*
X95103Y-144579D01*
X94965Y-145270D01*
Y-150730D01*
X95103Y-151421D01*
X95494Y-152006D01*
X96079Y-152397D01*
X96770Y-152535D01*
X107230D01*
X107921Y-152397D01*
X108506Y-152006D01*
X108897Y-151421D01*
X109035Y-150730D01*
Y-145270D01*
X108897Y-144579D01*
X108506Y-143994D01*
X107921Y-143603D01*
X107230Y-143465D01*
D02*
G37*
G36*
X120000Y-153900D02*
X117270D01*
Y-156130D01*
X120000D01*
Y-153900D01*
D02*
G37*
G36*
X114730D02*
X112000D01*
Y-156130D01*
X114730D01*
Y-153900D01*
D02*
G37*
G36*
X160000Y-130177D02*
X144000D01*
X143631Y-130250D01*
X143254D01*
X142906Y-130394D01*
X142537Y-130468D01*
X142224Y-130677D01*
X141876Y-130821D01*
X141610Y-131087D01*
X141296Y-131296D01*
X141087Y-131610D01*
X140821Y-131876D01*
X140677Y-132224D01*
X140468Y-132537D01*
X140394Y-132906D01*
X140250Y-133254D01*
Y-133631D01*
X140177Y-134000D01*
X140250Y-134369D01*
Y-134746D01*
X140394Y-135094D01*
X140468Y-135463D01*
X140677Y-135776D01*
X140821Y-136124D01*
X141087Y-136390D01*
X141296Y-136704D01*
X141336Y-136730D01*
X141140Y-137632D01*
X140901Y-138000D01*
X136900D01*
Y-140730D01*
X140400D01*
X143900D01*
Y-139052D01*
X143924Y-138763D01*
X145244Y-138191D01*
X145818Y-138540D01*
X146000Y-138722D01*
Y-146500D01*
X146177D01*
Y-153350D01*
X144650D01*
Y-164650D01*
X153950D01*
Y-153350D01*
X153823D01*
Y-146500D01*
X154000D01*
Y-145823D01*
X158750D01*
Y-149500D01*
X171250D01*
Y-148650D01*
X172520Y-148398D01*
X172821Y-149124D01*
X173876Y-150179D01*
X175254Y-150750D01*
X176746D01*
X177670Y-150367D01*
X178633Y-151330D01*
X178250Y-152254D01*
Y-153746D01*
X178821Y-155124D01*
X179876Y-156179D01*
X181254Y-156750D01*
X182746D01*
X184124Y-156179D01*
X185179Y-155124D01*
X185750Y-153746D01*
Y-152254D01*
X185179Y-150876D01*
X184799Y-150496D01*
Y-148806D01*
X186855Y-146750D01*
X187746D01*
X189124Y-146179D01*
X190179Y-145124D01*
X190750Y-143746D01*
Y-142254D01*
X190179Y-140876D01*
X189124Y-139821D01*
X187746Y-139250D01*
X186254D01*
X185750Y-138913D01*
Y-138254D01*
X185179Y-136876D01*
X184124Y-135821D01*
X182746Y-135250D01*
X181254D01*
X179876Y-135821D01*
X178821Y-136876D01*
X178250Y-138254D01*
Y-139145D01*
X174676Y-142719D01*
X174123Y-143546D01*
X174086Y-143734D01*
X173876Y-143821D01*
X172821Y-144876D01*
X172520Y-145602D01*
X171250Y-145350D01*
Y-138500D01*
X166766D01*
Y-136942D01*
X166475Y-135479D01*
X165646Y-134239D01*
X162704Y-131296D01*
X162390Y-131087D01*
X162124Y-130821D01*
X161776Y-130677D01*
X161463Y-130468D01*
X161094Y-130394D01*
X160746Y-130250D01*
X160369D01*
X160000Y-130177D01*
D02*
G37*
G36*
X170750Y-154000D02*
X166270D01*
Y-157730D01*
X170750D01*
Y-154000D01*
D02*
G37*
G36*
X163730D02*
X159250D01*
Y-157730D01*
X163730D01*
Y-154000D01*
D02*
G37*
G36*
X44470Y-150485D02*
Y-160580D01*
X49317D01*
Y-156350D01*
X48852Y-154009D01*
X47526Y-152024D01*
X45541Y-150698D01*
X44470Y-150485D01*
D02*
G37*
G36*
X120000Y-158670D02*
X117270D01*
Y-160900D01*
X120000D01*
Y-158670D01*
D02*
G37*
G36*
X114730D02*
X112000D01*
Y-160900D01*
X114730D01*
Y-158670D01*
D02*
G37*
G36*
X131650Y-153350D02*
X122350D01*
Y-159805D01*
X122281Y-160150D01*
Y-162679D01*
X122029Y-162931D01*
X116500D01*
X116155Y-163000D01*
X111500D01*
Y-163431D01*
X108798D01*
X108506Y-162994D01*
X107921Y-162603D01*
X107230Y-162465D01*
X96770D01*
X96079Y-162603D01*
X95494Y-162994D01*
X95103Y-163579D01*
X94965Y-164270D01*
Y-169730D01*
X95103Y-170421D01*
X95494Y-171006D01*
X96079Y-171397D01*
X96770Y-171535D01*
X107230D01*
X107921Y-171397D01*
X108506Y-171006D01*
X108798Y-170569D01*
X111500D01*
Y-171000D01*
X120500D01*
Y-170069D01*
X123507D01*
X124873Y-169797D01*
X126030Y-169023D01*
X128373Y-166680D01*
X129147Y-165522D01*
X129320Y-164650D01*
X131650D01*
Y-153350D01*
D02*
G37*
G36*
X209317Y-155000D02*
X209270D01*
Y-163730D01*
X218000D01*
Y-163683D01*
X217318Y-161140D01*
X216002Y-158860D01*
X214140Y-156998D01*
X211860Y-155681D01*
X209317Y-155000D01*
D02*
G37*
G36*
X206730D02*
X206684D01*
X204140Y-155681D01*
X201860Y-156998D01*
X199998Y-158860D01*
X198682Y-161140D01*
X198000Y-163683D01*
Y-163730D01*
X206730D01*
Y-155000D01*
D02*
G37*
G36*
X170750Y-160270D02*
X166270D01*
Y-164000D01*
X170750D01*
Y-160270D01*
D02*
G37*
G36*
X163730D02*
X159250D01*
Y-164000D01*
X163730D01*
Y-160270D01*
D02*
G37*
G36*
X49317Y-163120D02*
X44470D01*
Y-173215D01*
X45541Y-173002D01*
X47526Y-171676D01*
X48852Y-169691D01*
X49317Y-167350D01*
Y-163120D01*
D02*
G37*
G36*
X218000Y-166270D02*
X209270D01*
Y-175000D01*
X209317D01*
X211860Y-174319D01*
X214140Y-173002D01*
X216002Y-171140D01*
X217318Y-168860D01*
X218000Y-166317D01*
Y-166270D01*
D02*
G37*
G36*
X206730D02*
X198000D01*
Y-166317D01*
X198682Y-168860D01*
X199998Y-171140D01*
X201860Y-173002D01*
X204140Y-174319D01*
X206684Y-175000D01*
X206730D01*
Y-166270D01*
D02*
G37*
G36*
X96000Y-177250D02*
X92270D01*
Y-181730D01*
X96000D01*
Y-177250D01*
D02*
G37*
G36*
X89730D02*
X86000D01*
Y-181730D01*
X89730D01*
Y-177250D01*
D02*
G37*
G36*
X136448Y-175000D02*
X136270D01*
Y-184730D01*
X146000D01*
Y-184552D01*
X145250Y-181754D01*
X143802Y-179246D01*
X141754Y-177198D01*
X139246Y-175750D01*
X136448Y-175000D01*
D02*
G37*
G36*
X133730D02*
X133552D01*
X130754Y-175750D01*
X128246Y-177198D01*
X126198Y-179246D01*
X124750Y-181754D01*
X124000Y-184552D01*
Y-184730D01*
X133730D01*
Y-175000D01*
D02*
G37*
G36*
X96000Y-184270D02*
X92270D01*
Y-188750D01*
X96000D01*
Y-184270D01*
D02*
G37*
G36*
X89730D02*
X86000D01*
Y-188750D01*
X89730D01*
Y-184270D01*
D02*
G37*
G36*
X173746Y-185250D02*
X172254D01*
X170876Y-185821D01*
X169821Y-186876D01*
X169250Y-188254D01*
Y-189746D01*
X169821Y-191124D01*
X170876Y-192179D01*
X172254Y-192750D01*
X173746D01*
X175124Y-192179D01*
X176179Y-191124D01*
X176750Y-189746D01*
Y-188254D01*
X176179Y-186876D01*
X175124Y-185821D01*
X173746Y-185250D01*
D02*
G37*
G36*
X146000Y-187270D02*
X136270D01*
Y-197000D01*
X136448D01*
X139246Y-196250D01*
X141754Y-194802D01*
X143802Y-192754D01*
X145250Y-190246D01*
X146000Y-187448D01*
Y-187270D01*
D02*
G37*
G36*
X133730D02*
X124000D01*
Y-187448D01*
X124750Y-190246D01*
X126198Y-192754D01*
X128246Y-194802D01*
X130754Y-196250D01*
X133552Y-197000D01*
X133730D01*
Y-187270D01*
D02*
G37*
G36*
X82000Y-194000D02*
X77270D01*
Y-201730D01*
X82000D01*
Y-194000D01*
D02*
G37*
G36*
X74730D02*
X70000D01*
Y-201730D01*
X74730D01*
Y-194000D01*
D02*
G37*
G36*
X23247Y-194750D02*
X21755D01*
X20377Y-195321D01*
X19322Y-196376D01*
X18751Y-197754D01*
Y-199246D01*
X19322Y-200624D01*
X20377Y-201679D01*
X21755Y-202250D01*
X23247D01*
X24625Y-201679D01*
X25680Y-200624D01*
X26251Y-199246D01*
Y-197754D01*
X25680Y-196376D01*
X24625Y-195321D01*
X23247Y-194750D01*
D02*
G37*
G36*
X44470Y-193785D02*
Y-202380D01*
X49317D01*
Y-199650D01*
X48852Y-197309D01*
X47526Y-195324D01*
X45541Y-193998D01*
X44470Y-193785D01*
D02*
G37*
G36*
X41930Y-193785D02*
X40859Y-193998D01*
X38874Y-195324D01*
X37548Y-197309D01*
X37083Y-199650D01*
Y-202380D01*
X41930D01*
Y-193785D01*
D02*
G37*
G36*
X82000Y-204270D02*
X77270D01*
Y-212000D01*
X82000D01*
Y-204270D01*
D02*
G37*
G36*
X74730D02*
X70000D01*
Y-212000D01*
X74730D01*
Y-204270D01*
D02*
G37*
G36*
X49317Y-204920D02*
X44470D01*
Y-213515D01*
X45541Y-213302D01*
X47526Y-211976D01*
X48852Y-209991D01*
X49317Y-207650D01*
Y-204920D01*
D02*
G37*
G36*
X41930D02*
X37083D01*
Y-207650D01*
X37548Y-209991D01*
X38874Y-211976D01*
X40859Y-213302D01*
X41930Y-213515D01*
Y-204920D01*
D02*
G37*
G36*
X112500Y-193500D02*
X99500D01*
Y-206593D01*
X89593Y-216500D01*
X84000D01*
Y-227500D01*
X95000D01*
Y-221907D01*
X104407Y-212500D01*
X112500D01*
Y-193500D01*
D02*
G37*
G36*
X-93344Y-21500D02*
X-95056D01*
X-96709Y-21943D01*
X-98191Y-22799D01*
X-99401Y-24009D01*
X-99817Y-24729D01*
X-101283D01*
X-101699Y-24009D01*
X-102909Y-22799D01*
X-104391Y-21943D01*
X-106044Y-21500D01*
X-107756D01*
X-109409Y-21943D01*
X-110891Y-22799D01*
X-112101Y-24009D01*
X-112517Y-24729D01*
X-113983D01*
X-114399Y-24009D01*
X-115609Y-22799D01*
X-117091Y-21943D01*
X-118744Y-21500D01*
X-120456D01*
X-122109Y-21943D01*
X-123591Y-22799D01*
X-124801Y-24009D01*
X-125217Y-24729D01*
X-126683D01*
X-127099Y-24009D01*
X-128309Y-22799D01*
X-129791Y-21943D01*
X-131444Y-21500D01*
X-133156D01*
X-134809Y-21943D01*
X-136291Y-22799D01*
X-137501Y-24009D01*
X-137917Y-24729D01*
X-139383D01*
X-139799Y-24009D01*
X-141009Y-22799D01*
X-142491Y-21943D01*
X-144144Y-21500D01*
X-145856D01*
X-147509Y-21943D01*
X-148991Y-22799D01*
X-150201Y-24009D01*
X-151057Y-25491D01*
X-151500Y-27144D01*
Y-28856D01*
X-151057Y-30509D01*
X-150201Y-31991D01*
X-148991Y-33201D01*
X-147509Y-34057D01*
X-145856Y-34500D01*
X-144144D01*
X-142491Y-34057D01*
X-141009Y-33201D01*
X-139799Y-31991D01*
X-139383Y-31271D01*
X-137917D01*
X-137501Y-31991D01*
X-136291Y-33201D01*
X-134809Y-34057D01*
X-133156Y-34500D01*
X-131444D01*
X-129791Y-34057D01*
X-128309Y-33201D01*
X-127099Y-31991D01*
X-126683Y-31271D01*
X-125217D01*
X-124801Y-31991D01*
X-123591Y-33201D01*
X-122644Y-33748D01*
X-122411Y-34917D01*
X-121527Y-36240D01*
X-110078Y-47689D01*
Y-62000D01*
X-110078Y-62000D01*
X-109768Y-63561D01*
X-108884Y-64884D01*
X-94278Y-79489D01*
Y-88800D01*
X-94278Y-88800D01*
X-94278Y-88800D01*
Y-92000D01*
X-94200Y-92394D01*
Y-96500D01*
X-86200D01*
Y-96078D01*
X-82210D01*
Y-97510D01*
X-69490D01*
Y-86490D01*
X-82210D01*
Y-87922D01*
X-85311D01*
X-86122Y-87111D01*
Y-77800D01*
X-86432Y-76239D01*
X-87316Y-74916D01*
X-87316Y-74916D01*
X-101922Y-60311D01*
Y-46000D01*
X-102232Y-44439D01*
X-103116Y-43116D01*
X-103116Y-43116D01*
X-113691Y-32541D01*
X-113507Y-32097D01*
X-112101Y-31991D01*
X-110891Y-33201D01*
X-109409Y-34057D01*
X-107756Y-34500D01*
X-106044D01*
X-104391Y-34057D01*
X-102909Y-33201D01*
X-101699Y-31991D01*
X-101283Y-31271D01*
X-99817D01*
X-99401Y-31991D01*
X-98191Y-33201D01*
X-96709Y-34057D01*
X-95056Y-34500D01*
X-93344D01*
X-91691Y-34057D01*
X-90209Y-33201D01*
X-88999Y-31991D01*
X-88770Y-31595D01*
X-87500Y-31935D01*
Y-34000D01*
X-82770D01*
Y-28000D01*
Y-22000D01*
X-87500D01*
Y-24065D01*
X-88770Y-24405D01*
X-88999Y-24009D01*
X-90209Y-22799D01*
X-91691Y-21943D01*
X-93344Y-21500D01*
D02*
G37*
G36*
X-75500Y-22000D02*
X-80230D01*
Y-26730D01*
X-75500D01*
Y-22000D01*
D02*
G37*
G36*
X-206223Y-16500D02*
X-206730D01*
Y-28730D01*
X-194500D01*
Y-28223D01*
X-195420Y-24789D01*
X-197197Y-21711D01*
X-199711Y-19197D01*
X-202789Y-17420D01*
X-206223Y-16500D01*
D02*
G37*
G36*
X-75500Y-29270D02*
X-80230D01*
Y-34000D01*
X-75500D01*
Y-29270D01*
D02*
G37*
G36*
X-194500Y-31270D02*
X-206730D01*
Y-43500D01*
X-206223D01*
X-202789Y-42580D01*
X-199711Y-40803D01*
X-197197Y-38289D01*
X-195420Y-35211D01*
X-194500Y-31777D01*
Y-31270D01*
D02*
G37*
G36*
X-49530Y-43541D02*
Y-50730D01*
X-42340D01*
X-42879Y-48719D01*
X-43998Y-46781D01*
X-45581Y-45198D01*
X-47519Y-44079D01*
X-49530Y-43541D01*
D02*
G37*
G36*
X-149730D02*
Y-50730D01*
X-142541D01*
X-143079Y-48719D01*
X-144198Y-46781D01*
X-145781Y-45198D01*
X-147719Y-44079D01*
X-149730Y-43541D01*
D02*
G37*
G36*
X-152270D02*
X-154281Y-44079D01*
X-156219Y-45198D01*
X-157802Y-46781D01*
X-158921Y-48719D01*
X-159459Y-50730D01*
X-152270D01*
Y-43541D01*
D02*
G37*
G36*
X-52070D02*
X-54081Y-44079D01*
X-56019Y-45198D01*
X-57602Y-46781D01*
X-58721Y-48719D01*
X-59260Y-50730D01*
X-52070D01*
Y-43541D01*
D02*
G37*
G36*
X-206684Y-47000D02*
X-206730D01*
Y-55730D01*
X-198000D01*
Y-55683D01*
X-198682Y-53140D01*
X-199998Y-50860D01*
X-201860Y-48998D01*
X-204140Y-47681D01*
X-206684Y-47000D01*
D02*
G37*
G36*
X-209270D02*
X-209317D01*
X-211860Y-47681D01*
X-214140Y-48998D01*
X-216002Y-50860D01*
X-217318Y-53140D01*
X-218000Y-55683D01*
Y-55730D01*
X-209270D01*
Y-47000D01*
D02*
G37*
G36*
X-42340Y-53270D02*
X-49530D01*
Y-60459D01*
X-47519Y-59921D01*
X-45581Y-58802D01*
X-43998Y-57219D01*
X-42879Y-55281D01*
X-42340Y-53270D01*
D02*
G37*
G36*
X-142541D02*
X-149730D01*
Y-60459D01*
X-147719Y-59921D01*
X-145781Y-58802D01*
X-144198Y-57219D01*
X-143079Y-55281D01*
X-142541Y-53270D01*
D02*
G37*
G36*
X-52070D02*
X-59260D01*
X-58721Y-55281D01*
X-57602Y-57219D01*
X-56019Y-58802D01*
X-54081Y-59921D01*
X-52070Y-60459D01*
Y-53270D01*
D02*
G37*
G36*
X-152270D02*
X-159459D01*
X-158921Y-55281D01*
X-157802Y-57219D01*
X-156219Y-58802D01*
X-154281Y-59921D01*
X-152270Y-60459D01*
Y-53270D01*
D02*
G37*
G36*
X-116600Y-43000D02*
X-134600D01*
Y-61000D01*
X-116600D01*
Y-43000D01*
D02*
G37*
G36*
X-198000Y-58270D02*
X-206730D01*
Y-67000D01*
X-206684D01*
X-204140Y-66318D01*
X-201860Y-65002D01*
X-199998Y-63140D01*
X-198682Y-60860D01*
X-198000Y-58316D01*
Y-58270D01*
D02*
G37*
G36*
X-209270D02*
X-218000D01*
Y-58316D01*
X-217318Y-60860D01*
X-216002Y-63140D01*
X-214140Y-65002D01*
X-211860Y-66318D01*
X-209317Y-67000D01*
X-209270D01*
Y-58270D01*
D02*
G37*
G36*
X35300Y-75000D02*
X33070D01*
Y-77730D01*
X35300D01*
Y-75000D01*
D02*
G37*
G36*
X30530D02*
X28300D01*
Y-77730D01*
X30530D01*
Y-75000D01*
D02*
G37*
G36*
X-52290Y-77490D02*
X-56880D01*
Y-81230D01*
X-52290D01*
Y-77490D01*
D02*
G37*
G36*
X-59420D02*
X-64010D01*
Y-81230D01*
X-59420D01*
Y-77490D01*
D02*
G37*
G36*
X-206223Y-70500D02*
X-206730D01*
Y-82730D01*
X-194500D01*
Y-82223D01*
X-195420Y-78789D01*
X-197197Y-75711D01*
X-199711Y-73197D01*
X-202789Y-71420D01*
X-206223Y-70500D01*
D02*
G37*
G36*
X30530Y-80270D02*
X28300D01*
Y-83000D01*
X30530D01*
Y-80270D01*
D02*
G37*
G36*
X-52290Y-83770D02*
X-56880D01*
Y-87510D01*
X-52290D01*
Y-83770D01*
D02*
G37*
G36*
X-59420D02*
X-64010D01*
Y-87510D01*
X-59420D01*
Y-83770D01*
D02*
G37*
G36*
X-96300Y-88000D02*
X-98530D01*
Y-90730D01*
X-96300D01*
Y-88000D01*
D02*
G37*
G36*
X-101070D02*
X-103300D01*
Y-90730D01*
X-101070D01*
Y-88000D01*
D02*
G37*
G36*
X15750Y-89000D02*
X11270D01*
Y-92730D01*
X15750D01*
Y-89000D01*
D02*
G37*
G36*
X8730D02*
X4250D01*
Y-92730D01*
X8730D01*
Y-89000D01*
D02*
G37*
G36*
X55000Y-89000D02*
X51270D01*
Y-94230D01*
X55000D01*
Y-89000D01*
D02*
G37*
G36*
X48730D02*
X45000D01*
Y-94230D01*
X48730D01*
Y-89000D01*
D02*
G37*
G36*
X-96300Y-93270D02*
X-98530D01*
Y-96000D01*
X-96300D01*
Y-93270D01*
D02*
G37*
G36*
X-101070D02*
X-103300D01*
Y-96000D01*
X-101070D01*
Y-93270D01*
D02*
G37*
G36*
X-194500Y-85270D02*
X-206730D01*
Y-97500D01*
X-206223D01*
X-202789Y-96580D01*
X-199711Y-94803D01*
X-197197Y-92289D01*
X-195420Y-89211D01*
X-194500Y-85777D01*
Y-85270D01*
D02*
G37*
G36*
X55000Y-96770D02*
X51270D01*
Y-102000D01*
X55000D01*
Y-96770D01*
D02*
G37*
G36*
X48730D02*
X45000D01*
Y-102000D01*
X48730D01*
Y-96770D01*
D02*
G37*
G36*
X-96200Y-100250D02*
X-98430D01*
Y-102730D01*
X-96200D01*
Y-100250D01*
D02*
G37*
G36*
X-100970D02*
X-103200D01*
Y-102730D01*
X-100970D01*
Y-100250D01*
D02*
G37*
G36*
X-96200Y-105270D02*
X-98430D01*
Y-107750D01*
X-96200D01*
Y-105270D01*
D02*
G37*
G36*
X-100970D02*
X-103200D01*
Y-107750D01*
X-100970D01*
Y-105270D01*
D02*
G37*
G36*
X-206684Y-101000D02*
X-206730D01*
Y-109730D01*
X-198000D01*
Y-109684D01*
X-198682Y-107140D01*
X-199998Y-104860D01*
X-201860Y-102998D01*
X-204140Y-101681D01*
X-206684Y-101000D01*
D02*
G37*
G36*
X-209270D02*
X-209317D01*
X-211860Y-101681D01*
X-214140Y-102998D01*
X-216002Y-104860D01*
X-217318Y-107140D01*
X-218000Y-109684D01*
Y-109730D01*
X-209270D01*
Y-101000D01*
D02*
G37*
G36*
X38000Y-102500D02*
X34270D01*
Y-110730D01*
X38000D01*
Y-102500D01*
D02*
G37*
G36*
X31730D02*
X28000D01*
Y-110730D01*
X31730D01*
Y-102500D01*
D02*
G37*
G36*
X-198000Y-112270D02*
X-206730D01*
Y-121000D01*
X-206684D01*
X-204140Y-120318D01*
X-201860Y-119002D01*
X-199998Y-117140D01*
X-198682Y-114860D01*
X-198000Y-112317D01*
Y-112270D01*
D02*
G37*
G36*
X-209270D02*
X-218000D01*
Y-112317D01*
X-217318Y-114860D01*
X-216002Y-117140D01*
X-214140Y-119002D01*
X-211860Y-120318D01*
X-209317Y-121000D01*
X-209270D01*
Y-112270D01*
D02*
G37*
G36*
X38000Y-113270D02*
X34270D01*
Y-121500D01*
X38000D01*
Y-113270D01*
D02*
G37*
G36*
X-206223Y-124500D02*
X-206730D01*
Y-136730D01*
X-194500D01*
Y-136223D01*
X-195420Y-132789D01*
X-197197Y-129711D01*
X-199711Y-127197D01*
X-202789Y-125420D01*
X-206223Y-124500D01*
D02*
G37*
G36*
X-194500Y-139270D02*
X-206730D01*
Y-151500D01*
X-206223D01*
X-202789Y-150580D01*
X-199711Y-148803D01*
X-197197Y-146289D01*
X-195420Y-143211D01*
X-194500Y-139777D01*
Y-139270D01*
D02*
G37*
G36*
X-206684Y-155000D02*
X-206730D01*
Y-163730D01*
X-198000D01*
Y-163683D01*
X-198682Y-161140D01*
X-199998Y-158860D01*
X-201860Y-156998D01*
X-204140Y-155681D01*
X-206684Y-155000D01*
D02*
G37*
G36*
X-209270D02*
X-209317D01*
X-211860Y-155681D01*
X-214140Y-156998D01*
X-216002Y-158860D01*
X-217318Y-161140D01*
X-218000Y-163683D01*
Y-163730D01*
X-209270D01*
Y-155000D01*
D02*
G37*
G36*
X-198000Y-166270D02*
X-206730D01*
Y-175000D01*
X-206684D01*
X-204140Y-174319D01*
X-201860Y-173002D01*
X-199998Y-171140D01*
X-198682Y-168860D01*
X-198000Y-166317D01*
Y-166270D01*
D02*
G37*
G36*
X-209270D02*
X-218000D01*
Y-166317D01*
X-217318Y-168860D01*
X-216002Y-171140D01*
X-214140Y-173002D01*
X-211860Y-174319D01*
X-209317Y-175000D01*
X-209270D01*
Y-166270D01*
D02*
G37*
G36*
X-111270Y-139770D02*
X-112250D01*
Y-142500D01*
X-111270D01*
Y-139770D01*
D02*
G37*
G36*
X-133552Y-175000D02*
X-133730D01*
Y-184730D01*
X-124000D01*
Y-184552D01*
X-124750Y-181754D01*
X-126198Y-179246D01*
X-128246Y-177198D01*
X-130754Y-175750D01*
X-133552Y-175000D01*
D02*
G37*
G36*
X-136270D02*
X-136448D01*
X-139246Y-175750D01*
X-141754Y-177198D01*
X-143802Y-179246D01*
X-145250Y-181754D01*
X-146000Y-184552D01*
Y-184730D01*
X-136270D01*
Y-175000D01*
D02*
G37*
G36*
X-124000Y-187270D02*
X-133730D01*
Y-197000D01*
X-133552D01*
X-130754Y-196250D01*
X-128246Y-194802D01*
X-126198Y-192754D01*
X-124750Y-190246D01*
X-124000Y-187448D01*
Y-187270D01*
D02*
G37*
G36*
X-136270D02*
X-146000D01*
Y-187448D01*
X-145250Y-190246D01*
X-143802Y-192754D01*
X-141754Y-194802D01*
X-139246Y-196250D01*
X-136448Y-197000D01*
X-136270D01*
Y-187270D01*
D02*
G37*
G36*
X-41930Y-193785D02*
Y-202380D01*
X-37083D01*
Y-199650D01*
X-37548Y-197309D01*
X-38874Y-195324D01*
X-40859Y-193998D01*
X-41930Y-193785D01*
D02*
G37*
G36*
X-44470Y-193785D02*
X-45541Y-193998D01*
X-47526Y-195324D01*
X-48852Y-197309D01*
X-49317Y-199650D01*
Y-202380D01*
X-44470D01*
Y-193785D01*
D02*
G37*
G36*
Y-204920D02*
X-49317D01*
Y-207650D01*
X-48852Y-209991D01*
X-47526Y-211976D01*
X-45541Y-213302D01*
X-44470Y-213515D01*
Y-204920D01*
D02*
G37*
G36*
X-37083D02*
X-41930D01*
Y-213515D01*
X-40859Y-213302D01*
X-38874Y-211976D01*
X-37548Y-209991D01*
X-37083Y-207650D01*
Y-204920D01*
D02*
G37*
%LPD*%
D10*
X110000Y-139000D02*
Y-95000D01*
X107000Y-92000D02*
X110000Y-95000D01*
X95000Y-92000D02*
X107000D01*
X76000Y-73000D02*
X95000Y-92000D01*
X57212Y-76212D02*
X60000Y-79000D01*
X66000D01*
X64000Y-73000D02*
X64478Y-73478D01*
X66478D02*
X85000Y-92000D01*
X66000Y-79000D02*
X75000Y-88000D01*
X64478Y-73478D02*
X66478D01*
X57212Y-76212D02*
Y-73212D01*
X57000Y-73000D02*
X57212Y-73212D01*
X-9978Y-209978D02*
X-7977D01*
X-54000Y-222000D02*
X-22000D01*
X-7977Y-209978D02*
X-7499Y-209500D01*
X-22000Y-222000D02*
X-9978Y-209978D01*
X-24999Y-218000D02*
X-12499Y-205500D01*
X-110250Y-154000D02*
X-110000Y-153750D01*
X-116000Y-154000D02*
X-110250D01*
X-110000Y-153750D02*
Y-153500D01*
X-159000Y-175000D02*
X-137478Y-153478D01*
Y-151478D01*
X-137000Y-151000D01*
X-159000Y-196950D02*
Y-175000D01*
Y-196950D02*
X-142950Y-213000D01*
X-155000Y-177000D02*
X-132000Y-154000D01*
X-155000Y-195000D02*
Y-177000D01*
Y-195000D02*
X-141000Y-209000D01*
X-113000D01*
X-142950Y-213000D02*
X-133000D01*
X-121000Y-225000D01*
X-113000D01*
X-132000Y-154000D02*
Y-144000D01*
X-115000Y-200000D02*
Y-178000D01*
X-114000Y-201000D02*
X-113000D01*
X-118000Y-175000D02*
X-115000Y-178000D01*
Y-200000D02*
X-114000Y-201000D01*
X-118000Y-175000D02*
Y-163000D01*
X-114621Y-159621D02*
X-101172D01*
X-118000Y-163000D02*
X-114621Y-159621D01*
X-110000Y-186828D02*
X-108828Y-188000D01*
X-110000Y-186828D02*
Y-181000D01*
X-108828Y-188000D02*
X-92753D01*
X-100000Y-166000D02*
Y-160793D01*
X-101172Y-159621D02*
X-100000Y-160793D01*
X-132000Y-144000D02*
X-119000Y-131000D01*
X-103000D01*
X-102828Y-130828D02*
X-101172D01*
X-103000Y-131000D02*
X-102828Y-130828D01*
X-101172D02*
X-100000Y-132000D01*
Y-138500D02*
Y-132000D01*
X-104000Y-207828D02*
X-102828Y-209000D01*
X-95000D01*
X-104000Y-198172D02*
X-101828Y-196000D01*
X-104000Y-207828D02*
Y-198172D01*
X-102828Y-225000D02*
X-95000D01*
X-104000Y-223828D02*
X-102828Y-225000D01*
X-104000Y-223828D02*
Y-218172D01*
X-113000Y-217000D02*
X-105172D01*
X-104000Y-218172D01*
X-95000Y-217000D02*
X-94000Y-216000D01*
X-78500Y-208000D02*
Y-206500D01*
X-95000Y-201000D02*
X-84000D01*
X-78500Y-206500D01*
X-69500Y-208000D02*
Y-200500D01*
X-74000Y-196000D02*
X-69500Y-200500D01*
X-101828Y-196000D02*
X-74000D01*
X-94000Y-216000D02*
X-70672D01*
X-69500Y-217172D01*
Y-224000D02*
Y-217172D01*
X-59000Y-217000D02*
X-54000Y-222000D01*
X-59000Y-217000D02*
Y-192000D01*
X-103828Y-175247D02*
X-88247D01*
X-105000Y-181000D02*
Y-176419D01*
X-103828Y-175247D01*
X-105000Y-170576D02*
X-103828Y-171747D01*
X-89747D01*
X-105000Y-170576D02*
Y-166000D01*
X-89747Y-171747D02*
X-84000Y-166000D01*
X-105000Y-148844D02*
X-103828Y-147672D01*
X-88328D01*
X-105000Y-153500D02*
Y-148844D01*
X-88328Y-147672D02*
X-83175Y-152825D01*
X-105000Y-143000D02*
Y-138500D01*
Y-143000D02*
X-103828Y-144172D01*
X-84249D01*
X-69000Y-182000D02*
Y-132000D01*
Y-182000D02*
X-59000Y-192000D01*
X-52000Y-218000D02*
X-24999D01*
X-55000Y-215000D02*
X-52000Y-218000D01*
X-55000Y-215000D02*
Y-190000D01*
X-65000Y-180000D02*
X-55000Y-190000D01*
X-69000Y-109000D02*
X-57000D01*
X-74000Y-104000D02*
X-69000Y-109000D01*
X-61000Y-113000D02*
X-57000Y-109000D01*
X-61000Y-118000D02*
Y-113000D01*
X-73000Y-130000D02*
X-61000Y-118000D01*
X-90300Y-104000D02*
X-74000D01*
X-81434Y-152825D02*
X-80956Y-153303D01*
X-83175Y-152825D02*
X-81434D01*
X-90752Y-186000D02*
X-77000D01*
X-92753Y-188000D02*
X-90752Y-186000D01*
X-88247Y-175247D02*
X-85000Y-172000D01*
X-81000D01*
X-84000Y-166000D02*
X-76000D01*
X-73000Y-163000D01*
Y-130000D01*
X-84249Y-144172D02*
X-82900Y-145522D01*
X-81478D02*
X-81000Y-146000D01*
X-82900Y-145522D02*
X-81478D01*
X-82000Y-113000D02*
X-77000Y-118000D01*
X-118000Y-113000D02*
X-82000D01*
X-120000Y-117000D02*
X-87000D01*
X-81000Y-123000D01*
X-91000Y-121000D02*
X-81000Y-131000D01*
X-132800Y-121000D02*
X-91000D01*
X-94500Y-125500D02*
X-81000Y-139000D01*
X-136500Y-125500D02*
X-94500D01*
X2501Y-209500D02*
Y-197501D01*
X-188000Y-86000D02*
X-182000Y-92000D01*
X-170000D01*
X-136500Y-125500D01*
X-188000Y-63600D02*
X-176400Y-52000D01*
X-188000Y-86000D02*
Y-63600D01*
X-176400Y-77400D02*
X-132800Y-121000D01*
X-150272Y-86728D02*
Y-78128D01*
Y-86728D02*
X-120000Y-117000D01*
X-151000Y-77400D02*
X-150272Y-78128D01*
X169478Y-127478D02*
X173772D01*
X169000Y-127000D02*
X169478Y-127478D01*
X174250Y-132750D02*
X189000Y-118000D01*
Y-85422D01*
X171250Y-132750D02*
X174250D01*
X171000Y-133000D02*
X171250Y-132750D01*
X185000Y-116250D02*
Y-88000D01*
X173772Y-127478D02*
X185000Y-116250D01*
X-57000Y-109000D02*
X-40000D01*
X-32000Y-117000D01*
X19000D02*
X31000Y-129000D01*
X-32000Y-117000D02*
X19000D01*
X31000Y-129000D02*
X46323D01*
X48323Y-127000D01*
X49000D01*
X-56000Y-119000D02*
Y-115000D01*
X-54000Y-113000D01*
X-69000Y-132000D02*
X-56000Y-119000D01*
X88544Y-148000D02*
X90887Y-150343D01*
X76000Y-148000D02*
X88544D01*
Y-167000D02*
X90887Y-164657D01*
X76000Y-167000D02*
X88544D01*
X90887Y-164657D02*
Y-150343D01*
X55000Y-140422D02*
Y-132000D01*
X-70000Y-56000D02*
X-61000Y-65000D01*
X55000Y-132000D02*
X60000Y-127000D01*
X72000D01*
X62768Y-131000D02*
X77000D01*
X61478Y-132289D02*
X62768Y-131000D01*
X61000Y-135000D02*
X61478Y-134522D01*
Y-132289D01*
X77000Y-131000D02*
X85000Y-123000D01*
X72000Y-127000D02*
X75000Y-124000D01*
X85000Y-123000D02*
Y-92000D01*
X75000Y-124000D02*
Y-88000D01*
X46750Y-119500D02*
X64000D01*
X44000Y-122250D02*
X46750Y-119500D01*
X67000Y-116500D02*
Y-112000D01*
X64000Y-119500D02*
X67000Y-116500D01*
X53000Y-68000D02*
X156000D01*
X19000Y-102000D02*
X53000Y-68000D01*
X-25000Y-102000D02*
X19000D01*
X156000Y-68000D02*
X163000Y-61000D01*
X-125600Y-105400D02*
Y-77400D01*
Y-105400D02*
X-118000Y-113000D01*
X-61000Y-65000D02*
X-38400D01*
X-25400Y-52000D01*
X-9000Y-180000D02*
X7501Y-196501D01*
X-47000Y-180000D02*
X-9000D01*
X7501Y-205500D02*
Y-196501D01*
X-49000Y-184000D02*
X-11000D01*
X2501Y-197501D01*
X-51000Y-188000D02*
X-13000D01*
X-2499Y-198501D01*
Y-205500D02*
Y-198501D01*
X-65000Y-180000D02*
Y-134000D01*
X-49000Y-118000D01*
X-61000Y-178000D02*
Y-136000D01*
Y-178000D02*
X-51000Y-188000D01*
X-61000Y-136000D02*
X-53478Y-128478D01*
X-57000Y-138000D02*
X-51750Y-132750D01*
X-57000Y-176000D02*
X-49000Y-184000D01*
X-57000Y-176000D02*
Y-138000D01*
X-53000Y-174000D02*
Y-140000D01*
X-51170Y-138170D01*
X-53000Y-174000D02*
X-47000Y-180000D01*
X-51170Y-138170D02*
X-49170D01*
X-48691Y-137691D01*
X-51750Y-132750D02*
X-44000D01*
X-43875Y-132625D01*
X-49478Y-128478D02*
X-49000Y-128000D01*
X-53478Y-128478D02*
X-49478D01*
X-35000Y-77000D02*
X-5000D01*
X8750Y-63250D01*
X-12913Y-66837D02*
Y-43913D01*
Y-66837D02*
X-12750Y-67000D01*
X-44522Y-120850D02*
X-44000Y-120328D01*
Y-114172D01*
X-44522Y-122272D02*
Y-120850D01*
X-45000Y-122750D02*
X-44522Y-122272D01*
X-45172Y-113000D02*
X-44000Y-114172D01*
X-54000Y-113000D02*
X-45172D01*
X176000Y-147000D02*
X176478Y-146522D01*
Y-144522D02*
X182000Y-139000D01*
X176478Y-146522D02*
Y-144522D01*
X182250Y-152750D02*
Y-147750D01*
X182000Y-153000D02*
X182250Y-152750D01*
Y-147750D02*
X187000Y-143000D01*
X138000Y-62000D02*
Y-43000D01*
X136750Y-63250D02*
X138000Y-62000D01*
X8750Y-63250D02*
X136750D01*
X163000Y-61000D02*
Y-20000D01*
X10000Y-79000D02*
X22200D01*
X22000Y-78800D02*
Y-73000D01*
Y-78800D02*
X22200Y-79000D01*
X17250Y-68250D02*
X22000Y-73000D01*
X12000Y-68000D02*
X12250Y-68250D01*
X17250D01*
X-40212Y-86788D02*
X-25000Y-102000D01*
X-45788Y-86788D02*
X-40212D01*
X-46000Y-87000D02*
X-45788Y-86788D01*
X-9000Y-40000D02*
X129000D01*
X132300Y-36700D01*
X-12913Y-43913D02*
X-9000Y-40000D01*
X188250Y-83000D02*
X188728Y-83478D01*
Y-85150D02*
Y-83478D01*
Y-85150D02*
X189000Y-85422D01*
X182000Y-85000D02*
X185000Y-88000D01*
X182000Y-85000D02*
Y-80000D01*
X157000Y-14000D02*
X163000Y-20000D01*
X106900Y-21100D02*
X114000Y-14000D01*
X157000D01*
X106900Y-28000D02*
Y-21100D01*
X138000Y-43000D02*
X142000Y-39000D01*
X154000D01*
X120457Y-21543D02*
X124000Y-18000D01*
X154000D01*
X119600Y-28000D02*
X120457Y-27143D01*
Y-21543D01*
X154000Y-18000D02*
X157000Y-21000D01*
Y-36000D02*
Y-21000D01*
X154000Y-39000D02*
X157000Y-36000D01*
X132300Y-36700D02*
Y-28000D01*
D11*
X-100000Y-153500D02*
X-90500D01*
X-84243Y-159757D02*
X-81243D01*
X-81000Y-160000D01*
X-90500Y-153500D02*
X-84243Y-159757D01*
X-84541Y-181000D02*
X-82541Y-179000D01*
X-100000Y-181000D02*
X-84541D01*
X-82541Y-179000D02*
X-82000D01*
X-110000Y-142535D02*
Y-138500D01*
X-112250Y-144785D02*
X-110000Y-142535D01*
X-112250Y-145000D02*
Y-144785D01*
Y-172000D02*
Y-171786D01*
X-110000Y-169536D01*
Y-166000D01*
X-2000Y-168000D02*
X2500Y-172500D01*
X4000Y-174000D01*
X2500Y-172500D02*
Y-156100D01*
X7750Y-167750D02*
Y-156350D01*
Y-167750D02*
X8000Y-168000D01*
X7500Y-156100D02*
X7750Y-156350D01*
X4000Y-174000D02*
X7000D01*
X7500Y-156100D02*
Y-146500D01*
X-7500Y-166500D02*
X-6000Y-168000D01*
X-2000D01*
X6000Y-145000D02*
X7500Y-146500D01*
X-1036Y-145000D02*
X6000D01*
X-2500Y-146465D02*
X-1036Y-145000D01*
X-2500Y-156100D02*
Y-146465D01*
X-7500Y-166500D02*
Y-156100D01*
D20*
X91000Y-183000D02*
D03*
X76000D02*
D03*
D21*
X-99800Y-92000D02*
D03*
X31800Y-79000D02*
D03*
X140400Y-142000D02*
D03*
X150000D02*
D03*
X-90200Y-92000D02*
D03*
X22200Y-79000D02*
D03*
D32*
X-43200Y-203650D02*
D03*
X43200D02*
D03*
D33*
X-43200Y-161850D02*
D03*
X43200D02*
D03*
D38*
X-28900Y-166850D02*
D03*
X28900D02*
D03*
D42*
X135000Y-142000D02*
X140400D01*
X116000Y-157400D02*
Y-152000D01*
X165000Y-167000D02*
Y-159000D01*
X91000Y-182250D02*
X93500Y-179750D01*
X91000Y-183000D02*
Y-182250D01*
X93500Y-179750D02*
X95844D01*
X97594Y-178000D01*
X98000D01*
X14000Y-181000D02*
X22000Y-173000D01*
X22650Y-157450D02*
X24000Y-156100D01*
X22000Y-172594D02*
X22650Y-171944D01*
Y-157450D01*
X22000Y-173000D02*
Y-172594D01*
X0Y-181000D02*
X14000D01*
X-15000Y-175000D02*
X-6000D01*
X0Y-181000D01*
X-24000Y-156100D02*
X-22500Y-157600D01*
Y-167500D02*
Y-157600D01*
Y-167500D02*
X-15000Y-175000D01*
D43*
X-11650Y-134400D02*
X-10250Y-133000D01*
X-10000D01*
X-11650Y-134650D02*
Y-134400D01*
X-17500Y-140500D02*
X-11650Y-134650D01*
X-17500Y-156100D02*
Y-140500D01*
X10000Y-140375D02*
X12500Y-142875D01*
X10000Y-140375D02*
Y-133000D01*
X12500Y-156100D02*
Y-142875D01*
D44*
X-58650Y-83000D02*
X-58150Y-82500D01*
X-67000Y-83000D02*
X-58650D01*
X-58150Y-82500D02*
X-57300D01*
X-52800Y-78000D01*
X-49000D01*
X67600Y-157500D02*
X76000D01*
X84400D01*
X67600Y-203000D02*
X76000D01*
X40000Y-144000D02*
X48000D01*
X149300Y-159000D02*
X150000Y-158300D01*
Y-142000D01*
X162250D01*
X164250Y-144000D01*
X162942Y-142250D02*
X164692Y-144000D01*
X162942Y-142250D02*
Y-136942D01*
X160000Y-134000D02*
X162942Y-136942D01*
X144000Y-134000D02*
X152000D01*
X160000D01*
X-85000Y-224000D02*
X-78500D01*
X164250Y-144000D02*
X164692D01*
X165000D01*
X106000Y-206000D02*
Y-203000D01*
X102750Y-208750D02*
X103250D01*
X89500Y-222000D02*
X102750Y-208750D01*
X103250D02*
X106000Y-206000D01*
D45*
X56000Y-216000D02*
X62000Y-222000D01*
X74500D01*
X56000Y-216000D02*
Y-192000D01*
X47000Y-183000D02*
X56000Y-192000D01*
X47000Y-183000D02*
X76000D01*
X16000D02*
X47000D01*
X76000D02*
Y-167000D01*
X14000Y-181000D02*
X16000Y-183000D01*
X123507Y-166500D02*
X125850Y-164157D01*
Y-160150D02*
X127000Y-159000D01*
X125850Y-164157D02*
Y-160150D01*
X116500Y-166500D02*
X123507D01*
X116000Y-167000D02*
X116500Y-166500D01*
X102000Y-167000D02*
X116000D01*
D46*
X206500Y-96500D02*
D03*
X-206500D02*
D03*
D47*
X-135000Y-186000D02*
D03*
X135000D02*
D03*
D48*
X-208000Y-165000D02*
D03*
Y-111000D02*
D03*
Y-57000D02*
D03*
X208000Y-165000D02*
D03*
Y-111000D02*
D03*
Y-57000D02*
D03*
D49*
X-208000Y-138000D02*
D03*
Y-84000D02*
D03*
Y-30000D02*
D03*
X208000Y-138000D02*
D03*
Y-84000D02*
D03*
Y-30000D02*
D03*
D50*
X-151000Y-52000D02*
D03*
X-50800D02*
D03*
X100000D02*
D03*
X172800Y-108000D02*
D03*
X147400D02*
D03*
X122000D02*
D03*
X-125600Y-77400D02*
D03*
X-151000D02*
D03*
X-176400Y-52000D02*
D03*
Y-77400D02*
D03*
X-25400Y-52000D02*
D03*
X0D02*
D03*
X25400D02*
D03*
X125400D02*
D03*
X150800D02*
D03*
D51*
X-81500Y-28000D02*
D03*
X145000D02*
D03*
D52*
X81500D02*
D03*
X-106900D02*
D03*
X-132300D02*
D03*
X106900D02*
D03*
X-119600D02*
D03*
X94200D02*
D03*
X132300D02*
D03*
X119600D02*
D03*
X-145000D02*
D03*
X-94200D02*
D03*
D53*
X-125600Y-52000D02*
D03*
X50800D02*
D03*
X176200D02*
D03*
X96600Y-108000D02*
D03*
D54*
X110000Y-139000D02*
D03*
X-192499Y-205500D02*
D03*
X-22499Y-198500D02*
D03*
X-67000Y-83000D02*
D03*
X-49000Y-78000D02*
D03*
X176000Y-154000D02*
D03*
X44000Y-112750D02*
D03*
X80000Y-98000D02*
D03*
Y-113000D02*
D03*
X135000Y-142000D02*
D03*
X116000Y-152000D02*
D03*
X67600Y-157500D02*
D03*
X84400D02*
D03*
X67600Y-203000D02*
D03*
X118000Y-199000D02*
D03*
X165000Y-167000D02*
D03*
X98000Y-178000D02*
D03*
X-81000Y-160000D02*
D03*
X-82000Y-179000D02*
D03*
X-112250Y-145000D02*
D03*
Y-172000D02*
D03*
X-122000Y-201000D02*
D03*
X-157499Y-205500D02*
D03*
X173000Y-189000D02*
D03*
X22501Y-198500D02*
D03*
X-51000Y-103000D02*
D03*
X-43000D02*
D03*
X48000Y-144000D02*
D03*
X40000D02*
D03*
X160000Y-134000D02*
D03*
X152000D02*
D03*
X144000D02*
D03*
X-85000Y-224000D02*
D03*
X-86000Y-210000D02*
D03*
X76000Y-73000D02*
D03*
X64000D02*
D03*
X57000D02*
D03*
X-12499Y-205500D02*
D03*
X-116000Y-154000D02*
D03*
X-137000Y-151000D02*
D03*
X-80956Y-153303D02*
D03*
X-77000Y-186000D02*
D03*
X-81000Y-172000D02*
D03*
X-77000Y-118000D02*
D03*
X-81000Y-123000D02*
D03*
Y-131000D02*
D03*
Y-139000D02*
D03*
Y-146000D02*
D03*
X2501Y-209500D02*
D03*
X-7499D02*
D03*
X169000Y-127000D02*
D03*
X171000Y-133000D02*
D03*
X55000Y-140422D02*
D03*
X-70000Y-56000D02*
D03*
X61000Y-135000D02*
D03*
X49000Y-127000D02*
D03*
X44000Y-122250D02*
D03*
X22000Y-173000D02*
D03*
X8000Y-168000D02*
D03*
X7000Y-174000D02*
D03*
X-48691Y-137691D02*
D03*
X-49000Y-128000D02*
D03*
X-35000Y-77000D02*
D03*
X-12750Y-67000D02*
D03*
X-49000Y-118000D02*
D03*
X-45000Y-122750D02*
D03*
X176000Y-147000D02*
D03*
X182000Y-139000D02*
D03*
Y-153000D02*
D03*
X187000Y-143000D02*
D03*
X7501Y-205500D02*
D03*
X-43875Y-132625D02*
D03*
X-2499Y-205500D02*
D03*
X12000Y-68000D02*
D03*
X182000Y-80000D02*
D03*
X188250Y-83000D02*
D03*
X-46000Y-87000D02*
D03*
D55*
X-20000Y-130000D02*
D03*
X0D02*
D03*
X-20000Y-90000D02*
D03*
X0Y-110000D02*
D03*
X-20000D02*
D03*
X0Y-90000D02*
D03*
X20000Y-130000D02*
D03*
Y-110000D02*
D03*
Y-90000D02*
D03*
D56*
X-58150Y-101500D02*
X-56650Y-103000D01*
X-51000D01*
X-43000D01*
X-90200Y-88800D02*
X-87000Y-92000D01*
X-90200Y-88800D02*
Y-77800D01*
Y-92000D02*
Y-88800D01*
Y-87000D01*
X-106000Y-62000D02*
X-90200Y-77800D01*
X-87000Y-92000D02*
X-75850D01*
X-118643Y-33357D02*
X-106000Y-46000D01*
X-118643Y-33357D02*
Y-28957D01*
X-106000Y-62000D02*
Y-46000D01*
X-119600Y-28000D02*
X-118643Y-28957D01*
D57*
X-32000Y-156100D02*
D03*
X32000D02*
D03*
X24000D02*
D03*
X-24000D02*
D03*
D58*
X-10000Y-123600D02*
D03*
X10000D02*
D03*
X-10000Y-133000D02*
D03*
X10000D02*
D03*
D59*
X-58150Y-82500D02*
D03*
Y-101500D02*
D03*
X-75850Y-92000D02*
D03*
D60*
X76000Y-203000D02*
D03*
X106000D02*
D03*
D61*
X10000Y-94000D02*
D03*
X165000Y-159000D02*
D03*
Y-144000D02*
D03*
X10000Y-79000D02*
D03*
D62*
X116000Y-157400D02*
D03*
Y-167000D02*
D03*
D63*
X76000Y-157500D02*
D03*
X102000Y-148000D02*
D03*
Y-167000D02*
D03*
X76000D02*
D03*
Y-148000D02*
D03*
D64*
X50000Y-95500D02*
D03*
D65*
X33000Y-112000D02*
D03*
X67000D02*
D03*
D66*
X-100000Y-153500D02*
D03*
X-110000Y-138500D02*
D03*
Y-166000D02*
D03*
X-100000Y-181000D02*
D03*
Y-166000D02*
D03*
Y-138500D02*
D03*
X-110000Y-153500D02*
D03*
Y-181000D02*
D03*
X-105000D02*
D03*
Y-166000D02*
D03*
Y-138500D02*
D03*
Y-153500D02*
D03*
D67*
X-99700Y-104000D02*
D03*
X-90300D02*
D03*
D68*
X-78500Y-224000D02*
D03*
Y-208000D02*
D03*
X-69500D02*
D03*
Y-224000D02*
D03*
D69*
X149300Y-159000D02*
D03*
X127000D02*
D03*
D70*
X-113000Y-225000D02*
D03*
X-95000D02*
D03*
Y-217000D02*
D03*
X-113000D02*
D03*
Y-209000D02*
D03*
X-95000D02*
D03*
X-113000Y-201000D02*
D03*
X-95000D02*
D03*
D71*
X-17500Y-156100D02*
D03*
X12500D02*
D03*
X7500D02*
D03*
X-2500D02*
D03*
X2500D02*
D03*
X-7500D02*
D03*
X-12500D02*
D03*
X17500D02*
D03*
D72*
X74500Y-222000D02*
D03*
X89500D02*
D03*
M02*
