G04*
G04 #@! TF.GenerationSoftware,Altium Limited,Altium Designer,26.5.0 (11)*
G04*
G04 Layer_Physical_Order=2*
G04 Layer_Color=36540*
G04 Board_Origin=37750000|36400000*
%FSLAX44Y44*%
%MOMM*%
G71*
G04*
G04 #@! TF.SameCoordinates,0A58002B-885F-4A8B-801D-3CB6CDD3C1E0*
G04*
G04*
G04 #@! TF.FilePolarity,Positive*
G04*
G01*
G75*
%ADD32O,1.0000X1.8000*%
%ADD33O,1.0000X2.1000*%
%ADD38C,0.6500*%
%ADD44C,0.4500*%
%ADD47C,2.0000*%
%ADD48C,1.8000*%
%ADD49C,2.5000*%
%ADD50C,1.5000*%
%ADD51R,1.0000X1.0000*%
%ADD52C,1.0000*%
%ADD53R,1.5000X1.5000*%
%ADD54C,0.4500*%
%ADD55C,0.6000*%
%ADD56C,0.5000*%
G36*
X214000Y-2836D02*
X215854Y-3080D01*
X217582Y-3796D01*
X219066Y-4934D01*
X220205Y-6418D01*
X220920Y-8146D01*
X221164Y-10000D01*
X221176D01*
Y-23281D01*
X219906Y-23621D01*
X218803Y-21711D01*
X216289Y-19197D01*
X213211Y-17420D01*
X209777Y-16500D01*
X209270D01*
Y-30000D01*
Y-43500D01*
X209777D01*
X213211Y-42580D01*
X216289Y-40803D01*
X218803Y-38289D01*
X219906Y-36379D01*
X221176Y-36719D01*
Y-77281D01*
X219906Y-77621D01*
X218803Y-75711D01*
X216289Y-73197D01*
X213211Y-71420D01*
X209777Y-70500D01*
X209270D01*
Y-84000D01*
Y-97500D01*
X209777D01*
X213211Y-96580D01*
X216289Y-94803D01*
X218803Y-92289D01*
X219906Y-90379D01*
X221176Y-90719D01*
Y-131281D01*
X219906Y-131621D01*
X218803Y-129711D01*
X216289Y-127197D01*
X213211Y-125420D01*
X209777Y-124500D01*
X209270D01*
Y-138000D01*
Y-151500D01*
X209777D01*
X213211Y-150580D01*
X216289Y-148803D01*
X218803Y-146289D01*
X219906Y-144379D01*
X221176Y-144719D01*
Y-223000D01*
X221164D01*
X220920Y-224854D01*
X220205Y-226582D01*
X219066Y-228066D01*
X217582Y-229205D01*
X215854Y-229920D01*
X214000Y-230164D01*
Y-230176D01*
X-214000D01*
Y-230164D01*
X-215854Y-229920D01*
X-217582Y-229205D01*
X-219066Y-228066D01*
X-220205Y-226582D01*
X-220920Y-224854D01*
X-221164Y-223000D01*
X-221176D01*
Y-144719D01*
X-219906Y-144379D01*
X-218803Y-146289D01*
X-216289Y-148803D01*
X-213211Y-150580D01*
X-209777Y-151500D01*
X-209270D01*
Y-138000D01*
Y-124500D01*
X-209777D01*
X-213211Y-125420D01*
X-216289Y-127197D01*
X-218803Y-129711D01*
X-219906Y-131621D01*
X-221176Y-131281D01*
Y-90719D01*
X-219906Y-90379D01*
X-218803Y-92289D01*
X-216289Y-94803D01*
X-213211Y-96580D01*
X-209777Y-97500D01*
X-209270D01*
Y-84000D01*
Y-70500D01*
X-209777D01*
X-213211Y-71420D01*
X-216289Y-73197D01*
X-218803Y-75711D01*
X-219906Y-77621D01*
X-221176Y-77281D01*
Y-36719D01*
X-219906Y-36379D01*
X-218803Y-38289D01*
X-216289Y-40803D01*
X-213211Y-42580D01*
X-209777Y-43500D01*
X-209270D01*
Y-30000D01*
Y-16500D01*
X-209777D01*
X-213211Y-17420D01*
X-216289Y-19197D01*
X-218803Y-21711D01*
X-219906Y-23621D01*
X-221176Y-23281D01*
Y-10000D01*
X-221164D01*
X-220920Y-8146D01*
X-220205Y-6418D01*
X-219066Y-4934D01*
X-217582Y-3796D01*
X-215854Y-3080D01*
X-214000Y-2836D01*
Y-2824D01*
X-87344D01*
X-86074Y-2825D01*
X-84850Y-2936D01*
X-82372Y-3262D01*
X-78922Y-4692D01*
X-75959Y-6965D01*
X-73686Y-9927D01*
X-72257Y-13378D01*
X-71789Y-16930D01*
X-71819Y-17080D01*
Y-21362D01*
X-71844D01*
X-71527Y-24576D01*
X-70590Y-27666D01*
X-69068Y-30514D01*
X-67019Y-33011D01*
X-64522Y-35059D01*
X-61674Y-36582D01*
X-58584Y-37519D01*
X-55370Y-37836D01*
X-55370Y-37836D01*
X-54100Y-37824D01*
X55000Y-37824D01*
X55370Y-37836D01*
Y-37836D01*
X58584Y-37519D01*
X61674Y-36582D01*
X64522Y-35059D01*
X67019Y-33011D01*
X69068Y-30514D01*
X70590Y-27666D01*
X71527Y-24576D01*
X71844Y-21362D01*
X71819D01*
Y-17080D01*
X71789Y-16930D01*
X72257Y-13378D01*
X73686Y-9927D01*
X75959Y-6965D01*
X78922Y-4692D01*
X82372Y-3262D01*
X84850Y-2936D01*
X86074Y-2825D01*
Y-2825D01*
X86076Y-2824D01*
X214000D01*
Y-2836D01*
D02*
G37*
%LPC*%
G36*
X151500Y-21500D02*
X138500D01*
Y-23296D01*
X138360Y-23396D01*
X137230Y-23738D01*
X136291Y-22799D01*
X134809Y-21943D01*
X133156Y-21500D01*
X131444D01*
X129791Y-21943D01*
X128309Y-22799D01*
X127099Y-24009D01*
X126683Y-24729D01*
X125217D01*
X124801Y-24009D01*
X123591Y-22799D01*
X122109Y-21943D01*
X120456Y-21500D01*
X118744D01*
X117091Y-21943D01*
X115609Y-22799D01*
X114399Y-24009D01*
X113983Y-24729D01*
X112517D01*
X112101Y-24009D01*
X110891Y-22799D01*
X109409Y-21943D01*
X107756Y-21500D01*
X106044D01*
X104391Y-21943D01*
X102909Y-22799D01*
X101699Y-24009D01*
X101283Y-24729D01*
X99817D01*
X99401Y-24009D01*
X98191Y-22799D01*
X96709Y-21943D01*
X95056Y-21500D01*
X93344D01*
X91691Y-21943D01*
X90209Y-22799D01*
X88999Y-24009D01*
X88252Y-25303D01*
X87568Y-25406D01*
X86878Y-25305D01*
X86587Y-24601D01*
X84899Y-22913D01*
X82770Y-22032D01*
Y-28000D01*
Y-33968D01*
X84899Y-33087D01*
X86587Y-31399D01*
X86878Y-30695D01*
X87568Y-30594D01*
X88252Y-30697D01*
X88999Y-31991D01*
X90209Y-33201D01*
X91691Y-34057D01*
X93344Y-34500D01*
X95056D01*
X96709Y-34057D01*
X98191Y-33201D01*
X99401Y-31991D01*
X99817Y-31271D01*
X101283D01*
X101699Y-31991D01*
X102909Y-33201D01*
X104391Y-34057D01*
X106044Y-34500D01*
X107756D01*
X109409Y-34057D01*
X110891Y-33201D01*
X112101Y-31991D01*
X112517Y-31271D01*
X113983D01*
X114399Y-31991D01*
X115609Y-33201D01*
X117091Y-34057D01*
X118744Y-34500D01*
X120456D01*
X122109Y-34057D01*
X123591Y-33201D01*
X124801Y-31991D01*
X125217Y-31271D01*
X126683D01*
X127099Y-31991D01*
X128309Y-33201D01*
X129791Y-34057D01*
X131444Y-34500D01*
X133156D01*
X134809Y-34057D01*
X136291Y-33201D01*
X137230Y-32262D01*
X138360Y-32604D01*
X138500Y-32704D01*
Y-34500D01*
X151500D01*
Y-21500D01*
D02*
G37*
G36*
X-93344D02*
X-95056D01*
X-96709Y-21943D01*
X-98191Y-22799D01*
X-99401Y-24009D01*
X-99817Y-24729D01*
X-101283D01*
X-101699Y-24009D01*
X-102909Y-22799D01*
X-104391Y-21943D01*
X-106044Y-21500D01*
X-107756D01*
X-109409Y-21943D01*
X-110891Y-22799D01*
X-112101Y-24009D01*
X-112517Y-24729D01*
X-113983D01*
X-114399Y-24009D01*
X-115609Y-22799D01*
X-117091Y-21943D01*
X-118744Y-21500D01*
X-120456D01*
X-122109Y-21943D01*
X-123591Y-22799D01*
X-124801Y-24009D01*
X-125217Y-24729D01*
X-126683D01*
X-127099Y-24009D01*
X-128309Y-22799D01*
X-129791Y-21943D01*
X-131444Y-21500D01*
X-133156D01*
X-134809Y-21943D01*
X-136291Y-22799D01*
X-137501Y-24009D01*
X-137917Y-24729D01*
X-139383D01*
X-139799Y-24009D01*
X-141009Y-22799D01*
X-142491Y-21943D01*
X-144144Y-21500D01*
X-145856D01*
X-147509Y-21943D01*
X-148991Y-22799D01*
X-150201Y-24009D01*
X-151057Y-25491D01*
X-151500Y-27144D01*
Y-28856D01*
X-151057Y-30509D01*
X-150201Y-31991D01*
X-148991Y-33201D01*
X-147509Y-34057D01*
X-145856Y-34500D01*
X-144144D01*
X-142491Y-34057D01*
X-141009Y-33201D01*
X-139799Y-31991D01*
X-139383Y-31271D01*
X-137917D01*
X-137501Y-31991D01*
X-136291Y-33201D01*
X-134809Y-34057D01*
X-133156Y-34500D01*
X-131444D01*
X-129791Y-34057D01*
X-128309Y-33201D01*
X-127099Y-31991D01*
X-126683Y-31271D01*
X-125217D01*
X-124801Y-31991D01*
X-123591Y-33201D01*
X-122109Y-34057D01*
X-120456Y-34500D01*
X-118744D01*
X-117091Y-34057D01*
X-115609Y-33201D01*
X-114399Y-31991D01*
X-113983Y-31271D01*
X-112517D01*
X-112101Y-31991D01*
X-110891Y-33201D01*
X-109409Y-34057D01*
X-107756Y-34500D01*
X-106044D01*
X-104391Y-34057D01*
X-102909Y-33201D01*
X-101699Y-31991D01*
X-101283Y-31271D01*
X-99817D01*
X-99401Y-31991D01*
X-98191Y-33201D01*
X-96709Y-34057D01*
X-95056Y-34500D01*
X-93344D01*
X-91691Y-34057D01*
X-90209Y-33201D01*
X-88999Y-31991D01*
X-88770Y-31595D01*
X-87500Y-31935D01*
Y-34000D01*
X-82770D01*
Y-28000D01*
Y-22000D01*
X-87500D01*
Y-24065D01*
X-88770Y-24405D01*
X-88999Y-24009D01*
X-90209Y-22799D01*
X-91691Y-21943D01*
X-93344Y-21500D01*
D02*
G37*
G36*
X-75500Y-22000D02*
X-80230D01*
Y-26730D01*
X-75500D01*
Y-22000D01*
D02*
G37*
G36*
X80230Y-22032D02*
X78101Y-22913D01*
X76413Y-24601D01*
X75532Y-26730D01*
X80230D01*
Y-22032D01*
D02*
G37*
G36*
X-206223Y-16500D02*
X-206730D01*
Y-28730D01*
X-194500D01*
Y-28223D01*
X-195420Y-24789D01*
X-197197Y-21711D01*
X-199711Y-19197D01*
X-202789Y-17420D01*
X-206223Y-16500D01*
D02*
G37*
G36*
X206730D02*
X206223D01*
X202789Y-17420D01*
X199711Y-19197D01*
X197197Y-21711D01*
X195420Y-24789D01*
X194500Y-28223D01*
Y-28730D01*
X206730D01*
Y-16500D01*
D02*
G37*
G36*
X80230Y-29270D02*
X75532D01*
X76413Y-31399D01*
X78101Y-33087D01*
X80230Y-33968D01*
Y-29270D01*
D02*
G37*
G36*
X-75500Y-29270D02*
X-80230D01*
Y-34000D01*
X-75500D01*
Y-29270D01*
D02*
G37*
G36*
X206730Y-31270D02*
X194500D01*
Y-31777D01*
X195420Y-35211D01*
X197197Y-38289D01*
X199711Y-40803D01*
X202789Y-42580D01*
X206223Y-43500D01*
X206730D01*
Y-31270D01*
D02*
G37*
G36*
X-194500Y-31270D02*
X-206730D01*
Y-43500D01*
X-206223D01*
X-202789Y-42580D01*
X-199711Y-40803D01*
X-197197Y-38289D01*
X-195420Y-35211D01*
X-194500Y-31777D01*
Y-31270D01*
D02*
G37*
G36*
X-49530Y-43541D02*
Y-50730D01*
X-42340D01*
X-42879Y-48719D01*
X-43998Y-46781D01*
X-45581Y-45198D01*
X-47519Y-44079D01*
X-49530Y-43541D01*
D02*
G37*
G36*
X-149730D02*
Y-50730D01*
X-142541D01*
X-143079Y-48719D01*
X-144198Y-46781D01*
X-145781Y-45198D01*
X-147719Y-44079D01*
X-149730Y-43541D01*
D02*
G37*
G36*
X101270D02*
Y-50730D01*
X108460D01*
X107921Y-48719D01*
X106802Y-46781D01*
X105219Y-45198D01*
X103281Y-44079D01*
X101270Y-43541D01*
D02*
G37*
G36*
X-152270D02*
X-154281Y-44079D01*
X-156219Y-45198D01*
X-157802Y-46781D01*
X-158921Y-48719D01*
X-159459Y-50730D01*
X-152270D01*
Y-43541D01*
D02*
G37*
G36*
X-52070D02*
X-54081Y-44079D01*
X-56019Y-45198D01*
X-57602Y-46781D01*
X-58721Y-48719D01*
X-59260Y-50730D01*
X-52070D01*
Y-43541D01*
D02*
G37*
G36*
X98730D02*
X96719Y-44079D01*
X94781Y-45198D01*
X93198Y-46781D01*
X92079Y-48719D01*
X91540Y-50730D01*
X98730D01*
Y-43541D01*
D02*
G37*
G36*
X-206684Y-47000D02*
X-206730D01*
Y-55730D01*
X-198000D01*
Y-55683D01*
X-198682Y-53140D01*
X-199998Y-50860D01*
X-201860Y-48998D01*
X-204140Y-47681D01*
X-206684Y-47000D01*
D02*
G37*
G36*
X-209270D02*
X-209317D01*
X-211860Y-47681D01*
X-214140Y-48998D01*
X-216002Y-50860D01*
X-217318Y-53140D01*
X-218000Y-55683D01*
Y-55730D01*
X-209270D01*
Y-47000D01*
D02*
G37*
G36*
X209317D02*
X209270D01*
Y-55730D01*
X218000D01*
Y-55683D01*
X217318Y-53140D01*
X216002Y-50860D01*
X214140Y-48998D01*
X211860Y-47681D01*
X209317Y-47000D01*
D02*
G37*
G36*
X206730D02*
X206684D01*
X204140Y-47681D01*
X201860Y-48998D01*
X199998Y-50860D01*
X198682Y-53140D01*
X198000Y-55683D01*
Y-55730D01*
X206730D01*
Y-47000D01*
D02*
G37*
G36*
X-69254Y-52250D02*
X-70746D01*
X-72124Y-52821D01*
X-73179Y-53876D01*
X-73750Y-55254D01*
Y-56746D01*
X-73179Y-58124D01*
X-72124Y-59179D01*
X-70746Y-59750D01*
X-69254D01*
X-67876Y-59179D01*
X-66821Y-58124D01*
X-66250Y-56746D01*
Y-55254D01*
X-66821Y-53876D01*
X-67876Y-52821D01*
X-69254Y-52250D01*
D02*
G37*
G36*
X108460Y-53270D02*
X101270D01*
Y-60459D01*
X103281Y-59921D01*
X105219Y-58802D01*
X106802Y-57219D01*
X107921Y-55281D01*
X108460Y-53270D01*
D02*
G37*
G36*
X-42340D02*
X-49530D01*
Y-60459D01*
X-47519Y-59921D01*
X-45581Y-58802D01*
X-43998Y-57219D01*
X-42879Y-55281D01*
X-42340Y-53270D01*
D02*
G37*
G36*
X-142541D02*
X-149730D01*
Y-60459D01*
X-147719Y-59921D01*
X-145781Y-58802D01*
X-144198Y-57219D01*
X-143079Y-55281D01*
X-142541Y-53270D01*
D02*
G37*
G36*
X98730D02*
X91540D01*
X92079Y-55281D01*
X93198Y-57219D01*
X94781Y-58802D01*
X96719Y-59921D01*
X98730Y-60459D01*
Y-53270D01*
D02*
G37*
G36*
X-52070D02*
X-59260D01*
X-58721Y-55281D01*
X-57602Y-57219D01*
X-56019Y-58802D01*
X-54081Y-59921D01*
X-52070Y-60459D01*
Y-53270D01*
D02*
G37*
G36*
X-152270D02*
X-159459D01*
X-158921Y-55281D01*
X-157802Y-57219D01*
X-156219Y-58802D01*
X-154281Y-59921D01*
X-152270Y-60459D01*
Y-53270D01*
D02*
G37*
G36*
X185200Y-43000D02*
X167200D01*
Y-61000D01*
X185200D01*
Y-43000D01*
D02*
G37*
G36*
X151985D02*
X149615D01*
X147326Y-43613D01*
X145274Y-44798D01*
X143598Y-46474D01*
X142413Y-48526D01*
X141800Y-50815D01*
Y-53185D01*
X142413Y-55474D01*
X143598Y-57526D01*
X145274Y-59202D01*
X147326Y-60387D01*
X149615Y-61000D01*
X151985D01*
X154274Y-60387D01*
X156326Y-59202D01*
X158002Y-57526D01*
X159187Y-55474D01*
X159800Y-53185D01*
Y-50815D01*
X159187Y-48526D01*
X158002Y-46474D01*
X156326Y-44798D01*
X154274Y-43613D01*
X151985Y-43000D01*
D02*
G37*
G36*
X126585D02*
X124215D01*
X121926Y-43613D01*
X119874Y-44798D01*
X118198Y-46474D01*
X117013Y-48526D01*
X116400Y-50815D01*
Y-53185D01*
X117013Y-55474D01*
X118198Y-57526D01*
X119874Y-59202D01*
X121926Y-60387D01*
X124215Y-61000D01*
X126585D01*
X128874Y-60387D01*
X130926Y-59202D01*
X132602Y-57526D01*
X133787Y-55474D01*
X134400Y-53185D01*
Y-50815D01*
X133787Y-48526D01*
X132602Y-46474D01*
X130926Y-44798D01*
X128874Y-43613D01*
X126585Y-43000D01*
D02*
G37*
G36*
X59800D02*
X41800D01*
Y-61000D01*
X59800D01*
Y-43000D01*
D02*
G37*
G36*
X26585D02*
X24215D01*
X21926Y-43613D01*
X19874Y-44798D01*
X18198Y-46474D01*
X17013Y-48526D01*
X16400Y-50815D01*
Y-53185D01*
X17013Y-55474D01*
X18198Y-57526D01*
X19874Y-59202D01*
X21926Y-60387D01*
X24215Y-61000D01*
X26585D01*
X28874Y-60387D01*
X30926Y-59202D01*
X32602Y-57526D01*
X33787Y-55474D01*
X34400Y-53185D01*
Y-50815D01*
X33787Y-48526D01*
X32602Y-46474D01*
X30926Y-44798D01*
X28874Y-43613D01*
X26585Y-43000D01*
D02*
G37*
G36*
X1185D02*
X-1185D01*
X-3474Y-43613D01*
X-5526Y-44798D01*
X-7202Y-46474D01*
X-8387Y-48526D01*
X-9000Y-50815D01*
Y-53185D01*
X-8387Y-55474D01*
X-7202Y-57526D01*
X-5526Y-59202D01*
X-3474Y-60387D01*
X-1185Y-61000D01*
X1185D01*
X3474Y-60387D01*
X5526Y-59202D01*
X7202Y-57526D01*
X8387Y-55474D01*
X9000Y-53185D01*
Y-50815D01*
X8387Y-48526D01*
X7202Y-46474D01*
X5526Y-44798D01*
X3474Y-43613D01*
X1185Y-43000D01*
D02*
G37*
G36*
X-24215D02*
X-26585D01*
X-28874Y-43613D01*
X-30926Y-44798D01*
X-32602Y-46474D01*
X-33787Y-48526D01*
X-34400Y-50815D01*
Y-53185D01*
X-33787Y-55474D01*
X-32602Y-57526D01*
X-30926Y-59202D01*
X-28874Y-60387D01*
X-26585Y-61000D01*
X-24215D01*
X-21926Y-60387D01*
X-19874Y-59202D01*
X-18198Y-57526D01*
X-17013Y-55474D01*
X-16400Y-53185D01*
Y-50815D01*
X-17013Y-48526D01*
X-18198Y-46474D01*
X-19874Y-44798D01*
X-21926Y-43613D01*
X-24215Y-43000D01*
D02*
G37*
G36*
X-116600D02*
X-134600D01*
Y-61000D01*
X-116600D01*
Y-43000D01*
D02*
G37*
G36*
X-175215D02*
X-177585D01*
X-179874Y-43613D01*
X-181926Y-44798D01*
X-183602Y-46474D01*
X-184787Y-48526D01*
X-185400Y-50815D01*
Y-53185D01*
X-184787Y-55474D01*
X-183602Y-57526D01*
X-181926Y-59202D01*
X-179874Y-60387D01*
X-177585Y-61000D01*
X-175215D01*
X-172926Y-60387D01*
X-170874Y-59202D01*
X-169198Y-57526D01*
X-168013Y-55474D01*
X-167400Y-53185D01*
Y-50815D01*
X-168013Y-48526D01*
X-169198Y-46474D01*
X-170874Y-44798D01*
X-172926Y-43613D01*
X-175215Y-43000D01*
D02*
G37*
G36*
X218000Y-58270D02*
X209270D01*
Y-67000D01*
X209317D01*
X211860Y-66318D01*
X214140Y-65002D01*
X216002Y-63140D01*
X217318Y-60860D01*
X218000Y-58316D01*
Y-58270D01*
D02*
G37*
G36*
X206730D02*
X198000D01*
Y-58316D01*
X198682Y-60860D01*
X199998Y-63140D01*
X201860Y-65002D01*
X204140Y-66318D01*
X206684Y-67000D01*
X206730D01*
Y-58270D01*
D02*
G37*
G36*
X-198000Y-58270D02*
X-206730D01*
Y-67000D01*
X-206684D01*
X-204140Y-66318D01*
X-201860Y-65002D01*
X-199998Y-63140D01*
X-198682Y-60860D01*
X-198000Y-58316D01*
Y-58270D01*
D02*
G37*
G36*
X-209270D02*
X-218000D01*
Y-58316D01*
X-217318Y-60860D01*
X-216002Y-63140D01*
X-214140Y-65002D01*
X-211860Y-66318D01*
X-209317Y-67000D01*
X-209270D01*
Y-58270D01*
D02*
G37*
G36*
X64746Y-69250D02*
X63254D01*
X61876Y-69821D01*
X61330Y-70367D01*
X60500Y-70734D01*
X59670Y-70367D01*
X59124Y-69821D01*
X57746Y-69250D01*
X56254D01*
X54876Y-69821D01*
X53821Y-70876D01*
X53250Y-72254D01*
Y-73746D01*
X53821Y-75124D01*
X54876Y-76179D01*
X56254Y-76750D01*
X57746D01*
X59124Y-76179D01*
X59670Y-75633D01*
X60500Y-75266D01*
X61330Y-75633D01*
X61876Y-76179D01*
X63254Y-76750D01*
X64746D01*
X66124Y-76179D01*
X67179Y-75124D01*
X67750Y-73746D01*
Y-72254D01*
X67179Y-70876D01*
X66124Y-69821D01*
X64746Y-69250D01*
D02*
G37*
G36*
X-12004Y-63250D02*
X-13496D01*
X-14874Y-63821D01*
X-15929Y-64876D01*
X-16500Y-66254D01*
Y-67746D01*
X-15929Y-69124D01*
X-14874Y-70179D01*
X-13496Y-70750D01*
X-12004D01*
X-10626Y-70179D01*
X-9571Y-69124D01*
X-9000Y-67746D01*
Y-66254D01*
X-9571Y-64876D01*
X-10626Y-63821D01*
X-12004Y-63250D01*
D02*
G37*
G36*
X12746Y-64250D02*
X11254D01*
X9876Y-64821D01*
X8821Y-65876D01*
X8250Y-67254D01*
Y-68746D01*
X8821Y-70124D01*
X9876Y-71179D01*
X11254Y-71750D01*
X12746D01*
X14124Y-71179D01*
X15179Y-70124D01*
X15750Y-68746D01*
Y-67254D01*
X15179Y-65876D01*
X14124Y-64821D01*
X12746Y-64250D01*
D02*
G37*
G36*
X76746Y-69250D02*
X75254D01*
X73876Y-69821D01*
X72821Y-70876D01*
X72250Y-72254D01*
Y-73746D01*
X72821Y-75124D01*
X73876Y-76179D01*
X75254Y-76750D01*
X76746D01*
X78124Y-76179D01*
X79179Y-75124D01*
X79750Y-73746D01*
Y-72254D01*
X79179Y-70876D01*
X78124Y-69821D01*
X76746Y-69250D01*
D02*
G37*
G36*
X-34254Y-73250D02*
X-35746D01*
X-37124Y-73821D01*
X-38179Y-74876D01*
X-38750Y-76254D01*
Y-77746D01*
X-38179Y-79124D01*
X-37124Y-80179D01*
X-35746Y-80750D01*
X-34254D01*
X-32876Y-80179D01*
X-31821Y-79124D01*
X-31250Y-77746D01*
Y-76254D01*
X-31821Y-74876D01*
X-32876Y-73821D01*
X-34254Y-73250D01*
D02*
G37*
G36*
X-206223Y-70500D02*
X-206730D01*
Y-82730D01*
X-194500D01*
Y-82223D01*
X-195420Y-78789D01*
X-197197Y-75711D01*
X-199711Y-73197D01*
X-202789Y-71420D01*
X-206223Y-70500D01*
D02*
G37*
G36*
X206730D02*
X206223D01*
X202789Y-71420D01*
X199711Y-73197D01*
X197197Y-75711D01*
X195420Y-78789D01*
X194500Y-82223D01*
Y-82730D01*
X206730D01*
Y-70500D01*
D02*
G37*
G36*
X-124415Y-68400D02*
X-126785D01*
X-129074Y-69013D01*
X-131126Y-70198D01*
X-132802Y-71874D01*
X-133987Y-73926D01*
X-134600Y-76215D01*
Y-78585D01*
X-133987Y-80874D01*
X-132802Y-82926D01*
X-131126Y-84602D01*
X-129074Y-85787D01*
X-126785Y-86400D01*
X-124415D01*
X-122126Y-85787D01*
X-120074Y-84602D01*
X-118398Y-82926D01*
X-117213Y-80874D01*
X-116600Y-78585D01*
Y-76215D01*
X-117213Y-73926D01*
X-118398Y-71874D01*
X-120074Y-70198D01*
X-122126Y-69013D01*
X-124415Y-68400D01*
D02*
G37*
G36*
X-149815D02*
X-152185D01*
X-154474Y-69013D01*
X-156526Y-70198D01*
X-158202Y-71874D01*
X-159387Y-73926D01*
X-160000Y-76215D01*
Y-78585D01*
X-159387Y-80874D01*
X-158202Y-82926D01*
X-156526Y-84602D01*
X-154474Y-85787D01*
X-152185Y-86400D01*
X-149815D01*
X-147526Y-85787D01*
X-145474Y-84602D01*
X-143798Y-82926D01*
X-142613Y-80874D01*
X-142000Y-78585D01*
Y-76215D01*
X-142613Y-73926D01*
X-143798Y-71874D01*
X-145474Y-70198D01*
X-147526Y-69013D01*
X-149815Y-68400D01*
D02*
G37*
G36*
X-175215D02*
X-177585D01*
X-179874Y-69013D01*
X-181926Y-70198D01*
X-183602Y-71874D01*
X-184787Y-73926D01*
X-185400Y-76215D01*
Y-78585D01*
X-184787Y-80874D01*
X-183602Y-82926D01*
X-181926Y-84602D01*
X-179874Y-85787D01*
X-177585Y-86400D01*
X-175215D01*
X-172926Y-85787D01*
X-170874Y-84602D01*
X-169198Y-82926D01*
X-168013Y-80874D01*
X-167400Y-78585D01*
Y-76215D01*
X-168013Y-73926D01*
X-169198Y-71874D01*
X-170874Y-70198D01*
X-172926Y-69013D01*
X-175215Y-68400D01*
D02*
G37*
G36*
X182746Y-76250D02*
X181254D01*
X179876Y-76821D01*
X178821Y-77876D01*
X178250Y-79254D01*
Y-80746D01*
X178821Y-82124D01*
X179876Y-83179D01*
X181254Y-83750D01*
X182746D01*
X183230Y-83549D01*
X184430Y-83735D01*
X184694Y-84213D01*
X185071Y-85124D01*
X186126Y-86179D01*
X187504Y-86750D01*
X188996D01*
X190374Y-86179D01*
X191429Y-85124D01*
X192000Y-83746D01*
Y-82254D01*
X191429Y-80876D01*
X190374Y-79821D01*
X188996Y-79250D01*
X187504D01*
X187020Y-79451D01*
X185820Y-79265D01*
X185556Y-78787D01*
X185179Y-77876D01*
X184124Y-76821D01*
X182746Y-76250D01*
D02*
G37*
G36*
X-45254Y-83250D02*
X-46746D01*
X-48124Y-83821D01*
X-49179Y-84876D01*
X-49750Y-86254D01*
Y-87746D01*
X-49179Y-89124D01*
X-48124Y-90179D01*
X-46746Y-90750D01*
X-45254D01*
X-43876Y-90179D01*
X-42821Y-89124D01*
X-42250Y-87746D01*
Y-86254D01*
X-42821Y-84876D01*
X-43876Y-83821D01*
X-45254Y-83250D01*
D02*
G37*
G36*
X206730Y-85270D02*
X194500D01*
Y-85777D01*
X195420Y-89211D01*
X197197Y-92289D01*
X199711Y-94803D01*
X202789Y-96580D01*
X206223Y-97500D01*
X206730D01*
Y-85270D01*
D02*
G37*
G36*
X-194500Y-85270D02*
X-206730D01*
Y-97500D01*
X-206223D01*
X-202789Y-96580D01*
X-199711Y-94803D01*
X-197197Y-92289D01*
X-195420Y-89211D01*
X-194500Y-85777D01*
Y-85270D01*
D02*
G37*
G36*
X174070Y-99541D02*
Y-106730D01*
X181260D01*
X180721Y-104719D01*
X179602Y-102781D01*
X178019Y-101198D01*
X176081Y-100079D01*
X174070Y-99541D01*
D02*
G37*
G36*
X171530D02*
X169519Y-100079D01*
X167581Y-101198D01*
X165998Y-102781D01*
X164879Y-104719D01*
X164340Y-106730D01*
X171530D01*
Y-99541D01*
D02*
G37*
G36*
X-43000Y-98922D02*
X-51000D01*
X-52561Y-99232D01*
X-53884Y-100116D01*
X-54768Y-101439D01*
X-55078Y-103000D01*
X-54768Y-104561D01*
X-53884Y-105884D01*
X-52561Y-106768D01*
X-51000Y-107078D01*
X-43000D01*
X-41439Y-106768D01*
X-40116Y-105884D01*
X-39232Y-104561D01*
X-38922Y-103000D01*
X-39232Y-101439D01*
X-40116Y-100116D01*
X-41439Y-99232D01*
X-43000Y-98922D01*
D02*
G37*
G36*
X-206684Y-101000D02*
X-206730D01*
Y-109730D01*
X-198000D01*
Y-109684D01*
X-198682Y-107140D01*
X-199998Y-104860D01*
X-201860Y-102998D01*
X-204140Y-101681D01*
X-206684Y-101000D01*
D02*
G37*
G36*
X-209270D02*
X-209317D01*
X-211860Y-101681D01*
X-214140Y-102998D01*
X-216002Y-104860D01*
X-217318Y-107140D01*
X-218000Y-109684D01*
Y-109730D01*
X-209270D01*
Y-101000D01*
D02*
G37*
G36*
X209317D02*
X209270D01*
Y-109730D01*
X218000D01*
Y-109684D01*
X217318Y-107140D01*
X216002Y-104860D01*
X214140Y-102998D01*
X211860Y-101681D01*
X209317Y-101000D01*
D02*
G37*
G36*
X206730D02*
X206684D01*
X204140Y-101681D01*
X201860Y-102998D01*
X199998Y-104860D01*
X198682Y-107140D01*
X198000Y-109684D01*
Y-109730D01*
X206730D01*
Y-101000D01*
D02*
G37*
G36*
X181260Y-109270D02*
X174070D01*
Y-116460D01*
X176081Y-115921D01*
X178019Y-114802D01*
X179602Y-113219D01*
X180721Y-111281D01*
X181260Y-109270D01*
D02*
G37*
G36*
X171530D02*
X164340D01*
X164879Y-111281D01*
X165998Y-113219D01*
X167581Y-114802D01*
X169519Y-115921D01*
X171530Y-116460D01*
Y-109270D01*
D02*
G37*
G36*
X148585Y-99000D02*
X146215D01*
X143926Y-99613D01*
X141874Y-100798D01*
X140198Y-102474D01*
X139013Y-104526D01*
X138400Y-106815D01*
Y-109185D01*
X139013Y-111474D01*
X140198Y-113526D01*
X141874Y-115202D01*
X143926Y-116387D01*
X146215Y-117000D01*
X148585D01*
X150874Y-116387D01*
X152926Y-115202D01*
X154602Y-113526D01*
X155787Y-111474D01*
X156400Y-109185D01*
Y-106815D01*
X155787Y-104526D01*
X154602Y-102474D01*
X152926Y-100798D01*
X150874Y-99613D01*
X148585Y-99000D01*
D02*
G37*
G36*
X123185D02*
X120815D01*
X118526Y-99613D01*
X116474Y-100798D01*
X114798Y-102474D01*
X113613Y-104526D01*
X113000Y-106815D01*
Y-109185D01*
X113613Y-111474D01*
X114798Y-113526D01*
X116474Y-115202D01*
X118526Y-116387D01*
X120815Y-117000D01*
X123185D01*
X125474Y-116387D01*
X127526Y-115202D01*
X129202Y-113526D01*
X130387Y-111474D01*
X131000Y-109185D01*
Y-106815D01*
X130387Y-104526D01*
X129202Y-102474D01*
X127526Y-100798D01*
X125474Y-99613D01*
X123185Y-99000D01*
D02*
G37*
G36*
X105600D02*
X87600D01*
Y-117000D01*
X105600D01*
Y-99000D01*
D02*
G37*
G36*
X218000Y-112270D02*
X209270D01*
Y-121000D01*
X209317D01*
X211860Y-120318D01*
X214140Y-119002D01*
X216002Y-117140D01*
X217318Y-114860D01*
X218000Y-112317D01*
Y-112270D01*
D02*
G37*
G36*
X206730D02*
X198000D01*
Y-112317D01*
X198682Y-114860D01*
X199998Y-117140D01*
X201860Y-119002D01*
X204140Y-120318D01*
X206684Y-121000D01*
X206730D01*
Y-112270D01*
D02*
G37*
G36*
X-198000Y-112270D02*
X-206730D01*
Y-121000D01*
X-206684D01*
X-204140Y-120318D01*
X-201860Y-119002D01*
X-199998Y-117140D01*
X-198682Y-114860D01*
X-198000Y-112317D01*
Y-112270D01*
D02*
G37*
G36*
X-209270D02*
X-218000D01*
Y-112317D01*
X-217318Y-114860D01*
X-216002Y-117140D01*
X-214140Y-119002D01*
X-211860Y-120318D01*
X-209317Y-121000D01*
X-209270D01*
Y-112270D01*
D02*
G37*
G36*
X44746Y-118500D02*
X43254D01*
X41876Y-119071D01*
X40821Y-120126D01*
X40250Y-121504D01*
Y-122996D01*
X40821Y-124374D01*
X41876Y-125429D01*
X43254Y-126000D01*
X44077D01*
X44815Y-126160D01*
X45250Y-127166D01*
Y-127746D01*
X45821Y-129124D01*
X46876Y-130179D01*
X48254Y-130750D01*
X49746D01*
X51124Y-130179D01*
X52179Y-129124D01*
X52750Y-127746D01*
Y-126254D01*
X52179Y-124876D01*
X51124Y-123821D01*
X49746Y-123250D01*
X48923D01*
X48185Y-123090D01*
X47750Y-122084D01*
Y-121504D01*
X47179Y-120126D01*
X46124Y-119071D01*
X44746Y-118500D01*
D02*
G37*
G36*
X160746Y-130250D02*
X159254D01*
X157876Y-130821D01*
X156821Y-131876D01*
X156687Y-132198D01*
X155313D01*
X155179Y-131876D01*
X154124Y-130821D01*
X152746Y-130250D01*
X151254D01*
X149876Y-130821D01*
X148821Y-131876D01*
X148687Y-132198D01*
X147313D01*
X147179Y-131876D01*
X146124Y-130821D01*
X144746Y-130250D01*
X143254D01*
X141876Y-130821D01*
X140821Y-131876D01*
X140250Y-133254D01*
Y-134746D01*
X140821Y-136124D01*
X141876Y-137179D01*
X143254Y-137750D01*
X144746D01*
X146124Y-137179D01*
X147179Y-136124D01*
X147313Y-135802D01*
X148687D01*
X148821Y-136124D01*
X149876Y-137179D01*
X151254Y-137750D01*
X152746D01*
X154124Y-137179D01*
X155179Y-136124D01*
X155313Y-135802D01*
X156687D01*
X156821Y-136124D01*
X157876Y-137179D01*
X159254Y-137750D01*
X160746D01*
X162124Y-137179D01*
X163179Y-136124D01*
X163750Y-134746D01*
Y-133254D01*
X163179Y-131876D01*
X162124Y-130821D01*
X160746Y-130250D01*
D02*
G37*
G36*
X-206223Y-124500D02*
X-206730D01*
Y-136730D01*
X-194500D01*
Y-136223D01*
X-195420Y-132789D01*
X-197197Y-129711D01*
X-199711Y-127197D01*
X-202789Y-125420D01*
X-206223Y-124500D01*
D02*
G37*
G36*
X206730D02*
X206223D01*
X202789Y-125420D01*
X199711Y-127197D01*
X197197Y-129711D01*
X195420Y-132789D01*
X194500Y-136223D01*
Y-136730D01*
X206730D01*
Y-124500D01*
D02*
G37*
G36*
X169746Y-123250D02*
X168254D01*
X166876Y-123821D01*
X165821Y-124876D01*
X165250Y-126254D01*
Y-127746D01*
X165821Y-129124D01*
X166876Y-130179D01*
X167443Y-131789D01*
X167250Y-132254D01*
Y-133746D01*
X167821Y-135124D01*
X168876Y-136179D01*
X170254Y-136750D01*
X171746D01*
X173124Y-136179D01*
X174179Y-135124D01*
X174750Y-133746D01*
Y-132254D01*
X174179Y-130876D01*
X173124Y-129821D01*
X172557Y-128211D01*
X172750Y-127746D01*
Y-126254D01*
X172179Y-124876D01*
X171124Y-123821D01*
X169746Y-123250D01*
D02*
G37*
G36*
X61746Y-131250D02*
X60254D01*
X58876Y-131821D01*
X57821Y-132876D01*
X57250Y-134254D01*
Y-135746D01*
X57337Y-135956D01*
X56365Y-136928D01*
X55746Y-136672D01*
X54254D01*
X52876Y-137242D01*
X51821Y-138297D01*
X51250Y-139676D01*
Y-140134D01*
X51218Y-140170D01*
X50635Y-140517D01*
X49980Y-140761D01*
X49776Y-140677D01*
X49463Y-140468D01*
X49094Y-140394D01*
X48746Y-140250D01*
X48369D01*
X48000Y-140177D01*
X40000D01*
X39631Y-140250D01*
X39254D01*
X38906Y-140394D01*
X38537Y-140468D01*
X38224Y-140677D01*
X37876Y-140821D01*
X37610Y-141087D01*
X37296Y-141296D01*
X37087Y-141610D01*
X36821Y-141876D01*
X36677Y-142224D01*
X36468Y-142537D01*
X36394Y-142906D01*
X36250Y-143254D01*
Y-143631D01*
X36177Y-144000D01*
X36250Y-144369D01*
Y-144746D01*
X36394Y-145094D01*
X36468Y-145463D01*
X36677Y-145776D01*
X36821Y-146124D01*
X37087Y-146390D01*
X37296Y-146704D01*
X37610Y-146913D01*
X37876Y-147179D01*
X38224Y-147323D01*
X38537Y-147532D01*
X38906Y-147606D01*
X39254Y-147750D01*
X39631D01*
X40000Y-147823D01*
X48000D01*
X48369Y-147750D01*
X48746D01*
X49094Y-147606D01*
X49463Y-147532D01*
X49776Y-147323D01*
X50124Y-147179D01*
X50390Y-146913D01*
X50704Y-146704D01*
X50913Y-146390D01*
X51179Y-146124D01*
X51323Y-145776D01*
X51532Y-145463D01*
X51606Y-145094D01*
X51750Y-144746D01*
Y-144369D01*
X51766Y-144287D01*
X52459Y-143858D01*
X52590Y-143797D01*
X53053Y-143674D01*
X54254Y-144172D01*
X55746D01*
X57124Y-143601D01*
X58179Y-142546D01*
X58750Y-141167D01*
Y-139676D01*
X58663Y-139466D01*
X59635Y-138493D01*
X60254Y-138750D01*
X61746D01*
X63124Y-138179D01*
X64179Y-137124D01*
X64750Y-135746D01*
Y-134254D01*
X64179Y-132876D01*
X63124Y-131821D01*
X61746Y-131250D01*
D02*
G37*
G36*
X-48254Y-114250D02*
X-49746D01*
X-51124Y-114821D01*
X-52179Y-115876D01*
X-52750Y-117254D01*
Y-118746D01*
X-52179Y-120124D01*
X-51124Y-121179D01*
X-49746Y-121750D01*
X-48920D01*
X-48750Y-122004D01*
Y-123496D01*
X-49254Y-124250D01*
X-49746D01*
X-51124Y-124821D01*
X-52179Y-125876D01*
X-52750Y-127254D01*
Y-128746D01*
X-52179Y-130124D01*
X-51124Y-131179D01*
X-49746Y-131750D01*
X-48971D01*
X-48565Y-132185D01*
X-48145Y-132970D01*
X-48377Y-133748D01*
X-48763Y-133941D01*
X-49437D01*
X-50816Y-134512D01*
X-51870Y-135567D01*
X-52441Y-136945D01*
Y-138437D01*
X-51870Y-139816D01*
X-50816Y-140870D01*
X-49437Y-141441D01*
X-47945D01*
X-46567Y-140870D01*
X-45512Y-139816D01*
X-44941Y-138437D01*
Y-137548D01*
X-44751Y-136850D01*
X-43803Y-136375D01*
X-43129D01*
X-41751Y-135804D01*
X-40696Y-134749D01*
X-40125Y-133371D01*
Y-131879D01*
X-40696Y-130501D01*
X-41751Y-129446D01*
X-43129Y-128875D01*
X-44077D01*
X-44657Y-128811D01*
X-45250Y-127761D01*
Y-127254D01*
X-44746Y-126500D01*
X-44254D01*
X-42876Y-125929D01*
X-41821Y-124874D01*
X-41250Y-123496D01*
Y-122004D01*
X-41821Y-120626D01*
X-42876Y-119571D01*
X-44254Y-119000D01*
X-45080D01*
X-45250Y-118746D01*
Y-117254D01*
X-45821Y-115876D01*
X-46876Y-114821D01*
X-48254Y-114250D01*
D02*
G37*
G36*
X110746Y-135250D02*
X109254D01*
X107876Y-135821D01*
X106821Y-136876D01*
X106250Y-138254D01*
Y-139746D01*
X106821Y-141124D01*
X107876Y-142179D01*
X109254Y-142750D01*
X110746D01*
X112124Y-142179D01*
X113179Y-141124D01*
X113750Y-139746D01*
Y-138254D01*
X113179Y-136876D01*
X112124Y-135821D01*
X110746Y-135250D01*
D02*
G37*
G36*
X182746D02*
X181254D01*
X179876Y-135821D01*
X178821Y-136876D01*
X178250Y-138254D01*
Y-139746D01*
X178821Y-141124D01*
X179876Y-142179D01*
X181254Y-142750D01*
X182746D01*
X183250Y-143087D01*
Y-143746D01*
X183821Y-145124D01*
X184876Y-146179D01*
X186254Y-146750D01*
X187746D01*
X189124Y-146179D01*
X190179Y-145124D01*
X190750Y-143746D01*
Y-142254D01*
X190179Y-140876D01*
X189124Y-139821D01*
X187746Y-139250D01*
X186254D01*
X185750Y-138913D01*
Y-138254D01*
X185179Y-136876D01*
X184124Y-135821D01*
X182746Y-135250D01*
D02*
G37*
G36*
X206730Y-139270D02*
X194500D01*
Y-139777D01*
X195420Y-143211D01*
X197197Y-146289D01*
X199711Y-148803D01*
X202789Y-150580D01*
X206223Y-151500D01*
X206730D01*
Y-139270D01*
D02*
G37*
G36*
X-194500Y-139270D02*
X-206730D01*
Y-151500D01*
X-206223D01*
X-202789Y-150580D01*
X-199711Y-148803D01*
X-197197Y-146289D01*
X-195420Y-143211D01*
X-194500Y-139777D01*
Y-139270D01*
D02*
G37*
G36*
X-136254Y-147250D02*
X-137746D01*
X-139124Y-147821D01*
X-140179Y-148876D01*
X-140750Y-150254D01*
Y-151746D01*
X-140179Y-153124D01*
X-139124Y-154179D01*
X-137746Y-154750D01*
X-136254D01*
X-134876Y-154179D01*
X-133821Y-153124D01*
X-133250Y-151746D01*
Y-150254D01*
X-133821Y-148876D01*
X-134876Y-147821D01*
X-136254Y-147250D01*
D02*
G37*
G36*
X176746Y-143250D02*
X175254D01*
X173876Y-143821D01*
X172821Y-144876D01*
X172250Y-146254D01*
Y-147746D01*
X172821Y-149124D01*
X173876Y-150179D01*
X175254Y-150750D01*
X176746D01*
X177670Y-150367D01*
X178633Y-151330D01*
X178250Y-152254D01*
Y-153746D01*
X178821Y-155124D01*
X179876Y-156179D01*
X181254Y-156750D01*
X182746D01*
X184124Y-156179D01*
X185179Y-155124D01*
X185750Y-153746D01*
Y-152254D01*
X185179Y-150876D01*
X184124Y-149821D01*
X182746Y-149250D01*
X181254D01*
X180330Y-149633D01*
X179367Y-148670D01*
X179750Y-147746D01*
Y-146254D01*
X179179Y-144876D01*
X178124Y-143821D01*
X176746Y-143250D01*
D02*
G37*
G36*
X-76254Y-114250D02*
X-77746D01*
X-79124Y-114821D01*
X-80179Y-115876D01*
X-80750Y-117254D01*
Y-118746D01*
X-81891Y-119310D01*
X-83124Y-119821D01*
X-84179Y-120876D01*
X-84750Y-122254D01*
Y-123746D01*
X-84179Y-125124D01*
X-83124Y-126179D01*
X-82802Y-126313D01*
Y-127687D01*
X-83124Y-127821D01*
X-84179Y-128876D01*
X-84750Y-130254D01*
Y-131746D01*
X-84179Y-133124D01*
X-83124Y-134179D01*
X-82802Y-134313D01*
Y-135687D01*
X-83124Y-135821D01*
X-84179Y-136876D01*
X-84750Y-138254D01*
Y-139746D01*
X-84179Y-141124D01*
X-83633Y-141670D01*
X-83266Y-142500D01*
X-83633Y-143330D01*
X-84179Y-143876D01*
X-84750Y-145254D01*
Y-146746D01*
X-84179Y-148124D01*
X-83415Y-148888D01*
X-83218Y-149615D01*
X-83397Y-150441D01*
X-84135Y-151179D01*
X-84706Y-152558D01*
Y-154050D01*
X-84135Y-155428D01*
X-83080Y-156483D01*
X-81702Y-157053D01*
X-80210D01*
X-78832Y-156483D01*
X-77777Y-155428D01*
X-77206Y-154050D01*
Y-152558D01*
X-77777Y-151179D01*
X-78541Y-150415D01*
X-78738Y-149689D01*
X-78559Y-148863D01*
X-77821Y-148124D01*
X-77250Y-146746D01*
Y-145254D01*
X-77821Y-143876D01*
X-78367Y-143330D01*
X-78734Y-142500D01*
X-78367Y-141670D01*
X-77821Y-141124D01*
X-77250Y-139746D01*
Y-138254D01*
X-77821Y-136876D01*
X-78876Y-135821D01*
X-79198Y-135687D01*
Y-134313D01*
X-78876Y-134179D01*
X-77821Y-133124D01*
X-77250Y-131746D01*
Y-130254D01*
X-77821Y-128876D01*
X-78876Y-127821D01*
X-79198Y-127687D01*
Y-126313D01*
X-78876Y-126179D01*
X-77821Y-125124D01*
X-77250Y-123746D01*
Y-122254D01*
X-76109Y-121690D01*
X-74876Y-121179D01*
X-73821Y-120124D01*
X-73250Y-118746D01*
Y-117254D01*
X-73821Y-115876D01*
X-74876Y-114821D01*
X-76254Y-114250D01*
D02*
G37*
G36*
X-115254Y-150250D02*
X-116746D01*
X-118124Y-150821D01*
X-119179Y-151876D01*
X-119750Y-153254D01*
Y-154746D01*
X-119179Y-156124D01*
X-118124Y-157179D01*
X-116746Y-157750D01*
X-115254D01*
X-113876Y-157179D01*
X-112821Y-156124D01*
X-112250Y-154746D01*
Y-153254D01*
X-112821Y-151876D01*
X-113876Y-150821D01*
X-115254Y-150250D01*
D02*
G37*
G36*
X44470Y-150485D02*
Y-160580D01*
X49317D01*
Y-156350D01*
X48852Y-154009D01*
X47526Y-152024D01*
X45541Y-150698D01*
X44470Y-150485D01*
D02*
G37*
G36*
X41930Y-150485D02*
X40859Y-150698D01*
X38874Y-152024D01*
X37548Y-154009D01*
X37083Y-156350D01*
Y-160580D01*
X41930D01*
Y-150485D01*
D02*
G37*
G36*
X-41930D02*
Y-160580D01*
X-37083D01*
Y-156350D01*
X-37548Y-154009D01*
X-38874Y-152024D01*
X-40859Y-150698D01*
X-41930Y-150485D01*
D02*
G37*
G36*
X-44470D02*
X-45541Y-150698D01*
X-47526Y-152024D01*
X-48852Y-154009D01*
X-49317Y-156350D01*
Y-160580D01*
X-44470D01*
Y-150485D01*
D02*
G37*
G36*
X209317Y-155000D02*
X209270D01*
Y-163730D01*
X218000D01*
Y-163683D01*
X217318Y-161140D01*
X216002Y-158860D01*
X214140Y-156998D01*
X211860Y-155681D01*
X209317Y-155000D01*
D02*
G37*
G36*
X-206684D02*
X-206730D01*
Y-163730D01*
X-198000D01*
Y-163683D01*
X-198682Y-161140D01*
X-199998Y-158860D01*
X-201860Y-156998D01*
X-204140Y-155681D01*
X-206684Y-155000D01*
D02*
G37*
G36*
X206730D02*
X206684D01*
X204140Y-155681D01*
X201860Y-156998D01*
X199998Y-158860D01*
X198682Y-161140D01*
X198000Y-163683D01*
Y-163730D01*
X206730D01*
Y-155000D01*
D02*
G37*
G36*
X-209270D02*
X-209317D01*
X-211860Y-155681D01*
X-214140Y-156998D01*
X-216002Y-158860D01*
X-217318Y-161140D01*
X-218000Y-163683D01*
Y-163730D01*
X-209270D01*
Y-155000D01*
D02*
G37*
G36*
X29845Y-162100D02*
X27955D01*
X26209Y-162823D01*
X24873Y-164159D01*
X24150Y-165905D01*
Y-167795D01*
X24481Y-168594D01*
X23509Y-169566D01*
X22746Y-169250D01*
X21254D01*
X19876Y-169821D01*
X18821Y-170876D01*
X18250Y-172254D01*
Y-173746D01*
X18821Y-175124D01*
X19876Y-176179D01*
X21254Y-176750D01*
X22746D01*
X24124Y-176179D01*
X25179Y-175124D01*
X25750Y-173746D01*
Y-172254D01*
X25625Y-171952D01*
X26626Y-171049D01*
X27955Y-171600D01*
X29845D01*
X31591Y-170877D01*
X32927Y-169541D01*
X33650Y-167795D01*
Y-165905D01*
X32927Y-164159D01*
X31591Y-162823D01*
X29845Y-162100D01*
D02*
G37*
G36*
X-27955D02*
X-29845D01*
X-31591Y-162823D01*
X-32927Y-164159D01*
X-33650Y-165905D01*
Y-167795D01*
X-32927Y-169541D01*
X-31591Y-170877D01*
X-29845Y-171600D01*
X-27955D01*
X-26209Y-170877D01*
X-24873Y-169541D01*
X-24150Y-167795D01*
Y-165905D01*
X-24873Y-164159D01*
X-26209Y-162823D01*
X-27955Y-162100D01*
D02*
G37*
G36*
X49317Y-163120D02*
X44470D01*
Y-173215D01*
X45541Y-173002D01*
X47526Y-171676D01*
X48852Y-169691D01*
X49317Y-167350D01*
Y-163120D01*
D02*
G37*
G36*
X-37083Y-163120D02*
X-41930D01*
Y-173215D01*
X-40859Y-173002D01*
X-38874Y-171676D01*
X-37548Y-169691D01*
X-37083Y-167350D01*
Y-163120D01*
D02*
G37*
G36*
X-44470D02*
X-49317D01*
Y-167350D01*
X-48852Y-169691D01*
X-47526Y-171676D01*
X-45541Y-173002D01*
X-44470Y-173215D01*
Y-163120D01*
D02*
G37*
G36*
X41930Y-163120D02*
X37083D01*
Y-167350D01*
X37548Y-169691D01*
X38874Y-171676D01*
X40859Y-173002D01*
X41930Y-173215D01*
Y-163120D01*
D02*
G37*
G36*
X218000Y-166270D02*
X209270D01*
Y-175000D01*
X209317D01*
X211860Y-174319D01*
X214140Y-173002D01*
X216002Y-171140D01*
X217318Y-168860D01*
X218000Y-166317D01*
Y-166270D01*
D02*
G37*
G36*
X206730D02*
X198000D01*
Y-166317D01*
X198682Y-168860D01*
X199998Y-171140D01*
X201860Y-173002D01*
X204140Y-174319D01*
X206684Y-175000D01*
X206730D01*
Y-166270D01*
D02*
G37*
G36*
X-198000D02*
X-206730D01*
Y-175000D01*
X-206684D01*
X-204140Y-174319D01*
X-201860Y-173002D01*
X-199998Y-171140D01*
X-198682Y-168860D01*
X-198000Y-166317D01*
Y-166270D01*
D02*
G37*
G36*
X-209270D02*
X-218000D01*
Y-166317D01*
X-217318Y-168860D01*
X-216002Y-171140D01*
X-214140Y-173002D01*
X-211860Y-174319D01*
X-209317Y-175000D01*
X-209270D01*
Y-166270D01*
D02*
G37*
G36*
X-80254Y-168250D02*
X-81746D01*
X-83124Y-168821D01*
X-84179Y-169876D01*
X-84750Y-171254D01*
Y-172746D01*
X-84179Y-174124D01*
X-83124Y-175179D01*
X-81746Y-175750D01*
X-80254D01*
X-78876Y-175179D01*
X-77821Y-174124D01*
X-77250Y-172746D01*
Y-171254D01*
X-77821Y-169876D01*
X-78876Y-168821D01*
X-80254Y-168250D01*
D02*
G37*
G36*
X8746Y-164250D02*
X7254D01*
X5876Y-164821D01*
X4821Y-165876D01*
X4250Y-167254D01*
Y-168746D01*
X4821Y-170124D01*
X4982Y-170285D01*
X4876Y-170821D01*
X3821Y-171876D01*
X3250Y-173254D01*
Y-174746D01*
X3821Y-176124D01*
X4876Y-177179D01*
X6254Y-177750D01*
X7746D01*
X9124Y-177179D01*
X10179Y-176124D01*
X10750Y-174746D01*
Y-173254D01*
X10179Y-171876D01*
X10018Y-171714D01*
X10124Y-171179D01*
X11179Y-170124D01*
X11750Y-168746D01*
Y-167254D01*
X11179Y-165876D01*
X10124Y-164821D01*
X8746Y-164250D01*
D02*
G37*
G36*
X136448Y-175000D02*
X136270D01*
Y-184730D01*
X146000D01*
Y-184552D01*
X145250Y-181754D01*
X143802Y-179246D01*
X141754Y-177198D01*
X139246Y-175750D01*
X136448Y-175000D01*
D02*
G37*
G36*
X133730D02*
X133552D01*
X130754Y-175750D01*
X128246Y-177198D01*
X126198Y-179246D01*
X124750Y-181754D01*
X124000Y-184552D01*
Y-184730D01*
X133730D01*
Y-175000D01*
D02*
G37*
G36*
X-133552D02*
X-133730D01*
Y-184730D01*
X-124000D01*
Y-184552D01*
X-124750Y-181754D01*
X-126198Y-179246D01*
X-128246Y-177198D01*
X-130754Y-175750D01*
X-133552Y-175000D01*
D02*
G37*
G36*
X-136270D02*
X-136448D01*
X-139246Y-175750D01*
X-141754Y-177198D01*
X-143802Y-179246D01*
X-145250Y-181754D01*
X-146000Y-184552D01*
Y-184730D01*
X-136270D01*
Y-175000D01*
D02*
G37*
G36*
X-76254Y-182250D02*
X-77746D01*
X-79124Y-182821D01*
X-80179Y-183876D01*
X-80750Y-185254D01*
Y-186746D01*
X-80179Y-188124D01*
X-79124Y-189179D01*
X-77746Y-189750D01*
X-76254D01*
X-74876Y-189179D01*
X-73821Y-188124D01*
X-73250Y-186746D01*
Y-185254D01*
X-73821Y-183876D01*
X-74876Y-182821D01*
X-76254Y-182250D01*
D02*
G37*
G36*
X173746Y-185250D02*
X172254D01*
X170876Y-185821D01*
X169821Y-186876D01*
X169250Y-188254D01*
Y-189746D01*
X169821Y-191124D01*
X170876Y-192179D01*
X172254Y-192750D01*
X173746D01*
X175124Y-192179D01*
X176179Y-191124D01*
X176750Y-189746D01*
Y-188254D01*
X176179Y-186876D01*
X175124Y-185821D01*
X173746Y-185250D01*
D02*
G37*
G36*
X146000Y-187270D02*
X136270D01*
Y-197000D01*
X136448D01*
X139246Y-196250D01*
X141754Y-194802D01*
X143802Y-192754D01*
X145250Y-190246D01*
X146000Y-187448D01*
Y-187270D01*
D02*
G37*
G36*
X133730D02*
X124000D01*
Y-187448D01*
X124750Y-190246D01*
X126198Y-192754D01*
X128246Y-194802D01*
X130754Y-196250D01*
X133552Y-197000D01*
X133730D01*
Y-187270D01*
D02*
G37*
G36*
X-124000Y-187270D02*
X-133730D01*
Y-197000D01*
X-133552D01*
X-130754Y-196250D01*
X-128246Y-194802D01*
X-126198Y-192754D01*
X-124750Y-190246D01*
X-124000Y-187448D01*
Y-187270D01*
D02*
G37*
G36*
X-136270D02*
X-146000D01*
Y-187448D01*
X-145250Y-190246D01*
X-143802Y-192754D01*
X-141754Y-194802D01*
X-139246Y-196250D01*
X-136448Y-197000D01*
X-136270D01*
Y-187270D01*
D02*
G37*
G36*
X23247Y-194750D02*
X21755D01*
X20377Y-195321D01*
X19322Y-196376D01*
X18751Y-197754D01*
Y-199246D01*
X19322Y-200624D01*
X20377Y-201679D01*
X21755Y-202250D01*
X23247D01*
X24625Y-201679D01*
X25680Y-200624D01*
X26251Y-199246D01*
Y-197754D01*
X25680Y-196376D01*
X24625Y-195321D01*
X23247Y-194750D01*
D02*
G37*
G36*
X44470Y-193785D02*
Y-202380D01*
X49317D01*
Y-199650D01*
X48852Y-197309D01*
X47526Y-195324D01*
X45541Y-193998D01*
X44470Y-193785D01*
D02*
G37*
G36*
X41930Y-193785D02*
X40859Y-193998D01*
X38874Y-195324D01*
X37548Y-197309D01*
X37083Y-199650D01*
Y-202380D01*
X41930D01*
Y-193785D01*
D02*
G37*
G36*
X-41930D02*
Y-202380D01*
X-37083D01*
Y-199650D01*
X-37548Y-197309D01*
X-38874Y-195324D01*
X-40859Y-193998D01*
X-41930Y-193785D01*
D02*
G37*
G36*
X-44470Y-193785D02*
X-45541Y-193998D01*
X-47526Y-195324D01*
X-48852Y-197309D01*
X-49317Y-199650D01*
Y-202380D01*
X-44470D01*
Y-193785D01*
D02*
G37*
G36*
X8247Y-201750D02*
X6755D01*
X5377Y-202321D01*
X4322Y-203376D01*
X3751Y-204754D01*
X2914Y-205492D01*
X1533Y-205302D01*
X1191Y-204609D01*
X680Y-203376D01*
X-375Y-202321D01*
X-1753Y-201750D01*
X-3245D01*
X-4623Y-202321D01*
X-5678Y-203376D01*
X-6249Y-204754D01*
X-7086Y-205492D01*
X-8467Y-205302D01*
X-8809Y-204609D01*
X-9320Y-203376D01*
X-10375Y-202321D01*
X-11753Y-201750D01*
X-13245D01*
X-14623Y-202321D01*
X-15678Y-203376D01*
X-16249Y-204754D01*
Y-206246D01*
X-15678Y-207624D01*
X-14623Y-208679D01*
X-13245Y-209250D01*
X-11753D01*
X-11189Y-210391D01*
X-10678Y-211624D01*
X-9623Y-212679D01*
X-8245Y-213250D01*
X-6753D01*
X-5375Y-212679D01*
X-4320Y-211624D01*
X-3749Y-210246D01*
X-2912Y-209508D01*
X-1532Y-209698D01*
X-1189Y-210391D01*
X-678Y-211624D01*
X377Y-212679D01*
X1755Y-213250D01*
X3247D01*
X4625Y-212679D01*
X5680Y-211624D01*
X6251Y-210246D01*
Y-209587D01*
X6755Y-209250D01*
X8247D01*
X9625Y-208679D01*
X10680Y-207624D01*
X11251Y-206246D01*
Y-204754D01*
X10680Y-203376D01*
X9625Y-202321D01*
X8247Y-201750D01*
D02*
G37*
G36*
X49317Y-204920D02*
X44470D01*
Y-213515D01*
X45541Y-213302D01*
X47526Y-211976D01*
X48852Y-209991D01*
X49317Y-207650D01*
Y-204920D01*
D02*
G37*
G36*
X-44470Y-204920D02*
X-49317D01*
Y-207650D01*
X-48852Y-209991D01*
X-47526Y-211976D01*
X-45541Y-213302D01*
X-44470Y-213515D01*
Y-204920D01*
D02*
G37*
G36*
X-37083D02*
X-41930D01*
Y-213515D01*
X-40859Y-213302D01*
X-38874Y-211976D01*
X-37548Y-209991D01*
X-37083Y-207650D01*
Y-204920D01*
D02*
G37*
G36*
X41930Y-204920D02*
X37083D01*
Y-207650D01*
X37548Y-209991D01*
X38874Y-211976D01*
X40859Y-213302D01*
X41930Y-213515D01*
Y-204920D01*
D02*
G37*
G36*
X-85254Y-206250D02*
X-86746D01*
X-88124Y-206821D01*
X-89179Y-207876D01*
X-89750Y-209254D01*
Y-210746D01*
X-89179Y-212124D01*
X-88124Y-213179D01*
X-86746Y-213750D01*
X-85254D01*
X-83876Y-213179D01*
X-82821Y-212124D01*
X-82250Y-210746D01*
Y-209254D01*
X-82821Y-207876D01*
X-83876Y-206821D01*
X-85254Y-206250D01*
D02*
G37*
G36*
X-84254Y-220250D02*
X-85746D01*
X-87124Y-220821D01*
X-88179Y-221876D01*
X-88750Y-223254D01*
Y-224746D01*
X-88179Y-226124D01*
X-87124Y-227179D01*
X-85746Y-227750D01*
X-84254D01*
X-82876Y-227179D01*
X-81821Y-226124D01*
X-81250Y-224746D01*
Y-223254D01*
X-81821Y-221876D01*
X-82876Y-220821D01*
X-84254Y-220250D01*
D02*
G37*
%LPD*%
D32*
X-43200Y-203650D02*
D03*
X43200D02*
D03*
D33*
X-43200Y-161850D02*
D03*
X43200D02*
D03*
D38*
X-28900Y-166850D02*
D03*
X28900D02*
D03*
D44*
X40000Y-144000D02*
X48000D01*
D47*
X-135000Y-186000D02*
D03*
X135000D02*
D03*
D48*
X-208000Y-165000D02*
D03*
Y-111000D02*
D03*
Y-57000D02*
D03*
X208000Y-165000D02*
D03*
Y-111000D02*
D03*
Y-57000D02*
D03*
D49*
X-208000Y-138000D02*
D03*
Y-84000D02*
D03*
Y-30000D02*
D03*
X208000Y-138000D02*
D03*
Y-84000D02*
D03*
Y-30000D02*
D03*
D50*
X-151000Y-52000D02*
D03*
X-50800D02*
D03*
X100000D02*
D03*
X172800Y-108000D02*
D03*
X147400D02*
D03*
X122000D02*
D03*
X-125600Y-77400D02*
D03*
X-151000D02*
D03*
X-176400Y-52000D02*
D03*
Y-77400D02*
D03*
X-25400Y-52000D02*
D03*
X0D02*
D03*
X25400D02*
D03*
X125400D02*
D03*
X150800D02*
D03*
D51*
X-81500Y-28000D02*
D03*
X145000D02*
D03*
D52*
X81500D02*
D03*
X-106900D02*
D03*
X-132300D02*
D03*
X106900D02*
D03*
X-119600D02*
D03*
X94200D02*
D03*
X132300D02*
D03*
X119600D02*
D03*
X-145000D02*
D03*
X-94200D02*
D03*
D53*
X-125600Y-52000D02*
D03*
X50800D02*
D03*
X176200D02*
D03*
X96600Y-108000D02*
D03*
D54*
X110000Y-139000D02*
D03*
X-192499Y-205500D02*
D03*
X-22499Y-198500D02*
D03*
X-67000Y-83000D02*
D03*
X-49000Y-78000D02*
D03*
X176000Y-154000D02*
D03*
X44000Y-112750D02*
D03*
X80000Y-98000D02*
D03*
Y-113000D02*
D03*
X135000Y-142000D02*
D03*
X116000Y-152000D02*
D03*
X67600Y-157500D02*
D03*
X84400D02*
D03*
X67600Y-203000D02*
D03*
X118000Y-199000D02*
D03*
X165000Y-167000D02*
D03*
X98000Y-178000D02*
D03*
X-81000Y-160000D02*
D03*
X-82000Y-179000D02*
D03*
X-112250Y-145000D02*
D03*
Y-172000D02*
D03*
X-122000Y-201000D02*
D03*
X-157499Y-205500D02*
D03*
X173000Y-189000D02*
D03*
X22501Y-198500D02*
D03*
X-51000Y-103000D02*
D03*
X-43000D02*
D03*
X48000Y-144000D02*
D03*
X40000D02*
D03*
X160000Y-134000D02*
D03*
X152000D02*
D03*
X144000D02*
D03*
X-85000Y-224000D02*
D03*
X-86000Y-210000D02*
D03*
X76000Y-73000D02*
D03*
X64000D02*
D03*
X57000D02*
D03*
X-12499Y-205500D02*
D03*
X-116000Y-154000D02*
D03*
X-137000Y-151000D02*
D03*
X-80956Y-153303D02*
D03*
X-77000Y-186000D02*
D03*
X-81000Y-172000D02*
D03*
X-77000Y-118000D02*
D03*
X-81000Y-123000D02*
D03*
Y-131000D02*
D03*
Y-139000D02*
D03*
Y-146000D02*
D03*
X2501Y-209500D02*
D03*
X-7499D02*
D03*
X169000Y-127000D02*
D03*
X171000Y-133000D02*
D03*
X55000Y-140422D02*
D03*
X-70000Y-56000D02*
D03*
X61000Y-135000D02*
D03*
X49000Y-127000D02*
D03*
X44000Y-122250D02*
D03*
X22000Y-173000D02*
D03*
X8000Y-168000D02*
D03*
X7000Y-174000D02*
D03*
X-48691Y-137691D02*
D03*
X-49000Y-128000D02*
D03*
X-35000Y-77000D02*
D03*
X-12750Y-67000D02*
D03*
X-49000Y-118000D02*
D03*
X-45000Y-122750D02*
D03*
X176000Y-147000D02*
D03*
X182000Y-139000D02*
D03*
Y-153000D02*
D03*
X187000Y-143000D02*
D03*
X7501Y-205500D02*
D03*
X-43875Y-132625D02*
D03*
X-2499Y-205500D02*
D03*
X12000Y-68000D02*
D03*
X182000Y-80000D02*
D03*
X188250Y-83000D02*
D03*
X-46000Y-87000D02*
D03*
D55*
X-20000Y-130000D02*
D03*
X0D02*
D03*
X-20000Y-90000D02*
D03*
X0Y-110000D02*
D03*
X-20000D02*
D03*
X0Y-90000D02*
D03*
X20000Y-130000D02*
D03*
Y-110000D02*
D03*
Y-90000D02*
D03*
D56*
X-51000Y-103000D02*
X-43000D01*
M02*
