G04*
G04 #@! TF.GenerationSoftware,Altium Limited,Altium Designer,25.8.1 (18)*
G04*
G04 Layer_Color=16711935*
%FSLAX44Y44*%
%MOMM*%
G71*
G04*
G04 #@! TF.SameCoordinates,1886C136-0548-4DD4-B188-8D45CBC31741*
G04*
G04*
G04 #@! TF.FilePolarity,Negative*
G04*
G01*
G75*
%ADD12R,1.9000X1.6000*%
G04:AMPARAMS|DCode=13|XSize=1.9mm|YSize=1.6mm|CornerRadius=0.425mm|HoleSize=0mm|Usage=FLASHONLY|Rotation=0.000|XOffset=0mm|YOffset=0mm|HoleType=Round|Shape=RoundedRectangle|*
%AMROUNDEDRECTD13*
21,1,1.9000,0.7500,0,0,0.0*
21,1,1.0500,1.6000,0,0,0.0*
1,1,0.8500,0.5250,-0.3750*
1,1,0.8500,-0.5250,-0.3750*
1,1,0.8500,-0.5250,0.3750*
1,1,0.8500,0.5250,0.3750*
%
%ADD13ROUNDEDRECTD13*%
%ADD14C,2.5000*%
%ADD15C,2.6000*%
%ADD23R,0.9000X0.5000*%
%ADD24R,0.9000X0.4000*%
D12*
X119600Y34000D02*
D03*
X176000D02*
D03*
D13*
X18000D02*
D03*
X68800D02*
D03*
X277600D02*
D03*
X226800D02*
D03*
D14*
X148000Y17000D02*
D03*
Y51000D02*
D03*
D15*
X43400Y16000D02*
D03*
X94200D02*
D03*
Y52000D02*
D03*
X43400D02*
D03*
X201400D02*
D03*
X252200D02*
D03*
D23*
X244000Y-34999D02*
D03*
Y20001D02*
D03*
D24*
X269000Y-24999D02*
D03*
Y-19999D02*
D03*
Y-14999D02*
D03*
Y-9999D02*
D03*
Y-4999D02*
D03*
Y1D02*
D03*
Y5001D02*
D03*
Y10001D02*
D03*
M02*
