G04*
G04 #@! TF.GenerationSoftware,Altium Limited,Altium Designer,25.8.1 (18)*
G04*
G04 Layer_Color=255*
%FSLAX44Y44*%
%MOMM*%
G71*
G04*
G04 #@! TF.SameCoordinates,1886C136-0548-4DD4-B188-8D45CBC31741*
G04*
G04*
G04 #@! TF.FilePolarity,Positive*
G04*
G01*
G75*
%ADD14C,2.5000*%
%ADD17R,1.8000X1.5000*%
G04:AMPARAMS|DCode=18|XSize=1.8mm|YSize=1.5mm|CornerRadius=0.375mm|HoleSize=0mm|Usage=FLASHONLY|Rotation=0.000|XOffset=0mm|YOffset=0mm|HoleType=Round|Shape=RoundedRectangle|*
%AMROUNDEDRECTD18*
21,1,1.8000,0.7500,0,0,0.0*
21,1,1.0500,1.5000,0,0,0.0*
1,1,0.7500,0.5250,-0.3750*
1,1,0.7500,-0.5250,-0.3750*
1,1,0.7500,-0.5250,0.3750*
1,1,0.7500,0.5250,0.3750*
%
%ADD18ROUNDEDRECTD18*%
%ADD19C,2.4000*%
%ADD21R,0.8000X0.4000*%
%ADD22R,0.8000X0.3000*%
D14*
X43400Y16000D02*
D03*
X94200D02*
D03*
Y52000D02*
D03*
X43400D02*
D03*
X201400D02*
D03*
X252200D02*
D03*
D17*
X119600Y34000D02*
D03*
X176000D02*
D03*
D18*
X18000D02*
D03*
X68800D02*
D03*
X277600D02*
D03*
X226800D02*
D03*
D19*
X148000Y17000D02*
D03*
Y51000D02*
D03*
D21*
X244000Y-34999D02*
D03*
Y20001D02*
D03*
D22*
X269000Y-24999D02*
D03*
Y-19999D02*
D03*
Y-14999D02*
D03*
Y-9999D02*
D03*
Y-4999D02*
D03*
Y1D02*
D03*
Y5001D02*
D03*
Y10001D02*
D03*
M02*
