G04*
G04 #@! TF.GenerationSoftware,Altium Limited,Altium Designer,25.8.1 (18)*
G04*
G04 Layer_Physical_Order=2*
G04 Layer_Color=16711680*
%FSLAX44Y44*%
%MOMM*%
G71*
G04*
G04 #@! TF.SameCoordinates,1886C136-0548-4DD4-B188-8D45CBC31741*
G04*
G04*
G04 #@! TF.FilePolarity,Positive*
G04*
G01*
G75*
%ADD14C,2.5000*%
%ADD16C,0.2500*%
%ADD17R,1.8000X1.5000*%
G04:AMPARAMS|DCode=18|XSize=1.8mm|YSize=1.5mm|CornerRadius=0.375mm|HoleSize=0mm|Usage=FLASHONLY|Rotation=0.000|XOffset=0mm|YOffset=0mm|HoleType=Round|Shape=RoundedRectangle|*
%AMROUNDEDRECTD18*
21,1,1.8000,0.7500,0,0,0.0*
21,1,1.0500,1.5000,0,0,0.0*
1,1,0.7500,0.5250,-0.3750*
1,1,0.7500,-0.5250,-0.3750*
1,1,0.7500,-0.5250,0.3750*
1,1,0.7500,0.5250,0.3750*
%
%ADD18ROUNDEDRECTD18*%
%ADD19C,2.4000*%
%ADD20C,0.6000*%
%ADD21R,0.8000X0.4000*%
%ADD22R,0.8000X0.3000*%
G36*
X277000Y2040D02*
X275777Y1223D01*
X275470Y763D01*
X274200Y1148D01*
Y7701D01*
X274000D01*
Y8731D01*
X269000D01*
X264000D01*
Y7701D01*
X263800D01*
Y3529D01*
X262530Y3003D01*
X258498Y7035D01*
Y7558D01*
X259561Y8621D01*
X260200Y10165D01*
Y11835D01*
X259561Y13379D01*
X258498Y14442D01*
Y22000D01*
X277000D01*
Y2040D01*
D02*
G37*
G36*
X254502Y-2035D02*
Y-8536D01*
X254692Y-9492D01*
X255234Y-10302D01*
X256698Y-11766D01*
X257257Y-12140D01*
X257624Y-13041D01*
X257718Y-13644D01*
X257602Y-13800D01*
X257165D01*
X255621Y-14439D01*
X254439Y-15621D01*
X253800Y-17165D01*
Y-18835D01*
X254439Y-20379D01*
X255621Y-21561D01*
X257165Y-22200D01*
X258835D01*
X260379Y-21561D01*
X261561Y-20379D01*
X262200Y-18835D01*
Y-17583D01*
X262285Y-17498D01*
X263800D01*
Y-22699D01*
X264000D01*
Y-23729D01*
X269000D01*
Y-24999D01*
X270270D01*
Y-27499D01*
X274000D01*
X274482Y-28570D01*
Y-34961D01*
X249000Y-34961D01*
Y-31999D01*
X245270D01*
Y-34999D01*
X242730D01*
Y-31999D01*
X239000D01*
X238518Y-30929D01*
Y-2000D01*
X238558D01*
X238211Y-256D01*
X237223Y1223D01*
X235744Y2211D01*
X235000Y2359D01*
Y8502D01*
X243965D01*
X254502Y-2035D01*
D02*
G37*
%LPC*%
G36*
X274000Y12501D02*
X270270D01*
Y11271D01*
X274000D01*
Y12501D01*
D02*
G37*
G36*
X267730D02*
X264000D01*
Y11271D01*
X267730D01*
Y12501D01*
D02*
G37*
G36*
X267730Y-26269D02*
X264000D01*
Y-27499D01*
X267730D01*
Y-26269D01*
D02*
G37*
%LPD*%
D14*
X43400Y16000D02*
D03*
X94200D02*
D03*
Y52000D02*
D03*
X43400D02*
D03*
X201400D02*
D03*
X252200D02*
D03*
D16*
X113000Y49000D02*
X127000D01*
X68800Y34000D02*
X98000D01*
X113000Y49000D01*
X234947Y18000D02*
X236948Y20001D01*
X244000D01*
X234000Y18000D02*
X234947D01*
X154000Y34000D02*
X177000Y11000D01*
X245000D02*
X257000Y-1000D01*
X177000Y11000D02*
X245000D01*
X256000Y6000D02*
X261999Y1D01*
X269000D01*
X257000Y-5000D02*
Y-1000D01*
X256000Y6000D02*
Y11000D01*
X257000Y-5000D02*
X269011D01*
X257000Y-8536D02*
Y-5000D01*
X258465Y-10000D02*
X269000D01*
X257000Y-8536D02*
X258465Y-10000D01*
X258000Y-18000D02*
X258250D01*
X261250Y-15000D02*
X268999D01*
X258250Y-18000D02*
X261250Y-15000D01*
X256000Y11000D02*
Y29000D01*
X251000Y34000D02*
X256000Y29000D01*
X269000Y25400D02*
X277600Y34000D01*
X269000Y10001D02*
Y25400D01*
X277600Y34000D02*
Y34000D01*
X226800D02*
X251000D01*
X142000D02*
X154000D01*
X127000Y49000D02*
X142000Y34000D01*
D17*
X119600D02*
D03*
X176000D02*
D03*
D18*
X18000D02*
D03*
X68800D02*
D03*
X277600D02*
D03*
X226800D02*
D03*
D19*
X148000Y17000D02*
D03*
Y51000D02*
D03*
D20*
X234000Y18000D02*
D03*
X258000Y-18000D02*
D03*
X256000Y11000D02*
D03*
X244000Y2000D02*
D03*
D21*
Y-34999D02*
D03*
Y20001D02*
D03*
D22*
X269000Y-24999D02*
D03*
Y-19999D02*
D03*
Y-14999D02*
D03*
Y-9999D02*
D03*
Y-4999D02*
D03*
Y1D02*
D03*
Y5001D02*
D03*
Y10001D02*
D03*
M02*
