G04*
G04 #@! TF.GenerationSoftware,Altium Limited,Altium Designer,25.8.1 (18)*
G04*
G04 Layer_Color=65535*
%FSLAX44Y44*%
%MOMM*%
G71*
G04*
G04 #@! TF.SameCoordinates,1886C136-0548-4DD4-B188-8D45CBC31741*
G04*
G04*
G04 #@! TF.FilePolarity,Positive*
G04*
G01*
G75*
%ADD10C,0.2540*%
%ADD11C,0.1500*%
D10*
X3800Y64000D02*
X133800D01*
X3800Y4000D02*
Y64000D01*
Y4000D02*
X133800D01*
Y64000D01*
X102700Y15000D02*
Y53000D01*
X94800Y15000D02*
X102700D01*
X94800D02*
Y53000D01*
X102700D01*
X161800Y4000D02*
X291800D01*
Y64000D01*
X161800D02*
X291800D01*
X161800Y4000D02*
Y64000D01*
X192900Y15000D02*
Y53000D01*
X200800D01*
Y15000D02*
Y53000D01*
X192900Y15000D02*
X200800D01*
D11*
X170334Y57833D02*
X169418Y58749D01*
X167585D01*
X166669Y57833D01*
Y56916D01*
X167585Y56000D01*
X169418D01*
X170334Y55084D01*
Y54167D01*
X169418Y53251D01*
X167585D01*
X166669Y54167D01*
X172167Y58749D02*
Y53251D01*
X174000Y55084D01*
X175833Y53251D01*
Y58749D01*
X181331Y53251D02*
X177666D01*
X181331Y56916D01*
Y57833D01*
X180415Y58749D01*
X178582D01*
X177666Y57833D01*
X12251D02*
X11335Y58749D01*
X9502D01*
X8585Y57833D01*
Y56916D01*
X9502Y56000D01*
X11335D01*
X12251Y55084D01*
Y54167D01*
X11335Y53251D01*
X9502D01*
X8585Y54167D01*
X14084Y58749D02*
Y53251D01*
X15916Y55084D01*
X17749Y53251D01*
Y58749D01*
X19582Y53251D02*
X21415D01*
X20498D01*
Y58749D01*
X19582Y57833D01*
M02*
