M48
;Layer_Color=9474304
;FILE_FORMAT=2:4
INCH,TZ
;TYPE=PLATED
T01F00S00C0.0118
T03F00S00C0.0354
T04F00S00C0.0413
T05F00S00C0.0433
T07F00S00C0.0807
;TYPE=NON_PLATED
%
T01
X-1398Y-10020
X-768
X0Y-9882
Y-9488
X768Y-10020
X1398
X984Y-9094
X6063Y-4911
T03
X3248Y-6004
X5020
Y-3445
X3248
T04
X-2953Y-5709
Y-4724
Y-3740
T05
X-5630Y-9016
X-3937Y-9646
X3937
X5630Y-9016
X7756
X8268Y-8110
X-8268
X-7756Y-9016
X-8268Y-2913
X-7756Y-2008
X-5630
X-3937Y-787
X3937
X4528Y-2598
X3268
X5630Y-2008
X7756Y-2008
X8268Y-2913
X4528Y-6850
X3268
T07
X6693Y-9016
X-6693
Y-2008
X6693
M30
