M48
;Layer_Color=9474304
;FILE_FORMAT=2:4
INCH,TZ
;TYPE=PLATED
T02F00S00C0.0276
T03F00S00C0.0295
T06F00S00C0.0669
;TYPE=NON_PLATED
%
G90
G05
T02
G00X-2953Y-5758
M15
G01Y-5659
M16
G00X-2953Y-4774
M15
G01Y-4675
M16
G00X-2953Y-3789
M15
G01Y-3691
M16
T03
G00X-6693Y-7600
M15
G01Y-7423
M16
G00X-6693Y-5600
M15
G01Y-5423
M16
G00X-6693Y-3600
M15
G01Y-3423
M16
G00X6693Y-3600
M15
G01Y-3423
M16
G00X6693Y-5600
M15
G01Y-5423
M16
G00X6693Y-7600
M15
G01Y-7423
M16
T06
G00X-3661Y-6654
M15
G01X-3819
M16
G00X-3661Y-2795
M15
G01X-3819
M16
M17
M30
