G04*
G04 #@! TF.GenerationSoftware,Altium Limited,Altium Designer,26.2.0 (7)*
G04*
G04 Layer_Physical_Order=2*
G04 Layer_Color=16711680*
%FSLAX44Y44*%
%MOMM*%
G71*
G04*
G04 #@! TF.SameCoordinates,6373B019-7604-42B0-9C82-F6B7EA48EFEB*
G04*
G04*
G04 #@! TF.FilePolarity,Positive*
G04*
G01*
G75*
%ADD28C,0.3000*%
%ADD30C,0.3500*%
%ADD47R,12.7000X19.2000*%
G04:AMPARAMS|DCode=48|XSize=2.8mm|YSize=2.5mm|CornerRadius=0.625mm|HoleSize=0mm|Usage=FLASHONLY|Rotation=180.000|XOffset=0mm|YOffset=0mm|HoleType=Round|Shape=RoundedRectangle|*
%AMROUNDEDRECTD48*
21,1,2.8000,1.2500,0,0,180.0*
21,1,1.5500,2.5000,0,0,180.0*
1,1,1.2500,-0.7750,0.6250*
1,1,1.2500,0.7750,0.6250*
1,1,1.2500,0.7750,-0.6250*
1,1,1.2500,-0.7750,-0.6250*
%
%ADD48ROUNDEDRECTD48*%
%ADD49O,1.2500X1.5000*%
%ADD50C,2.1000*%
%ADD51C,1.6000*%
%ADD52C,1.8000*%
G04:AMPARAMS|DCode=53|XSize=1.8mm|YSize=1.5mm|CornerRadius=0.375mm|HoleSize=0mm|Usage=FLASHONLY|Rotation=90.000|XOffset=0mm|YOffset=0mm|HoleType=Round|Shape=RoundedRectangle|*
%AMROUNDEDRECTD53*
21,1,1.8000,0.7500,0,0,90.0*
21,1,1.0500,1.5000,0,0,90.0*
1,1,0.7500,0.3750,0.5250*
1,1,0.7500,0.3750,-0.5250*
1,1,0.7500,-0.3750,-0.5250*
1,1,0.7500,-0.3750,0.5250*
%
%ADD53ROUNDEDRECTD53*%
%ADD54R,1.5000X1.8000*%
%ADD55C,2.5000*%
%ADD56C,0.6000*%
%ADD57R,0.8500X0.7000*%
%ADD58R,0.7000X0.8500*%
%ADD59C,0.4000*%
D28*
X0Y-251000D02*
Y-241000D01*
Y-227947D02*
X3947Y-224000D01*
X0Y-241000D02*
Y-227947D01*
X-3947Y-224000D02*
X0Y-227947D01*
X7501Y-224000D02*
X8000D01*
X170000Y-143092D02*
Y-140000D01*
X178000Y-162000D02*
Y-151092D01*
X170000Y-143092D02*
X178000Y-151092D01*
X170000Y-140000D02*
Y-136908D01*
X178000Y-128908D02*
Y-116000D01*
X170000Y-136908D02*
X178000Y-128908D01*
X-134000Y-112000D02*
X-111000D01*
X-84678D01*
X106000Y-111000D02*
X126000D01*
Y-89000D01*
X127500Y-87500D01*
X-111000Y-128000D02*
X-95000D01*
X-78000Y-145000D02*
X-75000D01*
X-95000Y-128000D02*
X-78000Y-145000D01*
X-84678Y-112000D02*
X-76678Y-120000D01*
X-75000D01*
X-170000Y-143092D02*
X-162000Y-151092D01*
X-170000Y-143092D02*
Y-140000D01*
X-162000Y-164000D02*
Y-151092D01*
X-170000Y-136908D02*
X-162000Y-128908D01*
X-170000Y-140000D02*
Y-136908D01*
X-162000Y-128908D02*
Y-116000D01*
X-134000Y-128000D02*
X-111000D01*
D30*
X154000Y-124750D02*
X162000Y-116750D01*
X-104818Y-81818D02*
X-95000Y-72000D01*
X-104818Y-89818D02*
Y-81818D01*
X-108500Y-94250D02*
Y-93500D01*
X-111000Y-96000D02*
X-110250D01*
X-108500Y-93500D02*
X-104818Y-89818D01*
X-110250Y-96000D02*
X-108500Y-94250D01*
X-95000Y-72750D02*
X-75000Y-92750D01*
Y-95000D02*
Y-92750D01*
X-95000Y-72750D02*
Y-72000D01*
X-104818Y-158182D02*
Y-150182D01*
X-110250Y-144000D02*
X-108500Y-145750D01*
X-111000Y-144000D02*
X-110250D01*
X-104818Y-158182D02*
X-95000Y-168000D01*
X-108500Y-146500D02*
X-104818Y-150182D01*
X-108500Y-146500D02*
Y-145750D01*
X-171800Y-91000D02*
X-170000Y-89200D01*
X-178000Y-116000D02*
Y-101124D01*
X-170000Y-93124D02*
Y-89200D01*
X-178000Y-101124D02*
X-170000Y-93124D01*
X82500Y-136000D02*
X90500Y-128000D01*
X106000D01*
X82500Y-152500D02*
Y-136000D01*
Y-87500D01*
X162000Y-116750D02*
Y-116000D01*
D47*
X5500Y-120000D02*
D03*
D48*
X-95000Y-71000D02*
D03*
Y-169000D02*
D03*
D49*
X-75000Y-95000D02*
D03*
Y-145000D02*
D03*
Y-120000D02*
D03*
D50*
X100000Y-245000D02*
D03*
X-100000D02*
D03*
X100000Y-20000D02*
D03*
X-100000D02*
D03*
X143000Y-229000D02*
D03*
X197000D02*
D03*
X-197000D02*
D03*
X-143000D02*
D03*
X115000Y-66000D02*
D03*
Y-174000D02*
D03*
X83000D02*
D03*
Y-66000D02*
D03*
X197000Y-51000D02*
D03*
X143000Y-51000D02*
D03*
X-143000D02*
D03*
X-197000D02*
D03*
D51*
X82500Y-152500D02*
D03*
Y-87500D02*
D03*
X127500D02*
D03*
Y-152500D02*
D03*
D52*
X210000Y-206000D02*
D03*
X210000Y-74000D02*
D03*
X-210000Y-74000D02*
D03*
Y-206000D02*
D03*
D53*
X170000Y-190800D02*
D03*
X-170000D02*
D03*
Y-140000D02*
D03*
X170000D02*
D03*
D54*
Y-89200D02*
D03*
X-170000D02*
D03*
D55*
X170000Y-229000D02*
D03*
X-170000D02*
D03*
X170000Y-51000D02*
D03*
X-170000D02*
D03*
D56*
X0Y-251000D02*
D03*
Y-241000D02*
D03*
X-19500Y-254500D02*
D03*
X-35498D02*
D03*
X154000Y-124750D02*
D03*
X25002Y-231000D02*
D03*
X35500Y-254500D02*
D03*
X19502D02*
D03*
D57*
X-111000Y-96000D02*
D03*
Y-144000D02*
D03*
X106000Y-127000D02*
D03*
Y-111000D02*
D03*
X126000Y-127000D02*
D03*
Y-111000D02*
D03*
X-134000Y-144000D02*
D03*
Y-128000D02*
D03*
X-111000D02*
D03*
Y-112000D02*
D03*
X-134000D02*
D03*
Y-96000D02*
D03*
D58*
X-178000Y-116000D02*
D03*
X162000D02*
D03*
Y-162000D02*
D03*
X178000D02*
D03*
Y-116000D02*
D03*
X-178000Y-164000D02*
D03*
X-162000D02*
D03*
Y-116000D02*
D03*
D59*
X-77343Y-192000D02*
X-75000Y-194343D01*
Y-220000D02*
Y-194343D01*
X-131500Y-174500D02*
X-114000Y-192000D01*
X-77343D01*
X-3947Y-224000D02*
X3947D01*
X7501D01*
X-71000D02*
X-3947D01*
X-75000Y-220000D02*
X-71000Y-224000D01*
X7501D02*
X77657D01*
X80000Y-221657D02*
Y-197000D01*
X77657Y-224000D02*
X80000Y-221657D01*
X-153500Y-174500D02*
X-131500D01*
X96657Y-192000D02*
X99000Y-189657D01*
X80000Y-197000D02*
X85000Y-192000D01*
X96657D01*
X99000Y-189657D02*
Y-157000D01*
X-177215Y-171571D02*
Y-164785D01*
X-174286Y-174500D02*
X-153500D01*
X-177215Y-171571D02*
X-174286Y-174500D01*
X-178000Y-164000D02*
X-177215Y-164785D01*
X-153500Y-174500D02*
X-145000Y-166000D01*
Y-144000D01*
X99000Y-157000D02*
X124250Y-131750D01*
X126000Y-127000D02*
X126178Y-127178D01*
X149000Y-158000D02*
Y-142000D01*
X134178Y-127178D02*
X149000Y-142000D01*
X126178Y-127178D02*
X134178D01*
X125250Y-127000D02*
X126000D01*
X153000Y-162000D02*
X162000D01*
X149000Y-158000D02*
X153000Y-162000D01*
X124250Y-128000D02*
X125250Y-127000D01*
X124250Y-131750D02*
Y-128000D01*
X-150000Y-139000D02*
Y-101000D01*
X-145000Y-144000D02*
X-134000D01*
X-150000Y-139000D02*
X-145000Y-144000D01*
X-145000Y-96000D02*
X-134000D01*
X-150000Y-101000D02*
X-145000Y-96000D01*
M02*
