G04*
G04 #@! TF.GenerationSoftware,Altium Limited,Altium Designer,26.2.0 (7)*
G04*
G04 Layer_Color=255*
%FSLAX44Y44*%
%MOMM*%
G71*
G04*
G04 #@! TF.SameCoordinates,6373B019-7604-42B0-9C82-F6B7EA48EFEB*
G04*
G04*
G04 #@! TF.FilePolarity,Positive*
G04*
G01*
G75*
%ADD15R,0.3000X0.8000*%
%ADD16R,0.4000X0.8000*%
%ADD47R,12.7000X19.2000*%
G04:AMPARAMS|DCode=48|XSize=2.8mm|YSize=2.5mm|CornerRadius=0.625mm|HoleSize=0mm|Usage=FLASHONLY|Rotation=180.000|XOffset=0mm|YOffset=0mm|HoleType=Round|Shape=RoundedRectangle|*
%AMROUNDEDRECTD48*
21,1,2.8000,1.2500,0,0,180.0*
21,1,1.5500,2.5000,0,0,180.0*
1,1,1.2500,-0.7750,0.6250*
1,1,1.2500,0.7750,0.6250*
1,1,1.2500,0.7750,-0.6250*
1,1,1.2500,-0.7750,-0.6250*
%
%ADD48ROUNDEDRECTD48*%
%ADD49O,1.2500X1.5000*%
%ADD50C,2.1000*%
%ADD51C,1.6000*%
%ADD52C,1.8000*%
G04:AMPARAMS|DCode=53|XSize=1.8mm|YSize=1.5mm|CornerRadius=0.375mm|HoleSize=0mm|Usage=FLASHONLY|Rotation=90.000|XOffset=0mm|YOffset=0mm|HoleType=Round|Shape=RoundedRectangle|*
%AMROUNDEDRECTD53*
21,1,1.8000,0.7500,0,0,90.0*
21,1,1.0500,1.5000,0,0,90.0*
1,1,0.7500,0.3750,0.5250*
1,1,0.7500,0.3750,-0.5250*
1,1,0.7500,-0.3750,-0.5250*
1,1,0.7500,-0.3750,0.5250*
%
%ADD53ROUNDEDRECTD53*%
%ADD54R,1.5000X1.8000*%
%ADD55C,2.5000*%
D15*
X17501Y-229500D02*
D03*
X-17499D02*
D03*
X-12499D02*
D03*
X-7499D02*
D03*
X-2499D02*
D03*
X2501D02*
D03*
X7501D02*
D03*
X12501D02*
D03*
D16*
X27501Y-254500D02*
D03*
X-27499D02*
D03*
D47*
X5500Y-120000D02*
D03*
D48*
X-95000Y-71000D02*
D03*
Y-169000D02*
D03*
D49*
X-75000Y-95000D02*
D03*
Y-145000D02*
D03*
Y-120000D02*
D03*
D50*
X100000Y-245000D02*
D03*
X-100000D02*
D03*
X100000Y-20000D02*
D03*
X-100000D02*
D03*
X143000Y-229000D02*
D03*
X197000D02*
D03*
X-197000D02*
D03*
X-143000D02*
D03*
X115000Y-66000D02*
D03*
Y-174000D02*
D03*
X83000D02*
D03*
Y-66000D02*
D03*
X197000Y-51000D02*
D03*
X143000Y-51000D02*
D03*
X-143000D02*
D03*
X-197000D02*
D03*
D51*
X82500Y-152500D02*
D03*
Y-87500D02*
D03*
X127500D02*
D03*
Y-152500D02*
D03*
D52*
X210000Y-206000D02*
D03*
X210000Y-74000D02*
D03*
X-210000Y-74000D02*
D03*
Y-206000D02*
D03*
D53*
X170000Y-190800D02*
D03*
X-170000D02*
D03*
Y-140000D02*
D03*
X170000D02*
D03*
D54*
Y-89200D02*
D03*
X-170000D02*
D03*
D55*
X170000Y-229000D02*
D03*
X-170000D02*
D03*
X170000Y-51000D02*
D03*
X-170000D02*
D03*
M02*
