G04*
G04 #@! TF.GenerationSoftware,Altium Limited,Altium Designer,26.2.0 (7)*
G04*
G04 Layer_Color=65535*
%FSLAX44Y44*%
%MOMM*%
G71*
G04*
G04 #@! TF.SameCoordinates,6373B019-7604-42B0-9C82-F6B7EA48EFEB*
G04*
G04*
G04 #@! TF.FilePolarity,Positive*
G04*
G01*
G75*
%ADD10C,0.2000*%
%ADD11C,0.2540*%
%ADD12C,0.1270*%
%ADD13C,0.1500*%
%ADD14C,0.1800*%
G36*
X-61754Y-4519D02*
X-61691D01*
Y-4535D01*
X-61643D01*
Y-4551D01*
X-61612D01*
Y-4567D01*
X-61580D01*
Y-4582D01*
X-61548D01*
Y-4598D01*
X-61517D01*
Y-4614D01*
X-61501D01*
Y-4630D01*
X-61485D01*
Y-4646D01*
X-61453D01*
Y-4662D01*
X-61438D01*
Y-4678D01*
X-61422D01*
Y-4709D01*
X-61406D01*
Y-4725D01*
X-61390D01*
Y-4741D01*
X-61374D01*
Y-4757D01*
X-61358D01*
Y-4788D01*
X-61343D01*
Y-4820D01*
X-61327D01*
Y-4852D01*
X-61311D01*
Y-4899D01*
X-61295D01*
Y-4947D01*
X-61279D01*
Y-5058D01*
X-61263D01*
Y-11549D01*
X-61279D01*
Y-11660D01*
X-61295D01*
Y-11708D01*
X-61311D01*
Y-11755D01*
X-61327D01*
Y-11787D01*
X-61343D01*
Y-11818D01*
X-61358D01*
Y-11834D01*
X-61374D01*
Y-11866D01*
X-61390D01*
Y-11882D01*
X-61406D01*
Y-11897D01*
X-61422D01*
Y-11913D01*
X-61438D01*
Y-11929D01*
X-61453D01*
Y-11945D01*
X-61469D01*
Y-11961D01*
X-61485D01*
Y-11977D01*
X-61501D01*
Y-11992D01*
X-61533D01*
Y-12008D01*
X-61548D01*
Y-12024D01*
X-61580D01*
Y-12040D01*
X-61612D01*
Y-12056D01*
X-61659D01*
Y-12072D01*
X-61707D01*
Y-12088D01*
X-61817D01*
Y-12103D01*
X-64272D01*
Y-12088D01*
X-64383D01*
Y-12072D01*
X-64446D01*
Y-12056D01*
X-64493D01*
Y-12040D01*
X-64525D01*
Y-12024D01*
X-64557D01*
Y-12008D01*
X-64588D01*
Y-11992D01*
X-64604D01*
Y-11977D01*
X-64620D01*
Y-11961D01*
X-64652D01*
Y-11945D01*
X-64668D01*
Y-11929D01*
X-64683D01*
Y-11913D01*
X-64699D01*
Y-11897D01*
X-64715D01*
Y-11882D01*
X-64731D01*
Y-11850D01*
X-64747D01*
Y-11834D01*
X-64763D01*
Y-11803D01*
X-64778D01*
Y-11771D01*
X-64794D01*
Y-11739D01*
X-64810D01*
Y-11692D01*
X-64826D01*
Y-11644D01*
X-64842D01*
Y-9364D01*
X-64858D01*
Y-9269D01*
X-64873D01*
Y-9222D01*
X-64889D01*
Y-9174D01*
X-64905D01*
Y-9143D01*
X-64921D01*
Y-9111D01*
X-64937D01*
Y-9079D01*
X-64953D01*
Y-9063D01*
X-64968D01*
Y-9032D01*
X-64984D01*
Y-9016D01*
X-65000D01*
Y-9000D01*
X-65032D01*
Y-8984D01*
X-65063D01*
Y-8968D01*
X-65142D01*
Y-8984D01*
X-65190D01*
Y-9000D01*
X-65206D01*
Y-9016D01*
X-65222D01*
Y-9032D01*
X-65237D01*
Y-9047D01*
X-65253D01*
Y-9063D01*
X-65269D01*
Y-9079D01*
X-65285D01*
Y-9095D01*
X-65301D01*
Y-9111D01*
X-65317D01*
Y-9127D01*
X-65332D01*
Y-9143D01*
X-65348D01*
Y-9158D01*
X-65364D01*
Y-9174D01*
X-65380D01*
Y-9190D01*
X-65396D01*
Y-9206D01*
X-65412D01*
Y-9222D01*
X-65427D01*
Y-9237D01*
X-65443D01*
Y-9253D01*
X-65459D01*
Y-9269D01*
X-65475D01*
Y-9285D01*
X-65491D01*
Y-9317D01*
X-65507D01*
Y-9333D01*
X-65522D01*
Y-9348D01*
X-65538D01*
Y-9364D01*
X-65554D01*
Y-9380D01*
X-65570D01*
Y-9396D01*
X-65586D01*
Y-9412D01*
X-65602D01*
Y-9427D01*
X-65617D01*
Y-9443D01*
X-65633D01*
Y-9459D01*
X-65649D01*
Y-9475D01*
X-65665D01*
Y-9491D01*
X-65681D01*
Y-9507D01*
X-65697D01*
Y-9523D01*
X-65712D01*
Y-9538D01*
X-65728D01*
Y-9554D01*
X-65744D01*
Y-9570D01*
X-65760D01*
Y-9586D01*
X-65776D01*
Y-9602D01*
X-65792D01*
Y-9617D01*
X-65807D01*
Y-9633D01*
X-65823D01*
Y-9665D01*
X-65839D01*
Y-9681D01*
X-65855D01*
Y-9697D01*
X-65871D01*
Y-9712D01*
X-65887D01*
Y-9728D01*
X-65903D01*
Y-9744D01*
X-65918D01*
Y-9760D01*
X-65934D01*
Y-9776D01*
X-65950D01*
Y-9792D01*
X-65966D01*
Y-9808D01*
X-65982D01*
Y-9823D01*
X-65998D01*
Y-9839D01*
X-66013D01*
Y-9855D01*
X-66029D01*
Y-9871D01*
X-66045D01*
Y-9887D01*
X-66061D01*
Y-9902D01*
X-66077D01*
Y-9918D01*
X-66093D01*
Y-9934D01*
X-66108D01*
Y-9950D01*
X-66124D01*
Y-9982D01*
X-66140D01*
Y-9998D01*
X-66156D01*
Y-10013D01*
X-66172D01*
Y-10029D01*
X-66188D01*
Y-10045D01*
X-66203D01*
Y-10061D01*
X-66219D01*
Y-10077D01*
X-66235D01*
Y-10093D01*
X-66251D01*
Y-10108D01*
X-66267D01*
Y-10124D01*
X-66283D01*
Y-10140D01*
X-66298D01*
Y-10156D01*
X-66314D01*
Y-10172D01*
X-66330D01*
Y-10187D01*
X-66346D01*
Y-10203D01*
X-66362D01*
Y-10219D01*
X-66378D01*
Y-10235D01*
X-66393D01*
Y-10251D01*
X-66409D01*
Y-10267D01*
X-66425D01*
Y-10298D01*
X-66441D01*
Y-10314D01*
X-66457D01*
Y-10330D01*
X-66473D01*
Y-10346D01*
X-66488D01*
Y-10362D01*
X-66504D01*
Y-10378D01*
X-66520D01*
Y-10393D01*
X-66536D01*
Y-10409D01*
X-66552D01*
Y-10425D01*
X-66568D01*
Y-10441D01*
X-66583D01*
Y-10457D01*
X-66599D01*
Y-10473D01*
X-66615D01*
Y-10488D01*
X-66631D01*
Y-10504D01*
X-66647D01*
Y-10520D01*
X-66663D01*
Y-10536D01*
X-66678D01*
Y-10552D01*
X-66694D01*
Y-10568D01*
X-66710D01*
Y-10583D01*
X-66726D01*
Y-10615D01*
X-66742D01*
Y-10631D01*
X-66757D01*
Y-10647D01*
X-66773D01*
Y-10662D01*
X-66789D01*
Y-10678D01*
X-66805D01*
Y-10694D01*
X-66821D01*
Y-10710D01*
X-66837D01*
Y-10726D01*
X-66852D01*
Y-10742D01*
X-66868D01*
Y-10757D01*
X-66884D01*
Y-10773D01*
X-66900D01*
Y-10789D01*
X-66916D01*
Y-10805D01*
X-66932D01*
Y-10821D01*
X-66947D01*
Y-10837D01*
X-66963D01*
Y-10853D01*
X-66979D01*
Y-10868D01*
X-66995D01*
Y-10884D01*
X-67011D01*
Y-10900D01*
X-67027D01*
Y-10932D01*
X-67042D01*
Y-10948D01*
X-67058D01*
Y-10963D01*
X-67074D01*
Y-10979D01*
X-67090D01*
Y-10995D01*
X-67106D01*
Y-11011D01*
X-67122D01*
Y-11027D01*
X-67137D01*
Y-11042D01*
X-67153D01*
Y-11058D01*
X-67169D01*
Y-11074D01*
X-67185D01*
Y-11090D01*
X-67201D01*
Y-11106D01*
X-67217D01*
Y-11122D01*
X-67232D01*
Y-11137D01*
X-67248D01*
Y-11153D01*
X-67264D01*
Y-11169D01*
X-67280D01*
Y-11185D01*
X-67296D01*
Y-11201D01*
X-67312D01*
Y-11217D01*
X-67327D01*
Y-11248D01*
X-67343D01*
Y-11264D01*
X-67359D01*
Y-11280D01*
X-67375D01*
Y-11296D01*
X-67391D01*
Y-11312D01*
X-67407D01*
Y-11328D01*
X-67422D01*
Y-11343D01*
X-67438D01*
Y-11359D01*
X-67454D01*
Y-11375D01*
X-67470D01*
Y-11391D01*
X-67486D01*
Y-11407D01*
X-67502D01*
Y-11422D01*
X-67517D01*
Y-11438D01*
X-67533D01*
Y-11454D01*
X-67549D01*
Y-11470D01*
X-67565D01*
Y-11486D01*
X-67581D01*
Y-11502D01*
X-67597D01*
Y-11517D01*
X-67613D01*
Y-11533D01*
X-67628D01*
Y-11565D01*
X-67644D01*
Y-11581D01*
X-67660D01*
Y-11597D01*
X-67676D01*
Y-11612D01*
X-67692D01*
Y-11628D01*
X-67708D01*
Y-11644D01*
X-67723D01*
Y-11660D01*
X-67739D01*
Y-11676D01*
X-67755D01*
Y-11692D01*
X-67771D01*
Y-11708D01*
X-67787D01*
Y-11723D01*
X-67803D01*
Y-11739D01*
X-67818D01*
Y-11755D01*
X-67834D01*
Y-11771D01*
X-67850D01*
Y-11787D01*
X-67866D01*
Y-11803D01*
X-67882D01*
Y-11818D01*
X-67898D01*
Y-11834D01*
X-67913D01*
Y-11850D01*
X-67929D01*
Y-11882D01*
X-67945D01*
Y-11897D01*
X-67961D01*
Y-11913D01*
X-67993D01*
Y-11929D01*
X-68008D01*
Y-11945D01*
X-68024D01*
Y-11961D01*
X-68040D01*
Y-11977D01*
X-68056D01*
Y-11992D01*
X-68088D01*
Y-12008D01*
X-68119D01*
Y-12024D01*
X-68151D01*
Y-12040D01*
X-68198D01*
Y-12056D01*
X-68278D01*
Y-12072D01*
X-68483D01*
Y-12056D01*
X-68547D01*
Y-12040D01*
X-68594D01*
Y-12024D01*
X-68626D01*
Y-12008D01*
X-68657D01*
Y-11992D01*
X-68689D01*
Y-11977D01*
X-68705D01*
Y-11961D01*
X-68721D01*
Y-11945D01*
X-68752D01*
Y-11929D01*
X-68768D01*
Y-11913D01*
X-68784D01*
Y-11897D01*
X-68800D01*
Y-11882D01*
X-68816D01*
Y-11866D01*
X-68832D01*
Y-11850D01*
X-68847D01*
Y-11834D01*
X-68863D01*
Y-11803D01*
X-68879D01*
Y-11787D01*
X-68895D01*
Y-11771D01*
X-68911D01*
Y-11755D01*
X-68927D01*
Y-11739D01*
X-68942D01*
Y-11723D01*
X-68958D01*
Y-11708D01*
X-68974D01*
Y-11692D01*
X-68990D01*
Y-11676D01*
X-69006D01*
Y-11660D01*
X-69022D01*
Y-11644D01*
X-69037D01*
Y-11628D01*
X-69053D01*
Y-11612D01*
X-69069D01*
Y-11597D01*
X-69085D01*
Y-11581D01*
X-69101D01*
Y-11565D01*
X-69117D01*
Y-11549D01*
X-69132D01*
Y-11533D01*
X-69148D01*
Y-11517D01*
X-69164D01*
Y-11486D01*
X-69180D01*
Y-11470D01*
X-69196D01*
Y-11454D01*
X-69212D01*
Y-11438D01*
X-69227D01*
Y-11422D01*
X-69243D01*
Y-11407D01*
X-69259D01*
Y-11391D01*
X-69275D01*
Y-11375D01*
X-69291D01*
Y-11359D01*
X-69307D01*
Y-11343D01*
X-69323D01*
Y-11328D01*
X-69338D01*
Y-11312D01*
X-69354D01*
Y-11296D01*
X-69370D01*
Y-11280D01*
X-69386D01*
Y-11264D01*
X-69402D01*
Y-11248D01*
X-69418D01*
Y-11233D01*
X-69433D01*
Y-11217D01*
X-69449D01*
Y-11201D01*
X-69465D01*
Y-11169D01*
X-69481D01*
Y-11153D01*
X-69497D01*
Y-11137D01*
X-69513D01*
Y-11122D01*
X-69528D01*
Y-11106D01*
X-69544D01*
Y-11090D01*
X-69560D01*
Y-11074D01*
X-69576D01*
Y-11058D01*
X-69592D01*
Y-11042D01*
X-69608D01*
Y-11027D01*
X-69623D01*
Y-11011D01*
X-69639D01*
Y-10995D01*
X-69655D01*
Y-10979D01*
X-69671D01*
Y-10963D01*
X-69687D01*
Y-10948D01*
X-69703D01*
Y-10932D01*
X-69718D01*
Y-10916D01*
X-69734D01*
Y-10900D01*
X-69750D01*
Y-10884D01*
X-69766D01*
Y-10853D01*
X-69782D01*
Y-10837D01*
X-69798D01*
Y-10821D01*
X-69813D01*
Y-10805D01*
X-69829D01*
Y-10789D01*
X-69845D01*
Y-10773D01*
X-69861D01*
Y-10757D01*
X-69877D01*
Y-10742D01*
X-69893D01*
Y-10726D01*
X-69908D01*
Y-10710D01*
X-69924D01*
Y-10694D01*
X-69940D01*
Y-10678D01*
X-69956D01*
Y-10662D01*
X-69972D01*
Y-10647D01*
X-69988D01*
Y-10631D01*
X-70003D01*
Y-10615D01*
X-70019D01*
Y-10599D01*
X-70035D01*
Y-10583D01*
X-70051D01*
Y-10568D01*
X-70067D01*
Y-10536D01*
X-70083D01*
Y-10520D01*
X-70098D01*
Y-10504D01*
X-70114D01*
Y-10488D01*
X-70130D01*
Y-10473D01*
X-70146D01*
Y-10457D01*
X-70162D01*
Y-10441D01*
X-70177D01*
Y-10425D01*
X-70193D01*
Y-10409D01*
X-70209D01*
Y-10393D01*
X-70225D01*
Y-10378D01*
X-70241D01*
Y-10362D01*
X-70257D01*
Y-10346D01*
X-70272D01*
Y-10330D01*
X-70288D01*
Y-10314D01*
X-70304D01*
Y-10298D01*
X-70320D01*
Y-10282D01*
X-70336D01*
Y-10267D01*
X-70352D01*
Y-10251D01*
X-70367D01*
Y-10219D01*
X-70383D01*
Y-10203D01*
X-70399D01*
Y-10187D01*
X-70415D01*
Y-10172D01*
X-70431D01*
Y-10156D01*
X-70447D01*
Y-10140D01*
X-70462D01*
Y-10124D01*
X-70478D01*
Y-10108D01*
X-70494D01*
Y-10093D01*
X-70510D01*
Y-10077D01*
X-70526D01*
Y-10061D01*
X-70542D01*
Y-10045D01*
X-70557D01*
Y-10029D01*
X-70573D01*
Y-10013D01*
X-70589D01*
Y-9998D01*
X-70605D01*
Y-9982D01*
X-70621D01*
Y-9966D01*
X-70637D01*
Y-9950D01*
X-70652D01*
Y-9934D01*
X-70668D01*
Y-9918D01*
X-70684D01*
Y-9887D01*
X-70700D01*
Y-9871D01*
X-70716D01*
Y-9855D01*
X-70732D01*
Y-9839D01*
X-70747D01*
Y-9823D01*
X-70763D01*
Y-9808D01*
X-70779D01*
Y-9792D01*
X-70795D01*
Y-9776D01*
X-70811D01*
Y-9760D01*
X-70827D01*
Y-9744D01*
X-70842D01*
Y-9728D01*
X-70858D01*
Y-9712D01*
X-70874D01*
Y-9697D01*
X-70890D01*
Y-9681D01*
X-70906D01*
Y-9665D01*
X-70922D01*
Y-9649D01*
X-70938D01*
Y-9633D01*
X-70953D01*
Y-9617D01*
X-70969D01*
Y-9602D01*
X-70985D01*
Y-9586D01*
X-71001D01*
Y-9570D01*
X-71017D01*
Y-9538D01*
X-71033D01*
Y-9523D01*
X-71048D01*
Y-9507D01*
X-71064D01*
Y-9491D01*
X-71080D01*
Y-9475D01*
X-71096D01*
Y-9459D01*
X-71112D01*
Y-9443D01*
X-71128D01*
Y-9427D01*
X-71143D01*
Y-9412D01*
X-71159D01*
Y-9396D01*
X-71175D01*
Y-9380D01*
X-71191D01*
Y-9364D01*
X-71207D01*
Y-9348D01*
X-71223D01*
Y-9333D01*
X-71238D01*
Y-9317D01*
X-71254D01*
Y-9301D01*
X-71270D01*
Y-9285D01*
X-71286D01*
Y-9269D01*
X-71302D01*
Y-9237D01*
X-71318D01*
Y-9222D01*
X-71333D01*
Y-9206D01*
X-71349D01*
Y-9190D01*
X-71365D01*
Y-9174D01*
X-71381D01*
Y-9158D01*
X-71397D01*
Y-9143D01*
X-71413D01*
Y-9127D01*
X-71428D01*
Y-9111D01*
X-71444D01*
Y-9095D01*
X-71460D01*
Y-9079D01*
X-71476D01*
Y-9063D01*
X-71492D01*
Y-9047D01*
X-71508D01*
Y-9032D01*
X-71523D01*
Y-9016D01*
X-71539D01*
Y-9000D01*
X-71555D01*
Y-8984D01*
X-71603D01*
Y-8968D01*
X-71698D01*
Y-8984D01*
X-71713D01*
Y-9000D01*
X-71745D01*
Y-9016D01*
X-71761D01*
Y-9032D01*
X-71777D01*
Y-9047D01*
X-71792D01*
Y-9079D01*
X-71808D01*
Y-9095D01*
X-71824D01*
Y-9127D01*
X-71840D01*
Y-9158D01*
X-71856D01*
Y-9206D01*
X-71872D01*
Y-9253D01*
X-71887D01*
Y-9333D01*
X-71903D01*
Y-11628D01*
X-71919D01*
Y-11692D01*
X-71935D01*
Y-11739D01*
X-71951D01*
Y-11771D01*
X-71967D01*
Y-11803D01*
X-71982D01*
Y-11818D01*
X-71998D01*
Y-11850D01*
X-72014D01*
Y-11866D01*
X-72030D01*
Y-11882D01*
X-72046D01*
Y-11913D01*
X-72062D01*
Y-11929D01*
X-72077D01*
Y-11945D01*
X-72109D01*
Y-11961D01*
X-72125D01*
Y-11977D01*
X-72141D01*
Y-11992D01*
X-72172D01*
Y-12008D01*
X-72188D01*
Y-12024D01*
X-72220D01*
Y-12040D01*
X-72252D01*
Y-12056D01*
X-72299D01*
Y-12072D01*
X-72362D01*
Y-12088D01*
X-72473D01*
Y-12103D01*
X-74928D01*
Y-12088D01*
X-75038D01*
Y-12072D01*
X-75086D01*
Y-12056D01*
X-75133D01*
Y-12040D01*
X-75165D01*
Y-12024D01*
X-75197D01*
Y-12008D01*
X-75228D01*
Y-11992D01*
X-75244D01*
Y-11977D01*
X-75260D01*
Y-11961D01*
X-75276D01*
Y-11945D01*
X-75292D01*
Y-11929D01*
X-75307D01*
Y-11913D01*
X-75323D01*
Y-11897D01*
X-75339D01*
Y-11882D01*
X-75355D01*
Y-11866D01*
X-75371D01*
Y-11850D01*
X-75387D01*
Y-11818D01*
X-75402D01*
Y-11787D01*
X-75418D01*
Y-11755D01*
X-75434D01*
Y-11723D01*
X-75450D01*
Y-11660D01*
X-75466D01*
Y-11581D01*
X-75482D01*
Y-5026D01*
X-75466D01*
Y-4931D01*
X-75450D01*
Y-4883D01*
X-75434D01*
Y-4836D01*
X-75418D01*
Y-4804D01*
X-75402D01*
Y-4788D01*
X-75387D01*
Y-4757D01*
X-75371D01*
Y-4741D01*
X-75355D01*
Y-4709D01*
X-75339D01*
Y-4693D01*
X-75323D01*
Y-4678D01*
X-75307D01*
Y-4662D01*
X-75292D01*
Y-4646D01*
X-75276D01*
Y-4630D01*
X-75244D01*
Y-4614D01*
X-75228D01*
Y-4598D01*
X-75197D01*
Y-4582D01*
X-75165D01*
Y-4567D01*
X-75133D01*
Y-4551D01*
X-75102D01*
Y-4535D01*
X-75054D01*
Y-4519D01*
X-74991D01*
Y-4503D01*
X-72014D01*
Y-4519D01*
X-71967D01*
Y-4535D01*
X-71919D01*
Y-4551D01*
X-71887D01*
Y-4567D01*
X-71856D01*
Y-4582D01*
X-71824D01*
Y-4598D01*
X-71808D01*
Y-4614D01*
X-71777D01*
Y-4630D01*
X-71761D01*
Y-4646D01*
X-71745D01*
Y-4662D01*
X-71729D01*
Y-4678D01*
X-71713D01*
Y-4693D01*
X-71698D01*
Y-4709D01*
X-71682D01*
Y-4725D01*
X-71666D01*
Y-4741D01*
X-71650D01*
Y-4757D01*
X-71634D01*
Y-4773D01*
X-71618D01*
Y-4788D01*
X-71603D01*
Y-4804D01*
X-71587D01*
Y-4820D01*
X-71571D01*
Y-4836D01*
X-71555D01*
Y-4852D01*
X-71539D01*
Y-4868D01*
X-71523D01*
Y-4883D01*
X-71508D01*
Y-4899D01*
X-71492D01*
Y-4915D01*
X-71476D01*
Y-4931D01*
X-71460D01*
Y-4947D01*
X-71444D01*
Y-4978D01*
X-71428D01*
Y-4994D01*
X-71413D01*
Y-5010D01*
X-71397D01*
Y-5026D01*
X-71381D01*
Y-5042D01*
X-71365D01*
Y-5058D01*
X-71349D01*
Y-5073D01*
X-71333D01*
Y-5089D01*
X-71318D01*
Y-5105D01*
X-71302D01*
Y-5121D01*
X-71286D01*
Y-5137D01*
X-71270D01*
Y-5153D01*
X-71254D01*
Y-5168D01*
X-71238D01*
Y-5184D01*
X-71223D01*
Y-5200D01*
X-71207D01*
Y-5216D01*
X-71191D01*
Y-5232D01*
X-71175D01*
Y-5247D01*
X-71159D01*
Y-5279D01*
X-71143D01*
Y-5295D01*
X-71128D01*
Y-5311D01*
X-71112D01*
Y-5327D01*
X-71096D01*
Y-5343D01*
X-71080D01*
Y-5358D01*
X-71064D01*
Y-5374D01*
X-71048D01*
Y-5390D01*
X-71033D01*
Y-5406D01*
X-71017D01*
Y-5422D01*
X-71001D01*
Y-5437D01*
X-70985D01*
Y-5453D01*
X-70969D01*
Y-5469D01*
X-70953D01*
Y-5485D01*
X-70938D01*
Y-5501D01*
X-70922D01*
Y-5517D01*
X-70906D01*
Y-5533D01*
X-70890D01*
Y-5548D01*
X-70874D01*
Y-5564D01*
X-70858D01*
Y-5596D01*
X-70842D01*
Y-5612D01*
X-70827D01*
Y-5627D01*
X-70811D01*
Y-5643D01*
X-70795D01*
Y-5659D01*
X-70779D01*
Y-5675D01*
X-70763D01*
Y-5691D01*
X-70747D01*
Y-5707D01*
X-70732D01*
Y-5723D01*
X-70716D01*
Y-5738D01*
X-70700D01*
Y-5754D01*
X-70684D01*
Y-5770D01*
X-70668D01*
Y-5786D01*
X-70652D01*
Y-5802D01*
X-70637D01*
Y-5817D01*
X-70621D01*
Y-5833D01*
X-70605D01*
Y-5849D01*
X-70589D01*
Y-5865D01*
X-70573D01*
Y-5881D01*
X-70557D01*
Y-5897D01*
X-70542D01*
Y-5913D01*
X-70526D01*
Y-5944D01*
X-70510D01*
Y-5960D01*
X-70494D01*
Y-5976D01*
X-70478D01*
Y-5992D01*
X-70462D01*
Y-6008D01*
X-70447D01*
Y-6023D01*
X-70431D01*
Y-6039D01*
X-70415D01*
Y-6055D01*
X-70399D01*
Y-6071D01*
X-70383D01*
Y-6087D01*
X-70367D01*
Y-6102D01*
X-70352D01*
Y-6118D01*
X-70336D01*
Y-6134D01*
X-70320D01*
Y-6150D01*
X-70304D01*
Y-6166D01*
X-70288D01*
Y-6182D01*
X-70272D01*
Y-6198D01*
X-70257D01*
Y-6213D01*
X-70241D01*
Y-6229D01*
X-70225D01*
Y-6261D01*
X-70209D01*
Y-6277D01*
X-70193D01*
Y-6292D01*
X-70177D01*
Y-6308D01*
X-70162D01*
Y-6324D01*
X-70146D01*
Y-6340D01*
X-70130D01*
Y-6356D01*
X-70114D01*
Y-6372D01*
X-70098D01*
Y-6388D01*
X-70083D01*
Y-6403D01*
X-70067D01*
Y-6419D01*
X-70051D01*
Y-6435D01*
X-70035D01*
Y-6451D01*
X-70019D01*
Y-6467D01*
X-70003D01*
Y-6482D01*
X-69988D01*
Y-6498D01*
X-69972D01*
Y-6514D01*
X-69956D01*
Y-6530D01*
X-69940D01*
Y-6546D01*
X-69924D01*
Y-6578D01*
X-69908D01*
Y-6593D01*
X-69893D01*
Y-6609D01*
X-69877D01*
Y-6625D01*
X-69861D01*
Y-6641D01*
X-69845D01*
Y-6657D01*
X-69829D01*
Y-6672D01*
X-69813D01*
Y-6688D01*
X-69798D01*
Y-6704D01*
X-69782D01*
Y-6720D01*
X-69766D01*
Y-6736D01*
X-69750D01*
Y-6752D01*
X-69734D01*
Y-6768D01*
X-69718D01*
Y-6783D01*
X-69703D01*
Y-6799D01*
X-69687D01*
Y-6815D01*
X-69671D01*
Y-6831D01*
X-69655D01*
Y-6847D01*
X-69639D01*
Y-6862D01*
X-69623D01*
Y-6894D01*
X-69608D01*
Y-6910D01*
X-69592D01*
Y-6926D01*
X-69576D01*
Y-6942D01*
X-69560D01*
Y-6957D01*
X-69544D01*
Y-6973D01*
X-69528D01*
Y-6989D01*
X-69513D01*
Y-7005D01*
X-69497D01*
Y-7021D01*
X-69481D01*
Y-7037D01*
X-69465D01*
Y-7053D01*
X-69449D01*
Y-7068D01*
X-69433D01*
Y-7084D01*
X-69418D01*
Y-7100D01*
X-69402D01*
Y-7116D01*
X-69386D01*
Y-7132D01*
X-69370D01*
Y-7147D01*
X-69354D01*
Y-7163D01*
X-69338D01*
Y-7179D01*
X-69323D01*
Y-7195D01*
X-69307D01*
Y-7227D01*
X-69291D01*
Y-7243D01*
X-69275D01*
Y-7258D01*
X-69259D01*
Y-7274D01*
X-69243D01*
Y-7290D01*
X-69227D01*
Y-7306D01*
X-69212D01*
Y-7322D01*
X-69196D01*
Y-7337D01*
X-69180D01*
Y-7353D01*
X-69164D01*
Y-7369D01*
X-69148D01*
Y-7385D01*
X-69132D01*
Y-7401D01*
X-69117D01*
Y-7417D01*
X-69101D01*
Y-7433D01*
X-69085D01*
Y-7448D01*
X-69069D01*
Y-7464D01*
X-69053D01*
Y-7480D01*
X-69037D01*
Y-7496D01*
X-69022D01*
Y-7527D01*
X-69006D01*
Y-7543D01*
X-68990D01*
Y-7559D01*
X-68974D01*
Y-7575D01*
X-68958D01*
Y-7591D01*
X-68942D01*
Y-7607D01*
X-68927D01*
Y-7623D01*
X-68911D01*
Y-7638D01*
X-68895D01*
Y-7654D01*
X-68879D01*
Y-7670D01*
X-68863D01*
Y-7686D01*
X-68847D01*
Y-7702D01*
X-68832D01*
Y-7717D01*
X-68816D01*
Y-7733D01*
X-68800D01*
Y-7749D01*
X-68784D01*
Y-7765D01*
X-68768D01*
Y-7781D01*
X-68752D01*
Y-7797D01*
X-68737D01*
Y-7812D01*
X-68721D01*
Y-7844D01*
X-68705D01*
Y-7860D01*
X-68689D01*
Y-7876D01*
X-68673D01*
Y-7892D01*
X-68657D01*
Y-7908D01*
X-68642D01*
Y-7923D01*
X-68626D01*
Y-7939D01*
X-68610D01*
Y-7955D01*
X-68594D01*
Y-7971D01*
X-68578D01*
Y-7987D01*
X-68562D01*
Y-8002D01*
X-68547D01*
Y-8018D01*
X-68531D01*
Y-8034D01*
X-68515D01*
Y-8050D01*
X-68499D01*
Y-8066D01*
X-68483D01*
Y-8082D01*
X-68467D01*
Y-8098D01*
X-68436D01*
Y-8113D01*
X-68404D01*
Y-8129D01*
X-68341D01*
Y-8113D01*
X-68309D01*
Y-8098D01*
X-68278D01*
Y-8082D01*
X-68262D01*
Y-8066D01*
X-68246D01*
Y-8050D01*
X-68230D01*
Y-8034D01*
X-68214D01*
Y-8018D01*
X-68198D01*
Y-8002D01*
X-68183D01*
Y-7987D01*
X-68167D01*
Y-7971D01*
X-68151D01*
Y-7955D01*
X-68135D01*
Y-7939D01*
X-68119D01*
Y-7908D01*
X-68103D01*
Y-7892D01*
X-68088D01*
Y-7876D01*
X-68072D01*
Y-7860D01*
X-68056D01*
Y-7844D01*
X-68040D01*
Y-7828D01*
X-68024D01*
Y-7812D01*
X-68008D01*
Y-7797D01*
X-67993D01*
Y-7781D01*
X-67977D01*
Y-7765D01*
X-67961D01*
Y-7749D01*
X-67945D01*
Y-7733D01*
X-67929D01*
Y-7717D01*
X-67913D01*
Y-7702D01*
X-67898D01*
Y-7686D01*
X-67882D01*
Y-7670D01*
X-67866D01*
Y-7654D01*
X-67850D01*
Y-7638D01*
X-67834D01*
Y-7623D01*
X-67818D01*
Y-7607D01*
X-67803D01*
Y-7591D01*
X-67787D01*
Y-7559D01*
X-67771D01*
Y-7543D01*
X-67755D01*
Y-7527D01*
X-67739D01*
Y-7512D01*
X-67723D01*
Y-7496D01*
X-67708D01*
Y-7480D01*
X-67692D01*
Y-7464D01*
X-67676D01*
Y-7448D01*
X-67660D01*
Y-7433D01*
X-67644D01*
Y-7417D01*
X-67628D01*
Y-7401D01*
X-67613D01*
Y-7385D01*
X-67597D01*
Y-7369D01*
X-67581D01*
Y-7353D01*
X-67565D01*
Y-7337D01*
X-67549D01*
Y-7322D01*
X-67533D01*
Y-7306D01*
X-67517D01*
Y-7290D01*
X-67502D01*
Y-7274D01*
X-67486D01*
Y-7243D01*
X-67470D01*
Y-7227D01*
X-67454D01*
Y-7211D01*
X-67438D01*
Y-7195D01*
X-67422D01*
Y-7179D01*
X-67407D01*
Y-7163D01*
X-67391D01*
Y-7147D01*
X-67375D01*
Y-7132D01*
X-67359D01*
Y-7116D01*
X-67343D01*
Y-7100D01*
X-67327D01*
Y-7084D01*
X-67312D01*
Y-7068D01*
X-67296D01*
Y-7053D01*
X-67280D01*
Y-7037D01*
X-67264D01*
Y-7021D01*
X-67248D01*
Y-7005D01*
X-67232D01*
Y-6989D01*
X-67217D01*
Y-6973D01*
X-67201D01*
Y-6957D01*
X-67185D01*
Y-6926D01*
X-67169D01*
Y-6910D01*
X-67153D01*
Y-6894D01*
X-67137D01*
Y-6878D01*
X-67122D01*
Y-6862D01*
X-67106D01*
Y-6847D01*
X-67090D01*
Y-6831D01*
X-67074D01*
Y-6815D01*
X-67058D01*
Y-6799D01*
X-67042D01*
Y-6783D01*
X-67027D01*
Y-6768D01*
X-67011D01*
Y-6752D01*
X-66995D01*
Y-6736D01*
X-66979D01*
Y-6720D01*
X-66963D01*
Y-6704D01*
X-66947D01*
Y-6688D01*
X-66932D01*
Y-6672D01*
X-66916D01*
Y-6657D01*
X-66900D01*
Y-6641D01*
X-66884D01*
Y-6609D01*
X-66868D01*
Y-6593D01*
X-66852D01*
Y-6578D01*
X-66837D01*
Y-6562D01*
X-66821D01*
Y-6546D01*
X-66805D01*
Y-6530D01*
X-66789D01*
Y-6514D01*
X-66773D01*
Y-6498D01*
X-66757D01*
Y-6482D01*
X-66742D01*
Y-6467D01*
X-66726D01*
Y-6451D01*
X-66710D01*
Y-6435D01*
X-66694D01*
Y-6419D01*
X-66678D01*
Y-6403D01*
X-66663D01*
Y-6388D01*
X-66647D01*
Y-6372D01*
X-66631D01*
Y-6356D01*
X-66615D01*
Y-6340D01*
X-66599D01*
Y-6324D01*
X-66583D01*
Y-6292D01*
X-66568D01*
Y-6277D01*
X-66552D01*
Y-6261D01*
X-66536D01*
Y-6245D01*
X-66520D01*
Y-6229D01*
X-66504D01*
Y-6213D01*
X-66488D01*
Y-6198D01*
X-66473D01*
Y-6182D01*
X-66457D01*
Y-6166D01*
X-66441D01*
Y-6150D01*
X-66425D01*
Y-6134D01*
X-66409D01*
Y-6118D01*
X-66393D01*
Y-6102D01*
X-66378D01*
Y-6087D01*
X-66362D01*
Y-6071D01*
X-66346D01*
Y-6055D01*
X-66330D01*
Y-6039D01*
X-66314D01*
Y-6023D01*
X-66298D01*
Y-6008D01*
X-66283D01*
Y-5976D01*
X-66267D01*
Y-5960D01*
X-66251D01*
Y-5944D01*
X-66235D01*
Y-5928D01*
X-66219D01*
Y-5913D01*
X-66203D01*
Y-5897D01*
X-66188D01*
Y-5881D01*
X-66172D01*
Y-5865D01*
X-66156D01*
Y-5849D01*
X-66140D01*
Y-5833D01*
X-66124D01*
Y-5817D01*
X-66108D01*
Y-5802D01*
X-66093D01*
Y-5786D01*
X-66077D01*
Y-5770D01*
X-66061D01*
Y-5754D01*
X-66045D01*
Y-5738D01*
X-66029D01*
Y-5723D01*
X-66013D01*
Y-5707D01*
X-65998D01*
Y-5691D01*
X-65982D01*
Y-5659D01*
X-65966D01*
Y-5643D01*
X-65950D01*
Y-5627D01*
X-65934D01*
Y-5612D01*
X-65918D01*
Y-5596D01*
X-65903D01*
Y-5580D01*
X-65887D01*
Y-5564D01*
X-65871D01*
Y-5548D01*
X-65855D01*
Y-5533D01*
X-65839D01*
Y-5517D01*
X-65823D01*
Y-5501D01*
X-65807D01*
Y-5485D01*
X-65792D01*
Y-5469D01*
X-65776D01*
Y-5453D01*
X-65760D01*
Y-5437D01*
X-65744D01*
Y-5422D01*
X-65728D01*
Y-5406D01*
X-65712D01*
Y-5390D01*
X-65697D01*
Y-5374D01*
X-65681D01*
Y-5358D01*
X-65665D01*
Y-5343D01*
X-65649D01*
Y-5311D01*
X-65633D01*
Y-5295D01*
X-65617D01*
Y-5279D01*
X-65602D01*
Y-5263D01*
X-65586D01*
Y-5247D01*
X-65570D01*
Y-5232D01*
X-65554D01*
Y-5216D01*
X-65538D01*
Y-5200D01*
X-65522D01*
Y-5184D01*
X-65507D01*
Y-5168D01*
X-65491D01*
Y-5153D01*
X-65475D01*
Y-5137D01*
X-65459D01*
Y-5121D01*
X-65443D01*
Y-5105D01*
X-65427D01*
Y-5089D01*
X-65412D01*
Y-5073D01*
X-65396D01*
Y-5058D01*
X-65380D01*
Y-5042D01*
X-65364D01*
Y-5026D01*
X-65348D01*
Y-4994D01*
X-65332D01*
Y-4978D01*
X-65317D01*
Y-4963D01*
X-65301D01*
Y-4947D01*
X-65285D01*
Y-4931D01*
X-65269D01*
Y-4915D01*
X-65253D01*
Y-4899D01*
X-65237D01*
Y-4883D01*
X-65222D01*
Y-4868D01*
X-65206D01*
Y-4852D01*
X-65190D01*
Y-4836D01*
X-65174D01*
Y-4820D01*
X-65158D01*
Y-4804D01*
X-65142D01*
Y-4788D01*
X-65127D01*
Y-4773D01*
X-65111D01*
Y-4757D01*
X-65095D01*
Y-4741D01*
X-65079D01*
Y-4725D01*
X-65063D01*
Y-4693D01*
X-65047D01*
Y-4678D01*
X-65032D01*
Y-4662D01*
X-65016D01*
Y-4646D01*
X-64984D01*
Y-4630D01*
X-64968D01*
Y-4614D01*
X-64953D01*
Y-4598D01*
X-64921D01*
Y-4582D01*
X-64889D01*
Y-4567D01*
X-64873D01*
Y-4551D01*
X-64826D01*
Y-4535D01*
X-64794D01*
Y-4519D01*
X-64731D01*
Y-4503D01*
X-61754D01*
Y-4519D01*
D02*
G37*
G36*
X-61817Y-12974D02*
X-61707D01*
Y-12990D01*
X-61659D01*
Y-13006D01*
X-61612D01*
Y-13022D01*
X-61580D01*
Y-13038D01*
X-61548D01*
Y-13053D01*
X-61533D01*
Y-13069D01*
X-61501D01*
Y-13085D01*
X-61485D01*
Y-13101D01*
X-61469D01*
Y-13117D01*
X-61453D01*
Y-13132D01*
X-61438D01*
Y-13148D01*
X-61422D01*
Y-13164D01*
X-61406D01*
Y-13180D01*
X-61390D01*
Y-13196D01*
X-61374D01*
Y-13227D01*
X-61358D01*
Y-13243D01*
X-61343D01*
Y-13275D01*
X-61327D01*
Y-13307D01*
X-61311D01*
Y-13354D01*
X-61295D01*
Y-13402D01*
X-61279D01*
Y-13513D01*
X-61263D01*
Y-18152D01*
X-61279D01*
Y-18247D01*
X-61295D01*
Y-18310D01*
X-61311D01*
Y-18342D01*
X-61327D01*
Y-18389D01*
X-61343D01*
Y-18405D01*
X-61358D01*
Y-18437D01*
X-61374D01*
Y-18453D01*
X-61390D01*
Y-18484D01*
X-61406D01*
Y-18500D01*
X-61422D01*
Y-18516D01*
X-61438D01*
Y-18532D01*
X-61453D01*
Y-18548D01*
X-61469D01*
Y-18563D01*
X-61485D01*
Y-18579D01*
X-61517D01*
Y-18595D01*
X-61533D01*
Y-18611D01*
X-61564D01*
Y-18627D01*
X-61596D01*
Y-18642D01*
X-61627D01*
Y-18658D01*
X-61675D01*
Y-18674D01*
X-61722D01*
Y-18690D01*
X-62277D01*
Y-18706D01*
X-65095D01*
Y-18690D01*
X-67042D01*
Y-18674D01*
X-67106D01*
Y-18658D01*
X-67137D01*
Y-18642D01*
X-67169D01*
Y-18627D01*
X-67201D01*
Y-18611D01*
X-67232D01*
Y-18595D01*
X-67248D01*
Y-18579D01*
X-67280D01*
Y-18563D01*
X-67296D01*
Y-18548D01*
X-67312D01*
Y-18532D01*
X-67327D01*
Y-18516D01*
X-67343D01*
Y-18500D01*
X-67359D01*
Y-18484D01*
X-67375D01*
Y-18468D01*
X-67391D01*
Y-18437D01*
X-67407D01*
Y-18421D01*
X-67422D01*
Y-18389D01*
X-67438D01*
Y-18357D01*
X-67454D01*
Y-18326D01*
X-67470D01*
Y-18262D01*
X-67486D01*
Y-18183D01*
X-67502D01*
Y-15729D01*
X-67486D01*
Y-15634D01*
X-67470D01*
Y-15571D01*
X-67454D01*
Y-15539D01*
X-67438D01*
Y-15508D01*
X-67422D01*
Y-15476D01*
X-67407D01*
Y-15444D01*
X-67391D01*
Y-15428D01*
X-67375D01*
Y-15412D01*
X-67359D01*
Y-15381D01*
X-67343D01*
Y-15365D01*
X-67327D01*
Y-15349D01*
X-67312D01*
Y-15333D01*
X-67296D01*
Y-15317D01*
X-67280D01*
Y-15302D01*
X-67264D01*
Y-15286D01*
X-67232D01*
Y-15270D01*
X-67217D01*
Y-15254D01*
X-67201D01*
Y-15238D01*
X-67185D01*
Y-15223D01*
X-67169D01*
Y-15207D01*
X-67153D01*
Y-15191D01*
X-67122D01*
Y-15175D01*
X-67106D01*
Y-15159D01*
X-67090D01*
Y-15143D01*
X-67074D01*
Y-15128D01*
X-67058D01*
Y-15112D01*
X-67027D01*
Y-15096D01*
X-67011D01*
Y-15080D01*
X-66995D01*
Y-15064D01*
X-66979D01*
Y-15048D01*
X-66963D01*
Y-15033D01*
X-66932D01*
Y-15017D01*
X-66916D01*
Y-15001D01*
X-66900D01*
Y-14985D01*
X-66884D01*
Y-14969D01*
X-66868D01*
Y-14953D01*
X-66837D01*
Y-14937D01*
X-66821D01*
Y-14922D01*
X-66805D01*
Y-14906D01*
X-66789D01*
Y-14890D01*
X-66773D01*
Y-14874D01*
X-66742D01*
Y-14858D01*
X-66726D01*
Y-14842D01*
X-66710D01*
Y-14827D01*
X-66694D01*
Y-14811D01*
X-66678D01*
Y-14795D01*
X-66663D01*
Y-14779D01*
X-66631D01*
Y-14763D01*
X-66615D01*
Y-14748D01*
X-66599D01*
Y-14732D01*
X-66583D01*
Y-14716D01*
X-66568D01*
Y-14700D01*
X-66536D01*
Y-14684D01*
X-66520D01*
Y-14668D01*
X-66504D01*
Y-14653D01*
X-66488D01*
Y-14637D01*
X-66473D01*
Y-14621D01*
X-66441D01*
Y-14605D01*
X-66425D01*
Y-14589D01*
X-66409D01*
Y-14573D01*
X-66393D01*
Y-14557D01*
X-66378D01*
Y-14542D01*
X-66346D01*
Y-14526D01*
X-66330D01*
Y-14510D01*
X-66314D01*
Y-14494D01*
X-66298D01*
Y-14478D01*
X-66283D01*
Y-14462D01*
X-66251D01*
Y-14447D01*
X-66235D01*
Y-14431D01*
X-66219D01*
Y-14415D01*
X-66203D01*
Y-14399D01*
X-66188D01*
Y-14383D01*
X-66156D01*
Y-14368D01*
X-66140D01*
Y-14352D01*
X-66124D01*
Y-14336D01*
X-66108D01*
Y-14320D01*
X-66093D01*
Y-14304D01*
X-66061D01*
Y-14288D01*
X-66045D01*
Y-14273D01*
X-66029D01*
Y-14257D01*
X-66013D01*
Y-14241D01*
X-65998D01*
Y-14225D01*
X-65982D01*
Y-14209D01*
X-65950D01*
Y-14193D01*
X-65934D01*
Y-14178D01*
X-65918D01*
Y-14162D01*
X-65903D01*
Y-14146D01*
X-65887D01*
Y-14130D01*
X-65855D01*
Y-14114D01*
X-65839D01*
Y-14098D01*
X-65823D01*
Y-14082D01*
X-65807D01*
Y-14067D01*
X-65792D01*
Y-14051D01*
X-65760D01*
Y-14035D01*
X-65744D01*
Y-14019D01*
X-65728D01*
Y-14003D01*
X-65712D01*
Y-13987D01*
X-65697D01*
Y-13972D01*
X-65665D01*
Y-13956D01*
X-65649D01*
Y-13940D01*
X-65633D01*
Y-13924D01*
X-65617D01*
Y-13908D01*
X-65602D01*
Y-13893D01*
X-65570D01*
Y-13877D01*
X-65554D01*
Y-13861D01*
X-65538D01*
Y-13845D01*
X-65522D01*
Y-13829D01*
X-65507D01*
Y-13813D01*
X-65475D01*
Y-13798D01*
X-65459D01*
Y-13782D01*
X-65443D01*
Y-13766D01*
X-65427D01*
Y-13750D01*
X-65412D01*
Y-13734D01*
X-65380D01*
Y-13718D01*
X-65364D01*
Y-13702D01*
X-65348D01*
Y-13687D01*
X-65332D01*
Y-13671D01*
X-65317D01*
Y-13655D01*
X-65301D01*
Y-13639D01*
X-65269D01*
Y-13623D01*
X-65253D01*
Y-13607D01*
X-65237D01*
Y-13592D01*
X-65222D01*
Y-13576D01*
X-65206D01*
Y-13560D01*
X-65174D01*
Y-13544D01*
X-65158D01*
Y-13528D01*
X-65142D01*
Y-13513D01*
X-65127D01*
Y-13497D01*
X-65111D01*
Y-13481D01*
X-65079D01*
Y-13465D01*
X-65063D01*
Y-13449D01*
X-65047D01*
Y-13433D01*
X-65032D01*
Y-13418D01*
X-65016D01*
Y-13402D01*
X-64984D01*
Y-13386D01*
X-64968D01*
Y-13370D01*
X-64953D01*
Y-13354D01*
X-64937D01*
Y-13338D01*
X-64921D01*
Y-13322D01*
X-64889D01*
Y-13307D01*
X-64873D01*
Y-13291D01*
X-64858D01*
Y-13275D01*
X-64842D01*
Y-13259D01*
X-64826D01*
Y-13243D01*
X-64794D01*
Y-13227D01*
X-64778D01*
Y-13212D01*
X-64763D01*
Y-13196D01*
X-64747D01*
Y-13180D01*
X-64731D01*
Y-13164D01*
X-64699D01*
Y-13148D01*
X-64683D01*
Y-13132D01*
X-64668D01*
Y-13117D01*
X-64652D01*
Y-13101D01*
X-64620D01*
Y-13085D01*
X-64604D01*
Y-13069D01*
X-64588D01*
Y-13053D01*
X-64557D01*
Y-13038D01*
X-64525D01*
Y-13022D01*
X-64493D01*
Y-13006D01*
X-64446D01*
Y-12990D01*
X-64383D01*
Y-12974D01*
X-64272D01*
Y-12958D01*
X-61817D01*
Y-12974D01*
D02*
G37*
G36*
X-72473D02*
X-72362D01*
Y-12990D01*
X-72299D01*
Y-13006D01*
X-72252D01*
Y-13022D01*
X-72220D01*
Y-13038D01*
X-72188D01*
Y-13053D01*
X-72157D01*
Y-13069D01*
X-72141D01*
Y-13085D01*
X-72109D01*
Y-13101D01*
X-72077D01*
Y-13117D01*
X-72062D01*
Y-13132D01*
X-72046D01*
Y-13148D01*
X-72014D01*
Y-13164D01*
X-71998D01*
Y-13180D01*
X-71982D01*
Y-13196D01*
X-71967D01*
Y-13212D01*
X-71935D01*
Y-13227D01*
X-71919D01*
Y-13243D01*
X-71903D01*
Y-13259D01*
X-71887D01*
Y-13275D01*
X-71872D01*
Y-13291D01*
X-71856D01*
Y-13307D01*
X-71824D01*
Y-13322D01*
X-71808D01*
Y-13338D01*
X-71792D01*
Y-13354D01*
X-71777D01*
Y-13370D01*
X-71761D01*
Y-13386D01*
X-71729D01*
Y-13402D01*
X-71713D01*
Y-13418D01*
X-71698D01*
Y-13433D01*
X-71682D01*
Y-13449D01*
X-71666D01*
Y-13465D01*
X-71634D01*
Y-13481D01*
X-71618D01*
Y-13497D01*
X-71603D01*
Y-13513D01*
X-71587D01*
Y-13528D01*
X-71571D01*
Y-13544D01*
X-71539D01*
Y-13560D01*
X-71523D01*
Y-13576D01*
X-71508D01*
Y-13592D01*
X-71492D01*
Y-13607D01*
X-71476D01*
Y-13623D01*
X-71444D01*
Y-13639D01*
X-71428D01*
Y-13655D01*
X-71413D01*
Y-13671D01*
X-71397D01*
Y-13687D01*
X-71381D01*
Y-13702D01*
X-71365D01*
Y-13718D01*
X-71333D01*
Y-13734D01*
X-71318D01*
Y-13750D01*
X-71302D01*
Y-13766D01*
X-71286D01*
Y-13782D01*
X-71254D01*
Y-13798D01*
X-71238D01*
Y-13813D01*
X-71223D01*
Y-13829D01*
X-71207D01*
Y-13845D01*
X-71191D01*
Y-13861D01*
X-71175D01*
Y-13877D01*
X-71143D01*
Y-13893D01*
X-71128D01*
Y-13908D01*
X-71112D01*
Y-13924D01*
X-71096D01*
Y-13940D01*
X-71080D01*
Y-13956D01*
X-71048D01*
Y-13972D01*
X-71033D01*
Y-13987D01*
X-71017D01*
Y-14003D01*
X-71001D01*
Y-14019D01*
X-70985D01*
Y-14035D01*
X-70953D01*
Y-14051D01*
X-70938D01*
Y-14067D01*
X-70922D01*
Y-14082D01*
X-70906D01*
Y-14098D01*
X-70890D01*
Y-14114D01*
X-70858D01*
Y-14130D01*
X-70842D01*
Y-14146D01*
X-70827D01*
Y-14162D01*
X-70811D01*
Y-14178D01*
X-70795D01*
Y-14193D01*
X-70763D01*
Y-14209D01*
X-70747D01*
Y-14225D01*
X-70732D01*
Y-14241D01*
X-70716D01*
Y-14257D01*
X-70700D01*
Y-14273D01*
X-70684D01*
Y-14288D01*
X-70652D01*
Y-14304D01*
X-70637D01*
Y-14320D01*
X-70621D01*
Y-14336D01*
X-70605D01*
Y-14352D01*
X-70589D01*
Y-14368D01*
X-70557D01*
Y-14383D01*
X-70542D01*
Y-14399D01*
X-70526D01*
Y-14415D01*
X-70510D01*
Y-14431D01*
X-70494D01*
Y-14447D01*
X-70462D01*
Y-14462D01*
X-70447D01*
Y-14478D01*
X-70431D01*
Y-14494D01*
X-70415D01*
Y-14510D01*
X-70399D01*
Y-14526D01*
X-70367D01*
Y-14542D01*
X-70352D01*
Y-14557D01*
X-70336D01*
Y-14573D01*
X-70320D01*
Y-14589D01*
X-70304D01*
Y-14605D01*
X-70272D01*
Y-14621D01*
X-70257D01*
Y-14637D01*
X-70241D01*
Y-14653D01*
X-70225D01*
Y-14668D01*
X-70209D01*
Y-14684D01*
X-70177D01*
Y-14700D01*
X-70162D01*
Y-14716D01*
X-70146D01*
Y-14732D01*
X-70130D01*
Y-14748D01*
X-70114D01*
Y-14763D01*
X-70083D01*
Y-14779D01*
X-70067D01*
Y-14795D01*
X-70051D01*
Y-14811D01*
X-70035D01*
Y-14827D01*
X-70019D01*
Y-14842D01*
X-70003D01*
Y-14858D01*
X-69972D01*
Y-14874D01*
X-69956D01*
Y-14890D01*
X-69940D01*
Y-14906D01*
X-69924D01*
Y-14922D01*
X-69893D01*
Y-14937D01*
X-69877D01*
Y-14953D01*
X-69861D01*
Y-14969D01*
X-69845D01*
Y-14985D01*
X-69829D01*
Y-15001D01*
X-69813D01*
Y-15017D01*
X-69782D01*
Y-15033D01*
X-69766D01*
Y-15048D01*
X-69750D01*
Y-15064D01*
X-69734D01*
Y-15080D01*
X-69718D01*
Y-15096D01*
X-69687D01*
Y-15112D01*
X-69671D01*
Y-15128D01*
X-69655D01*
Y-15143D01*
X-69639D01*
Y-15159D01*
X-69623D01*
Y-15175D01*
X-69592D01*
Y-15191D01*
X-69576D01*
Y-15207D01*
X-69560D01*
Y-15223D01*
X-69544D01*
Y-15238D01*
X-69528D01*
Y-15254D01*
X-69513D01*
Y-15270D01*
X-69497D01*
Y-15286D01*
X-69481D01*
Y-15302D01*
X-69465D01*
Y-15317D01*
X-69449D01*
Y-15333D01*
X-69433D01*
Y-15349D01*
X-69402D01*
Y-15381D01*
X-69386D01*
Y-15397D01*
X-69370D01*
Y-15412D01*
X-69354D01*
Y-15428D01*
X-69338D01*
Y-15460D01*
X-69323D01*
Y-15476D01*
X-69307D01*
Y-15508D01*
X-69291D01*
Y-15555D01*
X-69275D01*
Y-15587D01*
X-69259D01*
Y-15650D01*
X-69243D01*
Y-18247D01*
X-69259D01*
Y-18310D01*
X-69275D01*
Y-18342D01*
X-69291D01*
Y-18373D01*
X-69307D01*
Y-18405D01*
X-69323D01*
Y-18437D01*
X-69338D01*
Y-18453D01*
X-69354D01*
Y-18484D01*
X-69370D01*
Y-18500D01*
X-69386D01*
Y-18516D01*
X-69402D01*
Y-18532D01*
X-69418D01*
Y-18548D01*
X-69433D01*
Y-18563D01*
X-69449D01*
Y-18579D01*
X-69481D01*
Y-18595D01*
X-69497D01*
Y-18611D01*
X-69528D01*
Y-18627D01*
X-69560D01*
Y-18642D01*
X-69592D01*
Y-18658D01*
X-69639D01*
Y-18674D01*
X-69687D01*
Y-18690D01*
X-71650D01*
Y-18706D01*
X-74453D01*
Y-18690D01*
X-75023D01*
Y-18674D01*
X-75086D01*
Y-18658D01*
X-75118D01*
Y-18642D01*
X-75149D01*
Y-18627D01*
X-75181D01*
Y-18611D01*
X-75212D01*
Y-18595D01*
X-75228D01*
Y-18579D01*
X-75260D01*
Y-18563D01*
X-75276D01*
Y-18548D01*
X-75292D01*
Y-18532D01*
X-75307D01*
Y-18516D01*
X-75323D01*
Y-18500D01*
X-75339D01*
Y-18484D01*
X-75355D01*
Y-18468D01*
X-75371D01*
Y-18437D01*
X-75387D01*
Y-18421D01*
X-75402D01*
Y-18405D01*
Y-18389D01*
X-75418D01*
Y-18357D01*
X-75434D01*
Y-18326D01*
X-75450D01*
Y-18262D01*
X-75466D01*
Y-18183D01*
X-75482D01*
Y-13481D01*
X-75466D01*
Y-13386D01*
X-75450D01*
Y-13338D01*
X-75434D01*
Y-13307D01*
X-75418D01*
Y-13275D01*
X-75402D01*
Y-13243D01*
X-75387D01*
Y-13212D01*
X-75371D01*
Y-13196D01*
X-75355D01*
Y-13180D01*
X-75339D01*
Y-13164D01*
X-75323D01*
Y-13148D01*
X-75307D01*
Y-13132D01*
X-75292D01*
Y-13117D01*
X-75276D01*
Y-13101D01*
X-75260D01*
Y-13085D01*
X-75244D01*
Y-13069D01*
X-75228D01*
Y-13053D01*
X-75197D01*
Y-13038D01*
X-75165D01*
Y-13022D01*
X-75133D01*
Y-13006D01*
X-75086D01*
Y-12990D01*
X-75038D01*
Y-12974D01*
X-74928D01*
Y-12958D01*
X-72473D01*
Y-12974D01*
D02*
G37*
G36*
X118684Y-222155D02*
X116875D01*
Y-220334D01*
X118684D01*
Y-222155D01*
D02*
G37*
G36*
X125632Y-222765D02*
X125754Y-222787D01*
X125899Y-222809D01*
X126043Y-222854D01*
X126210Y-222920D01*
X126365Y-222998D01*
X126387Y-223009D01*
X126432Y-223043D01*
X126509Y-223098D01*
X126598Y-223165D01*
X126698Y-223265D01*
X126809Y-223375D01*
X126920Y-223509D01*
X127009Y-223653D01*
X127020Y-223675D01*
X127042Y-223720D01*
X127086Y-223808D01*
X127131Y-223919D01*
X127164Y-224053D01*
X127209Y-224208D01*
X127231Y-224375D01*
X127242Y-224552D01*
Y-228348D01*
Y-228370D01*
Y-228426D01*
X127231Y-228526D01*
X127220Y-228637D01*
X127186Y-228770D01*
X127142Y-228925D01*
X127086Y-229081D01*
X126998Y-229236D01*
X126987Y-229258D01*
X126953Y-229303D01*
X126898Y-229380D01*
X126831Y-229469D01*
X126731Y-229580D01*
X126620Y-229680D01*
X126498Y-229791D01*
X126354Y-229891D01*
X126332Y-229902D01*
X126287Y-229924D01*
X126199Y-229969D01*
X126088Y-230013D01*
X125954Y-230058D01*
X125799Y-230102D01*
X125632Y-230124D01*
X125444Y-230135D01*
X121470D01*
X121370Y-230124D01*
X121248Y-230102D01*
X121115Y-230080D01*
X120959Y-230035D01*
X120804Y-229969D01*
X120649Y-229891D01*
X120626Y-229880D01*
X120582Y-229847D01*
X120504Y-229791D01*
X120415Y-229713D01*
X120316Y-229625D01*
X120205Y-229514D01*
X120094Y-229380D01*
X119994Y-229236D01*
X119983Y-229214D01*
X119960Y-229170D01*
X119916Y-229081D01*
X119872Y-228970D01*
X119827Y-228837D01*
X119783Y-228692D01*
X119761Y-228526D01*
X119749Y-228348D01*
Y-224552D01*
Y-224541D01*
Y-224530D01*
Y-224474D01*
X119761Y-224375D01*
X119783Y-224252D01*
X119805Y-224119D01*
X119849Y-223964D01*
X119916Y-223808D01*
X119994Y-223653D01*
X120005Y-223631D01*
X120038Y-223586D01*
X120094Y-223509D01*
X120171Y-223420D01*
X120271Y-223309D01*
X120382Y-223198D01*
X120504Y-223098D01*
X120649Y-222998D01*
X120671Y-222987D01*
X120726Y-222965D01*
X120804Y-222920D01*
X120915Y-222876D01*
X121048Y-222832D01*
X121204Y-222787D01*
X121370Y-222765D01*
X121548Y-222754D01*
X125533D01*
X125632Y-222765D01*
D02*
G37*
G36*
X118684Y-230135D02*
X116875D01*
Y-222754D01*
X118684D01*
Y-230135D01*
D02*
G37*
G36*
X114713D02*
X111868D01*
Y-227307D01*
X114713D01*
Y-230135D01*
D02*
G37*
G36*
X75985Y-8378D02*
X67311Y-8363D01*
X67325Y-10754D01*
X74280Y-10783D01*
X74294Y-13203D01*
X67311Y-13189D01*
X67325Y-15580D01*
X75971Y-15594D01*
X75985Y-18000D01*
X64876D01*
Y-5957D01*
X75971D01*
X75985Y-8378D01*
D02*
G37*
G36*
X60837Y-5972D02*
X60998Y-6001D01*
X61187Y-6045D01*
X61391Y-6103D01*
X61595Y-6176D01*
X61799Y-6293D01*
X61829Y-6307D01*
X61887Y-6351D01*
X61989Y-6424D01*
X62106Y-6526D01*
X62251Y-6643D01*
X62397Y-6788D01*
X62528Y-6963D01*
X62660Y-7153D01*
X62674Y-7182D01*
X62718Y-7240D01*
X62762Y-7357D01*
X62835Y-7503D01*
X62893Y-7678D01*
X62951Y-7896D01*
X62995Y-8115D01*
X63010Y-8363D01*
X62995Y-9384D01*
X60560D01*
Y-8479D01*
Y-8465D01*
Y-8450D01*
X60531Y-8407D01*
X60516Y-8392D01*
X60502Y-8378D01*
X53402D01*
X53372Y-8407D01*
Y-8421D01*
Y-8479D01*
Y-10681D01*
Y-10710D01*
Y-10754D01*
X53402Y-10769D01*
X53416D01*
X53460Y-10754D01*
X60633D01*
X60721Y-10769D01*
X60837Y-10783D01*
X60998Y-10812D01*
X61187Y-10856D01*
X61391Y-10914D01*
X61595Y-11002D01*
X61799Y-11104D01*
X61829Y-11118D01*
X61887Y-11162D01*
X61989Y-11235D01*
X62106Y-11323D01*
X62251Y-11454D01*
X62397Y-11600D01*
X62528Y-11774D01*
X62660Y-11964D01*
X62674Y-11993D01*
X62718Y-12066D01*
X62762Y-12168D01*
X62835Y-12329D01*
X62893Y-12503D01*
X62951Y-12708D01*
X62995Y-12926D01*
X63010Y-13174D01*
Y-15594D01*
Y-15624D01*
Y-15711D01*
X62995Y-15842D01*
X62966Y-16003D01*
X62922Y-16192D01*
X62849Y-16396D01*
X62776Y-16600D01*
X62660Y-16819D01*
X62645Y-16848D01*
X62601Y-16906D01*
X62528Y-17009D01*
X62426Y-17125D01*
X62310Y-17271D01*
X62164Y-17402D01*
X61989Y-17548D01*
X61799Y-17679D01*
X61770Y-17694D01*
X61712Y-17723D01*
X61595Y-17781D01*
X61449Y-17840D01*
X61275Y-17898D01*
X61070Y-17956D01*
X60837Y-17985D01*
X60604Y-18000D01*
X53241D01*
X53125Y-17985D01*
X52964Y-17956D01*
X52775Y-17927D01*
X52571Y-17869D01*
X52366Y-17781D01*
X52148Y-17679D01*
X52119Y-17665D01*
X52060Y-17621D01*
X51958Y-17548D01*
X51827Y-17446D01*
X51681Y-17329D01*
X51535Y-17184D01*
X51390Y-17009D01*
X51258Y-16819D01*
X51244Y-16790D01*
X51215Y-16717D01*
X51156Y-16615D01*
X51098Y-16455D01*
X51040Y-16280D01*
X50996Y-16061D01*
X50967Y-15842D01*
X50952Y-15594D01*
X50938Y-14574D01*
X53372D01*
Y-15478D01*
Y-15492D01*
Y-15507D01*
Y-15565D01*
X53402Y-15580D01*
X60516D01*
X60531Y-15565D01*
X60546Y-15536D01*
X60560Y-15478D01*
Y-13291D01*
Y-13276D01*
Y-13262D01*
X60546Y-13233D01*
X60531Y-13218D01*
X60516Y-13203D01*
X53329D01*
X53241Y-13189D01*
X53125Y-13174D01*
X52964Y-13160D01*
X52775Y-13116D01*
X52571Y-13058D01*
X52366Y-12970D01*
X52148Y-12868D01*
X52119Y-12853D01*
X52060Y-12810D01*
X51958Y-12737D01*
X51827Y-12635D01*
X51681Y-12518D01*
X51535Y-12358D01*
X51390Y-12183D01*
X51258Y-11993D01*
X51244Y-11964D01*
X51215Y-11891D01*
X51156Y-11789D01*
X51098Y-11629D01*
X51040Y-11454D01*
X50996Y-11250D01*
X50967Y-11031D01*
X50952Y-10798D01*
Y-8363D01*
Y-8348D01*
Y-8334D01*
Y-8246D01*
X50967Y-8115D01*
X50981Y-7955D01*
X51025Y-7765D01*
X51069Y-7576D01*
X51156Y-7357D01*
X51258Y-7153D01*
X51273Y-7124D01*
X51317Y-7065D01*
X51390Y-6963D01*
X51492Y-6847D01*
X51623Y-6701D01*
X51769Y-6555D01*
X51958Y-6424D01*
X52148Y-6293D01*
X52177Y-6278D01*
X52250Y-6234D01*
X52352Y-6191D01*
X52512Y-6118D01*
X52687Y-6059D01*
X52891Y-6016D01*
X53125Y-5972D01*
X53358Y-5957D01*
X60721D01*
X60837Y-5972D01*
D02*
G37*
G36*
X21283Y-18000D02*
X18848D01*
Y-9558D01*
X14503Y-14763D01*
X10129Y-9573D01*
Y-18000D01*
X7724D01*
Y-5957D01*
X10275D01*
X14503Y-10987D01*
X18702Y-5957D01*
X21283D01*
Y-18000D01*
D02*
G37*
G36*
X49144Y-15594D02*
Y-15624D01*
Y-15711D01*
X49130Y-15842D01*
X49101Y-16003D01*
X49057Y-16192D01*
X48999Y-16396D01*
X48926Y-16600D01*
X48809Y-16819D01*
X48794Y-16848D01*
X48751Y-16906D01*
X48678Y-17009D01*
X48576Y-17125D01*
X48444Y-17271D01*
X48299Y-17402D01*
X48124Y-17548D01*
X47934Y-17679D01*
X47905Y-17694D01*
X47847Y-17723D01*
X47730Y-17781D01*
X47584Y-17840D01*
X47409Y-17898D01*
X47205Y-17956D01*
X46987Y-17985D01*
X46739Y-18000D01*
X39391D01*
X39259Y-17985D01*
X39099Y-17956D01*
X38909Y-17927D01*
X38705Y-17869D01*
X38501Y-17781D01*
X38282Y-17679D01*
X38253Y-17665D01*
X38195Y-17621D01*
X38093Y-17548D01*
X37976Y-17446D01*
X37831Y-17329D01*
X37685Y-17184D01*
X37539Y-17009D01*
X37408Y-16819D01*
X37393Y-16790D01*
X37364Y-16717D01*
X37306Y-16615D01*
X37247Y-16455D01*
X37189Y-16280D01*
X37131Y-16061D01*
X37102Y-15842D01*
X37087Y-15594D01*
Y-5957D01*
X39507D01*
Y-15478D01*
Y-15492D01*
Y-15507D01*
X39522Y-15565D01*
X39551Y-15580D01*
X46651D01*
X46680Y-15565D01*
X46695Y-15536D01*
X46710Y-15522D01*
X46695Y-15478D01*
X46724Y-5957D01*
X49144D01*
Y-15594D01*
D02*
G37*
G36*
X33107Y-5972D02*
X33282Y-6001D01*
X33457Y-6045D01*
X33661Y-6103D01*
X33865Y-6176D01*
X34069Y-6293D01*
X34098Y-6307D01*
X34156Y-6351D01*
X34259Y-6424D01*
X34375Y-6526D01*
X34521Y-6643D01*
X34667Y-6788D01*
X34813Y-6963D01*
X34944Y-7153D01*
X34958Y-7182D01*
X35002Y-7240D01*
X35046Y-7357D01*
X35119Y-7503D01*
X35177Y-7678D01*
X35221Y-7896D01*
X35265Y-8115D01*
X35279Y-8363D01*
Y-15594D01*
Y-15624D01*
Y-15711D01*
X35265Y-15842D01*
X35235Y-16003D01*
X35192Y-16192D01*
X35133Y-16396D01*
X35061Y-16600D01*
X34944Y-16819D01*
X34929Y-16848D01*
X34885Y-16906D01*
X34813Y-17009D01*
X34711Y-17125D01*
X34579Y-17271D01*
X34434Y-17402D01*
X34259Y-17548D01*
X34069Y-17679D01*
X34040Y-17694D01*
X33982Y-17723D01*
X33865Y-17781D01*
X33719Y-17840D01*
X33544Y-17898D01*
X33340Y-17956D01*
X33121Y-17985D01*
X32873Y-18000D01*
X25525D01*
X25394Y-17985D01*
X25234Y-17956D01*
X25044Y-17927D01*
X24840Y-17869D01*
X24636Y-17781D01*
X24417Y-17679D01*
X24388Y-17665D01*
X24330Y-17621D01*
X24228Y-17548D01*
X24111Y-17446D01*
X23965Y-17329D01*
X23820Y-17184D01*
X23674Y-17009D01*
X23543Y-16819D01*
X23528Y-16790D01*
X23499Y-16717D01*
X23440Y-16615D01*
X23382Y-16455D01*
X23324Y-16280D01*
X23266Y-16061D01*
X23236Y-15842D01*
X23222Y-15594D01*
Y-8363D01*
Y-8348D01*
Y-8334D01*
Y-8246D01*
X23236Y-8115D01*
X23266Y-7955D01*
X23295Y-7765D01*
X23353Y-7576D01*
X23440Y-7357D01*
X23543Y-7153D01*
X23557Y-7124D01*
X23601Y-7065D01*
X23674Y-6963D01*
X23776Y-6847D01*
X23907Y-6701D01*
X24053Y-6555D01*
X24228Y-6424D01*
X24417Y-6293D01*
X24446Y-6278D01*
X24519Y-6234D01*
X24622Y-6191D01*
X24782Y-6118D01*
X24957Y-6059D01*
X25175Y-6016D01*
X25394Y-5972D01*
X25642Y-5957D01*
X32990D01*
X33107Y-5972D01*
D02*
G37*
G36*
X3773Y-8319D02*
X3933Y-8348D01*
X4123Y-8378D01*
X4312Y-8436D01*
X4531Y-8523D01*
X4735Y-8625D01*
X4764Y-8640D01*
X4822Y-8684D01*
X4924Y-8756D01*
X5041Y-8844D01*
X5172Y-8975D01*
X5318Y-9121D01*
X5464Y-9296D01*
X5580Y-9485D01*
X5595Y-9515D01*
X5624Y-9573D01*
X5683Y-9690D01*
X5741Y-9835D01*
X5785Y-10010D01*
X5843Y-10215D01*
X5872Y-10433D01*
X5887Y-10667D01*
Y-15653D01*
Y-15682D01*
Y-15755D01*
X5872Y-15886D01*
X5857Y-16032D01*
X5814Y-16207D01*
X5756Y-16411D01*
X5683Y-16615D01*
X5566Y-16819D01*
X5551Y-16848D01*
X5508Y-16906D01*
X5435Y-17009D01*
X5347Y-17125D01*
X5216Y-17271D01*
X5070Y-17402D01*
X4910Y-17548D01*
X4720Y-17679D01*
X4691Y-17694D01*
X4633Y-17723D01*
X4516Y-17781D01*
X4370Y-17840D01*
X4195Y-17898D01*
X3991Y-17956D01*
X3773Y-17985D01*
X3525Y-18000D01*
X-1695D01*
X-1826Y-17985D01*
X-1986Y-17956D01*
X-2161Y-17927D01*
X-2365Y-17869D01*
X-2569Y-17781D01*
X-2774Y-17679D01*
X-2803Y-17665D01*
X-2861Y-17621D01*
X-2963Y-17548D01*
X-3080Y-17446D01*
X-3211Y-17329D01*
X-3357Y-17184D01*
X-3503Y-17009D01*
X-3634Y-16819D01*
X-3648Y-16790D01*
X-3677Y-16732D01*
X-3736Y-16615D01*
X-3794Y-16469D01*
X-3853Y-16294D01*
X-3911Y-16105D01*
X-3940Y-15886D01*
X-3955Y-15653D01*
Y-10667D01*
Y-10652D01*
Y-10637D01*
Y-10564D01*
X-3940Y-10433D01*
X-3911Y-10273D01*
X-3882Y-10098D01*
X-3823Y-9894D01*
X-3736Y-9690D01*
X-3634Y-9485D01*
X-3619Y-9456D01*
X-3575Y-9398D01*
X-3503Y-9296D01*
X-3401Y-9179D01*
X-3269Y-9034D01*
X-3124Y-8888D01*
X-2963Y-8756D01*
X-2774Y-8625D01*
X-2744Y-8611D01*
X-2672Y-8582D01*
X-2569Y-8523D01*
X-2424Y-8465D01*
X-2249Y-8407D01*
X-2045Y-8348D01*
X-1826Y-8319D01*
X-1593Y-8305D01*
X3641D01*
X3773Y-8319D01*
D02*
G37*
G36*
X-5733Y-18000D02*
X-13329D01*
X-13446Y-17985D01*
X-13621Y-17956D01*
X-13796Y-17927D01*
X-14000Y-17869D01*
X-14219Y-17796D01*
X-14423Y-17694D01*
X-14452Y-17679D01*
X-14510Y-17636D01*
X-14612Y-17563D01*
X-14729Y-17461D01*
X-14860Y-17344D01*
X-15006Y-17198D01*
X-15137Y-17023D01*
X-15268Y-16834D01*
X-15283Y-16804D01*
X-15312Y-16732D01*
X-15370Y-16630D01*
X-15429Y-16484D01*
X-15487Y-16294D01*
X-15545Y-16105D01*
X-15575Y-15886D01*
X-15589Y-15653D01*
Y-10667D01*
Y-10652D01*
Y-10637D01*
Y-10564D01*
X-15575Y-10433D01*
X-15545Y-10273D01*
X-15516Y-10098D01*
X-15458Y-9894D01*
X-15370Y-9690D01*
X-15268Y-9485D01*
X-15254Y-9456D01*
X-15210Y-9398D01*
X-15137Y-9296D01*
X-15035Y-9179D01*
X-14918Y-9034D01*
X-14773Y-8888D01*
X-14612Y-8756D01*
X-14423Y-8625D01*
X-14394Y-8611D01*
X-14321Y-8582D01*
X-14219Y-8523D01*
X-14073Y-8465D01*
X-13883Y-8407D01*
X-13679Y-8348D01*
X-13461Y-8319D01*
X-13213Y-8305D01*
X-8110D01*
Y-5126D01*
X-5719D01*
X-5733Y-18000D01*
D02*
G37*
G36*
X-16901D02*
X-24497D01*
X-24614Y-17985D01*
X-24789Y-17956D01*
X-24964Y-17927D01*
X-25168Y-17869D01*
X-25387Y-17796D01*
X-25591Y-17694D01*
X-25620Y-17679D01*
X-25678Y-17636D01*
X-25780Y-17563D01*
X-25897Y-17461D01*
X-26028Y-17344D01*
X-26174Y-17198D01*
X-26305Y-17023D01*
X-26436Y-16834D01*
X-26451Y-16804D01*
X-26480Y-16732D01*
X-26538Y-16630D01*
X-26597Y-16484D01*
X-26655Y-16294D01*
X-26713Y-16105D01*
X-26742Y-15886D01*
X-26757Y-15653D01*
Y-10667D01*
Y-10652D01*
Y-10637D01*
Y-10564D01*
X-26742Y-10433D01*
X-26713Y-10273D01*
X-26684Y-10098D01*
X-26626Y-9894D01*
X-26538Y-9690D01*
X-26436Y-9485D01*
X-26422Y-9456D01*
X-26378Y-9398D01*
X-26305Y-9296D01*
X-26203Y-9179D01*
X-26086Y-9034D01*
X-25941Y-8888D01*
X-25780Y-8756D01*
X-25591Y-8625D01*
X-25561Y-8611D01*
X-25489Y-8582D01*
X-25387Y-8523D01*
X-25241Y-8465D01*
X-25051Y-8407D01*
X-24847Y-8348D01*
X-24628Y-8319D01*
X-24381Y-8305D01*
X-19278D01*
Y-5126D01*
X-16887D01*
X-16901Y-18000D01*
D02*
G37*
G36*
X-30154Y-8319D02*
X-29994Y-8348D01*
X-29804Y-8378D01*
X-29615Y-8436D01*
X-29396Y-8523D01*
X-29192Y-8625D01*
X-29163Y-8640D01*
X-29104Y-8684D01*
X-29002Y-8756D01*
X-28886Y-8844D01*
X-28754Y-8975D01*
X-28609Y-9121D01*
X-28463Y-9296D01*
X-28346Y-9485D01*
X-28332Y-9515D01*
X-28303Y-9573D01*
X-28244Y-9690D01*
X-28186Y-9835D01*
X-28142Y-10010D01*
X-28084Y-10215D01*
X-28055Y-10433D01*
X-28040Y-10667D01*
Y-15653D01*
Y-15682D01*
Y-15755D01*
X-28055Y-15886D01*
X-28069Y-16032D01*
X-28113Y-16207D01*
X-28171Y-16411D01*
X-28244Y-16615D01*
X-28361Y-16819D01*
X-28375Y-16848D01*
X-28419Y-16906D01*
X-28492Y-17009D01*
X-28579Y-17125D01*
X-28711Y-17271D01*
X-28856Y-17402D01*
X-29017Y-17548D01*
X-29206Y-17679D01*
X-29236Y-17694D01*
X-29294Y-17723D01*
X-29411Y-17781D01*
X-29556Y-17840D01*
X-29731Y-17898D01*
X-29935Y-17956D01*
X-30154Y-17985D01*
X-30402Y-18000D01*
X-35621D01*
X-35753Y-17985D01*
X-35913Y-17956D01*
X-36088Y-17927D01*
X-36292Y-17869D01*
X-36496Y-17781D01*
X-36700Y-17679D01*
X-36730Y-17665D01*
X-36788Y-17621D01*
X-36890Y-17548D01*
X-37006Y-17446D01*
X-37138Y-17329D01*
X-37283Y-17184D01*
X-37429Y-17009D01*
X-37561Y-16819D01*
X-37575Y-16790D01*
X-37604Y-16732D01*
X-37663Y-16615D01*
X-37721Y-16469D01*
X-37779Y-16294D01*
X-37838Y-16105D01*
X-37867Y-15886D01*
X-37881Y-15653D01*
Y-10667D01*
Y-10652D01*
Y-10637D01*
Y-10564D01*
X-37867Y-10433D01*
X-37838Y-10273D01*
X-37808Y-10098D01*
X-37750Y-9894D01*
X-37663Y-9690D01*
X-37561Y-9485D01*
X-37546Y-9456D01*
X-37502Y-9398D01*
X-37429Y-9296D01*
X-37327Y-9179D01*
X-37196Y-9034D01*
X-37050Y-8888D01*
X-36890Y-8756D01*
X-36700Y-8625D01*
X-36671Y-8611D01*
X-36598Y-8582D01*
X-36496Y-8523D01*
X-36350Y-8465D01*
X-36175Y-8407D01*
X-35971Y-8348D01*
X-35753Y-8319D01*
X-35519Y-8305D01*
X-30285D01*
X-30154Y-8319D01*
D02*
G37*
G36*
X-42109D02*
X-41949Y-8348D01*
X-41760Y-8378D01*
X-41570Y-8436D01*
X-41351Y-8523D01*
X-41147Y-8625D01*
X-41118Y-8640D01*
X-41060Y-8684D01*
X-40958Y-8756D01*
X-40841Y-8859D01*
X-40710Y-8975D01*
X-40564Y-9121D01*
X-40418Y-9296D01*
X-40301Y-9485D01*
X-40287Y-9515D01*
X-40258Y-9573D01*
X-40199Y-9690D01*
X-40141Y-9835D01*
X-40083Y-10010D01*
X-40024Y-10215D01*
X-39995Y-10433D01*
X-39981Y-10667D01*
Y-18000D01*
X-42343D01*
X-42357Y-10783D01*
Y-10769D01*
Y-10754D01*
Y-10725D01*
X-42372Y-10710D01*
X-42386Y-10696D01*
X-42459Y-10681D01*
X-45798D01*
X-45856Y-10710D01*
X-45871Y-10725D01*
X-45886Y-10739D01*
Y-10783D01*
Y-18000D01*
X-48277D01*
Y-10783D01*
Y-10769D01*
Y-10754D01*
X-48291Y-10725D01*
X-48306Y-10710D01*
X-48320Y-10696D01*
X-48379Y-10681D01*
X-51747D01*
X-51790Y-10710D01*
X-51805Y-10725D01*
Y-10739D01*
Y-10783D01*
X-51819Y-18000D01*
X-54210D01*
Y-8305D01*
X-42241D01*
X-42109Y-8319D01*
D02*
G37*
G36*
X108019Y-222765D02*
X108141Y-222787D01*
X108285Y-222809D01*
X108429Y-222854D01*
X108596Y-222920D01*
X108751Y-222998D01*
X108773Y-223009D01*
X108818Y-223043D01*
X108896Y-223098D01*
X108984Y-223165D01*
X109084Y-223265D01*
X109195Y-223375D01*
X109306Y-223509D01*
X109395Y-223653D01*
X109406Y-223675D01*
X109428Y-223720D01*
X109473Y-223808D01*
X109517Y-223919D01*
X109550Y-224053D01*
X109595Y-224208D01*
X109617Y-224375D01*
X109628Y-224552D01*
Y-228348D01*
Y-228370D01*
Y-228426D01*
X109617Y-228526D01*
X109606Y-228637D01*
X109573Y-228770D01*
X109528Y-228925D01*
X109473Y-229081D01*
X109384Y-229236D01*
X109373Y-229258D01*
X109340Y-229303D01*
X109284Y-229380D01*
X109217Y-229469D01*
X109117Y-229580D01*
X109007Y-229680D01*
X108884Y-229791D01*
X108740Y-229891D01*
X108718Y-229902D01*
X108673Y-229924D01*
X108585Y-229969D01*
X108474Y-230013D01*
X108341Y-230058D01*
X108185Y-230102D01*
X108019Y-230124D01*
X107830Y-230135D01*
X103856D01*
X103756Y-230124D01*
X103634Y-230102D01*
X103501Y-230080D01*
X103346Y-230035D01*
X103190Y-229969D01*
X103035Y-229891D01*
X103013Y-229880D01*
X102968Y-229847D01*
X102891Y-229791D01*
X102802Y-229713D01*
X102702Y-229625D01*
X102591Y-229514D01*
X102480Y-229380D01*
X102380Y-229236D01*
X102369Y-229214D01*
X102347Y-229170D01*
X102302Y-229081D01*
X102258Y-228970D01*
X102213Y-228837D01*
X102169Y-228692D01*
X102147Y-228526D01*
X102136Y-228348D01*
Y-224552D01*
Y-224541D01*
Y-224530D01*
Y-224474D01*
X102147Y-224375D01*
X102169Y-224252D01*
X102191Y-224119D01*
X102236Y-223964D01*
X102302Y-223808D01*
X102380Y-223653D01*
X102391Y-223631D01*
X102424Y-223586D01*
X102480Y-223509D01*
X102557Y-223420D01*
X102657Y-223309D01*
X102768Y-223198D01*
X102891Y-223098D01*
X103035Y-222998D01*
X103057Y-222987D01*
X103112Y-222965D01*
X103190Y-222920D01*
X103301Y-222876D01*
X103434Y-222832D01*
X103590Y-222787D01*
X103756Y-222765D01*
X103934Y-222754D01*
X107919D01*
X108019Y-222765D01*
D02*
G37*
G36*
X100781Y-230135D02*
X94999D01*
X94910Y-230124D01*
X94776Y-230102D01*
X94643Y-230080D01*
X94488Y-230035D01*
X94321Y-229980D01*
X94166Y-229902D01*
X94144Y-229891D01*
X94099Y-229858D01*
X94022Y-229802D01*
X93933Y-229725D01*
X93833Y-229636D01*
X93722Y-229525D01*
X93622Y-229392D01*
X93522Y-229247D01*
X93511Y-229225D01*
X93489Y-229170D01*
X93444Y-229092D01*
X93400Y-228981D01*
X93356Y-228837D01*
X93311Y-228692D01*
X93289Y-228526D01*
X93278Y-228348D01*
Y-224552D01*
Y-224541D01*
Y-224530D01*
Y-224474D01*
X93289Y-224375D01*
X93311Y-224252D01*
X93334Y-224119D01*
X93378Y-223964D01*
X93444Y-223808D01*
X93522Y-223653D01*
X93533Y-223631D01*
X93567Y-223586D01*
X93622Y-223509D01*
X93700Y-223420D01*
X93789Y-223309D01*
X93900Y-223198D01*
X94022Y-223098D01*
X94166Y-222998D01*
X94188Y-222987D01*
X94244Y-222965D01*
X94321Y-222920D01*
X94432Y-222876D01*
X94577Y-222832D01*
X94732Y-222787D01*
X94899Y-222765D01*
X95087Y-222754D01*
X98972D01*
Y-220334D01*
X100793D01*
X100781Y-230135D01*
D02*
G37*
G36*
X92279D02*
X86496D01*
X86407Y-230124D01*
X86274Y-230102D01*
X86141Y-230080D01*
X85985Y-230035D01*
X85819Y-229980D01*
X85664Y-229902D01*
X85641Y-229891D01*
X85597Y-229858D01*
X85519Y-229802D01*
X85430Y-229725D01*
X85331Y-229636D01*
X85220Y-229525D01*
X85120Y-229392D01*
X85020Y-229247D01*
X85009Y-229225D01*
X84986Y-229170D01*
X84942Y-229092D01*
X84898Y-228981D01*
X84853Y-228837D01*
X84809Y-228692D01*
X84787Y-228526D01*
X84776Y-228348D01*
Y-224552D01*
Y-224541D01*
Y-224530D01*
Y-224474D01*
X84787Y-224375D01*
X84809Y-224252D01*
X84831Y-224119D01*
X84875Y-223964D01*
X84942Y-223808D01*
X85020Y-223653D01*
X85031Y-223631D01*
X85064Y-223586D01*
X85120Y-223509D01*
X85197Y-223420D01*
X85286Y-223309D01*
X85397Y-223198D01*
X85519Y-223098D01*
X85664Y-222998D01*
X85686Y-222987D01*
X85741Y-222965D01*
X85819Y-222920D01*
X85930Y-222876D01*
X86074Y-222832D01*
X86230Y-222787D01*
X86396Y-222765D01*
X86585Y-222754D01*
X90470D01*
Y-220334D01*
X92290D01*
X92279Y-230135D01*
D02*
G37*
G36*
X82189Y-222765D02*
X82311Y-222787D01*
X82456Y-222809D01*
X82600Y-222854D01*
X82767Y-222920D01*
X82922Y-222998D01*
X82944Y-223009D01*
X82989Y-223043D01*
X83066Y-223098D01*
X83155Y-223165D01*
X83255Y-223265D01*
X83366Y-223375D01*
X83477Y-223509D01*
X83566Y-223653D01*
X83577Y-223675D01*
X83599Y-223720D01*
X83643Y-223808D01*
X83688Y-223919D01*
X83721Y-224053D01*
X83765Y-224208D01*
X83788Y-224375D01*
X83799Y-224552D01*
Y-228348D01*
Y-228370D01*
Y-228426D01*
X83788Y-228526D01*
X83777Y-228637D01*
X83743Y-228770D01*
X83699Y-228925D01*
X83643Y-229081D01*
X83555Y-229236D01*
X83544Y-229258D01*
X83510Y-229303D01*
X83455Y-229380D01*
X83388Y-229469D01*
X83288Y-229580D01*
X83177Y-229680D01*
X83055Y-229791D01*
X82911Y-229891D01*
X82889Y-229902D01*
X82844Y-229924D01*
X82755Y-229969D01*
X82644Y-230013D01*
X82511Y-230058D01*
X82356Y-230102D01*
X82189Y-230124D01*
X82001Y-230135D01*
X78027D01*
X77927Y-230124D01*
X77805Y-230102D01*
X77672Y-230080D01*
X77516Y-230035D01*
X77361Y-229969D01*
X77206Y-229891D01*
X77183Y-229880D01*
X77139Y-229847D01*
X77061Y-229791D01*
X76972Y-229713D01*
X76873Y-229625D01*
X76761Y-229514D01*
X76651Y-229380D01*
X76551Y-229236D01*
X76540Y-229214D01*
X76517Y-229170D01*
X76473Y-229081D01*
X76428Y-228970D01*
X76384Y-228837D01*
X76340Y-228692D01*
X76318Y-228526D01*
X76307Y-228348D01*
Y-224552D01*
Y-224541D01*
Y-224530D01*
Y-224474D01*
X76318Y-224375D01*
X76340Y-224252D01*
X76362Y-224119D01*
X76406Y-223964D01*
X76473Y-223808D01*
X76551Y-223653D01*
X76562Y-223631D01*
X76595Y-223586D01*
X76651Y-223509D01*
X76728Y-223420D01*
X76828Y-223309D01*
X76939Y-223198D01*
X77061Y-223098D01*
X77206Y-222998D01*
X77228Y-222987D01*
X77283Y-222965D01*
X77361Y-222920D01*
X77472Y-222876D01*
X77605Y-222832D01*
X77761Y-222787D01*
X77927Y-222765D01*
X78105Y-222754D01*
X82089D01*
X82189Y-222765D01*
D02*
G37*
G36*
X73088D02*
X73210Y-222787D01*
X73354Y-222809D01*
X73498Y-222854D01*
X73665Y-222920D01*
X73820Y-222998D01*
X73842Y-223009D01*
X73887Y-223043D01*
X73964Y-223098D01*
X74053Y-223176D01*
X74153Y-223265D01*
X74264Y-223375D01*
X74375Y-223509D01*
X74464Y-223653D01*
X74475Y-223675D01*
X74497Y-223720D01*
X74542Y-223808D01*
X74586Y-223919D01*
X74630Y-224053D01*
X74675Y-224208D01*
X74697Y-224375D01*
X74708Y-224552D01*
Y-230135D01*
X72910D01*
X72899Y-224641D01*
Y-224630D01*
Y-224619D01*
Y-224597D01*
X72888Y-224585D01*
X72877Y-224574D01*
X72821Y-224563D01*
X70279D01*
X70235Y-224585D01*
X70224Y-224597D01*
X70213Y-224608D01*
Y-224641D01*
Y-230135D01*
X68392D01*
Y-224641D01*
Y-224630D01*
Y-224619D01*
X68381Y-224597D01*
X68370Y-224585D01*
X68359Y-224574D01*
X68315Y-224563D01*
X65750D01*
X65717Y-224585D01*
X65706Y-224597D01*
Y-224608D01*
Y-224641D01*
X65695Y-230135D01*
X63875D01*
Y-222754D01*
X72988D01*
X73088Y-222765D01*
D02*
G37*
%LPC*%
G36*
X125388Y-224563D02*
X121614D01*
X121581Y-224585D01*
X121570Y-224597D01*
X121559Y-224608D01*
Y-224641D01*
Y-228259D01*
Y-228282D01*
X121581Y-228315D01*
X121592D01*
X121636Y-228326D01*
X125399D01*
X125410Y-228315D01*
X125421Y-228304D01*
X125433Y-228259D01*
Y-224641D01*
Y-224630D01*
Y-224619D01*
X125421Y-224597D01*
X125410Y-224585D01*
X125399Y-224574D01*
X125388Y-224563D01*
D02*
G37*
G36*
X32771Y-8378D02*
X25686D01*
X25657Y-8407D01*
Y-8421D01*
X25642Y-8479D01*
Y-15478D01*
Y-15492D01*
Y-15507D01*
X25657Y-15565D01*
X25686Y-15580D01*
X32786D01*
X32815Y-15565D01*
X32830Y-15536D01*
X32844Y-15522D01*
X32830Y-15478D01*
Y-8479D01*
Y-8465D01*
X32844Y-8450D01*
X32830Y-8436D01*
X32815Y-8407D01*
X32801Y-8392D01*
X32771Y-8378D01*
D02*
G37*
G36*
X3452Y-10681D02*
X-1505D01*
X-1549Y-10710D01*
X-1564Y-10725D01*
X-1578Y-10739D01*
Y-10783D01*
Y-15536D01*
Y-15565D01*
X-1549Y-15609D01*
X-1534D01*
X-1476Y-15624D01*
X3467D01*
X3481Y-15609D01*
X3496Y-15594D01*
X3510Y-15536D01*
Y-10783D01*
Y-10769D01*
Y-10754D01*
X3496Y-10725D01*
X3481Y-10710D01*
X3467Y-10696D01*
X3452Y-10681D01*
D02*
G37*
G36*
X-8168D02*
X-13125D01*
X-13169Y-10710D01*
X-13183Y-10725D01*
X-13198Y-10739D01*
Y-10783D01*
Y-15536D01*
Y-15565D01*
X-13169Y-15609D01*
X-13154D01*
X-13096Y-15624D01*
X-8153D01*
X-8139Y-15609D01*
X-8124Y-15594D01*
X-8110Y-15536D01*
Y-10783D01*
Y-10769D01*
Y-10754D01*
X-8124Y-10725D01*
X-8139Y-10710D01*
X-8153Y-10696D01*
X-8168Y-10681D01*
D02*
G37*
G36*
X-19336D02*
X-24293D01*
X-24337Y-10710D01*
X-24351Y-10725D01*
X-24366Y-10739D01*
Y-10783D01*
Y-15536D01*
Y-15565D01*
X-24337Y-15609D01*
X-24322D01*
X-24264Y-15624D01*
X-19321D01*
X-19307Y-15609D01*
X-19292Y-15594D01*
X-19278Y-15536D01*
Y-10783D01*
Y-10769D01*
Y-10754D01*
X-19292Y-10725D01*
X-19307Y-10710D01*
X-19321Y-10696D01*
X-19336Y-10681D01*
D02*
G37*
G36*
X-30475D02*
X-35432D01*
X-35476Y-10710D01*
X-35490Y-10725D01*
X-35505Y-10739D01*
Y-10783D01*
Y-15536D01*
Y-15565D01*
X-35476Y-15609D01*
X-35461D01*
X-35403Y-15624D01*
X-30460D01*
X-30446Y-15609D01*
X-30431Y-15594D01*
X-30417Y-15536D01*
Y-10783D01*
Y-10769D01*
Y-10754D01*
X-30431Y-10725D01*
X-30446Y-10710D01*
X-30460Y-10696D01*
X-30475Y-10681D01*
D02*
G37*
G36*
X107774Y-224563D02*
X104001D01*
X103967Y-224585D01*
X103956Y-224597D01*
X103945Y-224608D01*
Y-224641D01*
Y-228259D01*
Y-228282D01*
X103967Y-228315D01*
X103978D01*
X104023Y-228326D01*
X107786D01*
X107797Y-228315D01*
X107808Y-228304D01*
X107819Y-228259D01*
Y-224641D01*
Y-224630D01*
Y-224619D01*
X107808Y-224597D01*
X107797Y-224585D01*
X107786Y-224574D01*
X107774Y-224563D01*
D02*
G37*
G36*
X98928D02*
X95154D01*
X95121Y-224585D01*
X95110Y-224597D01*
X95098Y-224608D01*
Y-224641D01*
Y-228259D01*
Y-228282D01*
X95121Y-228315D01*
X95132D01*
X95176Y-228326D01*
X98939D01*
X98950Y-228315D01*
X98961Y-228304D01*
X98972Y-228259D01*
Y-224641D01*
Y-224630D01*
Y-224619D01*
X98961Y-224597D01*
X98950Y-224585D01*
X98939Y-224574D01*
X98928Y-224563D01*
D02*
G37*
G36*
X90425D02*
X86651D01*
X86618Y-224585D01*
X86607Y-224597D01*
X86596Y-224608D01*
Y-224641D01*
Y-228259D01*
Y-228282D01*
X86618Y-228315D01*
X86629D01*
X86674Y-228326D01*
X90436D01*
X90448Y-228315D01*
X90459Y-228304D01*
X90470Y-228259D01*
Y-224641D01*
Y-224630D01*
Y-224619D01*
X90459Y-224597D01*
X90448Y-224585D01*
X90436Y-224574D01*
X90425Y-224563D01*
D02*
G37*
G36*
X81945D02*
X78171D01*
X78138Y-224585D01*
X78127Y-224597D01*
X78116Y-224608D01*
Y-224641D01*
Y-228259D01*
Y-228282D01*
X78138Y-228315D01*
X78149D01*
X78193Y-228326D01*
X81956D01*
X81967Y-228315D01*
X81978Y-228304D01*
X81989Y-228259D01*
Y-224641D01*
Y-224630D01*
Y-224619D01*
X81978Y-224597D01*
X81967Y-224585D01*
X81956Y-224574D01*
X81945Y-224563D01*
D02*
G37*
%LPD*%
D10*
X18501Y-222700D02*
G03*
X18501Y-222700I-1000J0D01*
G01*
X132500Y-142450D02*
Y-97500D01*
X95000Y-87500D02*
X115000D01*
X95058Y-152398D02*
X115058D01*
X77500Y-142450D02*
Y-97500D01*
D11*
X-189000Y-114000D02*
Y-106100D01*
Y-114000D02*
X-151000D01*
Y-106100D01*
X-189000D02*
X-151000D01*
X-200000Y-75000D02*
X-140000D01*
Y-205000D02*
Y-75000D01*
X-200000Y-205000D02*
X-140000D01*
X-200000D02*
Y-75000D01*
X140000Y-205000D02*
Y-75000D01*
Y-205000D02*
X200000D01*
Y-75000D01*
X140000D02*
X200000D01*
X151000Y-106100D02*
X189000D01*
Y-114000D02*
Y-106100D01*
X151000Y-114000D02*
X189000D01*
X151000D02*
Y-106100D01*
D12*
X-23999Y-260500D02*
X24001D01*
X30001Y-248000D02*
Y-229000D01*
X21501D02*
X30001D01*
X-29999Y-248000D02*
Y-229000D01*
X-21499D01*
D13*
X-74000Y-202000D02*
Y-194000D01*
X-75000Y-195000D02*
X-73000D01*
X-76000Y-196000D02*
X-72000D01*
X-77000Y-197000D02*
X-71000D01*
X-78000Y-198000D02*
X-70000D01*
X-79000Y-199000D02*
X-69000D01*
X-80000Y-200000D02*
X-68000D01*
X-81000Y-201000D02*
X-67000D01*
X-78000Y-202000D02*
X-70000D01*
X-78000Y-203000D02*
X-70000D01*
X-78000Y-204000D02*
X-70000D01*
X-78000Y-205000D02*
X-70000D01*
X-78000Y-206000D02*
X-70000D01*
X-78000Y-208000D02*
X-70000D01*
X-78000Y-207000D02*
X-70000D01*
X-78000Y-209000D02*
X-70000D01*
X-78000Y-210000D02*
X-70000D01*
X-78000Y-211000D02*
X-70000D01*
X-83000Y-202000D02*
X-78000D01*
X-83000D02*
X-74000Y-193000D01*
X-65000Y-202000D01*
X-70000D02*
X-65000D01*
X-74000Y-193000D02*
Y-193000D01*
X-70000Y-212000D02*
Y-202000D01*
X-74000Y-193000D02*
Y-193000D01*
X-78000Y-212000D02*
Y-202000D01*
Y-212000D02*
X-70000D01*
X101334Y-118167D02*
X100418Y-117251D01*
X98585D01*
X97669Y-118167D01*
Y-119084D01*
X98585Y-120000D01*
X100418D01*
X101334Y-120916D01*
Y-121833D01*
X100418Y-122749D01*
X98585D01*
X97669Y-121833D01*
X103167Y-117251D02*
Y-122749D01*
X105000Y-120916D01*
X106833Y-122749D01*
Y-117251D01*
X112331Y-122749D02*
X108666D01*
X112331Y-119084D01*
Y-118167D01*
X111415Y-117251D01*
X109582D01*
X108666Y-118167D01*
D14*
X-98249Y-89751D02*
X-102581D01*
Y-96249D01*
X-98249D01*
X-102581Y-93000D02*
X-100415D01*
X-96083Y-96249D02*
Y-89751D01*
X-91751Y-96249D01*
Y-89751D01*
X-89585Y-96249D02*
X-87419D01*
X-88502D01*
Y-89751D01*
X-89585Y-90834D01*
X0Y-240001D02*
X-2666D01*
X-1333D01*
Y-246666D01*
X-2666Y-247999D01*
X-3999D01*
X-5332Y-246666D01*
X2666Y-247999D02*
X5332D01*
X3999D01*
Y-240001D01*
X2666Y-241334D01*
X164521Y-162773D02*
X163188Y-161440D01*
X160522D01*
X159189Y-162773D01*
Y-164105D01*
X160522Y-165438D01*
X163188D01*
X164521Y-166771D01*
Y-168104D01*
X163188Y-169437D01*
X160522D01*
X159189Y-168104D01*
X167187Y-161440D02*
Y-169437D01*
X169852Y-166771D01*
X172518Y-169437D01*
Y-161440D01*
X175184Y-162773D02*
X176517Y-161440D01*
X179183D01*
X180516Y-162773D01*
Y-164105D01*
X179183Y-165438D01*
X177850D01*
X179183D01*
X180516Y-166771D01*
Y-168104D01*
X179183Y-169437D01*
X176517D01*
X175184Y-168104D01*
X-174146Y-162773D02*
X-175479Y-161440D01*
X-178145D01*
X-179478Y-162773D01*
Y-164105D01*
X-178145Y-165438D01*
X-175479D01*
X-174146Y-166771D01*
Y-168104D01*
X-175479Y-169437D01*
X-178145D01*
X-179478Y-168104D01*
X-171480Y-161440D02*
Y-169437D01*
X-168815Y-166771D01*
X-166149Y-169437D01*
Y-161440D01*
X-163483Y-169437D02*
X-160817D01*
X-162150D01*
Y-161440D01*
X-163483Y-162773D01*
M02*
