G04*
G04 #@! TF.GenerationSoftware,Altium Limited,Altium Designer,26.2.0 (7)*
G04*
G04 Layer_Color=16711935*
%FSLAX44Y44*%
%MOMM*%
G71*
G04*
G04 #@! TF.SameCoordinates,6373B019-7604-42B0-9C82-F6B7EA48EFEB*
G04*
G04*
G04 #@! TF.FilePolarity,Positive*
G04*
G01*
G75*
%ADD11C,0.2540*%
%ADD13C,0.1500*%
D11*
X64000Y-216000D02*
G03*
X69000Y-211000I0J5000D01*
G01*
X-58000Y-211000D02*
G03*
X-53000Y-216000I5000J0D01*
G01*
X69000Y-29000D02*
G03*
X64000Y-24000I-5000J0D01*
G01*
X-53000Y-24000D02*
G03*
X-58000Y-29000I0J-5000D01*
G01*
X123000Y-247500D02*
G03*
X118000Y-252500I0J-5000D01*
G01*
X113000Y-264000D02*
G03*
X118000Y-259000I0J5000D01*
G01*
X-118000D02*
G03*
X-113000Y-264000I5000J0D01*
G01*
X-118000Y-252500D02*
G03*
X-123000Y-247500I-5000J0D01*
G01*
X-115000Y0D02*
G03*
X-120000Y-5000I0J-5000D01*
G01*
X120000D02*
G03*
X115000Y0I-5000J0D01*
G01*
X224000Y-43000D02*
G03*
X214000Y-33000I-10000J0D01*
G01*
X-214000D02*
G03*
X-224000Y-43000I0J-10000D01*
G01*
X120000Y-28000D02*
G03*
X125000Y-33000I5000J0D01*
G01*
X-125000D02*
G03*
X-120000Y-28000I0J5000D01*
G01*
X214000Y-247500D02*
G03*
X224000Y-237500I0J10000D01*
G01*
X-224000D02*
G03*
X-214000Y-247500I10000J0D01*
G01*
X-53000Y-216000D02*
X64000D01*
X69000Y-211000D02*
Y-29000D01*
X-58000Y-211000D02*
Y-29000D01*
X-53000Y-24000D02*
X64000D01*
X-224000Y-237500D02*
Y-43000D01*
X118000Y-252500D02*
X118000Y-259000D01*
X-118000D02*
X-118000Y-252500D01*
X123000Y-247500D02*
X214000D01*
X-113000Y-264000D02*
X113000Y-264000D01*
X224000Y-237500D02*
Y-43000D01*
X120000Y-28000D02*
Y-5000D01*
X125000Y-33000D02*
X214000D01*
X-214000D02*
X-125000D01*
X-214000Y-247500D02*
X-123000D01*
X-115000Y0D02*
X115000D01*
X-120000Y-28000D02*
Y-5000D01*
D13*
X13000Y-124000D02*
Y-109000D01*
X18000Y-121000D02*
Y-112000D01*
Y-121000D02*
X20725Y-123725D01*
X18000Y-112000D02*
X21000Y-109000D01*
X26000D01*
X20725Y-123725D02*
X27000D01*
X26000Y-109000D02*
X29000Y-112000D01*
X27000Y-123725D02*
X28863Y-121863D01*
X-15000Y-109000D02*
X-10000D01*
X-2000D02*
X2000Y-113000D01*
X13000Y-124000D01*
X-18000Y-121000D02*
Y-112000D01*
Y-121000D02*
X-15275Y-123725D01*
X-18000Y-112000D02*
X-15000Y-109000D01*
X-15275Y-123725D02*
X-9000D01*
X-10000Y-109000D02*
X-7000Y-112000D01*
X-9000Y-123725D02*
X-7137Y-121863D01*
X-2000Y-124000D02*
Y-109000D01*
M02*
