G04*
G04 #@! TF.GenerationSoftware,Altium Limited,Altium Designer,26.5.0 (11)*
G04*
G04 Layer_Physical_Order=2*
G04 Layer_Color=16711680*
G04 Board_Origin=35702757|30494488*
%FSLAX44Y44*%
%MOMM*%
G71*
G04*
G04 #@! TF.SameCoordinates,389B0E32-A173-4D62-938B-00BD7A79B58A*
G04*
G04*
G04 #@! TF.FilePolarity,Positive*
G04*
G01*
G75*
%ADD17C,0.3000*%
%ADD18R,2.9000X1.4000*%
%ADD19R,1.4000X2.9000*%
%ADD20C,2.2000*%
%ADD21R,3.0000X1.7000*%
%ADD22R,1.5000X1.5000*%
%ADD23C,1.5000*%
%ADD24R,1.7000X3.0000*%
%ADD25C,0.4500*%
%ADD26R,0.8000X0.4000*%
%ADD27R,0.8000X0.3000*%
G36*
X99034Y201396D02*
X97982Y201114D01*
X95018Y199403D01*
X92597Y196982D01*
X90886Y194018D01*
X90000Y190711D01*
Y190270D01*
X103000D01*
Y189000D01*
X104270D01*
Y176000D01*
X104711D01*
X108018Y176886D01*
X110982Y178597D01*
X113403Y181018D01*
X115114Y183982D01*
X115396Y185034D01*
X116666Y184867D01*
Y21133D01*
X115396Y20966D01*
X115114Y22018D01*
X113403Y24982D01*
X110982Y27403D01*
X108018Y29114D01*
X104711Y30000D01*
X104270D01*
Y17000D01*
X103000D01*
Y15730D01*
X90000D01*
Y15288D01*
X90886Y11982D01*
X92597Y9018D01*
X95018Y6597D01*
X97982Y4886D01*
X99034Y4604D01*
X98867Y3334D01*
X66330D01*
X66039Y4604D01*
X67602Y6167D01*
X68853Y8333D01*
X69495Y10730D01*
X60000D01*
Y12000D01*
X58730D01*
Y21495D01*
X56333Y20852D01*
X54167Y19602D01*
X52398Y17833D01*
X51147Y15667D01*
X50657Y13838D01*
X49343D01*
X48853Y15667D01*
X47602Y17833D01*
X45833Y19602D01*
X43667Y20852D01*
X43569Y20879D01*
Y67000D01*
X43297Y68366D01*
X42523Y69523D01*
X34024Y78022D01*
X32866Y78796D01*
X31501Y79068D01*
X-6500D01*
Y79229D01*
X-12500D01*
Y80499D01*
D01*
Y79229D01*
X-18500D01*
Y76999D01*
Y64068D01*
X-23243D01*
X-24608Y63796D01*
X-25766Y63022D01*
X-27523Y61265D01*
X-28297Y60107D01*
X-28569Y58742D01*
Y21500D01*
X-29500D01*
Y3334D01*
X-98867D01*
X-99034Y4604D01*
X-97982Y4886D01*
X-95018Y6597D01*
X-92598Y9018D01*
X-90886Y11982D01*
X-90000Y15288D01*
Y15730D01*
X-103000D01*
Y17000D01*
X-104270D01*
Y30000D01*
X-104712D01*
X-108018Y29114D01*
X-110982Y27403D01*
X-113403Y24982D01*
X-115114Y22018D01*
X-115396Y20966D01*
X-116666Y21133D01*
Y184867D01*
X-115396Y185034D01*
X-115114Y183982D01*
X-113403Y181018D01*
X-110982Y178597D01*
X-108018Y176886D01*
X-104712Y176000D01*
X-104270D01*
Y189000D01*
X-103000D01*
Y190270D01*
X-90000D01*
Y190711D01*
X-90886Y194018D01*
X-92598Y196982D01*
X-95018Y199403D01*
X-97982Y201114D01*
X-99034Y201396D01*
X-98867Y202666D01*
X-19500D01*
Y193770D01*
X14500D01*
Y202666D01*
X98867D01*
X99034Y201396D01*
D02*
G37*
G36*
X-18500Y51999D02*
Y46769D01*
X-12500D01*
X-6500D01*
Y46931D01*
X-3977D01*
X-3569Y46522D01*
Y20879D01*
X-3667Y20852D01*
X-5833Y19602D01*
X-7602Y17833D01*
X-8853Y15667D01*
X-9230Y14258D01*
X-10500Y14425D01*
Y21500D01*
X-21432D01*
Y56931D01*
X-18500D01*
Y51999D01*
D02*
G37*
G36*
X36431Y65522D02*
Y20879D01*
X36333Y20852D01*
X34167Y19602D01*
X32398Y17833D01*
X31147Y15667D01*
X30657Y13838D01*
X29343D01*
X28853Y15667D01*
X27602Y17833D01*
X26139Y19296D01*
X25893Y20847D01*
X30523Y25477D01*
X31297Y26634D01*
X31569Y28000D01*
Y65000D01*
X31297Y66366D01*
X30523Y67523D01*
X29500Y68546D01*
Y68595D01*
X28853Y70157D01*
X28350Y70661D01*
X28814Y71782D01*
X30049Y71904D01*
X36431Y65522D01*
D02*
G37*
G36*
X21000Y66904D02*
X21647Y65342D01*
X22843Y64147D01*
X24405Y63500D01*
X24431D01*
Y29478D01*
X18962Y24009D01*
X18188Y22851D01*
X17917Y21485D01*
Y21277D01*
X16333Y20852D01*
X14167Y19602D01*
X12398Y17833D01*
X11147Y15667D01*
X10657Y13838D01*
X9343D01*
X8852Y15667D01*
X7602Y17833D01*
X5833Y19602D01*
X3667Y20852D01*
X3568Y20879D01*
Y46931D01*
X8243D01*
X9608Y47202D01*
X10766Y47976D01*
X12523Y49733D01*
X13297Y50891D01*
X13569Y52256D01*
Y61000D01*
X13297Y62366D01*
X12523Y63523D01*
X10289Y65757D01*
X10776Y66931D01*
X21000D01*
Y66904D01*
D02*
G37*
%LPC*%
G36*
X14500Y191230D02*
X-1230D01*
Y182000D01*
X14500D01*
Y191230D01*
D02*
G37*
G36*
X-3770D02*
X-19500D01*
Y182000D01*
X-3770D01*
Y191230D01*
D02*
G37*
G36*
X101730Y187730D02*
X90000D01*
Y187288D01*
X90886Y183982D01*
X92597Y181018D01*
X95018Y178597D01*
X97982Y176886D01*
X101288Y176000D01*
X101730D01*
Y187730D01*
D02*
G37*
G36*
X-90000Y187730D02*
X-101730D01*
Y176000D01*
X-101288D01*
X-97982Y176886D01*
X-95018Y178597D01*
X-92598Y181018D01*
X-90886Y183982D01*
X-90000Y187288D01*
Y187730D01*
D02*
G37*
G36*
X83000Y134000D02*
X73770D01*
Y118270D01*
X83000D01*
Y134000D01*
D02*
G37*
G36*
X71230D02*
X62000D01*
Y118270D01*
X71230D01*
Y134000D01*
D02*
G37*
G36*
X-62000D02*
X-71230D01*
Y118270D01*
X-62000D01*
Y134000D01*
D02*
G37*
G36*
X-73770D02*
X-83000D01*
Y118270D01*
X-73770D01*
Y134000D01*
D02*
G37*
G36*
X83000Y115730D02*
X73770D01*
Y100000D01*
X83000D01*
Y115730D01*
D02*
G37*
G36*
X71230D02*
X62000D01*
Y100000D01*
X71230D01*
Y115730D01*
D02*
G37*
G36*
X-62000Y115730D02*
X-71230D01*
Y100000D01*
X-62000D01*
Y115730D01*
D02*
G37*
G36*
X-73770D02*
X-83000D01*
Y100000D01*
X-73770D01*
Y115730D01*
D02*
G37*
G36*
X18500Y94499D02*
X13770D01*
Y91769D01*
X18500D01*
Y94499D01*
D02*
G37*
G36*
X11230D02*
X6500D01*
Y91769D01*
X11230D01*
Y94499D01*
D02*
G37*
G36*
X18500Y89229D02*
X13770D01*
Y86499D01*
X18500D01*
Y89229D01*
D02*
G37*
G36*
X11230D02*
X6500D01*
Y86499D01*
X11230D01*
Y89229D01*
D02*
G37*
G36*
X-6500Y83999D02*
X-11230D01*
Y81769D01*
X-6500D01*
Y83999D01*
D02*
G37*
G36*
X-13770D02*
X-18500D01*
Y81769D01*
X-13770D01*
Y83999D01*
D02*
G37*
G36*
X101730Y30000D02*
X101288D01*
X97982Y29114D01*
X95018Y27403D01*
X92597Y24982D01*
X90886Y22018D01*
X90000Y18711D01*
Y18270D01*
X101730D01*
Y30000D01*
D02*
G37*
G36*
X-101289Y30000D02*
X-101730D01*
Y18270D01*
X-90000D01*
Y18711D01*
X-90886Y22018D01*
X-92598Y24982D01*
X-95018Y27403D01*
X-97982Y29114D01*
X-101289Y30000D01*
D02*
G37*
G36*
X61270Y21495D02*
Y13270D01*
X69495D01*
X68853Y15667D01*
X67602Y17833D01*
X65833Y19602D01*
X63667Y20852D01*
X61270Y21495D01*
D02*
G37*
G36*
X-6500Y44229D02*
X-11230D01*
Y41999D01*
X-6500D01*
Y44229D01*
D02*
G37*
G36*
X-13770D02*
X-18500D01*
Y41999D01*
X-13770D01*
Y44229D01*
D02*
G37*
G36*
X18500Y39499D02*
X13770D01*
Y36769D01*
X18500D01*
Y39499D01*
D02*
G37*
G36*
X11230D02*
X6500D01*
Y36769D01*
X11230D01*
Y39499D01*
D02*
G37*
G36*
X18500Y34229D02*
X13770D01*
Y31499D01*
X18500D01*
Y34229D01*
D02*
G37*
G36*
X11230D02*
X6500D01*
Y31499D01*
X11230D01*
Y34229D01*
D02*
G37*
%LPD*%
D17*
X13000Y28000D02*
Y34999D01*
X12500Y35499D02*
X13000Y34999D01*
X-2499Y50499D02*
X8243D01*
X-12500D02*
X-2499D01*
X-0Y12000D02*
Y48000D01*
X-2499Y50499D02*
X-0Y48000D01*
X-12500Y65499D02*
X5501D01*
X10000Y52256D02*
Y61000D01*
X5501Y65499D02*
X10000Y61000D01*
X8243Y50499D02*
X10000Y52256D01*
X1093Y55499D02*
X2594Y57000D01*
X-12500Y55499D02*
X1093D01*
X2594Y57000D02*
X3000D01*
X-12500Y39041D02*
Y45499D01*
X-13000Y38541D02*
X-12500Y39041D01*
X-13000Y38000D02*
Y38541D01*
X-25000Y17000D02*
Y58742D01*
X-23243Y60499D01*
X-25000Y17000D02*
X-20000Y12000D01*
X-23243Y60499D02*
X-12500D01*
X22501Y70499D02*
X28000Y65000D01*
Y28000D02*
Y65000D01*
X21485Y21485D02*
X28000Y28000D01*
X21485Y13485D02*
Y21485D01*
X20000Y12000D02*
X21485Y13485D01*
X-12500Y70499D02*
X22501D01*
X31501Y75499D02*
X40000Y67000D01*
Y12000D02*
Y67000D01*
X-12500Y75499D02*
X31501D01*
D18*
X-101500Y182000D02*
D03*
X101500D02*
D03*
Y24000D02*
D03*
X-101500Y24000D02*
D03*
D19*
X-96000Y187500D02*
D03*
X96000D02*
D03*
Y18500D02*
D03*
X-96000Y18500D02*
D03*
D20*
X103000Y103000D02*
D03*
X-103000D02*
D03*
Y189000D02*
D03*
X103000D02*
D03*
X-103000Y17000D02*
D03*
X103000Y17000D02*
D03*
D21*
X-2500Y192500D02*
D03*
D22*
X-20000Y12000D02*
D03*
D23*
X-0D02*
D03*
X20000D02*
D03*
X40000D02*
D03*
X60000D02*
D03*
D24*
X-72500Y117000D02*
D03*
X72500D02*
D03*
D25*
X13000Y28000D02*
D03*
X3000Y57000D02*
D03*
X-13000Y38000D02*
D03*
X25250Y67750D02*
D03*
D26*
X12500Y90499D02*
D03*
Y35499D02*
D03*
D27*
X-12500Y80499D02*
D03*
Y75499D02*
D03*
Y70499D02*
D03*
Y65499D02*
D03*
Y60499D02*
D03*
Y55499D02*
D03*
Y50499D02*
D03*
Y45499D02*
D03*
M02*
