G04*
G04 #@! TF.GenerationSoftware,Altium Limited,Altium Designer,26.5.0 (11)*
G04*
G04 Layer_Color=65535*
G04 Board_Origin=35702757|30494488*
%FSLAX44Y44*%
%MOMM*%
G71*
G04*
G04 #@! TF.SameCoordinates,389B0E32-A173-4D62-938B-00BD7A79B58A*
G04*
G04*
G04 #@! TF.FilePolarity,Positive*
G04*
G01*
G75*
%ADD10C,0.2000*%
%ADD11C,0.1500*%
G36*
X-52058Y20949D02*
X-49425Y17000D01*
X-51291D01*
X-52572Y18975D01*
X-52581Y18993D01*
X-52608Y19038D01*
X-52653Y19101D01*
X-52707Y19200D01*
X-52770Y19317D01*
X-52842Y19444D01*
X-52914Y19597D01*
X-52996Y19759D01*
X-53014D01*
Y19750D01*
X-53023Y19741D01*
X-53050Y19687D01*
X-53086Y19606D01*
X-53140Y19498D01*
X-53203Y19380D01*
X-53275Y19245D01*
X-53437Y18975D01*
X-54718Y17000D01*
X-56575D01*
X-53942Y21012D01*
X-56332Y24691D01*
X-54519D01*
X-53401Y22897D01*
X-53392Y22879D01*
X-53365Y22834D01*
X-53320Y22762D01*
X-53266Y22672D01*
X-53203Y22554D01*
X-53131Y22419D01*
X-53059Y22275D01*
X-52986Y22113D01*
X-52959D01*
X-52950Y22131D01*
X-52932Y22176D01*
X-52896Y22248D01*
X-52851Y22347D01*
X-52797Y22464D01*
X-52734Y22590D01*
X-52581Y22861D01*
X-51472Y24691D01*
X-49659D01*
X-52058Y20949D01*
D02*
G37*
G36*
X93391Y92345D02*
X93502Y92334D01*
X93635Y92301D01*
X93790Y92256D01*
X93946Y92201D01*
X94101Y92112D01*
X94123Y92101D01*
X94167Y92068D01*
X94245Y92012D01*
X94334Y91945D01*
X94445Y91846D01*
X94545Y91735D01*
X94656Y91613D01*
X94756Y91468D01*
X94767Y91446D01*
X94789Y91402D01*
X94833Y91313D01*
X94878Y91202D01*
X94922Y91069D01*
X94967Y90913D01*
X94989Y90747D01*
X95000Y90558D01*
Y86584D01*
X94989Y86484D01*
X94967Y86362D01*
X94944Y86229D01*
X94900Y86074D01*
X94833Y85918D01*
X94756Y85763D01*
X94745Y85741D01*
X94711Y85696D01*
X94656Y85619D01*
X94578Y85530D01*
X94489Y85430D01*
X94378Y85319D01*
X94245Y85208D01*
X94101Y85108D01*
X94079Y85097D01*
X94034Y85075D01*
X93946Y85030D01*
X93834Y84986D01*
X93701Y84942D01*
X93557Y84897D01*
X93391Y84875D01*
X93213Y84864D01*
X89417D01*
X89406D01*
X89395D01*
X89339D01*
X89239Y84875D01*
X89117Y84897D01*
X88984Y84919D01*
X88828Y84964D01*
X88673Y85030D01*
X88518Y85108D01*
X88496Y85119D01*
X88451Y85152D01*
X88373Y85208D01*
X88285Y85286D01*
X88174Y85386D01*
X88063Y85497D01*
X87963Y85619D01*
X87863Y85763D01*
X87852Y85785D01*
X87830Y85841D01*
X87785Y85918D01*
X87741Y86029D01*
X87696Y86163D01*
X87652Y86318D01*
X87630Y86484D01*
X87619Y86662D01*
Y90647D01*
X87630Y90747D01*
X87652Y90869D01*
X87674Y91013D01*
X87718Y91157D01*
X87785Y91324D01*
X87863Y91479D01*
X87874Y91502D01*
X87907Y91546D01*
X87963Y91624D01*
X88029Y91712D01*
X88129Y91812D01*
X88240Y91923D01*
X88373Y92034D01*
X88518Y92123D01*
X88540Y92134D01*
X88584Y92156D01*
X88673Y92201D01*
X88784Y92245D01*
X88917Y92278D01*
X89073Y92323D01*
X89239Y92345D01*
X89417Y92356D01*
X93213D01*
X93235D01*
X93291D01*
X93391Y92345D01*
D02*
G37*
G36*
X95000Y81989D02*
X87619D01*
Y83798D01*
X95000D01*
Y81989D01*
D02*
G37*
G36*
X87019D02*
X85199D01*
Y83798D01*
X87019D01*
Y81989D01*
D02*
G37*
G36*
X95000Y76983D02*
X92172D01*
Y79828D01*
X95000D01*
Y76983D01*
D02*
G37*
G36*
X-83238Y31219D02*
Y28000D01*
X-84780D01*
Y31228D01*
X-87539Y35691D01*
X-85727D01*
X-84555Y33617D01*
Y33609D01*
X-84537Y33591D01*
X-84518Y33554D01*
X-84501Y33518D01*
X-84464Y33464D01*
X-84437Y33401D01*
X-84356Y33257D01*
X-84266Y33085D01*
X-84167Y32896D01*
X-84077Y32707D01*
X-83987Y32517D01*
X-83968D01*
Y32527D01*
X-83959Y32536D01*
X-83950Y32562D01*
X-83932Y32599D01*
X-83905Y32644D01*
X-83887Y32698D01*
X-83815Y32824D01*
X-83734Y32986D01*
X-83644Y33167D01*
X-83527Y33374D01*
X-83400Y33609D01*
X-82246Y35691D01*
X-80461D01*
X-83238Y31219D01*
D02*
G37*
G36*
X93391Y74731D02*
X93502Y74720D01*
X93635Y74687D01*
X93790Y74642D01*
X93946Y74587D01*
X94101Y74498D01*
X94123Y74487D01*
X94167Y74454D01*
X94245Y74398D01*
X94334Y74332D01*
X94445Y74232D01*
X94545Y74121D01*
X94656Y73999D01*
X94756Y73854D01*
X94767Y73832D01*
X94789Y73788D01*
X94833Y73699D01*
X94878Y73588D01*
X94922Y73455D01*
X94967Y73299D01*
X94989Y73133D01*
X95000Y72944D01*
Y68970D01*
X94989Y68871D01*
X94967Y68748D01*
X94944Y68615D01*
X94900Y68460D01*
X94833Y68304D01*
X94756Y68149D01*
X94745Y68127D01*
X94711Y68082D01*
X94656Y68005D01*
X94578Y67916D01*
X94489Y67816D01*
X94378Y67705D01*
X94245Y67594D01*
X94101Y67494D01*
X94079Y67483D01*
X94034Y67461D01*
X93946Y67417D01*
X93834Y67372D01*
X93701Y67328D01*
X93557Y67283D01*
X93391Y67261D01*
X93213Y67250D01*
X89417D01*
X89406D01*
X89395D01*
X89339D01*
X89239Y67261D01*
X89117Y67283D01*
X88984Y67305D01*
X88828Y67350D01*
X88673Y67417D01*
X88518Y67494D01*
X88496Y67505D01*
X88451Y67538D01*
X88373Y67594D01*
X88285Y67672D01*
X88174Y67772D01*
X88063Y67883D01*
X87963Y68005D01*
X87863Y68149D01*
X87852Y68171D01*
X87830Y68227D01*
X87785Y68304D01*
X87741Y68415D01*
X87696Y68549D01*
X87652Y68704D01*
X87630Y68871D01*
X87619Y69048D01*
Y73033D01*
X87630Y73133D01*
X87652Y73255D01*
X87674Y73399D01*
X87718Y73544D01*
X87785Y73710D01*
X87863Y73865D01*
X87874Y73888D01*
X87907Y73932D01*
X87963Y74010D01*
X88029Y74099D01*
X88129Y74198D01*
X88240Y74309D01*
X88373Y74420D01*
X88518Y74509D01*
X88540Y74520D01*
X88584Y74542D01*
X88673Y74587D01*
X88784Y74631D01*
X88917Y74665D01*
X89073Y74709D01*
X89239Y74731D01*
X89417Y74742D01*
X93213D01*
X93235D01*
X93291D01*
X93391Y74731D01*
D02*
G37*
G36*
X95000Y65896D02*
Y60113D01*
X94989Y60024D01*
X94967Y59891D01*
X94944Y59758D01*
X94900Y59602D01*
X94845Y59436D01*
X94767Y59280D01*
X94756Y59258D01*
X94722Y59214D01*
X94667Y59136D01*
X94589Y59047D01*
X94500Y58947D01*
X94389Y58836D01*
X94256Y58736D01*
X94112Y58636D01*
X94090Y58625D01*
X94034Y58603D01*
X93957Y58559D01*
X93846Y58514D01*
X93701Y58470D01*
X93557Y58426D01*
X93391Y58403D01*
X93213Y58392D01*
X89417D01*
X89406D01*
X89395D01*
X89339D01*
X89239Y58403D01*
X89117Y58426D01*
X88984Y58448D01*
X88828Y58492D01*
X88673Y58559D01*
X88518Y58636D01*
X88496Y58648D01*
X88451Y58681D01*
X88373Y58736D01*
X88285Y58814D01*
X88174Y58903D01*
X88063Y59014D01*
X87963Y59136D01*
X87863Y59280D01*
X87852Y59303D01*
X87830Y59358D01*
X87785Y59436D01*
X87741Y59547D01*
X87696Y59691D01*
X87652Y59846D01*
X87630Y60013D01*
X87619Y60202D01*
Y64086D01*
X85199D01*
Y65907D01*
X95000Y65896D01*
D02*
G37*
G36*
Y57393D02*
Y51610D01*
X94989Y51522D01*
X94967Y51388D01*
X94944Y51255D01*
X94900Y51100D01*
X94845Y50933D01*
X94767Y50778D01*
X94756Y50756D01*
X94722Y50711D01*
X94667Y50634D01*
X94589Y50545D01*
X94500Y50445D01*
X94389Y50334D01*
X94256Y50234D01*
X94112Y50134D01*
X94090Y50123D01*
X94034Y50101D01*
X93957Y50056D01*
X93846Y50012D01*
X93701Y49968D01*
X93557Y49923D01*
X93391Y49901D01*
X93213Y49890D01*
X89417D01*
X89406D01*
X89395D01*
X89339D01*
X89239Y49901D01*
X89117Y49923D01*
X88984Y49945D01*
X88828Y49990D01*
X88673Y50056D01*
X88518Y50134D01*
X88496Y50145D01*
X88451Y50178D01*
X88373Y50234D01*
X88285Y50312D01*
X88174Y50401D01*
X88063Y50511D01*
X87963Y50634D01*
X87863Y50778D01*
X87852Y50800D01*
X87830Y50855D01*
X87785Y50933D01*
X87741Y51044D01*
X87696Y51189D01*
X87652Y51344D01*
X87630Y51510D01*
X87619Y51699D01*
Y55584D01*
X85199D01*
Y57404D01*
X95000Y57393D01*
D02*
G37*
G36*
X93391Y48902D02*
X93502Y48891D01*
X93635Y48858D01*
X93790Y48813D01*
X93946Y48758D01*
X94101Y48669D01*
X94123Y48658D01*
X94167Y48625D01*
X94245Y48569D01*
X94334Y48502D01*
X94445Y48403D01*
X94545Y48292D01*
X94656Y48169D01*
X94756Y48025D01*
X94767Y48003D01*
X94789Y47958D01*
X94833Y47870D01*
X94878Y47759D01*
X94922Y47625D01*
X94967Y47470D01*
X94989Y47304D01*
X95000Y47115D01*
Y43141D01*
X94989Y43041D01*
X94967Y42919D01*
X94944Y42786D01*
X94900Y42631D01*
X94833Y42475D01*
X94756Y42320D01*
X94745Y42298D01*
X94711Y42253D01*
X94656Y42175D01*
X94578Y42087D01*
X94489Y41987D01*
X94378Y41876D01*
X94245Y41765D01*
X94101Y41665D01*
X94079Y41654D01*
X94034Y41632D01*
X93946Y41587D01*
X93834Y41543D01*
X93701Y41498D01*
X93557Y41454D01*
X93391Y41432D01*
X93213Y41421D01*
X89417D01*
X89406D01*
X89395D01*
X89339D01*
X89239Y41432D01*
X89117Y41454D01*
X88984Y41476D01*
X88828Y41521D01*
X88673Y41587D01*
X88518Y41665D01*
X88496Y41676D01*
X88451Y41709D01*
X88373Y41765D01*
X88285Y41842D01*
X88174Y41942D01*
X88063Y42053D01*
X87963Y42175D01*
X87863Y42320D01*
X87852Y42342D01*
X87830Y42397D01*
X87785Y42475D01*
X87741Y42586D01*
X87696Y42719D01*
X87652Y42875D01*
X87630Y43041D01*
X87619Y43219D01*
Y47204D01*
X87630Y47304D01*
X87652Y47426D01*
X87674Y47570D01*
X87718Y47714D01*
X87785Y47881D01*
X87863Y48036D01*
X87874Y48058D01*
X87907Y48103D01*
X87963Y48180D01*
X88029Y48269D01*
X88129Y48369D01*
X88240Y48480D01*
X88373Y48591D01*
X88518Y48680D01*
X88540Y48691D01*
X88584Y48713D01*
X88673Y48758D01*
X88784Y48802D01*
X88917Y48835D01*
X89073Y48880D01*
X89239Y48902D01*
X89417Y48913D01*
X93213D01*
X93235D01*
X93291D01*
X93391Y48902D01*
D02*
G37*
G36*
X95000Y38024D02*
X89506Y38013D01*
X89494D01*
X89483D01*
X89461D01*
X89450Y38002D01*
X89439Y37991D01*
X89428Y37935D01*
Y35394D01*
X89450Y35349D01*
X89461Y35338D01*
X89472Y35327D01*
X89506D01*
X95000D01*
Y33507D01*
X89506D01*
X89494D01*
X89483D01*
X89461Y33496D01*
X89450Y33484D01*
X89439Y33473D01*
X89428Y33429D01*
Y30865D01*
X89450Y30831D01*
X89461Y30820D01*
X89472D01*
X89506D01*
X95000Y30809D01*
Y28989D01*
X87619D01*
Y38102D01*
X87630Y38202D01*
X87652Y38324D01*
X87674Y38468D01*
X87718Y38612D01*
X87785Y38779D01*
X87863Y38934D01*
X87874Y38957D01*
X87907Y39001D01*
X87963Y39079D01*
X88040Y39167D01*
X88129Y39267D01*
X88240Y39378D01*
X88373Y39489D01*
X88518Y39578D01*
X88540Y39589D01*
X88584Y39611D01*
X88673Y39656D01*
X88784Y39700D01*
X88917Y39745D01*
X89073Y39789D01*
X89239Y39811D01*
X89417Y39822D01*
X95000D01*
Y38024D01*
D02*
G37*
%LPC*%
G36*
X93124Y90547D02*
X89506D01*
X89494D01*
X89483D01*
X89461Y90536D01*
X89450Y90525D01*
X89439Y90514D01*
X89428Y90503D01*
Y86729D01*
X89450Y86695D01*
X89461Y86684D01*
X89472Y86673D01*
X89506D01*
X93124D01*
X93146D01*
X93180Y86695D01*
Y86706D01*
X93191Y86751D01*
Y90514D01*
X93180Y90525D01*
X93168Y90536D01*
X93124Y90547D01*
D02*
G37*
G36*
Y72933D02*
X89506D01*
X89494D01*
X89483D01*
X89461Y72922D01*
X89450Y72911D01*
X89439Y72900D01*
X89428Y72889D01*
Y69115D01*
X89450Y69081D01*
X89461Y69070D01*
X89472Y69059D01*
X89506D01*
X93124D01*
X93146D01*
X93180Y69081D01*
Y69092D01*
X93191Y69137D01*
Y72900D01*
X93180Y72911D01*
X93168Y72922D01*
X93124Y72933D01*
D02*
G37*
G36*
Y64086D02*
X89506D01*
X89494D01*
X89483D01*
X89461Y64075D01*
X89450Y64064D01*
X89439Y64053D01*
X89428Y64042D01*
Y60268D01*
X89450Y60235D01*
X89461Y60224D01*
X89472Y60213D01*
X89506D01*
X93124D01*
X93146D01*
X93180Y60235D01*
Y60246D01*
X93191Y60290D01*
Y64053D01*
X93180Y64064D01*
X93168Y64075D01*
X93124Y64086D01*
D02*
G37*
G36*
Y55584D02*
X89506D01*
X89494D01*
X89483D01*
X89461Y55573D01*
X89450Y55562D01*
X89439Y55551D01*
X89428Y55540D01*
Y51766D01*
X89450Y51732D01*
X89461Y51721D01*
X89472Y51710D01*
X89506D01*
X93124D01*
X93146D01*
X93180Y51732D01*
Y51743D01*
X93191Y51788D01*
Y55551D01*
X93180Y55562D01*
X93168Y55573D01*
X93124Y55584D01*
D02*
G37*
G36*
Y47104D02*
X89506D01*
X89494D01*
X89483D01*
X89461Y47093D01*
X89450Y47082D01*
X89439Y47070D01*
X89428Y47059D01*
Y43285D01*
X89450Y43252D01*
X89461Y43241D01*
X89472Y43230D01*
X89506D01*
X93124D01*
X93146D01*
X93180Y43252D01*
Y43263D01*
X93191Y43308D01*
Y47070D01*
X93180Y47082D01*
X93168Y47093D01*
X93124Y47104D01*
D02*
G37*
%LPD*%
D10*
X-82500Y40500D02*
Y194500D01*
X82500D01*
X-82500Y40500D02*
X82500D01*
Y194500D01*
X70000Y10500D02*
X82500D01*
X-42500D02*
X-30000D01*
X-42500D02*
Y39500D01*
X82500Y10500D02*
Y39500D01*
X-75000Y10000D02*
X-51000D01*
X-75000Y10000D02*
Y34000D01*
X-55000Y14000D02*
X-51000Y10000D01*
X-55000Y6000D02*
X-51000Y10000D01*
X-55000Y6000D02*
Y14000D01*
X-53000Y8000D02*
Y12000D01*
X-54000Y8000D02*
Y12000D01*
X-77000Y31000D02*
X-73000D01*
X-77000Y32000D02*
X-73000D01*
X-79000Y30000D02*
X-71000D01*
X-75000Y34000D02*
X-71000Y30000D01*
X-79000D02*
X-75000Y34000D01*
D11*
X-56499Y35999D02*
X-57499Y36999D01*
X-59498D01*
X-60498Y35999D01*
Y35000D01*
X-59498Y34000D01*
X-57499D01*
X-56499Y33000D01*
Y32001D01*
X-57499Y31001D01*
X-59498D01*
X-60498Y32001D01*
X-54500Y36999D02*
Y31001D01*
X-52500Y33000D01*
X-50501Y31001D01*
Y36999D01*
X-48502Y31001D02*
X-46502D01*
X-47502D01*
Y36999D01*
X-48502Y35999D01*
M02*
