G04*
G04 #@! TF.GenerationSoftware,Altium Limited,Altium Designer,26.5.0 (11)*
G04*
G04 Layer_Color=32896*
G04 Board_Origin=35702757|30494488*
%FSLAX44Y44*%
%MOMM*%
G71*
G04*
G04 #@! TF.SameCoordinates,389B0E32-A173-4D62-938B-00BD7A79B58A*
G04*
G04*
G04 #@! TF.FilePolarity,Positive*
G04*
G01*
G75*
%ADD10C,0.2000*%
%ADD11C,0.1500*%
%ADD30C,0.1270*%
G36*
X-89525Y159225D02*
X-89425D01*
Y159200D01*
X-89350D01*
Y159175D01*
X-89300D01*
Y159150D01*
X-89250D01*
Y159125D01*
X-89200D01*
Y159100D01*
X-89150D01*
Y159075D01*
X-89125D01*
Y159050D01*
X-89100D01*
Y159025D01*
X-89050D01*
Y159000D01*
X-89025D01*
Y158975D01*
X-89000D01*
Y158925D01*
X-88975D01*
Y158900D01*
X-88950D01*
Y158875D01*
X-88925D01*
Y158850D01*
X-88900D01*
Y158800D01*
X-88875D01*
Y158750D01*
X-88850D01*
Y158700D01*
X-88825D01*
Y158625D01*
X-88800D01*
Y158550D01*
X-88775D01*
Y158375D01*
X-88750D01*
Y148125D01*
X-88775D01*
Y147950D01*
X-88800D01*
Y147875D01*
X-88825D01*
Y147800D01*
X-88850D01*
Y147750D01*
X-88875D01*
Y147700D01*
X-88900D01*
Y147675D01*
X-88925D01*
Y147625D01*
X-88950D01*
Y147600D01*
X-88975D01*
Y147575D01*
X-89000D01*
Y147550D01*
X-89025D01*
Y147525D01*
X-89050D01*
Y147500D01*
X-89075D01*
Y147475D01*
X-89100D01*
Y147450D01*
X-89125D01*
Y147425D01*
X-89175D01*
Y147400D01*
X-89200D01*
Y147375D01*
X-89250D01*
Y147350D01*
X-89300D01*
Y147325D01*
X-89375D01*
Y147300D01*
X-89450D01*
Y147275D01*
X-89625D01*
Y147250D01*
X-93500D01*
Y147275D01*
X-93675D01*
Y147300D01*
X-93775D01*
Y147325D01*
X-93850D01*
Y147350D01*
X-93900D01*
Y147375D01*
X-93950D01*
Y147400D01*
X-94000D01*
Y147425D01*
X-94025D01*
Y147450D01*
X-94050D01*
Y147475D01*
X-94100D01*
Y147500D01*
X-94125D01*
Y147525D01*
X-94150D01*
Y147550D01*
X-94175D01*
Y147575D01*
X-94200D01*
Y147600D01*
X-94225D01*
Y147650D01*
X-94250D01*
Y147675D01*
X-94275D01*
Y147725D01*
X-94300D01*
Y147775D01*
X-94325D01*
Y147825D01*
X-94350D01*
Y147900D01*
X-94375D01*
Y147975D01*
X-94400D01*
Y151575D01*
X-94425D01*
Y151725D01*
X-94450D01*
Y151800D01*
X-94475D01*
Y151875D01*
X-94500D01*
Y151925D01*
X-94525D01*
Y151975D01*
X-94550D01*
Y152025D01*
X-94575D01*
Y152050D01*
X-94600D01*
Y152100D01*
X-94625D01*
Y152125D01*
X-94650D01*
Y152150D01*
X-94700D01*
Y152175D01*
X-94750D01*
Y152200D01*
X-94875D01*
Y152175D01*
X-94950D01*
Y152150D01*
X-94975D01*
Y152125D01*
X-95000D01*
Y152100D01*
X-95025D01*
Y152075D01*
X-95050D01*
Y152050D01*
X-95075D01*
Y152025D01*
X-95100D01*
Y152000D01*
X-95125D01*
Y151975D01*
X-95150D01*
Y151950D01*
X-95175D01*
Y151925D01*
X-95200D01*
Y151900D01*
X-95225D01*
Y151875D01*
X-95250D01*
Y151850D01*
X-95275D01*
Y151825D01*
X-95300D01*
Y151800D01*
X-95325D01*
Y151775D01*
X-95350D01*
Y151750D01*
X-95375D01*
Y151725D01*
X-95400D01*
Y151700D01*
X-95425D01*
Y151650D01*
X-95450D01*
Y151625D01*
X-95475D01*
Y151600D01*
X-95500D01*
Y151575D01*
X-95525D01*
Y151550D01*
X-95550D01*
Y151525D01*
X-95575D01*
Y151500D01*
X-95600D01*
Y151475D01*
X-95625D01*
Y151450D01*
X-95650D01*
Y151425D01*
X-95675D01*
Y151400D01*
X-95700D01*
Y151375D01*
X-95725D01*
Y151350D01*
X-95750D01*
Y151325D01*
X-95775D01*
Y151300D01*
X-95800D01*
Y151275D01*
X-95825D01*
Y151250D01*
X-95850D01*
Y151225D01*
X-95875D01*
Y151200D01*
X-95900D01*
Y151175D01*
X-95925D01*
Y151150D01*
X-95950D01*
Y151100D01*
X-95975D01*
Y151075D01*
X-96000D01*
Y151050D01*
X-96025D01*
Y151025D01*
X-96050D01*
Y151000D01*
X-96075D01*
Y150975D01*
X-96100D01*
Y150950D01*
X-96125D01*
Y150925D01*
X-96150D01*
Y150900D01*
X-96175D01*
Y150875D01*
X-96200D01*
Y150850D01*
X-96225D01*
Y150825D01*
X-96250D01*
Y150800D01*
X-96275D01*
Y150775D01*
X-96300D01*
Y150750D01*
X-96325D01*
Y150725D01*
X-96350D01*
Y150700D01*
X-96375D01*
Y150675D01*
X-96400D01*
Y150650D01*
X-96425D01*
Y150600D01*
X-96450D01*
Y150575D01*
X-96475D01*
Y150550D01*
X-96500D01*
Y150525D01*
X-96525D01*
Y150500D01*
X-96550D01*
Y150475D01*
X-96575D01*
Y150450D01*
X-96600D01*
Y150425D01*
X-96625D01*
Y150400D01*
X-96650D01*
Y150375D01*
X-96675D01*
Y150350D01*
X-96700D01*
Y150325D01*
X-96725D01*
Y150300D01*
X-96750D01*
Y150275D01*
X-96775D01*
Y150250D01*
X-96800D01*
Y150225D01*
X-96825D01*
Y150200D01*
X-96850D01*
Y150175D01*
X-96875D01*
Y150150D01*
X-96900D01*
Y150100D01*
X-96925D01*
Y150075D01*
X-96950D01*
Y150050D01*
X-96975D01*
Y150025D01*
X-97000D01*
Y150000D01*
X-97025D01*
Y149975D01*
X-97050D01*
Y149950D01*
X-97075D01*
Y149925D01*
X-97100D01*
Y149900D01*
X-97125D01*
Y149875D01*
X-97150D01*
Y149850D01*
X-97175D01*
Y149825D01*
X-97200D01*
Y149800D01*
X-97225D01*
Y149775D01*
X-97250D01*
Y149750D01*
X-97275D01*
Y149725D01*
X-97300D01*
Y149700D01*
X-97325D01*
Y149675D01*
X-97350D01*
Y149650D01*
X-97375D01*
Y149600D01*
X-97400D01*
Y149575D01*
X-97425D01*
Y149550D01*
X-97450D01*
Y149525D01*
X-97475D01*
Y149500D01*
X-97500D01*
Y149475D01*
X-97525D01*
Y149450D01*
X-97550D01*
Y149425D01*
X-97575D01*
Y149400D01*
X-97600D01*
Y149375D01*
X-97625D01*
Y149350D01*
X-97650D01*
Y149325D01*
X-97675D01*
Y149300D01*
X-97700D01*
Y149275D01*
X-97725D01*
Y149250D01*
X-97750D01*
Y149225D01*
X-97775D01*
Y149200D01*
X-97800D01*
Y149175D01*
X-97825D01*
Y149150D01*
X-97850D01*
Y149100D01*
X-97875D01*
Y149075D01*
X-97900D01*
Y149050D01*
X-97925D01*
Y149025D01*
X-97950D01*
Y149000D01*
X-97975D01*
Y148975D01*
X-98000D01*
Y148950D01*
X-98025D01*
Y148925D01*
X-98050D01*
Y148900D01*
X-98075D01*
Y148875D01*
X-98100D01*
Y148850D01*
X-98125D01*
Y148825D01*
X-98150D01*
Y148800D01*
X-98175D01*
Y148775D01*
X-98200D01*
Y148750D01*
X-98225D01*
Y148725D01*
X-98250D01*
Y148700D01*
X-98275D01*
Y148675D01*
X-98300D01*
Y148650D01*
X-98325D01*
Y148600D01*
X-98350D01*
Y148575D01*
X-98375D01*
Y148550D01*
X-98400D01*
Y148525D01*
X-98425D01*
Y148500D01*
X-98450D01*
Y148475D01*
X-98475D01*
Y148450D01*
X-98500D01*
Y148425D01*
X-98525D01*
Y148400D01*
X-98550D01*
Y148375D01*
X-98575D01*
Y148350D01*
X-98600D01*
Y148325D01*
X-98625D01*
Y148300D01*
X-98650D01*
Y148275D01*
X-98675D01*
Y148250D01*
X-98700D01*
Y148225D01*
X-98725D01*
Y148200D01*
X-98750D01*
Y148175D01*
X-98775D01*
Y148150D01*
X-98800D01*
Y148100D01*
X-98825D01*
Y148075D01*
X-98850D01*
Y148050D01*
X-98875D01*
Y148025D01*
X-98900D01*
Y148000D01*
X-98925D01*
Y147975D01*
X-98950D01*
Y147950D01*
X-98975D01*
Y147925D01*
X-99000D01*
Y147900D01*
X-99025D01*
Y147875D01*
X-99050D01*
Y147850D01*
X-99075D01*
Y147825D01*
X-99100D01*
Y147800D01*
X-99125D01*
Y147775D01*
X-99150D01*
Y147750D01*
X-99175D01*
Y147725D01*
X-99200D01*
Y147700D01*
X-99225D01*
Y147675D01*
X-99250D01*
Y147650D01*
X-99275D01*
Y147600D01*
X-99300D01*
Y147575D01*
X-99325D01*
Y147550D01*
X-99375D01*
Y147525D01*
X-99400D01*
Y147500D01*
X-99425D01*
Y147475D01*
X-99450D01*
Y147450D01*
X-99475D01*
Y147425D01*
X-99525D01*
Y147400D01*
X-99575D01*
Y147375D01*
X-99625D01*
Y147350D01*
X-99700D01*
Y147325D01*
X-99825D01*
Y147300D01*
X-100150D01*
Y147325D01*
X-100250D01*
Y147350D01*
X-100325D01*
Y147375D01*
X-100375D01*
Y147400D01*
X-100425D01*
Y147425D01*
X-100475D01*
Y147450D01*
X-100500D01*
Y147475D01*
X-100525D01*
Y147500D01*
X-100575D01*
Y147525D01*
X-100600D01*
Y147550D01*
X-100625D01*
Y147575D01*
X-100650D01*
Y147600D01*
X-100675D01*
Y147625D01*
X-100700D01*
Y147650D01*
X-100725D01*
Y147675D01*
X-100750D01*
Y147725D01*
X-100775D01*
Y147750D01*
X-100800D01*
Y147775D01*
X-100825D01*
Y147800D01*
X-100850D01*
Y147825D01*
X-100875D01*
Y147850D01*
X-100900D01*
Y147875D01*
X-100925D01*
Y147900D01*
X-100950D01*
Y147925D01*
X-100975D01*
Y147950D01*
X-101000D01*
Y147975D01*
X-101025D01*
Y148000D01*
X-101050D01*
Y148025D01*
X-101075D01*
Y148050D01*
X-101100D01*
Y148075D01*
X-101125D01*
Y148100D01*
X-101150D01*
Y148125D01*
X-101175D01*
Y148150D01*
X-101200D01*
Y148175D01*
X-101225D01*
Y148225D01*
X-101250D01*
Y148250D01*
X-101275D01*
Y148275D01*
X-101300D01*
Y148300D01*
X-101325D01*
Y148325D01*
X-101350D01*
Y148350D01*
X-101375D01*
Y148375D01*
X-101400D01*
Y148400D01*
X-101425D01*
Y148425D01*
X-101450D01*
Y148450D01*
X-101475D01*
Y148475D01*
X-101500D01*
Y148500D01*
X-101525D01*
Y148525D01*
X-101550D01*
Y148550D01*
X-101575D01*
Y148575D01*
X-101600D01*
Y148600D01*
X-101625D01*
Y148625D01*
X-101650D01*
Y148650D01*
X-101675D01*
Y148675D01*
X-101700D01*
Y148725D01*
X-101725D01*
Y148750D01*
X-101750D01*
Y148775D01*
X-101775D01*
Y148800D01*
X-101800D01*
Y148825D01*
X-101825D01*
Y148850D01*
X-101850D01*
Y148875D01*
X-101875D01*
Y148900D01*
X-101900D01*
Y148925D01*
X-101925D01*
Y148950D01*
X-101950D01*
Y148975D01*
X-101975D01*
Y149000D01*
X-102000D01*
Y149025D01*
X-102025D01*
Y149050D01*
X-102050D01*
Y149075D01*
X-102075D01*
Y149100D01*
X-102100D01*
Y149125D01*
X-102125D01*
Y149150D01*
X-102150D01*
Y149175D01*
X-102175D01*
Y149225D01*
X-102200D01*
Y149250D01*
X-102225D01*
Y149275D01*
X-102250D01*
Y149300D01*
X-102275D01*
Y149325D01*
X-102300D01*
Y149350D01*
X-102325D01*
Y149375D01*
X-102350D01*
Y149400D01*
X-102375D01*
Y149425D01*
X-102400D01*
Y149450D01*
X-102425D01*
Y149475D01*
X-102450D01*
Y149500D01*
X-102475D01*
Y149525D01*
X-102500D01*
Y149550D01*
X-102525D01*
Y149575D01*
X-102550D01*
Y149600D01*
X-102575D01*
Y149625D01*
X-102600D01*
Y149650D01*
X-102625D01*
Y149675D01*
X-102650D01*
Y149725D01*
X-102675D01*
Y149750D01*
X-102700D01*
Y149775D01*
X-102725D01*
Y149800D01*
X-102750D01*
Y149825D01*
X-102775D01*
Y149850D01*
X-102800D01*
Y149875D01*
X-102825D01*
Y149900D01*
X-102850D01*
Y149925D01*
X-102875D01*
Y149950D01*
X-102900D01*
Y149975D01*
X-102925D01*
Y150000D01*
X-102950D01*
Y150025D01*
X-102975D01*
Y150050D01*
X-103000D01*
Y150075D01*
X-103025D01*
Y150100D01*
X-103050D01*
Y150125D01*
X-103075D01*
Y150150D01*
X-103100D01*
Y150175D01*
X-103125D01*
Y150225D01*
X-103150D01*
Y150250D01*
X-103175D01*
Y150275D01*
X-103200D01*
Y150300D01*
X-103225D01*
Y150325D01*
X-103250D01*
Y150350D01*
X-103275D01*
Y150375D01*
X-103300D01*
Y150400D01*
X-103325D01*
Y150425D01*
X-103350D01*
Y150450D01*
X-103375D01*
Y150475D01*
X-103400D01*
Y150500D01*
X-103425D01*
Y150525D01*
X-103450D01*
Y150550D01*
X-103475D01*
Y150575D01*
X-103500D01*
Y150600D01*
X-103525D01*
Y150625D01*
X-103550D01*
Y150650D01*
X-103575D01*
Y150675D01*
X-103600D01*
Y150700D01*
X-103625D01*
Y150750D01*
X-103650D01*
Y150775D01*
X-103675D01*
Y150800D01*
X-103700D01*
Y150825D01*
X-103725D01*
Y150850D01*
X-103750D01*
Y150875D01*
X-103775D01*
Y150900D01*
X-103800D01*
Y150925D01*
X-103825D01*
Y150950D01*
X-103850D01*
Y150975D01*
X-103875D01*
Y151000D01*
X-103900D01*
Y151025D01*
X-103925D01*
Y151050D01*
X-103950D01*
Y151075D01*
X-103975D01*
Y151100D01*
X-104000D01*
Y151125D01*
X-104025D01*
Y151150D01*
X-104050D01*
Y151175D01*
X-104075D01*
Y151200D01*
X-104100D01*
Y151225D01*
X-104125D01*
Y151250D01*
X-104150D01*
Y151300D01*
X-104175D01*
Y151325D01*
X-104200D01*
Y151350D01*
X-104225D01*
Y151375D01*
X-104250D01*
Y151400D01*
X-104275D01*
Y151425D01*
X-104300D01*
Y151450D01*
X-104325D01*
Y151475D01*
X-104350D01*
Y151500D01*
X-104375D01*
Y151525D01*
X-104400D01*
Y151550D01*
X-104425D01*
Y151575D01*
X-104450D01*
Y151600D01*
X-104475D01*
Y151625D01*
X-104500D01*
Y151650D01*
X-104525D01*
Y151675D01*
X-104550D01*
Y151700D01*
X-104575D01*
Y151725D01*
X-104600D01*
Y151775D01*
X-104625D01*
Y151800D01*
X-104650D01*
Y151825D01*
X-104675D01*
Y151850D01*
X-104700D01*
Y151875D01*
X-104725D01*
Y151900D01*
X-104750D01*
Y151925D01*
X-104775D01*
Y151950D01*
X-104800D01*
Y151975D01*
X-104825D01*
Y152000D01*
X-104850D01*
Y152025D01*
X-104875D01*
Y152050D01*
X-104900D01*
Y152075D01*
X-104925D01*
Y152100D01*
X-104950D01*
Y152125D01*
X-104975D01*
Y152150D01*
X-105000D01*
Y152175D01*
X-105075D01*
Y152200D01*
X-105225D01*
Y152175D01*
X-105250D01*
Y152150D01*
X-105300D01*
Y152125D01*
X-105325D01*
Y152100D01*
X-105350D01*
Y152075D01*
X-105375D01*
Y152025D01*
X-105400D01*
Y152000D01*
X-105425D01*
Y151950D01*
X-105450D01*
Y151900D01*
X-105475D01*
Y151825D01*
X-105500D01*
Y151750D01*
X-105525D01*
Y151625D01*
X-105550D01*
Y148000D01*
X-105575D01*
Y147900D01*
X-105600D01*
Y147825D01*
X-105625D01*
Y147775D01*
X-105650D01*
Y147725D01*
X-105675D01*
Y147700D01*
X-105700D01*
Y147650D01*
X-105725D01*
Y147625D01*
X-105750D01*
Y147600D01*
X-105775D01*
Y147550D01*
X-105800D01*
Y147525D01*
X-105825D01*
Y147500D01*
X-105875D01*
Y147475D01*
X-105900D01*
Y147450D01*
X-105925D01*
Y147425D01*
X-105975D01*
Y147400D01*
X-106000D01*
Y147375D01*
X-106050D01*
Y147350D01*
X-106100D01*
Y147325D01*
X-106175D01*
Y147300D01*
X-106275D01*
Y147275D01*
X-106450D01*
Y147250D01*
X-110325D01*
Y147275D01*
X-110500D01*
Y147300D01*
X-110575D01*
Y147325D01*
X-110650D01*
Y147350D01*
X-110700D01*
Y147375D01*
X-110750D01*
Y147400D01*
X-110800D01*
Y147425D01*
X-110825D01*
Y147450D01*
X-110850D01*
Y147475D01*
X-110875D01*
Y147500D01*
X-110900D01*
Y147525D01*
X-110925D01*
Y147550D01*
X-110950D01*
Y147575D01*
X-110975D01*
Y147600D01*
X-111000D01*
Y147625D01*
X-111025D01*
Y147650D01*
X-111050D01*
Y147700D01*
X-111075D01*
Y147750D01*
X-111100D01*
Y147800D01*
X-111125D01*
Y147850D01*
X-111150D01*
Y147950D01*
X-111175D01*
Y148075D01*
X-111200D01*
Y158425D01*
X-111175D01*
Y158575D01*
X-111150D01*
Y158650D01*
X-111125D01*
Y158725D01*
X-111100D01*
Y158775D01*
X-111075D01*
Y158800D01*
X-111050D01*
Y158850D01*
X-111025D01*
Y158875D01*
X-111000D01*
Y158925D01*
X-110975D01*
Y158950D01*
X-110950D01*
Y158975D01*
X-110925D01*
Y159000D01*
X-110900D01*
Y159025D01*
X-110875D01*
Y159050D01*
X-110825D01*
Y159075D01*
X-110800D01*
Y159100D01*
X-110750D01*
Y159125D01*
X-110700D01*
Y159150D01*
X-110650D01*
Y159175D01*
X-110600D01*
Y159200D01*
X-110525D01*
Y159225D01*
X-110425D01*
Y159250D01*
X-105725D01*
Y159225D01*
X-105650D01*
Y159200D01*
X-105575D01*
Y159175D01*
X-105525D01*
Y159150D01*
X-105475D01*
Y159125D01*
X-105425D01*
Y159100D01*
X-105400D01*
Y159075D01*
X-105350D01*
Y159050D01*
X-105325D01*
Y159025D01*
X-105300D01*
Y159000D01*
X-105275D01*
Y158975D01*
X-105250D01*
Y158950D01*
X-105225D01*
Y158925D01*
X-105200D01*
Y158900D01*
X-105175D01*
Y158875D01*
X-105150D01*
Y158850D01*
X-105125D01*
Y158825D01*
X-105100D01*
Y158800D01*
X-105075D01*
Y158775D01*
X-105050D01*
Y158750D01*
X-105025D01*
Y158725D01*
X-105000D01*
Y158700D01*
X-104975D01*
Y158675D01*
X-104950D01*
Y158650D01*
X-104925D01*
Y158625D01*
X-104900D01*
Y158600D01*
X-104875D01*
Y158575D01*
X-104850D01*
Y158550D01*
X-104825D01*
Y158500D01*
X-104800D01*
Y158475D01*
X-104775D01*
Y158450D01*
X-104750D01*
Y158425D01*
X-104725D01*
Y158400D01*
X-104700D01*
Y158375D01*
X-104675D01*
Y158350D01*
X-104650D01*
Y158325D01*
X-104625D01*
Y158300D01*
X-104600D01*
Y158275D01*
X-104575D01*
Y158250D01*
X-104550D01*
Y158225D01*
X-104525D01*
Y158200D01*
X-104500D01*
Y158175D01*
X-104475D01*
Y158150D01*
X-104450D01*
Y158125D01*
X-104425D01*
Y158100D01*
X-104400D01*
Y158075D01*
X-104375D01*
Y158025D01*
X-104350D01*
Y158000D01*
X-104325D01*
Y157975D01*
X-104300D01*
Y157950D01*
X-104275D01*
Y157925D01*
X-104250D01*
Y157900D01*
X-104225D01*
Y157875D01*
X-104200D01*
Y157850D01*
X-104175D01*
Y157825D01*
X-104150D01*
Y157800D01*
X-104125D01*
Y157775D01*
X-104100D01*
Y157750D01*
X-104075D01*
Y157725D01*
X-104050D01*
Y157700D01*
X-104025D01*
Y157675D01*
X-104000D01*
Y157650D01*
X-103975D01*
Y157625D01*
X-103950D01*
Y157600D01*
X-103925D01*
Y157575D01*
X-103900D01*
Y157525D01*
X-103875D01*
Y157500D01*
X-103850D01*
Y157475D01*
X-103825D01*
Y157450D01*
X-103800D01*
Y157425D01*
X-103775D01*
Y157400D01*
X-103750D01*
Y157375D01*
X-103725D01*
Y157350D01*
X-103700D01*
Y157325D01*
X-103675D01*
Y157300D01*
X-103650D01*
Y157275D01*
X-103625D01*
Y157250D01*
X-103600D01*
Y157225D01*
X-103575D01*
Y157200D01*
X-103550D01*
Y157175D01*
X-103525D01*
Y157150D01*
X-103500D01*
Y157125D01*
X-103475D01*
Y157100D01*
X-103450D01*
Y157075D01*
X-103425D01*
Y157050D01*
X-103400D01*
Y157025D01*
X-103375D01*
Y156975D01*
X-103350D01*
Y156950D01*
X-103325D01*
Y156925D01*
X-103300D01*
Y156900D01*
X-103275D01*
Y156875D01*
X-103250D01*
Y156850D01*
X-103225D01*
Y156825D01*
X-103200D01*
Y156800D01*
X-103175D01*
Y156775D01*
X-103150D01*
Y156750D01*
X-103125D01*
Y156725D01*
X-103100D01*
Y156700D01*
X-103075D01*
Y156675D01*
X-103050D01*
Y156650D01*
X-103025D01*
Y156625D01*
X-103000D01*
Y156600D01*
X-102975D01*
Y156575D01*
X-102950D01*
Y156550D01*
X-102925D01*
Y156525D01*
X-102900D01*
Y156475D01*
X-102875D01*
Y156450D01*
X-102850D01*
Y156425D01*
X-102825D01*
Y156400D01*
X-102800D01*
Y156375D01*
X-102775D01*
Y156350D01*
X-102750D01*
Y156325D01*
X-102725D01*
Y156300D01*
X-102700D01*
Y156275D01*
X-102675D01*
Y156250D01*
X-102650D01*
Y156225D01*
X-102625D01*
Y156200D01*
X-102600D01*
Y156175D01*
X-102575D01*
Y156150D01*
X-102550D01*
Y156125D01*
X-102525D01*
Y156100D01*
X-102500D01*
Y156075D01*
X-102475D01*
Y156050D01*
X-102450D01*
Y156025D01*
X-102425D01*
Y155975D01*
X-102400D01*
Y155950D01*
X-102375D01*
Y155925D01*
X-102350D01*
Y155900D01*
X-102325D01*
Y155875D01*
X-102300D01*
Y155850D01*
X-102275D01*
Y155825D01*
X-102250D01*
Y155800D01*
X-102225D01*
Y155775D01*
X-102200D01*
Y155750D01*
X-102175D01*
Y155725D01*
X-102150D01*
Y155700D01*
X-102125D01*
Y155675D01*
X-102100D01*
Y155650D01*
X-102075D01*
Y155625D01*
X-102050D01*
Y155600D01*
X-102025D01*
Y155575D01*
X-102000D01*
Y155550D01*
X-101975D01*
Y155525D01*
X-101950D01*
Y155475D01*
X-101925D01*
Y155450D01*
X-101900D01*
Y155425D01*
X-101875D01*
Y155400D01*
X-101850D01*
Y155375D01*
X-101825D01*
Y155350D01*
X-101800D01*
Y155325D01*
X-101775D01*
Y155300D01*
X-101750D01*
Y155275D01*
X-101725D01*
Y155250D01*
X-101700D01*
Y155225D01*
X-101675D01*
Y155200D01*
X-101650D01*
Y155175D01*
X-101625D01*
Y155150D01*
X-101600D01*
Y155125D01*
X-101575D01*
Y155100D01*
X-101550D01*
Y155075D01*
X-101525D01*
Y155050D01*
X-101500D01*
Y155025D01*
X-101475D01*
Y155000D01*
X-101450D01*
Y154950D01*
X-101425D01*
Y154925D01*
X-101400D01*
Y154900D01*
X-101375D01*
Y154875D01*
X-101350D01*
Y154850D01*
X-101325D01*
Y154825D01*
X-101300D01*
Y154800D01*
X-101275D01*
Y154775D01*
X-101250D01*
Y154750D01*
X-101225D01*
Y154725D01*
X-101200D01*
Y154700D01*
X-101175D01*
Y154675D01*
X-101150D01*
Y154650D01*
X-101125D01*
Y154625D01*
X-101100D01*
Y154600D01*
X-101075D01*
Y154575D01*
X-101050D01*
Y154550D01*
X-101025D01*
Y154525D01*
X-101000D01*
Y154475D01*
X-100975D01*
Y154450D01*
X-100950D01*
Y154425D01*
X-100925D01*
Y154400D01*
X-100900D01*
Y154375D01*
X-100875D01*
Y154350D01*
X-100850D01*
Y154325D01*
X-100825D01*
Y154300D01*
X-100800D01*
Y154275D01*
X-100775D01*
Y154250D01*
X-100750D01*
Y154225D01*
X-100725D01*
Y154200D01*
X-100700D01*
Y154175D01*
X-100675D01*
Y154150D01*
X-100650D01*
Y154125D01*
X-100625D01*
Y154100D01*
X-100600D01*
Y154075D01*
X-100575D01*
Y154050D01*
X-100550D01*
Y154025D01*
X-100525D01*
Y153975D01*
X-100500D01*
Y153950D01*
X-100475D01*
Y153925D01*
X-100450D01*
Y153900D01*
X-100425D01*
Y153875D01*
X-100400D01*
Y153850D01*
X-100375D01*
Y153825D01*
X-100350D01*
Y153800D01*
X-100325D01*
Y153775D01*
X-100300D01*
Y153750D01*
X-100275D01*
Y153725D01*
X-100250D01*
Y153700D01*
X-100225D01*
Y153675D01*
X-100200D01*
Y153650D01*
X-100175D01*
Y153625D01*
X-100150D01*
Y153600D01*
X-100125D01*
Y153575D01*
X-100075D01*
Y153550D01*
X-100025D01*
Y153525D01*
X-99925D01*
Y153550D01*
X-99875D01*
Y153575D01*
X-99825D01*
Y153600D01*
X-99800D01*
Y153625D01*
X-99775D01*
Y153650D01*
X-99750D01*
Y153675D01*
X-99725D01*
Y153700D01*
X-99700D01*
Y153725D01*
X-99675D01*
Y153750D01*
X-99650D01*
Y153775D01*
X-99625D01*
Y153800D01*
X-99600D01*
Y153825D01*
X-99575D01*
Y153875D01*
X-99550D01*
Y153900D01*
X-99525D01*
Y153925D01*
X-99500D01*
Y153950D01*
X-99475D01*
Y153975D01*
X-99450D01*
Y154000D01*
X-99425D01*
Y154025D01*
X-99400D01*
Y154050D01*
X-99375D01*
Y154075D01*
X-99350D01*
Y154100D01*
X-99325D01*
Y154125D01*
X-99300D01*
Y154150D01*
X-99275D01*
Y154175D01*
X-99250D01*
Y154200D01*
X-99225D01*
Y154225D01*
X-99200D01*
Y154250D01*
X-99175D01*
Y154275D01*
X-99150D01*
Y154300D01*
X-99125D01*
Y154325D01*
X-99100D01*
Y154350D01*
X-99075D01*
Y154375D01*
X-99050D01*
Y154425D01*
X-99025D01*
Y154450D01*
X-99000D01*
Y154475D01*
X-98975D01*
Y154500D01*
X-98950D01*
Y154525D01*
X-98925D01*
Y154550D01*
X-98900D01*
Y154575D01*
X-98875D01*
Y154600D01*
X-98850D01*
Y154625D01*
X-98825D01*
Y154650D01*
X-98800D01*
Y154675D01*
X-98775D01*
Y154700D01*
X-98750D01*
Y154725D01*
X-98725D01*
Y154750D01*
X-98700D01*
Y154775D01*
X-98675D01*
Y154800D01*
X-98650D01*
Y154825D01*
X-98625D01*
Y154850D01*
X-98600D01*
Y154875D01*
X-98575D01*
Y154925D01*
X-98550D01*
Y154950D01*
X-98525D01*
Y154975D01*
X-98500D01*
Y155000D01*
X-98475D01*
Y155025D01*
X-98450D01*
Y155050D01*
X-98425D01*
Y155075D01*
X-98400D01*
Y155100D01*
X-98375D01*
Y155125D01*
X-98350D01*
Y155150D01*
X-98325D01*
Y155175D01*
X-98300D01*
Y155200D01*
X-98275D01*
Y155225D01*
X-98250D01*
Y155250D01*
X-98225D01*
Y155275D01*
X-98200D01*
Y155300D01*
X-98175D01*
Y155325D01*
X-98150D01*
Y155350D01*
X-98125D01*
Y155375D01*
X-98100D01*
Y155425D01*
X-98075D01*
Y155450D01*
X-98050D01*
Y155475D01*
X-98025D01*
Y155500D01*
X-98000D01*
Y155525D01*
X-97975D01*
Y155550D01*
X-97950D01*
Y155575D01*
X-97925D01*
Y155600D01*
X-97900D01*
Y155625D01*
X-97875D01*
Y155650D01*
X-97850D01*
Y155675D01*
X-97825D01*
Y155700D01*
X-97800D01*
Y155725D01*
X-97775D01*
Y155750D01*
X-97750D01*
Y155775D01*
X-97725D01*
Y155800D01*
X-97700D01*
Y155825D01*
X-97675D01*
Y155850D01*
X-97650D01*
Y155875D01*
X-97625D01*
Y155925D01*
X-97600D01*
Y155950D01*
X-97575D01*
Y155975D01*
X-97550D01*
Y156000D01*
X-97525D01*
Y156025D01*
X-97500D01*
Y156050D01*
X-97475D01*
Y156075D01*
X-97450D01*
Y156100D01*
X-97425D01*
Y156125D01*
X-97400D01*
Y156150D01*
X-97375D01*
Y156175D01*
X-97350D01*
Y156200D01*
X-97325D01*
Y156225D01*
X-97300D01*
Y156250D01*
X-97275D01*
Y156275D01*
X-97250D01*
Y156300D01*
X-97225D01*
Y156325D01*
X-97200D01*
Y156350D01*
X-97175D01*
Y156375D01*
X-97150D01*
Y156425D01*
X-97125D01*
Y156450D01*
X-97100D01*
Y156475D01*
X-97075D01*
Y156500D01*
X-97050D01*
Y156525D01*
X-97025D01*
Y156550D01*
X-97000D01*
Y156575D01*
X-96975D01*
Y156600D01*
X-96950D01*
Y156625D01*
X-96925D01*
Y156650D01*
X-96900D01*
Y156675D01*
X-96875D01*
Y156700D01*
X-96850D01*
Y156725D01*
X-96825D01*
Y156750D01*
X-96800D01*
Y156775D01*
X-96775D01*
Y156800D01*
X-96750D01*
Y156825D01*
X-96725D01*
Y156850D01*
X-96700D01*
Y156875D01*
X-96675D01*
Y156925D01*
X-96650D01*
Y156950D01*
X-96625D01*
Y156975D01*
X-96600D01*
Y157000D01*
X-96575D01*
Y157025D01*
X-96550D01*
Y157050D01*
X-96525D01*
Y157075D01*
X-96500D01*
Y157100D01*
X-96475D01*
Y157125D01*
X-96450D01*
Y157150D01*
X-96425D01*
Y157175D01*
X-96400D01*
Y157200D01*
X-96375D01*
Y157225D01*
X-96350D01*
Y157250D01*
X-96325D01*
Y157275D01*
X-96300D01*
Y157300D01*
X-96275D01*
Y157325D01*
X-96250D01*
Y157350D01*
X-96225D01*
Y157375D01*
X-96200D01*
Y157425D01*
X-96175D01*
Y157450D01*
X-96150D01*
Y157475D01*
X-96125D01*
Y157500D01*
X-96100D01*
Y157525D01*
X-96075D01*
Y157550D01*
X-96050D01*
Y157575D01*
X-96025D01*
Y157600D01*
X-96000D01*
Y157625D01*
X-95975D01*
Y157650D01*
X-95950D01*
Y157675D01*
X-95925D01*
Y157700D01*
X-95900D01*
Y157725D01*
X-95875D01*
Y157750D01*
X-95850D01*
Y157775D01*
X-95825D01*
Y157800D01*
X-95800D01*
Y157825D01*
X-95775D01*
Y157850D01*
X-95750D01*
Y157875D01*
X-95725D01*
Y157900D01*
X-95700D01*
Y157925D01*
X-95675D01*
Y157975D01*
X-95650D01*
Y158000D01*
X-95625D01*
Y158025D01*
X-95600D01*
Y158050D01*
X-95575D01*
Y158075D01*
X-95550D01*
Y158100D01*
X-95525D01*
Y158125D01*
X-95500D01*
Y158150D01*
X-95475D01*
Y158175D01*
X-95450D01*
Y158200D01*
X-95425D01*
Y158225D01*
X-95400D01*
Y158250D01*
X-95375D01*
Y158275D01*
X-95350D01*
Y158300D01*
X-95325D01*
Y158325D01*
X-95300D01*
Y158350D01*
X-95275D01*
Y158375D01*
X-95250D01*
Y158400D01*
X-95225D01*
Y158425D01*
X-95200D01*
Y158475D01*
X-95175D01*
Y158500D01*
X-95150D01*
Y158525D01*
X-95125D01*
Y158550D01*
X-95100D01*
Y158575D01*
X-95075D01*
Y158600D01*
X-95050D01*
Y158625D01*
X-95025D01*
Y158650D01*
X-95000D01*
Y158675D01*
X-94975D01*
Y158700D01*
X-94950D01*
Y158725D01*
X-94925D01*
Y158750D01*
X-94900D01*
Y158775D01*
X-94875D01*
Y158800D01*
X-94850D01*
Y158825D01*
X-94825D01*
Y158850D01*
X-94800D01*
Y158875D01*
X-94775D01*
Y158900D01*
X-94750D01*
Y158950D01*
X-94725D01*
Y158975D01*
X-94700D01*
Y159000D01*
X-94675D01*
Y159025D01*
X-94625D01*
Y159050D01*
X-94600D01*
Y159075D01*
X-94575D01*
Y159100D01*
X-94525D01*
Y159125D01*
X-94475D01*
Y159150D01*
X-94450D01*
Y159175D01*
X-94375D01*
Y159200D01*
X-94325D01*
Y159225D01*
X-94225D01*
Y159250D01*
X-89525D01*
Y159225D01*
D02*
G37*
G36*
X-89625Y145875D02*
X-89450D01*
Y145850D01*
X-89375D01*
Y145825D01*
X-89300D01*
Y145800D01*
X-89250D01*
Y145775D01*
X-89200D01*
Y145750D01*
X-89175D01*
Y145725D01*
X-89125D01*
Y145700D01*
X-89100D01*
Y145675D01*
X-89075D01*
Y145650D01*
X-89050D01*
Y145625D01*
X-89025D01*
Y145600D01*
X-89000D01*
Y145575D01*
X-88975D01*
Y145550D01*
X-88950D01*
Y145525D01*
X-88925D01*
Y145475D01*
X-88900D01*
Y145450D01*
X-88875D01*
Y145400D01*
X-88850D01*
Y145350D01*
X-88825D01*
Y145275D01*
X-88800D01*
Y145200D01*
X-88775D01*
Y145025D01*
X-88750D01*
Y137700D01*
X-88775D01*
Y137550D01*
X-88800D01*
Y137450D01*
X-88825D01*
Y137400D01*
X-88850D01*
Y137325D01*
X-88875D01*
Y137300D01*
X-88900D01*
Y137250D01*
X-88925D01*
Y137225D01*
X-88950D01*
Y137175D01*
X-88975D01*
Y137150D01*
X-89000D01*
Y137125D01*
X-89025D01*
Y137100D01*
X-89050D01*
Y137075D01*
X-89075D01*
Y137050D01*
X-89100D01*
Y137025D01*
X-89150D01*
Y137000D01*
X-89175D01*
Y136975D01*
X-89225D01*
Y136950D01*
X-89275D01*
Y136925D01*
X-89325D01*
Y136900D01*
X-89400D01*
Y136875D01*
X-89475D01*
Y136850D01*
X-90350D01*
Y136825D01*
X-94800D01*
Y136850D01*
X-97875D01*
Y136875D01*
X-97975D01*
Y136900D01*
X-98025D01*
Y136925D01*
X-98075D01*
Y136950D01*
X-98125D01*
Y136975D01*
X-98175D01*
Y137000D01*
X-98200D01*
Y137025D01*
X-98250D01*
Y137050D01*
X-98275D01*
Y137075D01*
X-98300D01*
Y137100D01*
X-98325D01*
Y137125D01*
X-98350D01*
Y137150D01*
X-98375D01*
Y137175D01*
X-98400D01*
Y137200D01*
X-98425D01*
Y137250D01*
X-98450D01*
Y137275D01*
X-98475D01*
Y137325D01*
X-98500D01*
Y137375D01*
X-98525D01*
Y137425D01*
X-98550D01*
Y137525D01*
X-98575D01*
Y137650D01*
X-98600D01*
Y141525D01*
X-98575D01*
Y141675D01*
X-98550D01*
Y141775D01*
X-98525D01*
Y141825D01*
X-98500D01*
Y141875D01*
X-98475D01*
Y141925D01*
X-98450D01*
Y141975D01*
X-98425D01*
Y142000D01*
X-98400D01*
Y142025D01*
X-98375D01*
Y142075D01*
X-98350D01*
Y142100D01*
X-98325D01*
Y142125D01*
X-98300D01*
Y142150D01*
X-98275D01*
Y142175D01*
X-98250D01*
Y142200D01*
X-98225D01*
Y142225D01*
X-98175D01*
Y142250D01*
X-98150D01*
Y142275D01*
X-98125D01*
Y142300D01*
X-98100D01*
Y142325D01*
X-98075D01*
Y142350D01*
X-98050D01*
Y142375D01*
X-98000D01*
Y142400D01*
X-97975D01*
Y142425D01*
X-97950D01*
Y142450D01*
X-97925D01*
Y142475D01*
X-97900D01*
Y142500D01*
X-97850D01*
Y142525D01*
X-97825D01*
Y142550D01*
X-97800D01*
Y142575D01*
X-97775D01*
Y142600D01*
X-97750D01*
Y142625D01*
X-97700D01*
Y142650D01*
X-97675D01*
Y142675D01*
X-97650D01*
Y142700D01*
X-97625D01*
Y142725D01*
X-97600D01*
Y142750D01*
X-97550D01*
Y142775D01*
X-97525D01*
Y142800D01*
X-97500D01*
Y142825D01*
X-97475D01*
Y142850D01*
X-97450D01*
Y142875D01*
X-97400D01*
Y142900D01*
X-97375D01*
Y142925D01*
X-97350D01*
Y142950D01*
X-97325D01*
Y142975D01*
X-97300D01*
Y143000D01*
X-97275D01*
Y143025D01*
X-97225D01*
Y143050D01*
X-97200D01*
Y143075D01*
X-97175D01*
Y143100D01*
X-97150D01*
Y143125D01*
X-97125D01*
Y143150D01*
X-97075D01*
Y143175D01*
X-97050D01*
Y143200D01*
X-97025D01*
Y143225D01*
X-97000D01*
Y143250D01*
X-96975D01*
Y143275D01*
X-96925D01*
Y143300D01*
X-96900D01*
Y143325D01*
X-96875D01*
Y143350D01*
X-96850D01*
Y143375D01*
X-96825D01*
Y143400D01*
X-96775D01*
Y143425D01*
X-96750D01*
Y143450D01*
X-96725D01*
Y143475D01*
X-96700D01*
Y143500D01*
X-96675D01*
Y143525D01*
X-96625D01*
Y143550D01*
X-96600D01*
Y143575D01*
X-96575D01*
Y143600D01*
X-96550D01*
Y143625D01*
X-96525D01*
Y143650D01*
X-96475D01*
Y143675D01*
X-96450D01*
Y143700D01*
X-96425D01*
Y143725D01*
X-96400D01*
Y143750D01*
X-96375D01*
Y143775D01*
X-96325D01*
Y143800D01*
X-96300D01*
Y143825D01*
X-96275D01*
Y143850D01*
X-96250D01*
Y143875D01*
X-96225D01*
Y143900D01*
X-96200D01*
Y143925D01*
X-96150D01*
Y143950D01*
X-96125D01*
Y143975D01*
X-96100D01*
Y144000D01*
X-96075D01*
Y144025D01*
X-96050D01*
Y144050D01*
X-96000D01*
Y144075D01*
X-95975D01*
Y144100D01*
X-95950D01*
Y144125D01*
X-95925D01*
Y144150D01*
X-95900D01*
Y144175D01*
X-95850D01*
Y144200D01*
X-95825D01*
Y144225D01*
X-95800D01*
Y144250D01*
X-95775D01*
Y144275D01*
X-95750D01*
Y144300D01*
X-95700D01*
Y144325D01*
X-95675D01*
Y144350D01*
X-95650D01*
Y144375D01*
X-95625D01*
Y144400D01*
X-95600D01*
Y144425D01*
X-95550D01*
Y144450D01*
X-95525D01*
Y144475D01*
X-95500D01*
Y144500D01*
X-95475D01*
Y144525D01*
X-95450D01*
Y144550D01*
X-95400D01*
Y144575D01*
X-95375D01*
Y144600D01*
X-95350D01*
Y144625D01*
X-95325D01*
Y144650D01*
X-95300D01*
Y144675D01*
X-95250D01*
Y144700D01*
X-95225D01*
Y144725D01*
X-95200D01*
Y144750D01*
X-95175D01*
Y144775D01*
X-95150D01*
Y144800D01*
X-95125D01*
Y144825D01*
X-95075D01*
Y144850D01*
X-95050D01*
Y144875D01*
X-95025D01*
Y144900D01*
X-95000D01*
Y144925D01*
X-94975D01*
Y144950D01*
X-94925D01*
Y144975D01*
X-94900D01*
Y145000D01*
X-94875D01*
Y145025D01*
X-94850D01*
Y145050D01*
X-94825D01*
Y145075D01*
X-94775D01*
Y145100D01*
X-94750D01*
Y145125D01*
X-94725D01*
Y145150D01*
X-94700D01*
Y145175D01*
X-94675D01*
Y145200D01*
X-94625D01*
Y145225D01*
X-94600D01*
Y145250D01*
X-94575D01*
Y145275D01*
X-94550D01*
Y145300D01*
X-94525D01*
Y145325D01*
X-94475D01*
Y145350D01*
X-94450D01*
Y145375D01*
X-94425D01*
Y145400D01*
X-94400D01*
Y145425D01*
X-94375D01*
Y145450D01*
X-94325D01*
Y145475D01*
X-94300D01*
Y145500D01*
X-94275D01*
Y145525D01*
X-94250D01*
Y145550D01*
X-94225D01*
Y145575D01*
X-94175D01*
Y145600D01*
X-94150D01*
Y145625D01*
X-94125D01*
Y145650D01*
X-94100D01*
Y145675D01*
X-94050D01*
Y145700D01*
X-94025D01*
Y145725D01*
X-94000D01*
Y145750D01*
X-93950D01*
Y145775D01*
X-93900D01*
Y145800D01*
X-93850D01*
Y145825D01*
X-93775D01*
Y145850D01*
X-93675D01*
Y145875D01*
X-93500D01*
Y145900D01*
X-89625D01*
Y145875D01*
D02*
G37*
G36*
X-106450D02*
X-106275D01*
Y145850D01*
X-106175D01*
Y145825D01*
X-106100D01*
Y145800D01*
X-106050D01*
Y145775D01*
X-106000D01*
Y145750D01*
X-105950D01*
Y145725D01*
X-105925D01*
Y145700D01*
X-105875D01*
Y145675D01*
X-105825D01*
Y145650D01*
X-105800D01*
Y145625D01*
X-105775D01*
Y145600D01*
X-105725D01*
Y145575D01*
X-105700D01*
Y145550D01*
X-105675D01*
Y145525D01*
X-105650D01*
Y145500D01*
X-105600D01*
Y145475D01*
X-105575D01*
Y145450D01*
X-105550D01*
Y145425D01*
X-105525D01*
Y145400D01*
X-105500D01*
Y145375D01*
X-105475D01*
Y145350D01*
X-105425D01*
Y145325D01*
X-105400D01*
Y145300D01*
X-105375D01*
Y145275D01*
X-105350D01*
Y145250D01*
X-105325D01*
Y145225D01*
X-105275D01*
Y145200D01*
X-105250D01*
Y145175D01*
X-105225D01*
Y145150D01*
X-105200D01*
Y145125D01*
X-105175D01*
Y145100D01*
X-105125D01*
Y145075D01*
X-105100D01*
Y145050D01*
X-105075D01*
Y145025D01*
X-105050D01*
Y145000D01*
X-105025D01*
Y144975D01*
X-104975D01*
Y144950D01*
X-104950D01*
Y144925D01*
X-104925D01*
Y144900D01*
X-104900D01*
Y144875D01*
X-104875D01*
Y144850D01*
X-104825D01*
Y144825D01*
X-104800D01*
Y144800D01*
X-104775D01*
Y144775D01*
X-104750D01*
Y144750D01*
X-104725D01*
Y144725D01*
X-104700D01*
Y144700D01*
X-104650D01*
Y144675D01*
X-104625D01*
Y144650D01*
X-104600D01*
Y144625D01*
X-104575D01*
Y144600D01*
X-104525D01*
Y144575D01*
X-104500D01*
Y144550D01*
X-104475D01*
Y144525D01*
X-104450D01*
Y144500D01*
X-104425D01*
Y144475D01*
X-104400D01*
Y144450D01*
X-104350D01*
Y144425D01*
X-104325D01*
Y144400D01*
X-104300D01*
Y144375D01*
X-104275D01*
Y144350D01*
X-104250D01*
Y144325D01*
X-104200D01*
Y144300D01*
X-104175D01*
Y144275D01*
X-104150D01*
Y144250D01*
X-104125D01*
Y144225D01*
X-104100D01*
Y144200D01*
X-104050D01*
Y144175D01*
X-104025D01*
Y144150D01*
X-104000D01*
Y144125D01*
X-103975D01*
Y144100D01*
X-103950D01*
Y144075D01*
X-103900D01*
Y144050D01*
X-103875D01*
Y144025D01*
X-103850D01*
Y144000D01*
X-103825D01*
Y143975D01*
X-103800D01*
Y143950D01*
X-103750D01*
Y143925D01*
X-103725D01*
Y143900D01*
X-103700D01*
Y143875D01*
X-103675D01*
Y143850D01*
X-103650D01*
Y143825D01*
X-103625D01*
Y143800D01*
X-103575D01*
Y143775D01*
X-103550D01*
Y143750D01*
X-103525D01*
Y143725D01*
X-103500D01*
Y143700D01*
X-103475D01*
Y143675D01*
X-103425D01*
Y143650D01*
X-103400D01*
Y143625D01*
X-103375D01*
Y143600D01*
X-103350D01*
Y143575D01*
X-103325D01*
Y143550D01*
X-103275D01*
Y143525D01*
X-103250D01*
Y143500D01*
X-103225D01*
Y143475D01*
X-103200D01*
Y143450D01*
X-103175D01*
Y143425D01*
X-103125D01*
Y143400D01*
X-103100D01*
Y143375D01*
X-103075D01*
Y143350D01*
X-103050D01*
Y143325D01*
X-103025D01*
Y143300D01*
X-102975D01*
Y143275D01*
X-102950D01*
Y143250D01*
X-102925D01*
Y143225D01*
X-102900D01*
Y143200D01*
X-102875D01*
Y143175D01*
X-102825D01*
Y143150D01*
X-102800D01*
Y143125D01*
X-102775D01*
Y143100D01*
X-102750D01*
Y143075D01*
X-102725D01*
Y143050D01*
X-102675D01*
Y143025D01*
X-102650D01*
Y143000D01*
X-102625D01*
Y142975D01*
X-102600D01*
Y142950D01*
X-102575D01*
Y142925D01*
X-102550D01*
Y142900D01*
X-102500D01*
Y142875D01*
X-102475D01*
Y142850D01*
X-102450D01*
Y142825D01*
X-102425D01*
Y142800D01*
X-102375D01*
Y142775D01*
X-102350D01*
Y142750D01*
X-102325D01*
Y142725D01*
X-102300D01*
Y142700D01*
X-102275D01*
Y142675D01*
X-102250D01*
Y142650D01*
X-102200D01*
Y142625D01*
X-102175D01*
Y142600D01*
X-102150D01*
Y142575D01*
X-102125D01*
Y142550D01*
X-102100D01*
Y142525D01*
X-102050D01*
Y142500D01*
X-102025D01*
Y142475D01*
X-102000D01*
Y142450D01*
X-101975D01*
Y142425D01*
X-101950D01*
Y142400D01*
X-101900D01*
Y142375D01*
X-101875D01*
Y142350D01*
X-101850D01*
Y142325D01*
X-101825D01*
Y142300D01*
X-101800D01*
Y142275D01*
X-101775D01*
Y142250D01*
X-101750D01*
Y142225D01*
X-101725D01*
Y142200D01*
X-101700D01*
Y142175D01*
X-101675D01*
Y142150D01*
X-101650D01*
Y142125D01*
X-101600D01*
Y142075D01*
X-101575D01*
Y142050D01*
X-101550D01*
Y142025D01*
X-101525D01*
Y142000D01*
X-101500D01*
Y141950D01*
X-101475D01*
Y141925D01*
X-101450D01*
Y141875D01*
X-101425D01*
Y141800D01*
X-101400D01*
Y141750D01*
X-101375D01*
Y141650D01*
X-101350D01*
Y137550D01*
X-101375D01*
Y137450D01*
X-101400D01*
Y137400D01*
X-101425D01*
Y137350D01*
X-101450D01*
Y137300D01*
X-101475D01*
Y137250D01*
X-101500D01*
Y137225D01*
X-101525D01*
Y137175D01*
X-101550D01*
Y137150D01*
X-101575D01*
Y137125D01*
X-101600D01*
Y137100D01*
X-101625D01*
Y137075D01*
X-101650D01*
Y137050D01*
X-101675D01*
Y137025D01*
X-101725D01*
Y137000D01*
X-101750D01*
Y136975D01*
X-101800D01*
Y136950D01*
X-101850D01*
Y136925D01*
X-101900D01*
Y136900D01*
X-101975D01*
Y136875D01*
X-102050D01*
Y136850D01*
X-105150D01*
Y136825D01*
X-109575D01*
Y136850D01*
X-110475D01*
Y136875D01*
X-110575D01*
Y136900D01*
X-110625D01*
Y136925D01*
X-110675D01*
Y136950D01*
X-110725D01*
Y136975D01*
X-110775D01*
Y137000D01*
X-110800D01*
Y137025D01*
X-110850D01*
Y137050D01*
X-110875D01*
Y137075D01*
X-110900D01*
Y137100D01*
X-110925D01*
Y137125D01*
X-110950D01*
Y137150D01*
X-110975D01*
Y137175D01*
X-111000D01*
Y137200D01*
X-111025D01*
Y137250D01*
X-111050D01*
Y137275D01*
X-111075D01*
Y137300D01*
Y137325D01*
X-111100D01*
Y137375D01*
X-111125D01*
Y137425D01*
X-111150D01*
Y137525D01*
X-111175D01*
Y137650D01*
X-111200D01*
Y145075D01*
X-111175D01*
Y145225D01*
X-111150D01*
Y145300D01*
X-111125D01*
Y145350D01*
X-111100D01*
Y145400D01*
X-111075D01*
Y145450D01*
X-111050D01*
Y145500D01*
X-111025D01*
Y145525D01*
X-111000D01*
Y145550D01*
X-110975D01*
Y145575D01*
X-110950D01*
Y145600D01*
X-110925D01*
Y145625D01*
X-110900D01*
Y145650D01*
X-110875D01*
Y145675D01*
X-110850D01*
Y145700D01*
X-110825D01*
Y145725D01*
X-110800D01*
Y145750D01*
X-110750D01*
Y145775D01*
X-110700D01*
Y145800D01*
X-110650D01*
Y145825D01*
X-110575D01*
Y145850D01*
X-110500D01*
Y145875D01*
X-110325D01*
Y145900D01*
X-106450D01*
Y145875D01*
D02*
G37*
G36*
X61342Y142000D02*
X59401D01*
X56200Y150956D01*
X58121D01*
X60314Y144329D01*
X62584Y150956D01*
X64534D01*
X61342Y142000D01*
D02*
G37*
G36*
X81000D02*
X79195D01*
Y145736D01*
X78613D01*
X78429Y145716D01*
X78274Y145706D01*
X78147Y145687D01*
X78050Y145668D01*
X77982Y145648D01*
X77934Y145639D01*
X77924Y145629D01*
X77817Y145590D01*
X77720Y145532D01*
X77623Y145474D01*
X77546Y145406D01*
X77478Y145347D01*
X77420Y145309D01*
X77390Y145270D01*
X77381Y145260D01*
X77323Y145202D01*
X77264Y145124D01*
X77196Y145037D01*
X77119Y144940D01*
X76964Y144726D01*
X76799Y144503D01*
X76653Y144290D01*
X76585Y144202D01*
X76537Y144115D01*
X76488Y144047D01*
X76449Y143999D01*
X76430Y143960D01*
X76420Y143950D01*
X75110Y142000D01*
X72947D01*
X74043Y143737D01*
X74159Y143931D01*
X74276Y144096D01*
X74383Y144261D01*
X74480Y144406D01*
X74567Y144542D01*
X74654Y144658D01*
X74732Y144765D01*
X74800Y144862D01*
X74858Y144940D01*
X74916Y145008D01*
X74965Y145066D01*
X75004Y145115D01*
X75033Y145144D01*
X75052Y145173D01*
X75072Y145192D01*
X75217Y145338D01*
X75382Y145483D01*
X75547Y145609D01*
X75702Y145716D01*
X75838Y145813D01*
X75945Y145881D01*
X75984Y145910D01*
X76013Y145920D01*
X76032Y145939D01*
X76042D01*
X75828Y145978D01*
X75625Y146027D01*
X75440Y146085D01*
X75266Y146143D01*
X75101Y146211D01*
X74955Y146279D01*
X74829Y146347D01*
X74713Y146424D01*
X74606Y146492D01*
X74518Y146560D01*
X74441Y146618D01*
X74373Y146667D01*
X74324Y146715D01*
X74295Y146745D01*
X74276Y146764D01*
X74266Y146774D01*
X74159Y146900D01*
X74072Y147036D01*
X73994Y147172D01*
X73927Y147317D01*
X73868Y147453D01*
X73820Y147589D01*
X73752Y147860D01*
X73723Y147977D01*
X73703Y148093D01*
X73694Y148190D01*
X73684Y148278D01*
X73674Y148346D01*
Y148394D01*
Y148433D01*
Y148443D01*
X73694Y148734D01*
X73733Y148996D01*
X73801Y149238D01*
X73868Y149442D01*
X73907Y149529D01*
X73946Y149617D01*
X73975Y149685D01*
X74014Y149743D01*
X74033Y149791D01*
X74053Y149820D01*
X74072Y149840D01*
Y149850D01*
X74227Y150063D01*
X74402Y150247D01*
X74567Y150393D01*
X74732Y150519D01*
X74887Y150606D01*
X74945Y150635D01*
X75004Y150665D01*
X75052Y150684D01*
X75081Y150703D01*
X75101Y150713D01*
X75110D01*
X75237Y150752D01*
X75382Y150791D01*
X75547Y150829D01*
X75712Y150849D01*
X76052Y150897D01*
X76401Y150927D01*
X76556Y150936D01*
X76711Y150946D01*
X76847D01*
X76964Y150956D01*
X81000D01*
Y142000D01*
D02*
G37*
G36*
X71967D02*
X65155D01*
Y143514D01*
X70162D01*
Y145949D01*
X65669D01*
Y147463D01*
X70162D01*
Y149442D01*
X65330D01*
Y150956D01*
X71967D01*
Y142000D01*
D02*
G37*
G36*
X52716D02*
X50805D01*
X50058Y144038D01*
X46477D01*
X45691Y142000D01*
X43722D01*
X47312Y150956D01*
X49233D01*
X52716Y142000D01*
D02*
G37*
G36*
X-25281Y89555D02*
X-25074Y89528D01*
X-24866Y89501D01*
X-24686Y89456D01*
X-24515Y89411D01*
X-24362Y89366D01*
X-24217Y89303D01*
X-24091Y89249D01*
X-23983Y89194D01*
X-23884Y89140D01*
X-23802Y89086D01*
X-23739Y89041D01*
X-23685Y89005D01*
X-23649Y88978D01*
X-23631Y88960D01*
X-23622Y88951D01*
X-23514Y88834D01*
X-23415Y88707D01*
X-23334Y88563D01*
X-23261Y88428D01*
X-23198Y88275D01*
X-23153Y88130D01*
X-23108Y87986D01*
X-23081Y87851D01*
X-23054Y87716D01*
X-23036Y87589D01*
X-23018Y87481D01*
X-23009Y87382D01*
X-23000Y87301D01*
Y87193D01*
X-23009Y86949D01*
X-23027Y86724D01*
X-23063Y86507D01*
X-23108Y86318D01*
X-23162Y86138D01*
X-23226Y85984D01*
X-23289Y85840D01*
X-23361Y85714D01*
X-23424Y85597D01*
X-23487Y85506D01*
X-23550Y85425D01*
X-23604Y85362D01*
X-23649Y85308D01*
X-23685Y85272D01*
X-23703Y85254D01*
X-23712Y85245D01*
X-23857Y85137D01*
X-24010Y85047D01*
X-24172Y84965D01*
X-24334Y84902D01*
X-24506Y84839D01*
X-24686Y84794D01*
X-25020Y84722D01*
X-25173Y84695D01*
X-25317Y84677D01*
X-25453Y84668D01*
X-25561Y84659D01*
X-25660Y84650D01*
X-25723D01*
X-25768D01*
X-25786D01*
X-30827D01*
Y86192D01*
X-25786D01*
X-25597D01*
X-25426Y86210D01*
X-25272Y86219D01*
X-25155Y86237D01*
X-25056Y86255D01*
X-24984Y86273D01*
X-24939Y86282D01*
X-24921Y86291D01*
X-24812Y86327D01*
X-24713Y86372D01*
X-24641Y86426D01*
X-24569Y86471D01*
X-24524Y86516D01*
X-24488Y86552D01*
X-24470Y86579D01*
X-24461Y86588D01*
X-24416Y86670D01*
X-24380Y86760D01*
X-24362Y86850D01*
X-24344Y86940D01*
X-24334Y87012D01*
X-24325Y87084D01*
Y87139D01*
X-24344Y87310D01*
X-24380Y87454D01*
X-24425Y87571D01*
X-24488Y87670D01*
X-24542Y87752D01*
X-24596Y87806D01*
X-24632Y87842D01*
X-24641Y87851D01*
X-24704Y87896D01*
X-24776Y87932D01*
X-24948Y87986D01*
X-25119Y88031D01*
X-25299Y88067D01*
X-25453Y88085D01*
X-25525Y88094D01*
X-25588D01*
X-25633Y88103D01*
X-25669D01*
X-25696D01*
X-25705D01*
X-25516Y89564D01*
X-25281Y89555D01*
D02*
G37*
G36*
X-26715Y83414D02*
X-26508Y83405D01*
X-26309Y83378D01*
X-26120Y83351D01*
X-25940Y83315D01*
X-25777Y83279D01*
X-25615Y83243D01*
X-25471Y83198D01*
X-25335Y83153D01*
X-25218Y83117D01*
X-25119Y83081D01*
X-25038Y83045D01*
X-24966Y83018D01*
X-24921Y82991D01*
X-24885Y82982D01*
X-24876Y82973D01*
X-24713Y82882D01*
X-24560Y82783D01*
X-24416Y82684D01*
X-24280Y82576D01*
X-24154Y82468D01*
X-24046Y82351D01*
X-23938Y82242D01*
X-23848Y82143D01*
X-23767Y82044D01*
X-23694Y81954D01*
X-23631Y81873D01*
X-23577Y81800D01*
X-23541Y81737D01*
X-23514Y81692D01*
X-23496Y81665D01*
X-23487Y81656D01*
X-23406Y81494D01*
X-23325Y81322D01*
X-23261Y81151D01*
X-23207Y80980D01*
X-23117Y80646D01*
X-23090Y80484D01*
X-23063Y80331D01*
X-23045Y80195D01*
X-23027Y80060D01*
X-23018Y79943D01*
X-23009Y79844D01*
X-23000Y79763D01*
Y79654D01*
X-23009Y79447D01*
X-23018Y79240D01*
X-23045Y79050D01*
X-23081Y78861D01*
X-23117Y78690D01*
X-23153Y78527D01*
X-23198Y78374D01*
X-23252Y78230D01*
X-23298Y78103D01*
X-23343Y77995D01*
X-23379Y77896D01*
X-23415Y77815D01*
X-23451Y77752D01*
X-23478Y77707D01*
X-23487Y77680D01*
X-23496Y77671D01*
X-23595Y77517D01*
X-23703Y77373D01*
X-23812Y77238D01*
X-23929Y77112D01*
X-24046Y76994D01*
X-24163Y76886D01*
X-24271Y76787D01*
X-24389Y76706D01*
X-24488Y76625D01*
X-24587Y76561D01*
X-24668Y76498D01*
X-24749Y76453D01*
X-24812Y76417D01*
X-24857Y76390D01*
X-24885Y76381D01*
X-24894Y76372D01*
X-25065Y76291D01*
X-25245Y76219D01*
X-25417Y76165D01*
X-25597Y76111D01*
X-25940Y76030D01*
X-26111Y76002D01*
X-26264Y75975D01*
X-26409Y75957D01*
X-26544Y75948D01*
X-26661Y75930D01*
X-26760D01*
X-26841Y75921D01*
X-26904D01*
X-26950D01*
X-26958D01*
X-27184Y75930D01*
X-27391Y75939D01*
X-27599Y75966D01*
X-27797Y75993D01*
X-27977Y76030D01*
X-28149Y76066D01*
X-28311Y76111D01*
X-28455Y76147D01*
X-28591Y76192D01*
X-28708Y76237D01*
X-28816Y76273D01*
X-28897Y76309D01*
X-28969Y76336D01*
X-29014Y76363D01*
X-29050Y76372D01*
X-29060Y76381D01*
X-29222Y76471D01*
X-29375Y76571D01*
X-29519Y76670D01*
X-29655Y76778D01*
X-29781Y76886D01*
X-29898Y76994D01*
X-30006Y77103D01*
X-30096Y77211D01*
X-30178Y77301D01*
X-30250Y77400D01*
X-30313Y77481D01*
X-30367Y77544D01*
X-30403Y77607D01*
X-30430Y77653D01*
X-30448Y77680D01*
X-30457Y77689D01*
X-30547Y77851D01*
X-30619Y78013D01*
X-30691Y78185D01*
X-30746Y78356D01*
X-30836Y78690D01*
X-30863Y78852D01*
X-30890Y79005D01*
X-30908Y79140D01*
X-30926Y79276D01*
X-30935Y79393D01*
X-30944Y79492D01*
X-30953Y79573D01*
Y79681D01*
X-30944Y79889D01*
X-30935Y80087D01*
X-30908Y80286D01*
X-30872Y80466D01*
X-30836Y80637D01*
X-30800Y80809D01*
X-30755Y80953D01*
X-30710Y81097D01*
X-30656Y81223D01*
X-30610Y81332D01*
X-30574Y81431D01*
X-30538Y81512D01*
X-30502Y81575D01*
X-30475Y81629D01*
X-30466Y81656D01*
X-30457Y81665D01*
X-30358Y81819D01*
X-30259Y81963D01*
X-30141Y82098D01*
X-30024Y82224D01*
X-29907Y82341D01*
X-29799Y82450D01*
X-29682Y82549D01*
X-29564Y82639D01*
X-29465Y82711D01*
X-29366Y82783D01*
X-29276Y82837D01*
X-29204Y82892D01*
X-29141Y82928D01*
X-29086Y82955D01*
X-29060Y82964D01*
X-29050Y82973D01*
X-28879Y83054D01*
X-28699Y83117D01*
X-28518Y83180D01*
X-28338Y83234D01*
X-27986Y83315D01*
X-27815Y83342D01*
X-27653Y83369D01*
X-27499Y83387D01*
X-27364Y83396D01*
X-27238Y83405D01*
X-27139Y83414D01*
X-27049Y83424D01*
X-26985D01*
X-26950D01*
X-26931D01*
X-26715Y83414D01*
D02*
G37*
G36*
X-26363Y72720D02*
X-23135D01*
Y71178D01*
X-26354D01*
X-30827Y68401D01*
Y70187D01*
X-28744Y71341D01*
X-28509Y71467D01*
X-28302Y71584D01*
X-28122Y71674D01*
X-27959Y71755D01*
X-27833Y71828D01*
X-27779Y71846D01*
X-27734Y71873D01*
X-27698Y71891D01*
X-27671Y71900D01*
X-27662Y71909D01*
X-27653D01*
Y71927D01*
X-27842Y72017D01*
X-28031Y72107D01*
X-28221Y72206D01*
X-28392Y72297D01*
X-28537Y72378D01*
X-28600Y72405D01*
X-28654Y72441D01*
X-28690Y72459D01*
X-28726Y72477D01*
X-28744Y72495D01*
X-28753D01*
X-30827Y73667D01*
Y75479D01*
X-26363Y72720D01*
D02*
G37*
G36*
X-25354Y68022D02*
X-25137Y67968D01*
X-24939Y67905D01*
X-24749Y67833D01*
X-24578Y67761D01*
X-24425Y67671D01*
X-24280Y67590D01*
X-24145Y67509D01*
X-24037Y67427D01*
X-23938Y67346D01*
X-23848Y67274D01*
X-23784Y67211D01*
X-23730Y67157D01*
X-23685Y67121D01*
X-23667Y67094D01*
X-23658Y67085D01*
X-23541Y66922D01*
X-23442Y66760D01*
X-23352Y66589D01*
X-23280Y66408D01*
X-23216Y66237D01*
X-23162Y66057D01*
X-23117Y65885D01*
X-23081Y65723D01*
X-23054Y65561D01*
X-23036Y65426D01*
X-23018Y65290D01*
X-23009Y65182D01*
Y65092D01*
X-23000Y65020D01*
Y64966D01*
X-23009Y64668D01*
X-23036Y64389D01*
X-23081Y64136D01*
X-23099Y64019D01*
X-23126Y63911D01*
X-23153Y63811D01*
X-23171Y63730D01*
X-23198Y63649D01*
X-23216Y63586D01*
X-23226Y63541D01*
X-23244Y63496D01*
X-23252Y63478D01*
Y63469D01*
X-23361Y63225D01*
X-23478Y63009D01*
X-23613Y62820D01*
X-23739Y62657D01*
X-23857Y62540D01*
X-23947Y62441D01*
X-23983Y62414D01*
X-24010Y62387D01*
X-24028Y62378D01*
X-24037Y62369D01*
X-24136Y62297D01*
X-24244Y62234D01*
X-24470Y62125D01*
X-24686Y62053D01*
X-24903Y62008D01*
X-24993Y61990D01*
X-25083Y61972D01*
X-25164Y61963D01*
X-25227D01*
X-25290Y61954D01*
X-25326D01*
X-25354D01*
X-25363D01*
X-25615Y61963D01*
X-25840Y61990D01*
X-26030Y62026D01*
X-26201Y62071D01*
X-26336Y62116D01*
X-26390Y62134D01*
X-26435Y62152D01*
X-26472Y62170D01*
X-26499Y62179D01*
X-26508Y62188D01*
X-26517D01*
X-26688Y62288D01*
X-26841Y62405D01*
X-26976Y62540D01*
X-27094Y62666D01*
X-27193Y62793D01*
X-27256Y62892D01*
X-27283Y62928D01*
X-27301Y62955D01*
X-27319Y62973D01*
Y62982D01*
X-27382Y63090D01*
X-27436Y63216D01*
X-27545Y63469D01*
X-27644Y63730D01*
X-27725Y63992D01*
X-27761Y64109D01*
X-27797Y64217D01*
X-27824Y64317D01*
X-27842Y64398D01*
X-27860Y64470D01*
X-27878Y64524D01*
X-27887Y64560D01*
Y64569D01*
X-27941Y64803D01*
X-27995Y65020D01*
X-28050Y65200D01*
X-28095Y65344D01*
X-28131Y65462D01*
X-28158Y65543D01*
X-28176Y65597D01*
X-28185Y65615D01*
X-28239Y65741D01*
X-28293Y65849D01*
X-28347Y65939D01*
X-28392Y66003D01*
X-28428Y66057D01*
X-28464Y66102D01*
X-28482Y66120D01*
X-28491Y66129D01*
X-28554Y66183D01*
X-28627Y66219D01*
X-28699Y66246D01*
X-28762Y66264D01*
X-28816Y66273D01*
X-28870Y66282D01*
X-28897D01*
X-28906D01*
X-29032Y66264D01*
X-29150Y66228D01*
X-29240Y66174D01*
X-29321Y66111D01*
X-29384Y66057D01*
X-29429Y66003D01*
X-29456Y65967D01*
X-29465Y65949D01*
X-29537Y65813D01*
X-29582Y65678D01*
X-29618Y65543D01*
X-29646Y65408D01*
X-29664Y65290D01*
X-29673Y65200D01*
Y65119D01*
X-29664Y64893D01*
X-29636Y64695D01*
X-29592Y64524D01*
X-29546Y64380D01*
X-29492Y64271D01*
X-29456Y64199D01*
X-29420Y64154D01*
X-29411Y64136D01*
X-29303Y64019D01*
X-29168Y63929D01*
X-29023Y63857D01*
X-28888Y63802D01*
X-28753Y63766D01*
X-28654Y63739D01*
X-28609Y63730D01*
X-28582Y63721D01*
X-28563D01*
X-28554D01*
X-28726Y62170D01*
X-28924Y62207D01*
X-29104Y62261D01*
X-29276Y62324D01*
X-29438Y62387D01*
X-29592Y62459D01*
X-29727Y62540D01*
X-29844Y62612D01*
X-29961Y62693D01*
X-30051Y62765D01*
X-30141Y62838D01*
X-30214Y62910D01*
X-30268Y62964D01*
X-30313Y63009D01*
X-30349Y63045D01*
X-30367Y63072D01*
X-30376Y63081D01*
X-30475Y63225D01*
X-30565Y63379D01*
X-30646Y63532D01*
X-30710Y63694D01*
X-30764Y63857D01*
X-30809Y64028D01*
X-30881Y64335D01*
X-30908Y64479D01*
X-30926Y64614D01*
X-30935Y64740D01*
X-30944Y64839D01*
X-30953Y64930D01*
Y65047D01*
X-30944Y65362D01*
X-30908Y65642D01*
X-30890Y65777D01*
X-30863Y65894D01*
X-30836Y66012D01*
X-30818Y66111D01*
X-30791Y66210D01*
X-30764Y66291D01*
X-30737Y66363D01*
X-30719Y66426D01*
X-30701Y66472D01*
X-30682Y66508D01*
X-30673Y66526D01*
Y66535D01*
X-30556Y66751D01*
X-30439Y66940D01*
X-30313Y67103D01*
X-30187Y67229D01*
X-30078Y67337D01*
X-29988Y67409D01*
X-29952Y67436D01*
X-29925Y67454D01*
X-29916Y67472D01*
X-29907D01*
X-29718Y67581D01*
X-29528Y67653D01*
X-29339Y67707D01*
X-29168Y67752D01*
X-29014Y67770D01*
X-28951Y67779D01*
X-28897D01*
X-28852Y67788D01*
X-28816D01*
X-28798D01*
X-28789D01*
X-28582Y67779D01*
X-28392Y67752D01*
X-28212Y67716D01*
X-28068Y67671D01*
X-27950Y67635D01*
X-27860Y67599D01*
X-27824Y67581D01*
X-27797Y67572D01*
X-27788Y67563D01*
X-27779D01*
X-27626Y67463D01*
X-27482Y67346D01*
X-27355Y67220D01*
X-27238Y67094D01*
X-27148Y66976D01*
X-27085Y66886D01*
X-27058Y66850D01*
X-27040Y66823D01*
X-27022Y66805D01*
Y66796D01*
X-26958Y66688D01*
X-26904Y66571D01*
X-26796Y66327D01*
X-26706Y66084D01*
X-26625Y65849D01*
X-26589Y65732D01*
X-26562Y65633D01*
X-26535Y65543D01*
X-26517Y65462D01*
X-26499Y65399D01*
X-26481Y65353D01*
X-26472Y65317D01*
Y65308D01*
X-26435Y65164D01*
X-26399Y65029D01*
X-26372Y64903D01*
X-26336Y64785D01*
X-26309Y64677D01*
X-26273Y64587D01*
X-26246Y64497D01*
X-26228Y64425D01*
X-26201Y64352D01*
X-26183Y64298D01*
X-26165Y64244D01*
X-26147Y64208D01*
X-26138Y64172D01*
X-26129Y64154D01*
X-26120Y64136D01*
X-26066Y64010D01*
X-26003Y63893D01*
X-25949Y63811D01*
X-25894Y63739D01*
X-25849Y63694D01*
X-25813Y63658D01*
X-25786Y63640D01*
X-25777Y63631D01*
X-25705Y63586D01*
X-25615Y63550D01*
X-25525Y63532D01*
X-25444Y63514D01*
X-25371Y63505D01*
X-25308Y63496D01*
X-25272D01*
X-25254D01*
X-25146Y63505D01*
X-25056Y63523D01*
X-24966Y63550D01*
X-24894Y63586D01*
X-24831Y63622D01*
X-24785Y63649D01*
X-24758Y63667D01*
X-24749Y63676D01*
X-24677Y63748D01*
X-24605Y63829D01*
X-24551Y63911D01*
X-24506Y63992D01*
X-24461Y64073D01*
X-24434Y64127D01*
X-24425Y64163D01*
X-24416Y64181D01*
X-24380Y64307D01*
X-24353Y64434D01*
X-24325Y64560D01*
X-24316Y64668D01*
X-24307Y64776D01*
X-24299Y64848D01*
Y64921D01*
X-24316Y65164D01*
X-24353Y65381D01*
X-24407Y65570D01*
X-24479Y65723D01*
X-24542Y65840D01*
X-24596Y65931D01*
X-24632Y65985D01*
X-24650Y65994D01*
Y66003D01*
X-24722Y66075D01*
X-24803Y66129D01*
X-24975Y66246D01*
X-25164Y66327D01*
X-25345Y66399D01*
X-25507Y66453D01*
X-25579Y66472D01*
X-25642Y66490D01*
X-25696Y66499D01*
X-25732Y66508D01*
X-25759Y66517D01*
X-25768D01*
X-25579Y68059D01*
X-25354Y68022D01*
D02*
G37*
G36*
X-29519Y59005D02*
X-23135D01*
Y57463D01*
X-29519D01*
Y55236D01*
X-30827D01*
Y61233D01*
X-29519D01*
Y59005D01*
D02*
G37*
G36*
X-23135Y52621D02*
X-30827D01*
Y54163D01*
X-23135D01*
Y52621D01*
D02*
G37*
G36*
X-26796Y51341D02*
X-26580Y51332D01*
X-26363Y51314D01*
X-26165Y51287D01*
X-25976Y51251D01*
X-25795Y51215D01*
X-25633Y51179D01*
X-25480Y51134D01*
X-25345Y51097D01*
X-25218Y51062D01*
X-25119Y51025D01*
X-25029Y50989D01*
X-24957Y50962D01*
X-24912Y50944D01*
X-24876Y50926D01*
X-24866D01*
X-24704Y50845D01*
X-24551Y50755D01*
X-24407Y50656D01*
X-24271Y50557D01*
X-24145Y50457D01*
X-24028Y50349D01*
X-23929Y50250D01*
X-23839Y50151D01*
X-23748Y50061D01*
X-23676Y49979D01*
X-23622Y49898D01*
X-23568Y49835D01*
X-23532Y49772D01*
X-23505Y49736D01*
X-23487Y49709D01*
X-23478Y49700D01*
X-23397Y49547D01*
X-23325Y49384D01*
X-23252Y49222D01*
X-23198Y49051D01*
X-23117Y48726D01*
X-23081Y48573D01*
X-23063Y48419D01*
X-23036Y48284D01*
X-23027Y48158D01*
X-23018Y48041D01*
X-23009Y47942D01*
X-23000Y47860D01*
Y47752D01*
X-23009Y47437D01*
X-23045Y47148D01*
X-23099Y46887D01*
X-23126Y46769D01*
X-23153Y46652D01*
X-23180Y46562D01*
X-23207Y46472D01*
X-23235Y46391D01*
X-23261Y46328D01*
X-23280Y46283D01*
X-23298Y46237D01*
X-23307Y46219D01*
Y46210D01*
X-23433Y45967D01*
X-23577Y45741D01*
X-23721Y45552D01*
X-23866Y45390D01*
X-23992Y45255D01*
X-24046Y45209D01*
X-24100Y45164D01*
X-24136Y45128D01*
X-24163Y45101D01*
X-24181Y45092D01*
X-24190Y45083D01*
X-24416Y44930D01*
X-24641Y44795D01*
X-24866Y44686D01*
X-25074Y44596D01*
X-25173Y44560D01*
X-25254Y44533D01*
X-25335Y44506D01*
X-25399Y44488D01*
X-25453Y44470D01*
X-25489Y44461D01*
X-25516Y44452D01*
X-25525D01*
X-25886Y45994D01*
X-25714Y46048D01*
X-25552Y46102D01*
X-25417Y46165D01*
X-25290Y46228D01*
X-25191Y46283D01*
X-25119Y46328D01*
X-25074Y46364D01*
X-25056Y46373D01*
X-24930Y46472D01*
X-24822Y46580D01*
X-24731Y46688D01*
X-24650Y46787D01*
X-24596Y46869D01*
X-24551Y46941D01*
X-24524Y46986D01*
X-24515Y47004D01*
X-24452Y47139D01*
X-24407Y47283D01*
X-24371Y47410D01*
X-24353Y47536D01*
X-24334Y47644D01*
X-24325Y47725D01*
Y47797D01*
X-24344Y48023D01*
X-24380Y48221D01*
X-24425Y48401D01*
X-24488Y48555D01*
X-24551Y48681D01*
X-24596Y48771D01*
X-24623Y48807D01*
X-24632Y48834D01*
X-24650Y48843D01*
Y48852D01*
X-24785Y49006D01*
X-24939Y49141D01*
X-25092Y49258D01*
X-25245Y49357D01*
X-25380Y49429D01*
X-25435Y49456D01*
X-25489Y49483D01*
X-25534Y49502D01*
X-25561Y49520D01*
X-25579Y49529D01*
X-25588D01*
X-25822Y49601D01*
X-26066Y49655D01*
X-26300Y49700D01*
X-26526Y49727D01*
X-26625Y49736D01*
X-26715Y49745D01*
X-26796D01*
X-26868Y49754D01*
X-26922D01*
X-26967D01*
X-26995D01*
X-27004D01*
X-27283Y49745D01*
X-27536Y49718D01*
X-27761Y49682D01*
X-27959Y49637D01*
X-28050Y49619D01*
X-28122Y49601D01*
X-28185Y49583D01*
X-28248Y49565D01*
X-28284Y49547D01*
X-28320Y49538D01*
X-28338Y49529D01*
X-28347D01*
X-28554Y49438D01*
X-28744Y49330D01*
X-28906Y49222D01*
X-29032Y49114D01*
X-29141Y49015D01*
X-29213Y48934D01*
X-29258Y48879D01*
X-29276Y48870D01*
Y48861D01*
X-29393Y48681D01*
X-29474Y48501D01*
X-29537Y48320D01*
X-29573Y48149D01*
X-29601Y48005D01*
X-29609Y47942D01*
Y47888D01*
X-29618Y47842D01*
Y47779D01*
X-29601Y47545D01*
X-29564Y47328D01*
X-29501Y47130D01*
X-29420Y46959D01*
X-29321Y46796D01*
X-29213Y46661D01*
X-29095Y46535D01*
X-28978Y46436D01*
X-28852Y46346D01*
X-28735Y46264D01*
X-28627Y46201D01*
X-28528Y46156D01*
X-28446Y46120D01*
X-28383Y46093D01*
X-28347Y46075D01*
X-28329D01*
X-28690Y44542D01*
X-28897Y44605D01*
X-29086Y44686D01*
X-29258Y44768D01*
X-29429Y44858D01*
X-29573Y44957D01*
X-29718Y45047D01*
X-29844Y45146D01*
X-29952Y45237D01*
X-30051Y45327D01*
X-30141Y45417D01*
X-30214Y45489D01*
X-30268Y45552D01*
X-30313Y45606D01*
X-30349Y45651D01*
X-30367Y45678D01*
X-30376Y45687D01*
X-30475Y45841D01*
X-30565Y46012D01*
X-30646Y46183D01*
X-30710Y46355D01*
X-30764Y46526D01*
X-30809Y46697D01*
X-30854Y46859D01*
X-30881Y47022D01*
X-30908Y47175D01*
X-30926Y47310D01*
X-30935Y47437D01*
X-30944Y47545D01*
X-30953Y47635D01*
Y47752D01*
X-30944Y47951D01*
X-30935Y48149D01*
X-30908Y48338D01*
X-30881Y48519D01*
X-30845Y48681D01*
X-30800Y48843D01*
X-30755Y48988D01*
X-30719Y49123D01*
X-30673Y49240D01*
X-30628Y49348D01*
X-30583Y49438D01*
X-30547Y49520D01*
X-30520Y49583D01*
X-30493Y49628D01*
X-30484Y49655D01*
X-30475Y49664D01*
X-30385Y49808D01*
X-30286Y49952D01*
X-30178Y50079D01*
X-30069Y50205D01*
X-29952Y50313D01*
X-29844Y50412D01*
X-29727Y50511D01*
X-29627Y50593D01*
X-29519Y50674D01*
X-29429Y50737D01*
X-29339Y50791D01*
X-29267Y50836D01*
X-29204Y50872D01*
X-29159Y50899D01*
X-29132Y50908D01*
X-29123Y50917D01*
X-28951Y50989D01*
X-28780Y51062D01*
X-28419Y51170D01*
X-28077Y51242D01*
X-27905Y51269D01*
X-27743Y51296D01*
X-27599Y51314D01*
X-27463Y51323D01*
X-27337Y51341D01*
X-27238D01*
X-27148Y51350D01*
X-27085D01*
X-27049D01*
X-27031D01*
X-26796Y51341D01*
D02*
G37*
G36*
X-23135Y41675D02*
X-25453D01*
X-26679Y40512D01*
X-23135Y38375D01*
Y36436D01*
X-27770Y39439D01*
X-30827Y36652D01*
Y38582D01*
X-27409Y41675D01*
X-30827D01*
Y43217D01*
X-23135D01*
Y41675D01*
D02*
G37*
G36*
X-96983Y73000D02*
X-99828D01*
Y75828D01*
X-96983D01*
Y73000D01*
D02*
G37*
G36*
X-35408Y149638D02*
X-37341D01*
X-37353Y155471D01*
Y155507D01*
Y155519D01*
X-37364Y155530D01*
X-37400Y155554D01*
X-40122D01*
X-40169Y155542D01*
X-40181Y155530D01*
X-40193Y155519D01*
X-40205Y155495D01*
Y155483D01*
Y155471D01*
Y149638D01*
X-42138D01*
Y155471D01*
Y155507D01*
X-42149Y155519D01*
X-42161Y155530D01*
X-42208Y155554D01*
X-44907D01*
X-44966Y155542D01*
X-44978Y155530D01*
X-44990Y155519D01*
Y155495D01*
Y155483D01*
Y155471D01*
X-45002Y149638D01*
X-46911D01*
Y155566D01*
X-46899Y155754D01*
X-46875Y155931D01*
X-46828Y156096D01*
X-46781Y156238D01*
X-46734Y156355D01*
X-46687Y156450D01*
X-46663Y156497D01*
X-46652Y156520D01*
X-46557Y156674D01*
X-46439Y156815D01*
X-46322Y156933D01*
X-46215Y157027D01*
X-46121Y157110D01*
X-46039Y157169D01*
X-45992Y157204D01*
X-45968Y157216D01*
X-45803Y157298D01*
X-45626Y157369D01*
X-45473Y157416D01*
X-45320Y157440D01*
X-45190Y157463D01*
X-45084Y157475D01*
X-35408D01*
Y149638D01*
D02*
G37*
G36*
X-50329Y157463D02*
X-50152Y157440D01*
X-49987Y157393D01*
X-49845Y157345D01*
X-49728Y157298D01*
X-49645Y157251D01*
X-49586Y157227D01*
X-49563Y157216D01*
X-49409Y157110D01*
X-49280Y157004D01*
X-49162Y156886D01*
X-49056Y156768D01*
X-48973Y156674D01*
X-48914Y156591D01*
X-48879Y156544D01*
X-48867Y156520D01*
X-48785Y156355D01*
X-48714Y156190D01*
X-48667Y156025D01*
X-48643Y155884D01*
X-48620Y155754D01*
X-48608Y155648D01*
Y155589D01*
Y155578D01*
Y155566D01*
Y151535D01*
X-48620Y151347D01*
X-48643Y151170D01*
X-48690Y151017D01*
X-48738Y150875D01*
X-48785Y150757D01*
X-48832Y150663D01*
X-48855Y150616D01*
X-48867Y150592D01*
X-48973Y150439D01*
X-49091Y150298D01*
X-49209Y150180D01*
X-49315Y150085D01*
X-49409Y150003D01*
X-49492Y149944D01*
X-49539Y149909D01*
X-49563Y149897D01*
X-49728Y149814D01*
X-49893Y149744D01*
X-50058Y149697D01*
X-50199Y149673D01*
X-50329Y149649D01*
X-50435Y149638D01*
X-54654D01*
X-54854Y149649D01*
X-55031Y149673D01*
X-55196Y149720D01*
X-55338Y149767D01*
X-55455Y149814D01*
X-55550Y149861D01*
X-55597Y149885D01*
X-55620Y149897D01*
X-55774Y150003D01*
X-55903Y150121D01*
X-56021Y150227D01*
X-56127Y150345D01*
X-56198Y150439D01*
X-56257Y150521D01*
X-56292Y150569D01*
X-56304Y150592D01*
X-56398Y150757D01*
X-56457Y150922D01*
X-56504Y151087D01*
X-56540Y151229D01*
X-56551Y151347D01*
X-56563Y151453D01*
Y151511D01*
Y151535D01*
Y155566D01*
X-56551Y155754D01*
X-56528Y155931D01*
X-56481Y156096D01*
X-56445Y156238D01*
X-56398Y156355D01*
X-56351Y156450D01*
X-56327Y156497D01*
X-56316Y156520D01*
X-56221Y156674D01*
X-56104Y156815D01*
X-55986Y156933D01*
X-55880Y157039D01*
X-55785Y157110D01*
X-55703Y157169D01*
X-55656Y157204D01*
X-55632Y157216D01*
X-55467Y157298D01*
X-55290Y157369D01*
X-55137Y157416D01*
X-54984Y157440D01*
X-54854Y157463D01*
X-54748Y157475D01*
X-50517D01*
X-50329Y157463D01*
D02*
G37*
G36*
X-63646Y157475D02*
X-59521D01*
X-59321Y157463D01*
X-59144Y157440D01*
X-58979Y157393D01*
X-58826Y157345D01*
X-58708Y157298D01*
X-58626Y157251D01*
X-58567Y157227D01*
X-58543Y157216D01*
X-58390Y157110D01*
X-58260Y157004D01*
X-58142Y156886D01*
X-58048Y156768D01*
X-57966Y156674D01*
X-57907Y156591D01*
X-57871Y156544D01*
X-57860Y156520D01*
X-57777Y156355D01*
X-57706Y156190D01*
X-57659Y156025D01*
X-57636Y155884D01*
X-57612Y155754D01*
X-57600Y155648D01*
Y155589D01*
Y155578D01*
Y155566D01*
Y151535D01*
X-57612Y151347D01*
X-57636Y151170D01*
X-57683Y151017D01*
X-57730Y150863D01*
X-57777Y150745D01*
X-57824Y150663D01*
X-57848Y150604D01*
X-57860Y150581D01*
X-57966Y150427D01*
X-58072Y150286D01*
X-58190Y150168D01*
X-58296Y150074D01*
X-58390Y149991D01*
X-58472Y149932D01*
X-58520Y149897D01*
X-58543Y149885D01*
X-58708Y149803D01*
X-58885Y149744D01*
X-59050Y149697D01*
X-59191Y149673D01*
X-59333Y149649D01*
X-59427Y149638D01*
X-65567D01*
X-65579Y160044D01*
X-63646D01*
Y157475D01*
D02*
G37*
G36*
X-72674D02*
X-68549D01*
X-68349Y157463D01*
X-68172Y157440D01*
X-68007Y157393D01*
X-67854Y157345D01*
X-67736Y157298D01*
X-67653Y157251D01*
X-67594Y157227D01*
X-67571Y157216D01*
X-67418Y157110D01*
X-67288Y157004D01*
X-67170Y156886D01*
X-67076Y156768D01*
X-66993Y156674D01*
X-66934Y156591D01*
X-66899Y156544D01*
X-66887Y156520D01*
X-66805Y156355D01*
X-66734Y156190D01*
X-66687Y156025D01*
X-66663Y155884D01*
X-66640Y155754D01*
X-66628Y155648D01*
Y155589D01*
Y155578D01*
Y155566D01*
Y151535D01*
X-66640Y151347D01*
X-66663Y151170D01*
X-66711Y151017D01*
X-66758Y150863D01*
X-66805Y150745D01*
X-66852Y150663D01*
X-66876Y150604D01*
X-66887Y150581D01*
X-66993Y150427D01*
X-67099Y150286D01*
X-67217Y150168D01*
X-67323Y150074D01*
X-67418Y149991D01*
X-67500Y149932D01*
X-67547Y149897D01*
X-67571Y149885D01*
X-67736Y149803D01*
X-67913Y149744D01*
X-68078Y149697D01*
X-68219Y149673D01*
X-68361Y149649D01*
X-68455Y149638D01*
X-74595D01*
X-74607Y160044D01*
X-72674D01*
Y157475D01*
D02*
G37*
G36*
X-77754Y157463D02*
X-77577Y157440D01*
X-77412Y157393D01*
X-77270Y157345D01*
X-77153Y157298D01*
X-77070Y157251D01*
X-77011Y157227D01*
X-76988Y157216D01*
X-76834Y157110D01*
X-76705Y157004D01*
X-76587Y156886D01*
X-76481Y156768D01*
X-76398Y156674D01*
X-76339Y156591D01*
X-76304Y156544D01*
X-76292Y156520D01*
X-76210Y156355D01*
X-76139Y156190D01*
X-76092Y156025D01*
X-76068Y155884D01*
X-76045Y155754D01*
X-76033Y155648D01*
Y155589D01*
Y155578D01*
Y155566D01*
Y151535D01*
X-76045Y151347D01*
X-76068Y151170D01*
X-76115Y151017D01*
X-76163Y150875D01*
X-76210Y150757D01*
X-76257Y150663D01*
X-76280Y150616D01*
X-76292Y150592D01*
X-76398Y150439D01*
X-76516Y150298D01*
X-76634Y150180D01*
X-76740Y150085D01*
X-76834Y150003D01*
X-76917Y149944D01*
X-76964Y149909D01*
X-76988Y149897D01*
X-77153Y149814D01*
X-77318Y149744D01*
X-77483Y149697D01*
X-77624Y149673D01*
X-77754Y149649D01*
X-77860Y149638D01*
X-82079D01*
X-82279Y149649D01*
X-82456Y149673D01*
X-82621Y149720D01*
X-82762Y149767D01*
X-82880Y149814D01*
X-82975Y149861D01*
X-83022Y149885D01*
X-83045Y149897D01*
X-83199Y150003D01*
X-83328Y150121D01*
X-83446Y150227D01*
X-83552Y150345D01*
X-83623Y150439D01*
X-83682Y150521D01*
X-83717Y150569D01*
X-83729Y150592D01*
X-83823Y150757D01*
X-83882Y150922D01*
X-83929Y151087D01*
X-83965Y151229D01*
X-83976Y151347D01*
X-83988Y151453D01*
Y151511D01*
Y151535D01*
Y155566D01*
X-83976Y155754D01*
X-83953Y155931D01*
X-83906Y156096D01*
X-83870Y156238D01*
X-83823Y156355D01*
X-83776Y156450D01*
X-83752Y156497D01*
X-83741Y156520D01*
X-83646Y156674D01*
X-83529Y156815D01*
X-83411Y156933D01*
X-83305Y157039D01*
X-83210Y157110D01*
X-83128Y157169D01*
X-83081Y157204D01*
X-83057Y157216D01*
X-82892Y157298D01*
X-82715Y157369D01*
X-82562Y157416D01*
X-82409Y157440D01*
X-82279Y157463D01*
X-82173Y157475D01*
X-77942D01*
X-77754Y157463D01*
D02*
G37*
G36*
X-65520Y147679D02*
X-65332Y147643D01*
X-65167Y147608D01*
X-65025Y147561D01*
X-64896Y147502D01*
X-64813Y147467D01*
X-64754Y147431D01*
X-64731Y147420D01*
X-64577Y147313D01*
X-64424Y147207D01*
X-64306Y147090D01*
X-64200Y146972D01*
X-64118Y146877D01*
X-64059Y146795D01*
X-64023Y146748D01*
X-64012Y146724D01*
X-63929Y146559D01*
X-63858Y146382D01*
X-63823Y146229D01*
X-63788Y146076D01*
X-63776Y145946D01*
X-63764Y145840D01*
Y145770D01*
Y145758D01*
Y145746D01*
Y143778D01*
X-63776Y143589D01*
X-63800Y143413D01*
X-63835Y143247D01*
X-63882Y143106D01*
X-63929Y142976D01*
X-63976Y142894D01*
X-64000Y142835D01*
X-64012Y142811D01*
X-64118Y142658D01*
X-64236Y142517D01*
X-64353Y142387D01*
X-64471Y142293D01*
X-64577Y142210D01*
X-64660Y142151D01*
X-64707Y142116D01*
X-64731Y142104D01*
X-64907Y142022D01*
X-65072Y141951D01*
X-65237Y141904D01*
X-65391Y141869D01*
X-65520Y141857D01*
X-65615Y141845D01*
X-65685Y141833D01*
X-71495D01*
X-71507Y141821D01*
X-71519Y141810D01*
X-71531Y141786D01*
Y141774D01*
Y141763D01*
Y139995D01*
X-71519Y139948D01*
X-71507Y139924D01*
X-71495Y139912D01*
X-65744D01*
X-65721Y139924D01*
Y139971D01*
Y139983D01*
Y139995D01*
Y140725D01*
X-63752D01*
X-63764Y139900D01*
X-63776Y139700D01*
X-63800Y139523D01*
X-63835Y139346D01*
X-63882Y139205D01*
X-63929Y139075D01*
X-63976Y138993D01*
X-64000Y138934D01*
X-64012Y138910D01*
X-64118Y138757D01*
X-64236Y138616D01*
X-64353Y138498D01*
X-64471Y138404D01*
X-64577Y138321D01*
X-64660Y138262D01*
X-64707Y138227D01*
X-64731Y138215D01*
X-64907Y138132D01*
X-65072Y138062D01*
X-65237Y138015D01*
X-65391Y137991D01*
X-65520Y137968D01*
X-65615Y137956D01*
X-71566D01*
X-71755Y137968D01*
X-71943Y137991D01*
X-72108Y138038D01*
X-72250Y138085D01*
X-72368Y138132D01*
X-72462Y138180D01*
X-72509Y138203D01*
X-72533Y138215D01*
X-72686Y138321D01*
X-72827Y138439D01*
X-72945Y138545D01*
X-73039Y138663D01*
X-73122Y138757D01*
X-73181Y138840D01*
X-73216Y138887D01*
X-73228Y138910D01*
X-73322Y139087D01*
X-73381Y139252D01*
X-73440Y139417D01*
X-73475Y139570D01*
X-73499Y139700D01*
X-73511Y139806D01*
Y139877D01*
Y139900D01*
Y141857D01*
X-73499Y142057D01*
X-73464Y142234D01*
X-73417Y142399D01*
X-73369Y142540D01*
X-73310Y142670D01*
X-73275Y142753D01*
X-73240Y142811D01*
X-73228Y142835D01*
X-73122Y142988D01*
X-73016Y143130D01*
X-72898Y143247D01*
X-72780Y143354D01*
X-72686Y143424D01*
X-72603Y143483D01*
X-72556Y143518D01*
X-72533Y143530D01*
X-72368Y143613D01*
X-72203Y143684D01*
X-72038Y143731D01*
X-71884Y143766D01*
X-71755Y143790D01*
X-71660Y143801D01*
X-71590Y143813D01*
X-65791D01*
X-65756Y143801D01*
X-65744D01*
X-65721Y143813D01*
Y143848D01*
Y143872D01*
Y145652D01*
Y145699D01*
Y145711D01*
X-65744Y145734D01*
X-71484D01*
X-71495Y145722D01*
X-71507Y145711D01*
X-71531Y145675D01*
Y145663D01*
Y145652D01*
Y144921D01*
X-73499D01*
X-73511Y145746D01*
X-73499Y145946D01*
X-73464Y146123D01*
X-73417Y146300D01*
X-73369Y146441D01*
X-73310Y146559D01*
X-73275Y146653D01*
X-73240Y146701D01*
X-73228Y146724D01*
X-73122Y146877D01*
X-73016Y147019D01*
X-72898Y147137D01*
X-72780Y147231D01*
X-72686Y147313D01*
X-72603Y147372D01*
X-72556Y147408D01*
X-72533Y147420D01*
X-72368Y147514D01*
X-72203Y147573D01*
X-72038Y147620D01*
X-71884Y147655D01*
X-71755Y147679D01*
X-71660Y147691D01*
X-65709D01*
X-65520Y147679D01*
D02*
G37*
G36*
X-28820Y137956D02*
X-30765D01*
Y144768D01*
X-34300Y140572D01*
X-37812Y144780D01*
Y137956D01*
X-39780D01*
Y147691D01*
X-37694D01*
X-34300Y143625D01*
X-30882Y147691D01*
X-28820D01*
Y137956D01*
D02*
G37*
G36*
X-52556Y139900D02*
X-52568Y139700D01*
X-52591Y139523D01*
X-52639Y139346D01*
X-52686Y139205D01*
X-52733Y139075D01*
X-52780Y138993D01*
X-52804Y138934D01*
X-52815Y138910D01*
X-52921Y138757D01*
X-53039Y138616D01*
X-53157Y138498D01*
X-53275Y138404D01*
X-53369Y138321D01*
X-53452Y138262D01*
X-53499Y138227D01*
X-53523Y138215D01*
X-53699Y138132D01*
X-53864Y138062D01*
X-54029Y138015D01*
X-54183Y137991D01*
X-54312Y137968D01*
X-54418Y137956D01*
X-60358D01*
X-60559Y137968D01*
X-60735Y137991D01*
X-60900Y138038D01*
X-61042Y138085D01*
X-61160Y138132D01*
X-61254Y138180D01*
X-61301Y138203D01*
X-61325Y138215D01*
X-61478Y138321D01*
X-61619Y138439D01*
X-61737Y138545D01*
X-61843Y138663D01*
X-61926Y138757D01*
X-61985Y138840D01*
X-62020Y138887D01*
X-62032Y138910D01*
X-62126Y139087D01*
X-62185Y139252D01*
X-62232Y139417D01*
X-62267Y139570D01*
X-62291Y139700D01*
X-62303Y139806D01*
Y139877D01*
Y139900D01*
Y147691D01*
X-60346D01*
X-60323Y139995D01*
X-60335Y139959D01*
X-60323Y139948D01*
X-60311Y139924D01*
X-60287Y139912D01*
X-54548D01*
X-54524Y139924D01*
X-54513Y139971D01*
Y139983D01*
Y139995D01*
Y147691D01*
X-52556D01*
Y139900D01*
D02*
G37*
G36*
X-43104Y147679D02*
X-42927Y147643D01*
X-42750Y147608D01*
X-42609Y147561D01*
X-42479Y147502D01*
X-42397Y147467D01*
X-42338Y147431D01*
X-42314Y147420D01*
X-42161Y147313D01*
X-42020Y147207D01*
X-41902Y147090D01*
X-41796Y146972D01*
X-41713Y146877D01*
X-41654Y146795D01*
X-41619Y146748D01*
X-41607Y146724D01*
X-41525Y146559D01*
X-41454Y146382D01*
X-41407Y146229D01*
X-41383Y146076D01*
X-41360Y145946D01*
X-41348Y145840D01*
Y145770D01*
Y145758D01*
Y145746D01*
Y139900D01*
X-41360Y139700D01*
X-41383Y139523D01*
X-41430Y139346D01*
X-41478Y139205D01*
X-41525Y139075D01*
X-41572Y138993D01*
X-41595Y138934D01*
X-41607Y138910D01*
X-41713Y138757D01*
X-41831Y138616D01*
X-41949Y138498D01*
X-42067Y138404D01*
X-42161Y138321D01*
X-42244Y138262D01*
X-42291Y138227D01*
X-42314Y138215D01*
X-42491Y138132D01*
X-42656Y138062D01*
X-42821Y138015D01*
X-42974Y137991D01*
X-43104Y137968D01*
X-43210Y137956D01*
X-49150D01*
X-49350Y137968D01*
X-49527Y137991D01*
X-49692Y138038D01*
X-49834Y138085D01*
X-49951Y138132D01*
X-50046Y138180D01*
X-50093Y138203D01*
X-50116Y138215D01*
X-50270Y138321D01*
X-50411Y138439D01*
X-50529Y138545D01*
X-50635Y138663D01*
X-50718Y138757D01*
X-50776Y138840D01*
X-50812Y138887D01*
X-50824Y138910D01*
X-50918Y139087D01*
X-50977Y139252D01*
X-51024Y139417D01*
X-51059Y139570D01*
X-51083Y139700D01*
X-51095Y139806D01*
Y139877D01*
Y139900D01*
Y145746D01*
X-51083Y145946D01*
X-51048Y146123D01*
X-51012Y146300D01*
X-50965Y146441D01*
X-50906Y146559D01*
X-50871Y146653D01*
X-50835Y146701D01*
X-50824Y146724D01*
X-50718Y146877D01*
X-50600Y147019D01*
X-50482Y147137D01*
X-50364Y147231D01*
X-50270Y147313D01*
X-50187Y147372D01*
X-50140Y147408D01*
X-50116Y147420D01*
X-49951Y147514D01*
X-49786Y147573D01*
X-49621Y147620D01*
X-49480Y147655D01*
X-49339Y147679D01*
X-49244Y147691D01*
X-43304D01*
X-43104Y147679D01*
D02*
G37*
G36*
X-75019Y137956D02*
X-84000D01*
X-83988Y139900D01*
X-76999Y139912D01*
X-76988Y141845D01*
X-82633Y141833D01*
X-82621Y143790D01*
X-76999Y143813D01*
X-76988Y145746D01*
X-84000Y145734D01*
X-83988Y147691D01*
X-75019D01*
Y137956D01*
D02*
G37*
G36*
X30856Y175880D02*
X33961Y171222D01*
X31797D01*
X29798Y174259D01*
X27809Y171222D01*
X25636D01*
X28721Y175889D01*
X25907Y180178D01*
X28003D01*
X29789Y177490D01*
X31555Y180178D01*
X33670D01*
X30856Y175880D01*
D02*
G37*
G36*
X53881Y171222D02*
X52076D01*
Y173920D01*
X50620Y175424D01*
X48146Y171222D01*
X45808D01*
X49369Y176695D01*
X45983Y180178D01*
X48418D01*
X52076Y176200D01*
Y180178D01*
X53881D01*
Y171222D01*
D02*
G37*
G36*
X-32600Y175996D02*
X-34318D01*
Y177713D01*
X-32600D01*
Y175996D01*
D02*
G37*
G36*
X7307Y171222D02*
X5638D01*
Y177102D01*
X2009Y171222D01*
X205D01*
Y180178D01*
X1874D01*
Y174162D01*
X5561Y180178D01*
X7307D01*
Y171222D01*
D02*
G37*
G36*
X-23276D02*
X-24945D01*
Y177102D01*
X-28574Y171222D01*
X-30378D01*
Y180178D01*
X-28710D01*
Y174162D01*
X-25022Y180178D01*
X-23276D01*
Y171222D01*
D02*
G37*
G36*
X59411Y180314D02*
X59741Y180275D01*
X60052Y180207D01*
X60343Y180129D01*
X60614Y180032D01*
X60857Y179935D01*
X61090Y179819D01*
X61294Y179702D01*
X61478Y179586D01*
X61643Y179479D01*
X61779Y179373D01*
X61895Y179275D01*
X61992Y179198D01*
X62050Y179140D01*
X62099Y179091D01*
X62109Y179081D01*
X62312Y178839D01*
X62487Y178577D01*
X62642Y178305D01*
X62768Y178024D01*
X62885Y177733D01*
X62972Y177442D01*
X63050Y177160D01*
X63108Y176879D01*
X63156Y176627D01*
X63195Y176384D01*
X63215Y176161D01*
X63234Y175977D01*
X63244Y175821D01*
X63253Y175763D01*
Y175705D01*
Y175666D01*
Y175637D01*
Y175618D01*
Y175608D01*
X63244Y175220D01*
X63205Y174861D01*
X63147Y174521D01*
X63079Y174201D01*
X62992Y173900D01*
X62895Y173629D01*
X62788Y173376D01*
X62681Y173153D01*
X62574Y172949D01*
X62468Y172775D01*
X62371Y172629D01*
X62283Y172503D01*
X62215Y172406D01*
X62157Y172338D01*
X62118Y172290D01*
X62109Y172280D01*
X61885Y172066D01*
X61653Y171882D01*
X61410Y171717D01*
X61167Y171581D01*
X60925Y171465D01*
X60682Y171368D01*
X60440Y171280D01*
X60217Y171222D01*
X60003Y171164D01*
X59799Y171135D01*
X59625Y171106D01*
X59479Y171086D01*
X59353Y171077D01*
X59256Y171067D01*
X59178D01*
X58916Y171077D01*
X58664Y171096D01*
X58422Y171135D01*
X58198Y171174D01*
X57985Y171232D01*
X57791Y171290D01*
X57607Y171358D01*
X57451Y171426D01*
X57296Y171484D01*
X57170Y171552D01*
X57063Y171610D01*
X56966Y171668D01*
X56898Y171707D01*
X56840Y171746D01*
X56811Y171766D01*
X56801Y171775D01*
X56627Y171921D01*
X56471Y172076D01*
X56326Y172241D01*
X56190Y172425D01*
X56073Y172600D01*
X55957Y172784D01*
X55860Y172969D01*
X55773Y173143D01*
X55695Y173308D01*
X55627Y173464D01*
X55579Y173609D01*
X55530Y173725D01*
X55491Y173832D01*
X55472Y173900D01*
X55452Y173949D01*
Y173968D01*
X57209Y174512D01*
X57257Y174337D01*
X57306Y174162D01*
X57364Y174007D01*
X57422Y173871D01*
X57490Y173735D01*
X57548Y173619D01*
X57616Y173512D01*
X57674Y173415D01*
X57733Y173337D01*
X57791Y173260D01*
X57839Y173202D01*
X57878Y173153D01*
X57917Y173114D01*
X57946Y173085D01*
X57956Y173075D01*
X57965Y173066D01*
X58063Y172988D01*
X58169Y172920D01*
X58373Y172804D01*
X58577Y172726D01*
X58771Y172668D01*
X58945Y172639D01*
X59013Y172619D01*
X59081D01*
X59130Y172610D01*
X59198D01*
X59372Y172619D01*
X59547Y172639D01*
X59712Y172678D01*
X59858Y172726D01*
X60003Y172775D01*
X60129Y172833D01*
X60255Y172901D01*
X60362Y172969D01*
X60459Y173037D01*
X60546Y173105D01*
X60614Y173163D01*
X60682Y173211D01*
X60721Y173260D01*
X60760Y173299D01*
X60779Y173318D01*
X60789Y173328D01*
X60896Y173473D01*
X60983Y173638D01*
X61070Y173813D01*
X61138Y174007D01*
X61197Y174211D01*
X61245Y174405D01*
X61313Y174802D01*
X61342Y174997D01*
X61361Y175171D01*
X61371Y175326D01*
X61381Y175472D01*
X61391Y175579D01*
Y175666D01*
Y175724D01*
Y175744D01*
X61381Y176035D01*
X61361Y176306D01*
X61332Y176549D01*
X61294Y176782D01*
X61245Y176995D01*
X61197Y177180D01*
X61138Y177354D01*
X61080Y177500D01*
X61032Y177636D01*
X60973Y177752D01*
X60925Y177849D01*
X60876Y177927D01*
X60837Y177985D01*
X60808Y178034D01*
X60789Y178053D01*
X60779Y178063D01*
X60663Y178189D01*
X60527Y178296D01*
X60401Y178393D01*
X60265Y178480D01*
X60129Y178548D01*
X59993Y178606D01*
X59858Y178655D01*
X59731Y178693D01*
X59615Y178722D01*
X59508Y178742D01*
X59411Y178761D01*
X59324Y178771D01*
X59256Y178781D01*
X59159D01*
X58897Y178761D01*
X58664Y178713D01*
X58460Y178655D01*
X58276Y178577D01*
X58130Y178499D01*
X58072Y178470D01*
X58024Y178441D01*
X57985Y178412D01*
X57956Y178393D01*
X57946Y178383D01*
X57936Y178373D01*
X57762Y178208D01*
X57616Y178034D01*
X57500Y177849D01*
X57413Y177675D01*
X57344Y177519D01*
X57315Y177451D01*
X57296Y177393D01*
X57286Y177345D01*
X57277Y177306D01*
X57267Y177286D01*
Y177277D01*
X55482Y177704D01*
X55540Y177898D01*
X55608Y178082D01*
X55685Y178247D01*
X55753Y178412D01*
X55831Y178557D01*
X55908Y178693D01*
X55986Y178810D01*
X56054Y178926D01*
X56132Y179023D01*
X56190Y179111D01*
X56248Y179179D01*
X56306Y179237D01*
X56345Y179285D01*
X56374Y179314D01*
X56394Y179334D01*
X56403Y179343D01*
X56607Y179518D01*
X56811Y179664D01*
X57034Y179799D01*
X57257Y179906D01*
X57480Y180003D01*
X57703Y180081D01*
X57917Y180149D01*
X58121Y180197D01*
X58315Y180246D01*
X58499Y180275D01*
X58664Y180294D01*
X58800Y180304D01*
X58916Y180314D01*
X58994Y180323D01*
X59072D01*
X59411Y180314D01*
D02*
G37*
G36*
X81000Y171222D02*
X77643D01*
X77361Y171232D01*
X76886D01*
X76682Y171242D01*
X76508D01*
X76352Y171251D01*
X76217D01*
X76110Y171261D01*
X76013D01*
X75935Y171271D01*
X75877D01*
X75828Y171280D01*
X75780D01*
X75518Y171319D01*
X75285Y171378D01*
X75072Y171445D01*
X74897Y171523D01*
X74761Y171591D01*
X74703Y171620D01*
X74654Y171639D01*
X74616Y171668D01*
X74586Y171688D01*
X74577Y171698D01*
X74567D01*
X74392Y171833D01*
X74237Y171989D01*
X74101Y172144D01*
X73994Y172290D01*
X73907Y172416D01*
X73839Y172522D01*
X73820Y172561D01*
X73801Y172590D01*
X73791Y172610D01*
Y172619D01*
X73694Y172843D01*
X73626Y173056D01*
X73568Y173250D01*
X73538Y173435D01*
X73519Y173590D01*
X73509Y173658D01*
X73500Y173706D01*
Y173755D01*
Y173784D01*
Y173803D01*
Y173813D01*
Y173958D01*
X73519Y174094D01*
X73568Y174356D01*
X73645Y174579D01*
X73723Y174783D01*
X73762Y174861D01*
X73801Y174938D01*
X73839Y175006D01*
X73878Y175065D01*
X73907Y175103D01*
X73927Y175132D01*
X73936Y175152D01*
X73946Y175161D01*
X74121Y175365D01*
X74324Y175530D01*
X74538Y175676D01*
X74732Y175783D01*
X74916Y175870D01*
X74994Y175899D01*
X75062Y175928D01*
X75120Y175947D01*
X75159Y175967D01*
X75188Y175977D01*
X75198D01*
X74994Y176083D01*
X74810Y176210D01*
X74654Y176345D01*
X74518Y176471D01*
X74412Y176588D01*
X74334Y176675D01*
X74315Y176714D01*
X74295Y176743D01*
X74276Y176753D01*
Y176763D01*
X74159Y176966D01*
X74082Y177160D01*
X74024Y177354D01*
X73975Y177539D01*
X73956Y177694D01*
X73946Y177752D01*
Y177810D01*
X73936Y177859D01*
Y177888D01*
Y177907D01*
Y177917D01*
X73946Y178131D01*
X73975Y178325D01*
X74024Y178509D01*
X74072Y178664D01*
X74130Y178790D01*
X74169Y178887D01*
X74189Y178916D01*
X74208Y178946D01*
X74218Y178955D01*
Y178965D01*
X74324Y179130D01*
X74441Y179275D01*
X74557Y179402D01*
X74664Y179518D01*
X74761Y179596D01*
X74839Y179664D01*
X74887Y179702D01*
X74897Y179712D01*
X74907D01*
X75062Y179809D01*
X75227Y179887D01*
X75382Y179955D01*
X75528Y180003D01*
X75654Y180042D01*
X75751Y180061D01*
X75790Y180071D01*
X75819Y180081D01*
X75838D01*
X75945Y180100D01*
X76052Y180110D01*
X76304Y180139D01*
X76566Y180159D01*
X76828Y180168D01*
X76944D01*
X77061Y180178D01*
X81000D01*
Y171222D01*
D02*
G37*
G36*
X72879D02*
X70967D01*
X70220Y173260D01*
X66640D01*
X65854Y171222D01*
X63884D01*
X67474Y180178D01*
X69395D01*
X72879Y171222D01*
D02*
G37*
G36*
X41393D02*
X34582D01*
Y172736D01*
X39588D01*
Y175171D01*
X35096D01*
Y176685D01*
X39588D01*
Y178664D01*
X34756D01*
Y180178D01*
X41393D01*
Y171222D01*
D02*
G37*
G36*
X24704D02*
X22900D01*
Y174599D01*
X21502D01*
X21289Y174608D01*
X21095D01*
X20910Y174618D01*
X20746Y174628D01*
X20590Y174638D01*
X20445Y174647D01*
X20319Y174667D01*
X20212Y174676D01*
X20115Y174686D01*
X20028Y174696D01*
X19960Y174706D01*
X19911Y174715D01*
X19872D01*
X19853Y174725D01*
X19843D01*
X19669Y174773D01*
X19494Y174832D01*
X19339Y174900D01*
X19203Y174967D01*
X19077Y175035D01*
X18989Y175094D01*
X18931Y175132D01*
X18922Y175142D01*
X18912D01*
X18747Y175278D01*
X18592Y175424D01*
X18465Y175569D01*
X18349Y175705D01*
X18262Y175831D01*
X18203Y175938D01*
X18174Y175977D01*
X18155Y176006D01*
X18145Y176015D01*
Y176025D01*
X18048Y176248D01*
X17971Y176481D01*
X17922Y176714D01*
X17883Y176928D01*
X17874Y177034D01*
X17864Y177122D01*
X17854Y177209D01*
X17844Y177277D01*
Y177335D01*
Y177374D01*
Y177403D01*
Y177413D01*
X17854Y177607D01*
X17864Y177801D01*
X17893Y177975D01*
X17922Y178140D01*
X17961Y178296D01*
X18009Y178441D01*
X18058Y178567D01*
X18106Y178693D01*
X18155Y178800D01*
X18203Y178887D01*
X18242Y178975D01*
X18291Y179043D01*
X18320Y179091D01*
X18349Y179130D01*
X18359Y179149D01*
X18368Y179159D01*
X18465Y179285D01*
X18572Y179392D01*
X18679Y179489D01*
X18795Y179586D01*
X19009Y179741D01*
X19212Y179858D01*
X19387Y179945D01*
X19465Y179974D01*
X19533Y180003D01*
X19581Y180023D01*
X19620Y180032D01*
X19649Y180042D01*
X19659D01*
X19766Y180061D01*
X19892Y180091D01*
X20037Y180110D01*
X20202Y180120D01*
X20377Y180129D01*
X20552Y180149D01*
X20920Y180159D01*
X21095Y180168D01*
X21250D01*
X21405Y180178D01*
X24704D01*
Y171222D01*
D02*
G37*
G36*
X17272D02*
X15360D01*
X14613Y173260D01*
X11033D01*
X10247Y171222D01*
X8278Y171222D01*
X11868Y180178D01*
X13789D01*
X17272Y171222D01*
D02*
G37*
G36*
X-9993Y171222D02*
X-11798D01*
Y180178D01*
X-9993D01*
Y171222D01*
D02*
G37*
G36*
X-32600D02*
X-34318D01*
Y172940D01*
X-32600D01*
Y171222D01*
D02*
G37*
G36*
X-4462Y180314D02*
X-4297Y180294D01*
X-4123Y180275D01*
X-3968Y180246D01*
X-3822Y180226D01*
X-3696Y180197D01*
X-3570Y180168D01*
X-3453Y180129D01*
X-3356Y180100D01*
X-3279Y180081D01*
X-3201Y180052D01*
X-3152Y180032D01*
X-3104Y180013D01*
X-3085Y180003D01*
X-3075D01*
X-2822Y179877D01*
X-2590Y179732D01*
X-2405Y179586D01*
X-2240Y179440D01*
X-2124Y179305D01*
X-2027Y179198D01*
X-1998Y179159D01*
X-1978Y179130D01*
X-1959Y179111D01*
Y179101D01*
X-1833Y178878D01*
X-1736Y178654D01*
X-1668Y178431D01*
X-1619Y178237D01*
X-1590Y178072D01*
X-1581Y177995D01*
Y177936D01*
X-1571Y177888D01*
Y177849D01*
Y177830D01*
Y177820D01*
X-1581Y177626D01*
X-1610Y177442D01*
X-1648Y177257D01*
X-1697Y177092D01*
X-1765Y176937D01*
X-1833Y176782D01*
X-1910Y176646D01*
X-1988Y176520D01*
X-2056Y176404D01*
X-2134Y176306D01*
X-2201Y176219D01*
X-2270Y176151D01*
X-2318Y176093D01*
X-2357Y176054D01*
X-2386Y176025D01*
X-2396Y176015D01*
X-2512Y175918D01*
X-2648Y175831D01*
X-2803Y175744D01*
X-2958Y175656D01*
X-3298Y175511D01*
X-3638Y175375D01*
X-3793Y175326D01*
X-3938Y175278D01*
X-4074Y175229D01*
X-4200Y175200D01*
X-4297Y175171D01*
X-4365Y175152D01*
X-4414Y175132D01*
X-4433D01*
X-4637Y175084D01*
X-4821Y175035D01*
X-4986Y174997D01*
X-5132Y174958D01*
X-5268Y174919D01*
X-5384Y174890D01*
X-5491Y174861D01*
X-5578Y174832D01*
X-5656Y174812D01*
X-5714Y174793D01*
X-5772Y174773D01*
X-5811Y174764D01*
X-5840Y174754D01*
X-5860D01*
X-5879Y174744D01*
X-6044Y174676D01*
X-6180Y174618D01*
X-6286Y174550D01*
X-6384Y174492D01*
X-6442Y174434D01*
X-6490Y174395D01*
X-6519Y174366D01*
X-6529Y174356D01*
X-6597Y174269D01*
X-6645Y174181D01*
X-6675Y174084D01*
X-6704Y173997D01*
X-6713Y173929D01*
X-6723Y173871D01*
Y173822D01*
Y173813D01*
Y173725D01*
X-6704Y173638D01*
X-6655Y173473D01*
X-6578Y173318D01*
X-6500Y173192D01*
X-6422Y173095D01*
X-6345Y173017D01*
X-6296Y172969D01*
X-6286Y172949D01*
X-6277D01*
X-6189Y172881D01*
X-6092Y172823D01*
X-5879Y172736D01*
X-5656Y172668D01*
X-5442Y172629D01*
X-5248Y172600D01*
X-5171Y172590D01*
X-5093D01*
X-5035Y172581D01*
X-4947D01*
X-4656Y172600D01*
X-4394Y172649D01*
X-4171Y172707D01*
X-3977Y172784D01*
X-3900Y172823D01*
X-3832Y172862D01*
X-3764Y172891D01*
X-3715Y172920D01*
X-3676Y172949D01*
X-3647Y172969D01*
X-3638Y172988D01*
X-3628D01*
X-3541Y173075D01*
X-3463Y173163D01*
X-3327Y173367D01*
X-3211Y173590D01*
X-3123Y173803D01*
X-3065Y173997D01*
X-3036Y174075D01*
X-3017Y174152D01*
X-3007Y174211D01*
X-2997Y174259D01*
X-2988Y174288D01*
Y174298D01*
X-1231Y174123D01*
X-1270Y173852D01*
X-1328Y173590D01*
X-1396Y173357D01*
X-1474Y173134D01*
X-1561Y172930D01*
X-1648Y172736D01*
X-1745Y172571D01*
X-1842Y172416D01*
X-1930Y172280D01*
X-2017Y172163D01*
X-2104Y172066D01*
X-2172Y171979D01*
X-2231Y171921D01*
X-2279Y171872D01*
X-2308Y171843D01*
X-2318Y171833D01*
X-2502Y171698D01*
X-2696Y171581D01*
X-2900Y171474D01*
X-3114Y171387D01*
X-3327Y171310D01*
X-3541Y171251D01*
X-3754Y171193D01*
X-3968Y171154D01*
X-4162Y171125D01*
X-4346Y171096D01*
X-4511Y171077D01*
X-4647Y171067D01*
X-4763D01*
X-4850Y171057D01*
X-5142D01*
X-5345Y171067D01*
X-5549Y171086D01*
X-5724Y171106D01*
X-5898Y171135D01*
X-6063Y171154D01*
X-6209Y171183D01*
X-6345Y171222D01*
X-6461Y171251D01*
X-6568Y171280D01*
X-6665Y171300D01*
X-6743Y171329D01*
X-6801Y171348D01*
X-6840Y171368D01*
X-6869Y171377D01*
X-6878D01*
X-7160Y171513D01*
X-7402Y171668D01*
X-7606Y171843D01*
X-7781Y171998D01*
X-7916Y172144D01*
X-7965Y172212D01*
X-8013Y172270D01*
X-8043Y172309D01*
X-8072Y172348D01*
X-8091Y172367D01*
Y172377D01*
X-8169Y172503D01*
X-8237Y172639D01*
X-8343Y172891D01*
X-8421Y173134D01*
X-8470Y173357D01*
X-8489Y173454D01*
X-8508Y173541D01*
X-8518Y173629D01*
Y173696D01*
X-8528Y173745D01*
Y173793D01*
Y173813D01*
Y173822D01*
X-8508Y174123D01*
X-8470Y174405D01*
X-8411Y174647D01*
X-8382Y174754D01*
X-8353Y174851D01*
X-8314Y174938D01*
X-8285Y175016D01*
X-8256Y175084D01*
X-8227Y175142D01*
X-8198Y175191D01*
X-8188Y175220D01*
X-8169Y175239D01*
Y175249D01*
X-8023Y175453D01*
X-7858Y175637D01*
X-7693Y175792D01*
X-7538Y175928D01*
X-7393Y176025D01*
X-7276Y176103D01*
X-7228Y176122D01*
X-7199Y176141D01*
X-7179Y176161D01*
X-7169D01*
X-7043Y176219D01*
X-6907Y176287D01*
X-6752Y176345D01*
X-6597Y176404D01*
X-6277Y176510D01*
X-5957Y176607D01*
X-5811Y176646D01*
X-5665Y176685D01*
X-5549Y176724D01*
X-5433Y176753D01*
X-5345Y176772D01*
X-5277Y176792D01*
X-5239Y176801D01*
X-5219D01*
X-4986Y176859D01*
X-4773Y176918D01*
X-4579Y176976D01*
X-4404Y177034D01*
X-4249Y177083D01*
X-4113Y177131D01*
X-3997Y177180D01*
X-3900Y177218D01*
X-3812Y177257D01*
X-3735Y177296D01*
X-3676Y177325D01*
X-3638Y177354D01*
X-3599Y177374D01*
X-3579Y177393D01*
X-3560Y177403D01*
X-3473Y177490D01*
X-3405Y177577D01*
X-3366Y177675D01*
X-3327Y177762D01*
X-3308Y177830D01*
X-3298Y177898D01*
Y177936D01*
Y177946D01*
X-3308Y178072D01*
X-3347Y178179D01*
X-3385Y178276D01*
X-3444Y178354D01*
X-3492Y178412D01*
X-3541Y178461D01*
X-3570Y178490D01*
X-3579Y178499D01*
X-3764Y178606D01*
X-3958Y178693D01*
X-4171Y178752D01*
X-4365Y178790D01*
X-4550Y178810D01*
X-4627Y178820D01*
X-4695Y178829D01*
X-4821D01*
X-5093Y178820D01*
X-5326Y178781D01*
X-5520Y178732D01*
X-5685Y178674D01*
X-5811Y178616D01*
X-5898Y178567D01*
X-5947Y178528D01*
X-5966Y178519D01*
X-6102Y178393D01*
X-6209Y178237D01*
X-6296Y178072D01*
X-6364Y177917D01*
X-6413Y177772D01*
X-6432Y177704D01*
X-6451Y177645D01*
X-6461Y177607D01*
Y177568D01*
X-6471Y177548D01*
Y177539D01*
X-8275Y177607D01*
X-8256Y177830D01*
X-8227Y178043D01*
X-8178Y178247D01*
X-8111Y178431D01*
X-8043Y178606D01*
X-7965Y178771D01*
X-7887Y178916D01*
X-7810Y179052D01*
X-7722Y179169D01*
X-7645Y179275D01*
X-7577Y179373D01*
X-7509Y179440D01*
X-7451Y179499D01*
X-7412Y179547D01*
X-7383Y179567D01*
X-7373Y179576D01*
X-7208Y179712D01*
X-7024Y179819D01*
X-6820Y179926D01*
X-6616Y180013D01*
X-6413Y180081D01*
X-6199Y180139D01*
X-5986Y180188D01*
X-5792Y180226D01*
X-5598Y180265D01*
X-5413Y180285D01*
X-5258Y180304D01*
X-5112Y180314D01*
X-5006Y180323D01*
X-4841D01*
X-4462Y180314D01*
D02*
G37*
G36*
X-17086Y180304D02*
X-16717Y180265D01*
X-16552Y180236D01*
X-16387Y180207D01*
X-16242Y180178D01*
X-16106Y180149D01*
X-15979Y180110D01*
X-15873Y180081D01*
X-15776Y180052D01*
X-15698Y180023D01*
X-15640Y179993D01*
X-15591Y179984D01*
X-15562Y179964D01*
X-15553D01*
X-15320Y179858D01*
X-15106Y179732D01*
X-14902Y179596D01*
X-14738Y179460D01*
X-14592Y179343D01*
X-14534Y179295D01*
X-14485Y179246D01*
X-14447Y179208D01*
X-14417Y179179D01*
X-14398Y179169D01*
X-14388Y179159D01*
X-14204Y178946D01*
X-14039Y178742D01*
X-13893Y178528D01*
X-13777Y178344D01*
X-13690Y178169D01*
X-13651Y178102D01*
X-13622Y178043D01*
X-13593Y177995D01*
X-13573Y177956D01*
X-13563Y177936D01*
Y177927D01*
X-13496Y177752D01*
X-13428Y177558D01*
X-13331Y177180D01*
X-13253Y176792D01*
X-13234Y176607D01*
X-13204Y176433D01*
X-13195Y176258D01*
X-13175Y176112D01*
X-13166Y175977D01*
Y175860D01*
X-13156Y175763D01*
Y175686D01*
Y175647D01*
Y175627D01*
X-13166Y175239D01*
X-13204Y174870D01*
X-13263Y174521D01*
X-13340Y174201D01*
X-13428Y173900D01*
X-13525Y173629D01*
X-13631Y173376D01*
X-13748Y173153D01*
X-13855Y172949D01*
X-13961Y172775D01*
X-14058Y172619D01*
X-14146Y172493D01*
X-14223Y172396D01*
X-14282Y172328D01*
X-14320Y172290D01*
X-14330Y172270D01*
X-14563Y172057D01*
X-14806Y171872D01*
X-15058Y171707D01*
X-15320Y171572D01*
X-15582Y171455D01*
X-15853Y171358D01*
X-16106Y171271D01*
X-16358Y171213D01*
X-16591Y171154D01*
X-16804Y171125D01*
X-17008Y171096D01*
X-17173Y171077D01*
X-17309Y171067D01*
X-17415Y171057D01*
X-17503D01*
X-17862Y171067D01*
X-18211Y171106D01*
X-18531Y171174D01*
X-18832Y171251D01*
X-19114Y171339D01*
X-19375Y171445D01*
X-19608Y171552D01*
X-19822Y171668D01*
X-20016Y171785D01*
X-20181Y171892D01*
X-20326Y171998D01*
X-20443Y172086D01*
X-20540Y172163D01*
X-20598Y172231D01*
X-20647Y172270D01*
X-20656Y172280D01*
X-20870Y172522D01*
X-21044Y172775D01*
X-21209Y173046D01*
X-21345Y173328D01*
X-21452Y173609D01*
X-21549Y173890D01*
X-21627Y174172D01*
X-21695Y174434D01*
X-21743Y174686D01*
X-21782Y174929D01*
X-21801Y175132D01*
X-21821Y175317D01*
X-21830Y175472D01*
X-21840Y175530D01*
Y175579D01*
Y175618D01*
Y175647D01*
Y175666D01*
Y175676D01*
X-21830Y176074D01*
X-21792Y176452D01*
X-21733Y176801D01*
X-21656Y177131D01*
X-21568Y177432D01*
X-21462Y177713D01*
X-21355Y177975D01*
X-21248Y178199D01*
X-21132Y178412D01*
X-21025Y178587D01*
X-20928Y178742D01*
X-20831Y178868D01*
X-20753Y178965D01*
X-20695Y179033D01*
X-20656Y179081D01*
X-20647Y179091D01*
X-20414Y179305D01*
X-20171Y179499D01*
X-19919Y179664D01*
X-19657Y179799D01*
X-19385Y179926D01*
X-19123Y180023D01*
X-18871Y180100D01*
X-18619Y180168D01*
X-18386Y180217D01*
X-18172Y180256D01*
X-17978Y180285D01*
X-17813Y180304D01*
X-17678Y180314D01*
X-17571Y180323D01*
X-17484D01*
X-17086Y180304D01*
D02*
G37*
G36*
X61265Y163930D02*
Y160165D01*
X59460D01*
Y163920D01*
X56190Y169121D01*
X58266D01*
X60314Y165579D01*
X62409Y169121D01*
X64534D01*
X61265Y163930D01*
D02*
G37*
G36*
X26761Y160165D02*
X24957D01*
Y162862D01*
X23501Y164366D01*
X21027Y160165D01*
X18689D01*
X22250Y165637D01*
X18863Y169121D01*
X21299D01*
X24957Y165142D01*
Y169121D01*
X26761D01*
Y160165D01*
D02*
G37*
G36*
X32292Y169256D02*
X32622Y169218D01*
X32932Y169150D01*
X33223Y169072D01*
X33495Y168975D01*
X33738Y168878D01*
X33970Y168762D01*
X34174Y168645D01*
X34359Y168529D01*
X34524Y168422D01*
X34659Y168315D01*
X34776Y168218D01*
X34873Y168141D01*
X34931Y168082D01*
X34980Y168034D01*
X34989Y168024D01*
X35193Y167782D01*
X35368Y167520D01*
X35523Y167248D01*
X35649Y166967D01*
X35766Y166675D01*
X35853Y166384D01*
X35931Y166103D01*
X35989Y165822D01*
X36037Y165569D01*
X36076Y165327D01*
X36095Y165104D01*
X36115Y164919D01*
X36124Y164764D01*
X36134Y164706D01*
Y164648D01*
Y164609D01*
Y164580D01*
Y164560D01*
Y164551D01*
X36124Y164163D01*
X36086Y163804D01*
X36028Y163464D01*
X35960Y163144D01*
X35872Y162843D01*
X35775Y162571D01*
X35668Y162319D01*
X35562Y162096D01*
X35455Y161892D01*
X35348Y161717D01*
X35251Y161572D01*
X35164Y161446D01*
X35096Y161349D01*
X35038Y161281D01*
X34999Y161232D01*
X34989Y161222D01*
X34766Y161009D01*
X34533Y160825D01*
X34291Y160660D01*
X34048Y160524D01*
X33805Y160408D01*
X33563Y160310D01*
X33320Y160223D01*
X33097Y160165D01*
X32884Y160107D01*
X32680Y160078D01*
X32505Y160049D01*
X32360Y160029D01*
X32234Y160019D01*
X32137Y160010D01*
X32059D01*
X31797Y160019D01*
X31545Y160039D01*
X31302Y160078D01*
X31079Y160116D01*
X30866Y160175D01*
X30672Y160233D01*
X30487Y160301D01*
X30332Y160369D01*
X30177Y160427D01*
X30051Y160495D01*
X29944Y160553D01*
X29847Y160611D01*
X29779Y160650D01*
X29721Y160689D01*
X29692Y160708D01*
X29682Y160718D01*
X29507Y160863D01*
X29352Y161019D01*
X29206Y161184D01*
X29071Y161368D01*
X28954Y161543D01*
X28838Y161727D01*
X28741Y161911D01*
X28653Y162086D01*
X28576Y162251D01*
X28508Y162406D01*
X28459Y162552D01*
X28411Y162668D01*
X28372Y162775D01*
X28353Y162843D01*
X28333Y162891D01*
Y162911D01*
X30089Y163454D01*
X30138Y163279D01*
X30186Y163105D01*
X30245Y162950D01*
X30303Y162814D01*
X30371Y162678D01*
X30429Y162561D01*
X30497Y162455D01*
X30555Y162358D01*
X30613Y162280D01*
X30672Y162202D01*
X30720Y162144D01*
X30759Y162096D01*
X30798Y162057D01*
X30827Y162028D01*
X30837Y162018D01*
X30846Y162008D01*
X30943Y161931D01*
X31050Y161863D01*
X31254Y161747D01*
X31458Y161669D01*
X31651Y161611D01*
X31826Y161581D01*
X31894Y161562D01*
X31962D01*
X32011Y161552D01*
X32078D01*
X32253Y161562D01*
X32428Y161581D01*
X32593Y161620D01*
X32738Y161669D01*
X32884Y161717D01*
X33010Y161776D01*
X33136Y161843D01*
X33243Y161911D01*
X33340Y161979D01*
X33427Y162047D01*
X33495Y162106D01*
X33563Y162154D01*
X33602Y162202D01*
X33641Y162241D01*
X33660Y162261D01*
X33670Y162270D01*
X33776Y162416D01*
X33864Y162581D01*
X33951Y162756D01*
X34019Y162950D01*
X34077Y163153D01*
X34126Y163347D01*
X34194Y163745D01*
X34223Y163939D01*
X34242Y164114D01*
X34252Y164269D01*
X34262Y164415D01*
X34271Y164522D01*
Y164609D01*
Y164667D01*
Y164686D01*
X34262Y164977D01*
X34242Y165249D01*
X34213Y165492D01*
X34174Y165725D01*
X34126Y165938D01*
X34077Y166122D01*
X34019Y166297D01*
X33961Y166443D01*
X33912Y166579D01*
X33854Y166695D01*
X33805Y166792D01*
X33757Y166870D01*
X33718Y166928D01*
X33689Y166976D01*
X33670Y166996D01*
X33660Y167005D01*
X33544Y167132D01*
X33408Y167238D01*
X33282Y167335D01*
X33146Y167423D01*
X33010Y167491D01*
X32874Y167549D01*
X32738Y167597D01*
X32612Y167636D01*
X32496Y167665D01*
X32389Y167685D01*
X32292Y167704D01*
X32205Y167714D01*
X32137Y167723D01*
X32040D01*
X31778Y167704D01*
X31545Y167656D01*
X31341Y167597D01*
X31157Y167520D01*
X31011Y167442D01*
X30953Y167413D01*
X30904Y167384D01*
X30866Y167355D01*
X30837Y167335D01*
X30827Y167326D01*
X30817Y167316D01*
X30642Y167151D01*
X30497Y166976D01*
X30380Y166792D01*
X30293Y166617D01*
X30225Y166462D01*
X30196Y166394D01*
X30177Y166336D01*
X30167Y166287D01*
X30157Y166249D01*
X30148Y166229D01*
Y166220D01*
X28362Y166646D01*
X28421Y166840D01*
X28488Y167025D01*
X28566Y167190D01*
X28634Y167355D01*
X28712Y167500D01*
X28789Y167636D01*
X28867Y167752D01*
X28935Y167869D01*
X29012Y167966D01*
X29071Y168053D01*
X29129Y168121D01*
X29187Y168179D01*
X29226Y168228D01*
X29255Y168257D01*
X29274Y168276D01*
X29284Y168286D01*
X29488Y168461D01*
X29692Y168606D01*
X29915Y168742D01*
X30138Y168849D01*
X30361Y168946D01*
X30584Y169024D01*
X30798Y169091D01*
X31001Y169140D01*
X31195Y169188D01*
X31380Y169218D01*
X31545Y169237D01*
X31681Y169247D01*
X31797Y169256D01*
X31875Y169266D01*
X31952D01*
X32292Y169256D01*
D02*
G37*
G36*
X47554Y167607D02*
X44896D01*
Y160165D01*
X43091D01*
Y167607D01*
X40452D01*
Y169121D01*
X47554D01*
Y167607D01*
D02*
G37*
G36*
X39346Y160165D02*
X37541D01*
Y169121D01*
X39346D01*
Y160165D01*
D02*
G37*
G36*
X77070Y163318D02*
Y163124D01*
X77080Y162950D01*
X77090Y162785D01*
X77109Y162639D01*
X77129Y162503D01*
X77148Y162387D01*
X77177Y162280D01*
X77196Y162193D01*
X77216Y162115D01*
X77245Y162047D01*
X77264Y161999D01*
X77284Y161950D01*
X77303Y161921D01*
X77313Y161902D01*
X77323Y161882D01*
X77429Y161766D01*
X77565Y161688D01*
X77701Y161630D01*
X77847Y161581D01*
X77973Y161562D01*
X78079Y161552D01*
X78118Y161543D01*
X78176D01*
X78283Y161552D01*
X78390Y161562D01*
X78565Y161620D01*
X78720Y161698D01*
X78846Y161785D01*
X78943Y161873D01*
X79011Y161940D01*
X79059Y161999D01*
X79069Y162008D01*
Y162018D01*
X79108Y162086D01*
X79137Y162154D01*
X79186Y162329D01*
X79224Y162503D01*
X79254Y162688D01*
X79273Y162853D01*
X79283Y162920D01*
Y162988D01*
X79292Y163037D01*
Y163085D01*
Y163105D01*
Y163115D01*
X81000Y162920D01*
X80990Y162659D01*
X80971Y162416D01*
X80932Y162183D01*
X80884Y161970D01*
X80835Y161776D01*
X80777Y161601D01*
X80709Y161436D01*
X80641Y161290D01*
X80573Y161164D01*
X80505Y161048D01*
X80447Y160951D01*
X80398Y160873D01*
X80350Y160815D01*
X80311Y160776D01*
X80292Y160747D01*
X80282Y160737D01*
X80136Y160611D01*
X79991Y160495D01*
X79826Y160398D01*
X79661Y160310D01*
X79486Y160243D01*
X79321Y160184D01*
X79156Y160136D01*
X78991Y160097D01*
X78836Y160058D01*
X78700Y160039D01*
X78574Y160019D01*
X78458Y160010D01*
X78370D01*
X78303Y160000D01*
X78244D01*
X78041Y160010D01*
X77837Y160019D01*
X77653Y160039D01*
X77478Y160078D01*
X77323Y160107D01*
X77167Y160145D01*
X77031Y160194D01*
X76905Y160233D01*
X76799Y160281D01*
X76702Y160320D01*
X76614Y160359D01*
X76546Y160398D01*
X76488Y160427D01*
X76449Y160446D01*
X76430Y160456D01*
X76420Y160466D01*
X76294Y160563D01*
X76178Y160660D01*
X75984Y160863D01*
X75819Y161077D01*
X75683Y161271D01*
X75586Y161455D01*
X75547Y161533D01*
X75518Y161601D01*
X75498Y161649D01*
X75479Y161688D01*
X75469Y161717D01*
Y161727D01*
X75431Y161843D01*
X75401Y161970D01*
X75353Y162251D01*
X75314Y162532D01*
X75295Y162804D01*
X75285Y162930D01*
X75275Y163056D01*
Y163163D01*
X75266Y163250D01*
Y163328D01*
Y163386D01*
Y163425D01*
Y163435D01*
Y169121D01*
X77070D01*
Y163318D01*
D02*
G37*
G36*
X69784Y169247D02*
X70152Y169208D01*
X70317Y169179D01*
X70482Y169150D01*
X70628Y169121D01*
X70764Y169091D01*
X70890Y169053D01*
X70996Y169024D01*
X71093Y168995D01*
X71171Y168965D01*
X71229Y168936D01*
X71278Y168927D01*
X71307Y168907D01*
X71317D01*
X71549Y168800D01*
X71763Y168674D01*
X71967Y168538D01*
X72132Y168403D01*
X72277Y168286D01*
X72335Y168238D01*
X72384Y168189D01*
X72423Y168150D01*
X72452Y168121D01*
X72471Y168111D01*
X72481Y168102D01*
X72665Y167888D01*
X72830Y167685D01*
X72976Y167471D01*
X73092Y167287D01*
X73179Y167112D01*
X73218Y167044D01*
X73247Y166986D01*
X73277Y166938D01*
X73296Y166899D01*
X73306Y166879D01*
Y166870D01*
X73374Y166695D01*
X73442Y166501D01*
X73538Y166122D01*
X73616Y165734D01*
X73636Y165550D01*
X73665Y165375D01*
X73674Y165201D01*
X73694Y165055D01*
X73703Y164919D01*
Y164803D01*
X73713Y164706D01*
Y164628D01*
Y164589D01*
Y164570D01*
X73703Y164182D01*
X73665Y163813D01*
X73606Y163464D01*
X73529Y163144D01*
X73442Y162843D01*
X73344Y162571D01*
X73238Y162319D01*
X73121Y162096D01*
X73015Y161892D01*
X72908Y161717D01*
X72811Y161562D01*
X72723Y161436D01*
X72646Y161339D01*
X72588Y161271D01*
X72549Y161232D01*
X72539Y161213D01*
X72306Y160999D01*
X72064Y160815D01*
X71811Y160650D01*
X71549Y160514D01*
X71287Y160398D01*
X71016Y160301D01*
X70764Y160213D01*
X70511Y160155D01*
X70278Y160097D01*
X70065Y160068D01*
X69861Y160039D01*
X69696Y160019D01*
X69560Y160010D01*
X69454Y160000D01*
X69366D01*
X69007Y160010D01*
X68658Y160049D01*
X68338Y160116D01*
X68037Y160194D01*
X67756Y160281D01*
X67494Y160388D01*
X67261Y160495D01*
X67047Y160611D01*
X66853Y160728D01*
X66688Y160834D01*
X66543Y160941D01*
X66426Y161028D01*
X66329Y161106D01*
X66271Y161174D01*
X66223Y161213D01*
X66213Y161222D01*
X65999Y161465D01*
X65825Y161717D01*
X65660Y161989D01*
X65524Y162270D01*
X65417Y162552D01*
X65320Y162833D01*
X65243Y163115D01*
X65175Y163377D01*
X65126Y163629D01*
X65087Y163871D01*
X65068Y164075D01*
X65049Y164259D01*
X65039Y164415D01*
X65029Y164473D01*
Y164522D01*
Y164560D01*
Y164589D01*
Y164609D01*
Y164618D01*
X65039Y165016D01*
X65078Y165395D01*
X65136Y165744D01*
X65213Y166074D01*
X65301Y166375D01*
X65408Y166656D01*
X65514Y166918D01*
X65621Y167141D01*
X65738Y167355D01*
X65844Y167529D01*
X65941Y167685D01*
X66038Y167811D01*
X66116Y167908D01*
X66174Y167976D01*
X66213Y168024D01*
X66223Y168034D01*
X66455Y168247D01*
X66698Y168441D01*
X66950Y168606D01*
X67212Y168742D01*
X67484Y168868D01*
X67746Y168965D01*
X67998Y169043D01*
X68250Y169111D01*
X68483Y169159D01*
X68697Y169198D01*
X68891Y169227D01*
X69056Y169247D01*
X69192Y169256D01*
X69298Y169266D01*
X69386D01*
X69784Y169247D01*
D02*
G37*
G36*
X52512Y169256D02*
X52677Y169237D01*
X52852Y169218D01*
X53007Y169188D01*
X53153Y169169D01*
X53279Y169140D01*
X53405Y169111D01*
X53522Y169072D01*
X53619Y169043D01*
X53696Y169024D01*
X53774Y168995D01*
X53822Y168975D01*
X53871Y168956D01*
X53890Y168946D01*
X53900D01*
X54152Y168820D01*
X54385Y168674D01*
X54570Y168529D01*
X54735Y168383D01*
X54851Y168247D01*
X54948Y168141D01*
X54977Y168102D01*
X54997Y168073D01*
X55016Y168053D01*
Y168044D01*
X55142Y167820D01*
X55239Y167597D01*
X55307Y167374D01*
X55356Y167180D01*
X55385Y167015D01*
X55394Y166938D01*
Y166879D01*
X55404Y166831D01*
Y166792D01*
Y166772D01*
Y166763D01*
X55394Y166569D01*
X55365Y166384D01*
X55326Y166200D01*
X55278Y166035D01*
X55210Y165880D01*
X55142Y165725D01*
X55064Y165589D01*
X54987Y165463D01*
X54919Y165346D01*
X54841Y165249D01*
X54773Y165162D01*
X54705Y165094D01*
X54657Y165036D01*
X54618Y164997D01*
X54589Y164968D01*
X54579Y164958D01*
X54463Y164861D01*
X54327Y164774D01*
X54172Y164686D01*
X54016Y164599D01*
X53677Y164454D01*
X53337Y164318D01*
X53182Y164269D01*
X53036Y164221D01*
X52901Y164172D01*
X52775Y164143D01*
X52677Y164114D01*
X52610Y164095D01*
X52561Y164075D01*
X52542D01*
X52338Y164027D01*
X52154Y163978D01*
X51989Y163939D01*
X51843Y163901D01*
X51707Y163862D01*
X51591Y163833D01*
X51484Y163804D01*
X51397Y163774D01*
X51319Y163755D01*
X51261Y163736D01*
X51203Y163716D01*
X51164Y163706D01*
X51135Y163697D01*
X51115D01*
X51096Y163687D01*
X50931Y163619D01*
X50795Y163561D01*
X50688Y163493D01*
X50591Y163435D01*
X50533Y163377D01*
X50485Y163338D01*
X50456Y163309D01*
X50446Y163299D01*
X50378Y163212D01*
X50329Y163124D01*
X50300Y163027D01*
X50271Y162940D01*
X50262Y162872D01*
X50252Y162814D01*
Y162765D01*
Y162756D01*
Y162668D01*
X50271Y162581D01*
X50320Y162416D01*
X50397Y162261D01*
X50475Y162135D01*
X50553Y162038D01*
X50630Y161960D01*
X50679Y161911D01*
X50688Y161892D01*
X50698D01*
X50785Y161824D01*
X50883Y161766D01*
X51096Y161679D01*
X51319Y161611D01*
X51533Y161572D01*
X51727Y161543D01*
X51804Y161533D01*
X51882D01*
X51940Y161523D01*
X52027D01*
X52319Y161543D01*
X52580Y161591D01*
X52804Y161649D01*
X52998Y161727D01*
X53075Y161766D01*
X53143Y161805D01*
X53211Y161834D01*
X53260Y161863D01*
X53299Y161892D01*
X53328Y161911D01*
X53337Y161931D01*
X53347D01*
X53434Y162018D01*
X53512Y162106D01*
X53648Y162309D01*
X53764Y162532D01*
X53851Y162746D01*
X53910Y162940D01*
X53939Y163018D01*
X53958Y163095D01*
X53968Y163153D01*
X53978Y163202D01*
X53987Y163231D01*
Y163241D01*
X55744Y163066D01*
X55705Y162794D01*
X55647Y162532D01*
X55579Y162299D01*
X55501Y162076D01*
X55414Y161873D01*
X55326Y161679D01*
X55229Y161514D01*
X55132Y161358D01*
X55045Y161222D01*
X54958Y161106D01*
X54870Y161009D01*
X54802Y160922D01*
X54744Y160863D01*
X54696Y160815D01*
X54667Y160786D01*
X54657Y160776D01*
X54472Y160640D01*
X54278Y160524D01*
X54075Y160417D01*
X53861Y160330D01*
X53648Y160252D01*
X53434Y160194D01*
X53221Y160136D01*
X53007Y160097D01*
X52813Y160068D01*
X52629Y160039D01*
X52464Y160019D01*
X52328Y160010D01*
X52212D01*
X52124Y160000D01*
X51833D01*
X51630Y160010D01*
X51426Y160029D01*
X51251Y160049D01*
X51076Y160078D01*
X50912Y160097D01*
X50766Y160126D01*
X50630Y160165D01*
X50514Y160194D01*
X50407Y160223D01*
X50310Y160243D01*
X50232Y160272D01*
X50174Y160291D01*
X50135Y160310D01*
X50106Y160320D01*
X50097D01*
X49815Y160456D01*
X49573Y160611D01*
X49369Y160786D01*
X49194Y160941D01*
X49058Y161087D01*
X49010Y161155D01*
X48961Y161213D01*
X48932Y161252D01*
X48903Y161290D01*
X48884Y161310D01*
Y161320D01*
X48806Y161446D01*
X48738Y161581D01*
X48631Y161834D01*
X48554Y162076D01*
X48505Y162299D01*
X48486Y162397D01*
X48467Y162484D01*
X48457Y162571D01*
Y162639D01*
X48447Y162688D01*
Y162736D01*
Y162756D01*
Y162765D01*
X48467Y163066D01*
X48505Y163347D01*
X48563Y163590D01*
X48593Y163697D01*
X48622Y163794D01*
X48660Y163881D01*
X48690Y163959D01*
X48719Y164027D01*
X48748Y164085D01*
X48777Y164133D01*
X48787Y164163D01*
X48806Y164182D01*
Y164192D01*
X48952Y164395D01*
X49117Y164580D01*
X49282Y164735D01*
X49437Y164871D01*
X49582Y164968D01*
X49699Y165045D01*
X49747Y165065D01*
X49776Y165084D01*
X49796Y165104D01*
X49805D01*
X49932Y165162D01*
X50067Y165230D01*
X50223Y165288D01*
X50378Y165346D01*
X50698Y165453D01*
X51018Y165550D01*
X51164Y165589D01*
X51309Y165628D01*
X51426Y165666D01*
X51542Y165695D01*
X51630Y165715D01*
X51698Y165734D01*
X51736Y165744D01*
X51756D01*
X51989Y165802D01*
X52202Y165861D01*
X52396Y165919D01*
X52571Y165977D01*
X52726Y166025D01*
X52862Y166074D01*
X52978Y166122D01*
X53075Y166161D01*
X53163Y166200D01*
X53240Y166239D01*
X53299Y166268D01*
X53337Y166297D01*
X53376Y166317D01*
X53396Y166336D01*
X53415Y166346D01*
X53502Y166433D01*
X53570Y166520D01*
X53609Y166617D01*
X53648Y166705D01*
X53667Y166772D01*
X53677Y166840D01*
Y166879D01*
Y166889D01*
X53667Y167015D01*
X53628Y167122D01*
X53590Y167219D01*
X53531Y167297D01*
X53483Y167355D01*
X53434Y167403D01*
X53405Y167432D01*
X53396Y167442D01*
X53211Y167549D01*
X53017Y167636D01*
X52804Y167694D01*
X52610Y167733D01*
X52425Y167752D01*
X52348Y167762D01*
X52280Y167772D01*
X52154D01*
X51882Y167762D01*
X51649Y167723D01*
X51455Y167675D01*
X51290Y167617D01*
X51164Y167558D01*
X51076Y167510D01*
X51028Y167471D01*
X51009Y167461D01*
X50873Y167335D01*
X50766Y167180D01*
X50679Y167015D01*
X50611Y166860D01*
X50562Y166714D01*
X50543Y166646D01*
X50524Y166588D01*
X50514Y166549D01*
Y166511D01*
X50504Y166491D01*
Y166481D01*
X48699Y166549D01*
X48719Y166772D01*
X48748Y166986D01*
X48796Y167190D01*
X48864Y167374D01*
X48932Y167549D01*
X49010Y167714D01*
X49088Y167859D01*
X49165Y167995D01*
X49252Y168111D01*
X49330Y168218D01*
X49398Y168315D01*
X49466Y168383D01*
X49524Y168441D01*
X49563Y168490D01*
X49592Y168509D01*
X49602Y168519D01*
X49767Y168655D01*
X49951Y168762D01*
X50155Y168868D01*
X50359Y168956D01*
X50562Y169024D01*
X50776Y169082D01*
X50989Y169130D01*
X51183Y169169D01*
X51377Y169208D01*
X51562Y169227D01*
X51717Y169247D01*
X51863Y169256D01*
X51969Y169266D01*
X52134D01*
X52512Y169256D01*
D02*
G37*
G36*
X39526Y131848D02*
X39594Y131702D01*
X39759Y131431D01*
X39933Y131188D01*
X40118Y130975D01*
X40205Y130878D01*
X40283Y130800D01*
X40350Y130723D01*
X40418Y130664D01*
X40467Y130616D01*
X40506Y130587D01*
X40535Y130567D01*
X40545Y130557D01*
X40836Y130344D01*
X41107Y130169D01*
X41350Y130024D01*
X41563Y129917D01*
X41660Y129869D01*
X41748Y129830D01*
X41816Y129801D01*
X41884Y129772D01*
X41932Y129752D01*
X41971Y129742D01*
X41990Y129733D01*
X42000D01*
Y128171D01*
X41767Y128258D01*
X41544Y128345D01*
X41321Y128442D01*
X41117Y128549D01*
X40923Y128656D01*
X40739Y128763D01*
X40574Y128869D01*
X40418Y128976D01*
X40273Y129073D01*
X40156Y129170D01*
X40040Y129257D01*
X39953Y129325D01*
X39885Y129383D01*
X39827Y129432D01*
X39797Y129461D01*
X39788Y129471D01*
Y123019D01*
X38070D01*
Y132003D01*
X39467D01*
X39526Y131848D01*
D02*
G37*
G36*
X12164Y123019D02*
X10495D01*
Y128898D01*
X6866Y123019D01*
X5061D01*
Y131974D01*
X6730D01*
Y125958D01*
X10417Y131974D01*
X12164D01*
Y123019D01*
D02*
G37*
G36*
X28377Y125405D02*
X25001D01*
Y127123D01*
X28377D01*
Y125405D01*
D02*
G37*
G36*
X35800Y126317D02*
Y124823D01*
X32142D01*
Y123019D01*
X30483D01*
Y124823D01*
X29367D01*
Y126327D01*
X30483D01*
Y132003D01*
X31929D01*
X35800Y126317D01*
D02*
G37*
G36*
X24001Y123019D02*
X22197D01*
Y126395D01*
X20799D01*
X20586Y126405D01*
X20392D01*
X20208Y126414D01*
X20043Y126424D01*
X19887Y126434D01*
X19742Y126444D01*
X19616Y126463D01*
X19509Y126473D01*
X19412Y126482D01*
X19325Y126492D01*
X19257Y126502D01*
X19208Y126511D01*
X19169D01*
X19150Y126521D01*
X19140D01*
X18966Y126570D01*
X18791Y126628D01*
X18636Y126696D01*
X18500Y126764D01*
X18374Y126832D01*
X18286Y126890D01*
X18228Y126929D01*
X18218Y126938D01*
X18209D01*
X18044Y127074D01*
X17888Y127220D01*
X17762Y127365D01*
X17646Y127501D01*
X17559Y127627D01*
X17500Y127734D01*
X17471Y127773D01*
X17452Y127802D01*
X17442Y127812D01*
Y127821D01*
X17345Y128045D01*
X17268Y128277D01*
X17219Y128510D01*
X17180Y128724D01*
X17170Y128830D01*
X17161Y128918D01*
X17151Y129005D01*
X17141Y129073D01*
Y129131D01*
Y129170D01*
Y129199D01*
Y129209D01*
X17151Y129403D01*
X17161Y129597D01*
X17190Y129772D01*
X17219Y129937D01*
X17258Y130092D01*
X17306Y130237D01*
X17355Y130364D01*
X17403Y130490D01*
X17452Y130596D01*
X17500Y130684D01*
X17539Y130771D01*
X17588Y130839D01*
X17617Y130887D01*
X17646Y130926D01*
X17656Y130946D01*
X17665Y130955D01*
X17762Y131081D01*
X17869Y131188D01*
X17976Y131285D01*
X18092Y131382D01*
X18306Y131538D01*
X18510Y131654D01*
X18684Y131741D01*
X18762Y131770D01*
X18830Y131799D01*
X18878Y131819D01*
X18917Y131829D01*
X18946Y131838D01*
X18956D01*
X19062Y131858D01*
X19189Y131887D01*
X19334Y131906D01*
X19499Y131916D01*
X19674Y131926D01*
X19849Y131945D01*
X20217Y131955D01*
X20392Y131965D01*
X20547D01*
X20702Y131974D01*
X24001D01*
Y123019D01*
D02*
G37*
G36*
X15715D02*
X13910D01*
Y131974D01*
X15715D01*
Y123019D01*
D02*
G37*
G36*
X-47799Y121208D02*
X-47654Y121188D01*
X-47518Y121159D01*
X-47392Y121130D01*
X-47285Y121091D01*
X-47179Y121053D01*
X-47091Y121014D01*
X-47004Y120965D01*
X-46936Y120927D01*
X-46868Y120888D01*
X-46820Y120859D01*
X-46781Y120829D01*
X-46751Y120810D01*
X-46742Y120800D01*
X-46732Y120791D01*
X-46606Y120655D01*
X-46509Y120490D01*
X-46422Y120315D01*
X-46363Y120150D01*
X-46325Y119995D01*
X-46305Y119927D01*
X-46295Y119869D01*
X-46286Y119820D01*
X-46276Y119782D01*
Y119762D01*
Y119753D01*
X-47431Y119656D01*
X-47450Y119791D01*
X-47470Y119908D01*
X-47499Y120005D01*
X-47537Y120073D01*
X-47567Y120131D01*
X-47586Y120170D01*
X-47605Y120189D01*
X-47615Y120199D01*
X-47683Y120247D01*
X-47751Y120286D01*
X-47829Y120315D01*
X-47906Y120335D01*
X-47964Y120344D01*
X-48023Y120354D01*
X-48071D01*
X-48178Y120344D01*
X-48275Y120335D01*
X-48352Y120315D01*
X-48420Y120286D01*
X-48469Y120257D01*
X-48508Y120238D01*
X-48527Y120228D01*
X-48537Y120218D01*
X-48585Y120160D01*
X-48624Y120102D01*
X-48653Y120044D01*
X-48673Y119985D01*
X-48682Y119937D01*
X-48692Y119898D01*
Y119869D01*
Y119859D01*
X-48682Y119772D01*
X-48663Y119685D01*
X-48634Y119607D01*
X-48595Y119529D01*
X-48556Y119471D01*
X-48527Y119423D01*
X-48508Y119394D01*
X-48498Y119384D01*
X-48469Y119345D01*
X-48420Y119306D01*
X-48314Y119199D01*
X-48178Y119083D01*
X-48032Y118957D01*
X-47896Y118850D01*
X-47780Y118753D01*
X-47731Y118714D01*
X-47693Y118685D01*
X-47673Y118675D01*
X-47664Y118666D01*
X-47499Y118530D01*
X-47343Y118404D01*
X-47208Y118287D01*
X-47091Y118181D01*
X-46975Y118084D01*
X-46878Y117987D01*
X-46800Y117899D01*
X-46722Y117822D01*
X-46655Y117754D01*
X-46606Y117696D01*
X-46528Y117608D01*
X-46480Y117550D01*
X-46470Y117530D01*
X-46383Y117375D01*
X-46305Y117210D01*
X-46257Y117065D01*
X-46208Y116919D01*
X-46179Y116793D01*
X-46160Y116696D01*
Y116657D01*
X-46150Y116628D01*
Y116618D01*
Y116609D01*
X-49856D01*
Y117579D01*
X-47935D01*
X-48003Y117637D01*
X-48081Y117705D01*
X-48246Y117841D01*
X-48323Y117899D01*
X-48382Y117948D01*
X-48420Y117987D01*
X-48440Y117996D01*
X-48556Y118093D01*
X-48663Y118181D01*
X-48760Y118258D01*
X-48847Y118326D01*
X-48925Y118384D01*
X-48993Y118443D01*
X-49100Y118530D01*
X-49177Y118598D01*
X-49226Y118646D01*
X-49255Y118666D01*
X-49265Y118675D01*
X-49371Y118792D01*
X-49468Y118908D01*
X-49546Y119005D01*
X-49604Y119102D01*
X-49653Y119180D01*
X-49682Y119238D01*
X-49701Y119277D01*
X-49711Y119287D01*
X-49759Y119403D01*
X-49798Y119510D01*
X-49818Y119617D01*
X-49837Y119714D01*
X-49847Y119801D01*
X-49856Y119859D01*
Y119908D01*
Y119917D01*
Y120014D01*
X-49837Y120112D01*
X-49788Y120286D01*
X-49711Y120441D01*
X-49633Y120568D01*
X-49546Y120684D01*
X-49468Y120762D01*
X-49420Y120810D01*
X-49410Y120829D01*
X-49400D01*
X-49216Y120965D01*
X-49012Y121062D01*
X-48799Y121130D01*
X-48585Y121179D01*
X-48401Y121208D01*
X-48323Y121218D01*
X-48246D01*
X-48188Y121227D01*
X-47945D01*
X-47799Y121208D01*
D02*
G37*
G36*
X-16411Y121140D02*
X-16159Y121111D01*
X-15926Y121062D01*
X-15732Y121014D01*
X-15644Y120985D01*
X-15567Y120956D01*
X-15499Y120936D01*
X-15441Y120917D01*
X-15392Y120897D01*
X-15363Y120878D01*
X-15344Y120868D01*
X-15334D01*
X-15120Y120752D01*
X-14936Y120626D01*
X-14781Y120500D01*
X-14655Y120373D01*
X-14548Y120267D01*
X-14470Y120170D01*
X-14432Y120112D01*
X-14412Y120102D01*
Y120092D01*
X-14296Y119898D01*
X-14199Y119685D01*
X-14111Y119471D01*
X-14043Y119258D01*
X-13985Y119073D01*
X-13966Y118996D01*
X-13946Y118928D01*
X-13937Y118870D01*
X-13927Y118831D01*
X-13917Y118802D01*
Y118792D01*
X-15499Y118530D01*
X-15538Y118734D01*
X-15586Y118918D01*
X-15644Y119064D01*
X-15712Y119190D01*
X-15780Y119287D01*
X-15829Y119355D01*
X-15868Y119403D01*
X-15877Y119413D01*
X-16003Y119520D01*
X-16129Y119597D01*
X-16256Y119646D01*
X-16372Y119685D01*
X-16479Y119704D01*
X-16556Y119723D01*
X-16634D01*
X-16799Y119714D01*
X-16945Y119685D01*
X-17061Y119636D01*
X-17168Y119588D01*
X-17255Y119539D01*
X-17313Y119490D01*
X-17352Y119461D01*
X-17362Y119452D01*
X-17449Y119345D01*
X-17517Y119229D01*
X-17565Y119102D01*
X-17604Y118996D01*
X-17624Y118889D01*
X-17633Y118811D01*
Y118753D01*
Y118743D01*
Y118734D01*
X-17614Y118540D01*
X-17575Y118375D01*
X-17517Y118229D01*
X-17449Y118103D01*
X-17371Y118006D01*
X-17313Y117938D01*
X-17274Y117899D01*
X-17255Y117880D01*
X-17100Y117783D01*
X-16935Y117705D01*
X-16760Y117647D01*
X-16586Y117618D01*
X-16430Y117598D01*
X-16362D01*
X-16304Y117589D01*
X-16188D01*
X-16003Y116192D01*
X-16168Y116240D01*
X-16324Y116269D01*
X-16450Y116298D01*
X-16566Y116308D01*
X-16663Y116318D01*
X-16731Y116327D01*
X-16789D01*
X-16974Y116308D01*
X-17139Y116269D01*
X-17284Y116201D01*
X-17410Y116133D01*
X-17507Y116066D01*
X-17585Y115997D01*
X-17624Y115959D01*
X-17643Y115939D01*
X-17760Y115784D01*
X-17847Y115619D01*
X-17905Y115444D01*
X-17954Y115280D01*
X-17973Y115134D01*
X-17983Y115076D01*
Y115017D01*
X-17992Y114969D01*
Y114940D01*
Y114921D01*
Y114911D01*
X-17973Y114668D01*
X-17934Y114455D01*
X-17876Y114270D01*
X-17808Y114115D01*
X-17740Y113989D01*
X-17682Y113902D01*
X-17643Y113843D01*
X-17624Y113824D01*
X-17478Y113688D01*
X-17323Y113591D01*
X-17177Y113523D01*
X-17032Y113475D01*
X-16906Y113446D01*
X-16809Y113436D01*
X-16770Y113426D01*
X-16721D01*
X-16547Y113436D01*
X-16382Y113475D01*
X-16236Y113533D01*
X-16110Y113591D01*
X-16013Y113650D01*
X-15935Y113708D01*
X-15897Y113747D01*
X-15877Y113756D01*
X-15761Y113892D01*
X-15664Y114057D01*
X-15586Y114212D01*
X-15538Y114377D01*
X-15489Y114513D01*
X-15470Y114629D01*
X-15460Y114678D01*
X-15450Y114707D01*
Y114726D01*
Y114736D01*
X-13791Y114532D01*
X-13820Y114329D01*
X-13869Y114125D01*
X-13927Y113940D01*
X-13985Y113766D01*
X-14063Y113601D01*
X-14140Y113455D01*
X-14218Y113320D01*
X-14296Y113193D01*
X-14383Y113077D01*
X-14451Y112980D01*
X-14528Y112893D01*
X-14587Y112825D01*
X-14635Y112767D01*
X-14674Y112728D01*
X-14703Y112708D01*
X-14713Y112699D01*
X-14868Y112572D01*
X-15033Y112466D01*
X-15198Y112378D01*
X-15373Y112291D01*
X-15538Y112223D01*
X-15703Y112175D01*
X-15868Y112126D01*
X-16023Y112087D01*
X-16168Y112058D01*
X-16304Y112039D01*
X-16430Y112019D01*
X-16527Y112010D01*
X-16615D01*
X-16673Y112000D01*
X-16731D01*
X-16964Y112010D01*
X-17197Y112039D01*
X-17410Y112078D01*
X-17614Y112126D01*
X-17798Y112194D01*
X-17983Y112262D01*
X-18148Y112340D01*
X-18293Y112417D01*
X-18429Y112485D01*
X-18546Y112563D01*
X-18642Y112631D01*
X-18730Y112699D01*
X-18798Y112747D01*
X-18846Y112786D01*
X-18875Y112815D01*
X-18885Y112825D01*
X-19040Y112990D01*
X-19167Y113155D01*
X-19283Y113320D01*
X-19380Y113494D01*
X-19467Y113659D01*
X-19535Y113824D01*
X-19593Y113989D01*
X-19642Y114144D01*
X-19681Y114290D01*
X-19700Y114416D01*
X-19720Y114532D01*
X-19739Y114639D01*
Y114717D01*
X-19749Y114785D01*
Y114824D01*
Y114833D01*
X-19739Y114979D01*
X-19729Y115124D01*
X-19681Y115396D01*
X-19603Y115629D01*
X-19516Y115833D01*
X-19477Y115920D01*
X-19428Y115997D01*
X-19390Y116066D01*
X-19361Y116124D01*
X-19322Y116163D01*
X-19302Y116192D01*
X-19293Y116211D01*
X-19283Y116221D01*
X-19196Y116327D01*
X-19099Y116425D01*
X-18905Y116580D01*
X-18701Y116715D01*
X-18497Y116813D01*
X-18332Y116881D01*
X-18254Y116910D01*
X-18187Y116929D01*
X-18138Y116948D01*
X-18099Y116958D01*
X-18070Y116968D01*
X-18060D01*
X-18283Y117104D01*
X-18487Y117249D01*
X-18662Y117404D01*
X-18807Y117560D01*
X-18934Y117715D01*
X-19040Y117870D01*
X-19118Y118025D01*
X-19186Y118171D01*
X-19244Y118307D01*
X-19283Y118443D01*
X-19312Y118559D01*
X-19331Y118656D01*
X-19341Y118734D01*
X-19351Y118802D01*
Y118841D01*
Y118850D01*
X-19341Y119005D01*
X-19322Y119151D01*
X-19293Y119297D01*
X-19254Y119432D01*
X-19147Y119685D01*
X-19031Y119898D01*
X-18972Y119995D01*
X-18914Y120082D01*
X-18856Y120160D01*
X-18807Y120218D01*
X-18769Y120267D01*
X-18740Y120306D01*
X-18720Y120325D01*
X-18711Y120335D01*
X-18565Y120480D01*
X-18410Y120606D01*
X-18245Y120713D01*
X-18070Y120810D01*
X-17905Y120888D01*
X-17740Y120956D01*
X-17575Y121004D01*
X-17410Y121053D01*
X-17265Y121082D01*
X-17129Y121111D01*
X-17003Y121121D01*
X-16896Y121140D01*
X-16809D01*
X-16741Y121150D01*
X-16683D01*
X-16411Y121140D01*
D02*
G37*
G36*
X39050D02*
X39264Y121121D01*
X39467Y121091D01*
X39652Y121053D01*
X39836Y121004D01*
X40001Y120956D01*
X40147Y120897D01*
X40292Y120839D01*
X40418Y120781D01*
X40525Y120723D01*
X40622Y120674D01*
X40700Y120626D01*
X40758Y120587D01*
X40806Y120558D01*
X40836Y120538D01*
X40845Y120529D01*
X40991Y120403D01*
X41117Y120267D01*
X41233Y120112D01*
X41330Y119947D01*
X41418Y119782D01*
X41495Y119607D01*
X41563Y119442D01*
X41622Y119277D01*
X41670Y119122D01*
X41709Y118976D01*
X41738Y118841D01*
X41757Y118724D01*
X41777Y118627D01*
X41786Y118549D01*
X41796Y118511D01*
Y118491D01*
X40089Y118326D01*
X40079Y118462D01*
X40059Y118588D01*
X40011Y118811D01*
X39953Y118996D01*
X39894Y119141D01*
X39827Y119258D01*
X39778Y119335D01*
X39739Y119374D01*
X39729Y119394D01*
X39603Y119500D01*
X39458Y119588D01*
X39312Y119646D01*
X39176Y119685D01*
X39050Y119704D01*
X38953Y119723D01*
X38866D01*
X38672Y119714D01*
X38507Y119675D01*
X38361Y119626D01*
X38235Y119568D01*
X38138Y119510D01*
X38070Y119461D01*
X38022Y119423D01*
X38012Y119413D01*
X37905Y119287D01*
X37828Y119141D01*
X37779Y118996D01*
X37740Y118860D01*
X37721Y118724D01*
X37702Y118627D01*
Y118588D01*
Y118559D01*
Y118540D01*
Y118530D01*
X37721Y118336D01*
X37760Y118142D01*
X37818Y117967D01*
X37876Y117812D01*
X37944Y117676D01*
X38002Y117569D01*
X38031Y117531D01*
X38041Y117501D01*
X38061Y117492D01*
Y117482D01*
X38119Y117404D01*
X38196Y117307D01*
X38293Y117201D01*
X38391Y117094D01*
X38623Y116851D01*
X38876Y116609D01*
X38992Y116492D01*
X39109Y116376D01*
X39206Y116279D01*
X39303Y116192D01*
X39380Y116124D01*
X39438Y116066D01*
X39477Y116027D01*
X39487Y116017D01*
X39749Y115774D01*
X39982Y115541D01*
X40205Y115318D01*
X40399Y115115D01*
X40574Y114930D01*
X40729Y114746D01*
X40874Y114591D01*
X40991Y114445D01*
X41098Y114309D01*
X41185Y114202D01*
X41263Y114096D01*
X41321Y114018D01*
X41360Y113960D01*
X41398Y113911D01*
X41408Y113882D01*
X41418Y113873D01*
X41583Y113572D01*
X41709Y113271D01*
X41816Y112980D01*
X41893Y112718D01*
X41922Y112602D01*
X41942Y112495D01*
X41961Y112398D01*
X41981Y112320D01*
X41990Y112252D01*
Y112204D01*
X42000Y112175D01*
Y112165D01*
X35984D01*
Y113756D01*
X39400D01*
X39283Y113921D01*
X39225Y113999D01*
X39176Y114076D01*
X39128Y114135D01*
X39089Y114183D01*
X39060Y114212D01*
X39050Y114222D01*
X39002Y114270D01*
X38944Y114338D01*
X38876Y114406D01*
X38798Y114484D01*
X38633Y114649D01*
X38458Y114814D01*
X38293Y114969D01*
X38216Y115037D01*
X38148Y115095D01*
X38099Y115144D01*
X38061Y115183D01*
X38031Y115202D01*
X38022Y115212D01*
X37876Y115347D01*
X37740Y115474D01*
X37614Y115600D01*
X37498Y115706D01*
X37401Y115813D01*
X37304Y115900D01*
X37226Y115988D01*
X37149Y116066D01*
X37042Y116192D01*
X36955Y116279D01*
X36916Y116337D01*
X36896Y116356D01*
X36731Y116580D01*
X36586Y116793D01*
X36469Y116987D01*
X36372Y117152D01*
X36304Y117298D01*
X36275Y117356D01*
X36246Y117404D01*
X36227Y117443D01*
X36217Y117482D01*
X36207Y117492D01*
Y117501D01*
X36130Y117705D01*
X36081Y117909D01*
X36042Y118103D01*
X36013Y118287D01*
X35994Y118433D01*
Y118501D01*
X35984Y118549D01*
Y118598D01*
Y118627D01*
Y118646D01*
Y118656D01*
X35994Y118850D01*
X36013Y119035D01*
X36052Y119209D01*
X36101Y119384D01*
X36159Y119539D01*
X36227Y119685D01*
X36295Y119820D01*
X36363Y119937D01*
X36440Y120053D01*
X36508Y120150D01*
X36576Y120238D01*
X36634Y120306D01*
X36683Y120354D01*
X36722Y120403D01*
X36741Y120422D01*
X36751Y120432D01*
X36896Y120558D01*
X37061Y120665D01*
X37226Y120762D01*
X37391Y120849D01*
X37566Y120917D01*
X37740Y120975D01*
X37905Y121024D01*
X38070Y121062D01*
X38226Y121091D01*
X38371Y121111D01*
X38497Y121130D01*
X38604Y121140D01*
X38701Y121150D01*
X38827D01*
X39050Y121140D01*
D02*
G37*
G36*
X802D02*
X1015Y121121D01*
X1219Y121091D01*
X1403Y121053D01*
X1588Y121004D01*
X1753Y120956D01*
X1898Y120897D01*
X2044Y120839D01*
X2170Y120781D01*
X2277Y120723D01*
X2374Y120674D01*
X2451Y120626D01*
X2510Y120587D01*
X2558Y120558D01*
X2587Y120538D01*
X2597Y120529D01*
X2742Y120403D01*
X2869Y120267D01*
X2985Y120112D01*
X3082Y119947D01*
X3169Y119782D01*
X3247Y119607D01*
X3315Y119442D01*
X3373Y119277D01*
X3422Y119122D01*
X3460Y118976D01*
X3490Y118841D01*
X3509Y118724D01*
X3528Y118627D01*
X3538Y118549D01*
X3548Y118511D01*
Y118491D01*
X1840Y118326D01*
X1830Y118462D01*
X1811Y118588D01*
X1762Y118811D01*
X1704Y118996D01*
X1646Y119141D01*
X1578Y119258D01*
X1530Y119335D01*
X1491Y119374D01*
X1481Y119394D01*
X1355Y119500D01*
X1209Y119588D01*
X1064Y119646D01*
X928Y119685D01*
X802Y119704D01*
X705Y119723D01*
X617D01*
X424Y119714D01*
X258Y119675D01*
X113Y119626D01*
X-13Y119568D01*
X-110Y119510D01*
X-178Y119461D01*
X-227Y119423D01*
X-236Y119413D01*
X-343Y119287D01*
X-421Y119141D01*
X-469Y118996D01*
X-508Y118860D01*
X-527Y118724D01*
X-547Y118627D01*
Y118588D01*
Y118559D01*
Y118540D01*
Y118530D01*
X-527Y118336D01*
X-489Y118142D01*
X-430Y117967D01*
X-372Y117812D01*
X-304Y117676D01*
X-246Y117569D01*
X-217Y117531D01*
X-207Y117501D01*
X-188Y117492D01*
Y117482D01*
X-130Y117404D01*
X-52Y117307D01*
X45Y117201D01*
X142Y117094D01*
X375Y116851D01*
X627Y116609D01*
X744Y116492D01*
X860Y116376D01*
X957Y116279D01*
X1054Y116192D01*
X1132Y116124D01*
X1190Y116066D01*
X1229Y116027D01*
X1239Y116017D01*
X1500Y115774D01*
X1733Y115541D01*
X1956Y115318D01*
X2151Y115115D01*
X2325Y114930D01*
X2481Y114746D01*
X2626Y114591D01*
X2742Y114445D01*
X2849Y114309D01*
X2937Y114202D01*
X3014Y114096D01*
X3072Y114018D01*
X3111Y113960D01*
X3150Y113911D01*
X3160Y113882D01*
X3169Y113873D01*
X3334Y113572D01*
X3460Y113271D01*
X3567Y112980D01*
X3645Y112718D01*
X3674Y112602D01*
X3693Y112495D01*
X3713Y112398D01*
X3732Y112320D01*
X3742Y112252D01*
Y112204D01*
X3751Y112175D01*
Y112165D01*
X-2264D01*
Y113756D01*
X1151D01*
X1035Y113921D01*
X976Y113999D01*
X928Y114076D01*
X879Y114135D01*
X841Y114183D01*
X812Y114212D01*
X802Y114222D01*
X753Y114270D01*
X695Y114338D01*
X627Y114406D01*
X550Y114484D01*
X385Y114649D01*
X210Y114814D01*
X45Y114969D01*
X-33Y115037D01*
X-100Y115095D01*
X-149Y115144D01*
X-188Y115183D01*
X-217Y115202D01*
X-227Y115212D01*
X-372Y115347D01*
X-508Y115474D01*
X-634Y115600D01*
X-751Y115706D01*
X-848Y115813D01*
X-945Y115900D01*
X-1022Y115988D01*
X-1100Y116066D01*
X-1207Y116192D01*
X-1294Y116279D01*
X-1333Y116337D01*
X-1352Y116356D01*
X-1517Y116580D01*
X-1663Y116793D01*
X-1779Y116987D01*
X-1876Y117152D01*
X-1944Y117298D01*
X-1973Y117356D01*
X-2002Y117404D01*
X-2022Y117443D01*
X-2031Y117482D01*
X-2041Y117492D01*
Y117501D01*
X-2119Y117705D01*
X-2167Y117909D01*
X-2206Y118103D01*
X-2235Y118287D01*
X-2254Y118433D01*
Y118501D01*
X-2264Y118549D01*
Y118598D01*
Y118627D01*
Y118646D01*
Y118656D01*
X-2254Y118850D01*
X-2235Y119035D01*
X-2196Y119209D01*
X-2148Y119384D01*
X-2090Y119539D01*
X-2022Y119685D01*
X-1954Y119820D01*
X-1886Y119937D01*
X-1808Y120053D01*
X-1740Y120150D01*
X-1672Y120238D01*
X-1614Y120306D01*
X-1566Y120354D01*
X-1527Y120403D01*
X-1507Y120422D01*
X-1498Y120432D01*
X-1352Y120558D01*
X-1187Y120665D01*
X-1022Y120762D01*
X-857Y120849D01*
X-683Y120917D01*
X-508Y120975D01*
X-343Y121024D01*
X-178Y121062D01*
X-23Y121091D01*
X123Y121111D01*
X249Y121130D01*
X355Y121140D01*
X453Y121150D01*
X579D01*
X802Y121140D01*
D02*
G37*
G36*
X34597Y116337D02*
X33209Y116143D01*
X33103Y116259D01*
X32986Y116356D01*
X32870Y116444D01*
X32753Y116522D01*
X32647Y116580D01*
X32530Y116638D01*
X32326Y116715D01*
X32142Y116754D01*
X32074Y116774D01*
X32006Y116784D01*
X31948Y116793D01*
X31773D01*
X31667Y116774D01*
X31482Y116725D01*
X31317Y116657D01*
X31181Y116589D01*
X31065Y116512D01*
X30987Y116444D01*
X30939Y116395D01*
X30919Y116386D01*
Y116376D01*
X30793Y116201D01*
X30696Y116007D01*
X30628Y115803D01*
X30589Y115600D01*
X30560Y115415D01*
X30551Y115338D01*
Y115270D01*
X30541Y115212D01*
Y115173D01*
Y115144D01*
Y115134D01*
Y114979D01*
X30560Y114824D01*
X30580Y114688D01*
X30599Y114552D01*
X30628Y114435D01*
X30657Y114329D01*
X30696Y114232D01*
X30725Y114144D01*
X30764Y114067D01*
X30803Y113999D01*
X30832Y113940D01*
X30861Y113892D01*
X30881Y113863D01*
X30900Y113834D01*
X30919Y113824D01*
Y113814D01*
X30987Y113737D01*
X31065Y113669D01*
X31220Y113562D01*
X31366Y113484D01*
X31511Y113436D01*
X31637Y113397D01*
X31744Y113387D01*
X31783Y113378D01*
X31831D01*
X32006Y113397D01*
X32161Y113436D01*
X32307Y113484D01*
X32423Y113552D01*
X32530Y113611D01*
X32598Y113669D01*
X32647Y113708D01*
X32666Y113717D01*
X32782Y113853D01*
X32879Y114009D01*
X32957Y114154D01*
X33015Y114309D01*
X33054Y114435D01*
X33073Y114542D01*
X33083Y114581D01*
X33093Y114610D01*
Y114629D01*
Y114639D01*
X34801Y114455D01*
X34762Y114251D01*
X34723Y114057D01*
X34665Y113873D01*
X34597Y113698D01*
X34519Y113543D01*
X34441Y113397D01*
X34364Y113261D01*
X34286Y113135D01*
X34209Y113028D01*
X34131Y112931D01*
X34063Y112854D01*
X34005Y112786D01*
X33947Y112728D01*
X33908Y112689D01*
X33888Y112669D01*
X33879Y112660D01*
X33723Y112543D01*
X33568Y112446D01*
X33403Y112359D01*
X33229Y112281D01*
X33064Y112213D01*
X32889Y112165D01*
X32569Y112087D01*
X32423Y112058D01*
X32287Y112039D01*
X32161Y112019D01*
X32055Y112010D01*
X31967Y112000D01*
X31851D01*
X31569Y112010D01*
X31298Y112049D01*
X31045Y112107D01*
X30813Y112184D01*
X30599Y112272D01*
X30405Y112378D01*
X30221Y112485D01*
X30056Y112592D01*
X29910Y112699D01*
X29784Y112805D01*
X29677Y112912D01*
X29590Y112999D01*
X29513Y113077D01*
X29464Y113135D01*
X29435Y113174D01*
X29425Y113184D01*
X29309Y113349D01*
X29212Y113523D01*
X29124Y113688D01*
X29047Y113863D01*
X28988Y114028D01*
X28930Y114193D01*
X28891Y114348D01*
X28853Y114503D01*
X28833Y114639D01*
X28814Y114765D01*
X28795Y114882D01*
X28785Y114979D01*
X28775Y115056D01*
Y115115D01*
Y115153D01*
Y115163D01*
X28785Y115406D01*
X28814Y115639D01*
X28853Y115852D01*
X28901Y116066D01*
X28959Y116250D01*
X29027Y116434D01*
X29105Y116599D01*
X29173Y116745D01*
X29251Y116881D01*
X29328Y116997D01*
X29396Y117094D01*
X29454Y117172D01*
X29503Y117240D01*
X29542Y117288D01*
X29571Y117317D01*
X29580Y117327D01*
X29736Y117472D01*
X29891Y117598D01*
X30056Y117715D01*
X30221Y117812D01*
X30386Y117890D01*
X30541Y117957D01*
X30696Y118016D01*
X30851Y118055D01*
X30987Y118093D01*
X31113Y118113D01*
X31230Y118132D01*
X31327Y118152D01*
X31414D01*
X31472Y118161D01*
X31521D01*
X31744Y118152D01*
X31958Y118113D01*
X32152Y118074D01*
X32336Y118016D01*
X32482Y117967D01*
X32540Y117938D01*
X32598Y117919D01*
X32637Y117899D01*
X32666Y117880D01*
X32685Y117870D01*
X32695D01*
X32423Y119394D01*
X29173D01*
Y121004D01*
X33714D01*
X34597Y116337D01*
D02*
G37*
G36*
X24166D02*
X22779Y116143D01*
X22672Y116259D01*
X22556Y116356D01*
X22439Y116444D01*
X22323Y116522D01*
X22216Y116580D01*
X22099Y116638D01*
X21896Y116715D01*
X21711Y116754D01*
X21644Y116774D01*
X21576Y116784D01*
X21517Y116793D01*
X21343D01*
X21236Y116774D01*
X21052Y116725D01*
X20887Y116657D01*
X20751Y116589D01*
X20634Y116512D01*
X20557Y116444D01*
X20508Y116395D01*
X20489Y116386D01*
Y116376D01*
X20363Y116201D01*
X20266Y116007D01*
X20198Y115803D01*
X20159Y115600D01*
X20130Y115415D01*
X20120Y115338D01*
Y115270D01*
X20110Y115212D01*
Y115173D01*
Y115144D01*
Y115134D01*
Y114979D01*
X20130Y114824D01*
X20149Y114688D01*
X20169Y114552D01*
X20198Y114435D01*
X20227Y114329D01*
X20266Y114232D01*
X20295Y114144D01*
X20334Y114067D01*
X20372Y113999D01*
X20401Y113940D01*
X20431Y113892D01*
X20450Y113863D01*
X20470Y113834D01*
X20489Y113824D01*
Y113814D01*
X20557Y113737D01*
X20634Y113669D01*
X20790Y113562D01*
X20935Y113484D01*
X21081Y113436D01*
X21207Y113397D01*
X21314Y113387D01*
X21352Y113378D01*
X21401D01*
X21576Y113397D01*
X21731Y113436D01*
X21876Y113484D01*
X21993Y113552D01*
X22099Y113611D01*
X22167Y113669D01*
X22216Y113708D01*
X22235Y113717D01*
X22352Y113853D01*
X22449Y114009D01*
X22526Y114154D01*
X22585Y114309D01*
X22624Y114435D01*
X22643Y114542D01*
X22653Y114581D01*
X22662Y114610D01*
Y114629D01*
Y114639D01*
X24370Y114455D01*
X24331Y114251D01*
X24292Y114057D01*
X24234Y113873D01*
X24166Y113698D01*
X24089Y113543D01*
X24011Y113397D01*
X23933Y113261D01*
X23856Y113135D01*
X23778Y113028D01*
X23700Y112931D01*
X23633Y112854D01*
X23574Y112786D01*
X23516Y112728D01*
X23477Y112689D01*
X23458Y112669D01*
X23448Y112660D01*
X23293Y112543D01*
X23138Y112446D01*
X22973Y112359D01*
X22798Y112281D01*
X22633Y112213D01*
X22459Y112165D01*
X22138Y112087D01*
X21993Y112058D01*
X21857Y112039D01*
X21731Y112019D01*
X21624Y112010D01*
X21537Y112000D01*
X21420D01*
X21139Y112010D01*
X20867Y112049D01*
X20615Y112107D01*
X20382Y112184D01*
X20169Y112272D01*
X19975Y112378D01*
X19790Y112485D01*
X19625Y112592D01*
X19480Y112699D01*
X19354Y112805D01*
X19247Y112912D01*
X19160Y112999D01*
X19082Y113077D01*
X19033Y113135D01*
X19004Y113174D01*
X18995Y113184D01*
X18878Y113349D01*
X18781Y113523D01*
X18694Y113688D01*
X18616Y113863D01*
X18558Y114028D01*
X18500Y114193D01*
X18461Y114348D01*
X18422Y114503D01*
X18403Y114639D01*
X18383Y114765D01*
X18364Y114882D01*
X18354Y114979D01*
X18345Y115056D01*
Y115115D01*
Y115153D01*
Y115163D01*
X18354Y115406D01*
X18383Y115639D01*
X18422Y115852D01*
X18471Y116066D01*
X18529Y116250D01*
X18597Y116434D01*
X18674Y116599D01*
X18742Y116745D01*
X18820Y116881D01*
X18898Y116997D01*
X18966Y117094D01*
X19024Y117172D01*
X19072Y117240D01*
X19111Y117288D01*
X19140Y117317D01*
X19150Y117327D01*
X19305Y117472D01*
X19460Y117598D01*
X19625Y117715D01*
X19790Y117812D01*
X19955Y117890D01*
X20110Y117957D01*
X20266Y118016D01*
X20421Y118055D01*
X20557Y118093D01*
X20683Y118113D01*
X20799Y118132D01*
X20896Y118152D01*
X20984D01*
X21042Y118161D01*
X21090D01*
X21314Y118152D01*
X21527Y118113D01*
X21721Y118074D01*
X21906Y118016D01*
X22051Y117967D01*
X22109Y117938D01*
X22167Y117919D01*
X22206Y117899D01*
X22235Y117880D01*
X22255Y117870D01*
X22264D01*
X21993Y119394D01*
X18742D01*
Y121004D01*
X23283D01*
X24166Y116337D01*
D02*
G37*
G36*
X-27909Y118792D02*
X-27695Y118753D01*
X-27501Y118705D01*
X-27307Y118637D01*
X-27132Y118559D01*
X-26967Y118472D01*
X-26812Y118384D01*
X-26676Y118287D01*
X-26550Y118190D01*
X-26434Y118093D01*
X-26337Y118006D01*
X-26259Y117928D01*
X-26191Y117860D01*
X-26143Y117812D01*
X-26114Y117773D01*
X-26104Y117763D01*
Y118656D01*
X-24522D01*
Y112165D01*
X-26240D01*
Y115318D01*
Y115483D01*
X-26249Y115639D01*
Y115784D01*
X-26259Y115920D01*
X-26269Y116036D01*
X-26279Y116153D01*
X-26298Y116250D01*
X-26308Y116337D01*
X-26317Y116405D01*
X-26337Y116473D01*
X-26347Y116531D01*
X-26356Y116570D01*
X-26366Y116609D01*
Y116628D01*
X-26376Y116648D01*
X-26434Y116793D01*
X-26502Y116919D01*
X-26579Y117026D01*
X-26647Y117113D01*
X-26715Y117181D01*
X-26774Y117230D01*
X-26812Y117259D01*
X-26822Y117269D01*
X-26948Y117346D01*
X-27074Y117395D01*
X-27191Y117434D01*
X-27297Y117463D01*
X-27394Y117482D01*
X-27472Y117492D01*
X-27540D01*
X-27656Y117482D01*
X-27763Y117472D01*
X-27850Y117453D01*
X-27928Y117424D01*
X-27986Y117395D01*
X-28025Y117375D01*
X-28054Y117366D01*
X-28064Y117356D01*
X-28132Y117298D01*
X-28190Y117230D01*
X-28277Y117094D01*
X-28307Y117036D01*
X-28326Y116987D01*
X-28345Y116948D01*
Y116939D01*
X-28365Y116881D01*
X-28374Y116813D01*
X-28394Y116725D01*
X-28403Y116638D01*
X-28423Y116434D01*
X-28433Y116230D01*
X-28442Y116036D01*
Y115949D01*
Y115871D01*
Y115803D01*
Y115755D01*
Y115726D01*
Y115716D01*
Y112165D01*
X-30160D01*
Y115280D01*
Y115444D01*
X-30169Y115600D01*
Y115745D01*
X-30179Y115881D01*
X-30189Y115997D01*
X-30199Y116104D01*
X-30218Y116211D01*
X-30228Y116298D01*
X-30237Y116376D01*
X-30257Y116434D01*
X-30266Y116492D01*
X-30276Y116541D01*
X-30286Y116570D01*
Y116599D01*
X-30296Y116618D01*
X-30354Y116774D01*
X-30422Y116900D01*
X-30499Y117016D01*
X-30577Y117104D01*
X-30645Y117171D01*
X-30703Y117230D01*
X-30742Y117259D01*
X-30752Y117269D01*
X-30878Y117346D01*
X-30994Y117395D01*
X-31111Y117434D01*
X-31208Y117463D01*
X-31305Y117482D01*
X-31373Y117492D01*
X-31431D01*
X-31606Y117472D01*
X-31751Y117434D01*
X-31877Y117375D01*
X-31984Y117307D01*
X-32062Y117240D01*
X-32110Y117181D01*
X-32149Y117142D01*
X-32159Y117123D01*
X-32188Y117065D01*
X-32217Y116987D01*
X-32246Y116900D01*
X-32265Y116812D01*
X-32294Y116599D01*
X-32324Y116395D01*
X-32333Y116192D01*
Y116104D01*
X-32343Y116027D01*
Y115959D01*
Y115910D01*
Y115881D01*
Y115871D01*
Y112165D01*
X-34060D01*
Y116308D01*
Y116473D01*
X-34051Y116638D01*
X-34041Y116783D01*
X-34031Y116910D01*
X-34021Y117036D01*
X-34002Y117142D01*
X-33983Y117240D01*
X-33973Y117337D01*
X-33954Y117414D01*
X-33934Y117472D01*
X-33915Y117530D01*
X-33905Y117579D01*
X-33895Y117608D01*
X-33886Y117637D01*
X-33876Y117657D01*
X-33779Y117851D01*
X-33663Y118025D01*
X-33536Y118171D01*
X-33420Y118297D01*
X-33303Y118384D01*
X-33216Y118452D01*
X-33158Y118501D01*
X-33148Y118511D01*
X-33138D01*
X-32945Y118608D01*
X-32741Y118675D01*
X-32537Y118734D01*
X-32353Y118763D01*
X-32188Y118782D01*
X-32120Y118792D01*
X-32052Y118802D01*
X-31935D01*
X-31732Y118792D01*
X-31538Y118763D01*
X-31353Y118714D01*
X-31198Y118675D01*
X-31062Y118627D01*
X-30965Y118579D01*
X-30926Y118569D01*
X-30897Y118549D01*
X-30887Y118540D01*
X-30878D01*
X-30693Y118433D01*
X-30529Y118316D01*
X-30373Y118181D01*
X-30228Y118055D01*
X-30121Y117938D01*
X-30034Y117851D01*
X-29995Y117812D01*
X-29975Y117783D01*
X-29966Y117773D01*
X-29956Y117763D01*
X-29840Y117948D01*
X-29713Y118103D01*
X-29587Y118239D01*
X-29471Y118346D01*
X-29364Y118433D01*
X-29277Y118491D01*
X-29219Y118530D01*
X-29209Y118540D01*
X-29199D01*
X-29025Y118627D01*
X-28840Y118695D01*
X-28656Y118734D01*
X-28491Y118772D01*
X-28345Y118792D01*
X-28277D01*
X-28229Y118802D01*
X-28122D01*
X-27909Y118792D01*
D02*
G37*
G36*
X-39028Y118792D02*
X-38815Y118753D01*
X-38621Y118705D01*
X-38426Y118637D01*
X-38252Y118559D01*
X-38087Y118472D01*
X-37932Y118384D01*
X-37796Y118287D01*
X-37670Y118190D01*
X-37553Y118093D01*
X-37456Y118006D01*
X-37379Y117928D01*
X-37311Y117860D01*
X-37262Y117812D01*
X-37233Y117773D01*
X-37223Y117763D01*
Y118656D01*
X-35642D01*
Y112165D01*
X-37359D01*
Y115318D01*
Y115483D01*
X-37369Y115639D01*
Y115784D01*
X-37379Y115920D01*
X-37388Y116036D01*
X-37398Y116153D01*
X-37418Y116250D01*
X-37427Y116337D01*
X-37437Y116405D01*
X-37456Y116473D01*
X-37466Y116531D01*
X-37476Y116570D01*
X-37485Y116609D01*
Y116628D01*
X-37495Y116648D01*
X-37553Y116793D01*
X-37621Y116919D01*
X-37699Y117026D01*
X-37767Y117113D01*
X-37835Y117181D01*
X-37893Y117230D01*
X-37932Y117259D01*
X-37941Y117269D01*
X-38068Y117346D01*
X-38194Y117395D01*
X-38310Y117434D01*
X-38417Y117463D01*
X-38514Y117482D01*
X-38591Y117492D01*
X-38659D01*
X-38776Y117482D01*
X-38883Y117472D01*
X-38970Y117453D01*
X-39048Y117424D01*
X-39106Y117395D01*
X-39144Y117375D01*
X-39174Y117366D01*
X-39183Y117356D01*
X-39251Y117298D01*
X-39309Y117230D01*
X-39397Y117094D01*
X-39426Y117036D01*
X-39445Y116987D01*
X-39465Y116948D01*
Y116939D01*
X-39484Y116881D01*
X-39494Y116812D01*
X-39513Y116725D01*
X-39523Y116638D01*
X-39542Y116434D01*
X-39552Y116230D01*
X-39562Y116036D01*
Y115949D01*
Y115871D01*
Y115803D01*
Y115755D01*
Y115726D01*
Y115716D01*
Y112165D01*
X-41279D01*
Y115280D01*
Y115444D01*
X-41289Y115600D01*
Y115745D01*
X-41299Y115881D01*
X-41308Y115997D01*
X-41318Y116104D01*
X-41337Y116211D01*
X-41347Y116298D01*
X-41357Y116376D01*
X-41376Y116434D01*
X-41386Y116492D01*
X-41396Y116541D01*
X-41405Y116570D01*
Y116599D01*
X-41415Y116618D01*
X-41473Y116774D01*
X-41541Y116900D01*
X-41619Y117016D01*
X-41696Y117104D01*
X-41764Y117171D01*
X-41823Y117230D01*
X-41861Y117259D01*
X-41871Y117269D01*
X-41997Y117346D01*
X-42114Y117395D01*
X-42230Y117434D01*
X-42327Y117463D01*
X-42424Y117482D01*
X-42492Y117492D01*
X-42550D01*
X-42725Y117472D01*
X-42870Y117434D01*
X-42997Y117375D01*
X-43103Y117307D01*
X-43181Y117240D01*
X-43229Y117181D01*
X-43268Y117142D01*
X-43278Y117123D01*
X-43307Y117065D01*
X-43336Y116987D01*
X-43365Y116900D01*
X-43385Y116812D01*
X-43414Y116599D01*
X-43443Y116395D01*
X-43453Y116192D01*
Y116104D01*
X-43462Y116027D01*
Y115959D01*
Y115910D01*
Y115881D01*
Y115871D01*
Y112165D01*
X-45180D01*
Y116308D01*
Y116473D01*
X-45170Y116638D01*
X-45160Y116783D01*
X-45151Y116910D01*
X-45141Y117036D01*
X-45121Y117142D01*
X-45102Y117240D01*
X-45092Y117337D01*
X-45073Y117414D01*
X-45054Y117472D01*
X-45034Y117530D01*
X-45024Y117579D01*
X-45015Y117608D01*
X-45005Y117637D01*
X-44995Y117657D01*
X-44898Y117851D01*
X-44782Y118025D01*
X-44656Y118171D01*
X-44539Y118297D01*
X-44423Y118384D01*
X-44335Y118452D01*
X-44277Y118501D01*
X-44268Y118511D01*
X-44258D01*
X-44064Y118608D01*
X-43860Y118675D01*
X-43656Y118734D01*
X-43472Y118763D01*
X-43307Y118782D01*
X-43239Y118792D01*
X-43171Y118802D01*
X-43055D01*
X-42851Y118792D01*
X-42657Y118763D01*
X-42473Y118714D01*
X-42317Y118675D01*
X-42182Y118627D01*
X-42084Y118579D01*
X-42046Y118569D01*
X-42017Y118549D01*
X-42007Y118540D01*
X-41997D01*
X-41813Y118433D01*
X-41648Y118316D01*
X-41493Y118181D01*
X-41347Y118055D01*
X-41240Y117938D01*
X-41153Y117851D01*
X-41114Y117812D01*
X-41095Y117783D01*
X-41085Y117773D01*
X-41075Y117763D01*
X-40959Y117948D01*
X-40833Y118103D01*
X-40707Y118239D01*
X-40590Y118346D01*
X-40483Y118433D01*
X-40396Y118491D01*
X-40338Y118530D01*
X-40328Y118540D01*
X-40319D01*
X-40144Y118627D01*
X-39960Y118695D01*
X-39775Y118734D01*
X-39610Y118772D01*
X-39465Y118792D01*
X-39397D01*
X-39348Y118802D01*
X-39242D01*
X-39028Y118792D01*
D02*
G37*
G36*
X12086Y115503D02*
X14425Y112165D01*
X12416D01*
X11087Y114173D01*
X9767Y112165D01*
X7662D01*
X10058Y115580D01*
X7865Y118656D01*
X9874D01*
X11087Y116871D01*
X12232Y118656D01*
X14328D01*
X12086Y115503D01*
D02*
G37*
G36*
X27504Y112165D02*
X25787D01*
Y113882D01*
X27504D01*
Y112165D01*
D02*
G37*
G36*
X-10745D02*
X-12462D01*
Y113882D01*
X-10745D01*
Y112165D01*
D02*
G37*
G36*
X-6087Y121140D02*
X-5864Y121111D01*
X-5651Y121062D01*
X-5456Y121004D01*
X-5272Y120936D01*
X-5107Y120859D01*
X-4952Y120771D01*
X-4816Y120694D01*
X-4700Y120606D01*
X-4593Y120519D01*
X-4506Y120441D01*
X-4428Y120373D01*
X-4370Y120315D01*
X-4331Y120267D01*
X-4302Y120238D01*
X-4292Y120228D01*
X-4137Y120005D01*
X-4001Y119753D01*
X-3885Y119481D01*
X-3787Y119190D01*
X-3700Y118889D01*
X-3632Y118588D01*
X-3574Y118287D01*
X-3526Y117987D01*
X-3496Y117705D01*
X-3467Y117443D01*
X-3448Y117210D01*
X-3428Y116997D01*
Y116910D01*
Y116832D01*
X-3419Y116764D01*
Y116696D01*
Y116657D01*
Y116618D01*
Y116599D01*
Y116589D01*
X-3428Y116124D01*
X-3458Y115697D01*
X-3496Y115299D01*
X-3545Y114940D01*
X-3603Y114610D01*
X-3671Y114319D01*
X-3739Y114057D01*
X-3817Y113824D01*
X-3894Y113630D01*
X-3962Y113455D01*
X-4030Y113310D01*
X-4088Y113193D01*
X-4137Y113106D01*
X-4185Y113048D01*
X-4205Y113009D01*
X-4214Y112999D01*
X-4370Y112825D01*
X-4535Y112669D01*
X-4709Y112534D01*
X-4884Y112417D01*
X-5059Y112330D01*
X-5233Y112242D01*
X-5398Y112175D01*
X-5563Y112126D01*
X-5718Y112087D01*
X-5864Y112049D01*
X-5990Y112029D01*
X-6107Y112019D01*
X-6194Y112010D01*
X-6262Y112000D01*
X-6320D01*
X-6553Y112010D01*
X-6776Y112039D01*
X-6989Y112087D01*
X-7183Y112146D01*
X-7368Y112213D01*
X-7533Y112291D01*
X-7688Y112369D01*
X-7824Y112456D01*
X-7940Y112543D01*
X-8047Y112621D01*
X-8144Y112699D01*
X-8212Y112767D01*
X-8270Y112825D01*
X-8319Y112873D01*
X-8338Y112902D01*
X-8348Y112912D01*
X-8503Y113135D01*
X-8639Y113387D01*
X-8755Y113669D01*
X-8862Y113950D01*
X-8940Y114251D01*
X-9017Y114562D01*
X-9076Y114862D01*
X-9124Y115163D01*
X-9153Y115444D01*
X-9182Y115706D01*
X-9202Y115949D01*
X-9221Y116153D01*
Y116250D01*
Y116327D01*
X-9231Y116395D01*
Y116463D01*
Y116502D01*
Y116541D01*
Y116560D01*
Y116570D01*
X-9221Y117026D01*
X-9192Y117453D01*
X-9153Y117851D01*
X-9095Y118210D01*
X-9027Y118540D01*
X-8959Y118841D01*
X-8872Y119112D01*
X-8794Y119345D01*
X-8717Y119558D01*
X-8639Y119733D01*
X-8561Y119888D01*
X-8493Y120005D01*
X-8435Y120102D01*
X-8396Y120170D01*
X-8367Y120209D01*
X-8358Y120218D01*
X-8212Y120383D01*
X-8057Y120529D01*
X-7892Y120655D01*
X-7727Y120762D01*
X-7562Y120849D01*
X-7387Y120927D01*
X-7222Y120985D01*
X-7067Y121033D01*
X-6912Y121072D01*
X-6766Y121101D01*
X-6640Y121121D01*
X-6533Y121140D01*
X-6446D01*
X-6378Y121150D01*
X-6320D01*
X-6087Y121140D01*
D02*
G37*
G36*
X-101989Y80981D02*
X-103798D01*
Y82801D01*
X-101989D01*
Y80981D01*
D02*
G37*
G36*
Y73000D02*
X-103798D01*
Y80381D01*
X-101989D01*
Y73000D01*
D02*
G37*
G36*
X-106484Y80370D02*
X-106318Y80348D01*
X-106163Y80304D01*
X-106029Y80259D01*
X-105918Y80215D01*
X-105841Y80170D01*
X-105785Y80148D01*
X-105763Y80137D01*
X-105619Y80037D01*
X-105497Y79937D01*
X-105386Y79826D01*
X-105286Y79715D01*
X-105208Y79626D01*
X-105152Y79549D01*
X-105119Y79504D01*
X-105108Y79482D01*
X-105030Y79327D01*
X-104964Y79171D01*
X-104919Y79016D01*
X-104897Y78883D01*
X-104875Y78761D01*
X-104864Y78661D01*
Y78605D01*
Y78594D01*
Y78583D01*
Y74787D01*
X-104875Y74609D01*
X-104897Y74443D01*
X-104942Y74299D01*
X-104986Y74165D01*
X-105030Y74054D01*
X-105075Y73966D01*
X-105097Y73921D01*
X-105108Y73899D01*
X-105208Y73755D01*
X-105319Y73622D01*
X-105430Y73510D01*
X-105530Y73422D01*
X-105619Y73344D01*
X-105696Y73289D01*
X-105741Y73255D01*
X-105763Y73244D01*
X-105918Y73166D01*
X-106074Y73100D01*
X-106229Y73056D01*
X-106362Y73033D01*
X-106484Y73011D01*
X-106584Y73000D01*
X-110558D01*
X-110747Y73011D01*
X-110913Y73033D01*
X-111069Y73078D01*
X-111202Y73122D01*
X-111313Y73166D01*
X-111402Y73211D01*
X-111446Y73233D01*
X-111468Y73244D01*
X-111613Y73344D01*
X-111735Y73455D01*
X-111846Y73555D01*
X-111945Y73666D01*
X-112012Y73755D01*
X-112068Y73832D01*
X-112101Y73877D01*
X-112112Y73899D01*
X-112201Y74054D01*
X-112256Y74210D01*
X-112301Y74365D01*
X-112334Y74498D01*
X-112345Y74609D01*
X-112356Y74709D01*
Y74765D01*
Y74787D01*
Y78583D01*
X-112345Y78761D01*
X-112323Y78927D01*
X-112278Y79083D01*
X-112245Y79216D01*
X-112201Y79327D01*
X-112156Y79416D01*
X-112134Y79460D01*
X-112123Y79482D01*
X-112034Y79626D01*
X-111923Y79760D01*
X-111812Y79871D01*
X-111712Y79971D01*
X-111624Y80037D01*
X-111546Y80093D01*
X-111502Y80126D01*
X-111479Y80137D01*
X-111324Y80215D01*
X-111157Y80281D01*
X-111013Y80326D01*
X-110869Y80348D01*
X-110747Y80370D01*
X-110647Y80381D01*
X-106662D01*
X-106484Y80370D01*
D02*
G37*
G36*
X-48989Y73000D02*
X-50809D01*
X-50820Y78494D01*
Y78528D01*
Y78539D01*
X-50831Y78550D01*
X-50865Y78572D01*
X-53429D01*
X-53473Y78561D01*
X-53484Y78550D01*
X-53495Y78539D01*
X-53506Y78517D01*
Y78506D01*
Y78494D01*
Y73000D01*
X-55327D01*
Y78494D01*
Y78528D01*
X-55338Y78539D01*
X-55349Y78550D01*
X-55394Y78572D01*
X-57935D01*
X-57991Y78561D01*
X-58002Y78550D01*
X-58013Y78539D01*
Y78517D01*
Y78506D01*
Y78494D01*
X-58024Y73000D01*
X-59822D01*
Y78583D01*
X-59811Y78761D01*
X-59789Y78927D01*
X-59745Y79083D01*
X-59700Y79216D01*
X-59656Y79327D01*
X-59611Y79416D01*
X-59589Y79460D01*
X-59578Y79482D01*
X-59489Y79626D01*
X-59378Y79760D01*
X-59267Y79871D01*
X-59167Y79960D01*
X-59079Y80037D01*
X-59001Y80093D01*
X-58956Y80126D01*
X-58934Y80137D01*
X-58779Y80215D01*
X-58612Y80281D01*
X-58468Y80326D01*
X-58324Y80348D01*
X-58202Y80370D01*
X-58102Y80381D01*
X-48989D01*
Y73000D01*
D02*
G37*
G36*
X-63041Y80370D02*
X-62875Y80348D01*
X-62719Y80304D01*
X-62586Y80259D01*
X-62475Y80215D01*
X-62397Y80170D01*
X-62342Y80148D01*
X-62320Y80137D01*
X-62175Y80037D01*
X-62053Y79937D01*
X-61942Y79826D01*
X-61842Y79715D01*
X-61765Y79626D01*
X-61709Y79549D01*
X-61676Y79504D01*
X-61665Y79482D01*
X-61587Y79327D01*
X-61521Y79171D01*
X-61476Y79016D01*
X-61454Y78883D01*
X-61432Y78761D01*
X-61421Y78661D01*
Y78605D01*
Y78594D01*
Y78583D01*
Y74787D01*
X-61432Y74609D01*
X-61454Y74443D01*
X-61498Y74299D01*
X-61543Y74165D01*
X-61587Y74054D01*
X-61632Y73966D01*
X-61654Y73921D01*
X-61665Y73899D01*
X-61765Y73755D01*
X-61876Y73622D01*
X-61987Y73510D01*
X-62087Y73422D01*
X-62175Y73344D01*
X-62253Y73289D01*
X-62298Y73255D01*
X-62320Y73244D01*
X-62475Y73166D01*
X-62631Y73100D01*
X-62786Y73056D01*
X-62919Y73033D01*
X-63041Y73011D01*
X-63141Y73000D01*
X-67115D01*
X-67304Y73011D01*
X-67470Y73033D01*
X-67625Y73078D01*
X-67759Y73122D01*
X-67870Y73166D01*
X-67958Y73211D01*
X-68003Y73233D01*
X-68025Y73244D01*
X-68169Y73344D01*
X-68292Y73455D01*
X-68403Y73555D01*
X-68502Y73666D01*
X-68569Y73755D01*
X-68625Y73832D01*
X-68658Y73877D01*
X-68669Y73899D01*
X-68758Y74054D01*
X-68813Y74210D01*
X-68858Y74365D01*
X-68891Y74498D01*
X-68902Y74609D01*
X-68913Y74709D01*
Y74765D01*
Y74787D01*
Y78583D01*
X-68902Y78761D01*
X-68880Y78927D01*
X-68835Y79083D01*
X-68802Y79216D01*
X-68758Y79327D01*
X-68713Y79416D01*
X-68691Y79460D01*
X-68680Y79482D01*
X-68591Y79626D01*
X-68480Y79760D01*
X-68369Y79871D01*
X-68269Y79971D01*
X-68180Y80037D01*
X-68103Y80093D01*
X-68058Y80126D01*
X-68036Y80137D01*
X-67881Y80215D01*
X-67714Y80281D01*
X-67570Y80326D01*
X-67426Y80348D01*
X-67304Y80370D01*
X-67204Y80381D01*
X-63219D01*
X-63041Y80370D01*
D02*
G37*
G36*
X-75584Y80381D02*
X-71699D01*
X-71510Y80370D01*
X-71344Y80348D01*
X-71189Y80304D01*
X-71044Y80259D01*
X-70933Y80215D01*
X-70855Y80170D01*
X-70800Y80148D01*
X-70778Y80137D01*
X-70634Y80037D01*
X-70511Y79937D01*
X-70400Y79826D01*
X-70312Y79715D01*
X-70234Y79626D01*
X-70178Y79549D01*
X-70145Y79504D01*
X-70134Y79482D01*
X-70056Y79327D01*
X-69990Y79171D01*
X-69945Y79016D01*
X-69923Y78883D01*
X-69901Y78761D01*
X-69890Y78661D01*
Y78605D01*
Y78594D01*
Y78583D01*
Y74787D01*
X-69901Y74609D01*
X-69923Y74443D01*
X-69968Y74299D01*
X-70012Y74154D01*
X-70056Y74043D01*
X-70101Y73966D01*
X-70123Y73910D01*
X-70134Y73888D01*
X-70234Y73744D01*
X-70334Y73610D01*
X-70445Y73499D01*
X-70545Y73411D01*
X-70634Y73333D01*
X-70711Y73278D01*
X-70756Y73244D01*
X-70778Y73233D01*
X-70933Y73155D01*
X-71100Y73100D01*
X-71255Y73056D01*
X-71388Y73033D01*
X-71522Y73011D01*
X-71610Y73000D01*
X-77393D01*
X-77404Y82801D01*
X-75584D01*
Y80381D01*
D02*
G37*
G36*
X-84087D02*
X-80202D01*
X-80013Y80370D01*
X-79846Y80348D01*
X-79691Y80304D01*
X-79547Y80259D01*
X-79436Y80215D01*
X-79358Y80170D01*
X-79303Y80148D01*
X-79280Y80137D01*
X-79136Y80037D01*
X-79014Y79937D01*
X-78903Y79826D01*
X-78814Y79715D01*
X-78736Y79626D01*
X-78681Y79549D01*
X-78648Y79504D01*
X-78636Y79482D01*
X-78559Y79327D01*
X-78492Y79171D01*
X-78448Y79016D01*
X-78426Y78883D01*
X-78403Y78761D01*
X-78392Y78661D01*
Y78605D01*
Y78594D01*
Y78583D01*
Y74787D01*
X-78403Y74609D01*
X-78426Y74443D01*
X-78470Y74299D01*
X-78514Y74154D01*
X-78559Y74043D01*
X-78603Y73966D01*
X-78625Y73910D01*
X-78636Y73888D01*
X-78736Y73744D01*
X-78836Y73610D01*
X-78947Y73499D01*
X-79047Y73411D01*
X-79136Y73333D01*
X-79214Y73278D01*
X-79258Y73244D01*
X-79280Y73233D01*
X-79436Y73155D01*
X-79602Y73100D01*
X-79758Y73056D01*
X-79891Y73033D01*
X-80024Y73011D01*
X-80113Y73000D01*
X-85896D01*
X-85907Y82801D01*
X-84087D01*
Y80381D01*
D02*
G37*
G36*
X-88870Y80370D02*
X-88704Y80348D01*
X-88549Y80304D01*
X-88415Y80259D01*
X-88304Y80215D01*
X-88227Y80170D01*
X-88171Y80148D01*
X-88149Y80137D01*
X-88005Y80037D01*
X-87883Y79937D01*
X-87772Y79826D01*
X-87672Y79715D01*
X-87594Y79626D01*
X-87538Y79549D01*
X-87505Y79504D01*
X-87494Y79482D01*
X-87416Y79327D01*
X-87350Y79171D01*
X-87305Y79016D01*
X-87283Y78883D01*
X-87261Y78761D01*
X-87250Y78661D01*
Y78605D01*
Y78594D01*
Y78583D01*
Y74787D01*
X-87261Y74609D01*
X-87283Y74443D01*
X-87328Y74299D01*
X-87372Y74165D01*
X-87416Y74054D01*
X-87461Y73966D01*
X-87483Y73921D01*
X-87494Y73899D01*
X-87594Y73755D01*
X-87705Y73622D01*
X-87816Y73510D01*
X-87916Y73422D01*
X-88005Y73344D01*
X-88082Y73289D01*
X-88127Y73255D01*
X-88149Y73244D01*
X-88304Y73166D01*
X-88460Y73100D01*
X-88615Y73056D01*
X-88748Y73033D01*
X-88870Y73011D01*
X-88970Y73000D01*
X-92944D01*
X-93133Y73011D01*
X-93299Y73033D01*
X-93455Y73078D01*
X-93588Y73122D01*
X-93699Y73166D01*
X-93788Y73211D01*
X-93832Y73233D01*
X-93854Y73244D01*
X-93999Y73344D01*
X-94121Y73455D01*
X-94232Y73555D01*
X-94332Y73666D01*
X-94398Y73755D01*
X-94454Y73832D01*
X-94487Y73877D01*
X-94498Y73899D01*
X-94587Y74054D01*
X-94642Y74210D01*
X-94687Y74365D01*
X-94720Y74498D01*
X-94731Y74609D01*
X-94742Y74709D01*
Y74765D01*
Y74787D01*
Y78583D01*
X-94731Y78761D01*
X-94709Y78927D01*
X-94665Y79083D01*
X-94631Y79216D01*
X-94587Y79327D01*
X-94543Y79416D01*
X-94520Y79460D01*
X-94509Y79482D01*
X-94420Y79626D01*
X-94309Y79760D01*
X-94198Y79871D01*
X-94099Y79971D01*
X-94010Y80037D01*
X-93932Y80093D01*
X-93888Y80126D01*
X-93865Y80137D01*
X-93710Y80215D01*
X-93544Y80281D01*
X-93399Y80326D01*
X-93255Y80348D01*
X-93133Y80370D01*
X-93033Y80381D01*
X-89048D01*
X-88870Y80370D01*
D02*
G37*
%LPC*%
G36*
X79195Y149442D02*
X77255D01*
X77119Y149432D01*
X76886D01*
X76789Y149423D01*
X76643D01*
X76595Y149413D01*
X76517D01*
X76479Y149403D01*
X76469D01*
X76314Y149364D01*
X76168Y149316D01*
X76052Y149267D01*
X75954Y149199D01*
X75877Y149151D01*
X75828Y149102D01*
X75790Y149064D01*
X75780Y149054D01*
X75702Y148938D01*
X75644Y148821D01*
X75595Y148705D01*
X75566Y148588D01*
X75547Y148481D01*
X75537Y148404D01*
Y148346D01*
Y148336D01*
Y148326D01*
X75547Y148181D01*
X75566Y148045D01*
X75595Y147928D01*
X75625Y147831D01*
X75663Y147754D01*
X75693Y147696D01*
X75712Y147657D01*
X75722Y147647D01*
X75799Y147550D01*
X75877Y147472D01*
X75964Y147404D01*
X76052Y147356D01*
X76119Y147317D01*
X76178Y147288D01*
X76217Y147278D01*
X76236Y147269D01*
X76304Y147249D01*
X76401Y147230D01*
X76508Y147220D01*
X76624Y147210D01*
X76886Y147191D01*
X77167Y147172D01*
X77429D01*
X77546Y147162D01*
X79195D01*
Y149442D01*
D02*
G37*
G36*
X48292Y148870D02*
X47050Y145551D01*
X49505D01*
X48292Y148870D01*
D02*
G37*
G36*
X-26850Y81827D02*
X-26904D01*
X-26941D01*
X-26967D01*
X-26976D01*
X-27256Y81819D01*
X-27508Y81791D01*
X-27743Y81746D01*
X-27941Y81701D01*
X-28031Y81674D01*
X-28113Y81656D01*
X-28176Y81629D01*
X-28230Y81611D01*
X-28275Y81602D01*
X-28311Y81584D01*
X-28329Y81575D01*
X-28338D01*
X-28554Y81467D01*
X-28744Y81350D01*
X-28897Y81223D01*
X-29032Y81106D01*
X-29141Y80998D01*
X-29213Y80908D01*
X-29240Y80872D01*
X-29258Y80845D01*
X-29276Y80836D01*
Y80827D01*
X-29393Y80637D01*
X-29474Y80439D01*
X-29537Y80250D01*
X-29573Y80069D01*
X-29601Y79916D01*
X-29609Y79853D01*
Y79790D01*
X-29618Y79745D01*
Y79681D01*
X-29601Y79438D01*
X-29564Y79212D01*
X-29510Y79014D01*
X-29447Y78843D01*
X-29384Y78708D01*
X-29357Y78653D01*
X-29330Y78608D01*
X-29312Y78563D01*
X-29294Y78536D01*
X-29276Y78527D01*
Y78518D01*
X-29141Y78347D01*
X-28987Y78194D01*
X-28834Y78067D01*
X-28690Y77968D01*
X-28554Y77887D01*
X-28446Y77824D01*
X-28401Y77806D01*
X-28374Y77788D01*
X-28356Y77779D01*
X-28347D01*
X-28122Y77689D01*
X-27887Y77625D01*
X-27662Y77580D01*
X-27445Y77553D01*
X-27355Y77535D01*
X-27265Y77526D01*
X-27193D01*
X-27121Y77517D01*
X-27067D01*
X-27031D01*
X-27004D01*
X-26995D01*
X-26706Y77526D01*
X-26444Y77553D01*
X-26210Y77599D01*
X-26102Y77625D01*
X-26003Y77644D01*
X-25921Y77671D01*
X-25840Y77698D01*
X-25768Y77716D01*
X-25714Y77734D01*
X-25669Y77752D01*
X-25633Y77770D01*
X-25615Y77779D01*
X-25606D01*
X-25389Y77887D01*
X-25200Y78004D01*
X-25038Y78122D01*
X-24903Y78239D01*
X-24803Y78347D01*
X-24722Y78437D01*
X-24695Y78473D01*
X-24677Y78500D01*
X-24659Y78509D01*
Y78518D01*
X-24551Y78708D01*
X-24470Y78906D01*
X-24407Y79095D01*
X-24371Y79276D01*
X-24344Y79429D01*
X-24334Y79492D01*
Y79555D01*
X-24325Y79600D01*
Y79663D01*
X-24344Y79907D01*
X-24380Y80132D01*
X-24434Y80331D01*
X-24497Y80502D01*
X-24551Y80646D01*
X-24578Y80700D01*
X-24605Y80745D01*
X-24632Y80781D01*
X-24641Y80809D01*
X-24659Y80827D01*
Y80836D01*
X-24794Y81007D01*
X-24948Y81160D01*
X-25110Y81286D01*
X-25254Y81386D01*
X-25389Y81467D01*
X-25498Y81530D01*
X-25543Y81548D01*
X-25570Y81566D01*
X-25588Y81575D01*
X-25597D01*
X-25831Y81656D01*
X-26066Y81719D01*
X-26300Y81764D01*
X-26517Y81791D01*
X-26607Y81809D01*
X-26697D01*
X-26778Y81819D01*
X-26850Y81827D01*
D02*
G37*
G36*
X-50588Y155554D02*
X-54595D01*
X-54607Y155542D01*
X-54619Y155530D01*
X-54630Y155519D01*
X-54642Y155495D01*
Y155483D01*
Y155471D01*
Y151629D01*
X-54630Y151582D01*
X-54619Y151571D01*
X-54607Y151559D01*
X-50611D01*
X-50564Y151571D01*
X-50553D01*
X-50529Y151606D01*
Y151629D01*
Y155471D01*
Y155507D01*
X-50541Y155519D01*
X-50553Y155530D01*
X-50588Y155554D01*
D02*
G37*
G36*
X-59592D02*
X-63599D01*
X-63611Y155542D01*
X-63623Y155530D01*
X-63635Y155519D01*
X-63646Y155495D01*
Y155483D01*
Y155471D01*
Y151629D01*
X-63635Y151582D01*
X-63623Y151571D01*
X-63611Y151559D01*
X-59616D01*
X-59569Y151571D01*
X-59557D01*
X-59533Y151606D01*
Y151629D01*
Y155471D01*
Y155507D01*
X-59545Y155519D01*
X-59557Y155530D01*
X-59592Y155554D01*
D02*
G37*
G36*
X-68620D02*
X-72627D01*
X-72639Y155542D01*
X-72650Y155530D01*
X-72662Y155519D01*
X-72674Y155495D01*
Y155483D01*
Y155471D01*
Y151629D01*
X-72662Y151582D01*
X-72650Y151571D01*
X-72639Y151559D01*
X-68643D01*
X-68596Y151571D01*
X-68584D01*
X-68561Y151606D01*
Y151629D01*
Y155471D01*
Y155507D01*
X-68573Y155519D01*
X-68584Y155530D01*
X-68620Y155554D01*
D02*
G37*
G36*
X-78013D02*
X-82020D01*
X-82032Y155542D01*
X-82044Y155530D01*
X-82055Y155519D01*
X-82067Y155495D01*
Y155483D01*
Y155471D01*
Y151629D01*
X-82055Y151582D01*
X-82044Y151571D01*
X-82032Y151559D01*
X-78036D01*
X-77989Y151571D01*
X-77978D01*
X-77954Y151606D01*
Y151629D01*
Y155471D01*
Y155507D01*
X-77966Y155519D01*
X-77978Y155530D01*
X-78013Y155554D01*
D02*
G37*
G36*
X-43340Y145734D02*
X-49068D01*
X-49091Y145722D01*
X-49103Y145711D01*
X-49115Y145687D01*
X-49126Y145675D01*
X-49115Y145663D01*
Y145652D01*
Y139995D01*
X-49126Y139959D01*
X-49115Y139948D01*
X-49103Y139924D01*
X-49079Y139912D01*
X-43340D01*
X-43316Y139924D01*
X-43304Y139971D01*
Y139983D01*
Y139995D01*
Y145652D01*
X-43316Y145699D01*
Y145711D01*
X-43340Y145734D01*
D02*
G37*
G36*
X79195Y178684D02*
X77536D01*
X77371Y178674D01*
X77109D01*
X76993Y178664D01*
X76828D01*
X76760Y178655D01*
X76673D01*
X76643Y178645D01*
X76614D01*
X76449Y178616D01*
X76314Y178577D01*
X76197Y178528D01*
X76100Y178470D01*
X76022Y178422D01*
X75964Y178373D01*
X75935Y178344D01*
X75925Y178334D01*
X75848Y178228D01*
X75790Y178121D01*
X75751Y178004D01*
X75722Y177898D01*
X75702Y177810D01*
X75693Y177733D01*
Y177684D01*
Y177665D01*
X75702Y177510D01*
X75731Y177374D01*
X75780Y177248D01*
X75828Y177151D01*
X75877Y177063D01*
X75925Y177005D01*
X75954Y176966D01*
X75964Y176957D01*
X76071Y176869D01*
X76187Y176801D01*
X76314Y176743D01*
X76430Y176704D01*
X76527Y176675D01*
X76614Y176656D01*
X76673Y176646D01*
X76750D01*
X76828Y176636D01*
X76915D01*
X77012Y176627D01*
X77226D01*
X77449Y176617D01*
X79195D01*
Y178684D01*
D02*
G37*
G36*
Y175123D02*
X77517D01*
X77313Y175113D01*
X77129D01*
X76964Y175103D01*
X76818Y175094D01*
X76682Y175084D01*
X76566Y175065D01*
X76469Y175055D01*
X76381Y175045D01*
X76314Y175026D01*
X76255Y175016D01*
X76207Y175006D01*
X76168Y174997D01*
X76149D01*
X76129Y174987D01*
X76003Y174929D01*
X75887Y174870D01*
X75790Y174802D01*
X75712Y174735D01*
X75644Y174676D01*
X75605Y174628D01*
X75576Y174589D01*
X75566Y174579D01*
X75498Y174473D01*
X75450Y174356D01*
X75411Y174240D01*
X75392Y174133D01*
X75372Y174046D01*
X75363Y173968D01*
Y173920D01*
Y173900D01*
X75372Y173735D01*
X75401Y173580D01*
X75450Y173454D01*
X75489Y173347D01*
X75537Y173260D01*
X75586Y173192D01*
X75615Y173153D01*
X75625Y173143D01*
X75722Y173046D01*
X75838Y172969D01*
X75945Y172910D01*
X76052Y172862D01*
X76139Y172823D01*
X76217Y172804D01*
X76265Y172784D01*
X76284D01*
X76343Y172775D01*
X76410Y172765D01*
X76498D01*
X76585Y172755D01*
X76789Y172746D01*
X77002D01*
X77206Y172736D01*
X79195D01*
Y175123D01*
D02*
G37*
G36*
X68454Y178092D02*
X67212Y174773D01*
X69667D01*
X68454Y178092D01*
D02*
G37*
G36*
X22900Y178664D02*
X21687D01*
X21541Y178655D01*
X21415D01*
X21299Y178645D01*
X21192D01*
X21095Y178635D01*
X21008D01*
X20940Y178625D01*
X20881Y178616D01*
X20833D01*
X20794Y178606D01*
X20746Y178596D01*
X20726D01*
X20571Y178557D01*
X20425Y178499D01*
X20299Y178441D01*
X20202Y178373D01*
X20115Y178305D01*
X20047Y178247D01*
X20008Y178208D01*
X19999Y178199D01*
X19901Y178072D01*
X19834Y177937D01*
X19775Y177801D01*
X19746Y177675D01*
X19727Y177568D01*
X19707Y177471D01*
Y177413D01*
Y177403D01*
Y177393D01*
X19717Y177248D01*
X19736Y177112D01*
X19775Y176995D01*
X19814Y176898D01*
X19853Y176811D01*
X19892Y176753D01*
X19911Y176704D01*
X19921Y176695D01*
X19999Y176588D01*
X20096Y176500D01*
X20192Y176423D01*
X20280Y176355D01*
X20357Y176306D01*
X20425Y176277D01*
X20464Y176258D01*
X20484Y176248D01*
X20561Y176229D01*
X20649Y176200D01*
X20746Y176190D01*
X20862Y176171D01*
X21095Y176141D01*
X21328Y176132D01*
X21551Y176122D01*
X21648Y176112D01*
X22900D01*
Y178664D01*
D02*
G37*
G36*
X12847Y178092D02*
X11605Y174773D01*
X14060D01*
X12847Y178092D01*
D02*
G37*
G36*
X-17396Y178781D02*
X-17503D01*
X-17707Y178771D01*
X-17901Y178752D01*
X-18085Y178713D01*
X-18250Y178664D01*
X-18415Y178606D01*
X-18561Y178538D01*
X-18696Y178470D01*
X-18822Y178402D01*
X-18929Y178325D01*
X-19026Y178257D01*
X-19104Y178189D01*
X-19172Y178131D01*
X-19230Y178082D01*
X-19269Y178043D01*
X-19288Y178024D01*
X-19298Y178014D01*
X-19414Y177869D01*
X-19521Y177694D01*
X-19608Y177519D01*
X-19696Y177335D01*
X-19754Y177151D01*
X-19812Y176957D01*
X-19861Y176763D01*
X-19890Y176578D01*
X-19919Y176404D01*
X-19938Y176238D01*
X-19958Y176093D01*
X-19967Y175967D01*
X-19977Y175860D01*
Y175783D01*
Y175734D01*
Y175715D01*
X-19967Y175433D01*
X-19948Y175161D01*
X-19909Y174919D01*
X-19870Y174686D01*
X-19812Y174482D01*
X-19754Y174288D01*
X-19696Y174114D01*
X-19628Y173958D01*
X-19560Y173822D01*
X-19502Y173706D01*
X-19443Y173599D01*
X-19385Y173522D01*
X-19346Y173454D01*
X-19308Y173415D01*
X-19288Y173386D01*
X-19279Y173376D01*
X-19143Y173240D01*
X-18997Y173124D01*
X-18851Y173017D01*
X-18706Y172930D01*
X-18561Y172852D01*
X-18405Y172794D01*
X-18269Y172736D01*
X-18133Y172697D01*
X-17998Y172668D01*
X-17881Y172639D01*
X-17774Y172619D01*
X-17687Y172610D01*
X-17610D01*
X-17551Y172600D01*
X-17503D01*
X-17309Y172610D01*
X-17115Y172639D01*
X-16930Y172678D01*
X-16765Y172726D01*
X-16610Y172784D01*
X-16465Y172852D01*
X-16329Y172920D01*
X-16203Y172998D01*
X-16096Y173066D01*
X-15999Y173134D01*
X-15912Y173202D01*
X-15844Y173260D01*
X-15785Y173318D01*
X-15747Y173357D01*
X-15727Y173376D01*
X-15718Y173386D01*
X-15591Y173541D01*
X-15485Y173716D01*
X-15397Y173890D01*
X-15310Y174075D01*
X-15242Y174269D01*
X-15194Y174463D01*
X-15145Y174647D01*
X-15106Y174832D01*
X-15077Y175006D01*
X-15058Y175171D01*
X-15038Y175317D01*
X-15029Y175443D01*
Y175550D01*
X-15019Y175627D01*
Y175676D01*
Y175695D01*
X-15029Y175977D01*
X-15048Y176238D01*
X-15077Y176481D01*
X-15126Y176704D01*
X-15174Y176918D01*
X-15232Y177102D01*
X-15300Y177277D01*
X-15359Y177432D01*
X-15426Y177568D01*
X-15485Y177684D01*
X-15543Y177781D01*
X-15591Y177859D01*
X-15640Y177927D01*
X-15669Y177966D01*
X-15688Y177995D01*
X-15698Y178004D01*
X-15834Y178140D01*
X-15970Y178257D01*
X-16125Y178363D01*
X-16271Y178451D01*
X-16426Y178528D01*
X-16571Y178596D01*
X-16717Y178645D01*
X-16862Y178684D01*
X-16989Y178713D01*
X-17115Y178742D01*
X-17221Y178761D01*
X-17319Y178771D01*
X-17396Y178781D01*
D02*
G37*
G36*
X69473Y167723D02*
X69366D01*
X69163Y167714D01*
X68969Y167694D01*
X68784Y167656D01*
X68619Y167607D01*
X68454Y167549D01*
X68309Y167481D01*
X68173Y167413D01*
X68047Y167345D01*
X67940Y167267D01*
X67843Y167199D01*
X67765Y167132D01*
X67697Y167073D01*
X67639Y167025D01*
X67600Y166986D01*
X67581Y166967D01*
X67571Y166957D01*
X67455Y166811D01*
X67348Y166637D01*
X67261Y166462D01*
X67174Y166278D01*
X67115Y166093D01*
X67057Y165899D01*
X67009Y165705D01*
X66979Y165521D01*
X66950Y165346D01*
X66931Y165181D01*
X66912Y165036D01*
X66902Y164910D01*
X66892Y164803D01*
Y164725D01*
Y164677D01*
Y164657D01*
X66902Y164376D01*
X66921Y164104D01*
X66960Y163862D01*
X66999Y163629D01*
X67057Y163425D01*
X67115Y163231D01*
X67174Y163056D01*
X67241Y162901D01*
X67309Y162765D01*
X67368Y162649D01*
X67426Y162542D01*
X67484Y162465D01*
X67523Y162397D01*
X67562Y162358D01*
X67581Y162329D01*
X67591Y162319D01*
X67726Y162183D01*
X67872Y162067D01*
X68018Y161960D01*
X68163Y161873D01*
X68309Y161795D01*
X68464Y161737D01*
X68600Y161679D01*
X68736Y161640D01*
X68871Y161611D01*
X68988Y161581D01*
X69095Y161562D01*
X69182Y161552D01*
X69260D01*
X69318Y161543D01*
X69366D01*
X69560Y161552D01*
X69754Y161581D01*
X69939Y161620D01*
X70104Y161669D01*
X70259Y161727D01*
X70405Y161795D01*
X70540Y161863D01*
X70666Y161940D01*
X70773Y162008D01*
X70870Y162076D01*
X70958Y162144D01*
X71026Y162202D01*
X71084Y162261D01*
X71122Y162299D01*
X71142Y162319D01*
X71152Y162329D01*
X71278Y162484D01*
X71385Y162659D01*
X71472Y162833D01*
X71559Y163018D01*
X71627Y163212D01*
X71676Y163406D01*
X71724Y163590D01*
X71763Y163774D01*
X71792Y163949D01*
X71811Y164114D01*
X71831Y164259D01*
X71841Y164386D01*
Y164492D01*
X71850Y164570D01*
Y164618D01*
Y164638D01*
X71841Y164919D01*
X71821Y165181D01*
X71792Y165424D01*
X71743Y165647D01*
X71695Y165861D01*
X71637Y166045D01*
X71569Y166220D01*
X71511Y166375D01*
X71443Y166511D01*
X71385Y166627D01*
X71326Y166724D01*
X71278Y166802D01*
X71229Y166870D01*
X71200Y166908D01*
X71181Y166938D01*
X71171Y166947D01*
X71035Y167083D01*
X70899Y167199D01*
X70744Y167306D01*
X70599Y167393D01*
X70443Y167471D01*
X70298Y167539D01*
X70152Y167588D01*
X70007Y167626D01*
X69881Y167656D01*
X69754Y167685D01*
X69648Y167704D01*
X69551Y167714D01*
X69473Y167723D01*
D02*
G37*
G36*
X32142Y129374D02*
Y126327D01*
X34189D01*
X32142Y129374D01*
D02*
G37*
G36*
X22197Y130461D02*
X20984D01*
X20838Y130451D01*
X20712D01*
X20596Y130441D01*
X20489D01*
X20392Y130431D01*
X20305D01*
X20237Y130422D01*
X20178Y130412D01*
X20130D01*
X20091Y130402D01*
X20043Y130393D01*
X20023D01*
X19868Y130354D01*
X19722Y130296D01*
X19596Y130237D01*
X19499Y130169D01*
X19412Y130101D01*
X19344Y130043D01*
X19305Y130005D01*
X19295Y129995D01*
X19198Y129869D01*
X19131Y129733D01*
X19072Y129597D01*
X19043Y129471D01*
X19024Y129364D01*
X19004Y129267D01*
Y129209D01*
Y129199D01*
Y129190D01*
X19014Y129044D01*
X19033Y128908D01*
X19072Y128792D01*
X19111Y128695D01*
X19150Y128607D01*
X19189Y128549D01*
X19208Y128501D01*
X19218Y128491D01*
X19295Y128384D01*
X19392Y128297D01*
X19490Y128219D01*
X19577Y128151D01*
X19654Y128103D01*
X19722Y128074D01*
X19761Y128054D01*
X19781Y128045D01*
X19858Y128025D01*
X19945Y127996D01*
X20043Y127986D01*
X20159Y127967D01*
X20392Y127938D01*
X20625Y127928D01*
X20848Y127918D01*
X20945Y127909D01*
X22197D01*
Y130461D01*
D02*
G37*
G36*
X-6271Y119723D02*
X-6320D01*
X-6436Y119714D01*
X-6533Y119694D01*
X-6630Y119656D01*
X-6718Y119626D01*
X-6776Y119588D01*
X-6834Y119549D01*
X-6863Y119529D01*
X-6873Y119520D01*
X-6960Y119432D01*
X-7038Y119316D01*
X-7106Y119190D01*
X-7164Y119054D01*
X-7213Y118928D01*
X-7242Y118831D01*
X-7251Y118792D01*
X-7261Y118763D01*
X-7271Y118743D01*
Y118734D01*
X-7300Y118608D01*
X-7329Y118472D01*
X-7348Y118316D01*
X-7368Y118142D01*
X-7397Y117793D01*
X-7416Y117434D01*
X-7426Y117259D01*
Y117104D01*
X-7436Y116948D01*
Y116822D01*
Y116715D01*
Y116638D01*
Y116589D01*
Y116570D01*
Y116289D01*
X-7426Y116017D01*
X-7416Y115774D01*
X-7407Y115551D01*
X-7397Y115347D01*
X-7378Y115163D01*
X-7358Y114998D01*
X-7348Y114853D01*
X-7329Y114726D01*
X-7310Y114620D01*
X-7290Y114532D01*
X-7281Y114455D01*
X-7271Y114397D01*
X-7261Y114358D01*
X-7251Y114338D01*
Y114329D01*
X-7193Y114154D01*
X-7135Y113999D01*
X-7077Y113882D01*
X-7009Y113785D01*
X-6960Y113708D01*
X-6912Y113659D01*
X-6883Y113630D01*
X-6873Y113620D01*
X-6776Y113552D01*
X-6689Y113504D01*
X-6592Y113475D01*
X-6504Y113455D01*
X-6427Y113436D01*
X-6368Y113426D01*
X-6320D01*
X-6204Y113436D01*
X-6107Y113455D01*
X-6010Y113484D01*
X-5932Y113523D01*
X-5864Y113562D01*
X-5806Y113591D01*
X-5777Y113611D01*
X-5767Y113620D01*
X-5680Y113708D01*
X-5602Y113824D01*
X-5534Y113950D01*
X-5476Y114086D01*
X-5427Y114202D01*
X-5398Y114299D01*
X-5389Y114338D01*
X-5379Y114368D01*
X-5369Y114387D01*
Y114397D01*
X-5340Y114523D01*
X-5321Y114658D01*
X-5301Y114814D01*
X-5282Y114988D01*
X-5253Y115347D01*
X-5233Y115706D01*
X-5224Y115881D01*
Y116036D01*
Y116182D01*
X-5214Y116318D01*
Y116425D01*
Y116502D01*
Y116551D01*
Y116570D01*
Y116851D01*
X-5224Y117113D01*
X-5233Y117366D01*
X-5243Y117579D01*
X-5253Y117783D01*
X-5272Y117967D01*
X-5282Y118132D01*
X-5301Y118278D01*
X-5321Y118404D01*
X-5330Y118520D01*
X-5350Y118608D01*
X-5359Y118685D01*
X-5369Y118743D01*
X-5379Y118782D01*
X-5389Y118802D01*
Y118811D01*
X-5447Y118986D01*
X-5505Y119141D01*
X-5573Y119258D01*
X-5631Y119355D01*
X-5680Y119432D01*
X-5728Y119481D01*
X-5757Y119510D01*
X-5767Y119520D01*
X-5864Y119588D01*
X-5951Y119636D01*
X-6048Y119675D01*
X-6136Y119694D01*
X-6213Y119714D01*
X-6271Y119723D01*
D02*
G37*
G36*
X-106729Y78572D02*
X-110503D01*
X-110514Y78561D01*
X-110525Y78550D01*
X-110536Y78539D01*
X-110547Y78517D01*
Y78506D01*
Y78494D01*
Y74876D01*
X-110536Y74831D01*
X-110525Y74820D01*
X-110514Y74809D01*
X-106751D01*
X-106706Y74820D01*
X-106695D01*
X-106673Y74854D01*
Y74876D01*
Y78494D01*
Y78528D01*
X-106684Y78539D01*
X-106695Y78550D01*
X-106729Y78572D01*
D02*
G37*
G36*
X-63285D02*
X-67059D01*
X-67070Y78561D01*
X-67082Y78550D01*
X-67093Y78539D01*
X-67104Y78517D01*
Y78506D01*
Y78494D01*
Y74876D01*
X-67093Y74831D01*
X-67082Y74820D01*
X-67070Y74809D01*
X-63308D01*
X-63263Y74820D01*
X-63252D01*
X-63230Y74854D01*
Y74876D01*
Y78494D01*
Y78528D01*
X-63241Y78539D01*
X-63252Y78550D01*
X-63285Y78572D01*
D02*
G37*
G36*
X-71766D02*
X-75540D01*
X-75551Y78561D01*
X-75562Y78550D01*
X-75573Y78539D01*
X-75584Y78517D01*
Y78506D01*
Y78494D01*
Y74876D01*
X-75573Y74831D01*
X-75562Y74820D01*
X-75551Y74809D01*
X-71788D01*
X-71743Y74820D01*
X-71732D01*
X-71710Y74854D01*
Y74876D01*
Y78494D01*
Y78528D01*
X-71721Y78539D01*
X-71732Y78550D01*
X-71766Y78572D01*
D02*
G37*
G36*
X-80268D02*
X-84042D01*
X-84053Y78561D01*
X-84064Y78550D01*
X-84075Y78539D01*
X-84087Y78517D01*
Y78506D01*
Y78494D01*
Y74876D01*
X-84075Y74831D01*
X-84064Y74820D01*
X-84053Y74809D01*
X-80290D01*
X-80246Y74820D01*
X-80235D01*
X-80213Y74854D01*
Y74876D01*
Y78494D01*
Y78528D01*
X-80224Y78539D01*
X-80235Y78550D01*
X-80268Y78572D01*
D02*
G37*
G36*
X-89115D02*
X-92889D01*
X-92900Y78561D01*
X-92911Y78550D01*
X-92922Y78539D01*
X-92933Y78517D01*
Y78506D01*
Y78494D01*
Y74876D01*
X-92922Y74831D01*
X-92911Y74820D01*
X-92900Y74809D01*
X-89137D01*
X-89093Y74820D01*
X-89081D01*
X-89059Y74854D01*
Y74876D01*
Y78494D01*
Y78528D01*
X-89070Y78539D01*
X-89081Y78550D01*
X-89115Y78572D01*
D02*
G37*
%LPD*%
D10*
X-18300Y45499D02*
G03*
X-18300Y45499I-1000J0D01*
G01*
D11*
X13500Y102498D02*
X15499D01*
X14500D01*
Y97500D01*
X15499Y96500D01*
X16499D01*
X17499Y97500D01*
X11501Y96500D02*
X9501D01*
X10501D01*
Y102498D01*
X11501Y101498D01*
D30*
X18500Y38999D02*
Y86999D01*
X-13000Y32999D02*
X6000D01*
X-13000D02*
Y41499D01*
Y92999D02*
X6000D01*
X-13000Y84499D02*
Y92999D01*
M02*
