G04*
G04 #@! TF.GenerationSoftware,Altium Limited,Altium Designer,26.5.0 (11)*
G04*
G04 Layer_Color=8388736*
G04 Board_Origin=30663386|31124408*
%FSLAX44Y44*%
%MOMM*%
G71*
G04*
G04 #@! TF.SameCoordinates,90DB835B-561C-4088-83E5-6E4880DCFF8A*
G04*
G04*
G04 #@! TF.FilePolarity,Negative*
G04*
G01*
G75*
%ADD14R,1.0000X1.3000*%
%ADD15C,2.3000*%
%ADD16C,2.6000*%
D14*
X22500Y161000D02*
D03*
Y87000D02*
D03*
X202500Y87000D02*
D03*
Y161000D02*
D03*
X112500Y70000D02*
D03*
Y-4000D02*
D03*
X247500Y161000D02*
D03*
Y87000D02*
D03*
X157500Y161000D02*
D03*
X247500Y70000D02*
D03*
Y-4000D02*
D03*
X157500Y87000D02*
D03*
Y70000D02*
D03*
X67500Y87000D02*
D03*
Y161000D02*
D03*
X157500Y-4000D02*
D03*
X67500Y70000D02*
D03*
Y-4000D02*
D03*
X22500Y70000D02*
D03*
Y-4000D02*
D03*
X112500Y87000D02*
D03*
Y161000D02*
D03*
X202500Y-4000D02*
D03*
Y70000D02*
D03*
D15*
X270000Y156000D02*
D03*
Y78000D02*
D03*
X180000Y156000D02*
D03*
Y78000D02*
D03*
X270000Y0D02*
D03*
X180000Y-0D02*
D03*
X90000Y156000D02*
D03*
Y78000D02*
D03*
X0Y156000D02*
D03*
Y78000D02*
D03*
X90000Y0D02*
D03*
X0D02*
D03*
D16*
X270000Y117000D02*
D03*
Y39000D02*
D03*
X0Y117000D02*
D03*
Y39000D02*
D03*
M02*
