G04*
G04 #@! TF.GenerationSoftware,Altium Limited,Altium Designer,26.2.0 (7)*
G04*
G04 Layer_Color=65535*
%FSLAX44Y44*%
%MOMM*%
G71*
G04*
G04 #@! TF.SameCoordinates,E9563C34-D83E-4C40-96E4-4907F79A85CD*
G04*
G04*
G04 #@! TF.FilePolarity,Positive*
G04*
G01*
G75*
%ADD10C,0.3000*%
%ADD11C,0.2500*%
%ADD12C,0.1500*%
G36*
X182526Y138617D02*
X182637Y138606D01*
X182770Y138573D01*
X182925Y138528D01*
X183081Y138473D01*
X183236Y138384D01*
X183258Y138373D01*
X183303Y138340D01*
X183381Y138284D01*
X183469Y138217D01*
X183580Y138118D01*
X183680Y138006D01*
X183791Y137884D01*
X183891Y137740D01*
X183902Y137718D01*
X183924Y137674D01*
X183969Y137585D01*
X184013Y137474D01*
X184058Y137340D01*
X184102Y137185D01*
X184124Y137019D01*
X184135Y136830D01*
Y132856D01*
X184124Y132756D01*
X184102Y132634D01*
X184080Y132501D01*
X184035Y132346D01*
X183969Y132190D01*
X183891Y132035D01*
X183880Y132013D01*
X183847Y131968D01*
X183791Y131890D01*
X183713Y131802D01*
X183625Y131702D01*
X183514Y131591D01*
X183381Y131480D01*
X183236Y131380D01*
X183214Y131369D01*
X183170Y131347D01*
X183081Y131302D01*
X182970Y131258D01*
X182837Y131214D01*
X182692Y131169D01*
X182526Y131147D01*
X182348Y131136D01*
X178552D01*
X178541D01*
X178530D01*
X178474D01*
X178375Y131147D01*
X178252Y131169D01*
X178119Y131191D01*
X177964Y131236D01*
X177808Y131302D01*
X177653Y131380D01*
X177631Y131391D01*
X177586Y131424D01*
X177509Y131480D01*
X177420Y131558D01*
X177309Y131657D01*
X177198Y131768D01*
X177098Y131890D01*
X176998Y132035D01*
X176987Y132057D01*
X176965Y132113D01*
X176920Y132190D01*
X176876Y132301D01*
X176832Y132434D01*
X176787Y132590D01*
X176765Y132756D01*
X176754Y132934D01*
Y136919D01*
X176765Y137019D01*
X176787Y137141D01*
X176809Y137285D01*
X176854Y137429D01*
X176920Y137596D01*
X176998Y137751D01*
X177009Y137773D01*
X177043Y137818D01*
X177098Y137895D01*
X177165Y137984D01*
X177264Y138084D01*
X177376Y138195D01*
X177509Y138306D01*
X177653Y138395D01*
X177675Y138406D01*
X177720Y138428D01*
X177808Y138473D01*
X177919Y138517D01*
X178053Y138550D01*
X178208Y138595D01*
X178375Y138617D01*
X178552Y138628D01*
X182348D01*
X182370D01*
X182426D01*
X182526Y138617D01*
D02*
G37*
G36*
X184135Y129782D02*
Y123999D01*
X184124Y123910D01*
X184102Y123777D01*
X184080Y123643D01*
X184035Y123488D01*
X183980Y123322D01*
X183902Y123166D01*
X183891Y123144D01*
X183858Y123099D01*
X183802Y123022D01*
X183725Y122933D01*
X183636Y122833D01*
X183525Y122722D01*
X183392Y122622D01*
X183247Y122522D01*
X183225Y122511D01*
X183170Y122489D01*
X183092Y122445D01*
X182981Y122400D01*
X182837Y122356D01*
X182692Y122311D01*
X182526Y122289D01*
X182348Y122278D01*
X178552D01*
X178541D01*
X178530D01*
X178474D01*
X178375Y122289D01*
X178252Y122311D01*
X178119Y122334D01*
X177964Y122378D01*
X177808Y122445D01*
X177653Y122522D01*
X177631Y122533D01*
X177586Y122567D01*
X177509Y122622D01*
X177420Y122700D01*
X177309Y122789D01*
X177198Y122900D01*
X177098Y123022D01*
X176998Y123166D01*
X176987Y123188D01*
X176965Y123244D01*
X176920Y123322D01*
X176876Y123433D01*
X176832Y123577D01*
X176787Y123732D01*
X176765Y123899D01*
X176754Y124087D01*
Y127972D01*
X174334D01*
Y129793D01*
X184135Y129782D01*
D02*
G37*
G36*
Y121279D02*
Y115496D01*
X184124Y115407D01*
X184102Y115274D01*
X184080Y115141D01*
X184035Y114986D01*
X183980Y114819D01*
X183902Y114664D01*
X183891Y114642D01*
X183858Y114597D01*
X183802Y114519D01*
X183725Y114431D01*
X183636Y114331D01*
X183525Y114220D01*
X183392Y114120D01*
X183247Y114020D01*
X183225Y114009D01*
X183170Y113987D01*
X183092Y113942D01*
X182981Y113898D01*
X182837Y113853D01*
X182692Y113809D01*
X182526Y113787D01*
X182348Y113776D01*
X178552D01*
X178541D01*
X178530D01*
X178474D01*
X178375Y113787D01*
X178252Y113809D01*
X178119Y113831D01*
X177964Y113876D01*
X177808Y113942D01*
X177653Y114020D01*
X177631Y114031D01*
X177586Y114064D01*
X177509Y114120D01*
X177420Y114198D01*
X177309Y114286D01*
X177198Y114397D01*
X177098Y114519D01*
X176998Y114664D01*
X176987Y114686D01*
X176965Y114741D01*
X176920Y114819D01*
X176876Y114930D01*
X176832Y115074D01*
X176787Y115230D01*
X176765Y115396D01*
X176754Y115585D01*
Y119470D01*
X174334D01*
Y121290D01*
X184135Y121279D01*
D02*
G37*
G36*
X182526Y112788D02*
X182637Y112777D01*
X182770Y112743D01*
X182925Y112699D01*
X183081Y112643D01*
X183236Y112555D01*
X183258Y112544D01*
X183303Y112510D01*
X183381Y112455D01*
X183469Y112388D01*
X183580Y112288D01*
X183680Y112177D01*
X183791Y112055D01*
X183891Y111911D01*
X183902Y111889D01*
X183924Y111844D01*
X183969Y111756D01*
X184013Y111644D01*
X184058Y111511D01*
X184102Y111356D01*
X184124Y111189D01*
X184135Y111001D01*
Y107027D01*
X184124Y106927D01*
X184102Y106805D01*
X184080Y106672D01*
X184035Y106516D01*
X183969Y106361D01*
X183891Y106206D01*
X183880Y106183D01*
X183847Y106139D01*
X183791Y106061D01*
X183713Y105972D01*
X183625Y105873D01*
X183514Y105762D01*
X183381Y105651D01*
X183236Y105551D01*
X183214Y105540D01*
X183170Y105517D01*
X183081Y105473D01*
X182970Y105429D01*
X182837Y105384D01*
X182692Y105340D01*
X182526Y105318D01*
X182348Y105307D01*
X178552D01*
X178541D01*
X178530D01*
X178474D01*
X178375Y105318D01*
X178252Y105340D01*
X178119Y105362D01*
X177964Y105406D01*
X177808Y105473D01*
X177653Y105551D01*
X177631Y105562D01*
X177586Y105595D01*
X177509Y105651D01*
X177420Y105728D01*
X177309Y105828D01*
X177198Y105939D01*
X177098Y106061D01*
X176998Y106206D01*
X176987Y106228D01*
X176965Y106283D01*
X176920Y106361D01*
X176876Y106472D01*
X176832Y106605D01*
X176787Y106761D01*
X176765Y106927D01*
X176754Y107105D01*
Y111089D01*
X176765Y111189D01*
X176787Y111312D01*
X176809Y111456D01*
X176854Y111600D01*
X176920Y111767D01*
X176998Y111922D01*
X177009Y111944D01*
X177043Y111989D01*
X177098Y112066D01*
X177165Y112155D01*
X177264Y112255D01*
X177376Y112366D01*
X177509Y112477D01*
X177653Y112566D01*
X177675Y112577D01*
X177720Y112599D01*
X177808Y112643D01*
X177919Y112688D01*
X178053Y112721D01*
X178208Y112766D01*
X178375Y112788D01*
X178552Y112799D01*
X182348D01*
X182370D01*
X182426D01*
X182526Y112788D01*
D02*
G37*
G36*
X184135Y101910D02*
X178641Y101899D01*
X178630D01*
X178619D01*
X178596D01*
X178585Y101888D01*
X178574Y101877D01*
X178563Y101821D01*
Y99279D01*
X178585Y99235D01*
X178596Y99224D01*
X178608Y99213D01*
X178641D01*
X184135D01*
Y97392D01*
X178641D01*
X178630D01*
X178619D01*
X178596Y97381D01*
X178585Y97370D01*
X178574Y97359D01*
X178563Y97315D01*
Y94751D01*
X178585Y94717D01*
X178596Y94706D01*
X178608D01*
X178641D01*
X184135Y94695D01*
Y92875D01*
X176754D01*
Y101988D01*
X176765Y102088D01*
X176787Y102210D01*
X176809Y102354D01*
X176854Y102498D01*
X176920Y102665D01*
X176998Y102820D01*
X177009Y102842D01*
X177043Y102887D01*
X177098Y102964D01*
X177176Y103053D01*
X177264Y103153D01*
X177376Y103264D01*
X177509Y103375D01*
X177653Y103464D01*
X177675Y103475D01*
X177720Y103497D01*
X177808Y103542D01*
X177919Y103586D01*
X178053Y103631D01*
X178208Y103675D01*
X178375Y103697D01*
X178552Y103708D01*
X184135D01*
Y101910D01*
D02*
G37*
G36*
X184135Y140869D02*
X181308D01*
Y143714D01*
X184135D01*
Y140869D01*
D02*
G37*
G36*
X182526Y156231D02*
X182637Y156220D01*
X182770Y156187D01*
X182925Y156142D01*
X183081Y156087D01*
X183236Y155998D01*
X183258Y155987D01*
X183303Y155953D01*
X183381Y155898D01*
X183469Y155831D01*
X183580Y155731D01*
X183680Y155620D01*
X183791Y155498D01*
X183891Y155354D01*
X183902Y155332D01*
X183924Y155287D01*
X183969Y155199D01*
X184013Y155088D01*
X184058Y154954D01*
X184102Y154799D01*
X184124Y154633D01*
X184135Y154444D01*
Y150470D01*
X184124Y150370D01*
X184102Y150248D01*
X184080Y150115D01*
X184035Y149959D01*
X183969Y149804D01*
X183891Y149649D01*
X183880Y149627D01*
X183847Y149582D01*
X183791Y149504D01*
X183713Y149416D01*
X183625Y149316D01*
X183514Y149205D01*
X183381Y149094D01*
X183236Y148994D01*
X183214Y148983D01*
X183170Y148961D01*
X183081Y148916D01*
X182970Y148872D01*
X182837Y148827D01*
X182692Y148783D01*
X182526Y148761D01*
X182348Y148750D01*
X178552D01*
X178541D01*
X178530D01*
X178474D01*
X178375Y148761D01*
X178252Y148783D01*
X178119Y148805D01*
X177964Y148849D01*
X177808Y148916D01*
X177653Y148994D01*
X177631Y149005D01*
X177586Y149038D01*
X177509Y149094D01*
X177420Y149171D01*
X177309Y149271D01*
X177198Y149382D01*
X177098Y149504D01*
X176998Y149649D01*
X176987Y149671D01*
X176965Y149726D01*
X176920Y149804D01*
X176876Y149915D01*
X176832Y150048D01*
X176787Y150204D01*
X176765Y150370D01*
X176754Y150548D01*
Y154533D01*
X176765Y154633D01*
X176787Y154755D01*
X176809Y154899D01*
X176854Y155043D01*
X176920Y155210D01*
X176998Y155365D01*
X177009Y155387D01*
X177043Y155432D01*
X177098Y155509D01*
X177165Y155598D01*
X177264Y155698D01*
X177376Y155809D01*
X177509Y155920D01*
X177653Y156009D01*
X177675Y156020D01*
X177720Y156042D01*
X177808Y156087D01*
X177919Y156131D01*
X178053Y156164D01*
X178208Y156209D01*
X178375Y156231D01*
X178552Y156242D01*
X182348D01*
X182370D01*
X182426D01*
X182526Y156231D01*
D02*
G37*
G36*
X184135Y145875D02*
X176754D01*
Y147684D01*
X184135D01*
Y145875D01*
D02*
G37*
G36*
X176154D02*
X174334D01*
Y147684D01*
X176154D01*
Y145875D01*
D02*
G37*
%LPC*%
G36*
X182259Y136819D02*
X178641D01*
X178630D01*
X178619D01*
X178596Y136808D01*
X178585Y136797D01*
X178574Y136786D01*
X178563Y136775D01*
Y133000D01*
X178585Y132967D01*
X178596Y132956D01*
X178608Y132945D01*
X178641D01*
X182259D01*
X182282D01*
X182315Y132967D01*
Y132978D01*
X182326Y133023D01*
Y136786D01*
X182315Y136797D01*
X182304Y136808D01*
X182259Y136819D01*
D02*
G37*
G36*
Y127972D02*
X178641D01*
X178630D01*
X178619D01*
X178596Y127961D01*
X178585Y127950D01*
X178574Y127939D01*
X178563Y127928D01*
Y124154D01*
X178585Y124121D01*
X178596Y124110D01*
X178608Y124099D01*
X178641D01*
X182259D01*
X182282D01*
X182315Y124121D01*
Y124132D01*
X182326Y124176D01*
Y127939D01*
X182315Y127950D01*
X182304Y127961D01*
X182259Y127972D01*
D02*
G37*
G36*
Y119470D02*
X178641D01*
X178630D01*
X178619D01*
X178596Y119459D01*
X178585Y119448D01*
X178574Y119437D01*
X178563Y119425D01*
Y115652D01*
X178585Y115618D01*
X178596Y115607D01*
X178608Y115596D01*
X178641D01*
X182259D01*
X182282D01*
X182315Y115618D01*
Y115629D01*
X182326Y115674D01*
Y119437D01*
X182315Y119448D01*
X182304Y119459D01*
X182259Y119470D01*
D02*
G37*
G36*
Y110990D02*
X178641D01*
X178630D01*
X178619D01*
X178596Y110978D01*
X178585Y110967D01*
X178574Y110956D01*
X178563Y110945D01*
Y107171D01*
X178585Y107138D01*
X178596Y107127D01*
X178608Y107116D01*
X178641D01*
X182259D01*
X182282D01*
X182315Y107138D01*
Y107149D01*
X182326Y107193D01*
Y110956D01*
X182315Y110967D01*
X182304Y110978D01*
X182259Y110990D01*
D02*
G37*
G36*
Y154433D02*
X178641D01*
X178630D01*
X178619D01*
X178596Y154422D01*
X178585Y154410D01*
X178574Y154399D01*
X178563Y154388D01*
Y150614D01*
X178585Y150581D01*
X178596Y150570D01*
X178608Y150559D01*
X178641D01*
X182259D01*
X182282D01*
X182315Y150581D01*
Y150592D01*
X182326Y150637D01*
Y154399D01*
X182315Y154410D01*
X182304Y154422D01*
X182259Y154433D01*
D02*
G37*
%LPD*%
D10*
X307500Y215000D02*
G03*
X307500Y215000I-2000J0D01*
G01*
X324000D02*
G03*
X324000Y215000I-2000J0D01*
G01*
X217500Y124000D02*
G03*
X217500Y124000I-2000J0D01*
G01*
X234000D02*
G03*
X234000Y124000I-2000J0D01*
G01*
X217500Y33000D02*
G03*
X217500Y33000I-2000J0D01*
G01*
X234000D02*
G03*
X234000Y33000I-2000J0D01*
G01*
X307500Y124000D02*
G03*
X307500Y124000I-2000J0D01*
G01*
X324000D02*
G03*
X324000Y124000I-2000J0D01*
G01*
X37500D02*
G03*
X37500Y124000I-2000J0D01*
G01*
X54000D02*
G03*
X54000Y124000I-2000J0D01*
G01*
X127500Y33000D02*
G03*
X127500Y33000I-2000J0D01*
G01*
X144000D02*
G03*
X144000Y33000I-2000J0D01*
G01*
X127500Y124000D02*
G03*
X127500Y124000I-2000J0D01*
G01*
X144000D02*
G03*
X144000Y124000I-2000J0D01*
G01*
X217500Y215000D02*
G03*
X217500Y215000I-2000J0D01*
G01*
X234000D02*
G03*
X234000Y215000I-2000J0D01*
G01*
X37500D02*
G03*
X37500Y215000I-2000J0D01*
G01*
X54000D02*
G03*
X54000Y215000I-2000J0D01*
G01*
X307500Y33000D02*
G03*
X307500Y33000I-2000J0D01*
G01*
X324000D02*
G03*
X324000Y33000I-2000J0D01*
G01*
X37500D02*
G03*
X37500Y33000I-2000J0D01*
G01*
X54000D02*
G03*
X54000Y33000I-2000J0D01*
G01*
X127500Y215000D02*
G03*
X127500Y215000I-2000J0D01*
G01*
X144000D02*
G03*
X144000Y215000I-2000J0D01*
G01*
D11*
X292500Y187500D02*
Y242500D01*
X337500Y187500D02*
Y242500D01*
X283000Y187500D02*
Y242500D01*
X347000Y187500D02*
Y242500D01*
X302500Y247500D02*
X327500D01*
X302500Y182500D02*
X327500D01*
X305500Y215000D02*
X320250Y229750D01*
X292500Y215000D02*
X305500D01*
X322000D02*
X337500D01*
X202500Y96500D02*
Y151500D01*
X247500Y96500D02*
Y151500D01*
X193000Y96500D02*
Y151500D01*
X257000Y96500D02*
Y151500D01*
X212500Y156500D02*
X237500D01*
X212500Y91500D02*
X237500D01*
X215500Y124000D02*
X230250Y138750D01*
X202500Y124000D02*
X215500D01*
X232000D02*
X247500D01*
X202500Y5500D02*
Y60500D01*
X247500Y5500D02*
Y60500D01*
X193000Y5500D02*
Y60500D01*
X257000Y5500D02*
Y60500D01*
X212500Y65500D02*
X237500D01*
X212500Y500D02*
X237500D01*
X215500Y33000D02*
X230250Y47750D01*
X202500Y33000D02*
X215500D01*
X232000D02*
X247500D01*
X292500Y96500D02*
Y151500D01*
X337500Y96500D02*
Y151500D01*
X283000Y96500D02*
Y151500D01*
X347000Y96500D02*
Y151500D01*
X302500Y156500D02*
X327500D01*
X302500Y91500D02*
X327500D01*
X305500Y124000D02*
X320250Y138750D01*
X292500Y124000D02*
X305500D01*
X322000D02*
X337500D01*
X22500Y96500D02*
Y151500D01*
X67500Y96500D02*
Y151500D01*
X13000Y96500D02*
Y151500D01*
X77000Y96500D02*
Y151500D01*
X32500Y156500D02*
X57500D01*
X32500Y91500D02*
X57500D01*
X35500Y124000D02*
X50250Y138750D01*
X22500Y124000D02*
X35500D01*
X52000D02*
X67500D01*
X112500Y5500D02*
Y60500D01*
X157500Y5500D02*
Y60500D01*
X103000Y5500D02*
Y60500D01*
X167000Y5500D02*
Y60500D01*
X122500Y65500D02*
X147500D01*
X122500Y500D02*
X147500D01*
X125500Y33000D02*
X140250Y47750D01*
X112500Y33000D02*
X125500D01*
X142000D02*
X157500D01*
X112500Y96500D02*
Y151500D01*
X157500Y96500D02*
Y151500D01*
X103000Y96500D02*
Y151500D01*
X167000Y96500D02*
Y151500D01*
X122500Y156500D02*
X147500D01*
X122500Y91500D02*
X147500D01*
X125500Y124000D02*
X140250Y138750D01*
X112500Y124000D02*
X125500D01*
X142000D02*
X157500D01*
X202500Y187500D02*
Y242500D01*
X247500Y187500D02*
Y242500D01*
X193000Y187500D02*
Y242500D01*
X257000Y187500D02*
Y242500D01*
X212500Y247500D02*
X237500D01*
X212500Y182500D02*
X237500D01*
X215500Y215000D02*
X230250Y229750D01*
X202500Y215000D02*
X215500D01*
X232000D02*
X247500D01*
X22500Y187500D02*
Y242500D01*
X67500Y187500D02*
Y242500D01*
X13000Y187500D02*
Y242500D01*
X77000Y187500D02*
Y242500D01*
X32500Y247500D02*
X57500D01*
X32500Y182500D02*
X57500D01*
X35500Y215000D02*
X50250Y229750D01*
X22500Y215000D02*
X35500D01*
X52000D02*
X67500D01*
X292500Y5500D02*
Y60500D01*
X337500Y5500D02*
Y60500D01*
X283000Y5500D02*
Y60500D01*
X347000Y5500D02*
Y60500D01*
X302500Y65500D02*
X327500D01*
X302500Y500D02*
X327500D01*
X305500Y33000D02*
X320250Y47750D01*
X292500Y33000D02*
X305500D01*
X322000D02*
X337500D01*
X22500Y5500D02*
Y60500D01*
X67500Y5500D02*
Y60500D01*
X13000Y5500D02*
Y60500D01*
X77000Y5500D02*
Y60500D01*
X32500Y65500D02*
X57500D01*
X32500Y500D02*
X57500D01*
X35500Y33000D02*
X50250Y47750D01*
X22500Y33000D02*
X35500D01*
X52000D02*
X67500D01*
X112500Y187500D02*
Y242500D01*
X157500Y187500D02*
Y242500D01*
X103000Y187500D02*
Y242500D01*
X167000Y187500D02*
Y242500D01*
X122500Y247500D02*
X147500D01*
X122500Y182500D02*
X147500D01*
X125500Y215000D02*
X140250Y229750D01*
X112500Y215000D02*
X125500D01*
X142000D02*
X157500D01*
D12*
X309502Y177999D02*
X308502Y178999D01*
X306503D01*
X305503Y177999D01*
Y177000D01*
X306503Y176000D01*
X308502D01*
X309502Y175000D01*
Y174001D01*
X308502Y173001D01*
X306503D01*
X305503Y174001D01*
X311501Y178999D02*
Y173001D01*
X313500Y175000D01*
X315500Y173001D01*
Y178999D01*
X317499Y173001D02*
X319499D01*
X318499D01*
Y178999D01*
X317499Y177999D01*
X322498Y173001D02*
X324497D01*
X323497D01*
Y178999D01*
X322498Y177999D01*
X221001Y86999D02*
X220002Y87999D01*
X218002D01*
X217003Y86999D01*
Y86000D01*
X218002Y85000D01*
X220002D01*
X221001Y84000D01*
Y83001D01*
X220002Y82001D01*
X218002D01*
X217003Y83001D01*
X223001Y87999D02*
Y82001D01*
X225000Y84000D01*
X226999Y82001D01*
Y87999D01*
X228999D02*
X232997D01*
Y86999D01*
X228999Y83001D01*
Y82001D01*
X221001Y-4001D02*
X220002Y-3001D01*
X218002D01*
X217003Y-4001D01*
Y-5000D01*
X218002Y-6000D01*
X220002D01*
X221001Y-7000D01*
Y-7999D01*
X220002Y-8999D01*
X218002D01*
X217003Y-7999D01*
X223001Y-3001D02*
Y-8999D01*
X225000Y-7000D01*
X226999Y-8999D01*
Y-3001D01*
X232997D02*
X230998Y-4001D01*
X228999Y-6000D01*
Y-7999D01*
X229998Y-8999D01*
X231998D01*
X232997Y-7999D01*
Y-7000D01*
X231998Y-6000D01*
X228999D01*
X308502Y86999D02*
X307502Y87999D01*
X305503D01*
X304503Y86999D01*
Y86000D01*
X305503Y85000D01*
X307502D01*
X308502Y84000D01*
Y83001D01*
X307502Y82001D01*
X305503D01*
X304503Y83001D01*
X310501Y87999D02*
Y82001D01*
X312501Y84000D01*
X314500Y82001D01*
Y87999D01*
X316500Y82001D02*
X318499D01*
X317499D01*
Y87999D01*
X316500Y86999D01*
X321498D02*
X322498Y87999D01*
X324497D01*
X325497Y86999D01*
Y83001D01*
X324497Y82001D01*
X322498D01*
X321498Y83001D01*
Y86999D01*
X42001D02*
X41001Y87999D01*
X39002D01*
X38002Y86999D01*
Y86000D01*
X39002Y85000D01*
X41001D01*
X42001Y84000D01*
Y83001D01*
X41001Y82001D01*
X39002D01*
X38002Y83001D01*
X44000Y87999D02*
Y82001D01*
X46000Y84000D01*
X47999Y82001D01*
Y87999D01*
X49998Y82001D02*
X51998D01*
X50998D01*
Y87999D01*
X49998Y86999D01*
X131501Y-4001D02*
X130502Y-3001D01*
X128502D01*
X127503Y-4001D01*
Y-5000D01*
X128502Y-6000D01*
X130502D01*
X131501Y-7000D01*
Y-7999D01*
X130502Y-8999D01*
X128502D01*
X127503Y-7999D01*
X133501Y-3001D02*
Y-8999D01*
X135500Y-7000D01*
X137499Y-8999D01*
Y-3001D01*
X139499Y-4001D02*
X140498Y-3001D01*
X142498D01*
X143497Y-4001D01*
Y-5000D01*
X142498Y-6000D01*
X141498D01*
X142498D01*
X143497Y-7000D01*
Y-7999D01*
X142498Y-8999D01*
X140498D01*
X139499Y-7999D01*
X131501Y86999D02*
X130502Y87999D01*
X128502D01*
X127503Y86999D01*
Y86000D01*
X128502Y85000D01*
X130502D01*
X131501Y84000D01*
Y83001D01*
X130502Y82001D01*
X128502D01*
X127503Y83001D01*
X133501Y87999D02*
Y82001D01*
X135500Y84000D01*
X137499Y82001D01*
Y87999D01*
X142498Y82001D02*
Y87999D01*
X139499Y85000D01*
X143497D01*
X221001Y177999D02*
X220002Y178999D01*
X218002D01*
X217003Y177999D01*
Y177000D01*
X218002Y176000D01*
X220002D01*
X221001Y175000D01*
Y174001D01*
X220002Y173001D01*
X218002D01*
X217003Y174001D01*
X223001Y178999D02*
Y173001D01*
X225000Y175000D01*
X226999Y173001D01*
Y178999D01*
X228999Y177999D02*
X229998Y178999D01*
X231998D01*
X232997Y177999D01*
Y177000D01*
X231998Y176000D01*
X232997Y175000D01*
Y174001D01*
X231998Y173001D01*
X229998D01*
X228999Y174001D01*
Y175000D01*
X229998Y176000D01*
X228999Y177000D01*
Y177999D01*
X229998Y176000D02*
X231998D01*
X41001Y176999D02*
X40002Y177999D01*
X38002D01*
X37003Y176999D01*
Y176000D01*
X38002Y175000D01*
X40002D01*
X41001Y174000D01*
Y173001D01*
X40002Y172001D01*
X38002D01*
X37003Y173001D01*
X43001Y177999D02*
Y172001D01*
X45000Y174000D01*
X46999Y172001D01*
Y177999D01*
X52997Y172001D02*
X48999D01*
X52997Y176000D01*
Y176999D01*
X51998Y177999D01*
X49998D01*
X48999Y176999D01*
X311001Y-4001D02*
X310002Y-3001D01*
X308002D01*
X307003Y-4001D01*
Y-5000D01*
X308002Y-6000D01*
X310002D01*
X311001Y-7000D01*
Y-7999D01*
X310002Y-8999D01*
X308002D01*
X307003Y-7999D01*
X313001Y-3001D02*
Y-8999D01*
X315000Y-7000D01*
X316999Y-8999D01*
Y-3001D01*
X318999Y-7999D02*
X319998Y-8999D01*
X321998D01*
X322997Y-7999D01*
Y-4001D01*
X321998Y-3001D01*
X319998D01*
X318999Y-4001D01*
Y-5000D01*
X319998Y-6000D01*
X322997D01*
X41001Y-4001D02*
X40002Y-3001D01*
X38002D01*
X37003Y-4001D01*
Y-5000D01*
X38002Y-6000D01*
X40002D01*
X41001Y-7000D01*
Y-7999D01*
X40002Y-8999D01*
X38002D01*
X37003Y-7999D01*
X43001Y-3001D02*
Y-8999D01*
X45000Y-7000D01*
X46999Y-8999D01*
Y-3001D01*
X48999Y-4001D02*
X49998Y-3001D01*
X51998D01*
X52997Y-4001D01*
Y-7999D01*
X51998Y-8999D01*
X49998D01*
X48999Y-7999D01*
Y-4001D01*
X131001Y177999D02*
X130002Y178999D01*
X128002D01*
X127003Y177999D01*
Y177000D01*
X128002Y176000D01*
X130002D01*
X131001Y175000D01*
Y174001D01*
X130002Y173001D01*
X128002D01*
X127003Y174001D01*
X133001Y178999D02*
Y173001D01*
X135000Y175000D01*
X136999Y173001D01*
Y178999D01*
X142997D02*
X138999D01*
Y176000D01*
X140998Y177000D01*
X141998D01*
X142997Y176000D01*
Y174001D01*
X141998Y173001D01*
X139998D01*
X138999Y174001D01*
M02*
