G04*
G04 #@! TF.GenerationSoftware,Altium Limited,Altium Designer,26.5.0 (11)*
G04*
G04 Layer_Color=32896*
G04 Board_Origin=30663386|31124408*
%FSLAX44Y44*%
%MOMM*%
G71*
G04*
G04 #@! TF.SameCoordinates,90DB835B-561C-4088-83E5-6E4880DCFF8A*
G04*
G04*
G04 #@! TF.FilePolarity,Positive*
G04*
G01*
G75*
%ADD12C,0.1500*%
%ADD25C,0.2000*%
%ADD26C,0.1270*%
G36*
X45524Y157059D02*
X46016D01*
Y156977D01*
X46344D01*
Y156895D01*
X46590D01*
Y156812D01*
X46836D01*
Y156730D01*
X47082D01*
Y156649D01*
X47246D01*
Y156566D01*
X47410D01*
Y156484D01*
X47574D01*
Y156402D01*
X47738D01*
Y156320D01*
X47902D01*
Y156238D01*
X47984D01*
Y156156D01*
X48148D01*
Y156074D01*
X48231D01*
Y155992D01*
X48395D01*
Y155910D01*
X48477D01*
Y155828D01*
X48559D01*
Y155746D01*
X48641D01*
Y155664D01*
X48805D01*
Y155582D01*
X48887D01*
Y155500D01*
X48969D01*
Y155418D01*
X49051D01*
Y155336D01*
X49133D01*
Y155254D01*
X49215D01*
Y155172D01*
X49297D01*
Y155008D01*
X49379D01*
Y154926D01*
X49461D01*
Y154844D01*
X49543D01*
Y154762D01*
X49625D01*
Y154598D01*
X49707D01*
Y154516D01*
X49789D01*
Y154352D01*
X49871D01*
Y154270D01*
X49953D01*
Y154188D01*
X50035D01*
Y154024D01*
X50117D01*
Y153859D01*
X50199D01*
Y153695D01*
X50281D01*
Y153531D01*
X50363D01*
Y153367D01*
X50445D01*
Y153285D01*
X50527D01*
Y153121D01*
X50609D01*
Y152957D01*
X50691D01*
Y152793D01*
X50774D01*
Y152629D01*
X50855D01*
Y152465D01*
X50938D01*
Y152301D01*
X51020D01*
Y152219D01*
X51102D01*
Y152055D01*
X51184D01*
Y151891D01*
X51266D01*
Y151727D01*
X51348D01*
Y151562D01*
X51430D01*
Y151398D01*
X51512D01*
Y151316D01*
X51594D01*
Y151152D01*
X51676D01*
Y150988D01*
X51758D01*
Y150824D01*
X51840D01*
Y150660D01*
X51922D01*
Y150496D01*
X52004D01*
Y150414D01*
X52086D01*
Y150250D01*
X52168D01*
Y150086D01*
X52250D01*
Y149922D01*
X52332D01*
Y149758D01*
X52414D01*
Y149594D01*
X52496D01*
Y149512D01*
X52578D01*
Y149348D01*
X52660D01*
Y149184D01*
X52742D01*
Y149020D01*
X52824D01*
Y148855D01*
X52906D01*
Y148691D01*
X52988D01*
Y148609D01*
X53070D01*
Y148445D01*
X53152D01*
Y148281D01*
X53234D01*
Y148117D01*
X53316D01*
Y147953D01*
X53398D01*
Y147789D01*
X53481D01*
Y147625D01*
X53562D01*
Y147543D01*
X53645D01*
Y147379D01*
X53727D01*
Y147215D01*
X53809D01*
Y147051D01*
X53891D01*
Y146887D01*
X53973D01*
Y146723D01*
X54055D01*
Y146641D01*
X54137D01*
Y146477D01*
X54219D01*
Y146313D01*
X54301D01*
Y146149D01*
X54383D01*
Y145984D01*
X54465D01*
Y145820D01*
X54547D01*
Y145738D01*
X54629D01*
Y145574D01*
X54711D01*
Y145410D01*
X54793D01*
Y145246D01*
X54875D01*
Y145082D01*
X54957D01*
Y144918D01*
X55039D01*
Y144836D01*
X55121D01*
Y144672D01*
X55203D01*
Y144508D01*
X55285D01*
Y144344D01*
X55367D01*
Y144180D01*
X55449D01*
Y144016D01*
X55531D01*
Y143934D01*
X55613D01*
Y143770D01*
X55695D01*
Y143605D01*
X55777D01*
Y143441D01*
X55859D01*
Y143277D01*
X55941D01*
Y143113D01*
X56024D01*
Y143031D01*
X56105D01*
Y142867D01*
X56188D01*
Y142703D01*
X56270D01*
Y142539D01*
X56352D01*
Y142375D01*
X56434D01*
Y142211D01*
X56516D01*
Y142047D01*
X56598D01*
Y141965D01*
X56680D01*
Y141801D01*
X56762D01*
Y141637D01*
X56844D01*
Y141473D01*
X56926D01*
Y141309D01*
X57008D01*
Y141145D01*
X57090D01*
Y141062D01*
X57172D01*
Y140899D01*
X57254D01*
Y140734D01*
X57336D01*
Y140570D01*
X57418D01*
Y140406D01*
X57500D01*
Y140242D01*
X57582D01*
Y140160D01*
X57664D01*
Y139996D01*
X57746D01*
Y139832D01*
X57828D01*
Y139668D01*
X57910D01*
Y139504D01*
X57992D01*
Y139340D01*
X58074D01*
Y139258D01*
X58156D01*
Y139094D01*
X58238D01*
Y138930D01*
X58320D01*
Y138766D01*
X58402D01*
Y138602D01*
X58484D01*
Y138438D01*
X58566D01*
Y138356D01*
X58649D01*
Y138191D01*
X58731D01*
Y138027D01*
X58812D01*
Y137863D01*
X58895D01*
Y137699D01*
X58977D01*
Y137535D01*
X59059D01*
Y137453D01*
X59141D01*
Y137289D01*
X59223D01*
Y137125D01*
X59305D01*
Y136961D01*
X59387D01*
Y136797D01*
X59469D01*
Y136633D01*
X59551D01*
Y136469D01*
X59633D01*
Y136387D01*
X59715D01*
Y136223D01*
X59797D01*
Y136059D01*
X59879D01*
Y135895D01*
X59961D01*
Y135730D01*
X60043D01*
Y135566D01*
X60125D01*
Y135484D01*
X60207D01*
Y135320D01*
X60289D01*
Y135156D01*
X60371D01*
Y134992D01*
X60453D01*
Y134828D01*
X60535D01*
Y134664D01*
X60617D01*
Y134582D01*
X60699D01*
Y134418D01*
X60781D01*
Y134254D01*
X60863D01*
Y134090D01*
X60945D01*
Y133926D01*
X61027D01*
Y133762D01*
X61109D01*
Y133680D01*
X61191D01*
Y133516D01*
X61273D01*
Y133352D01*
X61356D01*
Y133188D01*
X61438D01*
Y133024D01*
X61520D01*
Y132859D01*
X61602D01*
Y132777D01*
X61684D01*
Y132613D01*
X61766D01*
Y132449D01*
X61848D01*
Y132285D01*
X61930D01*
Y132121D01*
X62012D01*
Y131957D01*
X62094D01*
Y131793D01*
X62176D01*
Y131711D01*
X62258D01*
Y131547D01*
X62340D01*
Y131383D01*
X62422D01*
Y131219D01*
X62504D01*
Y131055D01*
X62586D01*
Y130891D01*
X62668D01*
Y130809D01*
X62750D01*
Y130645D01*
X62832D01*
Y130480D01*
X62914D01*
Y130316D01*
X62996D01*
Y130152D01*
X63078D01*
Y129988D01*
X63160D01*
Y129906D01*
X63242D01*
Y129742D01*
X63324D01*
Y129578D01*
X63406D01*
Y129414D01*
X63488D01*
Y129250D01*
X63570D01*
Y129086D01*
X63652D01*
Y129004D01*
X63734D01*
Y128840D01*
X63816D01*
Y128676D01*
X63899D01*
Y128512D01*
X63980D01*
Y128348D01*
X64062D01*
Y128184D01*
X64145D01*
Y128102D01*
X64227D01*
Y127937D01*
X64309D01*
Y127774D01*
X64391D01*
Y127609D01*
X64473D01*
Y127445D01*
X64555D01*
Y127281D01*
X64637D01*
Y127199D01*
X64719D01*
Y127035D01*
X64801D01*
Y126871D01*
X64883D01*
Y126707D01*
X64965D01*
Y126543D01*
X65047D01*
Y126379D01*
X65129D01*
Y126215D01*
X65211D01*
Y126051D01*
X65293D01*
Y125805D01*
X65375D01*
Y125559D01*
X65457D01*
Y125312D01*
X65539D01*
Y124902D01*
X65621D01*
Y124410D01*
X65703D01*
Y123180D01*
X65621D01*
Y122605D01*
X65539D01*
Y122195D01*
X65457D01*
Y121949D01*
X65375D01*
Y121703D01*
X65293D01*
Y121457D01*
X65211D01*
Y121293D01*
X65129D01*
Y121129D01*
X65047D01*
Y120965D01*
X64965D01*
Y120801D01*
X64883D01*
Y120637D01*
X64801D01*
Y120473D01*
X64719D01*
Y120391D01*
X64637D01*
Y120227D01*
X64555D01*
Y120145D01*
X64473D01*
Y119980D01*
X64391D01*
Y119899D01*
X64309D01*
Y119816D01*
X64227D01*
Y119734D01*
X64145D01*
Y119652D01*
X64062D01*
Y119488D01*
X63980D01*
Y119406D01*
X63899D01*
Y119324D01*
X63816D01*
Y119242D01*
X63652D01*
Y119160D01*
X63570D01*
Y119078D01*
X63488D01*
Y118996D01*
X63406D01*
Y118914D01*
X63324D01*
Y118832D01*
X63160D01*
Y118750D01*
X63078D01*
Y118668D01*
X62996D01*
Y118586D01*
X62832D01*
Y118504D01*
X62750D01*
Y118422D01*
X62586D01*
Y118340D01*
X62422D01*
Y118258D01*
X62258D01*
Y118176D01*
X62094D01*
Y118094D01*
X61930D01*
Y118012D01*
X61684D01*
Y117930D01*
X61438D01*
Y117848D01*
X61191D01*
Y117766D01*
X60781D01*
Y117684D01*
X60453D01*
Y117602D01*
X28953D01*
Y117684D01*
X28625D01*
Y117766D01*
X28215D01*
Y117848D01*
X27969D01*
Y117930D01*
X27723D01*
Y118012D01*
X27477D01*
Y118094D01*
X27313D01*
Y118176D01*
X27148D01*
Y118258D01*
X26984D01*
Y118340D01*
X26820D01*
Y118422D01*
X26656D01*
Y118504D01*
X26574D01*
Y118586D01*
X26410D01*
Y118668D01*
X26328D01*
Y118750D01*
X26246D01*
Y118832D01*
X26082D01*
Y118914D01*
X26000D01*
Y118996D01*
X25918D01*
Y119078D01*
X25836D01*
Y119160D01*
X25754D01*
Y119242D01*
X25590D01*
Y119324D01*
X25508D01*
Y119406D01*
X25426D01*
Y119488D01*
X25344D01*
Y119652D01*
X25262D01*
Y119734D01*
X25180D01*
Y119816D01*
X25098D01*
Y119899D01*
X25016D01*
Y119980D01*
X24934D01*
Y120145D01*
X24852D01*
Y120227D01*
X24770D01*
Y120391D01*
X24688D01*
Y120473D01*
X24606D01*
Y120637D01*
X24523D01*
Y120719D01*
X24441D01*
Y120965D01*
X24359D01*
Y121129D01*
X24277D01*
Y121293D01*
X24195D01*
Y121457D01*
X24113D01*
Y121703D01*
X24031D01*
Y121949D01*
X23949D01*
Y122195D01*
X23867D01*
Y122605D01*
X23785D01*
Y123180D01*
X23703D01*
Y124410D01*
X23785D01*
Y124902D01*
X23867D01*
Y125312D01*
X23949D01*
Y125559D01*
X24031D01*
Y125805D01*
X24113D01*
Y126051D01*
X24195D01*
Y126215D01*
X24277D01*
Y126379D01*
X24359D01*
Y126543D01*
X24441D01*
Y126707D01*
X24523D01*
Y126871D01*
X24606D01*
Y127035D01*
X24688D01*
Y127117D01*
X24770D01*
Y127281D01*
X24852D01*
Y127445D01*
X24934D01*
Y127609D01*
X25016D01*
Y127774D01*
X25098D01*
Y127937D01*
X25180D01*
Y128020D01*
X25262D01*
Y128184D01*
X25344D01*
Y128348D01*
X25426D01*
Y128512D01*
X25508D01*
Y128676D01*
X25590D01*
Y128840D01*
X25672D01*
Y129004D01*
X25754D01*
Y129086D01*
X25836D01*
Y129250D01*
X25918D01*
Y129414D01*
X26000D01*
Y129578D01*
X26082D01*
Y129742D01*
X26164D01*
Y129906D01*
X26246D01*
Y129988D01*
X26328D01*
Y130152D01*
X26410D01*
Y130316D01*
X26492D01*
Y130480D01*
X26574D01*
Y130645D01*
X26656D01*
Y130809D01*
X26738D01*
Y130891D01*
X26820D01*
Y131055D01*
X26902D01*
Y131219D01*
X26984D01*
Y131383D01*
X27066D01*
Y131547D01*
X27148D01*
Y131711D01*
X27231D01*
Y131793D01*
X27313D01*
Y131957D01*
X27395D01*
Y132121D01*
X27477D01*
Y132285D01*
X27559D01*
Y132449D01*
X27641D01*
Y132613D01*
X27723D01*
Y132695D01*
X27805D01*
Y132859D01*
X27887D01*
Y133024D01*
X27969D01*
Y133188D01*
X28051D01*
Y133352D01*
X28133D01*
Y133516D01*
X28215D01*
Y133680D01*
X28297D01*
Y133762D01*
X28379D01*
Y133926D01*
X28461D01*
Y134090D01*
X28543D01*
Y134254D01*
X28625D01*
Y134418D01*
X28707D01*
Y134582D01*
X28789D01*
Y134664D01*
X28871D01*
Y134828D01*
X28953D01*
Y134992D01*
X29035D01*
Y135156D01*
X29117D01*
Y135320D01*
X29199D01*
Y135484D01*
X29281D01*
Y135566D01*
X29363D01*
Y135730D01*
X29445D01*
Y135895D01*
X29527D01*
Y136059D01*
X29609D01*
Y136223D01*
X29691D01*
Y136387D01*
X29773D01*
Y136469D01*
X29855D01*
Y136633D01*
X29938D01*
Y136797D01*
X30020D01*
Y136961D01*
X30102D01*
Y137125D01*
X30184D01*
Y137289D01*
X30266D01*
Y137371D01*
X30348D01*
Y137535D01*
X30430D01*
Y137699D01*
X30512D01*
Y137863D01*
X30594D01*
Y138027D01*
X30676D01*
Y138191D01*
X30758D01*
Y138273D01*
X30840D01*
Y138438D01*
X30922D01*
Y138602D01*
X31004D01*
Y138766D01*
X31086D01*
Y138930D01*
X31168D01*
Y139094D01*
X31250D01*
Y139258D01*
X31332D01*
Y139340D01*
X31414D01*
Y139504D01*
X31496D01*
Y139668D01*
X31578D01*
Y139832D01*
X31660D01*
Y139996D01*
X31742D01*
Y140160D01*
X31824D01*
Y140242D01*
X31906D01*
Y140406D01*
X31988D01*
Y140570D01*
X32070D01*
Y140734D01*
X32152D01*
Y140899D01*
X32234D01*
Y141062D01*
X32316D01*
Y141145D01*
X32399D01*
Y141309D01*
X32480D01*
Y141473D01*
X32562D01*
Y141637D01*
X32645D01*
Y141801D01*
X32727D01*
Y141965D01*
X32809D01*
Y142047D01*
X32891D01*
Y142211D01*
X32973D01*
Y142375D01*
X33055D01*
Y142539D01*
X33137D01*
Y142703D01*
X33219D01*
Y142867D01*
X33301D01*
Y142949D01*
X33383D01*
Y143113D01*
X33465D01*
Y143277D01*
X33547D01*
Y143441D01*
X33629D01*
Y143605D01*
X33711D01*
Y143770D01*
X33793D01*
Y143934D01*
X33875D01*
Y144016D01*
X33957D01*
Y144180D01*
X34039D01*
Y144344D01*
X34121D01*
Y144508D01*
X34203D01*
Y144672D01*
X34285D01*
Y144836D01*
X34367D01*
Y144918D01*
X34449D01*
Y145082D01*
X34531D01*
Y145246D01*
X34613D01*
Y145410D01*
X34695D01*
Y145574D01*
X34777D01*
Y145738D01*
X34859D01*
Y145820D01*
X34941D01*
Y145984D01*
X35024D01*
Y146149D01*
X35106D01*
Y146313D01*
X35187D01*
Y146477D01*
X35270D01*
Y146641D01*
X35352D01*
Y146723D01*
X35434D01*
Y146887D01*
X35516D01*
Y147051D01*
X35598D01*
Y147215D01*
X35680D01*
Y147379D01*
X35762D01*
Y147543D01*
X35844D01*
Y147625D01*
X35926D01*
Y147789D01*
X36008D01*
Y147953D01*
X36090D01*
Y148117D01*
X36172D01*
Y148281D01*
X36254D01*
Y148445D01*
X36336D01*
Y148609D01*
X36418D01*
Y148691D01*
X36500D01*
Y148855D01*
X36582D01*
Y149020D01*
X36664D01*
Y149184D01*
X36746D01*
Y149348D01*
X36828D01*
Y149512D01*
X36910D01*
Y149594D01*
X36992D01*
Y149758D01*
X37074D01*
Y149922D01*
X37156D01*
Y150086D01*
X37238D01*
Y150250D01*
X37320D01*
Y150414D01*
X37402D01*
Y150496D01*
X37484D01*
Y150660D01*
X37566D01*
Y150824D01*
X37648D01*
Y150988D01*
X37731D01*
Y151152D01*
X37812D01*
Y151316D01*
X37895D01*
Y151398D01*
X37977D01*
Y151562D01*
X38059D01*
Y151727D01*
X38141D01*
Y151891D01*
X38223D01*
Y152055D01*
X38305D01*
Y152219D01*
X38387D01*
Y152301D01*
X38469D01*
Y152465D01*
X38551D01*
Y152629D01*
X38633D01*
Y152793D01*
X38715D01*
Y152957D01*
X38797D01*
Y153121D01*
X38879D01*
Y153285D01*
X38961D01*
Y153367D01*
X39043D01*
Y153531D01*
X39125D01*
Y153695D01*
X39207D01*
Y153859D01*
X39289D01*
Y154024D01*
X39371D01*
Y154188D01*
X39453D01*
Y154270D01*
X39535D01*
Y154352D01*
X39617D01*
Y154516D01*
X39699D01*
Y154598D01*
X39781D01*
Y154762D01*
X39863D01*
Y154844D01*
X39945D01*
Y154926D01*
X40027D01*
Y155008D01*
X40109D01*
Y155090D01*
X40191D01*
Y155254D01*
X40273D01*
Y155336D01*
X40356D01*
Y155418D01*
X40437D01*
Y155500D01*
X40520D01*
Y155582D01*
X40602D01*
Y155664D01*
X40766D01*
Y155746D01*
X40848D01*
Y155828D01*
X40930D01*
Y155910D01*
X41012D01*
Y155992D01*
X41176D01*
Y156074D01*
X41258D01*
Y156156D01*
X41422D01*
Y156238D01*
X41504D01*
Y156320D01*
X41668D01*
Y156402D01*
X41832D01*
Y156484D01*
X41996D01*
Y156566D01*
X42160D01*
Y156649D01*
X42324D01*
Y156730D01*
X42570D01*
Y156812D01*
X42816D01*
Y156895D01*
X43063D01*
Y156977D01*
X43391D01*
Y157059D01*
X43883D01*
Y157141D01*
X45524D01*
Y157059D01*
D02*
G37*
G36*
X190475Y43225D02*
X190575D01*
Y43200D01*
X190650D01*
Y43175D01*
X190700D01*
Y43150D01*
X190750D01*
Y43125D01*
X190800D01*
Y43100D01*
X190850D01*
Y43075D01*
X190875D01*
Y43050D01*
X190900D01*
Y43025D01*
X190950D01*
Y43000D01*
X190975D01*
Y42975D01*
X191000D01*
Y42925D01*
X191025D01*
Y42900D01*
X191050D01*
Y42875D01*
X191075D01*
Y42850D01*
X191100D01*
Y42800D01*
X191125D01*
Y42750D01*
X191150D01*
Y42700D01*
X191175D01*
Y42625D01*
X191200D01*
Y42550D01*
X191225D01*
Y42375D01*
X191250D01*
Y32125D01*
X191225D01*
Y31950D01*
X191200D01*
Y31875D01*
X191175D01*
Y31800D01*
X191150D01*
Y31750D01*
X191125D01*
Y31700D01*
X191100D01*
Y31675D01*
X191075D01*
Y31625D01*
X191050D01*
Y31600D01*
X191025D01*
Y31575D01*
X191000D01*
Y31550D01*
X190975D01*
Y31525D01*
X190950D01*
Y31500D01*
X190925D01*
Y31475D01*
X190900D01*
Y31450D01*
X190875D01*
Y31425D01*
X190825D01*
Y31400D01*
X190800D01*
Y31375D01*
X190750D01*
Y31350D01*
X190700D01*
Y31325D01*
X190625D01*
Y31300D01*
X190550D01*
Y31275D01*
X190375D01*
Y31250D01*
X186500D01*
Y31275D01*
X186325D01*
Y31300D01*
X186225D01*
Y31325D01*
X186150D01*
Y31350D01*
X186100D01*
Y31375D01*
X186050D01*
Y31400D01*
X186000D01*
Y31425D01*
X185975D01*
Y31450D01*
X185950D01*
Y31475D01*
X185900D01*
Y31500D01*
X185875D01*
Y31525D01*
X185850D01*
Y31550D01*
X185825D01*
Y31575D01*
X185800D01*
Y31600D01*
X185775D01*
Y31650D01*
X185750D01*
Y31675D01*
X185725D01*
Y31725D01*
X185700D01*
Y31775D01*
X185675D01*
Y31825D01*
X185650D01*
Y31900D01*
X185625D01*
Y31975D01*
X185600D01*
Y35575D01*
X185575D01*
Y35725D01*
X185550D01*
Y35800D01*
X185525D01*
Y35875D01*
X185500D01*
Y35925D01*
X185475D01*
Y35975D01*
X185450D01*
Y36025D01*
X185425D01*
Y36050D01*
X185400D01*
Y36100D01*
X185375D01*
Y36125D01*
X185350D01*
Y36150D01*
X185300D01*
Y36175D01*
X185250D01*
Y36200D01*
X185125D01*
Y36175D01*
X185050D01*
Y36150D01*
X185025D01*
Y36125D01*
X185000D01*
Y36100D01*
X184975D01*
Y36075D01*
X184950D01*
Y36050D01*
X184925D01*
Y36025D01*
X184900D01*
Y36000D01*
X184875D01*
Y35975D01*
X184850D01*
Y35950D01*
X184825D01*
Y35925D01*
X184800D01*
Y35900D01*
X184775D01*
Y35875D01*
X184750D01*
Y35850D01*
X184725D01*
Y35825D01*
X184700D01*
Y35800D01*
X184675D01*
Y35775D01*
X184650D01*
Y35750D01*
X184625D01*
Y35725D01*
X184600D01*
Y35700D01*
X184575D01*
Y35650D01*
X184550D01*
Y35625D01*
X184525D01*
Y35600D01*
X184500D01*
Y35575D01*
X184475D01*
Y35550D01*
X184450D01*
Y35525D01*
X184425D01*
Y35500D01*
X184400D01*
Y35475D01*
X184375D01*
Y35450D01*
X184350D01*
Y35425D01*
X184325D01*
Y35400D01*
X184300D01*
Y35375D01*
X184275D01*
Y35350D01*
X184250D01*
Y35325D01*
X184225D01*
Y35300D01*
X184200D01*
Y35275D01*
X184175D01*
Y35250D01*
X184150D01*
Y35225D01*
X184125D01*
Y35200D01*
X184100D01*
Y35175D01*
X184075D01*
Y35150D01*
X184050D01*
Y35100D01*
X184025D01*
Y35075D01*
X184000D01*
Y35050D01*
X183975D01*
Y35025D01*
X183950D01*
Y35000D01*
X183925D01*
Y34975D01*
X183900D01*
Y34950D01*
X183875D01*
Y34925D01*
X183850D01*
Y34900D01*
X183825D01*
Y34875D01*
X183800D01*
Y34850D01*
X183775D01*
Y34825D01*
X183750D01*
Y34800D01*
X183725D01*
Y34775D01*
X183700D01*
Y34750D01*
X183675D01*
Y34725D01*
X183650D01*
Y34700D01*
X183625D01*
Y34675D01*
X183600D01*
Y34650D01*
X183575D01*
Y34600D01*
X183550D01*
Y34575D01*
X183525D01*
Y34550D01*
X183500D01*
Y34525D01*
X183475D01*
Y34500D01*
X183450D01*
Y34475D01*
X183425D01*
Y34450D01*
X183400D01*
Y34425D01*
X183375D01*
Y34400D01*
X183350D01*
Y34375D01*
X183325D01*
Y34350D01*
X183300D01*
Y34325D01*
X183275D01*
Y34300D01*
X183250D01*
Y34275D01*
X183225D01*
Y34250D01*
X183200D01*
Y34225D01*
X183175D01*
Y34200D01*
X183150D01*
Y34175D01*
X183125D01*
Y34150D01*
X183100D01*
Y34100D01*
X183075D01*
Y34075D01*
X183050D01*
Y34050D01*
X183025D01*
Y34025D01*
X183000D01*
Y34000D01*
X182975D01*
Y33975D01*
X182950D01*
Y33950D01*
X182925D01*
Y33925D01*
X182900D01*
Y33900D01*
X182875D01*
Y33875D01*
X182850D01*
Y33850D01*
X182825D01*
Y33825D01*
X182800D01*
Y33800D01*
X182775D01*
Y33775D01*
X182750D01*
Y33750D01*
X182725D01*
Y33725D01*
X182700D01*
Y33700D01*
X182675D01*
Y33675D01*
X182650D01*
Y33650D01*
X182625D01*
Y33600D01*
X182600D01*
Y33575D01*
X182575D01*
Y33550D01*
X182550D01*
Y33525D01*
X182525D01*
Y33500D01*
X182500D01*
Y33475D01*
X182475D01*
Y33450D01*
X182450D01*
Y33425D01*
X182425D01*
Y33400D01*
X182400D01*
Y33375D01*
X182375D01*
Y33350D01*
X182350D01*
Y33325D01*
X182325D01*
Y33300D01*
X182300D01*
Y33275D01*
X182275D01*
Y33250D01*
X182250D01*
Y33225D01*
X182225D01*
Y33200D01*
X182200D01*
Y33175D01*
X182175D01*
Y33150D01*
X182150D01*
Y33100D01*
X182125D01*
Y33075D01*
X182100D01*
Y33050D01*
X182075D01*
Y33025D01*
X182050D01*
Y33000D01*
X182025D01*
Y32975D01*
X182000D01*
Y32950D01*
X181975D01*
Y32925D01*
X181950D01*
Y32900D01*
X181925D01*
Y32875D01*
X181900D01*
Y32850D01*
X181875D01*
Y32825D01*
X181850D01*
Y32800D01*
X181825D01*
Y32775D01*
X181800D01*
Y32750D01*
X181775D01*
Y32725D01*
X181750D01*
Y32700D01*
X181725D01*
Y32675D01*
X181700D01*
Y32650D01*
X181675D01*
Y32600D01*
X181650D01*
Y32575D01*
X181625D01*
Y32550D01*
X181600D01*
Y32525D01*
X181575D01*
Y32500D01*
X181550D01*
Y32475D01*
X181525D01*
Y32450D01*
X181500D01*
Y32425D01*
X181475D01*
Y32400D01*
X181450D01*
Y32375D01*
X181425D01*
Y32350D01*
X181400D01*
Y32325D01*
X181375D01*
Y32300D01*
X181350D01*
Y32275D01*
X181325D01*
Y32250D01*
X181300D01*
Y32225D01*
X181275D01*
Y32200D01*
X181250D01*
Y32175D01*
X181225D01*
Y32150D01*
X181200D01*
Y32100D01*
X181175D01*
Y32075D01*
X181150D01*
Y32050D01*
X181125D01*
Y32025D01*
X181100D01*
Y32000D01*
X181075D01*
Y31975D01*
X181050D01*
Y31950D01*
X181025D01*
Y31925D01*
X181000D01*
Y31900D01*
X180975D01*
Y31875D01*
X180950D01*
Y31850D01*
X180925D01*
Y31825D01*
X180900D01*
Y31800D01*
X180875D01*
Y31775D01*
X180850D01*
Y31750D01*
X180825D01*
Y31725D01*
X180800D01*
Y31700D01*
X180775D01*
Y31675D01*
X180750D01*
Y31650D01*
X180725D01*
Y31600D01*
X180700D01*
Y31575D01*
X180675D01*
Y31550D01*
X180625D01*
Y31525D01*
X180600D01*
Y31500D01*
X180575D01*
Y31475D01*
X180550D01*
Y31450D01*
X180525D01*
Y31425D01*
X180475D01*
Y31400D01*
X180425D01*
Y31375D01*
X180375D01*
Y31350D01*
X180300D01*
Y31325D01*
X180175D01*
Y31300D01*
X179850D01*
Y31325D01*
X179750D01*
Y31350D01*
X179675D01*
Y31375D01*
X179625D01*
Y31400D01*
X179575D01*
Y31425D01*
X179525D01*
Y31450D01*
X179500D01*
Y31475D01*
X179475D01*
Y31500D01*
X179425D01*
Y31525D01*
X179400D01*
Y31550D01*
X179375D01*
Y31575D01*
X179350D01*
Y31600D01*
X179325D01*
Y31625D01*
X179300D01*
Y31650D01*
X179275D01*
Y31675D01*
X179250D01*
Y31725D01*
X179225D01*
Y31750D01*
X179200D01*
Y31775D01*
X179175D01*
Y31800D01*
X179150D01*
Y31825D01*
X179125D01*
Y31850D01*
X179100D01*
Y31875D01*
X179075D01*
Y31900D01*
X179050D01*
Y31925D01*
X179025D01*
Y31950D01*
X179000D01*
Y31975D01*
X178975D01*
Y32000D01*
X178950D01*
Y32025D01*
X178925D01*
Y32050D01*
X178900D01*
Y32075D01*
X178875D01*
Y32100D01*
X178850D01*
Y32125D01*
X178825D01*
Y32150D01*
X178800D01*
Y32175D01*
X178775D01*
Y32225D01*
X178750D01*
Y32250D01*
X178725D01*
Y32275D01*
X178700D01*
Y32300D01*
X178675D01*
Y32325D01*
X178650D01*
Y32350D01*
X178625D01*
Y32375D01*
X178600D01*
Y32400D01*
X178575D01*
Y32425D01*
X178550D01*
Y32450D01*
X178525D01*
Y32475D01*
X178500D01*
Y32500D01*
X178475D01*
Y32525D01*
X178450D01*
Y32550D01*
X178425D01*
Y32575D01*
X178400D01*
Y32600D01*
X178375D01*
Y32625D01*
X178350D01*
Y32650D01*
X178325D01*
Y32675D01*
X178300D01*
Y32725D01*
X178275D01*
Y32750D01*
X178250D01*
Y32775D01*
X178225D01*
Y32800D01*
X178200D01*
Y32825D01*
X178175D01*
Y32850D01*
X178150D01*
Y32875D01*
X178125D01*
Y32900D01*
X178100D01*
Y32925D01*
X178075D01*
Y32950D01*
X178050D01*
Y32975D01*
X178025D01*
Y33000D01*
X178000D01*
Y33025D01*
X177975D01*
Y33050D01*
X177950D01*
Y33075D01*
X177925D01*
Y33100D01*
X177900D01*
Y33125D01*
X177875D01*
Y33150D01*
X177850D01*
Y33175D01*
X177825D01*
Y33225D01*
X177800D01*
Y33250D01*
X177775D01*
Y33275D01*
X177750D01*
Y33300D01*
X177725D01*
Y33325D01*
X177700D01*
Y33350D01*
X177675D01*
Y33375D01*
X177650D01*
Y33400D01*
X177625D01*
Y33425D01*
X177600D01*
Y33450D01*
X177575D01*
Y33475D01*
X177550D01*
Y33500D01*
X177525D01*
Y33525D01*
X177500D01*
Y33550D01*
X177475D01*
Y33575D01*
X177450D01*
Y33600D01*
X177425D01*
Y33625D01*
X177400D01*
Y33650D01*
X177375D01*
Y33675D01*
X177350D01*
Y33725D01*
X177325D01*
Y33750D01*
X177300D01*
Y33775D01*
X177275D01*
Y33800D01*
X177250D01*
Y33825D01*
X177225D01*
Y33850D01*
X177200D01*
Y33875D01*
X177175D01*
Y33900D01*
X177150D01*
Y33925D01*
X177125D01*
Y33950D01*
X177100D01*
Y33975D01*
X177075D01*
Y34000D01*
X177050D01*
Y34025D01*
X177025D01*
Y34050D01*
X177000D01*
Y34075D01*
X176975D01*
Y34100D01*
X176950D01*
Y34125D01*
X176925D01*
Y34150D01*
X176900D01*
Y34175D01*
X176875D01*
Y34225D01*
X176850D01*
Y34250D01*
X176825D01*
Y34275D01*
X176800D01*
Y34300D01*
X176775D01*
Y34325D01*
X176750D01*
Y34350D01*
X176725D01*
Y34375D01*
X176700D01*
Y34400D01*
X176675D01*
Y34425D01*
X176650D01*
Y34450D01*
X176625D01*
Y34475D01*
X176600D01*
Y34500D01*
X176575D01*
Y34525D01*
X176550D01*
Y34550D01*
X176525D01*
Y34575D01*
X176500D01*
Y34600D01*
X176475D01*
Y34625D01*
X176450D01*
Y34650D01*
X176425D01*
Y34675D01*
X176400D01*
Y34700D01*
X176375D01*
Y34750D01*
X176350D01*
Y34775D01*
X176325D01*
Y34800D01*
X176300D01*
Y34825D01*
X176275D01*
Y34850D01*
X176250D01*
Y34875D01*
X176225D01*
Y34900D01*
X176200D01*
Y34925D01*
X176175D01*
Y34950D01*
X176150D01*
Y34975D01*
X176125D01*
Y35000D01*
X176100D01*
Y35025D01*
X176075D01*
Y35050D01*
X176050D01*
Y35075D01*
X176025D01*
Y35100D01*
X176000D01*
Y35125D01*
X175975D01*
Y35150D01*
X175950D01*
Y35175D01*
X175925D01*
Y35200D01*
X175900D01*
Y35225D01*
X175875D01*
Y35250D01*
X175850D01*
Y35300D01*
X175825D01*
Y35325D01*
X175800D01*
Y35350D01*
X175775D01*
Y35375D01*
X175750D01*
Y35400D01*
X175725D01*
Y35425D01*
X175700D01*
Y35450D01*
X175675D01*
Y35475D01*
X175650D01*
Y35500D01*
X175625D01*
Y35525D01*
X175600D01*
Y35550D01*
X175575D01*
Y35575D01*
X175550D01*
Y35600D01*
X175525D01*
Y35625D01*
X175500D01*
Y35650D01*
X175475D01*
Y35675D01*
X175450D01*
Y35700D01*
X175425D01*
Y35725D01*
X175400D01*
Y35775D01*
X175375D01*
Y35800D01*
X175350D01*
Y35825D01*
X175325D01*
Y35850D01*
X175300D01*
Y35875D01*
X175275D01*
Y35900D01*
X175250D01*
Y35925D01*
X175225D01*
Y35950D01*
X175200D01*
Y35975D01*
X175175D01*
Y36000D01*
X175150D01*
Y36025D01*
X175125D01*
Y36050D01*
X175100D01*
Y36075D01*
X175075D01*
Y36100D01*
X175050D01*
Y36125D01*
X175025D01*
Y36150D01*
X175000D01*
Y36175D01*
X174925D01*
Y36200D01*
X174775D01*
Y36175D01*
X174750D01*
Y36150D01*
X174700D01*
Y36125D01*
X174675D01*
Y36100D01*
X174650D01*
Y36075D01*
X174625D01*
Y36025D01*
X174600D01*
Y36000D01*
X174575D01*
Y35950D01*
X174550D01*
Y35900D01*
X174525D01*
Y35825D01*
X174500D01*
Y35750D01*
X174475D01*
Y35625D01*
X174450D01*
Y32000D01*
X174425D01*
Y31900D01*
X174400D01*
Y31825D01*
X174375D01*
Y31775D01*
X174350D01*
Y31725D01*
X174325D01*
Y31700D01*
X174300D01*
Y31650D01*
X174275D01*
Y31625D01*
X174250D01*
Y31600D01*
X174225D01*
Y31550D01*
X174200D01*
Y31525D01*
X174175D01*
Y31500D01*
X174125D01*
Y31475D01*
X174100D01*
Y31450D01*
X174075D01*
Y31425D01*
X174025D01*
Y31400D01*
X174000D01*
Y31375D01*
X173950D01*
Y31350D01*
X173900D01*
Y31325D01*
X173825D01*
Y31300D01*
X173725D01*
Y31275D01*
X173550D01*
Y31250D01*
X169675D01*
Y31275D01*
X169500D01*
Y31300D01*
X169425D01*
Y31325D01*
X169350D01*
Y31350D01*
X169300D01*
Y31375D01*
X169250D01*
Y31400D01*
X169200D01*
Y31425D01*
X169175D01*
Y31450D01*
X169150D01*
Y31475D01*
X169125D01*
Y31500D01*
X169100D01*
Y31525D01*
X169075D01*
Y31550D01*
X169050D01*
Y31575D01*
X169025D01*
Y31600D01*
X169000D01*
Y31625D01*
X168975D01*
Y31650D01*
X168950D01*
Y31700D01*
X168925D01*
Y31750D01*
X168900D01*
Y31800D01*
X168875D01*
Y31850D01*
X168850D01*
Y31950D01*
X168825D01*
Y32075D01*
X168800D01*
Y42425D01*
X168825D01*
Y42575D01*
X168850D01*
Y42650D01*
X168875D01*
Y42725D01*
X168900D01*
Y42775D01*
X168925D01*
Y42800D01*
X168950D01*
Y42850D01*
X168975D01*
Y42875D01*
X169000D01*
Y42925D01*
X169025D01*
Y42950D01*
X169050D01*
Y42975D01*
X169075D01*
Y43000D01*
X169100D01*
Y43025D01*
X169125D01*
Y43050D01*
X169175D01*
Y43075D01*
X169200D01*
Y43100D01*
X169250D01*
Y43125D01*
X169300D01*
Y43150D01*
X169350D01*
Y43175D01*
X169400D01*
Y43200D01*
X169475D01*
Y43225D01*
X169575D01*
Y43250D01*
X174275D01*
Y43225D01*
X174350D01*
Y43200D01*
X174425D01*
Y43175D01*
X174475D01*
Y43150D01*
X174525D01*
Y43125D01*
X174575D01*
Y43100D01*
X174600D01*
Y43075D01*
X174650D01*
Y43050D01*
X174675D01*
Y43025D01*
X174700D01*
Y43000D01*
X174725D01*
Y42975D01*
X174750D01*
Y42950D01*
X174775D01*
Y42925D01*
X174800D01*
Y42900D01*
X174825D01*
Y42875D01*
X174850D01*
Y42850D01*
X174875D01*
Y42825D01*
X174900D01*
Y42800D01*
X174925D01*
Y42775D01*
X174950D01*
Y42750D01*
X174975D01*
Y42725D01*
X175000D01*
Y42700D01*
X175025D01*
Y42675D01*
X175050D01*
Y42650D01*
X175075D01*
Y42625D01*
X175100D01*
Y42600D01*
X175125D01*
Y42575D01*
X175150D01*
Y42550D01*
X175175D01*
Y42500D01*
X175200D01*
Y42475D01*
X175225D01*
Y42450D01*
X175250D01*
Y42425D01*
X175275D01*
Y42400D01*
X175300D01*
Y42375D01*
X175325D01*
Y42350D01*
X175350D01*
Y42325D01*
X175375D01*
Y42300D01*
X175400D01*
Y42275D01*
X175425D01*
Y42250D01*
X175450D01*
Y42225D01*
X175475D01*
Y42200D01*
X175500D01*
Y42175D01*
X175525D01*
Y42150D01*
X175550D01*
Y42125D01*
X175575D01*
Y42100D01*
X175600D01*
Y42075D01*
X175625D01*
Y42025D01*
X175650D01*
Y42000D01*
X175675D01*
Y41975D01*
X175700D01*
Y41950D01*
X175725D01*
Y41925D01*
X175750D01*
Y41900D01*
X175775D01*
Y41875D01*
X175800D01*
Y41850D01*
X175825D01*
Y41825D01*
X175850D01*
Y41800D01*
X175875D01*
Y41775D01*
X175900D01*
Y41750D01*
X175925D01*
Y41725D01*
X175950D01*
Y41700D01*
X175975D01*
Y41675D01*
X176000D01*
Y41650D01*
X176025D01*
Y41625D01*
X176050D01*
Y41600D01*
X176075D01*
Y41575D01*
X176100D01*
Y41525D01*
X176125D01*
Y41500D01*
X176150D01*
Y41475D01*
X176175D01*
Y41450D01*
X176200D01*
Y41425D01*
X176225D01*
Y41400D01*
X176250D01*
Y41375D01*
X176275D01*
Y41350D01*
X176300D01*
Y41325D01*
X176325D01*
Y41300D01*
X176350D01*
Y41275D01*
X176375D01*
Y41250D01*
X176400D01*
Y41225D01*
X176425D01*
Y41200D01*
X176450D01*
Y41175D01*
X176475D01*
Y41150D01*
X176500D01*
Y41125D01*
X176525D01*
Y41100D01*
X176550D01*
Y41075D01*
X176575D01*
Y41050D01*
X176600D01*
Y41025D01*
X176625D01*
Y40975D01*
X176650D01*
Y40950D01*
X176675D01*
Y40925D01*
X176700D01*
Y40900D01*
X176725D01*
Y40875D01*
X176750D01*
Y40850D01*
X176775D01*
Y40825D01*
X176800D01*
Y40800D01*
X176825D01*
Y40775D01*
X176850D01*
Y40750D01*
X176875D01*
Y40725D01*
X176900D01*
Y40700D01*
X176925D01*
Y40675D01*
X176950D01*
Y40650D01*
X176975D01*
Y40625D01*
X177000D01*
Y40600D01*
X177025D01*
Y40575D01*
X177050D01*
Y40550D01*
X177075D01*
Y40525D01*
X177100D01*
Y40475D01*
X177125D01*
Y40450D01*
X177150D01*
Y40425D01*
X177175D01*
Y40400D01*
X177200D01*
Y40375D01*
X177225D01*
Y40350D01*
X177250D01*
Y40325D01*
X177275D01*
Y40300D01*
X177300D01*
Y40275D01*
X177325D01*
Y40250D01*
X177350D01*
Y40225D01*
X177375D01*
Y40200D01*
X177400D01*
Y40175D01*
X177425D01*
Y40150D01*
X177450D01*
Y40125D01*
X177475D01*
Y40100D01*
X177500D01*
Y40075D01*
X177525D01*
Y40050D01*
X177550D01*
Y40025D01*
X177575D01*
Y39975D01*
X177600D01*
Y39950D01*
X177625D01*
Y39925D01*
X177650D01*
Y39900D01*
X177675D01*
Y39875D01*
X177700D01*
Y39850D01*
X177725D01*
Y39825D01*
X177750D01*
Y39800D01*
X177775D01*
Y39775D01*
X177800D01*
Y39750D01*
X177825D01*
Y39725D01*
X177850D01*
Y39700D01*
X177875D01*
Y39675D01*
X177900D01*
Y39650D01*
X177925D01*
Y39625D01*
X177950D01*
Y39600D01*
X177975D01*
Y39575D01*
X178000D01*
Y39550D01*
X178025D01*
Y39525D01*
X178050D01*
Y39475D01*
X178075D01*
Y39450D01*
X178100D01*
Y39425D01*
X178125D01*
Y39400D01*
X178150D01*
Y39375D01*
X178175D01*
Y39350D01*
X178200D01*
Y39325D01*
X178225D01*
Y39300D01*
X178250D01*
Y39275D01*
X178275D01*
Y39250D01*
X178300D01*
Y39225D01*
X178325D01*
Y39200D01*
X178350D01*
Y39175D01*
X178375D01*
Y39150D01*
X178400D01*
Y39125D01*
X178425D01*
Y39100D01*
X178450D01*
Y39075D01*
X178475D01*
Y39050D01*
X178500D01*
Y39025D01*
X178525D01*
Y39000D01*
X178550D01*
Y38950D01*
X178575D01*
Y38925D01*
X178600D01*
Y38900D01*
X178625D01*
Y38875D01*
X178650D01*
Y38850D01*
X178675D01*
Y38825D01*
X178700D01*
Y38800D01*
X178725D01*
Y38775D01*
X178750D01*
Y38750D01*
X178775D01*
Y38725D01*
X178800D01*
Y38700D01*
X178825D01*
Y38675D01*
X178850D01*
Y38650D01*
X178875D01*
Y38625D01*
X178900D01*
Y38600D01*
X178925D01*
Y38575D01*
X178950D01*
Y38550D01*
X178975D01*
Y38525D01*
X179000D01*
Y38475D01*
X179025D01*
Y38450D01*
X179050D01*
Y38425D01*
X179075D01*
Y38400D01*
X179100D01*
Y38375D01*
X179125D01*
Y38350D01*
X179150D01*
Y38325D01*
X179175D01*
Y38300D01*
X179200D01*
Y38275D01*
X179225D01*
Y38250D01*
X179250D01*
Y38225D01*
X179275D01*
Y38200D01*
X179300D01*
Y38175D01*
X179325D01*
Y38150D01*
X179350D01*
Y38125D01*
X179375D01*
Y38100D01*
X179400D01*
Y38075D01*
X179425D01*
Y38050D01*
X179450D01*
Y38025D01*
X179475D01*
Y37975D01*
X179500D01*
Y37950D01*
X179525D01*
Y37925D01*
X179550D01*
Y37900D01*
X179575D01*
Y37875D01*
X179600D01*
Y37850D01*
X179625D01*
Y37825D01*
X179650D01*
Y37800D01*
X179675D01*
Y37775D01*
X179700D01*
Y37750D01*
X179725D01*
Y37725D01*
X179750D01*
Y37700D01*
X179775D01*
Y37675D01*
X179800D01*
Y37650D01*
X179825D01*
Y37625D01*
X179850D01*
Y37600D01*
X179875D01*
Y37575D01*
X179925D01*
Y37550D01*
X179975D01*
Y37525D01*
X180075D01*
Y37550D01*
X180125D01*
Y37575D01*
X180175D01*
Y37600D01*
X180200D01*
Y37625D01*
X180225D01*
Y37650D01*
X180250D01*
Y37675D01*
X180275D01*
Y37700D01*
X180300D01*
Y37725D01*
X180325D01*
Y37750D01*
X180350D01*
Y37775D01*
X180375D01*
Y37800D01*
X180400D01*
Y37825D01*
X180425D01*
Y37875D01*
X180450D01*
Y37900D01*
X180475D01*
Y37925D01*
X180500D01*
Y37950D01*
X180525D01*
Y37975D01*
X180550D01*
Y38000D01*
X180575D01*
Y38025D01*
X180600D01*
Y38050D01*
X180625D01*
Y38075D01*
X180650D01*
Y38100D01*
X180675D01*
Y38125D01*
X180700D01*
Y38150D01*
X180725D01*
Y38175D01*
X180750D01*
Y38200D01*
X180775D01*
Y38225D01*
X180800D01*
Y38250D01*
X180825D01*
Y38275D01*
X180850D01*
Y38300D01*
X180875D01*
Y38325D01*
X180900D01*
Y38350D01*
X180925D01*
Y38375D01*
X180950D01*
Y38425D01*
X180975D01*
Y38450D01*
X181000D01*
Y38475D01*
X181025D01*
Y38500D01*
X181050D01*
Y38525D01*
X181075D01*
Y38550D01*
X181100D01*
Y38575D01*
X181125D01*
Y38600D01*
X181150D01*
Y38625D01*
X181175D01*
Y38650D01*
X181200D01*
Y38675D01*
X181225D01*
Y38700D01*
X181250D01*
Y38725D01*
X181275D01*
Y38750D01*
X181300D01*
Y38775D01*
X181325D01*
Y38800D01*
X181350D01*
Y38825D01*
X181375D01*
Y38850D01*
X181400D01*
Y38875D01*
X181425D01*
Y38925D01*
X181450D01*
Y38950D01*
X181475D01*
Y38975D01*
X181500D01*
Y39000D01*
X181525D01*
Y39025D01*
X181550D01*
Y39050D01*
X181575D01*
Y39075D01*
X181600D01*
Y39100D01*
X181625D01*
Y39125D01*
X181650D01*
Y39150D01*
X181675D01*
Y39175D01*
X181700D01*
Y39200D01*
X181725D01*
Y39225D01*
X181750D01*
Y39250D01*
X181775D01*
Y39275D01*
X181800D01*
Y39300D01*
X181825D01*
Y39325D01*
X181850D01*
Y39350D01*
X181875D01*
Y39375D01*
X181900D01*
Y39425D01*
X181925D01*
Y39450D01*
X181950D01*
Y39475D01*
X181975D01*
Y39500D01*
X182000D01*
Y39525D01*
X182025D01*
Y39550D01*
X182050D01*
Y39575D01*
X182075D01*
Y39600D01*
X182100D01*
Y39625D01*
X182125D01*
Y39650D01*
X182150D01*
Y39675D01*
X182175D01*
Y39700D01*
X182200D01*
Y39725D01*
X182225D01*
Y39750D01*
X182250D01*
Y39775D01*
X182275D01*
Y39800D01*
X182300D01*
Y39825D01*
X182325D01*
Y39850D01*
X182350D01*
Y39875D01*
X182375D01*
Y39925D01*
X182400D01*
Y39950D01*
X182425D01*
Y39975D01*
X182450D01*
Y40000D01*
X182475D01*
Y40025D01*
X182500D01*
Y40050D01*
X182525D01*
Y40075D01*
X182550D01*
Y40100D01*
X182575D01*
Y40125D01*
X182600D01*
Y40150D01*
X182625D01*
Y40175D01*
X182650D01*
Y40200D01*
X182675D01*
Y40225D01*
X182700D01*
Y40250D01*
X182725D01*
Y40275D01*
X182750D01*
Y40300D01*
X182775D01*
Y40325D01*
X182800D01*
Y40350D01*
X182825D01*
Y40375D01*
X182850D01*
Y40425D01*
X182875D01*
Y40450D01*
X182900D01*
Y40475D01*
X182925D01*
Y40500D01*
X182950D01*
Y40525D01*
X182975D01*
Y40550D01*
X183000D01*
Y40575D01*
X183025D01*
Y40600D01*
X183050D01*
Y40625D01*
X183075D01*
Y40650D01*
X183100D01*
Y40675D01*
X183125D01*
Y40700D01*
X183150D01*
Y40725D01*
X183175D01*
Y40750D01*
X183200D01*
Y40775D01*
X183225D01*
Y40800D01*
X183250D01*
Y40825D01*
X183275D01*
Y40850D01*
X183300D01*
Y40875D01*
X183325D01*
Y40925D01*
X183350D01*
Y40950D01*
X183375D01*
Y40975D01*
X183400D01*
Y41000D01*
X183425D01*
Y41025D01*
X183450D01*
Y41050D01*
X183475D01*
Y41075D01*
X183500D01*
Y41100D01*
X183525D01*
Y41125D01*
X183550D01*
Y41150D01*
X183575D01*
Y41175D01*
X183600D01*
Y41200D01*
X183625D01*
Y41225D01*
X183650D01*
Y41250D01*
X183675D01*
Y41275D01*
X183700D01*
Y41300D01*
X183725D01*
Y41325D01*
X183750D01*
Y41350D01*
X183775D01*
Y41375D01*
X183800D01*
Y41425D01*
X183825D01*
Y41450D01*
X183850D01*
Y41475D01*
X183875D01*
Y41500D01*
X183900D01*
Y41525D01*
X183925D01*
Y41550D01*
X183950D01*
Y41575D01*
X183975D01*
Y41600D01*
X184000D01*
Y41625D01*
X184025D01*
Y41650D01*
X184050D01*
Y41675D01*
X184075D01*
Y41700D01*
X184100D01*
Y41725D01*
X184125D01*
Y41750D01*
X184150D01*
Y41775D01*
X184175D01*
Y41800D01*
X184200D01*
Y41825D01*
X184225D01*
Y41850D01*
X184250D01*
Y41875D01*
X184275D01*
Y41900D01*
X184300D01*
Y41925D01*
X184325D01*
Y41975D01*
X184350D01*
Y42000D01*
X184375D01*
Y42025D01*
X184400D01*
Y42050D01*
X184425D01*
Y42075D01*
X184450D01*
Y42100D01*
X184475D01*
Y42125D01*
X184500D01*
Y42150D01*
X184525D01*
Y42175D01*
X184550D01*
Y42200D01*
X184575D01*
Y42225D01*
X184600D01*
Y42250D01*
X184625D01*
Y42275D01*
X184650D01*
Y42300D01*
X184675D01*
Y42325D01*
X184700D01*
Y42350D01*
X184725D01*
Y42375D01*
X184750D01*
Y42400D01*
X184775D01*
Y42425D01*
X184800D01*
Y42475D01*
X184825D01*
Y42500D01*
X184850D01*
Y42525D01*
X184875D01*
Y42550D01*
X184900D01*
Y42575D01*
X184925D01*
Y42600D01*
X184950D01*
Y42625D01*
X184975D01*
Y42650D01*
X185000D01*
Y42675D01*
X185025D01*
Y42700D01*
X185050D01*
Y42725D01*
X185075D01*
Y42750D01*
X185100D01*
Y42775D01*
X185125D01*
Y42800D01*
X185150D01*
Y42825D01*
X185175D01*
Y42850D01*
X185200D01*
Y42875D01*
X185225D01*
Y42900D01*
X185250D01*
Y42950D01*
X185275D01*
Y42975D01*
X185300D01*
Y43000D01*
X185325D01*
Y43025D01*
X185375D01*
Y43050D01*
X185400D01*
Y43075D01*
X185425D01*
Y43100D01*
X185475D01*
Y43125D01*
X185525D01*
Y43150D01*
X185550D01*
Y43175D01*
X185625D01*
Y43200D01*
X185675D01*
Y43225D01*
X185775D01*
Y43250D01*
X190475D01*
Y43225D01*
D02*
G37*
G36*
X190375Y29875D02*
X190550D01*
Y29850D01*
X190625D01*
Y29825D01*
X190700D01*
Y29800D01*
X190750D01*
Y29775D01*
X190800D01*
Y29750D01*
X190825D01*
Y29725D01*
X190875D01*
Y29700D01*
X190900D01*
Y29675D01*
X190925D01*
Y29650D01*
X190950D01*
Y29625D01*
X190975D01*
Y29600D01*
X191000D01*
Y29575D01*
X191025D01*
Y29550D01*
X191050D01*
Y29525D01*
X191075D01*
Y29475D01*
X191100D01*
Y29450D01*
X191125D01*
Y29400D01*
X191150D01*
Y29350D01*
X191175D01*
Y29275D01*
X191200D01*
Y29200D01*
X191225D01*
Y29025D01*
X191250D01*
Y21700D01*
X191225D01*
Y21550D01*
X191200D01*
Y21450D01*
X191175D01*
Y21400D01*
X191150D01*
Y21325D01*
X191125D01*
Y21300D01*
X191100D01*
Y21250D01*
X191075D01*
Y21225D01*
X191050D01*
Y21175D01*
X191025D01*
Y21150D01*
X191000D01*
Y21125D01*
X190975D01*
Y21100D01*
X190950D01*
Y21075D01*
X190925D01*
Y21050D01*
X190900D01*
Y21025D01*
X190850D01*
Y21000D01*
X190825D01*
Y20975D01*
X190775D01*
Y20950D01*
X190725D01*
Y20925D01*
X190675D01*
Y20900D01*
X190600D01*
Y20875D01*
X190525D01*
Y20850D01*
X189650D01*
Y20825D01*
X185200D01*
Y20850D01*
X182125D01*
Y20875D01*
X182025D01*
Y20900D01*
X181975D01*
Y20925D01*
X181925D01*
Y20950D01*
X181875D01*
Y20975D01*
X181825D01*
Y21000D01*
X181800D01*
Y21025D01*
X181750D01*
Y21050D01*
X181725D01*
Y21075D01*
X181700D01*
Y21100D01*
X181675D01*
Y21125D01*
X181650D01*
Y21150D01*
X181625D01*
Y21175D01*
X181600D01*
Y21200D01*
X181575D01*
Y21250D01*
X181550D01*
Y21275D01*
X181525D01*
Y21325D01*
X181500D01*
Y21375D01*
X181475D01*
Y21425D01*
X181450D01*
Y21525D01*
X181425D01*
Y21650D01*
X181400D01*
Y25525D01*
X181425D01*
Y25675D01*
X181450D01*
Y25775D01*
X181475D01*
Y25825D01*
X181500D01*
Y25875D01*
X181525D01*
Y25925D01*
X181550D01*
Y25975D01*
X181575D01*
Y26000D01*
X181600D01*
Y26025D01*
X181625D01*
Y26075D01*
X181650D01*
Y26100D01*
X181675D01*
Y26125D01*
X181700D01*
Y26150D01*
X181725D01*
Y26175D01*
X181750D01*
Y26200D01*
X181775D01*
Y26225D01*
X181825D01*
Y26250D01*
X181850D01*
Y26275D01*
X181875D01*
Y26300D01*
X181900D01*
Y26325D01*
X181925D01*
Y26350D01*
X181950D01*
Y26375D01*
X182000D01*
Y26400D01*
X182025D01*
Y26425D01*
X182050D01*
Y26450D01*
X182075D01*
Y26475D01*
X182100D01*
Y26500D01*
X182150D01*
Y26525D01*
X182175D01*
Y26550D01*
X182200D01*
Y26575D01*
X182225D01*
Y26600D01*
X182250D01*
Y26625D01*
X182300D01*
Y26650D01*
X182325D01*
Y26675D01*
X182350D01*
Y26700D01*
X182375D01*
Y26725D01*
X182400D01*
Y26750D01*
X182450D01*
Y26775D01*
X182475D01*
Y26800D01*
X182500D01*
Y26825D01*
X182525D01*
Y26850D01*
X182550D01*
Y26875D01*
X182600D01*
Y26900D01*
X182625D01*
Y26925D01*
X182650D01*
Y26950D01*
X182675D01*
Y26975D01*
X182700D01*
Y27000D01*
X182725D01*
Y27025D01*
X182775D01*
Y27050D01*
X182800D01*
Y27075D01*
X182825D01*
Y27100D01*
X182850D01*
Y27125D01*
X182875D01*
Y27150D01*
X182925D01*
Y27175D01*
X182950D01*
Y27200D01*
X182975D01*
Y27225D01*
X183000D01*
Y27250D01*
X183025D01*
Y27275D01*
X183075D01*
Y27300D01*
X183100D01*
Y27325D01*
X183125D01*
Y27350D01*
X183150D01*
Y27375D01*
X183175D01*
Y27400D01*
X183225D01*
Y27425D01*
X183250D01*
Y27450D01*
X183275D01*
Y27475D01*
X183300D01*
Y27500D01*
X183325D01*
Y27525D01*
X183375D01*
Y27550D01*
X183400D01*
Y27575D01*
X183425D01*
Y27600D01*
X183450D01*
Y27625D01*
X183475D01*
Y27650D01*
X183525D01*
Y27675D01*
X183550D01*
Y27700D01*
X183575D01*
Y27725D01*
X183600D01*
Y27750D01*
X183625D01*
Y27775D01*
X183675D01*
Y27800D01*
X183700D01*
Y27825D01*
X183725D01*
Y27850D01*
X183750D01*
Y27875D01*
X183775D01*
Y27900D01*
X183800D01*
Y27925D01*
X183850D01*
Y27950D01*
X183875D01*
Y27975D01*
X183900D01*
Y28000D01*
X183925D01*
Y28025D01*
X183950D01*
Y28050D01*
X184000D01*
Y28075D01*
X184025D01*
Y28100D01*
X184050D01*
Y28125D01*
X184075D01*
Y28150D01*
X184100D01*
Y28175D01*
X184150D01*
Y28200D01*
X184175D01*
Y28225D01*
X184200D01*
Y28250D01*
X184225D01*
Y28275D01*
X184250D01*
Y28300D01*
X184300D01*
Y28325D01*
X184325D01*
Y28350D01*
X184350D01*
Y28375D01*
X184375D01*
Y28400D01*
X184400D01*
Y28425D01*
X184450D01*
Y28450D01*
X184475D01*
Y28475D01*
X184500D01*
Y28500D01*
X184525D01*
Y28525D01*
X184550D01*
Y28550D01*
X184600D01*
Y28575D01*
X184625D01*
Y28600D01*
X184650D01*
Y28625D01*
X184675D01*
Y28650D01*
X184700D01*
Y28675D01*
X184750D01*
Y28700D01*
X184775D01*
Y28725D01*
X184800D01*
Y28750D01*
X184825D01*
Y28775D01*
X184850D01*
Y28800D01*
X184875D01*
Y28825D01*
X184925D01*
Y28850D01*
X184950D01*
Y28875D01*
X184975D01*
Y28900D01*
X185000D01*
Y28925D01*
X185025D01*
Y28950D01*
X185075D01*
Y28975D01*
X185100D01*
Y29000D01*
X185125D01*
Y29025D01*
X185150D01*
Y29050D01*
X185175D01*
Y29075D01*
X185225D01*
Y29100D01*
X185250D01*
Y29125D01*
X185275D01*
Y29150D01*
X185300D01*
Y29175D01*
X185325D01*
Y29200D01*
X185375D01*
Y29225D01*
X185400D01*
Y29250D01*
X185425D01*
Y29275D01*
X185450D01*
Y29300D01*
X185475D01*
Y29325D01*
X185525D01*
Y29350D01*
X185550D01*
Y29375D01*
X185575D01*
Y29400D01*
X185600D01*
Y29425D01*
X185625D01*
Y29450D01*
X185675D01*
Y29475D01*
X185700D01*
Y29500D01*
X185725D01*
Y29525D01*
X185750D01*
Y29550D01*
X185775D01*
Y29575D01*
X185825D01*
Y29600D01*
X185850D01*
Y29625D01*
X185875D01*
Y29650D01*
X185900D01*
Y29675D01*
X185950D01*
Y29700D01*
X185975D01*
Y29725D01*
X186000D01*
Y29750D01*
X186050D01*
Y29775D01*
X186100D01*
Y29800D01*
X186150D01*
Y29825D01*
X186225D01*
Y29850D01*
X186325D01*
Y29875D01*
X186500D01*
Y29900D01*
X190375D01*
Y29875D01*
D02*
G37*
G36*
X173550D02*
X173725D01*
Y29850D01*
X173825D01*
Y29825D01*
X173900D01*
Y29800D01*
X173950D01*
Y29775D01*
X174000D01*
Y29750D01*
X174050D01*
Y29725D01*
X174075D01*
Y29700D01*
X174125D01*
Y29675D01*
X174175D01*
Y29650D01*
X174200D01*
Y29625D01*
X174225D01*
Y29600D01*
X174275D01*
Y29575D01*
X174300D01*
Y29550D01*
X174325D01*
Y29525D01*
X174350D01*
Y29500D01*
X174400D01*
Y29475D01*
X174425D01*
Y29450D01*
X174450D01*
Y29425D01*
X174475D01*
Y29400D01*
X174500D01*
Y29375D01*
X174525D01*
Y29350D01*
X174575D01*
Y29325D01*
X174600D01*
Y29300D01*
X174625D01*
Y29275D01*
X174650D01*
Y29250D01*
X174675D01*
Y29225D01*
X174725D01*
Y29200D01*
X174750D01*
Y29175D01*
X174775D01*
Y29150D01*
X174800D01*
Y29125D01*
X174825D01*
Y29100D01*
X174875D01*
Y29075D01*
X174900D01*
Y29050D01*
X174925D01*
Y29025D01*
X174950D01*
Y29000D01*
X174975D01*
Y28975D01*
X175025D01*
Y28950D01*
X175050D01*
Y28925D01*
X175075D01*
Y28900D01*
X175100D01*
Y28875D01*
X175125D01*
Y28850D01*
X175175D01*
Y28825D01*
X175200D01*
Y28800D01*
X175225D01*
Y28775D01*
X175250D01*
Y28750D01*
X175275D01*
Y28725D01*
X175300D01*
Y28700D01*
X175350D01*
Y28675D01*
X175375D01*
Y28650D01*
X175400D01*
Y28625D01*
X175425D01*
Y28600D01*
X175475D01*
Y28575D01*
X175500D01*
Y28550D01*
X175525D01*
Y28525D01*
X175550D01*
Y28500D01*
X175575D01*
Y28475D01*
X175600D01*
Y28450D01*
X175650D01*
Y28425D01*
X175675D01*
Y28400D01*
X175700D01*
Y28375D01*
X175725D01*
Y28350D01*
X175750D01*
Y28325D01*
X175800D01*
Y28300D01*
X175825D01*
Y28275D01*
X175850D01*
Y28250D01*
X175875D01*
Y28225D01*
X175900D01*
Y28200D01*
X175950D01*
Y28175D01*
X175975D01*
Y28150D01*
X176000D01*
Y28125D01*
X176025D01*
Y28100D01*
X176050D01*
Y28075D01*
X176100D01*
Y28050D01*
X176125D01*
Y28025D01*
X176150D01*
Y28000D01*
X176175D01*
Y27975D01*
X176200D01*
Y27950D01*
X176250D01*
Y27925D01*
X176275D01*
Y27900D01*
X176300D01*
Y27875D01*
X176325D01*
Y27850D01*
X176350D01*
Y27825D01*
X176375D01*
Y27800D01*
X176425D01*
Y27775D01*
X176450D01*
Y27750D01*
X176475D01*
Y27725D01*
X176500D01*
Y27700D01*
X176525D01*
Y27675D01*
X176575D01*
Y27650D01*
X176600D01*
Y27625D01*
X176625D01*
Y27600D01*
X176650D01*
Y27575D01*
X176675D01*
Y27550D01*
X176725D01*
Y27525D01*
X176750D01*
Y27500D01*
X176775D01*
Y27475D01*
X176800D01*
Y27450D01*
X176825D01*
Y27425D01*
X176875D01*
Y27400D01*
X176900D01*
Y27375D01*
X176925D01*
Y27350D01*
X176950D01*
Y27325D01*
X176975D01*
Y27300D01*
X177025D01*
Y27275D01*
X177050D01*
Y27250D01*
X177075D01*
Y27225D01*
X177100D01*
Y27200D01*
X177125D01*
Y27175D01*
X177175D01*
Y27150D01*
X177200D01*
Y27125D01*
X177225D01*
Y27100D01*
X177250D01*
Y27075D01*
X177275D01*
Y27050D01*
X177325D01*
Y27025D01*
X177350D01*
Y27000D01*
X177375D01*
Y26975D01*
X177400D01*
Y26950D01*
X177425D01*
Y26925D01*
X177450D01*
Y26900D01*
X177500D01*
Y26875D01*
X177525D01*
Y26850D01*
X177550D01*
Y26825D01*
X177575D01*
Y26800D01*
X177625D01*
Y26775D01*
X177650D01*
Y26750D01*
X177675D01*
Y26725D01*
X177700D01*
Y26700D01*
X177725D01*
Y26675D01*
X177750D01*
Y26650D01*
X177800D01*
Y26625D01*
X177825D01*
Y26600D01*
X177850D01*
Y26575D01*
X177875D01*
Y26550D01*
X177900D01*
Y26525D01*
X177950D01*
Y26500D01*
X177975D01*
Y26475D01*
X178000D01*
Y26450D01*
X178025D01*
Y26425D01*
X178050D01*
Y26400D01*
X178100D01*
Y26375D01*
X178125D01*
Y26350D01*
X178150D01*
Y26325D01*
X178175D01*
Y26300D01*
X178200D01*
Y26275D01*
X178225D01*
Y26250D01*
X178250D01*
Y26225D01*
X178275D01*
Y26200D01*
X178300D01*
Y26175D01*
X178325D01*
Y26150D01*
X178350D01*
Y26125D01*
X178400D01*
Y26075D01*
X178425D01*
Y26050D01*
X178450D01*
Y26025D01*
X178475D01*
Y26000D01*
X178500D01*
Y25950D01*
X178525D01*
Y25925D01*
X178550D01*
Y25875D01*
X178575D01*
Y25800D01*
X178600D01*
Y25750D01*
X178625D01*
Y25650D01*
X178650D01*
Y21550D01*
X178625D01*
Y21450D01*
X178600D01*
Y21400D01*
X178575D01*
Y21350D01*
X178550D01*
Y21300D01*
X178525D01*
Y21250D01*
X178500D01*
Y21225D01*
X178475D01*
Y21175D01*
X178450D01*
Y21150D01*
X178425D01*
Y21125D01*
X178400D01*
Y21100D01*
X178375D01*
Y21075D01*
X178350D01*
Y21050D01*
X178325D01*
Y21025D01*
X178275D01*
Y21000D01*
X178250D01*
Y20975D01*
X178200D01*
Y20950D01*
X178150D01*
Y20925D01*
X178100D01*
Y20900D01*
X178025D01*
Y20875D01*
X177950D01*
Y20850D01*
X174850D01*
Y20825D01*
X170425D01*
Y20850D01*
X169525D01*
Y20875D01*
X169425D01*
Y20900D01*
X169375D01*
Y20925D01*
X169325D01*
Y20950D01*
X169275D01*
Y20975D01*
X169225D01*
Y21000D01*
X169200D01*
Y21025D01*
X169150D01*
Y21050D01*
X169125D01*
Y21075D01*
X169100D01*
Y21100D01*
X169075D01*
Y21125D01*
X169050D01*
Y21150D01*
X169025D01*
Y21175D01*
X169000D01*
Y21200D01*
X168975D01*
Y21250D01*
X168950D01*
Y21275D01*
X168925D01*
Y21300D01*
Y21325D01*
X168900D01*
Y21375D01*
X168875D01*
Y21425D01*
X168850D01*
Y21525D01*
X168825D01*
Y21650D01*
X168800D01*
Y29075D01*
X168825D01*
Y29225D01*
X168850D01*
Y29300D01*
X168875D01*
Y29350D01*
X168900D01*
Y29400D01*
X168925D01*
Y29450D01*
X168950D01*
Y29500D01*
X168975D01*
Y29525D01*
X169000D01*
Y29550D01*
X169025D01*
Y29575D01*
X169050D01*
Y29600D01*
X169075D01*
Y29625D01*
X169100D01*
Y29650D01*
X169125D01*
Y29675D01*
X169150D01*
Y29700D01*
X169175D01*
Y29725D01*
X169200D01*
Y29750D01*
X169250D01*
Y29775D01*
X169300D01*
Y29800D01*
X169350D01*
Y29825D01*
X169425D01*
Y29850D01*
X169500D01*
Y29875D01*
X169675D01*
Y29900D01*
X173550D01*
Y29875D01*
D02*
G37*
G36*
X42017Y27000D02*
X39172D01*
Y29828D01*
X42017D01*
Y27000D01*
D02*
G37*
G36*
X189843Y132654D02*
X193498Y127157D01*
X190943D01*
X188593Y130744D01*
X186243Y127157D01*
X183687D01*
X187329Y132668D01*
X184017Y137724D01*
X186490D01*
X188579Y134564D01*
X190668Y137724D01*
X193155D01*
X189843Y132654D01*
D02*
G37*
G36*
X217010Y127157D02*
X214880D01*
Y130345D01*
X213149Y132118D01*
X210236Y127157D01*
X207474D01*
X211678Y133616D01*
X207680Y137724D01*
X210551D01*
X214880Y133025D01*
Y137724D01*
X217010D01*
Y127157D01*
D02*
G37*
G36*
X114980Y132791D02*
X112960D01*
Y134811D01*
X114980D01*
Y132791D01*
D02*
G37*
G36*
X162072Y127157D02*
X160093D01*
Y134069D01*
X155820Y127157D01*
X153676D01*
Y137724D01*
X155655D01*
Y130647D01*
X160011Y137724D01*
X162072D01*
Y127157D01*
D02*
G37*
G36*
X126001D02*
X124022D01*
Y134069D01*
X119748Y127157D01*
X117605D01*
Y137724D01*
X119584D01*
Y130647D01*
X123940Y137724D01*
X126001D01*
Y127157D01*
D02*
G37*
G36*
X223523Y137903D02*
X223908Y137848D01*
X224279Y137779D01*
X224623Y137683D01*
X224939Y137573D01*
X225227Y137450D01*
X225502Y137326D01*
X225736Y137188D01*
X225956Y137051D01*
X226148Y136913D01*
X226313Y136790D01*
X226450Y136680D01*
X226560Y136584D01*
X226629Y136515D01*
X226684Y136460D01*
X226698Y136446D01*
X226931Y136158D01*
X227151Y135856D01*
X227330Y135526D01*
X227481Y135196D01*
X227618Y134852D01*
X227728Y134509D01*
X227811Y134179D01*
X227893Y133849D01*
X227948Y133547D01*
X227989Y133258D01*
X228017Y133011D01*
X228031Y132791D01*
X228044Y132599D01*
X228058Y132461D01*
Y132420D01*
Y132379D01*
Y132365D01*
Y132351D01*
X228044Y131898D01*
X228003Y131458D01*
X227934Y131060D01*
X227852Y130675D01*
X227742Y130331D01*
X227632Y130002D01*
X227508Y129713D01*
X227385Y129438D01*
X227261Y129205D01*
X227137Y128998D01*
X227027Y128820D01*
X226918Y128669D01*
X226835Y128559D01*
X226766Y128476D01*
X226725Y128421D01*
X226711Y128408D01*
X226450Y128160D01*
X226175Y127940D01*
X225887Y127748D01*
X225598Y127583D01*
X225310Y127446D01*
X225021Y127322D01*
X224733Y127240D01*
X224472Y127157D01*
X224210Y127102D01*
X223991Y127061D01*
X223771Y127020D01*
X223592Y127006D01*
X223455Y126992D01*
X223345Y126979D01*
X223249D01*
X222932Y126992D01*
X222644Y127020D01*
X222355Y127061D01*
X222094Y127116D01*
X221847Y127171D01*
X221613Y127240D01*
X221394Y127322D01*
X221201Y127404D01*
X221036Y127473D01*
X220885Y127556D01*
X220748Y127624D01*
X220638Y127693D01*
X220555Y127734D01*
X220500Y127775D01*
X220459Y127803D01*
X220445Y127817D01*
X220239Y127982D01*
X220061Y128174D01*
X219882Y128366D01*
X219731Y128586D01*
X219580Y128792D01*
X219456Y129012D01*
X219236Y129438D01*
X219140Y129631D01*
X219058Y129823D01*
X219002Y129988D01*
X218948Y130125D01*
X218906Y130249D01*
X218879Y130331D01*
X218851Y130400D01*
Y130414D01*
X220926Y131060D01*
X220981Y130854D01*
X221050Y130647D01*
X221105Y130469D01*
X221187Y130304D01*
X221256Y130139D01*
X221325Y130002D01*
X221407Y129878D01*
X221476Y129768D01*
X221613Y129576D01*
X221723Y129452D01*
X221792Y129369D01*
X221806Y129356D01*
X221819Y129342D01*
X222053Y129163D01*
X222300Y129026D01*
X222548Y128944D01*
X222768Y128875D01*
X222974Y128834D01*
X223139Y128820D01*
X223194Y128806D01*
X223276D01*
X223482Y128820D01*
X223688Y128847D01*
X223881Y128889D01*
X224059Y128944D01*
X224375Y129067D01*
X224636Y129232D01*
X224760Y129301D01*
X224856Y129383D01*
X224939Y129452D01*
X225021Y129521D01*
X225076Y129562D01*
X225117Y129603D01*
X225131Y129631D01*
X225145Y129644D01*
X225269Y129823D01*
X225378Y130015D01*
X225475Y130222D01*
X225557Y130455D01*
X225681Y130922D01*
X225763Y131390D01*
X225805Y131609D01*
X225818Y131829D01*
X225832Y132008D01*
X225846Y132173D01*
X225860Y132310D01*
Y132420D01*
Y132475D01*
Y132503D01*
X225846Y132846D01*
X225832Y133162D01*
X225791Y133464D01*
X225749Y133726D01*
X225695Y133973D01*
X225626Y134206D01*
X225557Y134399D01*
X225488Y134578D01*
X225434Y134742D01*
X225365Y134866D01*
X225296Y134990D01*
X225241Y135072D01*
X225200Y135141D01*
X225159Y135196D01*
X225145Y135223D01*
X225131Y135237D01*
X224994Y135388D01*
X224843Y135512D01*
X224691Y135636D01*
X224527Y135732D01*
X224362Y135814D01*
X224210Y135883D01*
X223908Y135979D01*
X223647Y136048D01*
X223523Y136062D01*
X223427Y136075D01*
X223345Y136089D01*
X223235D01*
X222932Y136075D01*
X222644Y136020D01*
X222397Y135938D01*
X222190Y135856D01*
X222026Y135759D01*
X221902Y135691D01*
X221819Y135636D01*
X221792Y135608D01*
X221586Y135416D01*
X221407Y135210D01*
X221270Y134990D01*
X221160Y134784D01*
X221091Y134605D01*
X221036Y134454D01*
X221022Y134399D01*
X221009Y134358D01*
X220995Y134330D01*
Y134316D01*
X218879Y134825D01*
X218948Y135058D01*
X219030Y135278D01*
X219112Y135471D01*
X219209Y135663D01*
X219291Y135842D01*
X219387Y135993D01*
X219470Y136144D01*
X219566Y136268D01*
X219648Y136378D01*
X219717Y136488D01*
X219786Y136570D01*
X219841Y136639D01*
X219896Y136694D01*
X219937Y136735D01*
X219951Y136749D01*
X219964Y136762D01*
X220198Y136968D01*
X220445Y137147D01*
X220706Y137298D01*
X220968Y137436D01*
X221229Y137546D01*
X221490Y137642D01*
X221751Y137711D01*
X221998Y137779D01*
X222232Y137821D01*
X222438Y137862D01*
X222630Y137875D01*
X222795Y137903D01*
X222932D01*
X223043Y137917D01*
X223125D01*
X223523Y137903D01*
D02*
G37*
G36*
X249000Y127157D02*
X245042D01*
X244713Y127171D01*
X244149D01*
X243916Y127185D01*
X243517D01*
X243366Y127198D01*
X243229D01*
X243119Y127212D01*
X242954D01*
X242899Y127226D01*
X242844D01*
X242542Y127281D01*
X242267Y127350D01*
X242019Y127418D01*
X241813Y127514D01*
X241648Y127583D01*
X241511Y127652D01*
X241442Y127707D01*
X241415Y127720D01*
X241209Y127885D01*
X241016Y128064D01*
X240865Y128243D01*
X240728Y128421D01*
X240632Y128573D01*
X240549Y128696D01*
X240508Y128779D01*
X240494Y128792D01*
Y128806D01*
X240384Y129067D01*
X240302Y129314D01*
X240233Y129548D01*
X240192Y129768D01*
X240164Y129947D01*
X240151Y130084D01*
Y130139D01*
Y130180D01*
Y130194D01*
Y130208D01*
X240178Y130538D01*
X240233Y130840D01*
X240315Y131115D01*
X240412Y131348D01*
X240508Y131541D01*
X240590Y131678D01*
X240618Y131733D01*
X240645Y131774D01*
X240673Y131788D01*
Y131802D01*
X240893Y132035D01*
X241126Y132241D01*
X241374Y132406D01*
X241607Y132530D01*
X241827Y132640D01*
X241923Y132681D01*
X241992Y132709D01*
X242061Y132736D01*
X242115Y132750D01*
X242143Y132764D01*
X242157D01*
X241909Y132901D01*
X241703Y133039D01*
X241511Y133203D01*
X241360Y133355D01*
X241236Y133492D01*
X241140Y133602D01*
X241085Y133671D01*
X241071Y133698D01*
X240934Y133932D01*
X240838Y134165D01*
X240769Y134399D01*
X240728Y134605D01*
X240686Y134797D01*
X240673Y134935D01*
Y134990D01*
Y135031D01*
Y135045D01*
Y135058D01*
X240686Y135306D01*
X240728Y135539D01*
X240783Y135745D01*
X240838Y135938D01*
X240893Y136089D01*
X240947Y136199D01*
X240989Y136268D01*
X241003Y136295D01*
X241126Y136488D01*
X241264Y136666D01*
X241401Y136817D01*
X241525Y136941D01*
X241648Y137037D01*
X241731Y137120D01*
X241786Y137161D01*
X241813Y137175D01*
X241992Y137285D01*
X242184Y137381D01*
X242377Y137463D01*
X242542Y137518D01*
X242693Y137559D01*
X242803Y137587D01*
X242885Y137614D01*
X242913D01*
X243036Y137628D01*
X243174Y137656D01*
X243462Y137683D01*
X243778Y137697D01*
X244081Y137711D01*
X244355Y137724D01*
X249000D01*
Y127157D01*
D02*
G37*
G36*
X239422D02*
X237169D01*
X236289Y129562D01*
X232071D01*
X231136Y127157D01*
X228814D01*
X233032Y137724D01*
X235314D01*
X239422Y127157D01*
D02*
G37*
G36*
X202252D02*
X194227D01*
Y128944D01*
X200122D01*
Y131816D01*
X194831D01*
Y133602D01*
X200122D01*
Y135938D01*
X194433D01*
Y137724D01*
X202252D01*
Y127157D01*
D02*
G37*
G36*
X182574D02*
X180444D01*
Y131142D01*
X178795D01*
X178548Y131156D01*
X178314D01*
X178108Y131170D01*
X177902Y131183D01*
X177723Y131197D01*
X177558Y131211D01*
X177421Y131225D01*
X177284Y131238D01*
X177174Y131252D01*
X177078D01*
X176995Y131266D01*
X176940Y131280D01*
X176899Y131293D01*
X176858D01*
X176651Y131348D01*
X176445Y131417D01*
X176267Y131499D01*
X176102Y131582D01*
X175951Y131664D01*
X175854Y131733D01*
X175786Y131774D01*
X175758Y131788D01*
X175566Y131939D01*
X175387Y132118D01*
X175236Y132283D01*
X175099Y132461D01*
X174989Y132599D01*
X174920Y132722D01*
X174865Y132805D01*
X174851Y132819D01*
Y132832D01*
X174728Y133093D01*
X174645Y133368D01*
X174577Y133643D01*
X174535Y133904D01*
X174508Y134124D01*
Y134220D01*
X174494Y134303D01*
Y134371D01*
Y134426D01*
Y134454D01*
Y134467D01*
Y134701D01*
X174522Y134921D01*
X174590Y135319D01*
X174632Y135512D01*
X174687Y135677D01*
X174741Y135828D01*
X174796Y135979D01*
X174865Y136103D01*
X174920Y136213D01*
X174975Y136309D01*
X175016Y136391D01*
X175058Y136446D01*
X175085Y136488D01*
X175099Y136515D01*
X175112Y136529D01*
X175360Y136804D01*
X175607Y137023D01*
X175868Y137202D01*
X176102Y137339D01*
X176308Y137449D01*
X176404Y137477D01*
X176473Y137504D01*
X176542Y137532D01*
X176583Y137546D01*
X176610Y137559D01*
X176624D01*
X176748Y137587D01*
X176899Y137614D01*
X177078Y137642D01*
X177270Y137656D01*
X177682Y137683D01*
X178122Y137711D01*
X178520D01*
X178699Y137724D01*
X182574D01*
Y127157D01*
D02*
G37*
G36*
X173821Y127157D02*
X171567D01*
X170688Y129562D01*
X166469D01*
X165535Y127157D01*
X163212D01*
X167431Y137724D01*
X169712D01*
X173821Y127157D01*
D02*
G37*
G36*
X141652D02*
X139522D01*
Y137724D01*
X141652D01*
Y127157D01*
D02*
G37*
G36*
X114980D02*
X112960D01*
Y129177D01*
X114980D01*
Y127157D01*
D02*
G37*
G36*
X148179Y137903D02*
X148578Y137862D01*
X148921Y137793D01*
X149086Y137766D01*
X149224Y137738D01*
X149361Y137697D01*
X149471Y137669D01*
X149581Y137628D01*
X149663Y137601D01*
X149732Y137587D01*
X149773Y137559D01*
X149801Y137546D01*
X149815D01*
X150117Y137395D01*
X150378Y137216D01*
X150598Y137037D01*
X150790Y136859D01*
X150928Y136707D01*
X151038Y136584D01*
X151093Y136488D01*
X151120Y136474D01*
Y136460D01*
X151271Y136199D01*
X151381Y135924D01*
X151463Y135677D01*
X151518Y135443D01*
X151546Y135251D01*
X151560Y135100D01*
X151573Y135045D01*
Y135003D01*
Y134976D01*
Y134962D01*
X151560Y134729D01*
X151532Y134509D01*
X151491Y134289D01*
X151422Y134096D01*
X151271Y133726D01*
X151175Y133561D01*
X151093Y133423D01*
X150996Y133286D01*
X150914Y133162D01*
X150831Y133066D01*
X150763Y132970D01*
X150694Y132915D01*
X150653Y132860D01*
X150625Y132832D01*
X150612Y132819D01*
X150474Y132709D01*
X150309Y132599D01*
X150131Y132489D01*
X149952Y132393D01*
X149553Y132214D01*
X149155Y132063D01*
X148963Y131994D01*
X148784Y131939D01*
X148619Y131898D01*
X148482Y131857D01*
X148372Y131816D01*
X148275Y131788D01*
X148221Y131774D01*
X148207D01*
X147973Y131719D01*
X147753Y131664D01*
X147561Y131609D01*
X147382Y131568D01*
X147217Y131527D01*
X147080Y131486D01*
X146956Y131444D01*
X146860Y131417D01*
X146764Y131390D01*
X146695Y131362D01*
X146627Y131348D01*
X146585Y131334D01*
X146517Y131321D01*
X146503Y131307D01*
X146311Y131238D01*
X146146Y131156D01*
X146022Y131073D01*
X145912Y131005D01*
X145830Y130950D01*
X145775Y130895D01*
X145747Y130867D01*
X145733Y130854D01*
X145665Y130757D01*
X145610Y130647D01*
X145569Y130538D01*
X145541Y130428D01*
X145527Y130345D01*
X145513Y130276D01*
Y130222D01*
Y130208D01*
X145541Y130002D01*
X145596Y129809D01*
X145678Y129631D01*
X145775Y129479D01*
X145885Y129356D01*
X145967Y129273D01*
X146022Y129205D01*
X146049Y129191D01*
X146269Y129053D01*
X146517Y128944D01*
X146764Y128875D01*
X147025Y128820D01*
X147245Y128792D01*
X147341Y128779D01*
X147437D01*
X147506Y128765D01*
X147602D01*
X147946Y128792D01*
X148248Y128847D01*
X148509Y128916D01*
X148729Y129012D01*
X148908Y129095D01*
X149031Y129177D01*
X149114Y129232D01*
X149141Y129246D01*
X149334Y129452D01*
X149499Y129699D01*
X149636Y129947D01*
X149732Y130208D01*
X149815Y130428D01*
X149842Y130524D01*
X149856Y130620D01*
X149869Y130689D01*
X149883Y130744D01*
X149897Y130771D01*
Y130785D01*
X151972Y130579D01*
X151917Y130263D01*
X151862Y129960D01*
X151780Y129672D01*
X151683Y129411D01*
X151587Y129163D01*
X151477Y128944D01*
X151367Y128751D01*
X151257Y128573D01*
X151147Y128408D01*
X151038Y128270D01*
X150955Y128160D01*
X150859Y128064D01*
X150790Y127982D01*
X150735Y127927D01*
X150708Y127899D01*
X150694Y127885D01*
X150488Y127720D01*
X150254Y127583D01*
X150007Y127459D01*
X149760Y127350D01*
X149499Y127267D01*
X149251Y127185D01*
X148757Y127075D01*
X148523Y127047D01*
X148303Y127020D01*
X148111Y126992D01*
X147946Y126979D01*
X147808Y126965D01*
X147616D01*
X147121Y126979D01*
X146681Y127020D01*
X146475Y127061D01*
X146283Y127088D01*
X146118Y127116D01*
X145953Y127157D01*
X145816Y127198D01*
X145678Y127226D01*
X145582Y127267D01*
X145486Y127295D01*
X145417Y127308D01*
X145362Y127336D01*
X145335Y127350D01*
X145321D01*
X144991Y127514D01*
X144703Y127693D01*
X144469Y127885D01*
X144263Y128078D01*
X144098Y128256D01*
X143988Y128394D01*
X143947Y128449D01*
X143919Y128490D01*
X143892Y128504D01*
Y128518D01*
X143727Y128820D01*
X143603Y129122D01*
X143507Y129411D01*
X143452Y129672D01*
X143411Y129905D01*
X143397Y130002D01*
Y130084D01*
X143384Y130139D01*
Y130194D01*
Y130222D01*
Y130235D01*
X143397Y130592D01*
X143452Y130922D01*
X143521Y131211D01*
X143590Y131444D01*
X143672Y131651D01*
X143713Y131719D01*
X143741Y131788D01*
X143768Y131843D01*
X143796Y131884D01*
X143810Y131898D01*
Y131912D01*
X143988Y132159D01*
X144167Y132365D01*
X144359Y132557D01*
X144552Y132709D01*
X144717Y132832D01*
X144854Y132928D01*
X144909Y132956D01*
X144950Y132984D01*
X144964Y132997D01*
X144978D01*
X145129Y133066D01*
X145294Y133148D01*
X145651Y133286D01*
X146036Y133410D01*
X146407Y133533D01*
X146572Y133588D01*
X146736Y133629D01*
X146888Y133671D01*
X147011Y133698D01*
X147121Y133726D01*
X147204Y133753D01*
X147259Y133767D01*
X147272D01*
X147547Y133835D01*
X147808Y133904D01*
X148028Y133973D01*
X148234Y134028D01*
X148413Y134096D01*
X148578Y134151D01*
X148715Y134206D01*
X148825Y134261D01*
X148935Y134303D01*
X149018Y134344D01*
X149086Y134385D01*
X149141Y134413D01*
X149183Y134440D01*
X149210Y134454D01*
X149224Y134467D01*
X149334Y134578D01*
X149402Y134687D01*
X149457Y134797D01*
X149499Y134894D01*
X149526Y134976D01*
X149540Y135058D01*
Y135100D01*
Y135113D01*
X149526Y135265D01*
X149485Y135388D01*
X149430Y135498D01*
X149375Y135594D01*
X149320Y135677D01*
X149265Y135732D01*
X149224Y135759D01*
X149210Y135773D01*
X149004Y135897D01*
X148757Y135993D01*
X148523Y136062D01*
X148289Y136117D01*
X148069Y136144D01*
X147987D01*
X147905Y136158D01*
X147753D01*
X147437Y136144D01*
X147163Y136103D01*
X146929Y136048D01*
X146750Y135979D01*
X146599Y135910D01*
X146489Y135855D01*
X146434Y135814D01*
X146407Y135801D01*
X146256Y135649D01*
X146118Y135471D01*
X146022Y135278D01*
X145940Y135086D01*
X145885Y134907D01*
X145843Y134770D01*
X145830Y134715D01*
X145816Y134674D01*
Y134646D01*
Y134632D01*
X143686Y134715D01*
X143700Y134976D01*
X143741Y135237D01*
X143810Y135471D01*
X143878Y135690D01*
X143961Y135897D01*
X144043Y136089D01*
X144139Y136268D01*
X144236Y136419D01*
X144332Y136570D01*
X144428Y136694D01*
X144510Y136790D01*
X144579Y136886D01*
X144648Y136955D01*
X144703Y136996D01*
X144730Y137023D01*
X144744Y137037D01*
X144936Y137188D01*
X145156Y137326D01*
X145390Y137449D01*
X145637Y137546D01*
X145885Y137628D01*
X146132Y137697D01*
X146613Y137807D01*
X146846Y137848D01*
X147052Y137875D01*
X147245Y137889D01*
X147410Y137903D01*
X147547Y137917D01*
X147740D01*
X148179Y137903D01*
D02*
G37*
G36*
X133284D02*
X133723Y137848D01*
X134108Y137779D01*
X134287Y137738D01*
X134438Y137711D01*
X134589Y137669D01*
X134713Y137628D01*
X134823Y137587D01*
X134919Y137559D01*
X135001Y137532D01*
X135056Y137504D01*
X135084Y137491D01*
X135098D01*
X135372Y137353D01*
X135620Y137202D01*
X135853Y137051D01*
X136059Y136886D01*
X136224Y136749D01*
X136348Y136639D01*
X136430Y136556D01*
X136444Y136543D01*
X136458Y136529D01*
X136678Y136281D01*
X136870Y136034D01*
X137035Y135801D01*
X137172Y135567D01*
X137282Y135374D01*
X137365Y135223D01*
X137392Y135168D01*
X137420Y135127D01*
X137434Y135100D01*
Y135086D01*
X137598Y134660D01*
X137708Y134193D01*
X137791Y133739D01*
X137859Y133313D01*
X137873Y133121D01*
X137887Y132942D01*
X137901Y132777D01*
Y132640D01*
X137914Y132516D01*
Y132434D01*
Y132379D01*
Y132365D01*
X137901Y131898D01*
X137859Y131472D01*
X137791Y131060D01*
X137695Y130675D01*
X137598Y130318D01*
X137475Y130002D01*
X137351Y129699D01*
X137214Y129438D01*
X137090Y129191D01*
X136966Y128985D01*
X136843Y128806D01*
X136747Y128655D01*
X136650Y128545D01*
X136582Y128463D01*
X136540Y128408D01*
X136527Y128394D01*
X136252Y128146D01*
X135963Y127927D01*
X135661Y127734D01*
X135359Y127569D01*
X135043Y127432D01*
X134740Y127308D01*
X134424Y127226D01*
X134136Y127143D01*
X133861Y127088D01*
X133600Y127047D01*
X133380Y127006D01*
X133174Y126992D01*
X133009Y126979D01*
X132899Y126965D01*
X132789D01*
X132363Y126979D01*
X131965Y127034D01*
X131580Y127102D01*
X131222Y127185D01*
X130893Y127295D01*
X130590Y127418D01*
X130316Y127556D01*
X130068Y127693D01*
X129835Y127817D01*
X129642Y127954D01*
X129477Y128078D01*
X129326Y128188D01*
X129216Y128270D01*
X129148Y128353D01*
X129093Y128394D01*
X129079Y128408D01*
X128831Y128696D01*
X128612Y128998D01*
X128433Y129314D01*
X128268Y129644D01*
X128131Y129974D01*
X128021Y130318D01*
X127924Y130634D01*
X127856Y130950D01*
X127801Y131252D01*
X127746Y131527D01*
X127718Y131774D01*
X127705Y131994D01*
X127691Y132173D01*
X127677Y132310D01*
Y132393D01*
Y132406D01*
Y132420D01*
X127691Y132887D01*
X127732Y133341D01*
X127801Y133753D01*
X127897Y134138D01*
X128007Y134509D01*
X128117Y134839D01*
X128241Y135141D01*
X128378Y135416D01*
X128502Y135649D01*
X128639Y135869D01*
X128749Y136048D01*
X128859Y136199D01*
X128955Y136309D01*
X129024Y136391D01*
X129065Y136446D01*
X129079Y136460D01*
X129354Y136721D01*
X129642Y136941D01*
X129944Y137133D01*
X130247Y137298D01*
X130563Y137449D01*
X130879Y137559D01*
X131181Y137656D01*
X131470Y137738D01*
X131745Y137793D01*
X132006Y137834D01*
X132226Y137875D01*
X132432Y137889D01*
X132597Y137903D01*
X132706Y137917D01*
X132816D01*
X133284Y137903D01*
D02*
G37*
G36*
X225736Y118544D02*
Y114106D01*
X223606D01*
Y118530D01*
X219744Y124673D01*
X222204D01*
X224623Y120482D01*
X227096Y124673D01*
X229597D01*
X225736Y118544D01*
D02*
G37*
G36*
X175401Y124714D02*
X175690Y124673D01*
X175978Y124604D01*
X176239Y124522D01*
X176487Y124425D01*
X176707Y124315D01*
X176926Y124206D01*
X177105Y124082D01*
X177284Y123958D01*
X177435Y123848D01*
X177558Y123738D01*
X177668Y123642D01*
X177751Y123560D01*
X177806Y123491D01*
X177847Y123450D01*
X177861Y123436D01*
X178053Y123175D01*
X178218Y122886D01*
X178355Y122570D01*
X178479Y122240D01*
X178589Y121883D01*
X178671Y121540D01*
X178740Y121196D01*
X178795Y120853D01*
X178836Y120523D01*
X178878Y120220D01*
X178905Y119946D01*
X178919Y119712D01*
Y119506D01*
X178933Y119424D01*
Y119355D01*
Y119300D01*
Y119259D01*
Y119245D01*
Y119231D01*
X178919Y118723D01*
X178891Y118242D01*
X178836Y117802D01*
X178768Y117403D01*
X178699Y117032D01*
X178617Y116703D01*
X178520Y116400D01*
X178424Y116125D01*
X178328Y115892D01*
X178232Y115700D01*
X178149Y115521D01*
X178081Y115384D01*
X178012Y115287D01*
X177957Y115205D01*
X177929Y115164D01*
X177916Y115150D01*
X177710Y114930D01*
X177504Y114738D01*
X177284Y114573D01*
X177064Y114435D01*
X176844Y114312D01*
X176624Y114215D01*
X176418Y114133D01*
X176212Y114064D01*
X176019Y114023D01*
X175841Y113982D01*
X175676Y113954D01*
X175539Y113927D01*
X175429D01*
X175346Y113913D01*
X175277D01*
X175002Y113927D01*
X174741Y113954D01*
X174508Y114009D01*
X174274Y114064D01*
X174054Y114133D01*
X173862Y114215D01*
X173670Y114312D01*
X173505Y114408D01*
X173354Y114490D01*
X173216Y114586D01*
X173106Y114669D01*
X173010Y114738D01*
X172941Y114793D01*
X172886Y114848D01*
X172859Y114875D01*
X172845Y114889D01*
X172680Y115081D01*
X172529Y115287D01*
X172405Y115493D01*
X172282Y115713D01*
X172199Y115933D01*
X172117Y116153D01*
X172048Y116359D01*
X172007Y116565D01*
X171966Y116758D01*
X171938Y116936D01*
X171911Y117087D01*
X171897Y117225D01*
X171883Y117348D01*
Y117431D01*
Y117486D01*
Y117500D01*
X171897Y117788D01*
X171924Y118049D01*
X171966Y118297D01*
X172021Y118544D01*
X172089Y118764D01*
X172172Y118970D01*
X172254Y119162D01*
X172337Y119327D01*
X172419Y119478D01*
X172502Y119616D01*
X172584Y119726D01*
X172653Y119822D01*
X172708Y119904D01*
X172749Y119959D01*
X172776Y119987D01*
X172790Y120001D01*
X172969Y120179D01*
X173148Y120317D01*
X173326Y120454D01*
X173505Y120564D01*
X173697Y120660D01*
X173876Y120743D01*
X174054Y120798D01*
X174219Y120853D01*
X174370Y120894D01*
X174508Y120921D01*
X174645Y120949D01*
X174755Y120962D01*
X174838Y120976D01*
X174961D01*
X175167Y120962D01*
X175360Y120935D01*
X175552Y120894D01*
X175731Y120839D01*
X176047Y120688D01*
X176322Y120523D01*
X176445Y120440D01*
X176542Y120358D01*
X176638Y120275D01*
X176707Y120207D01*
X176761Y120152D01*
X176803Y120111D01*
X176830Y120083D01*
X176844Y120069D01*
X176816Y120399D01*
X176789Y120701D01*
X176748Y120976D01*
X176707Y121210D01*
X176665Y121444D01*
X176624Y121636D01*
X176569Y121801D01*
X176528Y121952D01*
X176487Y122089D01*
X176445Y122199D01*
X176404Y122282D01*
X176363Y122350D01*
X176336Y122405D01*
X176308Y122447D01*
X176294Y122474D01*
X176116Y122666D01*
X175937Y122804D01*
X175745Y122914D01*
X175580Y122983D01*
X175429Y123024D01*
X175319Y123037D01*
X175236Y123051D01*
X175209D01*
X175030Y123037D01*
X174879Y123010D01*
X174755Y122955D01*
X174632Y122914D01*
X174549Y122859D01*
X174480Y122804D01*
X174439Y122776D01*
X174425Y122763D01*
X174315Y122639D01*
X174233Y122501D01*
X174164Y122364D01*
X174123Y122213D01*
X174082Y122089D01*
X174054Y121979D01*
X174041Y121911D01*
Y121897D01*
Y121883D01*
X172076Y122089D01*
X172117Y122323D01*
X172186Y122543D01*
X172254Y122749D01*
X172323Y122928D01*
X172405Y123106D01*
X172488Y123271D01*
X172584Y123408D01*
X172666Y123546D01*
X172749Y123656D01*
X172831Y123766D01*
X172900Y123848D01*
X172969Y123917D01*
X173024Y123972D01*
X173051Y124013D01*
X173079Y124027D01*
X173092Y124041D01*
X173244Y124164D01*
X173409Y124274D01*
X173573Y124357D01*
X173738Y124439D01*
X174068Y124563D01*
X174384Y124645D01*
X174522Y124673D01*
X174659Y124686D01*
X174783Y124714D01*
X174879D01*
X174961Y124728D01*
X175085D01*
X175401Y124714D01*
D02*
G37*
G36*
X249000Y114106D02*
X246870D01*
Y117294D01*
X245139Y119066D01*
X242225Y114106D01*
X239464D01*
X243668Y120564D01*
X239670Y124673D01*
X242542D01*
X246870Y119973D01*
Y124673D01*
X249000D01*
Y114106D01*
D02*
G37*
G36*
X238337D02*
X230312D01*
Y115892D01*
X236207D01*
Y118764D01*
X230916D01*
Y120550D01*
X236207D01*
Y122886D01*
X230518D01*
Y124673D01*
X238337D01*
Y114106D01*
D02*
G37*
G36*
X218659D02*
X216529D01*
Y118091D01*
X214880D01*
X214633Y118104D01*
X214399D01*
X214193Y118118D01*
X213987Y118132D01*
X213808Y118146D01*
X213643Y118159D01*
X213506Y118173D01*
X213368Y118187D01*
X213259Y118201D01*
X213162D01*
X213080Y118214D01*
X213025Y118228D01*
X212984Y118242D01*
X212943D01*
X212736Y118297D01*
X212530Y118365D01*
X212352Y118448D01*
X212187Y118530D01*
X212036Y118613D01*
X211939Y118681D01*
X211871Y118723D01*
X211843Y118736D01*
X211651Y118888D01*
X211472Y119066D01*
X211321Y119231D01*
X211184Y119410D01*
X211074Y119547D01*
X211005Y119671D01*
X210950Y119753D01*
X210936Y119767D01*
Y119781D01*
X210813Y120042D01*
X210730Y120317D01*
X210662Y120591D01*
X210620Y120853D01*
X210593Y121073D01*
Y121169D01*
X210579Y121251D01*
Y121320D01*
Y121375D01*
Y121402D01*
Y121416D01*
Y121650D01*
X210606Y121869D01*
X210675Y122268D01*
X210716Y122460D01*
X210771Y122625D01*
X210826Y122776D01*
X210881Y122928D01*
X210950Y123051D01*
X211005Y123161D01*
X211060Y123257D01*
X211101Y123340D01*
X211142Y123395D01*
X211170Y123436D01*
X211184Y123463D01*
X211197Y123477D01*
X211445Y123752D01*
X211692Y123972D01*
X211953Y124150D01*
X212187Y124288D01*
X212393Y124398D01*
X212489Y124425D01*
X212558Y124453D01*
X212626Y124480D01*
X212668Y124494D01*
X212695Y124508D01*
X212709D01*
X212833Y124535D01*
X212984Y124563D01*
X213162Y124590D01*
X213355Y124604D01*
X213767Y124632D01*
X214207Y124659D01*
X214605D01*
X214784Y124673D01*
X218659D01*
Y114106D01*
D02*
G37*
G36*
X209906D02*
X207652D01*
X206773Y116510D01*
X202554D01*
X201620Y114106D01*
X199297D01*
X203516Y124673D01*
X205797D01*
X209906Y114106D01*
D02*
G37*
G36*
X198171D02*
X194158D01*
X193732Y114119D01*
X193361Y114147D01*
X193045Y114174D01*
X192908Y114202D01*
X192770Y114215D01*
X192660Y114243D01*
X192564Y114257D01*
X192468Y114270D01*
X192399Y114298D01*
X192344Y114312D01*
X192303D01*
X192289Y114325D01*
X192276D01*
X191932Y114449D01*
X191643Y114586D01*
X191382Y114724D01*
X191176Y114861D01*
X190998Y114985D01*
X190874Y115081D01*
X190805Y115136D01*
X190778Y115164D01*
X190517Y115452D01*
X190283Y115754D01*
X190091Y116071D01*
X189926Y116373D01*
X189802Y116634D01*
X189747Y116744D01*
X189706Y116840D01*
X189678Y116923D01*
X189651Y116978D01*
X189637Y117019D01*
Y117032D01*
X189527Y117403D01*
X189445Y117788D01*
X189390Y118159D01*
X189349Y118517D01*
X189335Y118681D01*
X189321Y118819D01*
Y118956D01*
X189307Y119066D01*
Y119162D01*
Y119231D01*
Y119272D01*
Y119286D01*
X189321Y119822D01*
X189335Y120069D01*
X189362Y120303D01*
X189390Y120523D01*
X189417Y120729D01*
X189459Y120921D01*
X189486Y121086D01*
X189513Y121237D01*
X189555Y121375D01*
X189582Y121498D01*
X189610Y121595D01*
X189637Y121677D01*
X189651Y121732D01*
X189665Y121760D01*
Y121773D01*
X189802Y122144D01*
X189967Y122474D01*
X190132Y122763D01*
X190297Y123010D01*
X190434Y123216D01*
X190503Y123299D01*
X190558Y123367D01*
X190599Y123422D01*
X190640Y123463D01*
X190654Y123477D01*
X190668Y123491D01*
X190929Y123738D01*
X191190Y123944D01*
X191465Y124109D01*
X191712Y124247D01*
X191932Y124343D01*
X192028Y124384D01*
X192111Y124412D01*
X192166Y124439D01*
X192220Y124453D01*
X192248Y124467D01*
X192262D01*
X192399Y124508D01*
X192550Y124535D01*
X192866Y124590D01*
X193210Y124618D01*
X193540Y124645D01*
X193691Y124659D01*
X193828D01*
X193952Y124673D01*
X198171D01*
Y114106D01*
D02*
G37*
G36*
X181777Y124329D02*
X182079Y123807D01*
X182354Y123299D01*
X182478Y123065D01*
X182588Y122845D01*
X182684Y122639D01*
X182766Y122447D01*
X182835Y122282D01*
X182904Y122144D01*
X182945Y122021D01*
X182986Y121938D01*
X183000Y121883D01*
X183014Y121869D01*
X183137Y121526D01*
X183247Y121169D01*
X183344Y120811D01*
X183412Y120468D01*
X183481Y120138D01*
X183550Y119808D01*
X183591Y119492D01*
X183632Y119204D01*
X183660Y118929D01*
X183673Y118681D01*
X183687Y118462D01*
X183701Y118283D01*
X183715Y118132D01*
Y118022D01*
Y117953D01*
Y117926D01*
X183687Y117294D01*
X183632Y116675D01*
X183577Y116387D01*
X183536Y116098D01*
X183481Y115823D01*
X183426Y115562D01*
X183385Y115329D01*
X183330Y115122D01*
X183275Y114930D01*
X183234Y114765D01*
X183206Y114642D01*
X183179Y114545D01*
X183151Y114490D01*
Y114463D01*
X182918Y113803D01*
X182643Y113171D01*
X182505Y112869D01*
X182368Y112580D01*
X182217Y112319D01*
X182093Y112058D01*
X181956Y111838D01*
X181846Y111618D01*
X181736Y111440D01*
X181640Y111289D01*
X181571Y111165D01*
X181516Y111082D01*
X181475Y111014D01*
X181461Y111000D01*
X180073D01*
X180183Y111247D01*
X180293Y111495D01*
X180389Y111715D01*
X180485Y111921D01*
X180568Y112113D01*
X180637Y112278D01*
X180705Y112443D01*
X180760Y112580D01*
X180815Y112704D01*
X180856Y112814D01*
X180884Y112910D01*
X180911Y112979D01*
X180939Y113034D01*
X180953Y113089D01*
X180966Y113102D01*
Y113116D01*
X181104Y113528D01*
X181227Y113941D01*
X181324Y114339D01*
X181406Y114696D01*
X181447Y114861D01*
X181475Y114999D01*
X181502Y115136D01*
X181530Y115246D01*
X181544Y115329D01*
X181557Y115397D01*
X181571Y115438D01*
Y115452D01*
X181640Y115919D01*
X181695Y116359D01*
X181722Y116771D01*
X181736Y116964D01*
X181750Y117142D01*
X181763Y117294D01*
Y117445D01*
X181777Y117568D01*
Y117678D01*
Y117761D01*
Y117830D01*
Y117871D01*
Y117884D01*
X181763Y118517D01*
X181722Y119121D01*
X181695Y119396D01*
X181653Y119671D01*
X181626Y119918D01*
X181585Y120152D01*
X181557Y120358D01*
X181530Y120550D01*
X181488Y120715D01*
X181461Y120866D01*
X181434Y120976D01*
X181420Y121059D01*
X181406Y121114D01*
Y121127D01*
X181324Y121430D01*
X181241Y121732D01*
X181035Y122364D01*
X180815Y122983D01*
X180692Y123285D01*
X180582Y123573D01*
X180485Y123834D01*
X180375Y124082D01*
X180279Y124302D01*
X180210Y124480D01*
X180142Y124645D01*
X180087Y124755D01*
X180059Y124824D01*
X180046Y124851D01*
X181434D01*
X181777Y124329D01*
D02*
G37*
G36*
X170702Y124453D02*
X170537Y124068D01*
X170399Y123697D01*
X170262Y123354D01*
X170138Y123024D01*
X170028Y122708D01*
X169932Y122433D01*
X169836Y122172D01*
X169767Y121938D01*
X169698Y121732D01*
X169643Y121553D01*
X169602Y121402D01*
X169575Y121278D01*
X169547Y121196D01*
X169534Y121141D01*
Y121127D01*
X169410Y120550D01*
X169314Y119973D01*
X169259Y119437D01*
X169231Y119176D01*
X169204Y118929D01*
X169190Y118709D01*
X169176Y118503D01*
Y118324D01*
X169163Y118173D01*
Y118049D01*
Y117967D01*
Y117898D01*
Y117884D01*
Y117568D01*
X169176Y117280D01*
X169190Y116991D01*
X169217Y116744D01*
X169231Y116538D01*
X169245Y116455D01*
X169259Y116373D01*
Y116318D01*
X169272Y116277D01*
Y116249D01*
Y116236D01*
X169314Y115933D01*
X169355Y115631D01*
X169410Y115356D01*
X169465Y115095D01*
X169506Y114875D01*
X169520Y114779D01*
X169547Y114696D01*
X169561Y114628D01*
Y114586D01*
X169575Y114559D01*
Y114545D01*
X169657Y114215D01*
X169726Y113927D01*
X169808Y113652D01*
X169877Y113432D01*
X169932Y113240D01*
X169987Y113102D01*
X170001Y113047D01*
X170014Y113006D01*
X170028Y112992D01*
Y112979D01*
X170069Y112841D01*
X170124Y112690D01*
X170262Y112374D01*
X170385Y112044D01*
X170523Y111728D01*
X170646Y111440D01*
X170702Y111316D01*
X170756Y111220D01*
X170798Y111124D01*
X170825Y111055D01*
X170839Y111014D01*
X170853Y111000D01*
X169451D01*
X169231Y111357D01*
X169025Y111701D01*
X168833Y112044D01*
X168654Y112388D01*
X168503Y112718D01*
X168352Y113034D01*
X168228Y113336D01*
X168118Y113611D01*
X168008Y113872D01*
X167926Y114106D01*
X167857Y114298D01*
X167788Y114477D01*
X167747Y114614D01*
X167720Y114724D01*
X167692Y114779D01*
Y114806D01*
X167527Y115438D01*
X167417Y116029D01*
X167362Y116318D01*
X167335Y116579D01*
X167294Y116840D01*
X167266Y117060D01*
X167252Y117280D01*
X167239Y117472D01*
X167225Y117637D01*
Y117774D01*
X167211Y117884D01*
Y117967D01*
Y118022D01*
Y118036D01*
Y118365D01*
X167239Y118695D01*
X167307Y119341D01*
X167349Y119643D01*
X167404Y119932D01*
X167458Y120207D01*
X167514Y120468D01*
X167568Y120701D01*
X167623Y120907D01*
X167678Y121100D01*
X167720Y121251D01*
X167761Y121389D01*
X167788Y121471D01*
X167802Y121540D01*
X167816Y121553D01*
X168063Y122199D01*
X168338Y122804D01*
X168475Y123092D01*
X168613Y123367D01*
X168750Y123615D01*
X168888Y123862D01*
X169011Y124068D01*
X169135Y124274D01*
X169231Y124439D01*
X169327Y124577D01*
X169396Y124700D01*
X169451Y124783D01*
X169492Y124838D01*
X169506Y124851D01*
X170880D01*
X170702Y124453D01*
D02*
G37*
G36*
X90011Y27000D02*
X88191D01*
X88180Y32494D01*
Y32528D01*
Y32539D01*
X88169Y32550D01*
X88135Y32572D01*
X85571D01*
X85527Y32561D01*
X85516Y32550D01*
X85505Y32539D01*
X85493Y32517D01*
Y32506D01*
Y32494D01*
Y27000D01*
X83673D01*
Y32494D01*
Y32528D01*
X83662Y32539D01*
X83651Y32550D01*
X83607Y32572D01*
X81065D01*
X81009Y32561D01*
X80998Y32550D01*
X80987Y32539D01*
Y32517D01*
Y32506D01*
Y32494D01*
X80976Y27000D01*
X79178D01*
Y32583D01*
X79189Y32761D01*
X79211Y32927D01*
X79255Y33083D01*
X79300Y33216D01*
X79344Y33327D01*
X79389Y33416D01*
X79411Y33460D01*
X79422Y33482D01*
X79511Y33627D01*
X79622Y33760D01*
X79733Y33871D01*
X79833Y33960D01*
X79921Y34037D01*
X79999Y34093D01*
X80043Y34126D01*
X80066Y34137D01*
X80221Y34215D01*
X80388Y34281D01*
X80532Y34326D01*
X80676Y34348D01*
X80798Y34370D01*
X80898Y34381D01*
X90011D01*
Y27000D01*
D02*
G37*
G36*
X75959Y34370D02*
X76125Y34348D01*
X76281Y34304D01*
X76414Y34259D01*
X76525Y34215D01*
X76603Y34170D01*
X76658Y34148D01*
X76680Y34137D01*
X76825Y34037D01*
X76947Y33937D01*
X77058Y33826D01*
X77158Y33715D01*
X77235Y33627D01*
X77291Y33549D01*
X77324Y33505D01*
X77335Y33482D01*
X77413Y33327D01*
X77479Y33172D01*
X77524Y33016D01*
X77546Y32883D01*
X77568Y32761D01*
X77579Y32661D01*
Y32605D01*
Y32594D01*
Y32583D01*
Y28787D01*
X77568Y28609D01*
X77546Y28443D01*
X77502Y28299D01*
X77457Y28166D01*
X77413Y28054D01*
X77368Y27966D01*
X77346Y27921D01*
X77335Y27899D01*
X77235Y27755D01*
X77124Y27622D01*
X77013Y27511D01*
X76913Y27422D01*
X76825Y27344D01*
X76747Y27289D01*
X76702Y27255D01*
X76680Y27244D01*
X76525Y27167D01*
X76370Y27100D01*
X76214Y27055D01*
X76081Y27033D01*
X75959Y27011D01*
X75859Y27000D01*
X71885D01*
X71697Y27011D01*
X71530Y27033D01*
X71375Y27078D01*
X71241Y27122D01*
X71130Y27167D01*
X71042Y27211D01*
X70997Y27233D01*
X70975Y27244D01*
X70831Y27344D01*
X70709Y27455D01*
X70598Y27555D01*
X70498Y27666D01*
X70431Y27755D01*
X70376Y27833D01*
X70342Y27877D01*
X70331Y27899D01*
X70242Y28054D01*
X70187Y28210D01*
X70142Y28365D01*
X70109Y28498D01*
X70098Y28609D01*
X70087Y28709D01*
Y28765D01*
Y28787D01*
Y32583D01*
X70098Y32761D01*
X70120Y32927D01*
X70165Y33083D01*
X70198Y33216D01*
X70242Y33327D01*
X70287Y33416D01*
X70309Y33460D01*
X70320Y33482D01*
X70409Y33627D01*
X70520Y33760D01*
X70631Y33871D01*
X70731Y33971D01*
X70820Y34037D01*
X70897Y34093D01*
X70942Y34126D01*
X70964Y34137D01*
X71119Y34215D01*
X71286Y34281D01*
X71430Y34326D01*
X71574Y34348D01*
X71697Y34370D01*
X71796Y34381D01*
X75781D01*
X75959Y34370D01*
D02*
G37*
G36*
X63416Y34381D02*
X67301D01*
X67490Y34370D01*
X67656Y34348D01*
X67811Y34304D01*
X67956Y34259D01*
X68067Y34215D01*
X68144Y34170D01*
X68200Y34148D01*
X68222Y34137D01*
X68366Y34037D01*
X68489Y33937D01*
X68600Y33826D01*
X68688Y33715D01*
X68766Y33627D01*
X68822Y33549D01*
X68855Y33505D01*
X68866Y33482D01*
X68944Y33327D01*
X69010Y33172D01*
X69055Y33016D01*
X69077Y32883D01*
X69099Y32761D01*
X69110Y32661D01*
Y32605D01*
Y32594D01*
Y32583D01*
Y28787D01*
X69099Y28609D01*
X69077Y28443D01*
X69033Y28299D01*
X68988Y28154D01*
X68944Y28043D01*
X68899Y27966D01*
X68877Y27910D01*
X68866Y27888D01*
X68766Y27744D01*
X68666Y27610D01*
X68555Y27499D01*
X68455Y27411D01*
X68366Y27333D01*
X68289Y27278D01*
X68244Y27244D01*
X68222Y27233D01*
X68067Y27155D01*
X67900Y27100D01*
X67745Y27055D01*
X67612Y27033D01*
X67478Y27011D01*
X67390Y27000D01*
X61607D01*
X61596Y36801D01*
X63416D01*
Y34381D01*
D02*
G37*
G36*
X54914D02*
X58798D01*
X58987Y34370D01*
X59154Y34348D01*
X59309Y34304D01*
X59453Y34259D01*
X59564Y34215D01*
X59642Y34170D01*
X59698Y34148D01*
X59720Y34137D01*
X59864Y34037D01*
X59986Y33937D01*
X60097Y33826D01*
X60186Y33715D01*
X60264Y33627D01*
X60319Y33549D01*
X60353Y33505D01*
X60364Y33482D01*
X60441Y33327D01*
X60508Y33172D01*
X60552Y33016D01*
X60574Y32883D01*
X60597Y32761D01*
X60608Y32661D01*
Y32605D01*
Y32594D01*
Y32583D01*
Y28787D01*
X60597Y28609D01*
X60574Y28443D01*
X60530Y28299D01*
X60486Y28154D01*
X60441Y28043D01*
X60397Y27966D01*
X60375Y27910D01*
X60364Y27888D01*
X60264Y27744D01*
X60164Y27610D01*
X60053Y27499D01*
X59953Y27411D01*
X59864Y27333D01*
X59786Y27278D01*
X59742Y27244D01*
X59720Y27233D01*
X59564Y27155D01*
X59398Y27100D01*
X59243Y27055D01*
X59109Y27033D01*
X58976Y27011D01*
X58887Y27000D01*
X53104D01*
X53093Y36801D01*
X54914D01*
Y34381D01*
D02*
G37*
G36*
X50129Y34370D02*
X50296Y34348D01*
X50451Y34304D01*
X50585Y34259D01*
X50696Y34215D01*
X50773Y34170D01*
X50829Y34148D01*
X50851Y34137D01*
X50995Y34037D01*
X51117Y33937D01*
X51228Y33826D01*
X51328Y33715D01*
X51406Y33627D01*
X51462Y33549D01*
X51495Y33505D01*
X51506Y33482D01*
X51584Y33327D01*
X51650Y33172D01*
X51695Y33016D01*
X51717Y32883D01*
X51739Y32761D01*
X51750Y32661D01*
Y32605D01*
Y32594D01*
Y32583D01*
Y28787D01*
X51739Y28609D01*
X51717Y28443D01*
X51672Y28299D01*
X51628Y28166D01*
X51584Y28054D01*
X51539Y27966D01*
X51517Y27921D01*
X51506Y27899D01*
X51406Y27755D01*
X51295Y27622D01*
X51184Y27511D01*
X51084Y27422D01*
X50995Y27344D01*
X50918Y27289D01*
X50873Y27255D01*
X50851Y27244D01*
X50696Y27167D01*
X50540Y27100D01*
X50385Y27055D01*
X50252Y27033D01*
X50129Y27011D01*
X50030Y27000D01*
X46056D01*
X45867Y27011D01*
X45701Y27033D01*
X45545Y27078D01*
X45412Y27122D01*
X45301Y27167D01*
X45212Y27211D01*
X45168Y27233D01*
X45146Y27244D01*
X45001Y27344D01*
X44879Y27455D01*
X44768Y27555D01*
X44668Y27666D01*
X44602Y27755D01*
X44546Y27833D01*
X44513Y27877D01*
X44502Y27899D01*
X44413Y28054D01*
X44358Y28210D01*
X44313Y28365D01*
X44280Y28498D01*
X44269Y28609D01*
X44258Y28709D01*
Y28765D01*
Y28787D01*
Y32583D01*
X44269Y32761D01*
X44291Y32927D01*
X44335Y33083D01*
X44369Y33216D01*
X44413Y33327D01*
X44458Y33416D01*
X44480Y33460D01*
X44491Y33482D01*
X44580Y33627D01*
X44691Y33760D01*
X44802Y33871D01*
X44901Y33971D01*
X44990Y34037D01*
X45068Y34093D01*
X45112Y34126D01*
X45135Y34137D01*
X45290Y34215D01*
X45457Y34281D01*
X45601Y34326D01*
X45745Y34348D01*
X45867Y34370D01*
X45967Y34381D01*
X49952D01*
X50129Y34370D01*
D02*
G37*
G36*
X225791Y92000D02*
X223500D01*
X219720Y102573D01*
X221988D01*
X224577Y94749D01*
X227258Y102573D01*
X229560D01*
X225791Y92000D01*
D02*
G37*
G36*
X249000D02*
X246869D01*
Y96410D01*
X246182D01*
X245964Y96387D01*
X245781Y96376D01*
X245632Y96353D01*
X245518Y96330D01*
X245437Y96307D01*
X245380Y96296D01*
X245369Y96284D01*
X245243Y96238D01*
X245128Y96170D01*
X245014Y96101D01*
X244922Y96021D01*
X244842Y95952D01*
X244773Y95906D01*
X244739Y95861D01*
X244727Y95849D01*
X244658Y95780D01*
X244590Y95689D01*
X244510Y95585D01*
X244418Y95471D01*
X244235Y95219D01*
X244040Y94956D01*
X243868Y94704D01*
X243788Y94600D01*
X243731Y94497D01*
X243673Y94417D01*
X243627Y94360D01*
X243605Y94314D01*
X243593Y94303D01*
X242047Y92000D01*
X239492D01*
X240786Y94051D01*
X240924Y94280D01*
X241061Y94474D01*
X241187Y94669D01*
X241302Y94841D01*
X241405Y95001D01*
X241508Y95139D01*
X241600Y95265D01*
X241680Y95379D01*
X241749Y95471D01*
X241817Y95551D01*
X241875Y95620D01*
X241921Y95677D01*
X241955Y95711D01*
X241978Y95746D01*
X242001Y95769D01*
X242173Y95941D01*
X242367Y96112D01*
X242562Y96261D01*
X242745Y96387D01*
X242906Y96502D01*
X243032Y96582D01*
X243078Y96616D01*
X243112Y96628D01*
X243135Y96651D01*
X243146D01*
X242894Y96697D01*
X242654Y96754D01*
X242436Y96823D01*
X242230Y96891D01*
X242035Y96972D01*
X241863Y97052D01*
X241714Y97132D01*
X241577Y97224D01*
X241451Y97304D01*
X241348Y97384D01*
X241256Y97453D01*
X241176Y97510D01*
X241119Y97567D01*
X241084Y97602D01*
X241061Y97625D01*
X241050Y97636D01*
X240924Y97785D01*
X240821Y97945D01*
X240729Y98106D01*
X240649Y98278D01*
X240580Y98438D01*
X240523Y98598D01*
X240443Y98919D01*
X240408Y99057D01*
X240385Y99194D01*
X240374Y99309D01*
X240363Y99412D01*
X240351Y99492D01*
Y99549D01*
Y99595D01*
Y99606D01*
X240374Y99950D01*
X240420Y100259D01*
X240500Y100546D01*
X240580Y100786D01*
X240626Y100889D01*
X240672Y100992D01*
X240706Y101073D01*
X240752Y101141D01*
X240775Y101199D01*
X240798Y101233D01*
X240821Y101256D01*
Y101267D01*
X241004Y101519D01*
X241210Y101737D01*
X241405Y101909D01*
X241600Y102058D01*
X241783Y102161D01*
X241852Y102195D01*
X241921Y102230D01*
X241978Y102253D01*
X242012Y102275D01*
X242035Y102287D01*
X242047D01*
X242195Y102333D01*
X242367Y102379D01*
X242562Y102424D01*
X242757Y102447D01*
X243158Y102505D01*
X243570Y102539D01*
X243753Y102550D01*
X243937Y102562D01*
X244097D01*
X244235Y102573D01*
X249000D01*
Y92000D01*
D02*
G37*
G36*
X238335D02*
X230293D01*
Y93787D01*
X236204D01*
Y96662D01*
X230900D01*
Y98449D01*
X236204D01*
Y100786D01*
X230499D01*
Y102573D01*
X238335D01*
Y92000D01*
D02*
G37*
G36*
X215607D02*
X213351D01*
X212469Y94406D01*
X208242D01*
X207314Y92000D01*
X204988D01*
X209227Y102573D01*
X211495D01*
X215607Y92000D01*
D02*
G37*
G36*
X37011Y34981D02*
X35202D01*
Y36801D01*
X37011D01*
Y34981D01*
D02*
G37*
G36*
Y27000D02*
X35202D01*
Y34381D01*
X37011D01*
Y27000D01*
D02*
G37*
G36*
X32516Y34370D02*
X32682Y34348D01*
X32838Y34304D01*
X32971Y34259D01*
X33082Y34215D01*
X33159Y34170D01*
X33215Y34148D01*
X33237Y34137D01*
X33382Y34037D01*
X33504Y33937D01*
X33615Y33826D01*
X33714Y33715D01*
X33792Y33627D01*
X33848Y33549D01*
X33881Y33505D01*
X33892Y33482D01*
X33970Y33327D01*
X34036Y33172D01*
X34081Y33016D01*
X34103Y32883D01*
X34125Y32761D01*
X34136Y32661D01*
Y32605D01*
Y32594D01*
Y32583D01*
Y28787D01*
X34125Y28609D01*
X34103Y28443D01*
X34059Y28299D01*
X34014Y28166D01*
X33970Y28054D01*
X33925Y27966D01*
X33903Y27921D01*
X33892Y27899D01*
X33792Y27755D01*
X33681Y27622D01*
X33570Y27511D01*
X33470Y27422D01*
X33382Y27344D01*
X33304Y27289D01*
X33259Y27255D01*
X33237Y27244D01*
X33082Y27167D01*
X32926Y27100D01*
X32771Y27055D01*
X32638Y27033D01*
X32516Y27011D01*
X32416Y27000D01*
X28442D01*
X28253Y27011D01*
X28087Y27033D01*
X27931Y27078D01*
X27798Y27122D01*
X27687Y27167D01*
X27599Y27211D01*
X27554Y27233D01*
X27532Y27244D01*
X27388Y27344D01*
X27266Y27455D01*
X27155Y27555D01*
X27055Y27666D01*
X26988Y27755D01*
X26932Y27833D01*
X26899Y27877D01*
X26888Y27899D01*
X26799Y28054D01*
X26744Y28210D01*
X26699Y28365D01*
X26666Y28498D01*
X26655Y28609D01*
X26644Y28709D01*
Y28765D01*
Y28787D01*
Y32583D01*
X26655Y32761D01*
X26677Y32927D01*
X26722Y33083D01*
X26755Y33216D01*
X26799Y33327D01*
X26844Y33416D01*
X26866Y33460D01*
X26877Y33482D01*
X26966Y33627D01*
X27077Y33760D01*
X27188Y33871D01*
X27288Y33971D01*
X27376Y34037D01*
X27454Y34093D01*
X27499Y34126D01*
X27521Y34137D01*
X27676Y34215D01*
X27843Y34281D01*
X27987Y34326D01*
X28131Y34348D01*
X28253Y34370D01*
X28353Y34381D01*
X32338D01*
X32516Y34370D01*
D02*
G37*
G36*
X140976Y39363D02*
Y36135D01*
X139434D01*
Y39354D01*
X136656Y43827D01*
X138442D01*
X139596Y41744D01*
X139722Y41509D01*
X139839Y41302D01*
X139930Y41122D01*
X140011Y40959D01*
X140083Y40833D01*
X140101Y40779D01*
X140128Y40734D01*
X140146Y40698D01*
X140155Y40671D01*
X140164Y40662D01*
Y40653D01*
X140182D01*
X140272Y40842D01*
X140362Y41031D01*
X140462Y41221D01*
X140552Y41392D01*
X140633Y41536D01*
X140660Y41600D01*
X140696Y41654D01*
X140714Y41690D01*
X140732Y41726D01*
X140750Y41744D01*
Y41753D01*
X141922Y43827D01*
X143735D01*
X140976Y39363D01*
D02*
G37*
G36*
X157071Y36135D02*
X155529D01*
Y38453D01*
X154366Y39679D01*
X152229Y36135D01*
X150290D01*
X153293Y40770D01*
X150506Y43827D01*
X152436D01*
X155529Y40409D01*
Y43827D01*
X157071D01*
Y36135D01*
D02*
G37*
G36*
X149460D02*
X144213D01*
Y37434D01*
X147919D01*
Y39462D01*
X144682D01*
Y40770D01*
X147919D01*
Y42519D01*
X144402D01*
Y43827D01*
X149460D01*
Y36135D01*
D02*
G37*
G36*
X135872D02*
X134330D01*
Y39030D01*
X133158D01*
X132896Y39039D01*
X132644Y39057D01*
X132418Y39084D01*
X132202Y39120D01*
X132013Y39165D01*
X131832Y39219D01*
X131670Y39264D01*
X131535Y39327D01*
X131409Y39381D01*
X131300Y39427D01*
X131210Y39481D01*
X131138Y39526D01*
X131075Y39562D01*
X131039Y39589D01*
X131012Y39607D01*
X131003Y39616D01*
X130877Y39733D01*
X130768Y39868D01*
X130678Y40004D01*
X130597Y40157D01*
X130525Y40310D01*
X130471Y40463D01*
X130426Y40608D01*
X130390Y40761D01*
X130363Y40896D01*
X130336Y41031D01*
X130317Y41149D01*
X130308Y41248D01*
X130299Y41338D01*
Y41401D01*
Y41437D01*
Y41455D01*
X130308Y41672D01*
X130326Y41870D01*
X130363Y42050D01*
X130408Y42231D01*
X130462Y42384D01*
X130516Y42528D01*
X130579Y42664D01*
X130642Y42781D01*
X130714Y42880D01*
X130777Y42970D01*
X130831Y43051D01*
X130885Y43114D01*
X130931Y43159D01*
X130967Y43196D01*
X130985Y43214D01*
X130994Y43223D01*
X131129Y43331D01*
X131282Y43421D01*
X131445Y43502D01*
X131625Y43574D01*
X131796Y43628D01*
X131976Y43682D01*
X132328Y43755D01*
X132500Y43773D01*
X132653Y43791D01*
X132797Y43809D01*
X132914Y43818D01*
X133013Y43827D01*
X135872D01*
Y36135D01*
D02*
G37*
G36*
X129921D02*
X128271D01*
X127639Y37866D01*
X124664D01*
X123996Y36135D01*
X122301D01*
X125394Y43827D01*
X126927D01*
X129921Y36135D01*
D02*
G37*
G36*
X121472D02*
X118478D01*
X118162Y36144D01*
X117865Y36180D01*
X117585Y36225D01*
X117333Y36298D01*
X117099Y36370D01*
X116882Y36451D01*
X116693Y36550D01*
X116521Y36640D01*
X116368Y36730D01*
X116242Y36830D01*
X116125Y36911D01*
X116044Y36992D01*
X115971Y37055D01*
X115917Y37100D01*
X115890Y37136D01*
X115881Y37145D01*
X115737Y37343D01*
X115602Y37551D01*
X115493Y37776D01*
X115394Y38002D01*
X115313Y38236D01*
X115250Y38471D01*
X115196Y38696D01*
X115151Y38912D01*
X115115Y39120D01*
X115088Y39309D01*
X115070Y39481D01*
X115052Y39634D01*
Y39751D01*
X115043Y39841D01*
Y39877D01*
Y39904D01*
Y39913D01*
Y39922D01*
X115052Y40274D01*
X115079Y40608D01*
X115124Y40923D01*
X115187Y41212D01*
X115268Y41482D01*
X115358Y41735D01*
X115457Y41969D01*
X115575Y42177D01*
X115701Y42375D01*
X115836Y42555D01*
X115980Y42727D01*
X116125Y42871D01*
X116278Y43006D01*
X116431Y43133D01*
X116594Y43241D01*
X116747Y43340D01*
X116909Y43421D01*
X117071Y43502D01*
X117225Y43565D01*
X117378Y43619D01*
X117667Y43710D01*
X117802Y43737D01*
X117928Y43764D01*
X118036Y43782D01*
X118145Y43800D01*
X118235Y43809D01*
X118316Y43818D01*
X118379Y43827D01*
X121472D01*
Y36135D01*
D02*
G37*
G36*
X111778Y43854D02*
X111995Y43818D01*
X112193Y43773D01*
X112383Y43710D01*
X112554Y43637D01*
X112716Y43556D01*
X112860Y43475D01*
X112987Y43385D01*
X113095Y43295D01*
X113194Y43205D01*
X113284Y43123D01*
X113347Y43051D01*
X113401Y42988D01*
X113447Y42943D01*
X113465Y42907D01*
X113474Y42898D01*
X113591Y42709D01*
X113690Y42492D01*
X113780Y42267D01*
X113852Y42032D01*
X113916Y41789D01*
X113970Y41536D01*
X114015Y41293D01*
X114051Y41059D01*
X114078Y40833D01*
X114096Y40617D01*
X114114Y40427D01*
X114123Y40265D01*
Y40121D01*
X114132Y40067D01*
Y40022D01*
Y39985D01*
Y39959D01*
Y39940D01*
Y39931D01*
X114123Y39553D01*
X114105Y39210D01*
X114069Y38885D01*
X114033Y38588D01*
X113979Y38317D01*
X113925Y38074D01*
X113861Y37848D01*
X113798Y37650D01*
X113744Y37479D01*
X113681Y37334D01*
X113627Y37208D01*
X113573Y37109D01*
X113537Y37028D01*
X113501Y36974D01*
X113483Y36938D01*
X113474Y36929D01*
X113338Y36766D01*
X113194Y36622D01*
X113050Y36496D01*
X112888Y36388D01*
X112725Y36307D01*
X112563Y36225D01*
X112401Y36162D01*
X112247Y36117D01*
X112103Y36081D01*
X111968Y36045D01*
X111842Y36027D01*
X111733Y36018D01*
X111652Y36009D01*
X111580Y36000D01*
X111526D01*
X111301Y36009D01*
X111084Y36036D01*
X110886Y36090D01*
X110696Y36144D01*
X110525Y36216D01*
X110363Y36298D01*
X110227Y36379D01*
X110092Y36469D01*
X109984Y36550D01*
X109885Y36631D01*
X109795Y36712D01*
X109732Y36785D01*
X109677Y36848D01*
X109632Y36893D01*
X109614Y36920D01*
X109605Y36929D01*
X109488Y37118D01*
X109380Y37325D01*
X109290Y37551D01*
X109218Y37794D01*
X109145Y38038D01*
X109091Y38290D01*
X109046Y38543D01*
X109010Y38786D01*
X108983Y39012D01*
X108965Y39228D01*
X108947Y39427D01*
X108938Y39598D01*
X108929Y39733D01*
Y39796D01*
Y39841D01*
Y39877D01*
Y39904D01*
Y39922D01*
Y39931D01*
X108938Y40292D01*
X108956Y40635D01*
X108992Y40941D01*
X109028Y41239D01*
X109082Y41500D01*
X109136Y41744D01*
X109191Y41960D01*
X109254Y42159D01*
X109317Y42330D01*
X109371Y42483D01*
X109425Y42600D01*
X109479Y42709D01*
X109515Y42790D01*
X109551Y42844D01*
X109569Y42880D01*
X109578Y42889D01*
X109705Y43060D01*
X109849Y43214D01*
X109993Y43340D01*
X110155Y43448D01*
X110318Y43547D01*
X110480Y43628D01*
X110642Y43692D01*
X110805Y43746D01*
X110949Y43782D01*
X111093Y43809D01*
X111219Y43836D01*
X111328Y43845D01*
X111418Y43854D01*
X111490Y43863D01*
X111544D01*
X111778Y43854D01*
D02*
G37*
G36*
X244592Y33638D02*
X242659D01*
X242647Y39471D01*
Y39507D01*
Y39519D01*
X242636Y39530D01*
X242600Y39554D01*
X239878D01*
X239831Y39542D01*
X239819Y39530D01*
X239807Y39519D01*
X239795Y39495D01*
Y39483D01*
Y39471D01*
Y33638D01*
X237862D01*
Y39471D01*
Y39507D01*
X237851Y39519D01*
X237839Y39530D01*
X237792Y39554D01*
X235093D01*
X235034Y39542D01*
X235022Y39530D01*
X235010Y39519D01*
Y39495D01*
Y39483D01*
Y39471D01*
X234998Y33638D01*
X233089D01*
Y39566D01*
X233101Y39754D01*
X233125Y39931D01*
X233172Y40096D01*
X233219Y40238D01*
X233266Y40355D01*
X233313Y40450D01*
X233337Y40497D01*
X233349Y40520D01*
X233443Y40674D01*
X233561Y40815D01*
X233678Y40933D01*
X233785Y41027D01*
X233879Y41110D01*
X233961Y41169D01*
X234009Y41204D01*
X234032Y41216D01*
X234197Y41298D01*
X234374Y41369D01*
X234527Y41416D01*
X234680Y41440D01*
X234810Y41463D01*
X234916Y41475D01*
X244592D01*
Y33638D01*
D02*
G37*
G36*
X229671Y41463D02*
X229848Y41440D01*
X230013Y41393D01*
X230155Y41345D01*
X230273Y41298D01*
X230355Y41251D01*
X230414Y41228D01*
X230438Y41216D01*
X230591Y41110D01*
X230720Y41004D01*
X230838Y40886D01*
X230944Y40768D01*
X231027Y40674D01*
X231086Y40591D01*
X231121Y40544D01*
X231133Y40520D01*
X231215Y40355D01*
X231286Y40190D01*
X231333Y40025D01*
X231357Y39884D01*
X231380Y39754D01*
X231392Y39648D01*
Y39589D01*
Y39578D01*
Y39566D01*
Y35535D01*
X231380Y35347D01*
X231357Y35170D01*
X231310Y35017D01*
X231262Y34875D01*
X231215Y34757D01*
X231168Y34663D01*
X231145Y34616D01*
X231133Y34592D01*
X231027Y34439D01*
X230909Y34298D01*
X230791Y34180D01*
X230685Y34086D01*
X230591Y34003D01*
X230508Y33944D01*
X230461Y33909D01*
X230438Y33897D01*
X230273Y33814D01*
X230107Y33744D01*
X229942Y33697D01*
X229801Y33673D01*
X229671Y33649D01*
X229565Y33638D01*
X225346D01*
X225146Y33649D01*
X224969Y33673D01*
X224804Y33720D01*
X224662Y33767D01*
X224545Y33814D01*
X224450Y33862D01*
X224403Y33885D01*
X224380Y33897D01*
X224226Y34003D01*
X224097Y34121D01*
X223979Y34227D01*
X223873Y34345D01*
X223802Y34439D01*
X223743Y34522D01*
X223708Y34569D01*
X223696Y34592D01*
X223602Y34757D01*
X223543Y34922D01*
X223496Y35087D01*
X223460Y35229D01*
X223449Y35347D01*
X223437Y35453D01*
Y35512D01*
Y35535D01*
Y39566D01*
X223449Y39754D01*
X223472Y39931D01*
X223519Y40096D01*
X223555Y40238D01*
X223602Y40355D01*
X223649Y40450D01*
X223673Y40497D01*
X223684Y40520D01*
X223779Y40674D01*
X223897Y40815D01*
X224014Y40933D01*
X224120Y41039D01*
X224215Y41110D01*
X224297Y41169D01*
X224344Y41204D01*
X224368Y41216D01*
X224533Y41298D01*
X224710Y41369D01*
X224863Y41416D01*
X225016Y41440D01*
X225146Y41463D01*
X225252Y41475D01*
X229483D01*
X229671Y41463D01*
D02*
G37*
G36*
X216354Y41475D02*
X220479D01*
X220679Y41463D01*
X220856Y41440D01*
X221021Y41393D01*
X221174Y41345D01*
X221292Y41298D01*
X221374Y41251D01*
X221433Y41228D01*
X221457Y41216D01*
X221610Y41110D01*
X221740Y41004D01*
X221857Y40886D01*
X221952Y40768D01*
X222034Y40674D01*
X222093Y40591D01*
X222129Y40544D01*
X222140Y40520D01*
X222223Y40355D01*
X222294Y40190D01*
X222341Y40025D01*
X222364Y39884D01*
X222388Y39754D01*
X222400Y39648D01*
Y39589D01*
Y39578D01*
Y39566D01*
Y35535D01*
X222388Y35347D01*
X222364Y35170D01*
X222317Y35017D01*
X222270Y34863D01*
X222223Y34746D01*
X222176Y34663D01*
X222152Y34604D01*
X222140Y34581D01*
X222034Y34427D01*
X221928Y34286D01*
X221810Y34168D01*
X221704Y34074D01*
X221610Y33991D01*
X221528Y33932D01*
X221480Y33897D01*
X221457Y33885D01*
X221292Y33803D01*
X221115Y33744D01*
X220950Y33697D01*
X220809Y33673D01*
X220667Y33649D01*
X220573Y33638D01*
X214433D01*
X214421Y44044D01*
X216354D01*
Y41475D01*
D02*
G37*
G36*
X207326D02*
X211451D01*
X211651Y41463D01*
X211828Y41440D01*
X211993Y41393D01*
X212146Y41345D01*
X212264Y41298D01*
X212347Y41251D01*
X212405Y41228D01*
X212429Y41216D01*
X212582Y41110D01*
X212712Y41004D01*
X212830Y40886D01*
X212924Y40768D01*
X213007Y40674D01*
X213065Y40591D01*
X213101Y40544D01*
X213113Y40520D01*
X213195Y40355D01*
X213266Y40190D01*
X213313Y40025D01*
X213337Y39884D01*
X213360Y39754D01*
X213372Y39648D01*
Y39589D01*
Y39578D01*
Y39566D01*
Y35535D01*
X213360Y35347D01*
X213337Y35170D01*
X213289Y35017D01*
X213242Y34863D01*
X213195Y34746D01*
X213148Y34663D01*
X213124Y34604D01*
X213113Y34581D01*
X213007Y34427D01*
X212901Y34286D01*
X212783Y34168D01*
X212677Y34074D01*
X212582Y33991D01*
X212500Y33932D01*
X212453Y33897D01*
X212429Y33885D01*
X212264Y33803D01*
X212087Y33744D01*
X211922Y33697D01*
X211781Y33673D01*
X211639Y33649D01*
X211545Y33638D01*
X205405D01*
X205393Y44044D01*
X207326D01*
Y41475D01*
D02*
G37*
G36*
X202246Y41463D02*
X202423Y41440D01*
X202588Y41393D01*
X202729Y41345D01*
X202847Y41298D01*
X202930Y41251D01*
X202989Y41228D01*
X203012Y41216D01*
X203166Y41110D01*
X203295Y41004D01*
X203413Y40886D01*
X203519Y40768D01*
X203602Y40674D01*
X203661Y40591D01*
X203696Y40544D01*
X203708Y40520D01*
X203790Y40355D01*
X203861Y40190D01*
X203908Y40025D01*
X203932Y39884D01*
X203955Y39754D01*
X203967Y39648D01*
Y39589D01*
Y39578D01*
Y39566D01*
Y35535D01*
X203955Y35347D01*
X203932Y35170D01*
X203885Y35017D01*
X203837Y34875D01*
X203790Y34757D01*
X203743Y34663D01*
X203720Y34616D01*
X203708Y34592D01*
X203602Y34439D01*
X203484Y34298D01*
X203366Y34180D01*
X203260Y34086D01*
X203166Y34003D01*
X203083Y33944D01*
X203036Y33909D01*
X203012Y33897D01*
X202847Y33814D01*
X202682Y33744D01*
X202517Y33697D01*
X202376Y33673D01*
X202246Y33649D01*
X202140Y33638D01*
X197921D01*
X197721Y33649D01*
X197544Y33673D01*
X197379Y33720D01*
X197237Y33767D01*
X197120Y33814D01*
X197025Y33862D01*
X196978Y33885D01*
X196955Y33897D01*
X196801Y34003D01*
X196672Y34121D01*
X196554Y34227D01*
X196448Y34345D01*
X196377Y34439D01*
X196318Y34522D01*
X196283Y34569D01*
X196271Y34592D01*
X196177Y34757D01*
X196118Y34922D01*
X196071Y35087D01*
X196035Y35229D01*
X196024Y35347D01*
X196012Y35453D01*
Y35512D01*
Y35535D01*
Y39566D01*
X196024Y39754D01*
X196047Y39931D01*
X196094Y40096D01*
X196130Y40238D01*
X196177Y40355D01*
X196224Y40450D01*
X196247Y40497D01*
X196259Y40520D01*
X196353Y40674D01*
X196471Y40815D01*
X196589Y40933D01*
X196695Y41039D01*
X196790Y41110D01*
X196872Y41169D01*
X196919Y41204D01*
X196943Y41216D01*
X197108Y41298D01*
X197285Y41369D01*
X197438Y41416D01*
X197591Y41440D01*
X197721Y41463D01*
X197827Y41475D01*
X202058D01*
X202246Y41463D01*
D02*
G37*
G36*
X214480Y31679D02*
X214668Y31644D01*
X214833Y31608D01*
X214975Y31561D01*
X215104Y31502D01*
X215187Y31467D01*
X215246Y31431D01*
X215269Y31420D01*
X215423Y31314D01*
X215576Y31207D01*
X215694Y31090D01*
X215800Y30972D01*
X215882Y30877D01*
X215941Y30795D01*
X215977Y30748D01*
X215988Y30724D01*
X216071Y30559D01*
X216141Y30382D01*
X216177Y30229D01*
X216212Y30076D01*
X216224Y29946D01*
X216236Y29840D01*
Y29770D01*
Y29758D01*
Y29746D01*
Y27778D01*
X216224Y27589D01*
X216201Y27413D01*
X216165Y27248D01*
X216118Y27106D01*
X216071Y26976D01*
X216024Y26894D01*
X216000Y26835D01*
X215988Y26811D01*
X215882Y26658D01*
X215764Y26517D01*
X215646Y26387D01*
X215529Y26293D01*
X215423Y26210D01*
X215340Y26151D01*
X215293Y26116D01*
X215269Y26104D01*
X215093Y26022D01*
X214928Y25951D01*
X214763Y25904D01*
X214609Y25869D01*
X214480Y25857D01*
X214386Y25845D01*
X214315Y25833D01*
X208505D01*
X208493Y25821D01*
X208481Y25810D01*
X208469Y25786D01*
Y25774D01*
Y25763D01*
Y23995D01*
X208481Y23948D01*
X208493Y23924D01*
X208505Y23912D01*
X214256D01*
X214279Y23924D01*
Y23971D01*
Y23983D01*
Y23995D01*
Y24725D01*
X216248D01*
X216236Y23900D01*
X216224Y23700D01*
X216201Y23523D01*
X216165Y23346D01*
X216118Y23205D01*
X216071Y23075D01*
X216024Y22993D01*
X216000Y22934D01*
X215988Y22910D01*
X215882Y22757D01*
X215764Y22616D01*
X215646Y22498D01*
X215529Y22404D01*
X215423Y22321D01*
X215340Y22262D01*
X215293Y22227D01*
X215269Y22215D01*
X215093Y22132D01*
X214928Y22062D01*
X214763Y22015D01*
X214609Y21991D01*
X214480Y21967D01*
X214386Y21956D01*
X208434D01*
X208245Y21967D01*
X208057Y21991D01*
X207892Y22038D01*
X207750Y22085D01*
X207632Y22132D01*
X207538Y22180D01*
X207491Y22203D01*
X207467Y22215D01*
X207314Y22321D01*
X207173Y22439D01*
X207055Y22545D01*
X206961Y22663D01*
X206878Y22757D01*
X206819Y22840D01*
X206784Y22887D01*
X206772Y22910D01*
X206678Y23087D01*
X206619Y23252D01*
X206560Y23417D01*
X206525Y23570D01*
X206501Y23700D01*
X206489Y23806D01*
Y23877D01*
Y23900D01*
Y25857D01*
X206501Y26057D01*
X206536Y26234D01*
X206583Y26399D01*
X206630Y26540D01*
X206689Y26670D01*
X206725Y26753D01*
X206760Y26811D01*
X206772Y26835D01*
X206878Y26988D01*
X206984Y27130D01*
X207102Y27248D01*
X207220Y27353D01*
X207314Y27424D01*
X207397Y27483D01*
X207444Y27518D01*
X207467Y27530D01*
X207632Y27613D01*
X207797Y27683D01*
X207962Y27731D01*
X208116Y27766D01*
X208245Y27790D01*
X208340Y27801D01*
X208410Y27813D01*
X214209D01*
X214244Y27801D01*
X214256D01*
X214279Y27813D01*
Y27848D01*
Y27872D01*
Y29652D01*
Y29699D01*
Y29711D01*
X214256Y29734D01*
X208516D01*
X208505Y29722D01*
X208493Y29711D01*
X208469Y29675D01*
Y29664D01*
Y29652D01*
Y28921D01*
X206501D01*
X206489Y29746D01*
X206501Y29946D01*
X206536Y30123D01*
X206583Y30300D01*
X206630Y30441D01*
X206689Y30559D01*
X206725Y30654D01*
X206760Y30701D01*
X206772Y30724D01*
X206878Y30877D01*
X206984Y31019D01*
X207102Y31137D01*
X207220Y31231D01*
X207314Y31314D01*
X207397Y31372D01*
X207444Y31408D01*
X207467Y31420D01*
X207632Y31514D01*
X207797Y31573D01*
X207962Y31620D01*
X208116Y31655D01*
X208245Y31679D01*
X208340Y31691D01*
X214291D01*
X214480Y31679D01*
D02*
G37*
G36*
X251180Y21956D02*
X249235D01*
Y28768D01*
X245700Y24572D01*
X242188Y28780D01*
Y21956D01*
X240219D01*
Y31691D01*
X242306D01*
X245700Y27625D01*
X249118Y31691D01*
X251180D01*
Y21956D01*
D02*
G37*
G36*
X227444Y23900D02*
X227432Y23700D01*
X227409Y23523D01*
X227361Y23346D01*
X227314Y23205D01*
X227267Y23075D01*
X227220Y22993D01*
X227196Y22934D01*
X227185Y22910D01*
X227079Y22757D01*
X226961Y22616D01*
X226843Y22498D01*
X226725Y22404D01*
X226631Y22321D01*
X226548Y22262D01*
X226501Y22227D01*
X226478Y22215D01*
X226301Y22132D01*
X226136Y22062D01*
X225971Y22015D01*
X225818Y21991D01*
X225688Y21967D01*
X225582Y21956D01*
X219642D01*
X219442Y21967D01*
X219265Y21991D01*
X219100Y22038D01*
X218958Y22085D01*
X218840Y22132D01*
X218746Y22180D01*
X218699Y22203D01*
X218675Y22215D01*
X218522Y22321D01*
X218381Y22439D01*
X218263Y22545D01*
X218157Y22663D01*
X218074Y22757D01*
X218015Y22840D01*
X217980Y22887D01*
X217968Y22910D01*
X217874Y23087D01*
X217815Y23252D01*
X217768Y23417D01*
X217733Y23570D01*
X217709Y23700D01*
X217697Y23806D01*
Y23877D01*
Y23900D01*
Y31691D01*
X219654D01*
X219677Y23995D01*
X219665Y23959D01*
X219677Y23948D01*
X219689Y23924D01*
X219713Y23912D01*
X225452D01*
X225476Y23924D01*
X225487Y23971D01*
Y23983D01*
Y23995D01*
Y31691D01*
X227444D01*
Y23900D01*
D02*
G37*
G36*
X236896Y31679D02*
X237073Y31644D01*
X237250Y31608D01*
X237391Y31561D01*
X237521Y31502D01*
X237603Y31467D01*
X237662Y31431D01*
X237686Y31420D01*
X237839Y31314D01*
X237980Y31207D01*
X238098Y31090D01*
X238204Y30972D01*
X238287Y30877D01*
X238346Y30795D01*
X238381Y30748D01*
X238393Y30724D01*
X238475Y30559D01*
X238546Y30382D01*
X238593Y30229D01*
X238617Y30076D01*
X238640Y29946D01*
X238652Y29840D01*
Y29770D01*
Y29758D01*
Y29746D01*
Y23900D01*
X238640Y23700D01*
X238617Y23523D01*
X238570Y23346D01*
X238522Y23205D01*
X238475Y23075D01*
X238428Y22993D01*
X238405Y22934D01*
X238393Y22910D01*
X238287Y22757D01*
X238169Y22616D01*
X238051Y22498D01*
X237933Y22404D01*
X237839Y22321D01*
X237756Y22262D01*
X237709Y22227D01*
X237686Y22215D01*
X237509Y22132D01*
X237344Y22062D01*
X237179Y22015D01*
X237026Y21991D01*
X236896Y21967D01*
X236790Y21956D01*
X230850D01*
X230650Y21967D01*
X230473Y21991D01*
X230308Y22038D01*
X230166Y22085D01*
X230049Y22132D01*
X229954Y22180D01*
X229907Y22203D01*
X229883Y22215D01*
X229730Y22321D01*
X229589Y22439D01*
X229471Y22545D01*
X229365Y22663D01*
X229282Y22757D01*
X229223Y22840D01*
X229188Y22887D01*
X229176Y22910D01*
X229082Y23087D01*
X229023Y23252D01*
X228976Y23417D01*
X228941Y23570D01*
X228917Y23700D01*
X228905Y23806D01*
Y23877D01*
Y23900D01*
Y29746D01*
X228917Y29946D01*
X228953Y30123D01*
X228988Y30300D01*
X229035Y30441D01*
X229094Y30559D01*
X229129Y30654D01*
X229165Y30701D01*
X229176Y30724D01*
X229282Y30877D01*
X229400Y31019D01*
X229518Y31137D01*
X229636Y31231D01*
X229730Y31314D01*
X229813Y31372D01*
X229860Y31408D01*
X229883Y31420D01*
X230049Y31514D01*
X230214Y31573D01*
X230378Y31620D01*
X230520Y31655D01*
X230661Y31679D01*
X230756Y31691D01*
X236696D01*
X236896Y31679D01*
D02*
G37*
G36*
X204981Y21956D02*
X196000D01*
X196012Y23900D01*
X203001Y23912D01*
X203012Y25845D01*
X197367Y25833D01*
X197379Y27790D01*
X203001Y27813D01*
X203012Y29746D01*
X196000Y29734D01*
X196012Y31691D01*
X204981D01*
Y21956D01*
D02*
G37*
G36*
X70379Y110990D02*
X70577Y110980D01*
X70764Y110948D01*
X70941Y110907D01*
X71108Y110865D01*
X71264Y110813D01*
X71410Y110761D01*
X71535Y110709D01*
X71649Y110657D01*
X71754Y110605D01*
X71837Y110553D01*
X71910Y110511D01*
X71972Y110470D01*
X72014Y110438D01*
X72035Y110428D01*
X72045Y110417D01*
X72181Y110303D01*
X72295Y110178D01*
X72410Y110042D01*
X72503Y109897D01*
X72670Y109616D01*
X72805Y109334D01*
X72857Y109199D01*
X72899Y109074D01*
X72930Y108960D01*
X72962Y108866D01*
X72983Y108793D01*
X73003Y108730D01*
X73014Y108689D01*
Y108678D01*
X71389Y108397D01*
X71358Y108585D01*
X71306Y108762D01*
X71243Y108907D01*
X71181Y109032D01*
X71118Y109126D01*
X71066Y109199D01*
X71025Y109241D01*
X71014Y109251D01*
X70889Y109355D01*
X70754Y109438D01*
X70619Y109491D01*
X70493Y109532D01*
X70379Y109553D01*
X70296Y109574D01*
X70212D01*
X70046Y109564D01*
X69900Y109532D01*
X69764Y109491D01*
X69660Y109449D01*
X69577Y109397D01*
X69515Y109355D01*
X69473Y109324D01*
X69462Y109313D01*
X69369Y109209D01*
X69296Y109095D01*
X69254Y108980D01*
X69213Y108866D01*
X69192Y108762D01*
X69181Y108678D01*
Y108626D01*
Y108616D01*
Y108605D01*
X69202Y108407D01*
X69244Y108230D01*
X69317Y108085D01*
X69390Y107970D01*
X69462Y107876D01*
X69535Y107803D01*
X69577Y107762D01*
X69598Y107751D01*
X69681Y107699D01*
X69764Y107658D01*
X69973Y107585D01*
X70181Y107533D01*
X70400Y107501D01*
X70587Y107481D01*
X70670Y107470D01*
X70743Y107460D01*
X70889D01*
X71066Y106148D01*
X70264D01*
X70119Y106137D01*
X69983Y106127D01*
X69869Y106096D01*
X69764Y106064D01*
X69681Y106033D01*
X69619Y106012D01*
X69577Y105991D01*
X69567Y105981D01*
X69462Y105919D01*
X69369Y105835D01*
X69285Y105762D01*
X69223Y105689D01*
X69171Y105617D01*
X69129Y105564D01*
X69108Y105523D01*
X69098Y105512D01*
X69046Y105398D01*
X69004Y105273D01*
X68973Y105158D01*
X68952Y105054D01*
X68942Y104960D01*
X68931Y104888D01*
Y104846D01*
Y104825D01*
X68942Y104679D01*
X68952Y104544D01*
X68983Y104419D01*
X69004Y104315D01*
X69036Y104221D01*
X69067Y104159D01*
X69077Y104107D01*
X69088Y104096D01*
X69150Y103982D01*
X69223Y103877D01*
X69296Y103784D01*
X69369Y103711D01*
X69431Y103648D01*
X69483Y103607D01*
X69515Y103575D01*
X69525Y103565D01*
X69629Y103503D01*
X69744Y103461D01*
X69848Y103419D01*
X69952Y103398D01*
X70035Y103388D01*
X70108Y103378D01*
X70171D01*
X70358Y103388D01*
X70535Y103430D01*
X70681Y103482D01*
X70806Y103544D01*
X70900Y103596D01*
X70973Y103648D01*
X71025Y103690D01*
X71035Y103700D01*
X71150Y103836D01*
X71233Y103992D01*
X71306Y104159D01*
X71358Y104315D01*
X71399Y104450D01*
X71420Y104565D01*
X71431Y104606D01*
X71441Y104638D01*
Y104658D01*
Y104669D01*
X73139Y104471D01*
X73087Y104179D01*
X73014Y103909D01*
X72930Y103680D01*
X72847Y103471D01*
X72805Y103388D01*
X72764Y103315D01*
X72722Y103242D01*
X72691Y103190D01*
X72670Y103148D01*
X72649Y103117D01*
X72628Y103096D01*
Y103086D01*
X72462Y102888D01*
X72295Y102722D01*
X72118Y102576D01*
X71951Y102451D01*
X71806Y102357D01*
X71691Y102295D01*
X71649Y102274D01*
X71618Y102253D01*
X71597Y102242D01*
X71587D01*
X71347Y102149D01*
X71097Y102076D01*
X70858Y102034D01*
X70639Y101993D01*
X70441Y101972D01*
X70358D01*
X70296Y101961D01*
X70160D01*
X69827Y101972D01*
X69515Y102013D01*
X69244Y102065D01*
X69119Y102097D01*
X69015Y102128D01*
X68911Y102149D01*
X68817Y102180D01*
X68744Y102211D01*
X68682Y102232D01*
X68629Y102253D01*
X68588Y102274D01*
X68567Y102284D01*
X68556D01*
X68317Y102420D01*
X68109Y102576D01*
X67932Y102732D01*
X67786Y102888D01*
X67661Y103024D01*
X67578Y103138D01*
X67557Y103180D01*
X67536Y103211D01*
X67515Y103232D01*
Y103242D01*
X67390Y103492D01*
X67307Y103742D01*
X67244Y104002D01*
X67192Y104232D01*
X67182Y104346D01*
X67171Y104440D01*
X67161Y104534D01*
Y104606D01*
X67151Y104669D01*
Y104711D01*
Y104742D01*
Y104752D01*
Y104898D01*
X67171Y105033D01*
X67224Y105294D01*
X67296Y105533D01*
X67380Y105731D01*
X67463Y105887D01*
X67505Y105950D01*
X67536Y106002D01*
X67567Y106054D01*
X67588Y106085D01*
X67598Y106096D01*
X67609Y106106D01*
X67796Y106304D01*
X67994Y106460D01*
X68202Y106585D01*
X68411Y106679D01*
X68588Y106752D01*
X68671Y106783D01*
X68734Y106804D01*
X68786Y106814D01*
X68838Y106825D01*
X68858Y106835D01*
X68869D01*
X68619Y106950D01*
X68400Y107064D01*
X68213Y107199D01*
X68067Y107314D01*
X67952Y107429D01*
X67869Y107512D01*
X67828Y107574D01*
X67807Y107585D01*
Y107595D01*
X67692Y107783D01*
X67598Y107981D01*
X67536Y108168D01*
X67494Y108345D01*
X67473Y108491D01*
X67453Y108605D01*
Y108647D01*
Y108678D01*
Y108699D01*
Y108709D01*
X67463Y108949D01*
X67505Y109178D01*
X67557Y109376D01*
X67619Y109553D01*
X67682Y109689D01*
X67734Y109793D01*
X67755Y109834D01*
X67776Y109866D01*
X67786Y109876D01*
Y109886D01*
X67921Y110074D01*
X68078Y110230D01*
X68234Y110376D01*
X68380Y110490D01*
X68525Y110584D01*
X68629Y110646D01*
X68671Y110667D01*
X68702Y110688D01*
X68723Y110699D01*
X68734D01*
X68973Y110803D01*
X69213Y110876D01*
X69462Y110928D01*
X69681Y110959D01*
X69879Y110990D01*
X69962D01*
X70035Y111001D01*
X70171D01*
X70379Y110990D01*
D02*
G37*
G36*
X59903D02*
X60100Y110980D01*
X60288Y110948D01*
X60465Y110907D01*
X60631Y110865D01*
X60788Y110813D01*
X60933Y110761D01*
X61058Y110709D01*
X61173Y110657D01*
X61277Y110605D01*
X61360Y110553D01*
X61433Y110511D01*
X61496Y110470D01*
X61537Y110438D01*
X61558Y110428D01*
X61569Y110417D01*
X61704Y110303D01*
X61819Y110178D01*
X61933Y110042D01*
X62027Y109897D01*
X62194Y109616D01*
X62329Y109334D01*
X62381Y109199D01*
X62423Y109074D01*
X62454Y108960D01*
X62485Y108866D01*
X62506Y108793D01*
X62527Y108730D01*
X62537Y108689D01*
Y108678D01*
X60913Y108397D01*
X60881Y108585D01*
X60829Y108762D01*
X60767Y108907D01*
X60704Y109032D01*
X60642Y109126D01*
X60590Y109199D01*
X60548Y109241D01*
X60538Y109251D01*
X60413Y109355D01*
X60277Y109438D01*
X60142Y109491D01*
X60017Y109532D01*
X59903Y109553D01*
X59819Y109574D01*
X59736D01*
X59569Y109564D01*
X59423Y109532D01*
X59288Y109491D01*
X59184Y109449D01*
X59101Y109397D01*
X59038Y109355D01*
X58997Y109324D01*
X58986Y109313D01*
X58892Y109209D01*
X58819Y109095D01*
X58778Y108980D01*
X58736Y108866D01*
X58715Y108762D01*
X58705Y108678D01*
Y108626D01*
Y108616D01*
Y108605D01*
X58726Y108407D01*
X58767Y108230D01*
X58840Y108085D01*
X58913Y107970D01*
X58986Y107876D01*
X59059Y107803D01*
X59101Y107762D01*
X59121Y107751D01*
X59205Y107699D01*
X59288Y107658D01*
X59496Y107585D01*
X59705Y107533D01*
X59923Y107501D01*
X60111Y107481D01*
X60194Y107470D01*
X60267Y107460D01*
X60413D01*
X60590Y106148D01*
X59788D01*
X59642Y106137D01*
X59507Y106127D01*
X59392Y106096D01*
X59288Y106064D01*
X59205Y106033D01*
X59142Y106012D01*
X59101Y105991D01*
X59090Y105981D01*
X58986Y105919D01*
X58892Y105835D01*
X58809Y105762D01*
X58747Y105689D01*
X58694Y105617D01*
X58653Y105564D01*
X58632Y105523D01*
X58622Y105512D01*
X58569Y105398D01*
X58528Y105273D01*
X58497Y105158D01*
X58476Y105054D01*
X58465Y104960D01*
X58455Y104888D01*
Y104846D01*
Y104825D01*
X58465Y104679D01*
X58476Y104544D01*
X58507Y104419D01*
X58528Y104315D01*
X58559Y104221D01*
X58590Y104159D01*
X58601Y104107D01*
X58611Y104096D01*
X58674Y103982D01*
X58747Y103877D01*
X58819Y103784D01*
X58892Y103711D01*
X58955Y103648D01*
X59007Y103607D01*
X59038Y103575D01*
X59049Y103565D01*
X59153Y103503D01*
X59267Y103461D01*
X59371Y103419D01*
X59475Y103398D01*
X59559Y103388D01*
X59632Y103378D01*
X59694D01*
X59882Y103388D01*
X60059Y103430D01*
X60205Y103482D01*
X60329Y103544D01*
X60423Y103596D01*
X60496Y103648D01*
X60548Y103690D01*
X60559Y103700D01*
X60673Y103836D01*
X60756Y103992D01*
X60829Y104159D01*
X60881Y104315D01*
X60923Y104450D01*
X60944Y104565D01*
X60954Y104606D01*
X60965Y104638D01*
Y104658D01*
Y104669D01*
X62662Y104471D01*
X62610Y104179D01*
X62537Y103909D01*
X62454Y103680D01*
X62371Y103471D01*
X62329Y103388D01*
X62287Y103315D01*
X62246Y103242D01*
X62214Y103190D01*
X62194Y103148D01*
X62173Y103117D01*
X62152Y103096D01*
Y103086D01*
X61985Y102888D01*
X61819Y102722D01*
X61642Y102576D01*
X61475Y102451D01*
X61329Y102357D01*
X61215Y102295D01*
X61173Y102274D01*
X61142Y102253D01*
X61121Y102242D01*
X61111D01*
X60871Y102149D01*
X60621Y102076D01*
X60381Y102034D01*
X60163Y101993D01*
X59965Y101972D01*
X59882D01*
X59819Y101961D01*
X59684D01*
X59351Y101972D01*
X59038Y102013D01*
X58767Y102065D01*
X58642Y102097D01*
X58538Y102128D01*
X58434Y102149D01*
X58340Y102180D01*
X58267Y102211D01*
X58205Y102232D01*
X58153Y102253D01*
X58111Y102274D01*
X58090Y102284D01*
X58080D01*
X57840Y102420D01*
X57632Y102576D01*
X57455Y102732D01*
X57309Y102888D01*
X57184Y103024D01*
X57101Y103138D01*
X57080Y103180D01*
X57059Y103211D01*
X57039Y103232D01*
Y103242D01*
X56914Y103492D01*
X56830Y103742D01*
X56768Y104002D01*
X56716Y104232D01*
X56705Y104346D01*
X56695Y104440D01*
X56684Y104534D01*
Y104606D01*
X56674Y104669D01*
Y104711D01*
Y104742D01*
Y104752D01*
Y104898D01*
X56695Y105033D01*
X56747Y105294D01*
X56820Y105533D01*
X56903Y105731D01*
X56987Y105887D01*
X57028Y105950D01*
X57059Y106002D01*
X57091Y106054D01*
X57112Y106085D01*
X57122Y106096D01*
X57132Y106106D01*
X57320Y106304D01*
X57518Y106460D01*
X57726Y106585D01*
X57934Y106679D01*
X58111Y106752D01*
X58195Y106783D01*
X58257Y106804D01*
X58309Y106814D01*
X58361Y106825D01*
X58382Y106835D01*
X58392D01*
X58142Y106950D01*
X57924Y107064D01*
X57736Y107199D01*
X57591Y107314D01*
X57476Y107429D01*
X57393Y107512D01*
X57351Y107574D01*
X57330Y107585D01*
Y107595D01*
X57216Y107783D01*
X57122Y107981D01*
X57059Y108168D01*
X57018Y108345D01*
X56997Y108491D01*
X56976Y108605D01*
Y108647D01*
Y108678D01*
Y108699D01*
Y108709D01*
X56987Y108949D01*
X57028Y109178D01*
X57080Y109376D01*
X57143Y109553D01*
X57205Y109689D01*
X57257Y109793D01*
X57278Y109834D01*
X57299Y109866D01*
X57309Y109876D01*
Y109886D01*
X57445Y110074D01*
X57601Y110230D01*
X57757Y110376D01*
X57903Y110490D01*
X58049Y110584D01*
X58153Y110646D01*
X58195Y110667D01*
X58226Y110688D01*
X58247Y110699D01*
X58257D01*
X58497Y110803D01*
X58736Y110876D01*
X58986Y110928D01*
X59205Y110959D01*
X59403Y110990D01*
X59486D01*
X59559Y111001D01*
X59694D01*
X59903Y110990D01*
D02*
G37*
G36*
X22079Y106752D02*
X25120Y102118D01*
X22974D01*
X21496Y104398D01*
X21308Y104711D01*
X21225Y104867D01*
X21152Y105002D01*
X21089Y105127D01*
X21048Y105221D01*
X21017Y105283D01*
X21006Y105294D01*
Y105304D01*
X20985D01*
X20892Y105117D01*
X20808Y104940D01*
X20725Y104794D01*
X20652Y104658D01*
X20590Y104544D01*
X20538Y104471D01*
X20506Y104419D01*
X20496Y104398D01*
X19017Y102118D01*
X16861D01*
X19902Y106679D01*
X17132Y111001D01*
X19225D01*
X20506Y108887D01*
X20683Y108574D01*
X20756Y108428D01*
X20819Y108293D01*
X20871Y108178D01*
X20912Y108095D01*
X20933Y108043D01*
X20944Y108022D01*
X20975D01*
X21058Y108210D01*
X21142Y108376D01*
X21225Y108532D01*
X21298Y108668D01*
X21360Y108772D01*
X21412Y108855D01*
X21444Y108907D01*
X21454Y108928D01*
X22745Y111001D01*
X24839D01*
X22079Y106752D01*
D02*
G37*
G36*
X43854Y102118D02*
X42199D01*
Y109116D01*
X40241Y102118D01*
X38523D01*
X36586Y109116D01*
Y102118D01*
X34930D01*
Y111001D01*
X37617D01*
X39376Y104711D01*
X41178Y111001D01*
X43854D01*
Y102118D01*
D02*
G37*
G36*
X52936D02*
X51061D01*
X47916Y111001D01*
X49822D01*
X51509Y105825D01*
X51592Y105575D01*
X51665Y105315D01*
X51738Y105065D01*
X51800Y104836D01*
X51821Y104731D01*
X51852Y104627D01*
X51873Y104544D01*
X51894Y104471D01*
X51905Y104409D01*
X51915Y104367D01*
X51925Y104336D01*
Y104325D01*
X51946D01*
X52019Y104617D01*
X52092Y104898D01*
X52154Y105158D01*
X52227Y105377D01*
X52259Y105481D01*
X52279Y105564D01*
X52311Y105648D01*
X52332Y105710D01*
X52352Y105762D01*
X52363Y105804D01*
X52373Y105825D01*
Y105835D01*
X54112Y111001D01*
X56060D01*
X52936Y102118D01*
D02*
G37*
G36*
X65714D02*
X63974D01*
Y103857D01*
X65714D01*
Y102118D01*
D02*
G37*
G36*
X33972D02*
X32066D01*
X31337Y104117D01*
X27900D01*
X27130Y102118D01*
X25172D01*
X28744Y111001D01*
X30514D01*
X33972Y102118D01*
D02*
G37*
G36*
X60782Y100174D02*
X61012Y100164D01*
X61230Y100133D01*
X61438Y100091D01*
X61636Y100049D01*
X61824Y100008D01*
X62001Y99956D01*
X62157Y99903D01*
X62303Y99841D01*
X62428Y99789D01*
X62542Y99747D01*
X62636Y99706D01*
X62709Y99664D01*
X62772Y99633D01*
X62803Y99622D01*
X62813Y99612D01*
X62990Y99497D01*
X63157Y99383D01*
X63313Y99258D01*
X63459Y99122D01*
X63594Y98997D01*
X63719Y98862D01*
X63834Y98727D01*
X63938Y98602D01*
X64032Y98487D01*
X64115Y98373D01*
X64177Y98279D01*
X64229Y98185D01*
X64282Y98123D01*
X64313Y98060D01*
X64323Y98029D01*
X64334Y98019D01*
X64427Y97821D01*
X64511Y97623D01*
X64584Y97415D01*
X64636Y97206D01*
X64740Y96800D01*
X64771Y96613D01*
X64802Y96425D01*
X64823Y96259D01*
X64833Y96102D01*
X64844Y95967D01*
X64854Y95842D01*
X64865Y95748D01*
Y95675D01*
Y95634D01*
Y95613D01*
X64854Y95363D01*
X64844Y95113D01*
X64823Y94884D01*
X64781Y94655D01*
X64750Y94446D01*
X64708Y94249D01*
X64657Y94061D01*
X64615Y93895D01*
X64563Y93738D01*
X64521Y93603D01*
X64479Y93478D01*
X64438Y93384D01*
X64406Y93301D01*
X64386Y93249D01*
X64375Y93207D01*
X64365Y93197D01*
X64261Y93009D01*
X64157Y92832D01*
X64042Y92666D01*
X63917Y92499D01*
X63792Y92364D01*
X63678Y92228D01*
X63553Y92103D01*
X63438Y91999D01*
X63323Y91895D01*
X63219Y91812D01*
X63126Y91739D01*
X63042Y91676D01*
X62980Y91635D01*
X62928Y91603D01*
X62896Y91583D01*
X62886Y91572D01*
X62699Y91468D01*
X62511Y91385D01*
X62313Y91312D01*
X62115Y91239D01*
X61720Y91135D01*
X61532Y91104D01*
X61355Y91072D01*
X61189Y91052D01*
X61032Y91031D01*
X60897Y91020D01*
X60782Y91010D01*
X60689Y90999D01*
X60553D01*
X60283Y91010D01*
X60012Y91031D01*
X59762Y91052D01*
X59543Y91093D01*
X59439Y91104D01*
X59356Y91124D01*
X59272Y91135D01*
X59210Y91145D01*
X59158Y91156D01*
X59116Y91166D01*
X59095Y91177D01*
X59085D01*
X58814Y91249D01*
X58564Y91333D01*
X58335Y91406D01*
X58137Y91489D01*
X57971Y91562D01*
X57908Y91593D01*
X57846Y91614D01*
X57804Y91635D01*
X57773Y91656D01*
X57752Y91666D01*
X57742D01*
X57523Y91791D01*
X57325Y91916D01*
X57148Y92030D01*
X57002Y92145D01*
X56877Y92239D01*
X56794Y92312D01*
X56742Y92353D01*
X56721Y92374D01*
Y95915D01*
X60574D01*
Y94405D01*
X58502D01*
Y93197D01*
X58658Y93082D01*
X58814Y92978D01*
X58970Y92895D01*
X59127Y92822D01*
X59252Y92770D01*
X59356Y92728D01*
X59397Y92718D01*
X59429Y92707D01*
X59439Y92697D01*
X59450D01*
X59658Y92645D01*
X59856Y92603D01*
X60043Y92572D01*
X60210Y92551D01*
X60356Y92541D01*
X60470Y92530D01*
X60564D01*
X60845Y92551D01*
X61105Y92593D01*
X61324Y92645D01*
X61522Y92718D01*
X61678Y92791D01*
X61740Y92822D01*
X61803Y92843D01*
X61845Y92874D01*
X61876Y92884D01*
X61886Y92905D01*
X61897D01*
X62095Y93062D01*
X62261Y93238D01*
X62407Y93426D01*
X62522Y93593D01*
X62615Y93759D01*
X62657Y93822D01*
X62688Y93884D01*
X62709Y93936D01*
X62730Y93968D01*
X62740Y93988D01*
Y93999D01*
X62834Y94280D01*
X62907Y94561D01*
X62949Y94842D01*
X62990Y95113D01*
X63001Y95228D01*
X63011Y95342D01*
Y95436D01*
X63021Y95519D01*
Y95592D01*
Y95644D01*
Y95675D01*
Y95686D01*
X63011Y95957D01*
X62990Y96207D01*
X62959Y96436D01*
X62917Y96654D01*
X62865Y96852D01*
X62813Y97029D01*
X62751Y97196D01*
X62688Y97342D01*
X62636Y97467D01*
X62574Y97581D01*
X62522Y97675D01*
X62470Y97758D01*
X62428Y97821D01*
X62397Y97862D01*
X62376Y97883D01*
X62365Y97894D01*
X62230Y98029D01*
X62095Y98144D01*
X61949Y98237D01*
X61803Y98331D01*
X61647Y98404D01*
X61491Y98456D01*
X61345Y98508D01*
X61199Y98550D01*
X61064Y98581D01*
X60939Y98602D01*
X60834Y98623D01*
X60730Y98633D01*
X60658Y98643D01*
X60543D01*
X60272Y98633D01*
X60022Y98591D01*
X59814Y98529D01*
X59637Y98466D01*
X59491Y98393D01*
X59377Y98341D01*
X59345Y98310D01*
X59314Y98300D01*
X59304Y98279D01*
X59293D01*
X59127Y98133D01*
X58981Y97966D01*
X58866Y97789D01*
X58773Y97623D01*
X58700Y97477D01*
X58658Y97352D01*
X58637Y97300D01*
X58627Y97269D01*
X58616Y97248D01*
Y97238D01*
X56825Y97571D01*
X56898Y97810D01*
X56981Y98029D01*
X57075Y98237D01*
X57179Y98425D01*
X57283Y98602D01*
X57387Y98758D01*
X57502Y98904D01*
X57606Y99039D01*
X57700Y99154D01*
X57794Y99258D01*
X57877Y99341D01*
X57960Y99404D01*
X58023Y99456D01*
X58064Y99497D01*
X58096Y99518D01*
X58106Y99529D01*
X58283Y99643D01*
X58471Y99747D01*
X58668Y99831D01*
X58877Y99903D01*
X59075Y99976D01*
X59283Y100028D01*
X59481Y100070D01*
X59668Y100101D01*
X59845Y100133D01*
X60012Y100153D01*
X60158Y100164D01*
X60293Y100174D01*
X60397Y100185D01*
X60543D01*
X60782Y100174D01*
D02*
G37*
G36*
X77018Y91156D02*
X73560D01*
X73196Y91166D01*
X72852Y91208D01*
X72529Y91260D01*
X72238Y91343D01*
X71967Y91426D01*
X71717Y91520D01*
X71498Y91635D01*
X71301Y91739D01*
X71124Y91843D01*
X70978Y91958D01*
X70842Y92051D01*
X70749Y92145D01*
X70665Y92218D01*
X70603Y92270D01*
X70572Y92312D01*
X70561Y92322D01*
X70395Y92551D01*
X70238Y92791D01*
X70113Y93051D01*
X69999Y93311D01*
X69905Y93582D01*
X69832Y93853D01*
X69770Y94113D01*
X69718Y94363D01*
X69676Y94603D01*
X69645Y94821D01*
X69624Y95019D01*
X69603Y95196D01*
Y95332D01*
X69593Y95436D01*
Y95478D01*
Y95509D01*
Y95519D01*
Y95530D01*
X69603Y95936D01*
X69634Y96321D01*
X69686Y96685D01*
X69759Y97019D01*
X69853Y97331D01*
X69957Y97623D01*
X70072Y97894D01*
X70207Y98133D01*
X70353Y98362D01*
X70509Y98570D01*
X70676Y98768D01*
X70842Y98935D01*
X71019Y99091D01*
X71196Y99237D01*
X71384Y99362D01*
X71561Y99476D01*
X71748Y99570D01*
X71936Y99664D01*
X72113Y99737D01*
X72290Y99799D01*
X72623Y99903D01*
X72779Y99935D01*
X72925Y99966D01*
X73050Y99987D01*
X73175Y100008D01*
X73279Y100018D01*
X73373Y100028D01*
X73446Y100039D01*
X77018D01*
Y91156D01*
D02*
G37*
G36*
X68114D02*
X66333D01*
Y100039D01*
X68114D01*
Y91156D01*
D02*
G37*
G36*
X55034D02*
X53253D01*
Y100039D01*
X55034D01*
Y91156D01*
D02*
G37*
G36*
X52014Y98529D02*
X49442D01*
Y91156D01*
X47661D01*
Y98529D01*
X45089D01*
Y100039D01*
X52014D01*
Y98529D01*
D02*
G37*
G36*
X44766Y91156D02*
X42860D01*
X42131Y93155D01*
X38694D01*
X37924Y91156D01*
X35966D01*
X39538Y100039D01*
X41308D01*
X44766Y91156D01*
D02*
G37*
G36*
X35008D02*
X29259D01*
Y92655D01*
X33227D01*
Y100039D01*
X35008D01*
Y91156D01*
D02*
G37*
G36*
X24896D02*
X23115D01*
Y100039D01*
X24896D01*
Y91156D01*
D02*
G37*
G36*
X17564Y100174D02*
X17794Y100164D01*
X18023Y100133D01*
X18231Y100091D01*
X18429Y100049D01*
X18627Y100008D01*
X18793Y99956D01*
X18960Y99903D01*
X19106Y99841D01*
X19231Y99789D01*
X19345Y99747D01*
X19439Y99706D01*
X19512Y99664D01*
X19574Y99633D01*
X19605Y99622D01*
X19616Y99612D01*
X19793Y99497D01*
X19960Y99383D01*
X20116Y99247D01*
X20262Y99112D01*
X20397Y98977D01*
X20522Y98852D01*
X20636Y98716D01*
X20741Y98581D01*
X20824Y98466D01*
X20907Y98352D01*
X20970Y98248D01*
X21032Y98164D01*
X21074Y98091D01*
X21105Y98029D01*
X21116Y97998D01*
X21126Y97987D01*
X21220Y97789D01*
X21293Y97581D01*
X21365Y97373D01*
X21428Y97165D01*
X21522Y96758D01*
X21553Y96561D01*
X21584Y96373D01*
X21605Y96196D01*
X21615Y96040D01*
X21626Y95894D01*
X21636Y95779D01*
X21647Y95675D01*
Y95603D01*
Y95561D01*
Y95540D01*
X21636Y95290D01*
X21626Y95050D01*
X21595Y94821D01*
X21563Y94603D01*
X21522Y94395D01*
X21480Y94207D01*
X21438Y94019D01*
X21386Y93853D01*
X21334Y93697D01*
X21293Y93561D01*
X21251Y93447D01*
X21209Y93353D01*
X21178Y93270D01*
X21147Y93218D01*
X21136Y93176D01*
X21126Y93166D01*
X21022Y92978D01*
X20907Y92801D01*
X20793Y92634D01*
X20668Y92478D01*
X20543Y92332D01*
X20407Y92207D01*
X20282Y92083D01*
X20168Y91978D01*
X20053Y91885D01*
X19949Y91801D01*
X19855Y91728D01*
X19772Y91666D01*
X19699Y91624D01*
X19647Y91593D01*
X19616Y91572D01*
X19605Y91562D01*
X19418Y91468D01*
X19220Y91374D01*
X19022Y91301D01*
X18824Y91239D01*
X18439Y91135D01*
X18252Y91104D01*
X18075Y91072D01*
X17918Y91052D01*
X17762Y91031D01*
X17627Y91020D01*
X17512Y91010D01*
X17419Y90999D01*
X17294D01*
X17054Y91010D01*
X16815Y91020D01*
X16596Y91052D01*
X16377Y91093D01*
X16179Y91135D01*
X15992Y91177D01*
X15815Y91229D01*
X15648Y91291D01*
X15502Y91343D01*
X15377Y91395D01*
X15263Y91437D01*
X15169Y91479D01*
X15096Y91520D01*
X15044Y91551D01*
X15013Y91562D01*
X15002Y91572D01*
X14826Y91687D01*
X14659Y91812D01*
X14503Y91937D01*
X14357Y92072D01*
X14222Y92207D01*
X14096Y92343D01*
X13982Y92468D01*
X13888Y92603D01*
X13794Y92718D01*
X13722Y92832D01*
X13649Y92926D01*
X13597Y93020D01*
X13555Y93093D01*
X13524Y93145D01*
X13513Y93176D01*
X13503Y93186D01*
X13409Y93384D01*
X13326Y93593D01*
X13263Y93790D01*
X13201Y93999D01*
X13107Y94395D01*
X13076Y94592D01*
X13045Y94769D01*
X13024Y94936D01*
X13013Y95092D01*
X12993Y95228D01*
Y95342D01*
X12982Y95436D01*
Y95509D01*
Y95561D01*
Y95571D01*
X12993Y95832D01*
X13003Y96071D01*
X13034Y96311D01*
X13066Y96540D01*
X13107Y96748D01*
X13149Y96946D01*
X13201Y97133D01*
X13242Y97300D01*
X13295Y97456D01*
X13347Y97591D01*
X13388Y97717D01*
X13430Y97810D01*
X13461Y97894D01*
X13492Y97946D01*
X13503Y97987D01*
X13513Y97998D01*
X13617Y98185D01*
X13732Y98362D01*
X13847Y98529D01*
X13972Y98685D01*
X14096Y98831D01*
X14222Y98966D01*
X14346Y99091D01*
X14471Y99195D01*
X14576Y99289D01*
X14690Y99372D01*
X14784Y99445D01*
X14857Y99508D01*
X14930Y99549D01*
X14982Y99581D01*
X15013Y99601D01*
X15023Y99612D01*
X15211Y99716D01*
X15398Y99799D01*
X15596Y99883D01*
X15794Y99945D01*
X16179Y100049D01*
X16367Y100080D01*
X16544Y100112D01*
X16700Y100133D01*
X16856Y100153D01*
X16992Y100164D01*
X17106Y100174D01*
X17200Y100185D01*
X17325D01*
X17564Y100174D01*
D02*
G37*
%LPC*%
G36*
X44949Y147133D02*
X44457D01*
Y147051D01*
X44047D01*
Y146969D01*
X43801D01*
Y146887D01*
X43637D01*
Y146805D01*
X43473D01*
Y146723D01*
X43309D01*
Y146641D01*
X43227D01*
Y146559D01*
X43145D01*
Y146477D01*
X42980D01*
Y146395D01*
X42899D01*
Y146230D01*
X42816D01*
Y146149D01*
X42734D01*
Y146066D01*
X42652D01*
Y145902D01*
X42570D01*
Y145820D01*
X42488D01*
Y145656D01*
X42406D01*
Y145410D01*
X42324D01*
Y145082D01*
X42242D01*
Y131957D01*
X42324D01*
Y131629D01*
X42406D01*
Y131383D01*
X42488D01*
Y131219D01*
X42570D01*
Y131055D01*
X42652D01*
Y130973D01*
X42734D01*
Y130809D01*
X42816D01*
Y130727D01*
X42899D01*
Y130645D01*
X42980D01*
Y130562D01*
X43063D01*
Y130480D01*
X43145D01*
Y130399D01*
X43227D01*
Y130316D01*
X43391D01*
Y130234D01*
X43555D01*
Y130152D01*
X43719D01*
Y130070D01*
X43883D01*
Y129988D01*
X44211D01*
Y129906D01*
X45195D01*
Y129988D01*
X45524D01*
Y130070D01*
X45687D01*
Y130152D01*
X45852D01*
Y130234D01*
X46016D01*
Y130316D01*
X46180D01*
Y130399D01*
X46262D01*
Y130480D01*
X46344D01*
Y130562D01*
X46426D01*
Y130645D01*
X46508D01*
Y130727D01*
X46590D01*
Y130809D01*
X46672D01*
Y130973D01*
X46754D01*
Y131055D01*
X46836D01*
Y131219D01*
X46918D01*
Y131383D01*
X47000D01*
Y131629D01*
X47082D01*
Y131957D01*
X47164D01*
Y145082D01*
X47082D01*
Y145410D01*
X47000D01*
Y145656D01*
X46918D01*
Y145820D01*
X46836D01*
Y145902D01*
X46754D01*
Y146066D01*
X46672D01*
Y146149D01*
X46590D01*
Y146230D01*
X46508D01*
Y146395D01*
X46426D01*
Y146477D01*
X46262D01*
Y146559D01*
X46180D01*
Y146641D01*
X46098D01*
Y146723D01*
X45934D01*
Y146805D01*
X45770D01*
Y146887D01*
X45606D01*
Y146969D01*
X45359D01*
Y147051D01*
X44949D01*
Y147133D01*
D02*
G37*
G36*
Y127445D02*
X44457D01*
Y127363D01*
X44047D01*
Y127281D01*
X43801D01*
Y127199D01*
X43637D01*
Y127117D01*
X43473D01*
Y127035D01*
X43309D01*
Y126953D01*
X43227D01*
Y126871D01*
X43145D01*
Y126789D01*
X42980D01*
Y126707D01*
X42899D01*
Y126543D01*
X42816D01*
Y126461D01*
X42734D01*
Y126379D01*
X42652D01*
Y126215D01*
X42570D01*
Y126133D01*
X42488D01*
Y125969D01*
X42406D01*
Y125723D01*
X42324D01*
Y125395D01*
X42242D01*
Y124574D01*
X42324D01*
Y124246D01*
X42406D01*
Y124000D01*
X42488D01*
Y123836D01*
X42570D01*
Y123672D01*
X42652D01*
Y123590D01*
X42734D01*
Y123426D01*
X42816D01*
Y123344D01*
X42899D01*
Y123262D01*
X42980D01*
Y123180D01*
X43063D01*
Y123098D01*
X43145D01*
Y123016D01*
X43227D01*
Y122934D01*
X43391D01*
Y122852D01*
X43555D01*
Y122770D01*
X43719D01*
Y122688D01*
X43883D01*
Y122605D01*
X44211D01*
Y122523D01*
X45195D01*
Y122605D01*
X45524D01*
Y122688D01*
X45687D01*
Y122770D01*
X45852D01*
Y122852D01*
X46016D01*
Y122934D01*
X46180D01*
Y123016D01*
X46262D01*
Y123098D01*
X46344D01*
Y123180D01*
X46426D01*
Y123262D01*
X46508D01*
Y123344D01*
X46590D01*
Y123426D01*
X46672D01*
Y123590D01*
X46754D01*
Y123672D01*
X46836D01*
Y123836D01*
X46918D01*
Y124000D01*
X47000D01*
Y124246D01*
X47082D01*
Y124492D01*
Y124574D01*
X47164D01*
Y125395D01*
X47082D01*
Y125723D01*
X47000D01*
Y125969D01*
X46918D01*
Y126133D01*
X46836D01*
Y126215D01*
X46754D01*
Y126379D01*
X46672D01*
Y126461D01*
X46590D01*
Y126543D01*
X46508D01*
Y126707D01*
X46426D01*
Y126789D01*
X46262D01*
Y126871D01*
X46180D01*
Y126953D01*
X46098D01*
Y127035D01*
X45934D01*
Y127117D01*
X45770D01*
Y127199D01*
X45606D01*
Y127281D01*
X45359D01*
Y127363D01*
X44949D01*
Y127445D01*
D02*
G37*
G36*
X246870Y135965D02*
X244726D01*
X244562Y135952D01*
X244177D01*
X244081Y135938D01*
X243902D01*
X243847Y135924D01*
X243833D01*
X243641Y135883D01*
X243476Y135842D01*
X243339Y135773D01*
X243229Y135718D01*
X243132Y135649D01*
X243077Y135608D01*
X243036Y135567D01*
X243022Y135553D01*
X242926Y135429D01*
X242858Y135306D01*
X242816Y135168D01*
X242775Y135045D01*
X242761Y134935D01*
X242748Y134839D01*
Y134784D01*
Y134756D01*
X242761Y134578D01*
X242803Y134413D01*
X242844Y134275D01*
X242899Y134151D01*
X242967Y134055D01*
X243009Y133987D01*
X243050Y133945D01*
X243064Y133932D01*
X243187Y133822D01*
X243339Y133739D01*
X243476Y133671D01*
X243613Y133616D01*
X243737Y133588D01*
X243833Y133561D01*
X243902Y133547D01*
X243998D01*
X244081Y133533D01*
X244548D01*
X244823Y133519D01*
X246870D01*
Y135965D01*
D02*
G37*
G36*
Y131761D02*
X244658D01*
X244438Y131747D01*
X244245Y131733D01*
X244067Y131719D01*
X243916D01*
X243778Y131706D01*
X243655Y131692D01*
X243558Y131678D01*
X243476Y131664D01*
X243407Y131651D01*
X243352Y131637D01*
X243284Y131623D01*
X243256Y131609D01*
X243105Y131541D01*
X242967Y131472D01*
X242844Y131390D01*
X242748Y131307D01*
X242679Y131238D01*
X242624Y131170D01*
X242596Y131128D01*
X242583Y131115D01*
X242500Y130991D01*
X242445Y130854D01*
X242404Y130716D01*
X242377Y130592D01*
X242363Y130483D01*
X242349Y130400D01*
Y130345D01*
Y130318D01*
X242363Y130112D01*
X242390Y129933D01*
X242445Y129782D01*
X242500Y129658D01*
X242555Y129548D01*
X242610Y129479D01*
X242638Y129424D01*
X242652Y129411D01*
X242775Y129301D01*
X242899Y129205D01*
X243036Y129136D01*
X243160Y129081D01*
X243270Y129040D01*
X243352Y129012D01*
X243407Y128998D01*
X243435D01*
X243503Y128985D01*
X243586D01*
X243682Y128971D01*
X243792D01*
X244026Y128957D01*
X244273D01*
X244506Y128944D01*
X246870D01*
Y131761D01*
D02*
G37*
G36*
X234200Y135265D02*
X232744Y131348D01*
X235630D01*
X234200Y135265D01*
D02*
G37*
G36*
X180444Y135938D02*
X179029D01*
X178850Y135924D01*
X178562D01*
X178438Y135910D01*
X178328D01*
X178218Y135897D01*
X178067Y135883D01*
X177971Y135869D01*
X177902Y135856D01*
X177888D01*
X177710Y135814D01*
X177545Y135745D01*
X177393Y135663D01*
X177270Y135581D01*
X177174Y135512D01*
X177091Y135443D01*
X177050Y135402D01*
X177036Y135388D01*
X176926Y135237D01*
X176844Y135086D01*
X176775Y134921D01*
X176734Y134770D01*
X176707Y134646D01*
X176693Y134536D01*
Y134468D01*
Y134440D01*
X176707Y134262D01*
X176734Y134110D01*
X176775Y133959D01*
X176816Y133835D01*
X176858Y133739D01*
X176899Y133671D01*
X176926Y133616D01*
X176940Y133602D01*
X177036Y133478D01*
X177146Y133382D01*
X177256Y133286D01*
X177366Y133217D01*
X177462Y133162D01*
X177545Y133121D01*
X177600Y133107D01*
X177613Y133093D01*
X177696Y133066D01*
X177806Y133039D01*
X177916Y133011D01*
X178053Y132997D01*
X178328Y132970D01*
X178603Y132956D01*
X178864Y132942D01*
X178988Y132928D01*
X180444D01*
Y135938D01*
D02*
G37*
G36*
X168599Y135265D02*
X167143Y131348D01*
X170028D01*
X168599Y135265D01*
D02*
G37*
G36*
X132913Y136089D02*
X132789D01*
X132542Y136075D01*
X132322Y136048D01*
X132102Y136007D01*
X131896Y135952D01*
X131717Y135883D01*
X131538Y135801D01*
X131374Y135718D01*
X131236Y135636D01*
X131112Y135553D01*
X130989Y135471D01*
X130893Y135388D01*
X130824Y135319D01*
X130755Y135265D01*
X130714Y135223D01*
X130687Y135196D01*
X130673Y135182D01*
X130535Y135003D01*
X130412Y134811D01*
X130302Y134605D01*
X130206Y134385D01*
X130137Y134165D01*
X130068Y133932D01*
X129972Y133492D01*
X129944Y133286D01*
X129917Y133093D01*
X129903Y132928D01*
X129889Y132777D01*
X129876Y132654D01*
Y132557D01*
Y132502D01*
Y132475D01*
X129889Y132145D01*
X129917Y131829D01*
X129958Y131541D01*
X130000Y131266D01*
X130068Y131018D01*
X130137Y130799D01*
X130206Y130592D01*
X130288Y130400D01*
X130371Y130249D01*
X130439Y130098D01*
X130508Y129988D01*
X130577Y129892D01*
X130618Y129809D01*
X130659Y129754D01*
X130687Y129727D01*
X130700Y129713D01*
X130851Y129548D01*
X131016Y129411D01*
X131195Y129287D01*
X131374Y129177D01*
X131538Y129095D01*
X131717Y129012D01*
X132047Y128902D01*
X132198Y128875D01*
X132336Y128847D01*
X132473Y128820D01*
X132583Y128806D01*
X132665Y128792D01*
X132789D01*
X133023Y128806D01*
X133242Y128834D01*
X133462Y128875D01*
X133655Y128944D01*
X133847Y129012D01*
X134012Y129081D01*
X134177Y129163D01*
X134314Y129260D01*
X134452Y129342D01*
X134562Y129424D01*
X134658Y129493D01*
X134740Y129576D01*
X134809Y129631D01*
X134850Y129672D01*
X134878Y129699D01*
X134891Y129713D01*
X135043Y129892D01*
X135166Y130098D01*
X135276Y130318D01*
X135372Y130538D01*
X135441Y130757D01*
X135510Y130991D01*
X135606Y131431D01*
X135647Y131637D01*
X135675Y131829D01*
X135688Y132008D01*
X135702Y132159D01*
X135716Y132269D01*
Y132365D01*
Y132434D01*
Y132448D01*
X135702Y132777D01*
X135675Y133093D01*
X135647Y133382D01*
X135592Y133643D01*
X135537Y133890D01*
X135469Y134110D01*
X135386Y134316D01*
X135317Y134495D01*
X135249Y134660D01*
X135166Y134797D01*
X135098Y134921D01*
X135043Y135017D01*
X134988Y135086D01*
X134946Y135141D01*
X134933Y135168D01*
X134919Y135182D01*
X134768Y135347D01*
X134589Y135484D01*
X134424Y135608D01*
X134246Y135704D01*
X134067Y135801D01*
X133888Y135869D01*
X133545Y135979D01*
X133394Y136020D01*
X133242Y136048D01*
X133119Y136062D01*
X133009Y136075D01*
X132913Y136089D01*
D02*
G37*
G36*
X175374Y119478D02*
X175277D01*
X175058Y119451D01*
X174865Y119396D01*
X174700Y119327D01*
X174549Y119231D01*
X174425Y119135D01*
X174343Y119066D01*
X174288Y119011D01*
X174274Y118984D01*
X174137Y118778D01*
X174041Y118544D01*
X173958Y118297D01*
X173917Y118049D01*
X173890Y117830D01*
X173876Y117719D01*
X173862Y117637D01*
Y117568D01*
Y117513D01*
Y117486D01*
Y117472D01*
X173876Y117129D01*
X173917Y116826D01*
X173986Y116579D01*
X174054Y116373D01*
X174123Y116222D01*
X174192Y116112D01*
X174233Y116057D01*
X174247Y116029D01*
X174398Y115878D01*
X174549Y115782D01*
X174700Y115700D01*
X174851Y115645D01*
X174989Y115617D01*
X175085Y115603D01*
X175154Y115590D01*
X175181D01*
X175387Y115617D01*
X175580Y115672D01*
X175758Y115754D01*
X175910Y115864D01*
X176033Y115961D01*
X176129Y116043D01*
X176184Y116098D01*
X176212Y116125D01*
X176363Y116345D01*
X176473Y116593D01*
X176555Y116840D01*
X176610Y117087D01*
X176638Y117307D01*
X176651Y117403D01*
Y117486D01*
X176665Y117555D01*
Y117610D01*
Y117637D01*
Y117651D01*
X176651Y117967D01*
X176597Y118242D01*
X176542Y118475D01*
X176459Y118668D01*
X176390Y118819D01*
X176322Y118929D01*
X176280Y118984D01*
X176267Y119011D01*
X176116Y119162D01*
X175937Y119286D01*
X175772Y119368D01*
X175621Y119424D01*
X175483Y119451D01*
X175374Y119478D01*
D02*
G37*
G36*
X216529Y122886D02*
X215114D01*
X214935Y122873D01*
X214646D01*
X214523Y122859D01*
X214413D01*
X214303Y122845D01*
X214152Y122831D01*
X214056Y122818D01*
X213987Y122804D01*
X213973D01*
X213794Y122763D01*
X213630Y122694D01*
X213479Y122612D01*
X213355Y122529D01*
X213259Y122460D01*
X213176Y122392D01*
X213135Y122350D01*
X213121Y122337D01*
X213011Y122185D01*
X212929Y122034D01*
X212860Y121869D01*
X212819Y121718D01*
X212791Y121595D01*
X212778Y121485D01*
Y121416D01*
Y121389D01*
X212791Y121210D01*
X212819Y121059D01*
X212860Y120908D01*
X212901Y120784D01*
X212943Y120688D01*
X212984Y120619D01*
X213011Y120564D01*
X213025Y120550D01*
X213121Y120427D01*
X213231Y120330D01*
X213341Y120234D01*
X213451Y120166D01*
X213547Y120111D01*
X213630Y120069D01*
X213685Y120056D01*
X213698Y120042D01*
X213781Y120014D01*
X213891Y119987D01*
X214001Y119959D01*
X214138Y119946D01*
X214413Y119918D01*
X214688Y119904D01*
X214949Y119891D01*
X215072Y119877D01*
X216529D01*
Y122886D01*
D02*
G37*
G36*
X204684Y122213D02*
X203227Y118297D01*
X206113D01*
X204684Y122213D01*
D02*
G37*
G36*
X196041Y122886D02*
X194625D01*
X194433Y122873D01*
X194254D01*
X194089Y122859D01*
X193952D01*
X193828Y122845D01*
X193718Y122831D01*
X193622Y122818D01*
X193540D01*
X193471Y122804D01*
X193416Y122790D01*
X193361Y122776D01*
X193334D01*
X193114Y122721D01*
X192921Y122653D01*
X192756Y122570D01*
X192605Y122488D01*
X192495Y122405D01*
X192413Y122337D01*
X192358Y122295D01*
X192344Y122282D01*
X192207Y122130D01*
X192083Y121966D01*
X191973Y121787D01*
X191891Y121622D01*
X191822Y121485D01*
X191767Y121361D01*
X191740Y121279D01*
X191726Y121265D01*
Y121251D01*
X191657Y120990D01*
X191602Y120688D01*
X191561Y120372D01*
X191533Y120069D01*
X191520Y119808D01*
X191506Y119685D01*
Y119588D01*
Y119506D01*
Y119437D01*
Y119396D01*
Y119382D01*
X191520Y118942D01*
X191533Y118558D01*
X191575Y118228D01*
X191588Y118091D01*
X191616Y117953D01*
X191630Y117843D01*
X191657Y117733D01*
X191671Y117651D01*
X191685Y117582D01*
X191698Y117513D01*
X191712Y117472D01*
X191726Y117458D01*
Y117445D01*
X191808Y117197D01*
X191905Y116978D01*
X192001Y116799D01*
X192083Y116662D01*
X192166Y116552D01*
X192234Y116469D01*
X192276Y116428D01*
X192289Y116414D01*
X192427Y116304D01*
X192564Y116222D01*
X192715Y116153D01*
X192853Y116084D01*
X192976Y116043D01*
X193072Y116016D01*
X193127Y115988D01*
X193155D01*
X193320Y115961D01*
X193526Y115933D01*
X193732Y115919D01*
X193952Y115906D01*
X194144Y115892D01*
X196041D01*
Y122886D01*
D02*
G37*
G36*
X75715Y32572D02*
X71941D01*
X71929Y32561D01*
X71918Y32550D01*
X71907Y32539D01*
X71896Y32517D01*
Y32506D01*
Y32494D01*
Y28876D01*
X71907Y28832D01*
X71918Y28820D01*
X71929Y28809D01*
X75692D01*
X75737Y28820D01*
X75748D01*
X75770Y28854D01*
Y28876D01*
Y32494D01*
Y32528D01*
X75759Y32539D01*
X75748Y32550D01*
X75715Y32572D01*
D02*
G37*
G36*
X67234D02*
X63460D01*
X63449Y32561D01*
X63438Y32550D01*
X63427Y32539D01*
X63416Y32517D01*
Y32506D01*
Y32494D01*
Y28876D01*
X63427Y28832D01*
X63438Y28820D01*
X63449Y28809D01*
X67212D01*
X67256Y28820D01*
X67268D01*
X67290Y28854D01*
Y28876D01*
Y32494D01*
Y32528D01*
X67279Y32539D01*
X67268Y32550D01*
X67234Y32572D01*
D02*
G37*
G36*
X58732D02*
X54958D01*
X54947Y32561D01*
X54936Y32550D01*
X54925Y32539D01*
X54914Y32517D01*
Y32506D01*
Y32494D01*
Y28876D01*
X54925Y28832D01*
X54936Y28820D01*
X54947Y28809D01*
X58710D01*
X58754Y28820D01*
X58765D01*
X58787Y28854D01*
Y28876D01*
Y32494D01*
Y32528D01*
X58776Y32539D01*
X58765Y32550D01*
X58732Y32572D01*
D02*
G37*
G36*
X49885D02*
X46111D01*
X46100Y32561D01*
X46089Y32550D01*
X46078Y32539D01*
X46067Y32517D01*
Y32506D01*
Y32494D01*
Y28876D01*
X46078Y28832D01*
X46089Y28820D01*
X46100Y28809D01*
X49863D01*
X49907Y28820D01*
X49919D01*
X49941Y28854D01*
Y28876D01*
Y32494D01*
Y32528D01*
X49930Y32539D01*
X49919Y32550D01*
X49885Y32572D01*
D02*
G37*
G36*
X246869Y100786D02*
X244578D01*
X244418Y100775D01*
X244143D01*
X244028Y100763D01*
X243857D01*
X243799Y100752D01*
X243708D01*
X243662Y100740D01*
X243650D01*
X243467Y100695D01*
X243295Y100637D01*
X243158Y100580D01*
X243043Y100500D01*
X242952Y100443D01*
X242894Y100385D01*
X242848Y100339D01*
X242837Y100328D01*
X242745Y100191D01*
X242677Y100053D01*
X242619Y99916D01*
X242585Y99778D01*
X242562Y99652D01*
X242551Y99561D01*
Y99492D01*
Y99480D01*
Y99469D01*
X242562Y99297D01*
X242585Y99137D01*
X242619Y98999D01*
X242654Y98885D01*
X242700Y98793D01*
X242734Y98724D01*
X242757Y98679D01*
X242768Y98667D01*
X242860Y98553D01*
X242952Y98461D01*
X243055Y98381D01*
X243158Y98323D01*
X243238Y98278D01*
X243307Y98243D01*
X243353Y98232D01*
X243375Y98220D01*
X243456Y98197D01*
X243570Y98174D01*
X243696Y98163D01*
X243834Y98152D01*
X244143Y98129D01*
X244475Y98106D01*
X244784D01*
X244922Y98094D01*
X246869D01*
Y100786D01*
D02*
G37*
G36*
X210384Y100110D02*
X208918Y96193D01*
X211816D01*
X210384Y100110D01*
D02*
G37*
G36*
X32271Y32572D02*
X28498D01*
X28486Y32561D01*
X28475Y32550D01*
X28464Y32539D01*
X28453Y32517D01*
Y32506D01*
Y32494D01*
Y28876D01*
X28464Y28832D01*
X28475Y28820D01*
X28486Y28809D01*
X32249D01*
X32294Y28820D01*
X32305D01*
X32327Y28854D01*
Y28876D01*
Y32494D01*
Y32528D01*
X32316Y32539D01*
X32305Y32550D01*
X32271Y32572D01*
D02*
G37*
G36*
X134330Y42519D02*
X133185D01*
X132950Y42510D01*
X132752Y42474D01*
X132590Y42429D01*
X132454Y42375D01*
X132346Y42321D01*
X132274Y42276D01*
X132229Y42240D01*
X132211Y42231D01*
X132103Y42113D01*
X132031Y41987D01*
X131976Y41852D01*
X131931Y41726D01*
X131913Y41609D01*
X131904Y41518D01*
X131895Y41482D01*
Y41455D01*
Y41437D01*
Y41428D01*
X131904Y41239D01*
X131940Y41077D01*
X131986Y40932D01*
X132040Y40815D01*
X132103Y40725D01*
X132148Y40662D01*
X132184Y40617D01*
X132193Y40608D01*
X132256Y40563D01*
X132319Y40518D01*
X132472Y40445D01*
X132635Y40400D01*
X132797Y40364D01*
X132950Y40346D01*
X133013Y40337D01*
X133068D01*
X133122Y40328D01*
X134330D01*
Y42519D01*
D02*
G37*
G36*
X126206Y42168D02*
X126161D01*
X126152Y42077D01*
X126133Y41987D01*
X126107Y41897D01*
X126088Y41807D01*
X126070Y41726D01*
X126052Y41663D01*
X126034Y41618D01*
Y41600D01*
X125953Y41347D01*
X125917Y41230D01*
X125881Y41122D01*
X125854Y41031D01*
X125827Y40968D01*
X125818Y40923D01*
X125809Y40905D01*
X125160Y39174D01*
X127162D01*
X126530Y40905D01*
X126449Y41140D01*
X126377Y41365D01*
X126323Y41582D01*
X126278Y41771D01*
X126260Y41861D01*
X126251Y41933D01*
X126233Y42005D01*
X126224Y42059D01*
X126215Y42105D01*
X126206Y42141D01*
Y42159D01*
Y42168D01*
D02*
G37*
G36*
X119930Y42519D02*
X118713D01*
X118442Y42510D01*
X118208Y42483D01*
X118009Y42438D01*
X117838Y42402D01*
X117766Y42375D01*
X117703Y42357D01*
X117648Y42330D01*
X117603Y42312D01*
X117567Y42303D01*
X117540Y42285D01*
X117531Y42276D01*
X117522D01*
X117360Y42168D01*
X117225Y42050D01*
X117116Y41915D01*
X117017Y41780D01*
X116945Y41663D01*
X116891Y41564D01*
X116882Y41527D01*
X116864Y41500D01*
X116855Y41482D01*
Y41473D01*
X116819Y41365D01*
X116783Y41248D01*
X116729Y41004D01*
X116693Y40752D01*
X116666Y40508D01*
X116657Y40400D01*
X116648Y40301D01*
Y40202D01*
X116639Y40121D01*
Y40058D01*
Y40013D01*
Y39976D01*
Y39968D01*
Y39796D01*
X116648Y39625D01*
X116657Y39471D01*
X116666Y39327D01*
X116684Y39192D01*
X116702Y39066D01*
X116720Y38949D01*
X116738Y38849D01*
X116756Y38759D01*
X116774Y38678D01*
X116792Y38606D01*
X116810Y38552D01*
X116819Y38507D01*
X116828Y38480D01*
X116837Y38462D01*
Y38453D01*
X116918Y38263D01*
X117017Y38101D01*
X117126Y37966D01*
X117234Y37857D01*
X117324Y37776D01*
X117405Y37713D01*
X117459Y37677D01*
X117468Y37668D01*
X117477D01*
X117657Y37587D01*
X117856Y37533D01*
X118054Y37488D01*
X118244Y37461D01*
X118415Y37443D01*
X118496D01*
X118559Y37434D01*
X119930D01*
Y42519D01*
D02*
G37*
G36*
X111571Y42628D02*
X111508D01*
X111373Y42618D01*
X111256Y42591D01*
X111156Y42546D01*
X111066Y42510D01*
X111003Y42465D01*
X110949Y42420D01*
X110922Y42393D01*
X110913Y42384D01*
X110832Y42276D01*
X110769Y42150D01*
X110705Y42014D01*
X110660Y41879D01*
X110624Y41753D01*
X110597Y41654D01*
X110588Y41609D01*
Y41582D01*
X110579Y41564D01*
Y41554D01*
X110561Y41437D01*
X110543Y41320D01*
X110516Y41049D01*
X110498Y40779D01*
X110480Y40518D01*
Y40400D01*
Y40283D01*
X110471Y40184D01*
Y40094D01*
Y40022D01*
Y39968D01*
Y39931D01*
Y39922D01*
Y39742D01*
Y39562D01*
X110480Y39399D01*
X110489Y39246D01*
X110498Y39102D01*
X110507Y38976D01*
X110516Y38858D01*
X110525Y38750D01*
X110534Y38651D01*
X110543Y38570D01*
X110552Y38498D01*
X110561Y38435D01*
X110570Y38389D01*
Y38353D01*
X110579Y38335D01*
Y38326D01*
X110624Y38119D01*
X110678Y37948D01*
X110732Y37803D01*
X110787Y37686D01*
X110841Y37596D01*
X110886Y37533D01*
X110913Y37488D01*
X110922Y37479D01*
X111012Y37398D01*
X111111Y37334D01*
X111219Y37289D01*
X111319Y37262D01*
X111409Y37244D01*
X111481Y37226D01*
X111544D01*
X111679Y37235D01*
X111797Y37262D01*
X111896Y37308D01*
X111986Y37353D01*
X112058Y37389D01*
X112103Y37434D01*
X112139Y37461D01*
X112148Y37470D01*
X112229Y37578D01*
X112292Y37695D01*
X112356Y37831D01*
X112401Y37966D01*
X112437Y38092D01*
X112464Y38191D01*
X112473Y38227D01*
Y38254D01*
X112482Y38272D01*
Y38281D01*
X112500Y38389D01*
X112518Y38507D01*
X112545Y38759D01*
X112563Y39021D01*
X112572Y39264D01*
X112581Y39372D01*
Y39481D01*
X112590Y39571D01*
Y39652D01*
Y39724D01*
Y39769D01*
Y39805D01*
Y39814D01*
Y40022D01*
X112581Y40220D01*
Y40409D01*
X112572Y40581D01*
X112563Y40734D01*
X112554Y40878D01*
X112545Y41013D01*
X112527Y41131D01*
X112518Y41230D01*
X112509Y41320D01*
X112500Y41401D01*
X112491Y41464D01*
X112482Y41509D01*
Y41546D01*
X112473Y41564D01*
Y41572D01*
X112446Y41681D01*
X112428Y41789D01*
X112374Y41960D01*
X112310Y42105D01*
X112256Y42222D01*
X112211Y42303D01*
X112166Y42357D01*
X112139Y42393D01*
X112130Y42402D01*
X112040Y42474D01*
X111932Y42528D01*
X111833Y42573D01*
X111733Y42600D01*
X111643Y42618D01*
X111571Y42628D01*
D02*
G37*
G36*
X229412Y39554D02*
X225405D01*
X225393Y39542D01*
X225381Y39530D01*
X225370Y39519D01*
X225358Y39495D01*
Y39483D01*
Y39471D01*
Y35629D01*
X225370Y35582D01*
X225381Y35570D01*
X225393Y35559D01*
X229389D01*
X229436Y35570D01*
X229447D01*
X229471Y35606D01*
Y35629D01*
Y39471D01*
Y39507D01*
X229459Y39519D01*
X229447Y39530D01*
X229412Y39554D01*
D02*
G37*
G36*
X220408D02*
X216401D01*
X216389Y39542D01*
X216377Y39530D01*
X216366Y39519D01*
X216354Y39495D01*
Y39483D01*
Y39471D01*
Y35629D01*
X216366Y35582D01*
X216377Y35570D01*
X216389Y35559D01*
X220384D01*
X220431Y35570D01*
X220443D01*
X220467Y35606D01*
Y35629D01*
Y39471D01*
Y39507D01*
X220455Y39519D01*
X220443Y39530D01*
X220408Y39554D01*
D02*
G37*
G36*
X211380D02*
X207373D01*
X207361Y39542D01*
X207349Y39530D01*
X207338Y39519D01*
X207326Y39495D01*
Y39483D01*
Y39471D01*
Y35629D01*
X207338Y35582D01*
X207349Y35570D01*
X207361Y35559D01*
X211357D01*
X211404Y35570D01*
X211416D01*
X211439Y35606D01*
Y35629D01*
Y39471D01*
Y39507D01*
X211427Y39519D01*
X211416Y39530D01*
X211380Y39554D01*
D02*
G37*
G36*
X201987D02*
X197980D01*
X197968Y39542D01*
X197956Y39530D01*
X197945Y39519D01*
X197933Y39495D01*
Y39483D01*
Y39471D01*
Y35629D01*
X197945Y35582D01*
X197956Y35570D01*
X197968Y35559D01*
X201964D01*
X202011Y35570D01*
X202022D01*
X202046Y35606D01*
Y35629D01*
Y39471D01*
Y39507D01*
X202034Y39519D01*
X202022Y39530D01*
X201987Y39554D01*
D02*
G37*
G36*
X236660Y29734D02*
X230933D01*
X230909Y29722D01*
X230897Y29711D01*
X230885Y29687D01*
X230874Y29675D01*
X230885Y29664D01*
Y29652D01*
Y23995D01*
X230874Y23959D01*
X230885Y23948D01*
X230897Y23924D01*
X230921Y23912D01*
X236660D01*
X236684Y23924D01*
X236696Y23971D01*
Y23983D01*
Y23995D01*
Y29652D01*
X236684Y29699D01*
Y29711D01*
X236660Y29734D01*
D02*
G37*
G36*
X29681Y109084D02*
X29629D01*
X29619Y108980D01*
X29598Y108876D01*
X29567Y108772D01*
X29546Y108668D01*
X29525Y108574D01*
X29504Y108501D01*
X29483Y108449D01*
Y108428D01*
X29390Y108137D01*
X29348Y108001D01*
X29306Y107876D01*
X29275Y107772D01*
X29244Y107699D01*
X29233Y107647D01*
X29223Y107626D01*
X28473Y105627D01*
X30785D01*
X30056Y107626D01*
X29962Y107897D01*
X29879Y108158D01*
X29816Y108407D01*
X29764Y108626D01*
X29743Y108730D01*
X29733Y108814D01*
X29712Y108897D01*
X29702Y108960D01*
X29692Y109011D01*
X29681Y109053D01*
Y109074D01*
Y109084D01*
D02*
G37*
G36*
X75237Y98529D02*
X73831D01*
X73519Y98518D01*
X73248Y98487D01*
X73019Y98435D01*
X72821Y98393D01*
X72738Y98362D01*
X72665Y98341D01*
X72602Y98310D01*
X72550Y98289D01*
X72509Y98279D01*
X72477Y98258D01*
X72467Y98248D01*
X72456D01*
X72269Y98123D01*
X72113Y97987D01*
X71988Y97831D01*
X71873Y97675D01*
X71790Y97540D01*
X71728Y97425D01*
X71717Y97383D01*
X71696Y97352D01*
X71686Y97331D01*
Y97321D01*
X71644Y97196D01*
X71603Y97060D01*
X71540Y96779D01*
X71498Y96488D01*
X71467Y96207D01*
X71457Y96081D01*
X71446Y95967D01*
Y95852D01*
X71436Y95759D01*
Y95686D01*
Y95634D01*
Y95592D01*
Y95582D01*
Y95384D01*
X71446Y95186D01*
X71457Y95009D01*
X71467Y94842D01*
X71488Y94686D01*
X71509Y94540D01*
X71530Y94405D01*
X71550Y94290D01*
X71571Y94186D01*
X71592Y94092D01*
X71613Y94009D01*
X71634Y93947D01*
X71644Y93895D01*
X71655Y93863D01*
X71665Y93842D01*
Y93832D01*
X71759Y93613D01*
X71873Y93426D01*
X71998Y93270D01*
X72123Y93145D01*
X72227Y93051D01*
X72321Y92978D01*
X72384Y92936D01*
X72394Y92926D01*
X72404D01*
X72613Y92832D01*
X72842Y92770D01*
X73071Y92718D01*
X73290Y92687D01*
X73488Y92666D01*
X73581D01*
X73654Y92655D01*
X75237D01*
Y98529D01*
D02*
G37*
G36*
X40475Y98123D02*
X40423D01*
X40413Y98019D01*
X40392Y97914D01*
X40361Y97810D01*
X40340Y97706D01*
X40319Y97612D01*
X40298Y97540D01*
X40277Y97487D01*
Y97467D01*
X40184Y97175D01*
X40142Y97040D01*
X40100Y96915D01*
X40069Y96811D01*
X40038Y96738D01*
X40027Y96685D01*
X40017Y96665D01*
X39267Y94665D01*
X41579D01*
X40850Y96665D01*
X40756Y96936D01*
X40673Y97196D01*
X40610Y97446D01*
X40559Y97664D01*
X40538Y97769D01*
X40527Y97852D01*
X40506Y97935D01*
X40496Y97998D01*
X40486Y98050D01*
X40475Y98091D01*
Y98112D01*
Y98123D01*
D02*
G37*
G36*
X17398Y98643D02*
X17325D01*
X17044Y98623D01*
X16783Y98581D01*
X16554Y98518D01*
X16356Y98446D01*
X16200Y98373D01*
X16138Y98341D01*
X16086Y98310D01*
X16034Y98289D01*
X16002Y98268D01*
X15992Y98248D01*
X15981D01*
X15784Y98091D01*
X15606Y97914D01*
X15461Y97737D01*
X15346Y97571D01*
X15252Y97415D01*
X15180Y97289D01*
X15159Y97238D01*
X15138Y97206D01*
X15128Y97185D01*
Y97175D01*
X15023Y96915D01*
X14950Y96644D01*
X14898Y96383D01*
X14867Y96134D01*
X14846Y96029D01*
X14836Y95925D01*
Y95842D01*
X14826Y95759D01*
Y95696D01*
Y95654D01*
Y95623D01*
Y95613D01*
X14836Y95280D01*
X14867Y94978D01*
X14919Y94707D01*
X14950Y94582D01*
X14971Y94467D01*
X15002Y94374D01*
X15034Y94280D01*
X15055Y94197D01*
X15075Y94134D01*
X15096Y94082D01*
X15117Y94040D01*
X15128Y94019D01*
Y94009D01*
X15252Y93759D01*
X15388Y93540D01*
X15523Y93353D01*
X15659Y93197D01*
X15784Y93082D01*
X15888Y92989D01*
X15929Y92957D01*
X15961Y92936D01*
X15971Y92916D01*
X15981D01*
X16200Y92791D01*
X16429Y92697D01*
X16648Y92624D01*
X16856Y92582D01*
X17033Y92551D01*
X17106Y92541D01*
X17179D01*
X17231Y92530D01*
X17304D01*
X17585Y92551D01*
X17845Y92593D01*
X18075Y92655D01*
X18273Y92728D01*
X18439Y92791D01*
X18502Y92822D01*
X18554Y92853D01*
X18595Y92884D01*
X18627Y92895D01*
X18647Y92916D01*
X18658D01*
X18856Y93072D01*
X19033Y93249D01*
X19179Y93436D01*
X19293Y93603D01*
X19387Y93759D01*
X19460Y93884D01*
X19481Y93936D01*
X19501Y93968D01*
X19512Y93988D01*
Y93999D01*
X19605Y94270D01*
X19678Y94540D01*
X19730Y94811D01*
X19762Y95061D01*
X19783Y95165D01*
Y95269D01*
X19793Y95363D01*
X19803Y95446D01*
Y95509D01*
Y95550D01*
Y95582D01*
Y95592D01*
X19793Y95915D01*
X19762Y96207D01*
X19710Y96477D01*
X19658Y96706D01*
X19626Y96811D01*
X19605Y96904D01*
X19574Y96977D01*
X19553Y97040D01*
X19543Y97092D01*
X19522Y97133D01*
X19512Y97154D01*
Y97165D01*
X19387Y97415D01*
X19251Y97633D01*
X19106Y97810D01*
X18970Y97966D01*
X18845Y98091D01*
X18741Y98175D01*
X18700Y98206D01*
X18668Y98227D01*
X18658Y98248D01*
X18647D01*
X18429Y98383D01*
X18200Y98477D01*
X17981Y98550D01*
X17773Y98591D01*
X17596Y98623D01*
X17523Y98633D01*
X17450D01*
X17398Y98643D01*
D02*
G37*
%LPD*%
D12*
X113000Y107999D02*
X114999D01*
X114000D01*
Y103001D01*
X114999Y102001D01*
X115999D01*
X116999Y103001D01*
X111001Y102001D02*
X109001D01*
X110001D01*
Y107999D01*
X111001Y106999D01*
D25*
X115200Y61000D02*
G03*
X115200Y61000I-1000J0D01*
G01*
D26*
X152000Y54500D02*
Y102500D01*
X120500Y48500D02*
X139500D01*
X120500D02*
Y57000D01*
Y108500D02*
X139500D01*
X120500Y100000D02*
Y108500D01*
M02*
