G04*
G04 #@! TF.GenerationSoftware,Altium Limited,Altium Designer,26.2.0 (7)*
G04*
G04 Layer_Physical_Order=2*
G04 Layer_Color=16711680*
%FSLAX44Y44*%
%MOMM*%
G71*
G04*
G04 #@! TF.SameCoordinates,E9563C34-D83E-4C40-96E4-4907F79A85CD*
G04*
G04*
G04 #@! TF.FilePolarity,Positive*
G04*
G01*
G75*
%ADD10C,0.3000*%
%ADD11C,0.2500*%
%ADD18C,2.5000*%
%ADD19C,2.2000*%
%ADD20C,0.6000*%
%ADD21R,0.8000X0.4000*%
%ADD22R,0.8000X0.3000*%
G36*
X-6602Y260666D02*
X-6262Y259396D01*
X-7982Y258403D01*
X-10403Y255982D01*
X-12114Y253018D01*
X-13000Y249711D01*
Y249270D01*
X0D01*
X13000D01*
Y249711D01*
X12114Y253018D01*
X10403Y255982D01*
X7982Y258403D01*
X6262Y259396D01*
X6602Y260666D01*
X83398D01*
X83738Y259396D01*
X82018Y258403D01*
X79597Y255982D01*
X77886Y253018D01*
X77000Y249711D01*
Y249270D01*
X90000D01*
X103000D01*
Y249711D01*
X102114Y253018D01*
X100403Y255982D01*
X97982Y258403D01*
X96262Y259396D01*
X96602Y260666D01*
X173398D01*
X173738Y259396D01*
X172018Y258403D01*
X169597Y255982D01*
X167886Y253018D01*
X167000Y249711D01*
Y249270D01*
X180000D01*
X193000D01*
Y249711D01*
X192114Y253018D01*
X190403Y255982D01*
X187982Y258403D01*
X186262Y259396D01*
X186602Y260666D01*
X263398D01*
X263738Y259396D01*
X262018Y258403D01*
X259597Y255982D01*
X257886Y253018D01*
X257000Y249711D01*
Y249270D01*
X270000D01*
X283000D01*
Y249711D01*
X282114Y253018D01*
X280403Y255982D01*
X277982Y258403D01*
X276262Y259396D01*
X276602Y260666D01*
X353398D01*
X353738Y259396D01*
X352018Y258403D01*
X349598Y255982D01*
X347886Y253018D01*
X347000Y249711D01*
Y249270D01*
X360000D01*
X373000D01*
Y249711D01*
X372114Y253018D01*
X370403Y255982D01*
X367982Y258403D01*
X366262Y259396D01*
X366602Y260666D01*
X368000D01*
Y260660D01*
X369724Y260433D01*
X371330Y259768D01*
X372709Y258709D01*
X373768Y257330D01*
X374433Y255724D01*
X374660Y254000D01*
X374666D01*
X374666Y254000D01*
Y215020D01*
X374092Y214810D01*
X373396Y214797D01*
X371603Y217903D01*
X368903Y220603D01*
X365597Y222512D01*
X361909Y223500D01*
X361270D01*
Y209000D01*
Y194500D01*
X361909D01*
X365597Y195488D01*
X368903Y197397D01*
X371603Y200097D01*
X373396Y203202D01*
X374092Y203190D01*
X374666Y202980D01*
Y130020D01*
X374092Y129810D01*
X373396Y129797D01*
X371603Y132903D01*
X368903Y135603D01*
X365597Y137512D01*
X361909Y138500D01*
X361270D01*
Y124000D01*
Y109500D01*
X361909D01*
X365597Y110488D01*
X368903Y112397D01*
X371603Y115097D01*
X373396Y118202D01*
X374092Y118190D01*
X374666Y117980D01*
Y45020D01*
X374092Y44810D01*
X373396Y44798D01*
X371603Y47903D01*
X368903Y50603D01*
X365597Y52512D01*
X361909Y53500D01*
X361270D01*
Y39000D01*
Y24500D01*
X361909D01*
X365597Y25488D01*
X368903Y27397D01*
X371603Y30097D01*
X373396Y33203D01*
X374092Y33190D01*
X374666Y32980D01*
Y-6000D01*
X374666Y-6000D01*
X374660D01*
X374433Y-7724D01*
X373768Y-9330D01*
X372709Y-10709D01*
X371330Y-11768D01*
X369724Y-12433D01*
X368000Y-12660D01*
Y-12666D01*
X366602D01*
X366262Y-11396D01*
X367982Y-10403D01*
X370403Y-7982D01*
X372114Y-5018D01*
X373000Y-1711D01*
Y-1270D01*
X360000D01*
X347000D01*
Y-1711D01*
X347886Y-5018D01*
X349598Y-7982D01*
X352018Y-10403D01*
X353738Y-11396D01*
X353398Y-12666D01*
X276602D01*
X276262Y-11396D01*
X277982Y-10403D01*
X280403Y-7982D01*
X282114Y-5018D01*
X283000Y-1711D01*
Y-1270D01*
X270000D01*
X257000D01*
Y-1711D01*
X257886Y-5018D01*
X259597Y-7982D01*
X262018Y-10403D01*
X263738Y-11396D01*
X263398Y-12666D01*
X186602D01*
X186262Y-11396D01*
X187982Y-10403D01*
X190403Y-7982D01*
X192114Y-5018D01*
X193000Y-1711D01*
Y-1270D01*
X180000D01*
X167000D01*
Y-1711D01*
X167886Y-5018D01*
X169597Y-7982D01*
X172018Y-10403D01*
X173738Y-11396D01*
X173398Y-12666D01*
X96602D01*
X96262Y-11396D01*
X97982Y-10403D01*
X100403Y-7982D01*
X102114Y-5018D01*
X103000Y-1711D01*
Y-1270D01*
X90000D01*
X77000D01*
Y-1711D01*
X77886Y-5018D01*
X79597Y-7982D01*
X82018Y-10403D01*
X83738Y-11396D01*
X83398Y-12666D01*
X6602D01*
X6262Y-11396D01*
X7982Y-10403D01*
X10403Y-7982D01*
X12114Y-5018D01*
X13000Y-1711D01*
Y-1270D01*
X0D01*
X-13000D01*
Y-1711D01*
X-12114Y-5018D01*
X-10403Y-7982D01*
X-7982Y-10403D01*
X-6262Y-11396D01*
X-6602Y-12666D01*
X-6730D01*
X-8000Y-12660D01*
X-8000Y-12660D01*
X-8000Y-12660D01*
X-9724Y-12433D01*
X-11330Y-11768D01*
X-12709Y-10709D01*
X-13768Y-9330D01*
X-14433Y-7724D01*
X-14660Y-6000D01*
X-14666D01*
X-14666Y-6000D01*
Y32980D01*
X-14092Y33190D01*
X-13396Y33203D01*
X-11603Y30097D01*
X-8903Y27397D01*
X-5597Y25488D01*
X-1909Y24500D01*
X-1270D01*
Y39000D01*
Y53500D01*
X-1909D01*
X-5597Y52512D01*
X-8903Y50603D01*
X-11603Y47903D01*
X-13396Y44798D01*
X-14092Y44810D01*
X-14666Y45020D01*
Y117980D01*
X-14092Y118190D01*
X-13396Y118202D01*
X-11603Y115097D01*
X-8903Y112397D01*
X-5597Y110488D01*
X-1909Y109500D01*
X-1270D01*
Y124000D01*
Y138500D01*
X-1909D01*
X-5597Y137512D01*
X-8903Y135603D01*
X-11603Y132903D01*
X-13396Y129797D01*
X-14092Y129810D01*
X-14666Y130020D01*
Y202980D01*
X-14092Y203190D01*
X-13396Y203202D01*
X-11603Y200097D01*
X-8903Y197397D01*
X-5597Y195488D01*
X-1909Y194500D01*
X-1270D01*
Y209000D01*
Y223500D01*
X-1909D01*
X-5597Y222512D01*
X-8903Y220603D01*
X-11603Y217903D01*
X-13396Y214798D01*
X-14092Y214810D01*
X-14666Y215020D01*
Y254000D01*
X-14666Y254000D01*
X-14660D01*
X-14433Y255724D01*
X-13768Y257330D01*
X-12709Y258709D01*
X-11330Y259768D01*
X-9724Y260433D01*
X-8000Y260660D01*
X-8000Y260660D01*
Y260660D01*
X-6730Y260666D01*
X-6602D01*
D02*
G37*
%LPC*%
G36*
X373000Y246730D02*
X361270D01*
Y235000D01*
X361712D01*
X365018Y235886D01*
X367982Y237597D01*
X370403Y240018D01*
X372114Y242982D01*
X373000Y246289D01*
Y246730D01*
D02*
G37*
G36*
X358730D02*
X347000D01*
Y246289D01*
X347886Y242982D01*
X349598Y240018D01*
X352018Y237597D01*
X354982Y235886D01*
X358289Y235000D01*
X358730D01*
Y246730D01*
D02*
G37*
G36*
X283000Y246730D02*
X271270D01*
Y235000D01*
X271712D01*
X275018Y235886D01*
X277982Y237597D01*
X280403Y240018D01*
X282114Y242982D01*
X283000Y246289D01*
Y246730D01*
D02*
G37*
G36*
X268730D02*
X257000D01*
Y246289D01*
X257886Y242982D01*
X259597Y240018D01*
X262018Y237597D01*
X264982Y235886D01*
X268288Y235000D01*
X268730D01*
Y246730D01*
D02*
G37*
G36*
X193000Y246730D02*
X181270D01*
Y235000D01*
X181712D01*
X185018Y235886D01*
X187982Y237597D01*
X190403Y240018D01*
X192114Y242982D01*
X193000Y246289D01*
Y246730D01*
D02*
G37*
G36*
X178730D02*
X167000D01*
Y246289D01*
X167886Y242982D01*
X169597Y240018D01*
X172018Y237597D01*
X174982Y235886D01*
X178288Y235000D01*
X178730D01*
Y246730D01*
D02*
G37*
G36*
X103000Y246730D02*
X91270D01*
Y235000D01*
X91712D01*
X95018Y235886D01*
X97982Y237597D01*
X100403Y240018D01*
X102114Y242982D01*
X103000Y246289D01*
Y246730D01*
D02*
G37*
G36*
X88730D02*
X77000D01*
Y246289D01*
X77886Y242982D01*
X79597Y240018D01*
X82018Y237597D01*
X84982Y235886D01*
X88288Y235000D01*
X88730D01*
Y246730D01*
D02*
G37*
G36*
X13000Y246730D02*
X1270D01*
Y235000D01*
X1711D01*
X5018Y235886D01*
X7982Y237597D01*
X10403Y240018D01*
X12114Y242982D01*
X13000Y246289D01*
Y246730D01*
D02*
G37*
G36*
X-1270D02*
X-13000D01*
Y246289D01*
X-12114Y242982D01*
X-10403Y240018D01*
X-7982Y237597D01*
X-5018Y235886D01*
X-1711Y235000D01*
X-1270D01*
Y246730D01*
D02*
G37*
G36*
X1909Y223500D02*
X1270D01*
Y210270D01*
X14500D01*
Y210909D01*
X13512Y214597D01*
X11603Y217903D01*
X8903Y220603D01*
X5597Y222512D01*
X1909Y223500D01*
D02*
G37*
G36*
X358730Y223500D02*
X358091D01*
X354403Y222512D01*
X351097Y220603D01*
X348397Y217903D01*
X346488Y214597D01*
X345500Y210909D01*
Y210270D01*
X358730D01*
Y223500D01*
D02*
G37*
G36*
X293495Y220000D02*
X291506D01*
X289668Y219239D01*
X288997Y218568D01*
X273000D01*
X271634Y218297D01*
X270477Y217523D01*
X240522Y187568D01*
X174000D01*
Y192500D01*
X162000D01*
Y185500D01*
Y172568D01*
X155478D01*
X154569Y173478D01*
Y197522D01*
X156478Y199431D01*
X171000D01*
X172366Y199703D01*
X173523Y200477D01*
X184478Y211431D01*
X198997D01*
X199668Y210761D01*
X201505Y210000D01*
X203495D01*
X205332Y210761D01*
X206739Y212168D01*
X207500Y214005D01*
Y215994D01*
X206739Y217832D01*
X205332Y219239D01*
X203495Y220000D01*
X201505D01*
X199668Y219239D01*
X198997Y218568D01*
X183000D01*
X181634Y218297D01*
X180477Y217523D01*
X169522Y206569D01*
X155000D01*
X153634Y206297D01*
X152477Y205523D01*
X148477Y201523D01*
X147703Y200366D01*
X147431Y199000D01*
Y172000D01*
X147703Y170634D01*
X148477Y169477D01*
X151453Y166500D01*
X148719Y163766D01*
X147946Y162608D01*
X147674Y161243D01*
Y144757D01*
X147946Y143392D01*
X148719Y142234D01*
X169477Y121477D01*
X170634Y120703D01*
X172000Y120431D01*
X198997D01*
X199668Y119761D01*
X201505Y119000D01*
X203495D01*
X205332Y119761D01*
X206739Y121168D01*
X207500Y123005D01*
Y124994D01*
X206739Y126832D01*
X205332Y128239D01*
X203495Y129000D01*
X201505D01*
X199668Y128239D01*
X198997Y127569D01*
X173478D01*
X154811Y146236D01*
Y159764D01*
X155478Y160431D01*
X162000D01*
Y155270D01*
X168000D01*
X174000D01*
Y155431D01*
X202522D01*
X215431Y142522D01*
Y50978D01*
X202453Y38000D01*
X201505D01*
X199668Y37239D01*
X198261Y35832D01*
X197500Y33995D01*
Y32005D01*
X198261Y30168D01*
X199668Y28761D01*
X201505Y28000D01*
X203495D01*
X205332Y28761D01*
X206739Y30168D01*
X207500Y32005D01*
Y32953D01*
X221523Y46977D01*
X222297Y48134D01*
X222569Y49500D01*
Y144000D01*
X222297Y145366D01*
X221523Y146523D01*
X206523Y161523D01*
X205366Y162297D01*
X204000Y162568D01*
X174000D01*
Y170431D01*
X214522D01*
X234431Y150522D01*
Y68000D01*
X234703Y66634D01*
X235477Y65477D01*
X270477Y30477D01*
X271634Y29703D01*
X273000Y29431D01*
X288997D01*
X289668Y28761D01*
X291506Y28000D01*
X293495D01*
X295332Y28761D01*
X296739Y30168D01*
X297500Y32005D01*
Y33995D01*
X296739Y35832D01*
X295332Y37239D01*
X293495Y38000D01*
X291506D01*
X289668Y37239D01*
X288997Y36569D01*
X274478D01*
X241569Y69478D01*
Y149725D01*
X242742Y150211D01*
X271477Y121477D01*
X272634Y120703D01*
X274000Y120431D01*
X288997D01*
X289668Y119761D01*
X291506Y119000D01*
X293495D01*
X295332Y119761D01*
X296739Y121168D01*
X297500Y123005D01*
Y124994D01*
X296739Y126832D01*
X295332Y128239D01*
X293495Y129000D01*
X291506D01*
X289668Y128239D01*
X288997Y127569D01*
X275478D01*
X223789Y179258D01*
X224275Y180431D01*
X242000D01*
X243366Y180703D01*
X244523Y181477D01*
X274478Y211431D01*
X288997D01*
X289668Y210761D01*
X291506Y210000D01*
X293495D01*
X295332Y210761D01*
X296739Y212168D01*
X297500Y214005D01*
Y215994D01*
X296739Y217832D01*
X295332Y219239D01*
X293495Y220000D01*
D02*
G37*
G36*
X199000Y203000D02*
X194270D01*
Y200270D01*
X199000D01*
Y203000D01*
D02*
G37*
G36*
X191730D02*
X187000D01*
Y200270D01*
X191730D01*
Y203000D01*
D02*
G37*
G36*
X199000Y197730D02*
X194270D01*
Y195000D01*
X199000D01*
Y197730D01*
D02*
G37*
G36*
X191730D02*
X187000D01*
Y195000D01*
X191730D01*
Y197730D01*
D02*
G37*
G36*
X14500Y207730D02*
X1270D01*
Y194500D01*
X1909D01*
X5597Y195488D01*
X8903Y197397D01*
X11603Y200097D01*
X13512Y203403D01*
X14500Y207091D01*
Y207730D01*
D02*
G37*
G36*
X358730Y207730D02*
X345500D01*
Y207091D01*
X346488Y203403D01*
X348397Y200097D01*
X351097Y197397D01*
X354403Y195488D01*
X358091Y194500D01*
X358730D01*
Y207730D01*
D02*
G37*
G36*
X271712Y183000D02*
X271270D01*
Y171270D01*
X283000D01*
Y171712D01*
X282114Y175018D01*
X280403Y177982D01*
X277982Y180403D01*
X275018Y182114D01*
X271712Y183000D01*
D02*
G37*
G36*
X268730D02*
X268288D01*
X264982Y182114D01*
X262018Y180403D01*
X259597Y177982D01*
X257886Y175018D01*
X257000Y171712D01*
Y171270D01*
X268730D01*
Y183000D01*
D02*
G37*
G36*
X361712D02*
X361270D01*
Y171270D01*
X373000D01*
Y171712D01*
X372114Y175018D01*
X370403Y177982D01*
X367982Y180403D01*
X365018Y182114D01*
X361712Y183000D01*
D02*
G37*
G36*
X1711D02*
X1270D01*
Y171270D01*
X13000D01*
Y171712D01*
X12114Y175018D01*
X10403Y177982D01*
X7982Y180403D01*
X5018Y182114D01*
X1711Y183000D01*
D02*
G37*
G36*
X-1270D02*
X-1711D01*
X-5018Y182114D01*
X-7982Y180403D01*
X-10403Y177982D01*
X-12114Y175018D01*
X-13000Y171712D01*
Y171270D01*
X-1270D01*
Y183000D01*
D02*
G37*
G36*
X358730D02*
X358289D01*
X354982Y182114D01*
X352018Y180403D01*
X349598Y177982D01*
X347886Y175018D01*
X347000Y171712D01*
Y171270D01*
X358730D01*
Y183000D01*
D02*
G37*
G36*
X91712D02*
X91270D01*
Y171270D01*
X103000D01*
Y171712D01*
X102114Y175018D01*
X100403Y177982D01*
X97982Y180403D01*
X95018Y182114D01*
X91712Y183000D01*
D02*
G37*
G36*
X88730D02*
X88288D01*
X84982Y182114D01*
X82018Y180403D01*
X79597Y177982D01*
X77886Y175018D01*
X77000Y171712D01*
Y171270D01*
X88730D01*
Y183000D01*
D02*
G37*
G36*
X373000Y168730D02*
X361270D01*
Y157000D01*
X361712D01*
X365018Y157886D01*
X367982Y159597D01*
X370403Y162018D01*
X372114Y164982D01*
X373000Y168288D01*
Y168730D01*
D02*
G37*
G36*
X358730D02*
X347000D01*
Y168288D01*
X347886Y164982D01*
X349598Y162018D01*
X352018Y159597D01*
X354982Y157886D01*
X358289Y157000D01*
X358730D01*
Y168730D01*
D02*
G37*
G36*
X283000Y168730D02*
X271270D01*
Y157000D01*
X271712D01*
X275018Y157886D01*
X277982Y159597D01*
X280403Y162018D01*
X282114Y164982D01*
X283000Y168288D01*
Y168730D01*
D02*
G37*
G36*
X268730D02*
X257000D01*
Y168288D01*
X257886Y164982D01*
X259597Y162018D01*
X262018Y159597D01*
X264982Y157886D01*
X268288Y157000D01*
X268730D01*
Y168730D01*
D02*
G37*
G36*
X103000Y168730D02*
X91270D01*
Y157000D01*
X91712D01*
X95018Y157886D01*
X97982Y159597D01*
X100403Y162018D01*
X102114Y164982D01*
X103000Y168288D01*
Y168730D01*
D02*
G37*
G36*
X88730D02*
X77000D01*
Y168288D01*
X77886Y164982D01*
X79597Y162018D01*
X82018Y159597D01*
X84982Y157886D01*
X88288Y157000D01*
X88730D01*
Y168730D01*
D02*
G37*
G36*
X13000Y168730D02*
X1270D01*
Y157000D01*
X1711D01*
X5018Y157886D01*
X7982Y159597D01*
X10403Y162018D01*
X12114Y164982D01*
X13000Y168288D01*
Y168730D01*
D02*
G37*
G36*
X-1270D02*
X-13000D01*
Y168288D01*
X-12114Y164982D01*
X-10403Y162018D01*
X-7982Y159597D01*
X-5018Y157886D01*
X-1711Y157000D01*
X-1270D01*
Y168730D01*
D02*
G37*
G36*
X174000Y152730D02*
X169270D01*
Y150500D01*
X174000D01*
Y152730D01*
D02*
G37*
G36*
X166730D02*
X162000D01*
Y150500D01*
X166730D01*
Y152730D01*
D02*
G37*
G36*
X199000Y148000D02*
X194270D01*
Y145270D01*
X199000D01*
Y148000D01*
D02*
G37*
G36*
X191730D02*
X187000D01*
Y145270D01*
X191730D01*
Y148000D01*
D02*
G37*
G36*
X199000Y142730D02*
X194270D01*
Y140000D01*
X199000D01*
Y142730D01*
D02*
G37*
G36*
X191730D02*
X187000D01*
Y140000D01*
X191730D01*
Y142730D01*
D02*
G37*
G36*
X1909Y138500D02*
X1270D01*
Y125270D01*
X14500D01*
Y125909D01*
X13512Y129597D01*
X11603Y132903D01*
X8903Y135603D01*
X5597Y137512D01*
X1909Y138500D01*
D02*
G37*
G36*
X358730D02*
X358091D01*
X354403Y137512D01*
X351097Y135603D01*
X348397Y132903D01*
X346488Y129597D01*
X345500Y125909D01*
Y125270D01*
X358730D01*
Y138500D01*
D02*
G37*
G36*
Y122730D02*
X345500D01*
Y122091D01*
X346488Y118403D01*
X348397Y115097D01*
X351097Y112397D01*
X354403Y110488D01*
X358091Y109500D01*
X358730D01*
Y122730D01*
D02*
G37*
G36*
X14500D02*
X1270D01*
Y109500D01*
X1909D01*
X5597Y110488D01*
X8903Y112397D01*
X11603Y115097D01*
X13512Y118403D01*
X14500Y122091D01*
Y122730D01*
D02*
G37*
G36*
X199000Y108000D02*
X194270D01*
Y105270D01*
X199000D01*
Y108000D01*
D02*
G37*
G36*
X191730D02*
X187000D01*
Y105270D01*
X191730D01*
Y108000D01*
D02*
G37*
G36*
X199000Y102730D02*
X194270D01*
Y100000D01*
X199000D01*
Y102730D01*
D02*
G37*
G36*
X191730D02*
X187000D01*
Y100000D01*
X191730D01*
Y102730D01*
D02*
G37*
G36*
X91712Y91000D02*
X91270D01*
Y79270D01*
X103000D01*
Y79711D01*
X102114Y83018D01*
X100403Y85982D01*
X97982Y88403D01*
X95018Y90114D01*
X91712Y91000D01*
D02*
G37*
G36*
X88730D02*
X88288D01*
X84982Y90114D01*
X82018Y88403D01*
X79597Y85982D01*
X77886Y83018D01*
X77000Y79711D01*
Y79270D01*
X88730D01*
Y91000D01*
D02*
G37*
G36*
X361712D02*
X361270D01*
Y79270D01*
X373000D01*
Y79711D01*
X372114Y83018D01*
X370403Y85982D01*
X367982Y88403D01*
X365018Y90114D01*
X361712Y91000D01*
D02*
G37*
G36*
X1711D02*
X1270D01*
Y79270D01*
X13000D01*
Y79711D01*
X12114Y83018D01*
X10403Y85982D01*
X7982Y88403D01*
X5018Y90114D01*
X1711Y91000D01*
D02*
G37*
G36*
X358730D02*
X358289D01*
X354982Y90114D01*
X352018Y88403D01*
X349598Y85982D01*
X347886Y83018D01*
X347000Y79711D01*
Y79270D01*
X358730D01*
Y91000D01*
D02*
G37*
G36*
X-1270D02*
X-1711D01*
X-5018Y90114D01*
X-7982Y88403D01*
X-10403Y85982D01*
X-12114Y83018D01*
X-13000Y79711D01*
Y79270D01*
X-1270D01*
Y91000D01*
D02*
G37*
G36*
X271712D02*
X271270D01*
Y79270D01*
X283000D01*
Y79711D01*
X282114Y83018D01*
X280403Y85982D01*
X277982Y88403D01*
X275018Y90114D01*
X271712Y91000D01*
D02*
G37*
G36*
X268730D02*
X268288D01*
X264982Y90114D01*
X262018Y88403D01*
X259597Y85982D01*
X257886Y83018D01*
X257000Y79711D01*
Y79270D01*
X268730D01*
Y91000D01*
D02*
G37*
G36*
X373000Y76730D02*
X361270D01*
Y65000D01*
X361712D01*
X365018Y65886D01*
X367982Y67597D01*
X370403Y70018D01*
X372114Y72982D01*
X373000Y76288D01*
Y76730D01*
D02*
G37*
G36*
X358730D02*
X347000D01*
Y76288D01*
X347886Y72982D01*
X349598Y70018D01*
X352018Y67597D01*
X354982Y65886D01*
X358289Y65000D01*
X358730D01*
Y76730D01*
D02*
G37*
G36*
X283000Y76730D02*
X271270D01*
Y65000D01*
X271712D01*
X275018Y65886D01*
X277982Y67597D01*
X280403Y70018D01*
X282114Y72982D01*
X283000Y76288D01*
Y76730D01*
D02*
G37*
G36*
X268730D02*
X257000D01*
Y76288D01*
X257886Y72982D01*
X259597Y70018D01*
X262018Y67597D01*
X264982Y65886D01*
X268288Y65000D01*
X268730D01*
Y76730D01*
D02*
G37*
G36*
X103000Y76730D02*
X91270D01*
Y65000D01*
X91712D01*
X95018Y65886D01*
X97982Y67597D01*
X100403Y70018D01*
X102114Y72982D01*
X103000Y76288D01*
Y76730D01*
D02*
G37*
G36*
X88730D02*
X77000D01*
Y76288D01*
X77886Y72982D01*
X79597Y70018D01*
X82018Y67597D01*
X84982Y65886D01*
X88288Y65000D01*
X88730D01*
Y76730D01*
D02*
G37*
G36*
X13000Y76730D02*
X1270D01*
Y65000D01*
X1711D01*
X5018Y65886D01*
X7982Y67597D01*
X10403Y70018D01*
X12114Y72982D01*
X13000Y76288D01*
Y76730D01*
D02*
G37*
G36*
X-1270D02*
X-13000D01*
Y76288D01*
X-12114Y72982D01*
X-10403Y70018D01*
X-7982Y67597D01*
X-5018Y65886D01*
X-1711Y65000D01*
X-1270D01*
Y76730D01*
D02*
G37*
G36*
X22995Y220000D02*
X21005D01*
X19168Y219239D01*
X17761Y217832D01*
X17000Y215995D01*
Y214005D01*
X17761Y212168D01*
X19168Y210761D01*
X21005Y210000D01*
X21953D01*
X43431Y188522D01*
Y163000D01*
X43703Y161634D01*
X44477Y160477D01*
X133477Y71477D01*
X134634Y70703D01*
X136000Y70431D01*
X142725D01*
X143211Y69258D01*
X130522Y56569D01*
X61478D01*
X46569Y71478D01*
Y104000D01*
X46297Y105366D01*
X45523Y106523D01*
X28000Y124047D01*
Y124995D01*
X27239Y126832D01*
X25832Y128239D01*
X23995Y129000D01*
X22005D01*
X20168Y128239D01*
X18761Y126832D01*
X18000Y124995D01*
Y123005D01*
X18761Y121168D01*
X20168Y119761D01*
X22005Y119000D01*
X22953D01*
X39431Y102522D01*
Y70000D01*
X39703Y68634D01*
X40477Y67477D01*
X57477Y50477D01*
X57562Y49609D01*
X44522Y36569D01*
X25503D01*
X24832Y37239D01*
X22995Y38000D01*
X21005D01*
X19168Y37239D01*
X17761Y35832D01*
X17000Y33995D01*
Y32005D01*
X17761Y30168D01*
X19168Y28761D01*
X21005Y28000D01*
X22995D01*
X24832Y28761D01*
X25503Y29431D01*
X46000D01*
X47366Y29703D01*
X48523Y30477D01*
X62478Y44431D01*
X135000D01*
X136366Y44703D01*
X137523Y45477D01*
X152478Y60431D01*
X162000D01*
Y60270D01*
X168000D01*
X174000D01*
Y65500D01*
Y75431D01*
X176522D01*
X177431Y74522D01*
Y36478D01*
X161522Y20569D01*
X130978D01*
X117750Y33797D01*
Y34745D01*
X116989Y36582D01*
X115582Y37989D01*
X113745Y38750D01*
X111756D01*
X109918Y37989D01*
X108511Y36582D01*
X107750Y34745D01*
Y32755D01*
X108511Y30918D01*
X109918Y29511D01*
X111756Y28750D01*
X112703D01*
X126977Y14477D01*
X128134Y13703D01*
X129500Y13431D01*
X163000D01*
X164366Y13703D01*
X165523Y14477D01*
X183523Y32477D01*
X184297Y33634D01*
X184569Y35000D01*
Y76000D01*
X184297Y77366D01*
X183523Y78523D01*
X180523Y81523D01*
X179366Y82297D01*
X178000Y82569D01*
X174000D01*
Y97500D01*
X162000D01*
Y92569D01*
X152478D01*
X135569Y109478D01*
Y195500D01*
X135297Y196866D01*
X134523Y198023D01*
X117500Y215047D01*
Y215994D01*
X116739Y217832D01*
X115332Y219239D01*
X113495Y220000D01*
X111505D01*
X109668Y219239D01*
X108261Y217832D01*
X107500Y215994D01*
Y214005D01*
X108261Y212168D01*
X109668Y210761D01*
X111505Y210000D01*
X112453D01*
X128431Y194022D01*
Y108000D01*
X128578Y107265D01*
X127407Y106640D01*
X116069Y117978D01*
Y120498D01*
X116739Y121168D01*
X117500Y123005D01*
Y124994D01*
X116739Y126832D01*
X115332Y128239D01*
X113495Y129000D01*
X111505D01*
X109668Y128239D01*
X108261Y126832D01*
X107500Y124994D01*
Y123005D01*
X108261Y121168D01*
X108931Y120498D01*
Y116500D01*
X109203Y115134D01*
X109977Y113977D01*
X142477Y81477D01*
X143634Y80703D01*
X145000Y80431D01*
X162000D01*
Y77568D01*
X137478D01*
X50569Y164478D01*
Y190000D01*
X50297Y191366D01*
X49523Y192523D01*
X27000Y215047D01*
Y215995D01*
X26239Y217832D01*
X24832Y219239D01*
X22995Y220000D01*
D02*
G37*
G36*
X174000Y57730D02*
X169270D01*
Y55500D01*
X174000D01*
Y57730D01*
D02*
G37*
G36*
X166730D02*
X162000D01*
Y55500D01*
X166730D01*
Y57730D01*
D02*
G37*
G36*
X199000Y53000D02*
X194270D01*
Y50270D01*
X199000D01*
Y53000D01*
D02*
G37*
G36*
X191730D02*
X187000D01*
Y50270D01*
X191730D01*
Y53000D01*
D02*
G37*
G36*
X199000Y47730D02*
X194270D01*
Y45000D01*
X199000D01*
Y47730D01*
D02*
G37*
G36*
X191730D02*
X187000D01*
Y45000D01*
X191730D01*
Y47730D01*
D02*
G37*
G36*
X1909Y53500D02*
X1270D01*
Y40270D01*
X14500D01*
Y40909D01*
X13512Y44597D01*
X11603Y47903D01*
X8903Y50603D01*
X5597Y52512D01*
X1909Y53500D01*
D02*
G37*
G36*
X358730D02*
X358091D01*
X354403Y52512D01*
X351097Y50603D01*
X348397Y47903D01*
X346488Y44597D01*
X345500Y40909D01*
Y40270D01*
X358730D01*
Y53500D01*
D02*
G37*
G36*
Y37730D02*
X345500D01*
Y37091D01*
X346488Y33403D01*
X348397Y30097D01*
X351097Y27397D01*
X354403Y25488D01*
X358091Y24500D01*
X358730D01*
Y37730D01*
D02*
G37*
G36*
X14500D02*
X1270D01*
Y24500D01*
X1909D01*
X5597Y25488D01*
X8903Y27397D01*
X11603Y30097D01*
X13512Y33403D01*
X14500Y37091D01*
Y37730D01*
D02*
G37*
G36*
X271712Y13000D02*
X271270D01*
Y1270D01*
X283000D01*
Y1711D01*
X282114Y5018D01*
X280403Y7982D01*
X277982Y10403D01*
X275018Y12114D01*
X271712Y13000D01*
D02*
G37*
G36*
X268730D02*
X268288D01*
X264982Y12114D01*
X262018Y10403D01*
X259597Y7982D01*
X257886Y5018D01*
X257000Y1711D01*
Y1270D01*
X268730D01*
Y13000D01*
D02*
G37*
G36*
X361712D02*
X361270D01*
Y1270D01*
X373000D01*
Y1711D01*
X372114Y5018D01*
X370403Y7982D01*
X367982Y10403D01*
X365018Y12114D01*
X361712Y13000D01*
D02*
G37*
G36*
X1711D02*
X1270D01*
Y1270D01*
X13000D01*
Y1711D01*
X12114Y5018D01*
X10403Y7982D01*
X7982Y10403D01*
X5018Y12114D01*
X1711Y13000D01*
D02*
G37*
G36*
X181712Y13000D02*
X181270D01*
Y1270D01*
X193000D01*
Y1711D01*
X192114Y5018D01*
X190403Y7982D01*
X187982Y10402D01*
X185018Y12114D01*
X181712Y13000D01*
D02*
G37*
G36*
X178730D02*
X178288D01*
X174982Y12114D01*
X172018Y10402D01*
X169597Y7982D01*
X167886Y5018D01*
X167000Y1711D01*
Y1270D01*
X178730D01*
Y13000D01*
D02*
G37*
G36*
X358730Y13000D02*
X358289D01*
X354982Y12114D01*
X352018Y10403D01*
X349598Y7982D01*
X347886Y5018D01*
X347000Y1711D01*
Y1270D01*
X358730D01*
Y13000D01*
D02*
G37*
G36*
X-1270D02*
X-1711D01*
X-5018Y12114D01*
X-7982Y10403D01*
X-10403Y7982D01*
X-12114Y5018D01*
X-13000Y1711D01*
Y1270D01*
X-1270D01*
Y13000D01*
D02*
G37*
G36*
X91712D02*
X91270D01*
Y1270D01*
X103000D01*
Y1711D01*
X102114Y5018D01*
X100403Y7982D01*
X97982Y10403D01*
X95018Y12114D01*
X91712Y13000D01*
D02*
G37*
G36*
X88730D02*
X88288D01*
X84982Y12114D01*
X82018Y10403D01*
X79597Y7982D01*
X77886Y5018D01*
X77000Y1711D01*
Y1270D01*
X88730D01*
Y13000D01*
D02*
G37*
%LPD*%
D10*
X112750Y33750D02*
X129500Y17000D01*
X163000D01*
X181000Y35000D01*
Y76000D01*
X112750Y33750D02*
X113000Y34000D01*
X242000Y184000D02*
X273000Y215000D01*
X292500D01*
X168000Y184000D02*
X242000D01*
X219000Y179000D02*
X274000Y124000D01*
X292500D01*
X168000Y179000D02*
X219000D01*
X168000Y174000D02*
X216000D01*
X238000Y68000D02*
Y152000D01*
X216000Y174000D02*
X238000Y152000D01*
Y68000D02*
X273000Y33000D01*
X292500D01*
X151000Y172000D02*
Y199000D01*
X155000Y203000D02*
X171000D01*
X151000Y199000D02*
X155000Y203000D01*
X171000D02*
X183000Y215000D01*
X202500D01*
X151000Y172000D02*
X154000Y169000D01*
X168000D01*
X219000Y49500D02*
Y144000D01*
X202500Y33000D02*
X219000Y49500D01*
X204000Y159000D02*
X219000Y144000D01*
X151243Y144757D02*
X172000Y124000D01*
X202500D01*
X151243Y144757D02*
Y161243D01*
X154000Y164000D01*
X168000D01*
Y159000D02*
X204000D01*
X112500Y215000D02*
X132000Y195500D01*
Y108000D02*
Y195500D01*
Y108000D02*
X151000Y89000D01*
X168000D01*
X145000Y84000D02*
X168000D01*
X112500Y116500D02*
Y124000D01*
Y116500D02*
X145000Y84000D01*
X178000Y79000D02*
X181000Y76000D01*
X135000Y48000D02*
X151000Y64000D01*
X61000Y48000D02*
X135000D01*
X46000Y33000D02*
X61000Y48000D01*
X168000Y79000D02*
X178000D01*
X47000Y163000D02*
X136000Y74000D01*
X168000D01*
X47000Y163000D02*
Y190000D01*
X22000Y215000D02*
X47000Y190000D01*
X22000Y215000D02*
X22000D01*
X132000Y53000D02*
X148000Y69000D01*
X168000D01*
X60000Y53000D02*
X132000D01*
X43000Y70000D02*
Y104000D01*
X23000Y124000D02*
X43000Y104000D01*
Y70000D02*
X60000Y53000D01*
X151000Y64000D02*
X168000D01*
X22000Y33000D02*
X46000D01*
D11*
X168000Y146000D02*
Y154000D01*
Y51000D02*
Y59000D01*
X168000Y59000D01*
D18*
X360000Y39000D02*
D03*
Y124000D02*
D03*
Y209000D02*
D03*
X0Y39000D02*
D03*
Y124000D02*
D03*
Y209000D02*
D03*
D19*
X360000Y0D02*
D03*
Y78000D02*
D03*
Y170000D02*
D03*
Y248000D02*
D03*
X270000D02*
D03*
Y170000D02*
D03*
Y78000D02*
D03*
Y0D02*
D03*
X180000Y-0D02*
D03*
X90000Y0D02*
D03*
Y78000D02*
D03*
Y170000D02*
D03*
X180000Y248000D02*
D03*
X90000D02*
D03*
X0Y0D02*
D03*
Y78000D02*
D03*
Y170000D02*
D03*
Y248000D02*
D03*
D20*
X157500Y33000D02*
D03*
X168000Y146000D02*
D03*
X67500Y33000D02*
D03*
Y124000D02*
D03*
Y215000D02*
D03*
X337500Y33000D02*
D03*
X247500D02*
D03*
X157500Y124000D02*
D03*
X247500D02*
D03*
X337500D02*
D03*
Y215000D02*
D03*
X247500D02*
D03*
X157500D02*
D03*
X112500Y124000D02*
D03*
X202500Y33000D02*
D03*
X292500D02*
D03*
X202500Y124000D02*
D03*
X292500D02*
D03*
Y215000D02*
D03*
X202500D02*
D03*
X112500D02*
D03*
X168000Y51000D02*
D03*
X112750Y33750D02*
D03*
X22000Y215000D02*
D03*
X23000Y124000D02*
D03*
X22000Y33000D02*
D03*
D21*
X193000Y104000D02*
D03*
Y49000D02*
D03*
X193000Y199000D02*
D03*
Y144000D02*
D03*
D22*
X168000Y94000D02*
D03*
Y89000D02*
D03*
Y84000D02*
D03*
Y79000D02*
D03*
Y74000D02*
D03*
Y69000D02*
D03*
Y64000D02*
D03*
Y59000D02*
D03*
X168000Y154000D02*
D03*
Y189000D02*
D03*
Y169000D02*
D03*
Y164000D02*
D03*
Y159000D02*
D03*
Y179000D02*
D03*
Y174000D02*
D03*
Y184000D02*
D03*
M02*
