G04*
G04 #@! TF.GenerationSoftware,Altium Limited,Altium Designer,26.5.0 (11)*
G04*
G04 Layer_Physical_Order=2*
G04 Layer_Color=16711680*
G04 Board_Origin=30663386|31124408*
%FSLAX44Y44*%
%MOMM*%
G71*
G04*
G04 #@! TF.SameCoordinates,90DB835B-561C-4088-83E5-6E4880DCFF8A*
G04*
G04*
G04 #@! TF.FilePolarity,Positive*
G04*
G01*
G75*
%ADD10C,0.3000*%
%ADD11C,0.2500*%
%ADD18C,2.2000*%
%ADD19C,2.5000*%
%ADD20C,0.6000*%
%ADD21R,0.8000X0.4000*%
%ADD22R,0.8000X0.3000*%
G36*
X-5840Y168666D02*
X-5602Y167777D01*
X-7982Y166402D01*
X-10403Y163982D01*
X-12114Y161018D01*
X-13000Y157711D01*
Y157270D01*
X-0D01*
X13000D01*
Y157711D01*
X12114Y161018D01*
X10403Y163982D01*
X7982Y166402D01*
X5602Y167777D01*
X5840Y168666D01*
X84160D01*
X84398Y167777D01*
X82018Y166402D01*
X79597Y163982D01*
X77886Y161018D01*
X77000Y157711D01*
Y157270D01*
X90000D01*
X103000D01*
Y157711D01*
X102114Y161018D01*
X100403Y163982D01*
X97982Y166402D01*
X95602Y167777D01*
X95840Y168666D01*
X174160Y168666D01*
X174398Y167777D01*
X172018Y166402D01*
X169597Y163982D01*
X167886Y161018D01*
X167000Y157711D01*
Y157270D01*
X180000D01*
Y156000D01*
D01*
Y157270D01*
X193000D01*
Y157711D01*
X192114Y161018D01*
X190403Y163982D01*
X187982Y166402D01*
X185602Y167777D01*
X185840Y168666D01*
X264160D01*
X264398Y167777D01*
X262018Y166402D01*
X259597Y163982D01*
X257886Y161018D01*
X257000Y157711D01*
Y157270D01*
X270000D01*
X283000D01*
Y157711D01*
X282114Y161018D01*
X280403Y163982D01*
X277982Y166402D01*
X275602Y167777D01*
X275840Y168666D01*
X278000D01*
Y168660D01*
X279724Y168433D01*
X281330Y167768D01*
X282709Y166709D01*
X283768Y165330D01*
X284433Y163724D01*
X284660Y162000D01*
X284666D01*
X284666Y162000D01*
Y121724D01*
X283777Y121607D01*
X283512Y122597D01*
X281603Y125903D01*
X278903Y128603D01*
X275597Y130512D01*
X271909Y131500D01*
X271270D01*
Y117000D01*
Y102500D01*
X271909D01*
X275597Y103488D01*
X278903Y105397D01*
X281603Y108097D01*
X283512Y111403D01*
X283777Y112392D01*
X284666Y112275D01*
Y43725D01*
X283777Y43608D01*
X283512Y44597D01*
X281603Y47903D01*
X278903Y50603D01*
X275597Y52512D01*
X271909Y53500D01*
X271270D01*
Y39000D01*
Y24500D01*
X271909D01*
X275597Y25488D01*
X278903Y27397D01*
X281603Y30097D01*
X283512Y33403D01*
X283777Y34393D01*
X284666Y34276D01*
Y-6000D01*
X284666Y-6000D01*
X284660D01*
X284433Y-7724D01*
X283768Y-9330D01*
X282709Y-10709D01*
X281330Y-11768D01*
X279724Y-12433D01*
X278000Y-12660D01*
Y-12666D01*
X275840D01*
X275602Y-11777D01*
X277982Y-10403D01*
X280403Y-7982D01*
X282114Y-5018D01*
X283000Y-1711D01*
Y-1270D01*
X270000D01*
X257000D01*
Y-1711D01*
X257886Y-5018D01*
X259597Y-7982D01*
X262018Y-10403D01*
X264398Y-11777D01*
X264160Y-12666D01*
X185840D01*
X185602Y-11777D01*
X187982Y-10403D01*
X190403Y-7982D01*
X192114Y-5018D01*
X193000Y-1711D01*
Y-1270D01*
X180000D01*
X167000D01*
Y-1711D01*
X167886Y-5018D01*
X169597Y-7982D01*
X172018Y-10403D01*
X174398Y-11777D01*
X174160Y-12666D01*
X95840Y-12666D01*
X95602Y-11777D01*
X97982Y-10403D01*
X100403Y-7982D01*
X102114Y-5018D01*
X103000Y-1711D01*
Y-1270D01*
X90000D01*
X77000D01*
Y-1711D01*
X77886Y-5018D01*
X79597Y-7982D01*
X82018Y-10403D01*
X84398Y-11777D01*
X84160Y-12666D01*
X5840D01*
X5602Y-11777D01*
X7982Y-10403D01*
X10403Y-7982D01*
X12114Y-5018D01*
X13000Y-1711D01*
Y-1270D01*
X0D01*
X-13000D01*
Y-1711D01*
X-12114Y-5018D01*
X-10403Y-7982D01*
X-7982Y-10403D01*
X-5602Y-11777D01*
X-5840Y-12666D01*
X-7111D01*
X-8000Y-12660D01*
X-8000Y-12660D01*
X-8000Y-12660D01*
X-9724Y-12433D01*
X-11330Y-11768D01*
X-12709Y-10709D01*
X-13768Y-9330D01*
X-14433Y-7724D01*
X-14660Y-6000D01*
X-14666D01*
X-14666Y-6000D01*
Y34276D01*
X-13777Y34393D01*
X-13512Y33403D01*
X-11603Y30097D01*
X-8903Y27397D01*
X-5597Y25488D01*
X-1909Y24500D01*
X-1270D01*
Y39000D01*
Y53500D01*
X-1909D01*
X-5597Y52512D01*
X-8903Y50603D01*
X-11603Y47903D01*
X-13512Y44597D01*
X-13777Y43608D01*
X-14666Y43725D01*
Y112275D01*
X-13777Y112392D01*
X-13512Y111403D01*
X-11603Y108097D01*
X-8903Y105397D01*
X-5597Y103488D01*
X-1909Y102500D01*
X-1270D01*
Y117000D01*
Y131500D01*
X-1909D01*
X-5597Y130512D01*
X-8903Y128603D01*
X-11603Y125903D01*
X-13512Y122597D01*
X-13777Y121607D01*
X-14666Y121724D01*
Y162000D01*
X-14666Y162000D01*
X-14660D01*
X-14433Y163724D01*
X-13768Y165330D01*
X-12709Y166709D01*
X-11330Y167768D01*
X-9724Y168433D01*
X-8000Y168660D01*
X-8000Y168660D01*
Y168660D01*
X-7111Y168666D01*
X-5840D01*
D02*
G37*
%LPC*%
G36*
X283000Y154730D02*
X271270D01*
Y143000D01*
X271712D01*
X275018Y143886D01*
X277982Y145597D01*
X280403Y148018D01*
X282114Y150982D01*
X283000Y154289D01*
Y154730D01*
D02*
G37*
G36*
X268730D02*
X257000D01*
Y154289D01*
X257886Y150982D01*
X259597Y148018D01*
X262018Y145597D01*
X264982Y143886D01*
X268288Y143000D01*
X268730D01*
Y154730D01*
D02*
G37*
G36*
X103000D02*
X91270D01*
Y143000D01*
X91712D01*
X95018Y143886D01*
X97982Y145597D01*
X100403Y148018D01*
X102114Y150982D01*
X103000Y154289D01*
Y154730D01*
D02*
G37*
G36*
X88730D02*
X77000D01*
Y154289D01*
X77886Y150982D01*
X79597Y148018D01*
X82018Y145597D01*
X84982Y143886D01*
X88288Y143000D01*
X88730D01*
Y154730D01*
D02*
G37*
G36*
X13000Y154730D02*
X1270D01*
Y143000D01*
X1711D01*
X5018Y143886D01*
X7982Y145597D01*
X10403Y148018D01*
X12114Y150982D01*
X13000Y154289D01*
Y154730D01*
D02*
G37*
G36*
X-1270D02*
X-13000D01*
Y154289D01*
X-12114Y150982D01*
X-10403Y148018D01*
X-7982Y145597D01*
X-5018Y143886D01*
X-1711Y143000D01*
X-1270D01*
Y154730D01*
D02*
G37*
G36*
X193000D02*
X181270D01*
Y143000D01*
X181712D01*
X185018Y143886D01*
X187982Y145597D01*
X190403Y148018D01*
X192114Y150982D01*
X193000Y154288D01*
Y154730D01*
D02*
G37*
G36*
X178730D02*
X167000D01*
Y154288D01*
X167886Y150982D01*
X169597Y148018D01*
X172018Y145597D01*
X174982Y143886D01*
X178288Y143000D01*
X178730D01*
Y154730D01*
D02*
G37*
G36*
X23995Y129000D02*
X22005D01*
X20168Y128239D01*
X18761Y126832D01*
X18000Y124995D01*
Y123005D01*
X18761Y121168D01*
X20168Y119761D01*
X22005Y119000D01*
X22953D01*
X34431Y107522D01*
Y81000D01*
X34703Y79634D01*
X35477Y78477D01*
X60477Y53477D01*
X60505Y53458D01*
X60236Y52569D01*
X38000D01*
X36634Y52297D01*
X35477Y51523D01*
X21953Y38000D01*
X21005D01*
X19168Y37239D01*
X17761Y35832D01*
X17000Y33995D01*
Y32005D01*
X17761Y30168D01*
X19168Y28761D01*
X21005Y28000D01*
X22995D01*
X24832Y28761D01*
X26239Y30168D01*
X27000Y32005D01*
Y32953D01*
X39478Y45431D01*
X98000D01*
X99366Y45703D01*
X100523Y46477D01*
X114179Y60132D01*
X115000Y59792D01*
Y57500D01*
X119730D01*
Y61000D01*
X122270D01*
Y57500D01*
X127000D01*
X127431Y56790D01*
Y46478D01*
X118272Y37319D01*
X116252D01*
X115582Y37989D01*
X113745Y38750D01*
X111756D01*
X109918Y37989D01*
X108511Y36582D01*
X107750Y34745D01*
Y32755D01*
X108511Y30918D01*
X109918Y29511D01*
X111756Y28750D01*
X113745D01*
X115582Y29511D01*
X116252Y30181D01*
X119750D01*
X121116Y30453D01*
X122273Y31227D01*
X133523Y42477D01*
X134297Y43634D01*
X134569Y45000D01*
Y74243D01*
X134297Y75608D01*
X133523Y76766D01*
X131766Y78523D01*
X130608Y79297D01*
X129243Y79569D01*
X127000D01*
Y82431D01*
X135522D01*
X187477Y30477D01*
X188634Y29703D01*
X190000Y29431D01*
X198997D01*
X199668Y28761D01*
X201505Y28000D01*
X203495D01*
X205332Y28761D01*
X206739Y30168D01*
X207500Y32005D01*
Y33995D01*
X206739Y35832D01*
X205332Y37239D01*
X203495Y38000D01*
X201505D01*
X199668Y37239D01*
X198997Y36569D01*
X191478D01*
X141437Y86610D01*
X141777Y87431D01*
X154000D01*
X155366Y87703D01*
X156523Y88477D01*
X188478Y120431D01*
X198997D01*
X199668Y119761D01*
X201505Y119000D01*
X203495D01*
X205332Y119761D01*
X206739Y121168D01*
X207500Y123005D01*
Y124994D01*
X206739Y126832D01*
X205332Y128239D01*
X203495Y129000D01*
X201505D01*
X199668Y128239D01*
X198997Y127569D01*
X187000D01*
X185634Y127297D01*
X184477Y126523D01*
X152522Y94569D01*
X127000D01*
Y99500D01*
X115000D01*
Y92500D01*
Y84569D01*
X113569D01*
Y119031D01*
X115332Y119761D01*
X116739Y121168D01*
X117500Y123005D01*
Y124994D01*
X116739Y126832D01*
X115332Y128239D01*
X113495Y129000D01*
X111505D01*
X109668Y128239D01*
X108261Y126832D01*
X107500Y124994D01*
Y123235D01*
X107477Y123212D01*
X106703Y122054D01*
X106431Y120688D01*
Y82757D01*
X106703Y81392D01*
X107477Y80234D01*
X109234Y78477D01*
X110392Y77703D01*
X111757Y77431D01*
X115000D01*
Y74569D01*
X110000D01*
X108634Y74297D01*
X107477Y73523D01*
X93522Y59569D01*
X64478D01*
X41569Y82478D01*
Y109000D01*
X41297Y110366D01*
X40523Y111523D01*
X28000Y124047D01*
Y124995D01*
X27239Y126832D01*
X25832Y128239D01*
X23995Y129000D01*
D02*
G37*
G36*
X1909Y131500D02*
X1270D01*
Y118270D01*
X14500D01*
Y118909D01*
X13512Y122597D01*
X11603Y125903D01*
X8903Y128603D01*
X5597Y130512D01*
X1909Y131500D01*
D02*
G37*
G36*
X268730D02*
X268091D01*
X264403Y130512D01*
X261097Y128603D01*
X258397Y125903D01*
X256488Y122597D01*
X255500Y118909D01*
Y118270D01*
X268730D01*
Y131500D01*
D02*
G37*
G36*
X152000Y110000D02*
X147270D01*
Y107270D01*
X152000D01*
Y110000D01*
D02*
G37*
G36*
X144730D02*
X140000D01*
Y107270D01*
X144730D01*
Y110000D01*
D02*
G37*
G36*
X268730Y115730D02*
X255500D01*
Y115091D01*
X256488Y111403D01*
X258397Y108097D01*
X261097Y105397D01*
X264403Y103488D01*
X268091Y102500D01*
X268730D01*
Y115730D01*
D02*
G37*
G36*
X14500Y115730D02*
X1270D01*
Y102500D01*
X1909D01*
X5597Y103488D01*
X8903Y105397D01*
X11603Y108097D01*
X13512Y111403D01*
X14500Y115091D01*
Y115730D01*
D02*
G37*
G36*
X152000Y104730D02*
X147270D01*
Y102000D01*
X152000D01*
Y104730D01*
D02*
G37*
G36*
X144730D02*
X140000D01*
Y102000D01*
X144730D01*
Y104730D01*
D02*
G37*
G36*
X91712Y91000D02*
X91270D01*
Y79270D01*
X103000D01*
Y79711D01*
X102114Y83018D01*
X100403Y85982D01*
X97982Y88403D01*
X95018Y90114D01*
X91712Y91000D01*
D02*
G37*
G36*
X88730D02*
X88288D01*
X84982Y90114D01*
X82018Y88403D01*
X79597Y85982D01*
X77886Y83018D01*
X77000Y79711D01*
Y79270D01*
X88730D01*
Y91000D01*
D02*
G37*
G36*
X1711D02*
X1270D01*
Y79270D01*
X13000D01*
Y79711D01*
X12114Y83018D01*
X10403Y85982D01*
X7982Y88403D01*
X5018Y90114D01*
X1711Y91000D01*
D02*
G37*
G36*
X181712D02*
X181270D01*
Y79270D01*
X193000D01*
Y79711D01*
X192114Y83018D01*
X190403Y85982D01*
X187982Y88403D01*
X185018Y90114D01*
X181712Y91000D01*
D02*
G37*
G36*
X178730D02*
X178288D01*
X174982Y90114D01*
X172018Y88403D01*
X169597Y85982D01*
X167886Y83018D01*
X167000Y79711D01*
Y79270D01*
X178730D01*
Y91000D01*
D02*
G37*
G36*
X-1270D02*
X-1711D01*
X-5018Y90114D01*
X-7982Y88403D01*
X-10403Y85982D01*
X-12114Y83018D01*
X-13000Y79711D01*
Y79270D01*
X-1270D01*
Y91000D01*
D02*
G37*
G36*
X271712D02*
X271270D01*
Y79270D01*
X283000D01*
Y79711D01*
X282114Y83018D01*
X280403Y85982D01*
X277982Y88403D01*
X275018Y90114D01*
X271712Y91000D01*
D02*
G37*
G36*
X268730D02*
X268288D01*
X264982Y90114D01*
X262018Y88403D01*
X259597Y85982D01*
X257886Y83018D01*
X257000Y79711D01*
Y79270D01*
X268730D01*
Y91000D01*
D02*
G37*
G36*
X283000Y76730D02*
X271270D01*
Y65000D01*
X271712D01*
X275018Y65886D01*
X277982Y67597D01*
X280403Y70018D01*
X282114Y72982D01*
X283000Y76288D01*
Y76730D01*
D02*
G37*
G36*
X268730D02*
X257000D01*
Y76288D01*
X257886Y72982D01*
X259597Y70018D01*
X262018Y67597D01*
X264982Y65886D01*
X268288Y65000D01*
X268730D01*
Y76730D01*
D02*
G37*
G36*
X193000Y76730D02*
X181270D01*
Y65000D01*
X181712D01*
X185018Y65886D01*
X187982Y67597D01*
X190403Y70018D01*
X192114Y72982D01*
X193000Y76288D01*
Y76730D01*
D02*
G37*
G36*
X178730D02*
X167000D01*
Y76288D01*
X167886Y72982D01*
X169597Y70018D01*
X172018Y67597D01*
X174982Y65886D01*
X178288Y65000D01*
X178730D01*
Y76730D01*
D02*
G37*
G36*
X103000Y76730D02*
X91270D01*
Y65000D01*
X91712D01*
X95018Y65886D01*
X97982Y67597D01*
X100403Y70018D01*
X102114Y72982D01*
X103000Y76288D01*
Y76730D01*
D02*
G37*
G36*
X88730D02*
X77000D01*
Y76288D01*
X77886Y72982D01*
X79597Y70018D01*
X82018Y67597D01*
X84982Y65886D01*
X88288Y65000D01*
X88730D01*
Y76730D01*
D02*
G37*
G36*
X13000Y76730D02*
X1270D01*
Y65000D01*
X1711D01*
X5018Y65886D01*
X7982Y67597D01*
X10403Y70018D01*
X12114Y72982D01*
X13000Y76288D01*
Y76730D01*
D02*
G37*
G36*
X-1270D02*
X-13000D01*
Y76288D01*
X-12114Y72982D01*
X-10403Y70018D01*
X-7982Y67597D01*
X-5018Y65886D01*
X-1711Y65000D01*
X-1270D01*
Y76730D01*
D02*
G37*
G36*
X152000Y55000D02*
X147270D01*
Y52270D01*
X152000D01*
Y55000D01*
D02*
G37*
G36*
X144730D02*
X140000D01*
Y52270D01*
X144730D01*
Y55000D01*
D02*
G37*
G36*
X152000Y49730D02*
X147270D01*
Y47000D01*
X152000D01*
Y49730D01*
D02*
G37*
G36*
X144730D02*
X140000D01*
Y47000D01*
X144730D01*
Y49730D01*
D02*
G37*
G36*
X268730Y53500D02*
X268091D01*
X264403Y52512D01*
X261097Y50603D01*
X258397Y47903D01*
X256488Y44597D01*
X255500Y40909D01*
Y40270D01*
X268730D01*
Y53500D01*
D02*
G37*
G36*
X1909D02*
X1270D01*
Y40270D01*
X14500D01*
Y40909D01*
X13512Y44597D01*
X11603Y47903D01*
X8903Y50603D01*
X5597Y52512D01*
X1909Y53500D01*
D02*
G37*
G36*
X268730Y37730D02*
X255500D01*
Y37091D01*
X256488Y33403D01*
X258397Y30097D01*
X261097Y27397D01*
X264403Y25488D01*
X268091Y24500D01*
X268730D01*
Y37730D01*
D02*
G37*
G36*
X14500Y37730D02*
X1270D01*
Y24500D01*
X1909D01*
X5597Y25488D01*
X8903Y27397D01*
X11603Y30097D01*
X13512Y33403D01*
X14500Y37091D01*
Y37730D01*
D02*
G37*
G36*
X271712Y13000D02*
X271270D01*
Y1270D01*
X283000D01*
Y1711D01*
X282114Y5018D01*
X280403Y7982D01*
X277982Y10403D01*
X275018Y12114D01*
X271712Y13000D01*
D02*
G37*
G36*
X268730D02*
X268288D01*
X264982Y12114D01*
X262018Y10403D01*
X259597Y7982D01*
X257886Y5018D01*
X257000Y1711D01*
Y1270D01*
X268730D01*
Y13000D01*
D02*
G37*
G36*
X1711D02*
X1270D01*
Y1270D01*
X13000D01*
Y1711D01*
X12114Y5018D01*
X10403Y7982D01*
X7982Y10403D01*
X5018Y12114D01*
X1711Y13000D01*
D02*
G37*
G36*
X181712Y13000D02*
X181270D01*
Y1270D01*
X193000D01*
Y1711D01*
X192114Y5018D01*
X190403Y7982D01*
X187982Y10402D01*
X185018Y12114D01*
X181712Y13000D01*
D02*
G37*
G36*
X178730D02*
X178288D01*
X174982Y12114D01*
X172018Y10402D01*
X169597Y7982D01*
X167886Y5018D01*
X167000Y1711D01*
Y1270D01*
X178730D01*
Y13000D01*
D02*
G37*
G36*
X-1270Y13000D02*
X-1711D01*
X-5018Y12114D01*
X-7982Y10403D01*
X-10403Y7982D01*
X-12114Y5018D01*
X-13000Y1711D01*
Y1270D01*
X-1270D01*
Y13000D01*
D02*
G37*
G36*
X91712D02*
X91270D01*
Y1270D01*
X103000D01*
Y1711D01*
X102114Y5018D01*
X100403Y7982D01*
X97982Y10403D01*
X95018Y12114D01*
X91712Y13000D01*
D02*
G37*
G36*
X88730D02*
X88288D01*
X84982Y12114D01*
X82018Y10403D01*
X79597Y7982D01*
X77886Y5018D01*
X77000Y1711D01*
Y1270D01*
X88730D01*
Y13000D01*
D02*
G37*
%LPD*%
D10*
X187000Y124000D02*
X202500D01*
X154000Y91000D02*
X187000Y124000D01*
X121000Y91000D02*
X154000D01*
X190000Y33000D02*
X202500D01*
X137000Y86000D02*
X190000Y33000D01*
X121000Y86000D02*
X137000D01*
X110000Y82757D02*
Y120688D01*
X112500Y123188D01*
Y124000D01*
X111757Y81000D02*
X121000D01*
X110000Y82757D02*
X111757Y81000D01*
X112750Y33750D02*
X119750D01*
X131000Y45000D01*
Y74243D01*
X129243Y76000D02*
X131000Y74243D01*
X121000Y76000D02*
X129243D01*
X38000Y81000D02*
Y109000D01*
X110000Y71000D02*
X121000D01*
X23000Y124000D02*
X38000Y109000D01*
X95000Y56000D02*
X110000Y71000D01*
X38000Y81000D02*
X63000Y56000D01*
X95000D01*
X115000Y66000D02*
X121000D01*
X98000Y49000D02*
X115000Y66000D01*
X38000Y49000D02*
X98000D01*
X22000Y33000D02*
X38000Y49000D01*
D11*
X121000Y54000D02*
Y61000D01*
D18*
X270000Y156000D02*
D03*
Y78000D02*
D03*
X180000Y156000D02*
D03*
Y78000D02*
D03*
X270000Y0D02*
D03*
X180000Y-0D02*
D03*
X90000Y156000D02*
D03*
Y78000D02*
D03*
X0Y156000D02*
D03*
Y78000D02*
D03*
X90000Y0D02*
D03*
X0D02*
D03*
D19*
X270000Y117000D02*
D03*
Y39000D02*
D03*
X0Y117000D02*
D03*
Y39000D02*
D03*
D20*
X23000Y124000D02*
D03*
X202500Y124000D02*
D03*
X112750Y33750D02*
D03*
X247500Y124000D02*
D03*
X157500D02*
D03*
X247500Y33000D02*
D03*
X157500D02*
D03*
X67500Y124000D02*
D03*
X121000Y54000D02*
D03*
X67500Y33000D02*
D03*
X22000Y33000D02*
D03*
X112500Y124000D02*
D03*
X202500Y33000D02*
D03*
D21*
X146000Y106000D02*
D03*
Y51000D02*
D03*
D22*
X121000Y96000D02*
D03*
Y91000D02*
D03*
Y86000D02*
D03*
Y81000D02*
D03*
Y76000D02*
D03*
Y71000D02*
D03*
Y66000D02*
D03*
Y61000D02*
D03*
M02*
