G04*
G04 #@! TF.GenerationSoftware,Altium Limited,Altium Designer,26.5.0 (11)*
G04*
G04 Layer_Physical_Order=1*
G04 Layer_Color=255*
G04 Board_Origin=30663386|31124408*
%FSLAX44Y44*%
%MOMM*%
G71*
G04*
G04 #@! TF.SameCoordinates,90DB835B-561C-4088-83E5-6E4880DCFF8A*
G04*
G04*
G04 #@! TF.FilePolarity,Positive*
G04*
G01*
G75*
%ADD13R,0.9000X1.2000*%
%ADD17C,0.4000*%
%ADD18C,2.2000*%
%ADD19C,2.5000*%
%ADD20C,0.6000*%
D13*
X22500Y161000D02*
D03*
Y87000D02*
D03*
X202500Y87000D02*
D03*
Y161000D02*
D03*
X112500Y70000D02*
D03*
Y-4000D02*
D03*
X247500Y161000D02*
D03*
Y87000D02*
D03*
X157500Y161000D02*
D03*
X247500Y70000D02*
D03*
Y-4000D02*
D03*
X157500Y87000D02*
D03*
Y70000D02*
D03*
X67500Y87000D02*
D03*
Y161000D02*
D03*
X157500Y-4000D02*
D03*
X67500Y70000D02*
D03*
Y-4000D02*
D03*
X22500Y70000D02*
D03*
Y-4000D02*
D03*
X112500Y87000D02*
D03*
Y161000D02*
D03*
X202500Y-4000D02*
D03*
Y70000D02*
D03*
D17*
X22750Y87250D02*
Y123750D01*
Y124250D02*
X23000Y124000D01*
X22500Y161000D02*
X22750Y160750D01*
Y124250D02*
Y160750D01*
Y123750D02*
X23000Y124000D01*
X22500Y87000D02*
X22750Y87250D01*
X202500Y124000D02*
Y161000D01*
Y87000D02*
Y124000D01*
X112625Y33875D02*
X112750Y33750D01*
X112500Y70000D02*
X112625Y69875D01*
Y33875D02*
Y69875D01*
X112750Y-3750D02*
Y33750D01*
X157500Y87000D02*
Y161000D01*
X247500Y87000D02*
Y161000D01*
Y-4000D02*
Y70000D01*
X157500Y-4000D02*
Y70000D01*
X67500Y87000D02*
Y161000D01*
Y-4000D02*
Y70000D01*
X22250Y33250D02*
Y69750D01*
Y-3750D02*
Y32750D01*
Y69750D02*
X22500Y70000D01*
X22000Y33000D02*
X22250Y33250D01*
X22000Y33000D02*
X22250Y32750D01*
Y-3750D02*
X22500Y-4000D01*
X112500Y87000D02*
Y124000D01*
Y161000D01*
X202500Y33000D02*
Y70000D01*
Y-4000D02*
Y33000D01*
D18*
X270000Y156000D02*
D03*
Y78000D02*
D03*
X180000Y156000D02*
D03*
Y78000D02*
D03*
X270000Y0D02*
D03*
X180000Y-0D02*
D03*
X90000Y156000D02*
D03*
Y78000D02*
D03*
X0Y156000D02*
D03*
Y78000D02*
D03*
X90000Y0D02*
D03*
X0D02*
D03*
D19*
X270000Y117000D02*
D03*
Y39000D02*
D03*
X0Y117000D02*
D03*
Y39000D02*
D03*
D20*
X23000Y124000D02*
D03*
X202500Y124000D02*
D03*
X112750Y33750D02*
D03*
X247500Y124000D02*
D03*
X157500D02*
D03*
X247500Y33000D02*
D03*
X157500D02*
D03*
X67500Y124000D02*
D03*
X121000Y54000D02*
D03*
X67500Y33000D02*
D03*
X22000Y33000D02*
D03*
X112500Y124000D02*
D03*
X202500Y33000D02*
D03*
M02*
