M48
;Layer_Color=9474304
;FILE_FORMAT=2:4
INCH,TZ
;TYPE=PLATED
T01F00S00C0.0118
T02F00S00C0.0433
T03F00S00C0.0807
%
T01
X866Y1299
X2657Y1299
X4439Y1329
X4764Y2126
X6201Y1299
X7972
X9744
Y4882
X7972
X6201
X4429
X2657
X906Y4882
T02
X3543Y0
X7087Y-0
X10630Y0
X0
Y3071
Y6142
X3543
Y3071
X7087
Y6142
X10630Y6142
Y3071
T03
X0Y1535
Y4606
X10630
Y1535
M30
