G04*
G04 #@! TF.GenerationSoftware,Altium Limited,Altium Designer,26.5.0 (11)*
G04*
G04 Layer_Color=65535*
G04 Board_Origin=30663386|31124408*
%FSLAX44Y44*%
%MOMM*%
G71*
G04*
G04 #@! TF.SameCoordinates,90DB835B-561C-4088-83E5-6E4880DCFF8A*
G04*
G04*
G04 #@! TF.FilePolarity,Positive*
G04*
G01*
G75*
%ADD10C,0.3000*%
%ADD11C,0.2500*%
%ADD12C,0.1500*%
D10*
X37500Y124000D02*
G03*
X37500Y124000I-2000J0D01*
G01*
X54000D02*
G03*
X54000Y124000I-2000J0D01*
G01*
X127500Y124000D02*
G03*
X127500Y124000I-2000J0D01*
G01*
X144000D02*
G03*
X144000Y124000I-2000J0D01*
G01*
X217500Y33000D02*
G03*
X217500Y33000I-2000J0D01*
G01*
X234000D02*
G03*
X234000Y33000I-2000J0D01*
G01*
X127500D02*
G03*
X127500Y33000I-2000J0D01*
G01*
X144000D02*
G03*
X144000Y33000I-2000J0D01*
G01*
X37500Y33000D02*
G03*
X37500Y33000I-2000J0D01*
G01*
X54000D02*
G03*
X54000Y33000I-2000J0D01*
G01*
X217500Y124000D02*
G03*
X217500Y124000I-2000J0D01*
G01*
X234000D02*
G03*
X234000Y124000I-2000J0D01*
G01*
D11*
X22500Y96500D02*
Y151500D01*
X67500Y96500D02*
Y151500D01*
X13000Y96500D02*
Y151500D01*
X77000Y96500D02*
Y151500D01*
X32500Y156500D02*
X57500D01*
X32500Y91500D02*
X57500D01*
X35500Y124000D02*
X50250Y138750D01*
X22500Y124000D02*
X35500D01*
X52000D02*
X67500D01*
X112500Y96500D02*
Y151500D01*
X157500Y96500D02*
Y151500D01*
X103000Y96500D02*
Y151500D01*
X167000Y96500D02*
Y151500D01*
X122500Y156500D02*
X147500D01*
X122500Y91500D02*
X147500D01*
X125500Y124000D02*
X140250Y138750D01*
X112500Y124000D02*
X125500D01*
X142000D02*
X157500D01*
X202500Y5500D02*
Y60500D01*
X247500Y5500D02*
Y60500D01*
X193000Y5500D02*
Y60500D01*
X257000Y5500D02*
Y60500D01*
X212500Y65500D02*
X237500D01*
X212500Y500D02*
X237500D01*
X215500Y33000D02*
X230250Y47750D01*
X202500Y33000D02*
X215500D01*
X232000D02*
X247500D01*
X112500Y5500D02*
Y60500D01*
X157500Y5500D02*
Y60500D01*
X103000Y5500D02*
Y60500D01*
X167000Y5500D02*
Y60500D01*
X122500Y65500D02*
X147500D01*
X122500Y500D02*
X147500D01*
X125500Y33000D02*
X140250Y47750D01*
X112500Y33000D02*
X125500D01*
X142000D02*
X157500D01*
X22500Y5500D02*
Y60500D01*
X67500Y5500D02*
Y60500D01*
X13000Y5500D02*
Y60500D01*
X77000Y5500D02*
Y60500D01*
X32500Y65500D02*
X57500D01*
X32500Y500D02*
X57500D01*
X35500Y33000D02*
X50250Y47750D01*
X22500Y33000D02*
X35500D01*
X52000D02*
X67500D01*
X202500Y96500D02*
Y151500D01*
X247500Y96500D02*
Y151500D01*
X193000Y96500D02*
Y151500D01*
X257000Y96500D02*
Y151500D01*
X212500Y156500D02*
X237500D01*
X212500Y91500D02*
X237500D01*
X215500Y124000D02*
X230250Y138750D01*
X202500Y124000D02*
X215500D01*
X232000D02*
X247500D01*
D12*
X221001Y86999D02*
X220002Y87999D01*
X218002D01*
X217003Y86999D01*
Y86000D01*
X218002Y85000D01*
X220002D01*
X221001Y84000D01*
Y83001D01*
X220002Y82001D01*
X218002D01*
X217003Y83001D01*
X223001Y87999D02*
Y82001D01*
X225000Y84000D01*
X226999Y82001D01*
Y87999D01*
X232997D02*
X228999D01*
Y85000D01*
X230998Y86000D01*
X231998D01*
X232997Y85000D01*
Y83001D01*
X231998Y82001D01*
X229998D01*
X228999Y83001D01*
X221501Y-4001D02*
X220502Y-3001D01*
X218502D01*
X217503Y-4001D01*
Y-5000D01*
X218502Y-6000D01*
X220502D01*
X221501Y-7000D01*
Y-7999D01*
X220502Y-8999D01*
X218502D01*
X217503Y-7999D01*
X223501Y-3001D02*
Y-8999D01*
X225500Y-7000D01*
X227499Y-8999D01*
Y-3001D01*
X232498Y-8999D02*
Y-3001D01*
X229499Y-6000D01*
X233497D01*
X131501Y86999D02*
X130502Y87999D01*
X128502D01*
X127503Y86999D01*
Y86000D01*
X128502Y85000D01*
X130502D01*
X131501Y84000D01*
Y83001D01*
X130502Y82001D01*
X128502D01*
X127503Y83001D01*
X133501Y87999D02*
Y82001D01*
X135500Y84000D01*
X137499Y82001D01*
Y87999D01*
X139499Y86999D02*
X140498Y87999D01*
X142498D01*
X143497Y86999D01*
Y86000D01*
X142498Y85000D01*
X141498D01*
X142498D01*
X143497Y84000D01*
Y83001D01*
X142498Y82001D01*
X140498D01*
X139499Y83001D01*
X131001Y-5001D02*
X130002Y-4001D01*
X128002D01*
X127003Y-5001D01*
Y-6000D01*
X128002Y-7000D01*
X130002D01*
X131001Y-8000D01*
Y-8999D01*
X130002Y-9999D01*
X128002D01*
X127003Y-8999D01*
X133001Y-4001D02*
Y-9999D01*
X135000Y-8000D01*
X136999Y-9999D01*
Y-4001D01*
X142997Y-9999D02*
X138999D01*
X142997Y-6000D01*
Y-5001D01*
X141998Y-4001D01*
X139998D01*
X138999Y-5001D01*
X42001Y86999D02*
X41001Y87999D01*
X39002D01*
X38002Y86999D01*
Y86000D01*
X39002Y85000D01*
X41001D01*
X42001Y84000D01*
Y83001D01*
X41001Y82001D01*
X39002D01*
X38002Y83001D01*
X44000Y87999D02*
Y82001D01*
X46000Y84000D01*
X47999Y82001D01*
Y87999D01*
X49998Y82001D02*
X51998D01*
X50998D01*
Y87999D01*
X49998Y86999D01*
X41001Y-4001D02*
X40002Y-3001D01*
X38002D01*
X37003Y-4001D01*
Y-5000D01*
X38002Y-6000D01*
X40002D01*
X41001Y-7000D01*
Y-7999D01*
X40002Y-8999D01*
X38002D01*
X37003Y-7999D01*
X43001Y-3001D02*
Y-8999D01*
X45000Y-7000D01*
X46999Y-8999D01*
Y-3001D01*
X48999Y-4001D02*
X49998Y-3001D01*
X51998D01*
X52997Y-4001D01*
Y-7999D01*
X51998Y-8999D01*
X49998D01*
X48999Y-7999D01*
Y-4001D01*
M02*
