M48
;Layer_Color=9474304
;FILE_FORMAT=2:4
INCH,TZ
;TYPE=PLATED
T01F00S00C0.0118
T02F00S00C0.0244
T04F00S00C0.0354
T05F00S00C0.0413
T06F00S00C0.0433
T08F00S00C0.0807
;TYPE=NON_PLATED
%
T01
X-8583Y-4606
Y-4094
Y-3583
Y-3071
Y-2559
Y-2087
Y-1575
Y-1102
X6063Y-2480
X8583Y-2563
Y-2091
Y-1579
Y-1106
Y-3075
Y-3587
Y-4098
Y-4610
T02
X-8268Y-4327
Y-3827
Y-3327
Y-2827
Y-2327
Y-1827
Y-1327
Y-827
X8268
Y-1327
Y-1827
Y-2327
Y-2827
Y-3327
Y-3827
Y-4327
T04
X3248Y-3248
X5020
Y-689
X3248
T05
X-2953Y-2953
Y-1969
Y-984
T06
X-3858Y-5236
X3858
X8268Y-5354
X-8268
X-7756Y748
X-5630
X3268Y157
X4528
X5630Y748
X7756Y748
X4528Y-4094
X3268
T08
X-4921Y-5236
X4921
X-6693Y748
X-3937Y1969
X3937
X6693Y748
M30
