G04*
G04 #@! TF.GenerationSoftware,Altium Limited,Altium Designer,25.8.1 (18)*
G04*
G04 Layer_Physical_Order=1*
G04 Layer_Color=255*
%FSLAX44Y44*%
%MOMM*%
G71*
G04*
G04 #@! TF.SameCoordinates,D4E68EFC-F169-47B5-8344-17C97678413F*
G04*
G04*
G04 #@! TF.FilePolarity,Positive*
G04*
G01*
G75*
%ADD24C,0.3500*%
%ADD25C,0.3000*%
%ADD26C,0.9000*%
%ADD27R,0.9000X0.9000*%
%ADD28R,1.5000X1.8000*%
G04:AMPARAMS|DCode=29|XSize=1.8mm|YSize=1.5mm|CornerRadius=0.375mm|HoleSize=0mm|Usage=FLASHONLY|Rotation=90.000|XOffset=0mm|YOffset=0mm|HoleType=Round|Shape=RoundedRectangle|*
%AMROUNDEDRECTD29*
21,1,1.8000,0.7500,0,0,90.0*
21,1,1.0500,1.5000,0,0,90.0*
1,1,0.7500,0.3750,0.5250*
1,1,0.7500,0.3750,-0.5250*
1,1,0.7500,-0.3750,-0.5250*
1,1,0.7500,-0.3750,0.5250*
%
%ADD29ROUNDEDRECTD29*%
%ADD30C,1.8000*%
%ADD31C,1.6000*%
%ADD32C,2.1000*%
G04:AMPARAMS|DCode=33|XSize=2.9mm|YSize=2.6mm|CornerRadius=0.65mm|HoleSize=0mm|Usage=FLASHONLY|Rotation=180.000|XOffset=0mm|YOffset=0mm|HoleType=Round|Shape=RoundedRectangle|*
%AMROUNDEDRECTD33*
21,1,2.9000,1.3000,0,0,180.0*
21,1,1.6000,2.6000,0,0,180.0*
1,1,1.3000,-0.8000,0.6500*
1,1,1.3000,0.8000,0.6500*
1,1,1.3000,0.8000,-0.6500*
1,1,1.3000,-0.8000,-0.6500*
%
%ADD33ROUNDEDRECTD33*%
%ADD34R,12.7000X19.0000*%
%ADD35C,2.5000*%
%ADD36C,0.6000*%
G36*
X76090Y65790D02*
X76693Y64334D01*
X77000Y62788D01*
X77000Y62000D01*
Y13815D01*
X75939Y13202D01*
X73798Y11061D01*
X73196Y10019D01*
X71926Y10360D01*
Y46000D01*
X71704Y47120D01*
X71069Y48069D01*
X70120Y48703D01*
X69000Y48926D01*
X-58000D01*
X-59120Y48703D01*
X-60069Y48069D01*
X-60704Y47120D01*
X-60926Y46000D01*
Y-146000D01*
X-60704Y-147120D01*
X-60069Y-148069D01*
X-59120Y-148703D01*
X-58000Y-148926D01*
X69000D01*
X70120Y-148703D01*
X71069Y-148069D01*
X71704Y-147120D01*
X71926Y-146000D01*
Y-111473D01*
X73153Y-111144D01*
X73318Y-111430D01*
X75570Y-113682D01*
X78330Y-115275D01*
X81407Y-116100D01*
X84593D01*
X87670Y-115275D01*
X90430Y-113682D01*
X92682Y-111430D01*
X94275Y-108670D01*
X95100Y-105593D01*
Y-102407D01*
X94275Y-99330D01*
X92682Y-96570D01*
X90430Y-94318D01*
X87670Y-92725D01*
X85846Y-92236D01*
Y-90921D01*
X85974Y-90887D01*
X88026Y-89702D01*
X89702Y-88026D01*
X90887Y-85974D01*
X91477Y-83770D01*
X82500D01*
X73523D01*
X74113Y-85974D01*
X75298Y-88026D01*
X76974Y-89702D01*
X79026Y-90887D01*
X79654Y-91055D01*
X79654Y-92370D01*
X78330Y-92725D01*
X75570Y-94318D01*
X73318Y-96570D01*
X73153Y-96856D01*
X71926Y-96527D01*
Y-2360D01*
X73196Y-2019D01*
X73798Y-3061D01*
X75939Y-5202D01*
X77000Y-5815D01*
Y-10283D01*
X76974Y-10298D01*
X75298Y-11974D01*
X74113Y-14026D01*
X73523Y-16230D01*
X82500D01*
Y-18770D01*
X73523D01*
X74113Y-20974D01*
X75298Y-23026D01*
X76974Y-24702D01*
X77000Y-24717D01*
Y-56000D01*
X77096Y-56975D01*
X77842Y-58778D01*
X79222Y-60157D01*
X81025Y-60904D01*
X82000Y-61000D01*
X124339D01*
Y-73408D01*
X123794Y-73554D01*
X121606Y-74818D01*
X119818Y-76606D01*
X118554Y-78795D01*
X117900Y-81236D01*
Y-83764D01*
X118554Y-86206D01*
X119818Y-88394D01*
X121606Y-90182D01*
X123794Y-91446D01*
X126236Y-92100D01*
X128764D01*
X131206Y-91446D01*
X133394Y-90182D01*
X135182Y-88394D01*
X136446Y-86206D01*
X137100Y-83764D01*
Y-81236D01*
X136446Y-78795D01*
X135182Y-76606D01*
X133394Y-74818D01*
X131206Y-73554D01*
X130661Y-73408D01*
Y-61000D01*
X160974D01*
X161573Y-62120D01*
X161210Y-62663D01*
X160795Y-64750D01*
Y-75250D01*
X161210Y-77337D01*
X162393Y-79107D01*
X164163Y-80290D01*
X166250Y-80705D01*
X173750D01*
X175837Y-80290D01*
X177607Y-79107D01*
X178790Y-77337D01*
X179205Y-75250D01*
Y-64750D01*
X178790Y-62663D01*
X178427Y-62120D01*
X179026Y-61000D01*
X188839D01*
Y-63000D01*
X189080Y-64210D01*
X189765Y-65235D01*
X198665Y-74135D01*
X199690Y-74820D01*
X200900Y-75061D01*
X204748D01*
X204829Y-75255D01*
X206545Y-76971D01*
X207731Y-77463D01*
Y-78837D01*
X206545Y-79329D01*
X204829Y-81045D01*
X203900Y-83287D01*
Y-85713D01*
X204829Y-87955D01*
X206545Y-89671D01*
X207731Y-90163D01*
Y-91537D01*
X206545Y-92029D01*
X204829Y-93745D01*
X203900Y-95987D01*
Y-98413D01*
X204829Y-100655D01*
X206545Y-102371D01*
X208376Y-103130D01*
X208124Y-104400D01*
X204500D01*
Y-108630D01*
X215500D01*
Y-104400D01*
X211876D01*
X211624Y-103130D01*
X213455Y-102371D01*
X215171Y-100655D01*
X216100Y-98413D01*
Y-95987D01*
X215171Y-93745D01*
X213455Y-92029D01*
X212269Y-91537D01*
Y-90163D01*
X213455Y-89671D01*
X215171Y-87955D01*
X216100Y-85713D01*
Y-83287D01*
X215171Y-81045D01*
X213455Y-79329D01*
X212269Y-78837D01*
Y-77463D01*
X213455Y-76971D01*
X215171Y-75255D01*
X216100Y-73013D01*
Y-70587D01*
X215171Y-68345D01*
X213455Y-66629D01*
X212269Y-66137D01*
Y-64763D01*
X213455Y-64271D01*
X215171Y-62555D01*
X215816Y-61000D01*
X218999D01*
X219000Y-61000D01*
X219000Y-61000D01*
X219007D01*
X220171Y-61077D01*
X221074Y-61460D01*
Y-133784D01*
X219804Y-133951D01*
X219319Y-132140D01*
X218002Y-129860D01*
X216140Y-127998D01*
X213860Y-126681D01*
X211317Y-126000D01*
X211270D01*
Y-136000D01*
X210000D01*
Y-137270D01*
X200000D01*
Y-137317D01*
X200681Y-139860D01*
X201998Y-142140D01*
X203860Y-144002D01*
X206140Y-145318D01*
X207951Y-145804D01*
X207784Y-147074D01*
X129543D01*
X129376Y-145804D01*
X130211Y-145580D01*
X133289Y-143803D01*
X135803Y-141289D01*
X137580Y-138211D01*
X138500Y-134777D01*
Y-134270D01*
X125000D01*
X111500D01*
Y-134777D01*
X112420Y-138211D01*
X114197Y-141289D01*
X116711Y-143803D01*
X119789Y-145580D01*
X120624Y-145804D01*
X120457Y-147074D01*
X108000D01*
Y-147062D01*
X105946Y-147333D01*
X104031Y-148126D01*
X102387Y-149387D01*
X101126Y-151031D01*
X100333Y-152945D01*
X100062Y-155000D01*
X100074D01*
Y-162000D01*
X100042D01*
X99887Y-162782D01*
X99444Y-163444D01*
X98781Y-163887D01*
X98000Y-164042D01*
Y-164074D01*
X-98000D01*
Y-164042D01*
X-98781Y-163887D01*
X-99444Y-163444D01*
X-99887Y-162782D01*
X-100042Y-162000D01*
X-100074D01*
Y-155000D01*
X-100062D01*
X-100333Y-152945D01*
X-101126Y-151031D01*
X-102387Y-149387D01*
X-104031Y-148126D01*
X-105946Y-147333D01*
X-108000Y-147062D01*
Y-147074D01*
X-120457D01*
X-120624Y-145804D01*
X-119789Y-145580D01*
X-116711Y-143803D01*
X-114197Y-141289D01*
X-112420Y-138211D01*
X-111500Y-134777D01*
Y-134270D01*
X-138500D01*
Y-134777D01*
X-137580Y-138211D01*
X-135803Y-141289D01*
X-133289Y-143803D01*
X-130211Y-145580D01*
X-129376Y-145804D01*
X-129543Y-147074D01*
X-205056D01*
X-205163Y-146906D01*
X-204753Y-145211D01*
X-203491Y-144482D01*
X-201518Y-142509D01*
X-200122Y-140091D01*
X-199400Y-137395D01*
Y-134605D01*
X-200122Y-131909D01*
X-201518Y-129492D01*
X-203491Y-127518D01*
X-205909Y-126122D01*
X-208605Y-125400D01*
X-211395D01*
X-214091Y-126122D01*
X-216509Y-127518D01*
X-218482Y-129492D01*
X-219210Y-130753D01*
X-220906Y-131163D01*
X-221074Y-131055D01*
Y27000D01*
X-221063D01*
X-220823Y28828D01*
X-220117Y30532D01*
X-218995Y31995D01*
X-217532Y33117D01*
X-215828Y33823D01*
X-214000Y34063D01*
Y34074D01*
X-214000Y34074D01*
X-173129D01*
X-172962Y32804D01*
X-175442Y32139D01*
X-178658Y30283D01*
X-181283Y27658D01*
X-183139Y24442D01*
X-183878Y21685D01*
X-185193D01*
X-185725Y23670D01*
X-187318Y26430D01*
X-189570Y28682D01*
X-192330Y30275D01*
X-195407Y31100D01*
X-198593D01*
X-201670Y30275D01*
X-204430Y28682D01*
X-206682Y26430D01*
X-208275Y23670D01*
X-209100Y20593D01*
Y17407D01*
X-208275Y14330D01*
X-206682Y11570D01*
X-204430Y9318D01*
X-201670Y7725D01*
X-198593Y6900D01*
X-195407D01*
X-192330Y7725D01*
X-189570Y9318D01*
X-187318Y11570D01*
X-185725Y14330D01*
X-185193Y16315D01*
X-183878D01*
X-183139Y13558D01*
X-181283Y10342D01*
X-178658Y7717D01*
X-175442Y5861D01*
X-171856Y4900D01*
X-168144D01*
X-164558Y5861D01*
X-161342Y7717D01*
X-158717Y10342D01*
X-156861Y13558D01*
X-156122Y16315D01*
X-154807D01*
X-154275Y14330D01*
X-152682Y11570D01*
X-150430Y9318D01*
X-147670Y7725D01*
X-144593Y6900D01*
X-141407D01*
X-138330Y7725D01*
X-135570Y9318D01*
X-133318Y11570D01*
X-131725Y14330D01*
X-130900Y17407D01*
Y20593D01*
X-131725Y23670D01*
X-133318Y26430D01*
X-135570Y28682D01*
X-138330Y30275D01*
X-141407Y31100D01*
X-144593D01*
X-147670Y30275D01*
X-150430Y28682D01*
X-152682Y26430D01*
X-154275Y23670D01*
X-154807Y21685D01*
X-156122D01*
X-156861Y24442D01*
X-158717Y27658D01*
X-161342Y30283D01*
X-164558Y32139D01*
X-167038Y32804D01*
X-166871Y34074D01*
X-125000D01*
X-125000Y34074D01*
Y34062D01*
X-122945Y34333D01*
X-121031Y35126D01*
X-119387Y36387D01*
X-118125Y38031D01*
X-117333Y39945D01*
X-117062Y42000D01*
X-117074D01*
Y65000D01*
X-117042D01*
X-116887Y65782D01*
X-116444Y66444D01*
X-115781Y66887D01*
X-115000Y67042D01*
Y67074D01*
X75232D01*
X76090Y65790D01*
D02*
G37*
%LPC*%
G36*
X-98144Y64100D02*
X-101856D01*
X-105442Y63139D01*
X-108658Y61283D01*
X-111283Y58658D01*
X-113139Y55442D01*
X-114100Y51856D01*
Y48144D01*
X-113139Y44558D01*
X-111283Y41342D01*
X-108658Y38717D01*
X-105442Y36861D01*
X-101856Y35900D01*
X-98144D01*
X-94558Y36861D01*
X-91342Y38717D01*
X-88717Y41342D01*
X-86861Y44558D01*
X-85900Y48144D01*
Y51856D01*
X-86861Y55442D01*
X-88717Y58658D01*
X-91342Y61283D01*
X-94558Y63139D01*
X-98144Y64100D01*
D02*
G37*
G36*
X-87000Y12065D02*
X-93730D01*
Y-730D01*
X-79435D01*
Y4500D01*
X-79693Y6458D01*
X-80449Y8282D01*
X-81651Y9849D01*
X-83218Y11051D01*
X-85042Y11807D01*
X-87000Y12065D01*
D02*
G37*
G36*
X-96270D02*
X-103000D01*
X-104958Y11807D01*
X-106782Y11051D01*
X-108349Y9849D01*
X-109551Y8282D01*
X-110307Y6458D01*
X-110565Y4500D01*
Y-730D01*
X-96270D01*
Y12065D01*
D02*
G37*
G36*
X-79435Y-3270D02*
X-93730D01*
Y-16065D01*
X-87000D01*
X-85042Y-15807D01*
X-83218Y-15051D01*
X-81651Y-13849D01*
X-80449Y-12282D01*
X-79693Y-10458D01*
X-79435Y-8500D01*
Y-3270D01*
D02*
G37*
G36*
X-96270D02*
X-110565D01*
Y-8500D01*
X-110307Y-10458D01*
X-109551Y-12282D01*
X-108349Y-13849D01*
X-106782Y-15051D01*
X-104958Y-15807D01*
X-103000Y-16065D01*
X-96270D01*
Y-3270D01*
D02*
G37*
G36*
X-161500Y-9200D02*
X-168730D01*
Y-17930D01*
X-161500D01*
Y-9200D01*
D02*
G37*
G36*
X-171270D02*
X-178500D01*
Y-17930D01*
X-171270D01*
Y-9200D01*
D02*
G37*
G36*
X-204500Y-15500D02*
X-208730D01*
Y-19730D01*
X-204500D01*
Y-15500D01*
D02*
G37*
G36*
X-211270D02*
X-215500D01*
Y-19730D01*
X-211270D01*
Y-15500D01*
D02*
G37*
G36*
X-73730Y-16023D02*
Y-23730D01*
X-66023D01*
X-66613Y-21526D01*
X-67798Y-19474D01*
X-69474Y-17798D01*
X-71526Y-16613D01*
X-73730Y-16023D01*
D02*
G37*
G36*
X-76270D02*
X-78474Y-16613D01*
X-80526Y-17798D01*
X-82202Y-19474D01*
X-83387Y-21526D01*
X-83977Y-23730D01*
X-76270D01*
Y-16023D01*
D02*
G37*
G36*
X-161500Y-20470D02*
X-168730D01*
Y-29200D01*
X-161500D01*
Y-20470D01*
D02*
G37*
G36*
X-171270D02*
X-178500D01*
Y-29200D01*
X-171270D01*
Y-20470D01*
D02*
G37*
G36*
X-76270Y-26270D02*
X-83977D01*
X-83387Y-28474D01*
X-82202Y-30526D01*
X-80526Y-32202D01*
X-78474Y-33387D01*
X-76270Y-33977D01*
Y-26270D01*
D02*
G37*
G36*
X-66023D02*
X-73730D01*
Y-33977D01*
X-71526Y-33387D01*
X-69474Y-32202D01*
X-67798Y-30526D01*
X-66613Y-28474D01*
X-66023Y-26270D01*
D02*
G37*
G36*
X-73736Y-40400D02*
X-76264D01*
X-78706Y-41054D01*
X-80894Y-42318D01*
X-82682Y-44105D01*
X-83946Y-46294D01*
X-84600Y-48736D01*
Y-51264D01*
X-83946Y-53705D01*
X-82682Y-55894D01*
X-80894Y-57682D01*
X-78706Y-58946D01*
X-76264Y-59600D01*
X-73736D01*
X-71294Y-58946D01*
X-69106Y-57682D01*
X-67318Y-55894D01*
X-66054Y-53705D01*
X-65400Y-51264D01*
Y-48736D01*
X-66054Y-46294D01*
X-67318Y-44105D01*
X-69106Y-42318D01*
X-71294Y-41054D01*
X-73736Y-40400D01*
D02*
G37*
G36*
X-204500Y-22270D02*
X-210000D01*
X-215500D01*
Y-26500D01*
X-211876D01*
X-211624Y-27770D01*
X-213455Y-28529D01*
X-215171Y-30245D01*
X-216100Y-32487D01*
Y-34913D01*
X-215171Y-37155D01*
X-213455Y-38871D01*
X-212269Y-39363D01*
Y-40737D01*
X-213455Y-41229D01*
X-215171Y-42945D01*
X-216100Y-45187D01*
Y-47613D01*
X-215171Y-49855D01*
X-213455Y-51571D01*
X-212269Y-52063D01*
Y-53437D01*
X-213455Y-53929D01*
X-215171Y-55645D01*
X-216100Y-57887D01*
Y-60313D01*
X-215171Y-62555D01*
X-213455Y-64271D01*
X-211390Y-65127D01*
X-211308Y-65987D01*
X-211359Y-66410D01*
X-213116Y-67137D01*
X-214663Y-68685D01*
X-215427Y-70530D01*
X-210000D01*
X-204573D01*
X-205337Y-68685D01*
X-206884Y-67137D01*
X-208641Y-66410D01*
X-208692Y-65987D01*
X-208610Y-65127D01*
X-206545Y-64271D01*
X-204829Y-62555D01*
X-203900Y-60313D01*
Y-57887D01*
X-204829Y-55645D01*
X-206545Y-53929D01*
X-207731Y-53437D01*
Y-52063D01*
X-206545Y-51571D01*
X-204829Y-49855D01*
X-203900Y-47613D01*
Y-45187D01*
X-204829Y-42945D01*
X-206545Y-41229D01*
X-207731Y-40737D01*
Y-39363D01*
X-206545Y-38871D01*
X-204829Y-37155D01*
X-203900Y-34913D01*
Y-32487D01*
X-204829Y-30245D01*
X-206545Y-28529D01*
X-208376Y-27770D01*
X-208124Y-26500D01*
X-204500D01*
Y-22270D01*
D02*
G37*
G36*
X-166250Y-59295D02*
X-173750D01*
X-175837Y-59710D01*
X-177607Y-60893D01*
X-178790Y-62663D01*
X-179205Y-64750D01*
Y-75250D01*
X-178790Y-77337D01*
X-177607Y-79107D01*
X-175837Y-80290D01*
X-173750Y-80705D01*
X-166250D01*
X-164163Y-80290D01*
X-162393Y-79107D01*
X-161210Y-77337D01*
X-160795Y-75250D01*
Y-64750D01*
X-161210Y-62663D01*
X-162393Y-60893D01*
X-164163Y-59710D01*
X-166250Y-59295D01*
D02*
G37*
G36*
X83770Y-73523D02*
Y-81230D01*
X91477D01*
X90887Y-79026D01*
X89702Y-76974D01*
X88026Y-75298D01*
X85974Y-74113D01*
X83770Y-73523D01*
D02*
G37*
G36*
X81230D02*
X79026Y-74113D01*
X76974Y-75298D01*
X75298Y-76974D01*
X74113Y-79026D01*
X73523Y-81230D01*
X81230D01*
Y-73523D01*
D02*
G37*
G36*
X-73736Y-65400D02*
X-76264D01*
X-78706Y-66054D01*
X-80894Y-67318D01*
X-82682Y-69105D01*
X-83946Y-71294D01*
X-84600Y-73736D01*
Y-76264D01*
X-83946Y-78705D01*
X-82682Y-80894D01*
X-80894Y-82682D01*
X-78706Y-83946D01*
X-76264Y-84600D01*
X-73736D01*
X-71294Y-83946D01*
X-69106Y-82682D01*
X-67318Y-80894D01*
X-66054Y-78705D01*
X-65400Y-76264D01*
Y-73736D01*
X-66054Y-71294D01*
X-67318Y-69105D01*
X-69106Y-67318D01*
X-71294Y-66054D01*
X-73736Y-65400D01*
D02*
G37*
G36*
X-87000Y-83935D02*
X-93730D01*
Y-96730D01*
X-79435D01*
Y-91500D01*
X-79693Y-89542D01*
X-80449Y-87718D01*
X-81651Y-86151D01*
X-83218Y-84949D01*
X-85042Y-84193D01*
X-87000Y-83935D01*
D02*
G37*
G36*
X-96270D02*
X-103000D01*
X-104958Y-84193D01*
X-106782Y-84949D01*
X-108349Y-86151D01*
X-109551Y-87718D01*
X-110307Y-89542D01*
X-110565Y-91500D01*
Y-96730D01*
X-96270D01*
Y-83935D01*
D02*
G37*
G36*
X-79435Y-99270D02*
X-93730D01*
Y-112065D01*
X-87000D01*
X-85042Y-111807D01*
X-83218Y-111051D01*
X-81651Y-109849D01*
X-80449Y-108282D01*
X-79693Y-106458D01*
X-79435Y-104500D01*
Y-99270D01*
D02*
G37*
G36*
X-96270D02*
X-110565D01*
Y-104500D01*
X-110307Y-106458D01*
X-109551Y-108282D01*
X-108349Y-109849D01*
X-106782Y-111051D01*
X-104958Y-111807D01*
X-103000Y-112065D01*
X-96270D01*
Y-99270D01*
D02*
G37*
G36*
X215500Y-111170D02*
X211270D01*
Y-115400D01*
X215500D01*
Y-111170D01*
D02*
G37*
G36*
X208730D02*
X204500D01*
Y-115400D01*
X208730D01*
Y-111170D01*
D02*
G37*
G36*
X-204573Y-73070D02*
X-210000D01*
X-215427D01*
X-214663Y-74915D01*
X-213116Y-76463D01*
X-211359Y-77190D01*
X-211308Y-77613D01*
X-211390Y-78473D01*
X-213455Y-79329D01*
X-215171Y-81045D01*
X-216100Y-83287D01*
Y-85713D01*
X-215171Y-87955D01*
X-213455Y-89671D01*
X-212269Y-90163D01*
Y-91537D01*
X-213455Y-92029D01*
X-215171Y-93745D01*
X-216100Y-95987D01*
Y-98413D01*
X-215171Y-100655D01*
X-213455Y-102371D01*
X-212269Y-102863D01*
Y-104237D01*
X-213455Y-104729D01*
X-215171Y-106445D01*
X-216100Y-108687D01*
Y-111113D01*
X-215171Y-113355D01*
X-213455Y-115071D01*
X-211213Y-116000D01*
X-208787D01*
X-206545Y-115071D01*
X-204829Y-113355D01*
X-203900Y-111113D01*
Y-108687D01*
X-204829Y-106445D01*
X-206545Y-104729D01*
X-207731Y-104237D01*
Y-102863D01*
X-206545Y-102371D01*
X-204829Y-100655D01*
X-203900Y-98413D01*
Y-95987D01*
X-204829Y-93745D01*
X-206545Y-92029D01*
X-207731Y-91537D01*
Y-90163D01*
X-206545Y-89671D01*
X-204829Y-87955D01*
X-203900Y-85713D01*
Y-83287D01*
X-204829Y-81045D01*
X-206545Y-79329D01*
X-208610Y-78473D01*
X-208692Y-77613D01*
X-208641Y-77190D01*
X-206884Y-76463D01*
X-205337Y-74915D01*
X-204573Y-73070D01*
D02*
G37*
G36*
X116593Y-91900D02*
X113407D01*
X110330Y-92725D01*
X107570Y-94318D01*
X105318Y-96570D01*
X103725Y-99330D01*
X102900Y-102407D01*
Y-105593D01*
X103725Y-108670D01*
X105318Y-111430D01*
X107570Y-113682D01*
X110330Y-115275D01*
X113407Y-116100D01*
X116593D01*
X119670Y-115275D01*
X122430Y-113682D01*
X124682Y-111430D01*
X126275Y-108670D01*
X127100Y-105593D01*
Y-102407D01*
X126275Y-99330D01*
X124682Y-96570D01*
X122430Y-94318D01*
X119670Y-92725D01*
X116593Y-91900D01*
D02*
G37*
G36*
X173750Y-110707D02*
X171270D01*
Y-119530D01*
X178593D01*
Y-115550D01*
X178224Y-113697D01*
X177174Y-112126D01*
X175603Y-111076D01*
X173750Y-110707D01*
D02*
G37*
G36*
X168730D02*
X166250D01*
X164397Y-111076D01*
X162826Y-112126D01*
X161776Y-113697D01*
X161407Y-115550D01*
Y-119530D01*
X168730D01*
Y-110707D01*
D02*
G37*
G36*
X-166250D02*
X-168730D01*
Y-119530D01*
X-161407D01*
Y-115550D01*
X-161776Y-113697D01*
X-162826Y-112126D01*
X-164397Y-111076D01*
X-166250Y-110707D01*
D02*
G37*
G36*
X-171270D02*
X-173750D01*
X-175603Y-111076D01*
X-177174Y-112126D01*
X-178224Y-113697D01*
X-178593Y-115550D01*
Y-119530D01*
X-171270D01*
Y-110707D01*
D02*
G37*
G36*
X178593Y-122070D02*
X171270D01*
Y-130893D01*
X173750D01*
X175603Y-130524D01*
X177174Y-129474D01*
X178224Y-127903D01*
X178593Y-126050D01*
Y-122070D01*
D02*
G37*
G36*
X168730D02*
X161407D01*
Y-126050D01*
X161776Y-127903D01*
X162826Y-129474D01*
X164397Y-130524D01*
X166250Y-130893D01*
X168730D01*
Y-122070D01*
D02*
G37*
G36*
X-161407Y-122070D02*
X-168730D01*
Y-130893D01*
X-166250D01*
X-164397Y-130524D01*
X-162826Y-129474D01*
X-161776Y-127903D01*
X-161407Y-126050D01*
Y-122070D01*
D02*
G37*
G36*
X-171270D02*
X-178593D01*
Y-126050D01*
X-178224Y-127903D01*
X-177174Y-129474D01*
X-175603Y-130524D01*
X-173750Y-130893D01*
X-171270D01*
Y-122070D01*
D02*
G37*
G36*
X126777Y-119500D02*
X126270D01*
Y-131730D01*
X138500D01*
Y-131223D01*
X137580Y-127789D01*
X135803Y-124711D01*
X133289Y-122197D01*
X130211Y-120420D01*
X126777Y-119500D01*
D02*
G37*
G36*
X-96486Y-121500D02*
X-96730D01*
Y-131730D01*
X-86500D01*
Y-131486D01*
X-87284Y-128561D01*
X-88798Y-125939D01*
X-90939Y-123798D01*
X-93561Y-122284D01*
X-96486Y-121500D01*
D02*
G37*
G36*
X99514D02*
X99270D01*
Y-131730D01*
X109500D01*
Y-131486D01*
X108716Y-128561D01*
X107202Y-125939D01*
X105061Y-123798D01*
X102439Y-122284D01*
X99514Y-121500D01*
D02*
G37*
G36*
X96730D02*
X96486D01*
X93561Y-122284D01*
X90939Y-123798D01*
X88798Y-125939D01*
X87284Y-128561D01*
X86500Y-131486D01*
Y-131730D01*
X96730D01*
Y-121500D01*
D02*
G37*
G36*
X-123223Y-119500D02*
X-123730D01*
Y-131730D01*
X-111500D01*
Y-131223D01*
X-112420Y-127789D01*
X-114197Y-124711D01*
X-116711Y-122197D01*
X-119789Y-120420D01*
X-123223Y-119500D01*
D02*
G37*
G36*
X-126270D02*
X-126777D01*
X-130211Y-120420D01*
X-133289Y-122197D01*
X-135803Y-124711D01*
X-137580Y-127789D01*
X-138500Y-131223D01*
Y-131730D01*
X-126270D01*
Y-119500D01*
D02*
G37*
G36*
X-99270Y-121500D02*
X-99514D01*
X-102439Y-122284D01*
X-105061Y-123798D01*
X-107202Y-125939D01*
X-108716Y-128561D01*
X-109500Y-131486D01*
Y-131730D01*
X-99270D01*
Y-121500D01*
D02*
G37*
G36*
X123730Y-119500D02*
X123223D01*
X119789Y-120420D01*
X116711Y-122197D01*
X114197Y-124711D01*
X112420Y-127789D01*
X111500Y-131223D01*
Y-131730D01*
X123730D01*
Y-119500D01*
D02*
G37*
G36*
X208730Y-126000D02*
X208683D01*
X206140Y-126681D01*
X203860Y-127998D01*
X201998Y-129860D01*
X200681Y-132140D01*
X200000Y-134684D01*
Y-134730D01*
X208730D01*
Y-126000D01*
D02*
G37*
G36*
X109500Y-134270D02*
X99270D01*
Y-144500D01*
X99514D01*
X102439Y-143716D01*
X105061Y-142202D01*
X107202Y-140061D01*
X108716Y-137439D01*
X109500Y-134514D01*
Y-134270D01*
D02*
G37*
G36*
X96730D02*
X86500D01*
Y-134514D01*
X87284Y-137439D01*
X88798Y-140061D01*
X90939Y-142202D01*
X93561Y-143716D01*
X96486Y-144500D01*
X96730D01*
Y-134270D01*
D02*
G37*
G36*
X-86500D02*
X-96730D01*
Y-144500D01*
X-96486D01*
X-93561Y-143716D01*
X-90939Y-142202D01*
X-88798Y-140061D01*
X-87284Y-137439D01*
X-86500Y-134514D01*
Y-134270D01*
D02*
G37*
G36*
X-99270D02*
X-109500D01*
Y-134514D01*
X-108716Y-137439D01*
X-107202Y-140061D01*
X-105061Y-142202D01*
X-102439Y-143716D01*
X-99514Y-144500D01*
X-99270D01*
Y-134270D01*
D02*
G37*
%LPD*%
D24*
X76000Y-6000D02*
Y15000D01*
X74000Y-4000D02*
Y18000D01*
X75000Y-7000D02*
X76000Y-6000D01*
X74000Y-4000D02*
X75000Y-5000D01*
X154000Y-63000D02*
Y-35200D01*
X170000Y-19200D01*
X218000Y-40100D02*
Y-28100D01*
Y-53100D02*
Y-40100D01*
Y-65100D02*
Y-53100D01*
D25*
X179000Y-2000D02*
X192000Y-15000D01*
Y-63000D02*
Y-15000D01*
Y-63000D02*
X200900Y-71900D01*
X210000D01*
X141000Y-2000D02*
X179000D01*
X127500Y-15500D02*
X141000Y-2000D01*
X127500Y-17500D02*
Y-15500D01*
Y-82500D02*
Y-17500D01*
D26*
X210000Y-21000D02*
D03*
Y-71800D02*
D03*
Y-84500D02*
D03*
Y-97200D02*
D03*
Y-59100D02*
D03*
Y-46400D02*
D03*
Y-33700D02*
D03*
X-210000Y-97200D02*
D03*
Y-84500D02*
D03*
Y-71800D02*
D03*
Y-33700D02*
D03*
Y-46400D02*
D03*
Y-59100D02*
D03*
Y-109900D02*
D03*
D27*
X210000D02*
D03*
X-210000Y-21000D02*
D03*
D28*
X170000Y-19200D02*
D03*
X-170000D02*
D03*
D29*
X170000Y-120800D02*
D03*
Y-70000D02*
D03*
X-170000Y-120800D02*
D03*
Y-70000D02*
D03*
D30*
X-210000Y-136000D02*
D03*
X210000D02*
D03*
D31*
X127500Y-17500D02*
D03*
Y-82500D02*
D03*
X82500Y-17500D02*
D03*
Y-82500D02*
D03*
X-75000Y-25000D02*
D03*
Y-50000D02*
D03*
Y-75000D02*
D03*
D32*
X115000Y4000D02*
D03*
Y-104000D02*
D03*
X-98000Y-133000D02*
D03*
X98000D02*
D03*
X83000Y-104000D02*
D03*
Y4000D02*
D03*
X197000Y19000D02*
D03*
X143000Y19000D02*
D03*
X-143000D02*
D03*
X-197000D02*
D03*
D33*
X-95000Y-98000D02*
D03*
Y-2000D02*
D03*
D34*
X5500Y-50000D02*
D03*
D35*
X100000Y50000D02*
D03*
X-125000Y-133000D02*
D03*
X125000D02*
D03*
X170000Y19000D02*
D03*
X-170000D02*
D03*
X-100000Y50000D02*
D03*
D36*
X154000Y-63000D02*
D03*
X218000Y-91100D02*
D03*
Y-78100D02*
D03*
Y-65100D02*
D03*
Y-53100D02*
D03*
Y-40100D02*
D03*
Y-28100D02*
D03*
Y-117100D02*
D03*
Y-104100D02*
D03*
X-218000Y-91000D02*
D03*
Y-78000D02*
D03*
Y-65000D02*
D03*
Y-53000D02*
D03*
Y-40000D02*
D03*
Y-28000D02*
D03*
Y-117000D02*
D03*
Y-104000D02*
D03*
M02*
