G04*
G04 #@! TF.GenerationSoftware,Altium Limited,Altium Designer,25.8.1 (18)*
G04*
G04 Layer_Color=65535*
%FSLAX44Y44*%
%MOMM*%
G71*
G04*
G04 #@! TF.SameCoordinates,D4E68EFC-F169-47B5-8344-17C97678413F*
G04*
G04*
G04 #@! TF.FilePolarity,Positive*
G04*
G01*
G75*
%ADD10C,0.2540*%
%ADD11C,0.2000*%
%ADD12C,0.1500*%
%ADD13C,0.1800*%
G36*
X-61754Y65481D02*
X-61691D01*
Y65465D01*
X-61643D01*
Y65449D01*
X-61612D01*
Y65433D01*
X-61580D01*
Y65417D01*
X-61548D01*
Y65402D01*
X-61517D01*
Y65386D01*
X-61501D01*
Y65370D01*
X-61485D01*
Y65354D01*
X-61453D01*
Y65338D01*
X-61438D01*
Y65322D01*
X-61422D01*
Y65291D01*
X-61406D01*
Y65275D01*
X-61390D01*
Y65259D01*
X-61374D01*
Y65243D01*
X-61358D01*
Y65212D01*
X-61343D01*
Y65180D01*
X-61327D01*
Y65148D01*
X-61311D01*
Y65101D01*
X-61295D01*
Y65053D01*
X-61279D01*
Y64942D01*
X-61263D01*
Y58451D01*
X-61279D01*
Y58340D01*
X-61295D01*
Y58292D01*
X-61311D01*
Y58245D01*
X-61327D01*
Y58213D01*
X-61343D01*
Y58182D01*
X-61358D01*
Y58166D01*
X-61374D01*
Y58134D01*
X-61390D01*
Y58118D01*
X-61406D01*
Y58102D01*
X-61422D01*
Y58087D01*
X-61438D01*
Y58071D01*
X-61453D01*
Y58055D01*
X-61469D01*
Y58039D01*
X-61485D01*
Y58023D01*
X-61501D01*
Y58007D01*
X-61533D01*
Y57992D01*
X-61548D01*
Y57976D01*
X-61580D01*
Y57960D01*
X-61612D01*
Y57944D01*
X-61659D01*
Y57928D01*
X-61707D01*
Y57913D01*
X-61817D01*
Y57897D01*
X-64272D01*
Y57913D01*
X-64383D01*
Y57928D01*
X-64446D01*
Y57944D01*
X-64493D01*
Y57960D01*
X-64525D01*
Y57976D01*
X-64557D01*
Y57992D01*
X-64588D01*
Y58007D01*
X-64604D01*
Y58023D01*
X-64620D01*
Y58039D01*
X-64652D01*
Y58055D01*
X-64668D01*
Y58071D01*
X-64683D01*
Y58087D01*
X-64699D01*
Y58102D01*
X-64715D01*
Y58118D01*
X-64731D01*
Y58150D01*
X-64747D01*
Y58166D01*
X-64763D01*
Y58197D01*
X-64778D01*
Y58229D01*
X-64794D01*
Y58261D01*
X-64810D01*
Y58308D01*
X-64826D01*
Y58356D01*
X-64842D01*
Y60636D01*
X-64858D01*
Y60731D01*
X-64873D01*
Y60778D01*
X-64889D01*
Y60826D01*
X-64905D01*
Y60858D01*
X-64921D01*
Y60889D01*
X-64937D01*
Y60921D01*
X-64953D01*
Y60937D01*
X-64968D01*
Y60968D01*
X-64984D01*
Y60984D01*
X-65000D01*
Y61000D01*
X-65032D01*
Y61016D01*
X-65063D01*
Y61032D01*
X-65142D01*
Y61016D01*
X-65190D01*
Y61000D01*
X-65206D01*
Y60984D01*
X-65222D01*
Y60968D01*
X-65237D01*
Y60953D01*
X-65253D01*
Y60937D01*
X-65269D01*
Y60921D01*
X-65285D01*
Y60905D01*
X-65301D01*
Y60889D01*
X-65317D01*
Y60873D01*
X-65332D01*
Y60858D01*
X-65348D01*
Y60842D01*
X-65364D01*
Y60826D01*
X-65380D01*
Y60810D01*
X-65396D01*
Y60794D01*
X-65412D01*
Y60778D01*
X-65427D01*
Y60763D01*
X-65443D01*
Y60747D01*
X-65459D01*
Y60731D01*
X-65475D01*
Y60715D01*
X-65491D01*
Y60683D01*
X-65507D01*
Y60668D01*
X-65522D01*
Y60652D01*
X-65538D01*
Y60636D01*
X-65554D01*
Y60620D01*
X-65570D01*
Y60604D01*
X-65586D01*
Y60588D01*
X-65602D01*
Y60573D01*
X-65617D01*
Y60557D01*
X-65633D01*
Y60541D01*
X-65649D01*
Y60525D01*
X-65665D01*
Y60509D01*
X-65681D01*
Y60493D01*
X-65697D01*
Y60477D01*
X-65712D01*
Y60462D01*
X-65728D01*
Y60446D01*
X-65744D01*
Y60430D01*
X-65760D01*
Y60414D01*
X-65776D01*
Y60398D01*
X-65792D01*
Y60382D01*
X-65807D01*
Y60367D01*
X-65823D01*
Y60335D01*
X-65839D01*
Y60319D01*
X-65855D01*
Y60303D01*
X-65871D01*
Y60287D01*
X-65887D01*
Y60272D01*
X-65903D01*
Y60256D01*
X-65918D01*
Y60240D01*
X-65934D01*
Y60224D01*
X-65950D01*
Y60208D01*
X-65966D01*
Y60192D01*
X-65982D01*
Y60177D01*
X-65998D01*
Y60161D01*
X-66013D01*
Y60145D01*
X-66029D01*
Y60129D01*
X-66045D01*
Y60113D01*
X-66061D01*
Y60097D01*
X-66077D01*
Y60082D01*
X-66093D01*
Y60066D01*
X-66108D01*
Y60050D01*
X-66124D01*
Y60018D01*
X-66140D01*
Y60002D01*
X-66156D01*
Y59987D01*
X-66172D01*
Y59971D01*
X-66188D01*
Y59955D01*
X-66203D01*
Y59939D01*
X-66219D01*
Y59923D01*
X-66235D01*
Y59907D01*
X-66251D01*
Y59892D01*
X-66267D01*
Y59876D01*
X-66283D01*
Y59860D01*
X-66298D01*
Y59844D01*
X-66314D01*
Y59828D01*
X-66330D01*
Y59812D01*
X-66346D01*
Y59797D01*
X-66362D01*
Y59781D01*
X-66378D01*
Y59765D01*
X-66393D01*
Y59749D01*
X-66409D01*
Y59733D01*
X-66425D01*
Y59702D01*
X-66441D01*
Y59686D01*
X-66457D01*
Y59670D01*
X-66473D01*
Y59654D01*
X-66488D01*
Y59638D01*
X-66504D01*
Y59623D01*
X-66520D01*
Y59607D01*
X-66536D01*
Y59591D01*
X-66552D01*
Y59575D01*
X-66568D01*
Y59559D01*
X-66583D01*
Y59543D01*
X-66599D01*
Y59528D01*
X-66615D01*
Y59512D01*
X-66631D01*
Y59496D01*
X-66647D01*
Y59480D01*
X-66663D01*
Y59464D01*
X-66678D01*
Y59448D01*
X-66694D01*
Y59433D01*
X-66710D01*
Y59417D01*
X-66726D01*
Y59385D01*
X-66742D01*
Y59369D01*
X-66757D01*
Y59353D01*
X-66773D01*
Y59338D01*
X-66789D01*
Y59322D01*
X-66805D01*
Y59306D01*
X-66821D01*
Y59290D01*
X-66837D01*
Y59274D01*
X-66852D01*
Y59258D01*
X-66868D01*
Y59243D01*
X-66884D01*
Y59227D01*
X-66900D01*
Y59211D01*
X-66916D01*
Y59195D01*
X-66932D01*
Y59179D01*
X-66947D01*
Y59163D01*
X-66963D01*
Y59148D01*
X-66979D01*
Y59132D01*
X-66995D01*
Y59116D01*
X-67011D01*
Y59100D01*
X-67027D01*
Y59068D01*
X-67042D01*
Y59053D01*
X-67058D01*
Y59037D01*
X-67074D01*
Y59021D01*
X-67090D01*
Y59005D01*
X-67106D01*
Y58989D01*
X-67122D01*
Y58973D01*
X-67137D01*
Y58958D01*
X-67153D01*
Y58942D01*
X-67169D01*
Y58926D01*
X-67185D01*
Y58910D01*
X-67201D01*
Y58894D01*
X-67217D01*
Y58878D01*
X-67232D01*
Y58863D01*
X-67248D01*
Y58847D01*
X-67264D01*
Y58831D01*
X-67280D01*
Y58815D01*
X-67296D01*
Y58799D01*
X-67312D01*
Y58783D01*
X-67327D01*
Y58752D01*
X-67343D01*
Y58736D01*
X-67359D01*
Y58720D01*
X-67375D01*
Y58704D01*
X-67391D01*
Y58688D01*
X-67407D01*
Y58672D01*
X-67422D01*
Y58657D01*
X-67438D01*
Y58641D01*
X-67454D01*
Y58625D01*
X-67470D01*
Y58609D01*
X-67486D01*
Y58593D01*
X-67502D01*
Y58577D01*
X-67517D01*
Y58562D01*
X-67533D01*
Y58546D01*
X-67549D01*
Y58530D01*
X-67565D01*
Y58514D01*
X-67581D01*
Y58498D01*
X-67597D01*
Y58482D01*
X-67613D01*
Y58467D01*
X-67628D01*
Y58435D01*
X-67644D01*
Y58419D01*
X-67660D01*
Y58403D01*
X-67676D01*
Y58387D01*
X-67692D01*
Y58372D01*
X-67708D01*
Y58356D01*
X-67723D01*
Y58340D01*
X-67739D01*
Y58324D01*
X-67755D01*
Y58308D01*
X-67771D01*
Y58292D01*
X-67787D01*
Y58277D01*
X-67803D01*
Y58261D01*
X-67818D01*
Y58245D01*
X-67834D01*
Y58229D01*
X-67850D01*
Y58213D01*
X-67866D01*
Y58197D01*
X-67882D01*
Y58182D01*
X-67898D01*
Y58166D01*
X-67913D01*
Y58150D01*
X-67929D01*
Y58118D01*
X-67945D01*
Y58102D01*
X-67961D01*
Y58087D01*
X-67993D01*
Y58071D01*
X-68008D01*
Y58055D01*
X-68024D01*
Y58039D01*
X-68040D01*
Y58023D01*
X-68056D01*
Y58007D01*
X-68088D01*
Y57992D01*
X-68119D01*
Y57976D01*
X-68151D01*
Y57960D01*
X-68198D01*
Y57944D01*
X-68278D01*
Y57928D01*
X-68483D01*
Y57944D01*
X-68547D01*
Y57960D01*
X-68594D01*
Y57976D01*
X-68626D01*
Y57992D01*
X-68657D01*
Y58007D01*
X-68689D01*
Y58023D01*
X-68705D01*
Y58039D01*
X-68721D01*
Y58055D01*
X-68752D01*
Y58071D01*
X-68768D01*
Y58087D01*
X-68784D01*
Y58102D01*
X-68800D01*
Y58118D01*
X-68816D01*
Y58134D01*
X-68832D01*
Y58150D01*
X-68847D01*
Y58166D01*
X-68863D01*
Y58197D01*
X-68879D01*
Y58213D01*
X-68895D01*
Y58229D01*
X-68911D01*
Y58245D01*
X-68927D01*
Y58261D01*
X-68942D01*
Y58277D01*
X-68958D01*
Y58292D01*
X-68974D01*
Y58308D01*
X-68990D01*
Y58324D01*
X-69006D01*
Y58340D01*
X-69022D01*
Y58356D01*
X-69037D01*
Y58372D01*
X-69053D01*
Y58387D01*
X-69069D01*
Y58403D01*
X-69085D01*
Y58419D01*
X-69101D01*
Y58435D01*
X-69117D01*
Y58451D01*
X-69132D01*
Y58467D01*
X-69148D01*
Y58482D01*
X-69164D01*
Y58514D01*
X-69180D01*
Y58530D01*
X-69196D01*
Y58546D01*
X-69212D01*
Y58562D01*
X-69227D01*
Y58577D01*
X-69243D01*
Y58593D01*
X-69259D01*
Y58609D01*
X-69275D01*
Y58625D01*
X-69291D01*
Y58641D01*
X-69307D01*
Y58657D01*
X-69323D01*
Y58672D01*
X-69338D01*
Y58688D01*
X-69354D01*
Y58704D01*
X-69370D01*
Y58720D01*
X-69386D01*
Y58736D01*
X-69402D01*
Y58752D01*
X-69418D01*
Y58767D01*
X-69433D01*
Y58783D01*
X-69449D01*
Y58799D01*
X-69465D01*
Y58831D01*
X-69481D01*
Y58847D01*
X-69497D01*
Y58863D01*
X-69513D01*
Y58878D01*
X-69528D01*
Y58894D01*
X-69544D01*
Y58910D01*
X-69560D01*
Y58926D01*
X-69576D01*
Y58942D01*
X-69592D01*
Y58958D01*
X-69608D01*
Y58973D01*
X-69623D01*
Y58989D01*
X-69639D01*
Y59005D01*
X-69655D01*
Y59021D01*
X-69671D01*
Y59037D01*
X-69687D01*
Y59053D01*
X-69703D01*
Y59068D01*
X-69718D01*
Y59084D01*
X-69734D01*
Y59100D01*
X-69750D01*
Y59116D01*
X-69766D01*
Y59148D01*
X-69782D01*
Y59163D01*
X-69798D01*
Y59179D01*
X-69813D01*
Y59195D01*
X-69829D01*
Y59211D01*
X-69845D01*
Y59227D01*
X-69861D01*
Y59243D01*
X-69877D01*
Y59258D01*
X-69893D01*
Y59274D01*
X-69908D01*
Y59290D01*
X-69924D01*
Y59306D01*
X-69940D01*
Y59322D01*
X-69956D01*
Y59338D01*
X-69972D01*
Y59353D01*
X-69988D01*
Y59369D01*
X-70003D01*
Y59385D01*
X-70019D01*
Y59401D01*
X-70035D01*
Y59417D01*
X-70051D01*
Y59433D01*
X-70067D01*
Y59464D01*
X-70083D01*
Y59480D01*
X-70098D01*
Y59496D01*
X-70114D01*
Y59512D01*
X-70130D01*
Y59528D01*
X-70146D01*
Y59543D01*
X-70162D01*
Y59559D01*
X-70177D01*
Y59575D01*
X-70193D01*
Y59591D01*
X-70209D01*
Y59607D01*
X-70225D01*
Y59623D01*
X-70241D01*
Y59638D01*
X-70257D01*
Y59654D01*
X-70272D01*
Y59670D01*
X-70288D01*
Y59686D01*
X-70304D01*
Y59702D01*
X-70320D01*
Y59717D01*
X-70336D01*
Y59733D01*
X-70352D01*
Y59749D01*
X-70367D01*
Y59781D01*
X-70383D01*
Y59797D01*
X-70399D01*
Y59812D01*
X-70415D01*
Y59828D01*
X-70431D01*
Y59844D01*
X-70447D01*
Y59860D01*
X-70462D01*
Y59876D01*
X-70478D01*
Y59892D01*
X-70494D01*
Y59907D01*
X-70510D01*
Y59923D01*
X-70526D01*
Y59939D01*
X-70542D01*
Y59955D01*
X-70557D01*
Y59971D01*
X-70573D01*
Y59987D01*
X-70589D01*
Y60002D01*
X-70605D01*
Y60018D01*
X-70621D01*
Y60034D01*
X-70637D01*
Y60050D01*
X-70652D01*
Y60066D01*
X-70668D01*
Y60082D01*
X-70684D01*
Y60113D01*
X-70700D01*
Y60129D01*
X-70716D01*
Y60145D01*
X-70732D01*
Y60161D01*
X-70747D01*
Y60177D01*
X-70763D01*
Y60192D01*
X-70779D01*
Y60208D01*
X-70795D01*
Y60224D01*
X-70811D01*
Y60240D01*
X-70827D01*
Y60256D01*
X-70842D01*
Y60272D01*
X-70858D01*
Y60287D01*
X-70874D01*
Y60303D01*
X-70890D01*
Y60319D01*
X-70906D01*
Y60335D01*
X-70922D01*
Y60351D01*
X-70938D01*
Y60367D01*
X-70953D01*
Y60382D01*
X-70969D01*
Y60398D01*
X-70985D01*
Y60414D01*
X-71001D01*
Y60430D01*
X-71017D01*
Y60462D01*
X-71033D01*
Y60477D01*
X-71048D01*
Y60493D01*
X-71064D01*
Y60509D01*
X-71080D01*
Y60525D01*
X-71096D01*
Y60541D01*
X-71112D01*
Y60557D01*
X-71128D01*
Y60573D01*
X-71143D01*
Y60588D01*
X-71159D01*
Y60604D01*
X-71175D01*
Y60620D01*
X-71191D01*
Y60636D01*
X-71207D01*
Y60652D01*
X-71223D01*
Y60668D01*
X-71238D01*
Y60683D01*
X-71254D01*
Y60699D01*
X-71270D01*
Y60715D01*
X-71286D01*
Y60731D01*
X-71302D01*
Y60763D01*
X-71318D01*
Y60778D01*
X-71333D01*
Y60794D01*
X-71349D01*
Y60810D01*
X-71365D01*
Y60826D01*
X-71381D01*
Y60842D01*
X-71397D01*
Y60858D01*
X-71413D01*
Y60873D01*
X-71428D01*
Y60889D01*
X-71444D01*
Y60905D01*
X-71460D01*
Y60921D01*
X-71476D01*
Y60937D01*
X-71492D01*
Y60953D01*
X-71508D01*
Y60968D01*
X-71523D01*
Y60984D01*
X-71539D01*
Y61000D01*
X-71555D01*
Y61016D01*
X-71603D01*
Y61032D01*
X-71698D01*
Y61016D01*
X-71713D01*
Y61000D01*
X-71745D01*
Y60984D01*
X-71761D01*
Y60968D01*
X-71777D01*
Y60953D01*
X-71792D01*
Y60921D01*
X-71808D01*
Y60905D01*
X-71824D01*
Y60873D01*
X-71840D01*
Y60842D01*
X-71856D01*
Y60794D01*
X-71872D01*
Y60747D01*
X-71887D01*
Y60668D01*
X-71903D01*
Y58372D01*
X-71919D01*
Y58308D01*
X-71935D01*
Y58261D01*
X-71951D01*
Y58229D01*
X-71967D01*
Y58197D01*
X-71982D01*
Y58182D01*
X-71998D01*
Y58150D01*
X-72014D01*
Y58134D01*
X-72030D01*
Y58118D01*
X-72046D01*
Y58087D01*
X-72062D01*
Y58071D01*
X-72077D01*
Y58055D01*
X-72109D01*
Y58039D01*
X-72125D01*
Y58023D01*
X-72141D01*
Y58007D01*
X-72172D01*
Y57992D01*
X-72188D01*
Y57976D01*
X-72220D01*
Y57960D01*
X-72252D01*
Y57944D01*
X-72299D01*
Y57928D01*
X-72362D01*
Y57913D01*
X-72473D01*
Y57897D01*
X-74928D01*
Y57913D01*
X-75038D01*
Y57928D01*
X-75086D01*
Y57944D01*
X-75133D01*
Y57960D01*
X-75165D01*
Y57976D01*
X-75197D01*
Y57992D01*
X-75228D01*
Y58007D01*
X-75244D01*
Y58023D01*
X-75260D01*
Y58039D01*
X-75276D01*
Y58055D01*
X-75292D01*
Y58071D01*
X-75307D01*
Y58087D01*
X-75323D01*
Y58102D01*
X-75339D01*
Y58118D01*
X-75355D01*
Y58134D01*
X-75371D01*
Y58150D01*
X-75387D01*
Y58182D01*
X-75402D01*
Y58213D01*
X-75418D01*
Y58245D01*
X-75434D01*
Y58277D01*
X-75450D01*
Y58340D01*
X-75466D01*
Y58419D01*
X-75482D01*
Y64974D01*
X-75466D01*
Y65069D01*
X-75450D01*
Y65117D01*
X-75434D01*
Y65164D01*
X-75418D01*
Y65196D01*
X-75402D01*
Y65212D01*
X-75387D01*
Y65243D01*
X-75371D01*
Y65259D01*
X-75355D01*
Y65291D01*
X-75339D01*
Y65307D01*
X-75323D01*
Y65322D01*
X-75307D01*
Y65338D01*
X-75292D01*
Y65354D01*
X-75276D01*
Y65370D01*
X-75244D01*
Y65386D01*
X-75228D01*
Y65402D01*
X-75197D01*
Y65417D01*
X-75165D01*
Y65433D01*
X-75133D01*
Y65449D01*
X-75102D01*
Y65465D01*
X-75054D01*
Y65481D01*
X-74991D01*
Y65497D01*
X-72014D01*
Y65481D01*
X-71967D01*
Y65465D01*
X-71919D01*
Y65449D01*
X-71887D01*
Y65433D01*
X-71856D01*
Y65417D01*
X-71824D01*
Y65402D01*
X-71808D01*
Y65386D01*
X-71777D01*
Y65370D01*
X-71761D01*
Y65354D01*
X-71745D01*
Y65338D01*
X-71729D01*
Y65322D01*
X-71713D01*
Y65307D01*
X-71698D01*
Y65291D01*
X-71682D01*
Y65275D01*
X-71666D01*
Y65259D01*
X-71650D01*
Y65243D01*
X-71634D01*
Y65227D01*
X-71618D01*
Y65212D01*
X-71603D01*
Y65196D01*
X-71587D01*
Y65180D01*
X-71571D01*
Y65164D01*
X-71555D01*
Y65148D01*
X-71539D01*
Y65132D01*
X-71523D01*
Y65117D01*
X-71508D01*
Y65101D01*
X-71492D01*
Y65085D01*
X-71476D01*
Y65069D01*
X-71460D01*
Y65053D01*
X-71444D01*
Y65022D01*
X-71428D01*
Y65006D01*
X-71413D01*
Y64990D01*
X-71397D01*
Y64974D01*
X-71381D01*
Y64958D01*
X-71365D01*
Y64942D01*
X-71349D01*
Y64927D01*
X-71333D01*
Y64911D01*
X-71318D01*
Y64895D01*
X-71302D01*
Y64879D01*
X-71286D01*
Y64863D01*
X-71270D01*
Y64847D01*
X-71254D01*
Y64832D01*
X-71238D01*
Y64816D01*
X-71223D01*
Y64800D01*
X-71207D01*
Y64784D01*
X-71191D01*
Y64768D01*
X-71175D01*
Y64752D01*
X-71159D01*
Y64721D01*
X-71143D01*
Y64705D01*
X-71128D01*
Y64689D01*
X-71112D01*
Y64673D01*
X-71096D01*
Y64658D01*
X-71080D01*
Y64642D01*
X-71064D01*
Y64626D01*
X-71048D01*
Y64610D01*
X-71033D01*
Y64594D01*
X-71017D01*
Y64578D01*
X-71001D01*
Y64563D01*
X-70985D01*
Y64547D01*
X-70969D01*
Y64531D01*
X-70953D01*
Y64515D01*
X-70938D01*
Y64499D01*
X-70922D01*
Y64483D01*
X-70906D01*
Y64468D01*
X-70890D01*
Y64452D01*
X-70874D01*
Y64436D01*
X-70858D01*
Y64404D01*
X-70842D01*
Y64388D01*
X-70827D01*
Y64373D01*
X-70811D01*
Y64357D01*
X-70795D01*
Y64341D01*
X-70779D01*
Y64325D01*
X-70763D01*
Y64309D01*
X-70747D01*
Y64293D01*
X-70732D01*
Y64278D01*
X-70716D01*
Y64262D01*
X-70700D01*
Y64246D01*
X-70684D01*
Y64230D01*
X-70668D01*
Y64214D01*
X-70652D01*
Y64198D01*
X-70637D01*
Y64183D01*
X-70621D01*
Y64167D01*
X-70605D01*
Y64151D01*
X-70589D01*
Y64135D01*
X-70573D01*
Y64119D01*
X-70557D01*
Y64103D01*
X-70542D01*
Y64088D01*
X-70526D01*
Y64056D01*
X-70510D01*
Y64040D01*
X-70494D01*
Y64024D01*
X-70478D01*
Y64008D01*
X-70462D01*
Y63993D01*
X-70447D01*
Y63977D01*
X-70431D01*
Y63961D01*
X-70415D01*
Y63945D01*
X-70399D01*
Y63929D01*
X-70383D01*
Y63913D01*
X-70367D01*
Y63898D01*
X-70352D01*
Y63882D01*
X-70336D01*
Y63866D01*
X-70320D01*
Y63850D01*
X-70304D01*
Y63834D01*
X-70288D01*
Y63818D01*
X-70272D01*
Y63802D01*
X-70257D01*
Y63787D01*
X-70241D01*
Y63771D01*
X-70225D01*
Y63739D01*
X-70209D01*
Y63723D01*
X-70193D01*
Y63707D01*
X-70177D01*
Y63692D01*
X-70162D01*
Y63676D01*
X-70146D01*
Y63660D01*
X-70130D01*
Y63644D01*
X-70114D01*
Y63628D01*
X-70098D01*
Y63612D01*
X-70083D01*
Y63597D01*
X-70067D01*
Y63581D01*
X-70051D01*
Y63565D01*
X-70035D01*
Y63549D01*
X-70019D01*
Y63533D01*
X-70003D01*
Y63517D01*
X-69988D01*
Y63502D01*
X-69972D01*
Y63486D01*
X-69956D01*
Y63470D01*
X-69940D01*
Y63454D01*
X-69924D01*
Y63422D01*
X-69908D01*
Y63407D01*
X-69893D01*
Y63391D01*
X-69877D01*
Y63375D01*
X-69861D01*
Y63359D01*
X-69845D01*
Y63343D01*
X-69829D01*
Y63327D01*
X-69813D01*
Y63312D01*
X-69798D01*
Y63296D01*
X-69782D01*
Y63280D01*
X-69766D01*
Y63264D01*
X-69750D01*
Y63248D01*
X-69734D01*
Y63232D01*
X-69718D01*
Y63217D01*
X-69703D01*
Y63201D01*
X-69687D01*
Y63185D01*
X-69671D01*
Y63169D01*
X-69655D01*
Y63153D01*
X-69639D01*
Y63137D01*
X-69623D01*
Y63106D01*
X-69608D01*
Y63090D01*
X-69592D01*
Y63074D01*
X-69576D01*
Y63058D01*
X-69560D01*
Y63042D01*
X-69544D01*
Y63027D01*
X-69528D01*
Y63011D01*
X-69513D01*
Y62995D01*
X-69497D01*
Y62979D01*
X-69481D01*
Y62963D01*
X-69465D01*
Y62948D01*
X-69449D01*
Y62932D01*
X-69433D01*
Y62916D01*
X-69418D01*
Y62900D01*
X-69402D01*
Y62884D01*
X-69386D01*
Y62868D01*
X-69370D01*
Y62853D01*
X-69354D01*
Y62837D01*
X-69338D01*
Y62821D01*
X-69323D01*
Y62805D01*
X-69307D01*
Y62773D01*
X-69291D01*
Y62758D01*
X-69275D01*
Y62742D01*
X-69259D01*
Y62726D01*
X-69243D01*
Y62710D01*
X-69227D01*
Y62694D01*
X-69212D01*
Y62678D01*
X-69196D01*
Y62663D01*
X-69180D01*
Y62647D01*
X-69164D01*
Y62631D01*
X-69148D01*
Y62615D01*
X-69132D01*
Y62599D01*
X-69117D01*
Y62583D01*
X-69101D01*
Y62568D01*
X-69085D01*
Y62552D01*
X-69069D01*
Y62536D01*
X-69053D01*
Y62520D01*
X-69037D01*
Y62504D01*
X-69022D01*
Y62473D01*
X-69006D01*
Y62457D01*
X-68990D01*
Y62441D01*
X-68974D01*
Y62425D01*
X-68958D01*
Y62409D01*
X-68942D01*
Y62393D01*
X-68927D01*
Y62378D01*
X-68911D01*
Y62362D01*
X-68895D01*
Y62346D01*
X-68879D01*
Y62330D01*
X-68863D01*
Y62314D01*
X-68847D01*
Y62298D01*
X-68832D01*
Y62283D01*
X-68816D01*
Y62267D01*
X-68800D01*
Y62251D01*
X-68784D01*
Y62235D01*
X-68768D01*
Y62219D01*
X-68752D01*
Y62203D01*
X-68737D01*
Y62188D01*
X-68721D01*
Y62156D01*
X-68705D01*
Y62140D01*
X-68689D01*
Y62124D01*
X-68673D01*
Y62108D01*
X-68657D01*
Y62092D01*
X-68642D01*
Y62077D01*
X-68626D01*
Y62061D01*
X-68610D01*
Y62045D01*
X-68594D01*
Y62029D01*
X-68578D01*
Y62013D01*
X-68562D01*
Y61997D01*
X-68547D01*
Y61982D01*
X-68531D01*
Y61966D01*
X-68515D01*
Y61950D01*
X-68499D01*
Y61934D01*
X-68483D01*
Y61918D01*
X-68467D01*
Y61902D01*
X-68436D01*
Y61887D01*
X-68404D01*
Y61871D01*
X-68341D01*
Y61887D01*
X-68309D01*
Y61902D01*
X-68278D01*
Y61918D01*
X-68262D01*
Y61934D01*
X-68246D01*
Y61950D01*
X-68230D01*
Y61966D01*
X-68214D01*
Y61982D01*
X-68198D01*
Y61997D01*
X-68183D01*
Y62013D01*
X-68167D01*
Y62029D01*
X-68151D01*
Y62045D01*
X-68135D01*
Y62061D01*
X-68119D01*
Y62092D01*
X-68103D01*
Y62108D01*
X-68088D01*
Y62124D01*
X-68072D01*
Y62140D01*
X-68056D01*
Y62156D01*
X-68040D01*
Y62172D01*
X-68024D01*
Y62188D01*
X-68008D01*
Y62203D01*
X-67993D01*
Y62219D01*
X-67977D01*
Y62235D01*
X-67961D01*
Y62251D01*
X-67945D01*
Y62267D01*
X-67929D01*
Y62283D01*
X-67913D01*
Y62298D01*
X-67898D01*
Y62314D01*
X-67882D01*
Y62330D01*
X-67866D01*
Y62346D01*
X-67850D01*
Y62362D01*
X-67834D01*
Y62378D01*
X-67818D01*
Y62393D01*
X-67803D01*
Y62409D01*
X-67787D01*
Y62441D01*
X-67771D01*
Y62457D01*
X-67755D01*
Y62473D01*
X-67739D01*
Y62488D01*
X-67723D01*
Y62504D01*
X-67708D01*
Y62520D01*
X-67692D01*
Y62536D01*
X-67676D01*
Y62552D01*
X-67660D01*
Y62568D01*
X-67644D01*
Y62583D01*
X-67628D01*
Y62599D01*
X-67613D01*
Y62615D01*
X-67597D01*
Y62631D01*
X-67581D01*
Y62647D01*
X-67565D01*
Y62663D01*
X-67549D01*
Y62678D01*
X-67533D01*
Y62694D01*
X-67517D01*
Y62710D01*
X-67502D01*
Y62726D01*
X-67486D01*
Y62758D01*
X-67470D01*
Y62773D01*
X-67454D01*
Y62789D01*
X-67438D01*
Y62805D01*
X-67422D01*
Y62821D01*
X-67407D01*
Y62837D01*
X-67391D01*
Y62853D01*
X-67375D01*
Y62868D01*
X-67359D01*
Y62884D01*
X-67343D01*
Y62900D01*
X-67327D01*
Y62916D01*
X-67312D01*
Y62932D01*
X-67296D01*
Y62948D01*
X-67280D01*
Y62963D01*
X-67264D01*
Y62979D01*
X-67248D01*
Y62995D01*
X-67232D01*
Y63011D01*
X-67217D01*
Y63027D01*
X-67201D01*
Y63042D01*
X-67185D01*
Y63074D01*
X-67169D01*
Y63090D01*
X-67153D01*
Y63106D01*
X-67137D01*
Y63122D01*
X-67122D01*
Y63137D01*
X-67106D01*
Y63153D01*
X-67090D01*
Y63169D01*
X-67074D01*
Y63185D01*
X-67058D01*
Y63201D01*
X-67042D01*
Y63217D01*
X-67027D01*
Y63232D01*
X-67011D01*
Y63248D01*
X-66995D01*
Y63264D01*
X-66979D01*
Y63280D01*
X-66963D01*
Y63296D01*
X-66947D01*
Y63312D01*
X-66932D01*
Y63327D01*
X-66916D01*
Y63343D01*
X-66900D01*
Y63359D01*
X-66884D01*
Y63391D01*
X-66868D01*
Y63407D01*
X-66852D01*
Y63422D01*
X-66837D01*
Y63438D01*
X-66821D01*
Y63454D01*
X-66805D01*
Y63470D01*
X-66789D01*
Y63486D01*
X-66773D01*
Y63502D01*
X-66757D01*
Y63517D01*
X-66742D01*
Y63533D01*
X-66726D01*
Y63549D01*
X-66710D01*
Y63565D01*
X-66694D01*
Y63581D01*
X-66678D01*
Y63597D01*
X-66663D01*
Y63612D01*
X-66647D01*
Y63628D01*
X-66631D01*
Y63644D01*
X-66615D01*
Y63660D01*
X-66599D01*
Y63676D01*
X-66583D01*
Y63707D01*
X-66568D01*
Y63723D01*
X-66552D01*
Y63739D01*
X-66536D01*
Y63755D01*
X-66520D01*
Y63771D01*
X-66504D01*
Y63787D01*
X-66488D01*
Y63802D01*
X-66473D01*
Y63818D01*
X-66457D01*
Y63834D01*
X-66441D01*
Y63850D01*
X-66425D01*
Y63866D01*
X-66409D01*
Y63882D01*
X-66393D01*
Y63898D01*
X-66378D01*
Y63913D01*
X-66362D01*
Y63929D01*
X-66346D01*
Y63945D01*
X-66330D01*
Y63961D01*
X-66314D01*
Y63977D01*
X-66298D01*
Y63993D01*
X-66283D01*
Y64024D01*
X-66267D01*
Y64040D01*
X-66251D01*
Y64056D01*
X-66235D01*
Y64072D01*
X-66219D01*
Y64088D01*
X-66203D01*
Y64103D01*
X-66188D01*
Y64119D01*
X-66172D01*
Y64135D01*
X-66156D01*
Y64151D01*
X-66140D01*
Y64167D01*
X-66124D01*
Y64183D01*
X-66108D01*
Y64198D01*
X-66093D01*
Y64214D01*
X-66077D01*
Y64230D01*
X-66061D01*
Y64246D01*
X-66045D01*
Y64262D01*
X-66029D01*
Y64278D01*
X-66013D01*
Y64293D01*
X-65998D01*
Y64309D01*
X-65982D01*
Y64341D01*
X-65966D01*
Y64357D01*
X-65950D01*
Y64373D01*
X-65934D01*
Y64388D01*
X-65918D01*
Y64404D01*
X-65903D01*
Y64420D01*
X-65887D01*
Y64436D01*
X-65871D01*
Y64452D01*
X-65855D01*
Y64468D01*
X-65839D01*
Y64483D01*
X-65823D01*
Y64499D01*
X-65807D01*
Y64515D01*
X-65792D01*
Y64531D01*
X-65776D01*
Y64547D01*
X-65760D01*
Y64563D01*
X-65744D01*
Y64578D01*
X-65728D01*
Y64594D01*
X-65712D01*
Y64610D01*
X-65697D01*
Y64626D01*
X-65681D01*
Y64642D01*
X-65665D01*
Y64658D01*
X-65649D01*
Y64689D01*
X-65633D01*
Y64705D01*
X-65617D01*
Y64721D01*
X-65602D01*
Y64737D01*
X-65586D01*
Y64752D01*
X-65570D01*
Y64768D01*
X-65554D01*
Y64784D01*
X-65538D01*
Y64800D01*
X-65522D01*
Y64816D01*
X-65507D01*
Y64832D01*
X-65491D01*
Y64847D01*
X-65475D01*
Y64863D01*
X-65459D01*
Y64879D01*
X-65443D01*
Y64895D01*
X-65427D01*
Y64911D01*
X-65412D01*
Y64927D01*
X-65396D01*
Y64942D01*
X-65380D01*
Y64958D01*
X-65364D01*
Y64974D01*
X-65348D01*
Y65006D01*
X-65332D01*
Y65022D01*
X-65317D01*
Y65037D01*
X-65301D01*
Y65053D01*
X-65285D01*
Y65069D01*
X-65269D01*
Y65085D01*
X-65253D01*
Y65101D01*
X-65237D01*
Y65117D01*
X-65222D01*
Y65132D01*
X-65206D01*
Y65148D01*
X-65190D01*
Y65164D01*
X-65174D01*
Y65180D01*
X-65158D01*
Y65196D01*
X-65142D01*
Y65212D01*
X-65127D01*
Y65227D01*
X-65111D01*
Y65243D01*
X-65095D01*
Y65259D01*
X-65079D01*
Y65275D01*
X-65063D01*
Y65307D01*
X-65047D01*
Y65322D01*
X-65032D01*
Y65338D01*
X-65016D01*
Y65354D01*
X-64984D01*
Y65370D01*
X-64968D01*
Y65386D01*
X-64953D01*
Y65402D01*
X-64921D01*
Y65417D01*
X-64889D01*
Y65433D01*
X-64873D01*
Y65449D01*
X-64826D01*
Y65465D01*
X-64794D01*
Y65481D01*
X-64731D01*
Y65497D01*
X-61754D01*
Y65481D01*
D02*
G37*
G36*
X-61817Y57026D02*
X-61707D01*
Y57010D01*
X-61659D01*
Y56994D01*
X-61612D01*
Y56978D01*
X-61580D01*
Y56962D01*
X-61548D01*
Y56947D01*
X-61533D01*
Y56931D01*
X-61501D01*
Y56915D01*
X-61485D01*
Y56899D01*
X-61469D01*
Y56883D01*
X-61453D01*
Y56867D01*
X-61438D01*
Y56852D01*
X-61422D01*
Y56836D01*
X-61406D01*
Y56820D01*
X-61390D01*
Y56804D01*
X-61374D01*
Y56772D01*
X-61358D01*
Y56757D01*
X-61343D01*
Y56725D01*
X-61327D01*
Y56693D01*
X-61311D01*
Y56646D01*
X-61295D01*
Y56598D01*
X-61279D01*
Y56487D01*
X-61263D01*
Y51848D01*
X-61279D01*
Y51753D01*
X-61295D01*
Y51690D01*
X-61311D01*
Y51658D01*
X-61327D01*
Y51611D01*
X-61343D01*
Y51595D01*
X-61358D01*
Y51563D01*
X-61374D01*
Y51547D01*
X-61390D01*
Y51516D01*
X-61406D01*
Y51500D01*
X-61422D01*
Y51484D01*
X-61438D01*
Y51468D01*
X-61453D01*
Y51452D01*
X-61469D01*
Y51437D01*
X-61485D01*
Y51421D01*
X-61517D01*
Y51405D01*
X-61533D01*
Y51389D01*
X-61564D01*
Y51373D01*
X-61596D01*
Y51357D01*
X-61627D01*
Y51342D01*
X-61675D01*
Y51326D01*
X-61722D01*
Y51310D01*
X-62277D01*
Y51294D01*
X-65095D01*
Y51310D01*
X-67042D01*
Y51326D01*
X-67106D01*
Y51342D01*
X-67137D01*
Y51357D01*
X-67169D01*
Y51373D01*
X-67201D01*
Y51389D01*
X-67232D01*
Y51405D01*
X-67248D01*
Y51421D01*
X-67280D01*
Y51437D01*
X-67296D01*
Y51452D01*
X-67312D01*
Y51468D01*
X-67327D01*
Y51484D01*
X-67343D01*
Y51500D01*
X-67359D01*
Y51516D01*
X-67375D01*
Y51532D01*
X-67391D01*
Y51563D01*
X-67407D01*
Y51579D01*
X-67422D01*
Y51611D01*
X-67438D01*
Y51642D01*
X-67454D01*
Y51674D01*
X-67470D01*
Y51737D01*
X-67486D01*
Y51817D01*
X-67502D01*
Y54271D01*
X-67486D01*
Y54366D01*
X-67470D01*
Y54429D01*
X-67454D01*
Y54461D01*
X-67438D01*
Y54493D01*
X-67422D01*
Y54524D01*
X-67407D01*
Y54556D01*
X-67391D01*
Y54572D01*
X-67375D01*
Y54587D01*
X-67359D01*
Y54619D01*
X-67343D01*
Y54635D01*
X-67327D01*
Y54651D01*
X-67312D01*
Y54667D01*
X-67296D01*
Y54682D01*
X-67280D01*
Y54698D01*
X-67264D01*
Y54714D01*
X-67232D01*
Y54730D01*
X-67217D01*
Y54746D01*
X-67201D01*
Y54762D01*
X-67185D01*
Y54777D01*
X-67169D01*
Y54793D01*
X-67153D01*
Y54809D01*
X-67122D01*
Y54825D01*
X-67106D01*
Y54841D01*
X-67090D01*
Y54857D01*
X-67074D01*
Y54872D01*
X-67058D01*
Y54888D01*
X-67027D01*
Y54904D01*
X-67011D01*
Y54920D01*
X-66995D01*
Y54936D01*
X-66979D01*
Y54952D01*
X-66963D01*
Y54967D01*
X-66932D01*
Y54983D01*
X-66916D01*
Y54999D01*
X-66900D01*
Y55015D01*
X-66884D01*
Y55031D01*
X-66868D01*
Y55047D01*
X-66837D01*
Y55062D01*
X-66821D01*
Y55078D01*
X-66805D01*
Y55094D01*
X-66789D01*
Y55110D01*
X-66773D01*
Y55126D01*
X-66742D01*
Y55142D01*
X-66726D01*
Y55157D01*
X-66710D01*
Y55173D01*
X-66694D01*
Y55189D01*
X-66678D01*
Y55205D01*
X-66663D01*
Y55221D01*
X-66631D01*
Y55237D01*
X-66615D01*
Y55252D01*
X-66599D01*
Y55268D01*
X-66583D01*
Y55284D01*
X-66568D01*
Y55300D01*
X-66536D01*
Y55316D01*
X-66520D01*
Y55332D01*
X-66504D01*
Y55347D01*
X-66488D01*
Y55363D01*
X-66473D01*
Y55379D01*
X-66441D01*
Y55395D01*
X-66425D01*
Y55411D01*
X-66409D01*
Y55427D01*
X-66393D01*
Y55443D01*
X-66378D01*
Y55458D01*
X-66346D01*
Y55474D01*
X-66330D01*
Y55490D01*
X-66314D01*
Y55506D01*
X-66298D01*
Y55522D01*
X-66283D01*
Y55538D01*
X-66251D01*
Y55553D01*
X-66235D01*
Y55569D01*
X-66219D01*
Y55585D01*
X-66203D01*
Y55601D01*
X-66188D01*
Y55617D01*
X-66156D01*
Y55633D01*
X-66140D01*
Y55648D01*
X-66124D01*
Y55664D01*
X-66108D01*
Y55680D01*
X-66093D01*
Y55696D01*
X-66061D01*
Y55712D01*
X-66045D01*
Y55728D01*
X-66029D01*
Y55743D01*
X-66013D01*
Y55759D01*
X-65998D01*
Y55775D01*
X-65982D01*
Y55791D01*
X-65950D01*
Y55807D01*
X-65934D01*
Y55823D01*
X-65918D01*
Y55838D01*
X-65903D01*
Y55854D01*
X-65887D01*
Y55870D01*
X-65855D01*
Y55886D01*
X-65839D01*
Y55902D01*
X-65823D01*
Y55918D01*
X-65807D01*
Y55933D01*
X-65792D01*
Y55949D01*
X-65760D01*
Y55965D01*
X-65744D01*
Y55981D01*
X-65728D01*
Y55997D01*
X-65712D01*
Y56013D01*
X-65697D01*
Y56028D01*
X-65665D01*
Y56044D01*
X-65649D01*
Y56060D01*
X-65633D01*
Y56076D01*
X-65617D01*
Y56092D01*
X-65602D01*
Y56108D01*
X-65570D01*
Y56123D01*
X-65554D01*
Y56139D01*
X-65538D01*
Y56155D01*
X-65522D01*
Y56171D01*
X-65507D01*
Y56187D01*
X-65475D01*
Y56203D01*
X-65459D01*
Y56218D01*
X-65443D01*
Y56234D01*
X-65427D01*
Y56250D01*
X-65412D01*
Y56266D01*
X-65380D01*
Y56282D01*
X-65364D01*
Y56297D01*
X-65348D01*
Y56313D01*
X-65332D01*
Y56329D01*
X-65317D01*
Y56345D01*
X-65301D01*
Y56361D01*
X-65269D01*
Y56377D01*
X-65253D01*
Y56392D01*
X-65237D01*
Y56408D01*
X-65222D01*
Y56424D01*
X-65206D01*
Y56440D01*
X-65174D01*
Y56456D01*
X-65158D01*
Y56472D01*
X-65142D01*
Y56487D01*
X-65127D01*
Y56503D01*
X-65111D01*
Y56519D01*
X-65079D01*
Y56535D01*
X-65063D01*
Y56551D01*
X-65047D01*
Y56567D01*
X-65032D01*
Y56582D01*
X-65016D01*
Y56598D01*
X-64984D01*
Y56614D01*
X-64968D01*
Y56630D01*
X-64953D01*
Y56646D01*
X-64937D01*
Y56662D01*
X-64921D01*
Y56677D01*
X-64889D01*
Y56693D01*
X-64873D01*
Y56709D01*
X-64858D01*
Y56725D01*
X-64842D01*
Y56741D01*
X-64826D01*
Y56757D01*
X-64794D01*
Y56772D01*
X-64778D01*
Y56788D01*
X-64763D01*
Y56804D01*
X-64747D01*
Y56820D01*
X-64731D01*
Y56836D01*
X-64699D01*
Y56852D01*
X-64683D01*
Y56867D01*
X-64668D01*
Y56883D01*
X-64652D01*
Y56899D01*
X-64620D01*
Y56915D01*
X-64604D01*
Y56931D01*
X-64588D01*
Y56947D01*
X-64557D01*
Y56962D01*
X-64525D01*
Y56978D01*
X-64493D01*
Y56994D01*
X-64446D01*
Y57010D01*
X-64383D01*
Y57026D01*
X-64272D01*
Y57042D01*
X-61817D01*
Y57026D01*
D02*
G37*
G36*
X-72473D02*
X-72362D01*
Y57010D01*
X-72299D01*
Y56994D01*
X-72252D01*
Y56978D01*
X-72220D01*
Y56962D01*
X-72188D01*
Y56947D01*
X-72157D01*
Y56931D01*
X-72141D01*
Y56915D01*
X-72109D01*
Y56899D01*
X-72077D01*
Y56883D01*
X-72062D01*
Y56867D01*
X-72046D01*
Y56852D01*
X-72014D01*
Y56836D01*
X-71998D01*
Y56820D01*
X-71982D01*
Y56804D01*
X-71967D01*
Y56788D01*
X-71935D01*
Y56772D01*
X-71919D01*
Y56757D01*
X-71903D01*
Y56741D01*
X-71887D01*
Y56725D01*
X-71872D01*
Y56709D01*
X-71856D01*
Y56693D01*
X-71824D01*
Y56677D01*
X-71808D01*
Y56662D01*
X-71792D01*
Y56646D01*
X-71777D01*
Y56630D01*
X-71761D01*
Y56614D01*
X-71729D01*
Y56598D01*
X-71713D01*
Y56582D01*
X-71698D01*
Y56567D01*
X-71682D01*
Y56551D01*
X-71666D01*
Y56535D01*
X-71634D01*
Y56519D01*
X-71618D01*
Y56503D01*
X-71603D01*
Y56487D01*
X-71587D01*
Y56472D01*
X-71571D01*
Y56456D01*
X-71539D01*
Y56440D01*
X-71523D01*
Y56424D01*
X-71508D01*
Y56408D01*
X-71492D01*
Y56392D01*
X-71476D01*
Y56377D01*
X-71444D01*
Y56361D01*
X-71428D01*
Y56345D01*
X-71413D01*
Y56329D01*
X-71397D01*
Y56313D01*
X-71381D01*
Y56297D01*
X-71365D01*
Y56282D01*
X-71333D01*
Y56266D01*
X-71318D01*
Y56250D01*
X-71302D01*
Y56234D01*
X-71286D01*
Y56218D01*
X-71254D01*
Y56203D01*
X-71238D01*
Y56187D01*
X-71223D01*
Y56171D01*
X-71207D01*
Y56155D01*
X-71191D01*
Y56139D01*
X-71175D01*
Y56123D01*
X-71143D01*
Y56108D01*
X-71128D01*
Y56092D01*
X-71112D01*
Y56076D01*
X-71096D01*
Y56060D01*
X-71080D01*
Y56044D01*
X-71048D01*
Y56028D01*
X-71033D01*
Y56013D01*
X-71017D01*
Y55997D01*
X-71001D01*
Y55981D01*
X-70985D01*
Y55965D01*
X-70953D01*
Y55949D01*
X-70938D01*
Y55933D01*
X-70922D01*
Y55918D01*
X-70906D01*
Y55902D01*
X-70890D01*
Y55886D01*
X-70858D01*
Y55870D01*
X-70842D01*
Y55854D01*
X-70827D01*
Y55838D01*
X-70811D01*
Y55823D01*
X-70795D01*
Y55807D01*
X-70763D01*
Y55791D01*
X-70747D01*
Y55775D01*
X-70732D01*
Y55759D01*
X-70716D01*
Y55743D01*
X-70700D01*
Y55728D01*
X-70684D01*
Y55712D01*
X-70652D01*
Y55696D01*
X-70637D01*
Y55680D01*
X-70621D01*
Y55664D01*
X-70605D01*
Y55648D01*
X-70589D01*
Y55633D01*
X-70557D01*
Y55617D01*
X-70542D01*
Y55601D01*
X-70526D01*
Y55585D01*
X-70510D01*
Y55569D01*
X-70494D01*
Y55553D01*
X-70462D01*
Y55538D01*
X-70447D01*
Y55522D01*
X-70431D01*
Y55506D01*
X-70415D01*
Y55490D01*
X-70399D01*
Y55474D01*
X-70367D01*
Y55458D01*
X-70352D01*
Y55443D01*
X-70336D01*
Y55427D01*
X-70320D01*
Y55411D01*
X-70304D01*
Y55395D01*
X-70272D01*
Y55379D01*
X-70257D01*
Y55363D01*
X-70241D01*
Y55347D01*
X-70225D01*
Y55332D01*
X-70209D01*
Y55316D01*
X-70177D01*
Y55300D01*
X-70162D01*
Y55284D01*
X-70146D01*
Y55268D01*
X-70130D01*
Y55252D01*
X-70114D01*
Y55237D01*
X-70083D01*
Y55221D01*
X-70067D01*
Y55205D01*
X-70051D01*
Y55189D01*
X-70035D01*
Y55173D01*
X-70019D01*
Y55157D01*
X-70003D01*
Y55142D01*
X-69972D01*
Y55126D01*
X-69956D01*
Y55110D01*
X-69940D01*
Y55094D01*
X-69924D01*
Y55078D01*
X-69893D01*
Y55062D01*
X-69877D01*
Y55047D01*
X-69861D01*
Y55031D01*
X-69845D01*
Y55015D01*
X-69829D01*
Y54999D01*
X-69813D01*
Y54983D01*
X-69782D01*
Y54967D01*
X-69766D01*
Y54952D01*
X-69750D01*
Y54936D01*
X-69734D01*
Y54920D01*
X-69718D01*
Y54904D01*
X-69687D01*
Y54888D01*
X-69671D01*
Y54872D01*
X-69655D01*
Y54857D01*
X-69639D01*
Y54841D01*
X-69623D01*
Y54825D01*
X-69592D01*
Y54809D01*
X-69576D01*
Y54793D01*
X-69560D01*
Y54777D01*
X-69544D01*
Y54762D01*
X-69528D01*
Y54746D01*
X-69513D01*
Y54730D01*
X-69497D01*
Y54714D01*
X-69481D01*
Y54698D01*
X-69465D01*
Y54682D01*
X-69449D01*
Y54667D01*
X-69433D01*
Y54651D01*
X-69402D01*
Y54619D01*
X-69386D01*
Y54603D01*
X-69370D01*
Y54587D01*
X-69354D01*
Y54572D01*
X-69338D01*
Y54540D01*
X-69323D01*
Y54524D01*
X-69307D01*
Y54493D01*
X-69291D01*
Y54445D01*
X-69275D01*
Y54413D01*
X-69259D01*
Y54350D01*
X-69243D01*
Y51753D01*
X-69259D01*
Y51690D01*
X-69275D01*
Y51658D01*
X-69291D01*
Y51627D01*
X-69307D01*
Y51595D01*
X-69323D01*
Y51563D01*
X-69338D01*
Y51547D01*
X-69354D01*
Y51516D01*
X-69370D01*
Y51500D01*
X-69386D01*
Y51484D01*
X-69402D01*
Y51468D01*
X-69418D01*
Y51452D01*
X-69433D01*
Y51437D01*
X-69449D01*
Y51421D01*
X-69481D01*
Y51405D01*
X-69497D01*
Y51389D01*
X-69528D01*
Y51373D01*
X-69560D01*
Y51357D01*
X-69592D01*
Y51342D01*
X-69639D01*
Y51326D01*
X-69687D01*
Y51310D01*
X-71650D01*
Y51294D01*
X-74453D01*
Y51310D01*
X-75023D01*
Y51326D01*
X-75086D01*
Y51342D01*
X-75118D01*
Y51357D01*
X-75149D01*
Y51373D01*
X-75181D01*
Y51389D01*
X-75212D01*
Y51405D01*
X-75228D01*
Y51421D01*
X-75260D01*
Y51437D01*
X-75276D01*
Y51452D01*
X-75292D01*
Y51468D01*
X-75307D01*
Y51484D01*
X-75323D01*
Y51500D01*
X-75339D01*
Y51516D01*
X-75355D01*
Y51532D01*
X-75371D01*
Y51563D01*
X-75387D01*
Y51579D01*
X-75402D01*
Y51595D01*
Y51611D01*
X-75418D01*
Y51642D01*
X-75434D01*
Y51674D01*
X-75450D01*
Y51737D01*
X-75466D01*
Y51817D01*
X-75482D01*
Y56519D01*
X-75466D01*
Y56614D01*
X-75450D01*
Y56662D01*
X-75434D01*
Y56693D01*
X-75418D01*
Y56725D01*
X-75402D01*
Y56757D01*
X-75387D01*
Y56788D01*
X-75371D01*
Y56804D01*
X-75355D01*
Y56820D01*
X-75339D01*
Y56836D01*
X-75323D01*
Y56852D01*
X-75307D01*
Y56867D01*
X-75292D01*
Y56883D01*
X-75276D01*
Y56899D01*
X-75260D01*
Y56915D01*
X-75244D01*
Y56931D01*
X-75228D01*
Y56947D01*
X-75197D01*
Y56962D01*
X-75165D01*
Y56978D01*
X-75133D01*
Y56994D01*
X-75086D01*
Y57010D01*
X-75038D01*
Y57026D01*
X-74928D01*
Y57042D01*
X-72473D01*
Y57026D01*
D02*
G37*
G36*
X18019Y-153765D02*
X18141Y-153787D01*
X18285Y-153809D01*
X18429Y-153854D01*
X18596Y-153920D01*
X18751Y-153998D01*
X18773Y-154009D01*
X18818Y-154043D01*
X18895Y-154098D01*
X18984Y-154165D01*
X19084Y-154264D01*
X19195Y-154375D01*
X19306Y-154509D01*
X19395Y-154653D01*
X19406Y-154675D01*
X19428Y-154720D01*
X19473Y-154808D01*
X19517Y-154919D01*
X19550Y-155053D01*
X19595Y-155208D01*
X19617Y-155374D01*
X19628Y-155552D01*
Y-159348D01*
Y-159370D01*
Y-159426D01*
X19617Y-159526D01*
X19606Y-159637D01*
X19573Y-159770D01*
X19528Y-159925D01*
X19473Y-160081D01*
X19384Y-160236D01*
X19373Y-160258D01*
X19339Y-160303D01*
X19284Y-160380D01*
X19217Y-160469D01*
X19117Y-160580D01*
X19007Y-160680D01*
X18884Y-160791D01*
X18740Y-160891D01*
X18718Y-160902D01*
X18673Y-160924D01*
X18585Y-160969D01*
X18474Y-161013D01*
X18341Y-161058D01*
X18185Y-161102D01*
X18019Y-161124D01*
X17830Y-161135D01*
X13856D01*
X13756Y-161124D01*
X13634Y-161102D01*
X13501Y-161080D01*
X13346Y-161035D01*
X13190Y-160969D01*
X13035Y-160891D01*
X13013Y-160880D01*
X12968Y-160847D01*
X12890Y-160791D01*
X12802Y-160714D01*
X12702Y-160625D01*
X12591Y-160514D01*
X12480Y-160380D01*
X12380Y-160236D01*
X12369Y-160214D01*
X12347Y-160170D01*
X12302Y-160081D01*
X12258Y-159970D01*
X12213Y-159837D01*
X12169Y-159692D01*
X12147Y-159526D01*
X12136Y-159348D01*
Y-155552D01*
Y-155541D01*
Y-155530D01*
Y-155474D01*
X12147Y-155374D01*
X12169Y-155252D01*
X12191Y-155119D01*
X12236Y-154964D01*
X12302Y-154808D01*
X12380Y-154653D01*
X12391Y-154631D01*
X12424Y-154586D01*
X12480Y-154509D01*
X12557Y-154420D01*
X12657Y-154309D01*
X12768Y-154198D01*
X12890Y-154098D01*
X13035Y-153998D01*
X13057Y-153987D01*
X13112Y-153965D01*
X13190Y-153920D01*
X13301Y-153876D01*
X13434Y-153832D01*
X13590Y-153787D01*
X13756Y-153765D01*
X13934Y-153754D01*
X17919D01*
X18019Y-153765D01*
D02*
G37*
G36*
X10782Y-161135D02*
X4999D01*
X4910Y-161124D01*
X4776Y-161102D01*
X4643Y-161080D01*
X4488Y-161035D01*
X4321Y-160980D01*
X4166Y-160902D01*
X4144Y-160891D01*
X4099Y-160858D01*
X4022Y-160802D01*
X3933Y-160725D01*
X3833Y-160636D01*
X3722Y-160525D01*
X3622Y-160392D01*
X3522Y-160247D01*
X3511Y-160225D01*
X3489Y-160170D01*
X3444Y-160092D01*
X3400Y-159981D01*
X3356Y-159837D01*
X3311Y-159692D01*
X3289Y-159526D01*
X3278Y-159348D01*
Y-155552D01*
Y-155541D01*
Y-155530D01*
Y-155474D01*
X3289Y-155374D01*
X3311Y-155252D01*
X3334Y-155119D01*
X3378Y-154964D01*
X3444Y-154808D01*
X3522Y-154653D01*
X3533Y-154631D01*
X3567Y-154586D01*
X3622Y-154509D01*
X3700Y-154420D01*
X3789Y-154309D01*
X3900Y-154198D01*
X4022Y-154098D01*
X4166Y-153998D01*
X4188Y-153987D01*
X4244Y-153965D01*
X4321Y-153920D01*
X4432Y-153876D01*
X4577Y-153832D01*
X4732Y-153787D01*
X4899Y-153765D01*
X5087Y-153754D01*
X8972D01*
Y-151334D01*
X10793D01*
X10782Y-161135D01*
D02*
G37*
G36*
X2279D02*
X-3504D01*
X-3593Y-161124D01*
X-3726Y-161102D01*
X-3859Y-161080D01*
X-4015Y-161035D01*
X-4181Y-160980D01*
X-4336Y-160902D01*
X-4359Y-160891D01*
X-4403Y-160858D01*
X-4481Y-160802D01*
X-4570Y-160725D01*
X-4669Y-160636D01*
X-4780Y-160525D01*
X-4880Y-160392D01*
X-4980Y-160247D01*
X-4991Y-160225D01*
X-5013Y-160170D01*
X-5058Y-160092D01*
X-5102Y-159981D01*
X-5147Y-159837D01*
X-5191Y-159692D01*
X-5213Y-159526D01*
X-5224Y-159348D01*
Y-155552D01*
Y-155541D01*
Y-155530D01*
Y-155474D01*
X-5213Y-155374D01*
X-5191Y-155252D01*
X-5169Y-155119D01*
X-5124Y-154964D01*
X-5058Y-154808D01*
X-4980Y-154653D01*
X-4969Y-154631D01*
X-4936Y-154586D01*
X-4880Y-154509D01*
X-4803Y-154420D01*
X-4714Y-154309D01*
X-4603Y-154198D01*
X-4481Y-154098D01*
X-4336Y-153998D01*
X-4314Y-153987D01*
X-4259Y-153965D01*
X-4181Y-153920D01*
X-4070Y-153876D01*
X-3926Y-153832D01*
X-3770Y-153787D01*
X-3604Y-153765D01*
X-3415Y-153754D01*
X470D01*
Y-151334D01*
X2290D01*
X2279Y-161135D01*
D02*
G37*
G36*
X-7811Y-153765D02*
X-7689Y-153787D01*
X-7544Y-153809D01*
X-7400Y-153854D01*
X-7233Y-153920D01*
X-7078Y-153998D01*
X-7056Y-154009D01*
X-7012Y-154043D01*
X-6934Y-154098D01*
X-6845Y-154165D01*
X-6745Y-154264D01*
X-6634Y-154375D01*
X-6523Y-154509D01*
X-6434Y-154653D01*
X-6423Y-154675D01*
X-6401Y-154720D01*
X-6357Y-154808D01*
X-6312Y-154919D01*
X-6279Y-155053D01*
X-6234Y-155208D01*
X-6212Y-155374D01*
X-6201Y-155552D01*
Y-159348D01*
Y-159370D01*
Y-159426D01*
X-6212Y-159526D01*
X-6223Y-159637D01*
X-6257Y-159770D01*
X-6301Y-159925D01*
X-6357Y-160081D01*
X-6445Y-160236D01*
X-6457Y-160258D01*
X-6490Y-160303D01*
X-6545Y-160380D01*
X-6612Y-160469D01*
X-6712Y-160580D01*
X-6823Y-160680D01*
X-6945Y-160791D01*
X-7089Y-160891D01*
X-7111Y-160902D01*
X-7156Y-160924D01*
X-7245Y-160969D01*
X-7356Y-161013D01*
X-7489Y-161058D01*
X-7644Y-161102D01*
X-7811Y-161124D01*
X-7999Y-161135D01*
X-11973D01*
X-12073Y-161124D01*
X-12195Y-161102D01*
X-12328Y-161080D01*
X-12484Y-161035D01*
X-12639Y-160969D01*
X-12795Y-160891D01*
X-12817Y-160880D01*
X-12861Y-160847D01*
X-12939Y-160791D01*
X-13028Y-160714D01*
X-13127Y-160625D01*
X-13239Y-160514D01*
X-13349Y-160380D01*
X-13449Y-160236D01*
X-13461Y-160214D01*
X-13483Y-160170D01*
X-13527Y-160081D01*
X-13571Y-159970D01*
X-13616Y-159837D01*
X-13660Y-159692D01*
X-13682Y-159526D01*
X-13693Y-159348D01*
Y-155552D01*
Y-155541D01*
Y-155530D01*
Y-155474D01*
X-13682Y-155374D01*
X-13660Y-155252D01*
X-13638Y-155119D01*
X-13594Y-154964D01*
X-13527Y-154808D01*
X-13449Y-154653D01*
X-13438Y-154631D01*
X-13405Y-154586D01*
X-13349Y-154509D01*
X-13272Y-154420D01*
X-13172Y-154309D01*
X-13061Y-154198D01*
X-12939Y-154098D01*
X-12795Y-153998D01*
X-12772Y-153987D01*
X-12717Y-153965D01*
X-12639Y-153920D01*
X-12528Y-153876D01*
X-12395Y-153832D01*
X-12240Y-153787D01*
X-12073Y-153765D01*
X-11895Y-153754D01*
X-7911D01*
X-7811Y-153765D01*
D02*
G37*
G36*
X-16912D02*
X-16790Y-153787D01*
X-16646Y-153809D01*
X-16502Y-153854D01*
X-16335Y-153920D01*
X-16180Y-153998D01*
X-16158Y-154009D01*
X-16113Y-154043D01*
X-16036Y-154098D01*
X-15947Y-154176D01*
X-15847Y-154264D01*
X-15736Y-154375D01*
X-15625Y-154509D01*
X-15536Y-154653D01*
X-15525Y-154675D01*
X-15503Y-154720D01*
X-15458Y-154808D01*
X-15414Y-154919D01*
X-15370Y-155053D01*
X-15325Y-155208D01*
X-15303Y-155374D01*
X-15292Y-155552D01*
Y-161135D01*
X-17090D01*
X-17101Y-155641D01*
Y-155630D01*
Y-155619D01*
Y-155597D01*
X-17112Y-155585D01*
X-17123Y-155574D01*
X-17179Y-155563D01*
X-19721D01*
X-19765Y-155585D01*
X-19776Y-155597D01*
X-19787Y-155608D01*
Y-155641D01*
Y-161135D01*
X-21608D01*
Y-155641D01*
Y-155630D01*
Y-155619D01*
X-21619Y-155597D01*
X-21630Y-155585D01*
X-21641Y-155574D01*
X-21685Y-155563D01*
X-24249D01*
X-24283Y-155585D01*
X-24294Y-155597D01*
Y-155608D01*
Y-155641D01*
X-24305Y-161135D01*
X-26125D01*
Y-153754D01*
X-17012D01*
X-16912Y-153765D01*
D02*
G37*
G36*
X75985Y61623D02*
X67311Y61637D01*
X67325Y59246D01*
X74280Y59217D01*
X74294Y56797D01*
X67311Y56811D01*
X67325Y54420D01*
X75971Y54406D01*
X75985Y52000D01*
X64876D01*
Y64043D01*
X75971D01*
X75985Y61623D01*
D02*
G37*
G36*
X60837Y64028D02*
X60998Y63999D01*
X61187Y63955D01*
X61391Y63897D01*
X61595Y63824D01*
X61799Y63707D01*
X61829Y63693D01*
X61887Y63649D01*
X61989Y63576D01*
X62106Y63474D01*
X62251Y63358D01*
X62397Y63212D01*
X62528Y63037D01*
X62660Y62847D01*
X62674Y62818D01*
X62718Y62760D01*
X62762Y62643D01*
X62835Y62497D01*
X62893Y62322D01*
X62951Y62104D01*
X62995Y61885D01*
X63010Y61637D01*
X62995Y60616D01*
X60560D01*
Y61521D01*
Y61535D01*
Y61550D01*
X60531Y61593D01*
X60516Y61608D01*
X60502Y61623D01*
X53402D01*
X53372Y61593D01*
Y61579D01*
Y61521D01*
Y59319D01*
Y59290D01*
Y59246D01*
X53402Y59232D01*
X53416D01*
X53460Y59246D01*
X60633D01*
X60721Y59232D01*
X60837Y59217D01*
X60998Y59188D01*
X61187Y59144D01*
X61391Y59086D01*
X61595Y58998D01*
X61799Y58896D01*
X61829Y58882D01*
X61887Y58838D01*
X61989Y58765D01*
X62106Y58678D01*
X62251Y58546D01*
X62397Y58400D01*
X62528Y58225D01*
X62660Y58036D01*
X62674Y58007D01*
X62718Y57934D01*
X62762Y57832D01*
X62835Y57671D01*
X62893Y57497D01*
X62951Y57292D01*
X62995Y57074D01*
X63010Y56826D01*
Y54406D01*
Y54377D01*
Y54289D01*
X62995Y54158D01*
X62966Y53997D01*
X62922Y53808D01*
X62849Y53604D01*
X62776Y53400D01*
X62660Y53181D01*
X62645Y53152D01*
X62601Y53094D01*
X62528Y52991D01*
X62426Y52875D01*
X62310Y52729D01*
X62164Y52598D01*
X61989Y52452D01*
X61799Y52321D01*
X61770Y52306D01*
X61712Y52277D01*
X61595Y52219D01*
X61449Y52160D01*
X61275Y52102D01*
X61070Y52044D01*
X60837Y52015D01*
X60604Y52000D01*
X53241D01*
X53125Y52015D01*
X52964Y52044D01*
X52775Y52073D01*
X52571Y52131D01*
X52366Y52219D01*
X52148Y52321D01*
X52119Y52335D01*
X52060Y52379D01*
X51958Y52452D01*
X51827Y52554D01*
X51681Y52671D01*
X51535Y52817D01*
X51390Y52991D01*
X51258Y53181D01*
X51244Y53210D01*
X51215Y53283D01*
X51156Y53385D01*
X51098Y53545D01*
X51040Y53720D01*
X50996Y53939D01*
X50967Y54158D01*
X50952Y54406D01*
X50938Y55426D01*
X53372D01*
Y54522D01*
Y54508D01*
Y54493D01*
Y54435D01*
X53402Y54420D01*
X60516D01*
X60531Y54435D01*
X60546Y54464D01*
X60560Y54522D01*
Y56709D01*
Y56724D01*
Y56738D01*
X60546Y56768D01*
X60531Y56782D01*
X60516Y56797D01*
X53329D01*
X53241Y56811D01*
X53125Y56826D01*
X52964Y56840D01*
X52775Y56884D01*
X52571Y56943D01*
X52366Y57030D01*
X52148Y57132D01*
X52119Y57147D01*
X52060Y57190D01*
X51958Y57263D01*
X51827Y57365D01*
X51681Y57482D01*
X51535Y57642D01*
X51390Y57817D01*
X51258Y58007D01*
X51244Y58036D01*
X51215Y58109D01*
X51156Y58211D01*
X51098Y58371D01*
X51040Y58546D01*
X50996Y58750D01*
X50967Y58969D01*
X50952Y59202D01*
Y61637D01*
Y61652D01*
Y61666D01*
Y61754D01*
X50967Y61885D01*
X50981Y62045D01*
X51025Y62235D01*
X51069Y62424D01*
X51156Y62643D01*
X51258Y62847D01*
X51273Y62876D01*
X51317Y62935D01*
X51390Y63037D01*
X51492Y63153D01*
X51623Y63299D01*
X51769Y63445D01*
X51958Y63576D01*
X52148Y63707D01*
X52177Y63722D01*
X52250Y63766D01*
X52352Y63809D01*
X52512Y63882D01*
X52687Y63941D01*
X52891Y63984D01*
X53125Y64028D01*
X53358Y64043D01*
X60721D01*
X60837Y64028D01*
D02*
G37*
G36*
X21283Y52000D02*
X18848D01*
Y60442D01*
X14503Y55237D01*
X10129Y60427D01*
Y52000D01*
X7724D01*
Y64043D01*
X10275D01*
X14503Y59013D01*
X18702Y64043D01*
X21283D01*
Y52000D01*
D02*
G37*
G36*
X49144Y54406D02*
Y54377D01*
Y54289D01*
X49130Y54158D01*
X49101Y53997D01*
X49057Y53808D01*
X48999Y53604D01*
X48926Y53400D01*
X48809Y53181D01*
X48794Y53152D01*
X48751Y53094D01*
X48678Y52991D01*
X48576Y52875D01*
X48444Y52729D01*
X48299Y52598D01*
X48124Y52452D01*
X47934Y52321D01*
X47905Y52306D01*
X47847Y52277D01*
X47730Y52219D01*
X47584Y52160D01*
X47409Y52102D01*
X47205Y52044D01*
X46987Y52015D01*
X46739Y52000D01*
X39391D01*
X39259Y52015D01*
X39099Y52044D01*
X38909Y52073D01*
X38705Y52131D01*
X38501Y52219D01*
X38282Y52321D01*
X38253Y52335D01*
X38195Y52379D01*
X38093Y52452D01*
X37976Y52554D01*
X37831Y52671D01*
X37685Y52817D01*
X37539Y52991D01*
X37408Y53181D01*
X37393Y53210D01*
X37364Y53283D01*
X37306Y53385D01*
X37247Y53545D01*
X37189Y53720D01*
X37131Y53939D01*
X37102Y54158D01*
X37087Y54406D01*
Y64043D01*
X39507D01*
Y54522D01*
Y54508D01*
Y54493D01*
X39522Y54435D01*
X39551Y54420D01*
X46651D01*
X46680Y54435D01*
X46695Y54464D01*
X46710Y54479D01*
X46695Y54522D01*
X46724Y64043D01*
X49144D01*
Y54406D01*
D02*
G37*
G36*
X33107Y64028D02*
X33282Y63999D01*
X33457Y63955D01*
X33661Y63897D01*
X33865Y63824D01*
X34069Y63707D01*
X34098Y63693D01*
X34156Y63649D01*
X34259Y63576D01*
X34375Y63474D01*
X34521Y63358D01*
X34667Y63212D01*
X34813Y63037D01*
X34944Y62847D01*
X34958Y62818D01*
X35002Y62760D01*
X35046Y62643D01*
X35119Y62497D01*
X35177Y62322D01*
X35221Y62104D01*
X35265Y61885D01*
X35279Y61637D01*
Y54406D01*
Y54377D01*
Y54289D01*
X35265Y54158D01*
X35235Y53997D01*
X35192Y53808D01*
X35133Y53604D01*
X35061Y53400D01*
X34944Y53181D01*
X34929Y53152D01*
X34885Y53094D01*
X34813Y52991D01*
X34711Y52875D01*
X34579Y52729D01*
X34434Y52598D01*
X34259Y52452D01*
X34069Y52321D01*
X34040Y52306D01*
X33982Y52277D01*
X33865Y52219D01*
X33719Y52160D01*
X33544Y52102D01*
X33340Y52044D01*
X33121Y52015D01*
X32873Y52000D01*
X25525D01*
X25394Y52015D01*
X25234Y52044D01*
X25044Y52073D01*
X24840Y52131D01*
X24636Y52219D01*
X24417Y52321D01*
X24388Y52335D01*
X24330Y52379D01*
X24228Y52452D01*
X24111Y52554D01*
X23965Y52671D01*
X23820Y52817D01*
X23674Y52991D01*
X23543Y53181D01*
X23528Y53210D01*
X23499Y53283D01*
X23440Y53385D01*
X23382Y53545D01*
X23324Y53720D01*
X23266Y53939D01*
X23236Y54158D01*
X23222Y54406D01*
Y61637D01*
Y61652D01*
Y61666D01*
Y61754D01*
X23236Y61885D01*
X23266Y62045D01*
X23295Y62235D01*
X23353Y62424D01*
X23440Y62643D01*
X23543Y62847D01*
X23557Y62876D01*
X23601Y62935D01*
X23674Y63037D01*
X23776Y63153D01*
X23907Y63299D01*
X24053Y63445D01*
X24228Y63576D01*
X24417Y63707D01*
X24446Y63722D01*
X24519Y63766D01*
X24622Y63809D01*
X24782Y63882D01*
X24957Y63941D01*
X25175Y63984D01*
X25394Y64028D01*
X25642Y64043D01*
X32990D01*
X33107Y64028D01*
D02*
G37*
G36*
X3773Y61681D02*
X3933Y61652D01*
X4123Y61623D01*
X4312Y61564D01*
X4531Y61477D01*
X4735Y61375D01*
X4764Y61360D01*
X4822Y61316D01*
X4924Y61244D01*
X5041Y61156D01*
X5172Y61025D01*
X5318Y60879D01*
X5464Y60704D01*
X5580Y60514D01*
X5595Y60485D01*
X5624Y60427D01*
X5683Y60310D01*
X5741Y60165D01*
X5785Y59990D01*
X5843Y59785D01*
X5872Y59567D01*
X5887Y59334D01*
Y54347D01*
Y54318D01*
Y54245D01*
X5872Y54114D01*
X5857Y53968D01*
X5814Y53793D01*
X5756Y53589D01*
X5683Y53385D01*
X5566Y53181D01*
X5551Y53152D01*
X5508Y53094D01*
X5435Y52991D01*
X5347Y52875D01*
X5216Y52729D01*
X5070Y52598D01*
X4910Y52452D01*
X4720Y52321D01*
X4691Y52306D01*
X4633Y52277D01*
X4516Y52219D01*
X4370Y52160D01*
X4195Y52102D01*
X3991Y52044D01*
X3773Y52015D01*
X3525Y52000D01*
X-1695D01*
X-1826Y52015D01*
X-1986Y52044D01*
X-2161Y52073D01*
X-2365Y52131D01*
X-2569Y52219D01*
X-2774Y52321D01*
X-2803Y52335D01*
X-2861Y52379D01*
X-2963Y52452D01*
X-3080Y52554D01*
X-3211Y52671D01*
X-3357Y52817D01*
X-3503Y52991D01*
X-3634Y53181D01*
X-3648Y53210D01*
X-3677Y53268D01*
X-3736Y53385D01*
X-3794Y53531D01*
X-3853Y53706D01*
X-3911Y53895D01*
X-3940Y54114D01*
X-3955Y54347D01*
Y59334D01*
Y59348D01*
Y59363D01*
Y59436D01*
X-3940Y59567D01*
X-3911Y59727D01*
X-3882Y59902D01*
X-3823Y60106D01*
X-3736Y60310D01*
X-3634Y60514D01*
X-3619Y60544D01*
X-3575Y60602D01*
X-3503Y60704D01*
X-3401Y60821D01*
X-3269Y60967D01*
X-3124Y61112D01*
X-2963Y61244D01*
X-2774Y61375D01*
X-2744Y61389D01*
X-2672Y61418D01*
X-2569Y61477D01*
X-2424Y61535D01*
X-2249Y61593D01*
X-2045Y61652D01*
X-1826Y61681D01*
X-1593Y61695D01*
X3641D01*
X3773Y61681D01*
D02*
G37*
G36*
X-5733Y52000D02*
X-13329D01*
X-13446Y52015D01*
X-13621Y52044D01*
X-13796Y52073D01*
X-14000Y52131D01*
X-14219Y52204D01*
X-14423Y52306D01*
X-14452Y52321D01*
X-14510Y52365D01*
X-14612Y52437D01*
X-14729Y52539D01*
X-14860Y52656D01*
X-15006Y52802D01*
X-15137Y52977D01*
X-15268Y53166D01*
X-15283Y53196D01*
X-15312Y53268D01*
X-15370Y53370D01*
X-15429Y53516D01*
X-15487Y53706D01*
X-15545Y53895D01*
X-15575Y54114D01*
X-15589Y54347D01*
Y59334D01*
Y59348D01*
Y59363D01*
Y59436D01*
X-15575Y59567D01*
X-15545Y59727D01*
X-15516Y59902D01*
X-15458Y60106D01*
X-15370Y60310D01*
X-15268Y60514D01*
X-15254Y60544D01*
X-15210Y60602D01*
X-15137Y60704D01*
X-15035Y60821D01*
X-14918Y60967D01*
X-14773Y61112D01*
X-14612Y61244D01*
X-14423Y61375D01*
X-14394Y61389D01*
X-14321Y61418D01*
X-14219Y61477D01*
X-14073Y61535D01*
X-13883Y61593D01*
X-13679Y61652D01*
X-13461Y61681D01*
X-13213Y61695D01*
X-8110D01*
Y64874D01*
X-5719D01*
X-5733Y52000D01*
D02*
G37*
G36*
X-16901D02*
X-24497D01*
X-24614Y52015D01*
X-24789Y52044D01*
X-24964Y52073D01*
X-25168Y52131D01*
X-25387Y52204D01*
X-25591Y52306D01*
X-25620Y52321D01*
X-25678Y52365D01*
X-25780Y52437D01*
X-25897Y52539D01*
X-26028Y52656D01*
X-26174Y52802D01*
X-26305Y52977D01*
X-26436Y53166D01*
X-26451Y53196D01*
X-26480Y53268D01*
X-26538Y53370D01*
X-26597Y53516D01*
X-26655Y53706D01*
X-26713Y53895D01*
X-26742Y54114D01*
X-26757Y54347D01*
Y59334D01*
Y59348D01*
Y59363D01*
Y59436D01*
X-26742Y59567D01*
X-26713Y59727D01*
X-26684Y59902D01*
X-26626Y60106D01*
X-26538Y60310D01*
X-26436Y60514D01*
X-26422Y60544D01*
X-26378Y60602D01*
X-26305Y60704D01*
X-26203Y60821D01*
X-26086Y60967D01*
X-25941Y61112D01*
X-25780Y61244D01*
X-25591Y61375D01*
X-25561Y61389D01*
X-25489Y61418D01*
X-25387Y61477D01*
X-25241Y61535D01*
X-25051Y61593D01*
X-24847Y61652D01*
X-24628Y61681D01*
X-24381Y61695D01*
X-19278D01*
Y64874D01*
X-16887D01*
X-16901Y52000D01*
D02*
G37*
G36*
X-30154Y61681D02*
X-29994Y61652D01*
X-29804Y61623D01*
X-29615Y61564D01*
X-29396Y61477D01*
X-29192Y61375D01*
X-29163Y61360D01*
X-29104Y61316D01*
X-29002Y61244D01*
X-28886Y61156D01*
X-28754Y61025D01*
X-28609Y60879D01*
X-28463Y60704D01*
X-28346Y60514D01*
X-28332Y60485D01*
X-28303Y60427D01*
X-28244Y60310D01*
X-28186Y60165D01*
X-28142Y59990D01*
X-28084Y59785D01*
X-28055Y59567D01*
X-28040Y59334D01*
Y54347D01*
Y54318D01*
Y54245D01*
X-28055Y54114D01*
X-28069Y53968D01*
X-28113Y53793D01*
X-28171Y53589D01*
X-28244Y53385D01*
X-28361Y53181D01*
X-28375Y53152D01*
X-28419Y53094D01*
X-28492Y52991D01*
X-28579Y52875D01*
X-28711Y52729D01*
X-28856Y52598D01*
X-29017Y52452D01*
X-29206Y52321D01*
X-29236Y52306D01*
X-29294Y52277D01*
X-29411Y52219D01*
X-29556Y52160D01*
X-29731Y52102D01*
X-29935Y52044D01*
X-30154Y52015D01*
X-30402Y52000D01*
X-35621D01*
X-35753Y52015D01*
X-35913Y52044D01*
X-36088Y52073D01*
X-36292Y52131D01*
X-36496Y52219D01*
X-36700Y52321D01*
X-36730Y52335D01*
X-36788Y52379D01*
X-36890Y52452D01*
X-37006Y52554D01*
X-37138Y52671D01*
X-37283Y52817D01*
X-37429Y52991D01*
X-37561Y53181D01*
X-37575Y53210D01*
X-37604Y53268D01*
X-37663Y53385D01*
X-37721Y53531D01*
X-37779Y53706D01*
X-37838Y53895D01*
X-37867Y54114D01*
X-37881Y54347D01*
Y59334D01*
Y59348D01*
Y59363D01*
Y59436D01*
X-37867Y59567D01*
X-37838Y59727D01*
X-37808Y59902D01*
X-37750Y60106D01*
X-37663Y60310D01*
X-37561Y60514D01*
X-37546Y60544D01*
X-37502Y60602D01*
X-37429Y60704D01*
X-37327Y60821D01*
X-37196Y60967D01*
X-37050Y61112D01*
X-36890Y61244D01*
X-36700Y61375D01*
X-36671Y61389D01*
X-36598Y61418D01*
X-36496Y61477D01*
X-36350Y61535D01*
X-36175Y61593D01*
X-35971Y61652D01*
X-35753Y61681D01*
X-35519Y61695D01*
X-30285D01*
X-30154Y61681D01*
D02*
G37*
G36*
X-42109D02*
X-41949Y61652D01*
X-41760Y61623D01*
X-41570Y61564D01*
X-41351Y61477D01*
X-41147Y61375D01*
X-41118Y61360D01*
X-41060Y61316D01*
X-40958Y61244D01*
X-40841Y61141D01*
X-40710Y61025D01*
X-40564Y60879D01*
X-40418Y60704D01*
X-40301Y60514D01*
X-40287Y60485D01*
X-40258Y60427D01*
X-40199Y60310D01*
X-40141Y60165D01*
X-40083Y59990D01*
X-40024Y59785D01*
X-39995Y59567D01*
X-39981Y59334D01*
Y52000D01*
X-42343D01*
X-42357Y59217D01*
Y59232D01*
Y59246D01*
Y59275D01*
X-42372Y59290D01*
X-42386Y59304D01*
X-42459Y59319D01*
X-45798D01*
X-45856Y59290D01*
X-45871Y59275D01*
X-45886Y59261D01*
Y59217D01*
Y52000D01*
X-48277D01*
Y59217D01*
Y59232D01*
Y59246D01*
X-48291Y59275D01*
X-48306Y59290D01*
X-48320Y59304D01*
X-48379Y59319D01*
X-51747D01*
X-51790Y59290D01*
X-51805Y59275D01*
Y59261D01*
Y59217D01*
X-51819Y52000D01*
X-54210D01*
Y61695D01*
X-42241D01*
X-42109Y61681D01*
D02*
G37*
G36*
X28684Y-153155D02*
X26875D01*
Y-151334D01*
X28684D01*
Y-153155D01*
D02*
G37*
G36*
X35632Y-153765D02*
X35754Y-153787D01*
X35899Y-153809D01*
X36043Y-153854D01*
X36210Y-153920D01*
X36365Y-153998D01*
X36387Y-154009D01*
X36432Y-154043D01*
X36509Y-154098D01*
X36598Y-154165D01*
X36698Y-154264D01*
X36809Y-154375D01*
X36920Y-154509D01*
X37009Y-154653D01*
X37020Y-154675D01*
X37042Y-154720D01*
X37087Y-154808D01*
X37131Y-154919D01*
X37164Y-155053D01*
X37209Y-155208D01*
X37231Y-155374D01*
X37242Y-155552D01*
Y-159348D01*
Y-159370D01*
Y-159426D01*
X37231Y-159526D01*
X37220Y-159637D01*
X37186Y-159770D01*
X37142Y-159925D01*
X37087Y-160081D01*
X36998Y-160236D01*
X36987Y-160258D01*
X36953Y-160303D01*
X36898Y-160380D01*
X36831Y-160469D01*
X36731Y-160580D01*
X36620Y-160680D01*
X36498Y-160791D01*
X36354Y-160891D01*
X36332Y-160902D01*
X36287Y-160924D01*
X36198Y-160969D01*
X36088Y-161013D01*
X35954Y-161058D01*
X35799Y-161102D01*
X35632Y-161124D01*
X35444Y-161135D01*
X31470D01*
X31370Y-161124D01*
X31248Y-161102D01*
X31115Y-161080D01*
X30959Y-161035D01*
X30804Y-160969D01*
X30649Y-160891D01*
X30626Y-160880D01*
X30582Y-160847D01*
X30504Y-160791D01*
X30415Y-160714D01*
X30316Y-160625D01*
X30205Y-160514D01*
X30094Y-160380D01*
X29994Y-160236D01*
X29983Y-160214D01*
X29960Y-160170D01*
X29916Y-160081D01*
X29872Y-159970D01*
X29827Y-159837D01*
X29783Y-159692D01*
X29761Y-159526D01*
X29750Y-159348D01*
Y-155552D01*
Y-155541D01*
Y-155530D01*
Y-155474D01*
X29761Y-155374D01*
X29783Y-155252D01*
X29805Y-155119D01*
X29849Y-154964D01*
X29916Y-154808D01*
X29994Y-154653D01*
X30005Y-154631D01*
X30038Y-154586D01*
X30094Y-154509D01*
X30171Y-154420D01*
X30271Y-154309D01*
X30382Y-154198D01*
X30504Y-154098D01*
X30649Y-153998D01*
X30671Y-153987D01*
X30726Y-153965D01*
X30804Y-153920D01*
X30915Y-153876D01*
X31048Y-153832D01*
X31204Y-153787D01*
X31370Y-153765D01*
X31548Y-153754D01*
X35533D01*
X35632Y-153765D01*
D02*
G37*
G36*
X28684Y-161135D02*
X26875D01*
Y-153754D01*
X28684D01*
Y-161135D01*
D02*
G37*
G36*
X24713D02*
X21868D01*
Y-158308D01*
X24713D01*
Y-161135D01*
D02*
G37*
%LPC*%
G36*
X17774Y-155563D02*
X14001D01*
X13967Y-155585D01*
X13956Y-155597D01*
X13945Y-155608D01*
Y-155641D01*
Y-159259D01*
Y-159282D01*
X13967Y-159315D01*
X13978D01*
X14023Y-159326D01*
X17786D01*
X17797Y-159315D01*
X17808Y-159304D01*
X17819Y-159259D01*
Y-155641D01*
Y-155630D01*
Y-155619D01*
X17808Y-155597D01*
X17797Y-155585D01*
X17786Y-155574D01*
X17774Y-155563D01*
D02*
G37*
G36*
X8928D02*
X5154D01*
X5121Y-155585D01*
X5110Y-155597D01*
X5098Y-155608D01*
Y-155641D01*
Y-159259D01*
Y-159282D01*
X5121Y-159315D01*
X5132D01*
X5176Y-159326D01*
X8939D01*
X8950Y-159315D01*
X8961Y-159304D01*
X8972Y-159259D01*
Y-155641D01*
Y-155630D01*
Y-155619D01*
X8961Y-155597D01*
X8950Y-155585D01*
X8939Y-155574D01*
X8928Y-155563D01*
D02*
G37*
G36*
X425D02*
X-3349D01*
X-3382Y-155585D01*
X-3393Y-155597D01*
X-3404Y-155608D01*
Y-155641D01*
Y-159259D01*
Y-159282D01*
X-3382Y-159315D01*
X-3371D01*
X-3326Y-159326D01*
X437D01*
X448Y-159315D01*
X459Y-159304D01*
X470Y-159259D01*
Y-155641D01*
Y-155630D01*
Y-155619D01*
X459Y-155597D01*
X448Y-155585D01*
X437Y-155574D01*
X425Y-155563D01*
D02*
G37*
G36*
X-8055D02*
X-11829D01*
X-11862Y-155585D01*
X-11873Y-155597D01*
X-11884Y-155608D01*
Y-155641D01*
Y-159259D01*
Y-159282D01*
X-11862Y-159315D01*
X-11851D01*
X-11807Y-159326D01*
X-8044D01*
X-8033Y-159315D01*
X-8022Y-159304D01*
X-8010Y-159259D01*
Y-155641D01*
Y-155630D01*
Y-155619D01*
X-8022Y-155597D01*
X-8033Y-155585D01*
X-8044Y-155574D01*
X-8055Y-155563D01*
D02*
G37*
G36*
X32771Y61623D02*
X25686D01*
X25657Y61593D01*
Y61579D01*
X25642Y61521D01*
Y54522D01*
Y54508D01*
Y54493D01*
X25657Y54435D01*
X25686Y54420D01*
X32786D01*
X32815Y54435D01*
X32830Y54464D01*
X32844Y54479D01*
X32830Y54522D01*
Y61521D01*
Y61535D01*
X32844Y61550D01*
X32830Y61564D01*
X32815Y61593D01*
X32801Y61608D01*
X32771Y61623D01*
D02*
G37*
G36*
X3452Y59319D02*
X-1505D01*
X-1549Y59290D01*
X-1564Y59275D01*
X-1578Y59261D01*
Y59217D01*
Y54464D01*
Y54435D01*
X-1549Y54391D01*
X-1534D01*
X-1476Y54377D01*
X3467D01*
X3481Y54391D01*
X3496Y54406D01*
X3510Y54464D01*
Y59217D01*
Y59232D01*
Y59246D01*
X3496Y59275D01*
X3481Y59290D01*
X3467Y59304D01*
X3452Y59319D01*
D02*
G37*
G36*
X-8168D02*
X-13125D01*
X-13169Y59290D01*
X-13183Y59275D01*
X-13198Y59261D01*
Y59217D01*
Y54464D01*
Y54435D01*
X-13169Y54391D01*
X-13154D01*
X-13096Y54377D01*
X-8153D01*
X-8139Y54391D01*
X-8124Y54406D01*
X-8110Y54464D01*
Y59217D01*
Y59232D01*
Y59246D01*
X-8124Y59275D01*
X-8139Y59290D01*
X-8153Y59304D01*
X-8168Y59319D01*
D02*
G37*
G36*
X-19336D02*
X-24293D01*
X-24337Y59290D01*
X-24351Y59275D01*
X-24366Y59261D01*
Y59217D01*
Y54464D01*
Y54435D01*
X-24337Y54391D01*
X-24322D01*
X-24264Y54377D01*
X-19321D01*
X-19307Y54391D01*
X-19292Y54406D01*
X-19278Y54464D01*
Y59217D01*
Y59232D01*
Y59246D01*
X-19292Y59275D01*
X-19307Y59290D01*
X-19321Y59304D01*
X-19336Y59319D01*
D02*
G37*
G36*
X-30475D02*
X-35432D01*
X-35476Y59290D01*
X-35490Y59275D01*
X-35505Y59261D01*
Y59217D01*
Y54464D01*
Y54435D01*
X-35476Y54391D01*
X-35461D01*
X-35403Y54377D01*
X-30460D01*
X-30446Y54391D01*
X-30431Y54406D01*
X-30417Y54464D01*
Y59217D01*
Y59232D01*
Y59246D01*
X-30431Y59275D01*
X-30446Y59290D01*
X-30460Y59304D01*
X-30475Y59319D01*
D02*
G37*
G36*
X35388Y-155563D02*
X31614D01*
X31581Y-155585D01*
X31570Y-155597D01*
X31559Y-155608D01*
Y-155641D01*
Y-159259D01*
Y-159282D01*
X31581Y-159315D01*
X31592D01*
X31637Y-159326D01*
X35399D01*
X35410Y-159315D01*
X35422Y-159304D01*
X35433Y-159259D01*
Y-155641D01*
Y-155630D01*
Y-155619D01*
X35422Y-155597D01*
X35410Y-155585D01*
X35399Y-155574D01*
X35388Y-155563D01*
D02*
G37*
%LPD*%
D10*
X140000Y-135000D02*
Y-5000D01*
Y-135000D02*
X200000D01*
Y-5000D01*
X140000D02*
X200000D01*
X151000Y-36100D02*
X189000D01*
Y-44000D02*
Y-36100D01*
X151000Y-44000D02*
X189000D01*
X151000D02*
Y-36100D01*
X-200000Y-135000D02*
Y-5000D01*
Y-135000D02*
X-140000D01*
Y-5000D01*
X-200000D02*
X-140000D01*
X-189000Y-36100D02*
X-151000D01*
Y-44000D02*
Y-36100D01*
X-189000Y-44000D02*
X-151000D01*
X-189000D02*
Y-36100D01*
D11*
X132500Y-72450D02*
Y-27500D01*
X95000Y-17500D02*
X115000D01*
X95058Y-82398D02*
X115058D01*
X77500Y-72450D02*
Y-27500D01*
D12*
X-74000Y-132000D02*
Y-124000D01*
X-75000Y-125000D02*
X-73000D01*
X-76000Y-126000D02*
X-72000D01*
X-77000Y-127000D02*
X-71000D01*
X-78000Y-128000D02*
X-70000D01*
X-79000Y-129000D02*
X-69000D01*
X-80000Y-130000D02*
X-68000D01*
X-81000Y-131000D02*
X-67000D01*
X-78000Y-132000D02*
X-70000D01*
X-78000Y-133000D02*
X-70000D01*
X-78000Y-134000D02*
X-70000D01*
X-78000Y-135000D02*
X-70000D01*
X-78000Y-136000D02*
X-70000D01*
X-78000Y-138000D02*
X-70000D01*
X-78000Y-137000D02*
X-70000D01*
X-78000Y-139000D02*
X-70000D01*
X-78000Y-140000D02*
X-70000D01*
X-78000Y-141000D02*
X-70000D01*
X-83000Y-132000D02*
X-78000D01*
X-83000D02*
X-74000Y-123000D01*
X-65000Y-132000D01*
X-70000D02*
X-65000D01*
X-74000Y-123000D02*
Y-123000D01*
X-70000Y-142000D02*
Y-132000D01*
X-74000Y-123000D02*
Y-123000D01*
X-78000Y-142000D02*
Y-132000D01*
Y-142000D02*
X-70000D01*
X101334Y-48167D02*
X100418Y-47251D01*
X98585D01*
X97669Y-48167D01*
Y-49084D01*
X98585Y-50000D01*
X100418D01*
X101334Y-50916D01*
Y-51833D01*
X100418Y-52749D01*
X98585D01*
X97669Y-51833D01*
X103167Y-47251D02*
Y-52749D01*
X105000Y-50916D01*
X106833Y-52749D01*
Y-47251D01*
X112331Y-52749D02*
X108666D01*
X112331Y-49084D01*
Y-48167D01*
X111415Y-47251D01*
X109582D01*
X108666Y-48167D01*
X-97249Y-75251D02*
X-100915D01*
Y-80749D01*
X-97249D01*
X-100915Y-78000D02*
X-99082D01*
X-95416Y-80749D02*
Y-75251D01*
X-91751Y-80749D01*
Y-75251D01*
X-89918Y-80749D02*
X-88085D01*
X-89002D01*
Y-75251D01*
X-89918Y-76167D01*
D13*
X164521Y-92773D02*
X163188Y-91440D01*
X160522D01*
X159189Y-92773D01*
Y-94106D01*
X160522Y-95438D01*
X163188D01*
X164521Y-96771D01*
Y-98104D01*
X163188Y-99437D01*
X160522D01*
X159189Y-98104D01*
X167187Y-91440D02*
Y-99437D01*
X169852Y-96771D01*
X172518Y-99437D01*
Y-91440D01*
X175184Y-92773D02*
X176517Y-91440D01*
X179183D01*
X180516Y-92773D01*
Y-94106D01*
X179183Y-95438D01*
X177850D01*
X179183D01*
X180516Y-96771D01*
Y-98104D01*
X179183Y-99437D01*
X176517D01*
X175184Y-98104D01*
X-174146Y-92773D02*
X-175479Y-91440D01*
X-178145D01*
X-179478Y-92773D01*
Y-94106D01*
X-178145Y-95438D01*
X-175479D01*
X-174146Y-96771D01*
Y-98104D01*
X-175479Y-99437D01*
X-178145D01*
X-179478Y-98104D01*
X-171480Y-91440D02*
Y-99437D01*
X-168815Y-96771D01*
X-166149Y-99437D01*
Y-91440D01*
X-163483Y-99437D02*
X-160817D01*
X-162150D01*
Y-91440D01*
X-163483Y-92773D01*
M02*
