G04*
G04 #@! TF.GenerationSoftware,Altium Limited,Altium Designer,26.2.0 (7)*
G04*
G04 Layer_Color=255*
%FSLAX44Y44*%
%MOMM*%
G71*
G04*
G04 #@! TF.SameCoordinates,3F2D65FD-9B5F-4694-B26B-62034C66594E*
G04*
G04*
G04 #@! TF.FilePolarity,Positive*
G04*
G01*
G75*
%ADD14R,0.4000X0.8000*%
%ADD15R,0.3000X0.8000*%
%ADD25R,1.5000X1.5000*%
%ADD26C,1.5000*%
%ADD27C,0.9000*%
%ADD28R,0.9000X0.9000*%
D14*
X27499Y-58500D02*
D03*
X-27501D02*
D03*
D15*
X17499Y-83500D02*
D03*
X12499D02*
D03*
X7499D02*
D03*
X2499D02*
D03*
X-2501D02*
D03*
X-7501D02*
D03*
X-12501D02*
D03*
X-17501D02*
D03*
D25*
X109200Y-120000D02*
D03*
X25400Y-111000D02*
D03*
X-160000Y-120000D02*
D03*
D26*
X109200Y-94600D02*
D03*
X134600Y-120000D02*
D03*
Y-94600D02*
D03*
X160000Y-120000D02*
D03*
Y-94600D02*
D03*
X0Y-111000D02*
D03*
X-25400D02*
D03*
X-160000Y-94600D02*
D03*
X-134600Y-120000D02*
D03*
Y-94600D02*
D03*
X-109200Y-120000D02*
D03*
Y-94600D02*
D03*
D27*
X210000Y-84600D02*
D03*
X-210000Y-109900D02*
D03*
Y-97200D02*
D03*
Y-84500D02*
D03*
Y-71800D02*
D03*
X210000Y-46500D02*
D03*
X-210000Y-33700D02*
D03*
Y-46400D02*
D03*
Y-59100D02*
D03*
X210000Y-21100D02*
D03*
Y-71900D02*
D03*
Y-97300D02*
D03*
Y-59200D02*
D03*
Y-33800D02*
D03*
D28*
Y-110000D02*
D03*
X-210000Y-21000D02*
D03*
M02*
