G04*
G04 #@! TF.GenerationSoftware,Altium Limited,Altium Designer,25.8.1 (18)*
G04*
G04 Layer_Color=65535*
%FSLAX44Y44*%
%MOMM*%
G71*
G04*
G04 #@! TF.SameCoordinates,472F797A-42AC-4AC6-A584-8CA3186B6526*
G04*
G04*
G04 #@! TF.FilePolarity,Positive*
G04*
G01*
G75*
%ADD10C,0.2000*%
%ADD11C,0.1270*%
%ADD12C,0.1500*%
%ADD13C,0.1800*%
G36*
X-75402Y-143405D02*
Y-143389D01*
X-75418D01*
Y-143357D01*
X-75434D01*
Y-143326D01*
X-75450D01*
Y-143263D01*
X-75466D01*
Y-143183D01*
X-75482D01*
Y-138481D01*
X-75466D01*
Y-138386D01*
X-75450D01*
Y-138338D01*
X-75434D01*
Y-138307D01*
X-75418D01*
Y-138275D01*
X-75402D01*
Y-138243D01*
X-75387D01*
Y-138212D01*
X-75371D01*
Y-138196D01*
X-75355D01*
Y-138180D01*
X-75339D01*
Y-138164D01*
X-75323D01*
Y-138148D01*
X-75307D01*
Y-138132D01*
X-75292D01*
Y-138117D01*
X-75276D01*
Y-138101D01*
X-75260D01*
Y-138085D01*
X-75244D01*
Y-138069D01*
X-75228D01*
Y-138053D01*
X-75197D01*
Y-138038D01*
X-75165D01*
Y-138022D01*
X-75133D01*
Y-138006D01*
X-75086D01*
Y-137990D01*
X-75038D01*
Y-137974D01*
X-74928D01*
Y-137958D01*
X-72473D01*
Y-137974D01*
X-72362D01*
Y-137990D01*
X-72299D01*
Y-138006D01*
X-72252D01*
Y-138022D01*
X-72220D01*
Y-138038D01*
X-72188D01*
Y-138053D01*
X-72157D01*
Y-138069D01*
X-72141D01*
Y-138085D01*
X-72109D01*
Y-138101D01*
X-72077D01*
Y-138117D01*
X-72062D01*
Y-138132D01*
X-72046D01*
Y-138148D01*
X-72014D01*
Y-138164D01*
X-71998D01*
Y-138180D01*
X-71982D01*
Y-138196D01*
X-71967D01*
Y-138212D01*
X-71935D01*
Y-138228D01*
X-71919D01*
Y-138243D01*
X-71903D01*
Y-138259D01*
X-71887D01*
Y-138275D01*
X-71872D01*
Y-138291D01*
X-71856D01*
Y-138307D01*
X-71824D01*
Y-138322D01*
X-71808D01*
Y-138338D01*
X-71792D01*
Y-138354D01*
X-71777D01*
Y-138370D01*
X-71761D01*
Y-138386D01*
X-71729D01*
Y-138402D01*
X-71713D01*
Y-138418D01*
X-71698D01*
Y-138433D01*
X-71682D01*
Y-138449D01*
X-71666D01*
Y-138465D01*
X-71634D01*
Y-138481D01*
X-71618D01*
Y-138497D01*
X-71603D01*
Y-138512D01*
X-71587D01*
Y-138528D01*
X-71571D01*
Y-138544D01*
X-71539D01*
Y-138560D01*
X-71523D01*
Y-138576D01*
X-71508D01*
Y-138592D01*
X-71492D01*
Y-138608D01*
X-71476D01*
Y-138623D01*
X-71444D01*
Y-138639D01*
X-71428D01*
Y-138655D01*
X-71413D01*
Y-138671D01*
X-71397D01*
Y-138687D01*
X-71381D01*
Y-138702D01*
X-71365D01*
Y-138718D01*
X-71333D01*
Y-138734D01*
X-71318D01*
Y-138750D01*
X-71302D01*
Y-138766D01*
X-71286D01*
Y-138782D01*
X-71254D01*
Y-138798D01*
X-71238D01*
Y-138813D01*
X-71223D01*
Y-138829D01*
X-71207D01*
Y-138845D01*
X-71191D01*
Y-138861D01*
X-71175D01*
Y-138877D01*
X-71143D01*
Y-138892D01*
X-71128D01*
Y-138908D01*
X-71112D01*
Y-138924D01*
X-71096D01*
Y-138940D01*
X-71080D01*
Y-138956D01*
X-71048D01*
Y-138972D01*
X-71033D01*
Y-138988D01*
X-71017D01*
Y-139003D01*
X-71001D01*
Y-139019D01*
X-70985D01*
Y-139035D01*
X-70953D01*
Y-139051D01*
X-70938D01*
Y-139067D01*
X-70922D01*
Y-139082D01*
X-70906D01*
Y-139098D01*
X-70890D01*
Y-139114D01*
X-70858D01*
Y-139130D01*
X-70842D01*
Y-139146D01*
X-70827D01*
Y-139162D01*
X-70811D01*
Y-139178D01*
X-70795D01*
Y-139193D01*
X-70763D01*
Y-139209D01*
X-70747D01*
Y-139225D01*
X-70732D01*
Y-139241D01*
X-70716D01*
Y-139257D01*
X-70700D01*
Y-139272D01*
X-70684D01*
Y-139288D01*
X-70652D01*
Y-139304D01*
X-70637D01*
Y-139320D01*
X-70621D01*
Y-139336D01*
X-70605D01*
Y-139352D01*
X-70589D01*
Y-139368D01*
X-70557D01*
Y-139383D01*
X-70542D01*
Y-139399D01*
X-70526D01*
Y-139415D01*
X-70510D01*
Y-139431D01*
X-70494D01*
Y-139447D01*
X-70462D01*
Y-139462D01*
X-70447D01*
Y-139478D01*
X-70431D01*
Y-139494D01*
X-70415D01*
Y-139510D01*
X-70399D01*
Y-139526D01*
X-70367D01*
Y-139542D01*
X-70352D01*
Y-139558D01*
X-70336D01*
Y-139573D01*
X-70320D01*
Y-139589D01*
X-70304D01*
Y-139605D01*
X-70272D01*
Y-139621D01*
X-70257D01*
Y-139637D01*
X-70241D01*
Y-139653D01*
X-70225D01*
Y-139668D01*
X-70209D01*
Y-139684D01*
X-70177D01*
Y-139700D01*
X-70162D01*
Y-139716D01*
X-70146D01*
Y-139732D01*
X-70130D01*
Y-139747D01*
X-70114D01*
Y-139763D01*
X-70083D01*
Y-139779D01*
X-70067D01*
Y-139795D01*
X-70051D01*
Y-139811D01*
X-70035D01*
Y-139827D01*
X-70019D01*
Y-139843D01*
X-70003D01*
Y-139858D01*
X-69972D01*
Y-139874D01*
X-69956D01*
Y-139890D01*
X-69940D01*
Y-139906D01*
X-69924D01*
Y-139922D01*
X-69893D01*
Y-139937D01*
X-69877D01*
Y-139953D01*
X-69861D01*
Y-139969D01*
X-69845D01*
Y-139985D01*
X-69829D01*
Y-140001D01*
X-69813D01*
Y-140017D01*
X-69782D01*
Y-140033D01*
X-69766D01*
Y-140048D01*
X-69750D01*
Y-140064D01*
X-69734D01*
Y-140080D01*
X-69718D01*
Y-140096D01*
X-69687D01*
Y-140112D01*
X-69671D01*
Y-140127D01*
X-69655D01*
Y-140143D01*
X-69639D01*
Y-140159D01*
X-69623D01*
Y-140175D01*
X-69592D01*
Y-140191D01*
X-69576D01*
Y-140207D01*
X-69560D01*
Y-140223D01*
X-69544D01*
Y-140238D01*
X-69528D01*
Y-140254D01*
X-69513D01*
Y-140270D01*
X-69497D01*
Y-140286D01*
X-69481D01*
Y-140302D01*
X-69465D01*
Y-140317D01*
X-69449D01*
Y-140333D01*
X-69433D01*
Y-140349D01*
X-69402D01*
Y-140381D01*
X-69386D01*
Y-140397D01*
X-69370D01*
Y-140413D01*
X-69354D01*
Y-140428D01*
X-69338D01*
Y-140460D01*
X-69323D01*
Y-140476D01*
X-69307D01*
Y-140507D01*
X-69291D01*
Y-140555D01*
X-69275D01*
Y-140587D01*
X-69259D01*
Y-140650D01*
X-69243D01*
Y-143247D01*
X-69259D01*
Y-143310D01*
X-69275D01*
Y-143342D01*
X-69291D01*
Y-143373D01*
X-69307D01*
Y-143405D01*
X-69323D01*
Y-143437D01*
X-69338D01*
Y-143453D01*
X-69354D01*
Y-143484D01*
X-69370D01*
Y-143500D01*
X-69386D01*
Y-143516D01*
X-69402D01*
Y-143532D01*
X-69418D01*
Y-143547D01*
X-69433D01*
Y-143563D01*
X-69449D01*
Y-143579D01*
X-69481D01*
Y-143595D01*
X-69497D01*
Y-143611D01*
X-69528D01*
Y-143627D01*
X-69560D01*
Y-143643D01*
X-69592D01*
Y-143658D01*
X-69639D01*
Y-143674D01*
X-69687D01*
Y-143690D01*
X-71650D01*
Y-143706D01*
X-74453D01*
Y-143690D01*
X-75023D01*
Y-143674D01*
X-75086D01*
Y-143658D01*
X-75118D01*
Y-143643D01*
X-75149D01*
Y-143627D01*
X-75181D01*
Y-143611D01*
X-75212D01*
Y-143595D01*
X-75228D01*
Y-143579D01*
X-75260D01*
Y-143563D01*
X-75276D01*
Y-143547D01*
X-75292D01*
Y-143532D01*
X-75307D01*
Y-143516D01*
X-75323D01*
Y-143500D01*
X-75339D01*
Y-143484D01*
X-75355D01*
Y-143468D01*
X-75371D01*
Y-143437D01*
X-75387D01*
Y-143421D01*
X-75402D01*
Y-143405D01*
D02*
G37*
G36*
X-64034Y-137958D02*
X-61817D01*
Y-137974D01*
X-61707D01*
Y-137990D01*
X-61659D01*
Y-138006D01*
X-61612D01*
Y-138022D01*
X-61580D01*
Y-138038D01*
X-61548D01*
Y-138053D01*
X-61533D01*
Y-138069D01*
X-61501D01*
Y-138085D01*
X-61485D01*
Y-138101D01*
X-61469D01*
Y-138117D01*
X-61453D01*
Y-138132D01*
X-61438D01*
Y-138148D01*
X-61422D01*
Y-138164D01*
X-61406D01*
Y-138180D01*
X-61390D01*
Y-138196D01*
X-61374D01*
Y-138228D01*
X-61358D01*
Y-138243D01*
X-61343D01*
Y-138275D01*
X-61327D01*
Y-138307D01*
X-61311D01*
Y-138354D01*
X-61295D01*
Y-138402D01*
X-61279D01*
Y-138512D01*
X-61263D01*
Y-143152D01*
X-61279D01*
Y-143247D01*
X-61295D01*
Y-143310D01*
X-61311D01*
Y-143342D01*
X-61327D01*
Y-143389D01*
X-61343D01*
Y-143405D01*
X-61358D01*
Y-143437D01*
X-61374D01*
Y-143453D01*
X-61390D01*
Y-143484D01*
X-61406D01*
Y-143500D01*
X-61422D01*
Y-143516D01*
X-61438D01*
Y-143532D01*
X-61453D01*
Y-143547D01*
X-61469D01*
Y-143563D01*
X-61485D01*
Y-143579D01*
X-61517D01*
Y-143595D01*
X-61533D01*
Y-143611D01*
X-61564D01*
Y-143627D01*
X-61596D01*
Y-143643D01*
X-61627D01*
Y-143658D01*
X-61675D01*
Y-143674D01*
X-61722D01*
Y-143690D01*
X-62277D01*
Y-143706D01*
X-65095D01*
Y-143690D01*
X-67042D01*
Y-143674D01*
X-67106D01*
Y-143658D01*
X-67137D01*
Y-143643D01*
X-67169D01*
Y-143627D01*
X-67201D01*
Y-143611D01*
X-67232D01*
Y-143595D01*
X-67248D01*
Y-143579D01*
X-67280D01*
Y-143563D01*
X-67296D01*
Y-143547D01*
X-67312D01*
Y-143532D01*
X-67327D01*
Y-143516D01*
X-67343D01*
Y-143500D01*
X-67359D01*
Y-143484D01*
X-67375D01*
Y-143468D01*
X-67391D01*
Y-143437D01*
X-67407D01*
Y-143421D01*
X-67422D01*
Y-143389D01*
X-67438D01*
Y-143357D01*
X-67454D01*
Y-143326D01*
X-67470D01*
Y-143263D01*
X-67486D01*
Y-143183D01*
X-67502D01*
Y-140729D01*
X-67486D01*
Y-140634D01*
X-67470D01*
Y-140571D01*
X-67454D01*
Y-140539D01*
X-67438D01*
Y-140507D01*
X-67422D01*
Y-140476D01*
X-67407D01*
Y-140444D01*
X-67391D01*
Y-140428D01*
X-67375D01*
Y-140413D01*
X-67359D01*
Y-140381D01*
X-67343D01*
Y-140365D01*
X-67327D01*
Y-140349D01*
X-67312D01*
Y-140333D01*
X-67296D01*
Y-140317D01*
X-67280D01*
Y-140302D01*
X-67264D01*
Y-140286D01*
X-67232D01*
Y-140270D01*
X-67217D01*
Y-140254D01*
X-67201D01*
Y-140238D01*
X-67185D01*
Y-140223D01*
X-67169D01*
Y-140207D01*
X-67153D01*
Y-140191D01*
X-67122D01*
Y-140175D01*
X-67106D01*
Y-140159D01*
X-67090D01*
Y-140143D01*
X-67074D01*
Y-140127D01*
X-67058D01*
Y-140112D01*
X-67027D01*
Y-140096D01*
X-67011D01*
Y-140080D01*
X-66995D01*
Y-140064D01*
X-66979D01*
Y-140048D01*
X-66963D01*
Y-140033D01*
X-66932D01*
Y-140017D01*
X-66916D01*
Y-140001D01*
X-66900D01*
Y-139985D01*
X-66884D01*
Y-139969D01*
X-66868D01*
Y-139953D01*
X-66837D01*
Y-139937D01*
X-66821D01*
Y-139922D01*
X-66805D01*
Y-139906D01*
X-66789D01*
Y-139890D01*
X-66773D01*
Y-139874D01*
X-66742D01*
Y-139858D01*
X-66726D01*
Y-139843D01*
X-66710D01*
Y-139827D01*
X-66694D01*
Y-139811D01*
X-66678D01*
Y-139795D01*
X-66663D01*
Y-139779D01*
X-66631D01*
Y-139763D01*
X-66615D01*
Y-139747D01*
X-66599D01*
Y-139732D01*
X-66583D01*
Y-139716D01*
X-66568D01*
Y-139700D01*
X-66536D01*
Y-139684D01*
X-66520D01*
Y-139668D01*
X-66504D01*
Y-139653D01*
X-66488D01*
Y-139637D01*
X-66473D01*
Y-139621D01*
X-66441D01*
Y-139605D01*
X-66425D01*
Y-139589D01*
X-66409D01*
Y-139573D01*
X-66393D01*
Y-139558D01*
X-66378D01*
Y-139542D01*
X-66346D01*
Y-139526D01*
X-66330D01*
Y-139510D01*
X-66314D01*
Y-139494D01*
X-66298D01*
Y-139478D01*
X-66283D01*
Y-139462D01*
X-66251D01*
Y-139447D01*
X-66235D01*
Y-139431D01*
X-66219D01*
Y-139415D01*
X-66203D01*
Y-139399D01*
X-66188D01*
Y-139383D01*
X-66156D01*
Y-139368D01*
X-66140D01*
Y-139352D01*
X-66124D01*
Y-139336D01*
X-66108D01*
Y-139320D01*
X-66093D01*
Y-139304D01*
X-66061D01*
Y-139288D01*
X-66045D01*
Y-139272D01*
X-66029D01*
Y-139257D01*
X-66013D01*
Y-139241D01*
X-65998D01*
Y-139225D01*
X-65982D01*
Y-139209D01*
X-65950D01*
Y-139193D01*
X-65934D01*
Y-139178D01*
X-65918D01*
Y-139162D01*
X-65903D01*
Y-139146D01*
X-65887D01*
Y-139130D01*
X-65855D01*
Y-139114D01*
X-65839D01*
Y-139098D01*
X-65823D01*
Y-139082D01*
X-65807D01*
Y-139067D01*
X-65792D01*
Y-139051D01*
X-65760D01*
Y-139035D01*
X-65744D01*
Y-139019D01*
X-65728D01*
Y-139003D01*
X-65712D01*
Y-138988D01*
X-65697D01*
Y-138972D01*
X-65665D01*
Y-138956D01*
X-65649D01*
Y-138940D01*
X-65633D01*
Y-138924D01*
X-65617D01*
Y-138908D01*
X-65602D01*
Y-138892D01*
X-65570D01*
Y-138877D01*
X-65554D01*
Y-138861D01*
X-65538D01*
Y-138845D01*
X-65522D01*
Y-138829D01*
X-65507D01*
Y-138813D01*
X-65475D01*
Y-138798D01*
X-65459D01*
Y-138782D01*
X-65443D01*
Y-138766D01*
X-65427D01*
Y-138750D01*
X-65412D01*
Y-138734D01*
X-65380D01*
Y-138718D01*
X-65364D01*
Y-138702D01*
X-65348D01*
Y-138687D01*
X-65332D01*
Y-138671D01*
X-65317D01*
Y-138655D01*
X-65301D01*
Y-138639D01*
X-65269D01*
Y-138623D01*
X-65253D01*
Y-138608D01*
X-65237D01*
Y-138592D01*
X-65222D01*
Y-138576D01*
X-65206D01*
Y-138560D01*
X-65174D01*
Y-138544D01*
X-65158D01*
Y-138528D01*
X-65142D01*
Y-138512D01*
X-65127D01*
Y-138497D01*
X-65111D01*
Y-138481D01*
X-65079D01*
Y-138465D01*
X-65063D01*
Y-138449D01*
X-65047D01*
Y-138433D01*
X-65032D01*
Y-138418D01*
X-65016D01*
Y-138402D01*
X-64984D01*
Y-138386D01*
X-64968D01*
Y-138370D01*
X-64953D01*
Y-138354D01*
X-64937D01*
Y-138338D01*
X-64921D01*
Y-138322D01*
X-64889D01*
Y-138307D01*
X-64873D01*
Y-138291D01*
X-64858D01*
Y-138275D01*
X-64842D01*
Y-138259D01*
X-64826D01*
Y-138243D01*
X-64794D01*
Y-138228D01*
X-64778D01*
Y-138212D01*
X-64763D01*
Y-138196D01*
X-64747D01*
Y-138180D01*
X-64731D01*
Y-138164D01*
X-64699D01*
Y-138148D01*
X-64683D01*
Y-138132D01*
X-64668D01*
Y-138117D01*
X-64652D01*
Y-138101D01*
X-64620D01*
Y-138085D01*
X-64604D01*
Y-138069D01*
X-64588D01*
Y-138053D01*
X-64557D01*
Y-138038D01*
X-64525D01*
Y-138022D01*
X-64493D01*
Y-138006D01*
X-64446D01*
Y-137990D01*
X-64383D01*
Y-137974D01*
X-64272D01*
Y-137958D01*
X-64050D01*
X-64034D01*
D02*
G37*
G36*
X-74009Y-129503D02*
X-72014D01*
Y-129519D01*
X-71967D01*
Y-129535D01*
X-71919D01*
Y-129551D01*
X-71887D01*
Y-129567D01*
X-71856D01*
Y-129583D01*
X-71824D01*
Y-129598D01*
X-71808D01*
Y-129614D01*
X-71777D01*
Y-129630D01*
X-71761D01*
Y-129646D01*
X-71745D01*
Y-129662D01*
X-71729D01*
Y-129677D01*
X-71713D01*
Y-129693D01*
X-71698D01*
Y-129709D01*
X-71682D01*
Y-129725D01*
X-71666D01*
Y-129741D01*
X-71650D01*
Y-129757D01*
X-71634D01*
Y-129773D01*
X-71618D01*
Y-129788D01*
X-71603D01*
Y-129804D01*
X-71587D01*
Y-129820D01*
X-71571D01*
Y-129836D01*
X-71555D01*
Y-129852D01*
X-71539D01*
Y-129867D01*
X-71523D01*
Y-129883D01*
X-71508D01*
Y-129899D01*
X-71492D01*
Y-129915D01*
X-71476D01*
Y-129931D01*
X-71460D01*
Y-129947D01*
X-71444D01*
Y-129978D01*
X-71428D01*
Y-129994D01*
X-71413D01*
Y-130010D01*
X-71397D01*
Y-130026D01*
X-71381D01*
Y-130042D01*
X-71365D01*
Y-130057D01*
X-71349D01*
Y-130073D01*
X-71333D01*
Y-130089D01*
X-71318D01*
Y-130105D01*
X-71302D01*
Y-130121D01*
X-71286D01*
Y-130137D01*
X-71270D01*
Y-130153D01*
X-71254D01*
Y-130168D01*
X-71238D01*
Y-130184D01*
X-71223D01*
Y-130200D01*
X-71207D01*
Y-130216D01*
X-71191D01*
Y-130232D01*
X-71175D01*
Y-130247D01*
X-71159D01*
Y-130279D01*
X-71143D01*
Y-130295D01*
X-71128D01*
Y-130311D01*
X-71112D01*
Y-130327D01*
X-71096D01*
Y-130343D01*
X-71080D01*
Y-130358D01*
X-71064D01*
Y-130374D01*
X-71048D01*
Y-130390D01*
X-71033D01*
Y-130406D01*
X-71017D01*
Y-130422D01*
X-71001D01*
Y-130437D01*
X-70985D01*
Y-130453D01*
X-70969D01*
Y-130469D01*
X-70953D01*
Y-130485D01*
X-70938D01*
Y-130501D01*
X-70922D01*
Y-130517D01*
X-70906D01*
Y-130533D01*
X-70890D01*
Y-130548D01*
X-70874D01*
Y-130564D01*
X-70858D01*
Y-130596D01*
X-70842D01*
Y-130612D01*
X-70827D01*
Y-130627D01*
X-70811D01*
Y-130643D01*
X-70795D01*
Y-130659D01*
X-70779D01*
Y-130675D01*
X-70763D01*
Y-130691D01*
X-70747D01*
Y-130707D01*
X-70732D01*
Y-130723D01*
X-70716D01*
Y-130738D01*
X-70700D01*
Y-130754D01*
X-70684D01*
Y-130770D01*
X-70668D01*
Y-130786D01*
X-70652D01*
Y-130802D01*
X-70637D01*
Y-130817D01*
X-70621D01*
Y-130833D01*
X-70605D01*
Y-130849D01*
X-70589D01*
Y-130865D01*
X-70573D01*
Y-130881D01*
X-70557D01*
Y-130897D01*
X-70542D01*
Y-130913D01*
X-70526D01*
Y-130944D01*
X-70510D01*
Y-130960D01*
X-70494D01*
Y-130976D01*
X-70478D01*
Y-130992D01*
X-70462D01*
Y-131007D01*
X-70447D01*
Y-131023D01*
X-70431D01*
Y-131039D01*
X-70415D01*
Y-131055D01*
X-70399D01*
Y-131071D01*
X-70383D01*
Y-131087D01*
X-70367D01*
Y-131103D01*
X-70352D01*
Y-131118D01*
X-70336D01*
Y-131134D01*
X-70320D01*
Y-131150D01*
X-70304D01*
Y-131166D01*
X-70288D01*
Y-131182D01*
X-70272D01*
Y-131198D01*
X-70257D01*
Y-131213D01*
X-70241D01*
Y-131229D01*
X-70225D01*
Y-131261D01*
X-70209D01*
Y-131277D01*
X-70193D01*
Y-131292D01*
X-70177D01*
Y-131308D01*
X-70162D01*
Y-131324D01*
X-70146D01*
Y-131340D01*
X-70130D01*
Y-131356D01*
X-70114D01*
Y-131372D01*
X-70098D01*
Y-131388D01*
X-70083D01*
Y-131403D01*
X-70067D01*
Y-131419D01*
X-70051D01*
Y-131435D01*
X-70035D01*
Y-131451D01*
X-70019D01*
Y-131467D01*
X-70003D01*
Y-131482D01*
X-69988D01*
Y-131498D01*
X-69972D01*
Y-131514D01*
X-69956D01*
Y-131530D01*
X-69940D01*
Y-131546D01*
X-69924D01*
Y-131578D01*
X-69908D01*
Y-131593D01*
X-69893D01*
Y-131609D01*
X-69877D01*
Y-131625D01*
X-69861D01*
Y-131641D01*
X-69845D01*
Y-131657D01*
X-69829D01*
Y-131672D01*
X-69813D01*
Y-131688D01*
X-69798D01*
Y-131704D01*
X-69782D01*
Y-131720D01*
X-69766D01*
Y-131736D01*
X-69750D01*
Y-131752D01*
X-69734D01*
Y-131768D01*
X-69718D01*
Y-131783D01*
X-69703D01*
Y-131799D01*
X-69687D01*
Y-131815D01*
X-69671D01*
Y-131831D01*
X-69655D01*
Y-131847D01*
X-69639D01*
Y-131862D01*
X-69623D01*
Y-131894D01*
X-69608D01*
Y-131910D01*
X-69592D01*
Y-131926D01*
X-69576D01*
Y-131942D01*
X-69560D01*
Y-131958D01*
X-69544D01*
Y-131973D01*
X-69528D01*
Y-131989D01*
X-69513D01*
Y-132005D01*
X-69497D01*
Y-132021D01*
X-69481D01*
Y-132037D01*
X-69465D01*
Y-132052D01*
X-69449D01*
Y-132068D01*
X-69433D01*
Y-132084D01*
X-69418D01*
Y-132100D01*
X-69402D01*
Y-132116D01*
X-69386D01*
Y-132132D01*
X-69370D01*
Y-132148D01*
X-69354D01*
Y-132163D01*
X-69338D01*
Y-132179D01*
X-69323D01*
Y-132195D01*
X-69307D01*
Y-132227D01*
X-69291D01*
Y-132242D01*
X-69275D01*
Y-132258D01*
X-69259D01*
Y-132274D01*
X-69243D01*
Y-132290D01*
X-69227D01*
Y-132306D01*
X-69212D01*
Y-132322D01*
X-69196D01*
Y-132338D01*
X-69180D01*
Y-132353D01*
X-69164D01*
Y-132369D01*
X-69148D01*
Y-132385D01*
X-69132D01*
Y-132401D01*
X-69117D01*
Y-132417D01*
X-69101D01*
Y-132432D01*
X-69085D01*
Y-132448D01*
X-69069D01*
Y-132464D01*
X-69053D01*
Y-132480D01*
X-69037D01*
Y-132496D01*
X-69022D01*
Y-132528D01*
X-69006D01*
Y-132543D01*
X-68990D01*
Y-132559D01*
X-68974D01*
Y-132575D01*
X-68958D01*
Y-132591D01*
X-68942D01*
Y-132607D01*
X-68927D01*
Y-132622D01*
X-68911D01*
Y-132638D01*
X-68895D01*
Y-132654D01*
X-68879D01*
Y-132670D01*
X-68863D01*
Y-132686D01*
X-68847D01*
Y-132702D01*
X-68832D01*
Y-132718D01*
X-68816D01*
Y-132733D01*
X-68800D01*
Y-132749D01*
X-68784D01*
Y-132765D01*
X-68768D01*
Y-132781D01*
X-68752D01*
Y-132797D01*
X-68737D01*
Y-132812D01*
X-68721D01*
Y-132844D01*
X-68705D01*
Y-132860D01*
X-68689D01*
Y-132876D01*
X-68673D01*
Y-132892D01*
X-68657D01*
Y-132907D01*
X-68642D01*
Y-132923D01*
X-68626D01*
Y-132939D01*
X-68610D01*
Y-132955D01*
X-68594D01*
Y-132971D01*
X-68578D01*
Y-132987D01*
X-68562D01*
Y-133003D01*
X-68547D01*
Y-133018D01*
X-68531D01*
Y-133034D01*
X-68515D01*
Y-133050D01*
X-68499D01*
Y-133066D01*
X-68483D01*
Y-133082D01*
X-68467D01*
Y-133097D01*
X-68436D01*
Y-133113D01*
X-68404D01*
Y-133129D01*
X-68341D01*
Y-133113D01*
X-68309D01*
Y-133097D01*
X-68278D01*
Y-133082D01*
X-68262D01*
Y-133066D01*
X-68246D01*
Y-133050D01*
X-68230D01*
Y-133034D01*
X-68214D01*
Y-133018D01*
X-68198D01*
Y-133003D01*
X-68183D01*
Y-132987D01*
X-68167D01*
Y-132971D01*
X-68151D01*
Y-132955D01*
X-68135D01*
Y-132939D01*
X-68119D01*
Y-132907D01*
X-68103D01*
Y-132892D01*
X-68088D01*
Y-132876D01*
X-68072D01*
Y-132860D01*
X-68056D01*
Y-132844D01*
X-68040D01*
Y-132828D01*
X-68024D01*
Y-132812D01*
X-68008D01*
Y-132797D01*
X-67993D01*
Y-132781D01*
X-67977D01*
Y-132765D01*
X-67961D01*
Y-132749D01*
X-67945D01*
Y-132733D01*
X-67929D01*
Y-132718D01*
X-67913D01*
Y-132702D01*
X-67898D01*
Y-132686D01*
X-67882D01*
Y-132670D01*
X-67866D01*
Y-132654D01*
X-67850D01*
Y-132638D01*
X-67834D01*
Y-132622D01*
X-67818D01*
Y-132607D01*
X-67803D01*
Y-132591D01*
X-67787D01*
Y-132559D01*
X-67771D01*
Y-132543D01*
X-67755D01*
Y-132528D01*
X-67739D01*
Y-132512D01*
X-67723D01*
Y-132496D01*
X-67708D01*
Y-132480D01*
X-67692D01*
Y-132464D01*
X-67676D01*
Y-132448D01*
X-67660D01*
Y-132432D01*
X-67644D01*
Y-132417D01*
X-67628D01*
Y-132401D01*
X-67613D01*
Y-132385D01*
X-67597D01*
Y-132369D01*
X-67581D01*
Y-132353D01*
X-67565D01*
Y-132338D01*
X-67549D01*
Y-132322D01*
X-67533D01*
Y-132306D01*
X-67517D01*
Y-132290D01*
X-67502D01*
Y-132274D01*
X-67486D01*
Y-132242D01*
X-67470D01*
Y-132227D01*
X-67454D01*
Y-132211D01*
X-67438D01*
Y-132195D01*
X-67422D01*
Y-132179D01*
X-67407D01*
Y-132163D01*
X-67391D01*
Y-132148D01*
X-67375D01*
Y-132132D01*
X-67359D01*
Y-132116D01*
X-67343D01*
Y-132100D01*
X-67327D01*
Y-132084D01*
X-67312D01*
Y-132068D01*
X-67296D01*
Y-132052D01*
X-67280D01*
Y-132037D01*
X-67264D01*
Y-132021D01*
X-67248D01*
Y-132005D01*
X-67232D01*
Y-131989D01*
X-67217D01*
Y-131973D01*
X-67201D01*
Y-131958D01*
X-67185D01*
Y-131926D01*
X-67169D01*
Y-131910D01*
X-67153D01*
Y-131894D01*
X-67137D01*
Y-131878D01*
X-67122D01*
Y-131862D01*
X-67106D01*
Y-131847D01*
X-67090D01*
Y-131831D01*
X-67074D01*
Y-131815D01*
X-67058D01*
Y-131799D01*
X-67042D01*
Y-131783D01*
X-67027D01*
Y-131768D01*
X-67011D01*
Y-131752D01*
X-66995D01*
Y-131736D01*
X-66979D01*
Y-131720D01*
X-66963D01*
Y-131704D01*
X-66947D01*
Y-131688D01*
X-66932D01*
Y-131672D01*
X-66916D01*
Y-131657D01*
X-66900D01*
Y-131641D01*
X-66884D01*
Y-131609D01*
X-66868D01*
Y-131593D01*
X-66852D01*
Y-131578D01*
X-66837D01*
Y-131562D01*
X-66821D01*
Y-131546D01*
X-66805D01*
Y-131530D01*
X-66789D01*
Y-131514D01*
X-66773D01*
Y-131498D01*
X-66757D01*
Y-131482D01*
X-66742D01*
Y-131467D01*
X-66726D01*
Y-131451D01*
X-66710D01*
Y-131435D01*
X-66694D01*
Y-131419D01*
X-66678D01*
Y-131403D01*
X-66663D01*
Y-131388D01*
X-66647D01*
Y-131372D01*
X-66631D01*
Y-131356D01*
X-66615D01*
Y-131340D01*
X-66599D01*
Y-131324D01*
X-66583D01*
Y-131292D01*
X-66568D01*
Y-131277D01*
X-66552D01*
Y-131261D01*
X-66536D01*
Y-131245D01*
X-66520D01*
Y-131229D01*
X-66504D01*
Y-131213D01*
X-66488D01*
Y-131198D01*
X-66473D01*
Y-131182D01*
X-66457D01*
Y-131166D01*
X-66441D01*
Y-131150D01*
X-66425D01*
Y-131134D01*
X-66409D01*
Y-131118D01*
X-66393D01*
Y-131103D01*
X-66378D01*
Y-131087D01*
X-66362D01*
Y-131071D01*
X-66346D01*
Y-131055D01*
X-66330D01*
Y-131039D01*
X-66314D01*
Y-131023D01*
X-66298D01*
Y-131007D01*
X-66283D01*
Y-130976D01*
X-66267D01*
Y-130960D01*
X-66251D01*
Y-130944D01*
X-66235D01*
Y-130928D01*
X-66219D01*
Y-130913D01*
X-66203D01*
Y-130897D01*
X-66188D01*
Y-130881D01*
X-66172D01*
Y-130865D01*
X-66156D01*
Y-130849D01*
X-66140D01*
Y-130833D01*
X-66124D01*
Y-130817D01*
X-66108D01*
Y-130802D01*
X-66093D01*
Y-130786D01*
X-66077D01*
Y-130770D01*
X-66061D01*
Y-130754D01*
X-66045D01*
Y-130738D01*
X-66029D01*
Y-130723D01*
X-66013D01*
Y-130707D01*
X-65998D01*
Y-130691D01*
X-65982D01*
Y-130659D01*
X-65966D01*
Y-130643D01*
X-65950D01*
Y-130627D01*
X-65934D01*
Y-130612D01*
X-65918D01*
Y-130596D01*
X-65903D01*
Y-130580D01*
X-65887D01*
Y-130564D01*
X-65871D01*
Y-130548D01*
X-65855D01*
Y-130533D01*
X-65839D01*
Y-130517D01*
X-65823D01*
Y-130501D01*
X-65807D01*
Y-130485D01*
X-65792D01*
Y-130469D01*
X-65776D01*
Y-130453D01*
X-65760D01*
Y-130437D01*
X-65744D01*
Y-130422D01*
X-65728D01*
Y-130406D01*
X-65712D01*
Y-130390D01*
X-65697D01*
Y-130374D01*
X-65681D01*
Y-130358D01*
X-65665D01*
Y-130343D01*
X-65649D01*
Y-130311D01*
X-65633D01*
Y-130295D01*
X-65617D01*
Y-130279D01*
X-65602D01*
Y-130263D01*
X-65586D01*
Y-130247D01*
X-65570D01*
Y-130232D01*
X-65554D01*
Y-130216D01*
X-65538D01*
Y-130200D01*
X-65522D01*
Y-130184D01*
X-65507D01*
Y-130168D01*
X-65491D01*
Y-130153D01*
X-65475D01*
Y-130137D01*
X-65459D01*
Y-130121D01*
X-65443D01*
Y-130105D01*
X-65427D01*
Y-130089D01*
X-65412D01*
Y-130073D01*
X-65396D01*
Y-130057D01*
X-65380D01*
Y-130042D01*
X-65364D01*
Y-130026D01*
X-65348D01*
Y-129994D01*
X-65332D01*
Y-129978D01*
X-65317D01*
Y-129963D01*
X-65301D01*
Y-129947D01*
X-65285D01*
Y-129931D01*
X-65269D01*
Y-129915D01*
X-65253D01*
Y-129899D01*
X-65237D01*
Y-129883D01*
X-65222D01*
Y-129867D01*
X-65206D01*
Y-129852D01*
X-65190D01*
Y-129836D01*
X-65174D01*
Y-129820D01*
X-65158D01*
Y-129804D01*
X-65142D01*
Y-129788D01*
X-65127D01*
Y-129773D01*
X-65111D01*
Y-129757D01*
X-65095D01*
Y-129741D01*
X-65079D01*
Y-129725D01*
X-65063D01*
Y-129693D01*
X-65047D01*
Y-129677D01*
X-65032D01*
Y-129662D01*
X-65016D01*
Y-129646D01*
X-64984D01*
Y-129630D01*
X-64968D01*
Y-129614D01*
X-64953D01*
Y-129598D01*
X-64921D01*
Y-129583D01*
X-64889D01*
Y-129567D01*
X-64873D01*
Y-129551D01*
X-64826D01*
Y-129535D01*
X-64794D01*
Y-129519D01*
X-64731D01*
Y-129503D01*
X-61754D01*
Y-129519D01*
X-61691D01*
Y-129535D01*
X-61643D01*
Y-129551D01*
X-61612D01*
Y-129567D01*
X-61580D01*
Y-129583D01*
X-61548D01*
Y-129598D01*
X-61517D01*
Y-129614D01*
X-61501D01*
Y-129630D01*
X-61485D01*
Y-129646D01*
X-61453D01*
Y-129662D01*
X-61438D01*
Y-129677D01*
X-61422D01*
Y-129709D01*
X-61406D01*
Y-129725D01*
X-61390D01*
Y-129741D01*
X-61374D01*
Y-129757D01*
X-61358D01*
Y-129788D01*
X-61343D01*
Y-129820D01*
X-61327D01*
Y-129852D01*
X-61311D01*
Y-129899D01*
X-61295D01*
Y-129947D01*
X-61279D01*
Y-130057D01*
X-61263D01*
Y-136549D01*
X-61279D01*
Y-136660D01*
X-61295D01*
Y-136707D01*
X-61311D01*
Y-136755D01*
X-61327D01*
Y-136787D01*
X-61343D01*
Y-136818D01*
X-61358D01*
Y-136834D01*
X-61374D01*
Y-136866D01*
X-61390D01*
Y-136882D01*
X-61406D01*
Y-136897D01*
X-61422D01*
Y-136913D01*
X-61438D01*
Y-136929D01*
X-61453D01*
Y-136945D01*
X-61469D01*
Y-136961D01*
X-61485D01*
Y-136977D01*
X-61501D01*
Y-136993D01*
X-61533D01*
Y-137008D01*
X-61548D01*
Y-137024D01*
X-61580D01*
Y-137040D01*
X-61612D01*
Y-137056D01*
X-61659D01*
Y-137072D01*
X-61707D01*
Y-137087D01*
X-61817D01*
Y-137103D01*
X-64272D01*
Y-137087D01*
X-64383D01*
Y-137072D01*
X-64446D01*
Y-137056D01*
X-64493D01*
Y-137040D01*
X-64525D01*
Y-137024D01*
X-64557D01*
Y-137008D01*
X-64588D01*
Y-136993D01*
X-64604D01*
Y-136977D01*
X-64620D01*
Y-136961D01*
X-64652D01*
Y-136945D01*
X-64668D01*
Y-136929D01*
X-64683D01*
Y-136913D01*
X-64699D01*
Y-136897D01*
X-64715D01*
Y-136882D01*
X-64731D01*
Y-136850D01*
X-64747D01*
Y-136834D01*
X-64763D01*
Y-136803D01*
X-64778D01*
Y-136771D01*
X-64794D01*
Y-136739D01*
X-64810D01*
Y-136692D01*
X-64826D01*
Y-136644D01*
X-64842D01*
Y-134364D01*
X-64858D01*
Y-134269D01*
X-64873D01*
Y-134222D01*
X-64889D01*
Y-134174D01*
X-64905D01*
Y-134143D01*
X-64921D01*
Y-134111D01*
X-64937D01*
Y-134079D01*
X-64953D01*
Y-134063D01*
X-64968D01*
Y-134032D01*
X-64984D01*
Y-134016D01*
X-65000D01*
Y-134000D01*
X-65032D01*
Y-133984D01*
X-65063D01*
Y-133968D01*
X-65142D01*
Y-133984D01*
X-65190D01*
Y-134000D01*
X-65206D01*
Y-134016D01*
X-65222D01*
Y-134032D01*
X-65237D01*
Y-134047D01*
X-65253D01*
Y-134063D01*
X-65269D01*
Y-134079D01*
X-65285D01*
Y-134095D01*
X-65301D01*
Y-134111D01*
X-65317D01*
Y-134127D01*
X-65332D01*
Y-134143D01*
X-65348D01*
Y-134158D01*
X-65364D01*
Y-134174D01*
X-65380D01*
Y-134190D01*
X-65396D01*
Y-134206D01*
X-65412D01*
Y-134222D01*
X-65427D01*
Y-134237D01*
X-65443D01*
Y-134253D01*
X-65459D01*
Y-134269D01*
X-65475D01*
Y-134285D01*
X-65491D01*
Y-134317D01*
X-65507D01*
Y-134333D01*
X-65522D01*
Y-134348D01*
X-65538D01*
Y-134364D01*
X-65554D01*
Y-134380D01*
X-65570D01*
Y-134396D01*
X-65586D01*
Y-134412D01*
X-65602D01*
Y-134427D01*
X-65617D01*
Y-134443D01*
X-65633D01*
Y-134459D01*
X-65649D01*
Y-134475D01*
X-65665D01*
Y-134491D01*
X-65681D01*
Y-134507D01*
X-65697D01*
Y-134522D01*
X-65712D01*
Y-134538D01*
X-65728D01*
Y-134554D01*
X-65744D01*
Y-134570D01*
X-65760D01*
Y-134586D01*
X-65776D01*
Y-134602D01*
X-65792D01*
Y-134618D01*
X-65807D01*
Y-134633D01*
X-65823D01*
Y-134665D01*
X-65839D01*
Y-134681D01*
X-65855D01*
Y-134697D01*
X-65871D01*
Y-134712D01*
X-65887D01*
Y-134728D01*
X-65903D01*
Y-134744D01*
X-65918D01*
Y-134760D01*
X-65934D01*
Y-134776D01*
X-65950D01*
Y-134792D01*
X-65966D01*
Y-134808D01*
X-65982D01*
Y-134823D01*
X-65998D01*
Y-134839D01*
X-66013D01*
Y-134855D01*
X-66029D01*
Y-134871D01*
X-66045D01*
Y-134887D01*
X-66061D01*
Y-134902D01*
X-66077D01*
Y-134918D01*
X-66093D01*
Y-134934D01*
X-66108D01*
Y-134950D01*
X-66124D01*
Y-134982D01*
X-66140D01*
Y-134998D01*
X-66156D01*
Y-135013D01*
X-66172D01*
Y-135029D01*
X-66188D01*
Y-135045D01*
X-66203D01*
Y-135061D01*
X-66219D01*
Y-135077D01*
X-66235D01*
Y-135092D01*
X-66251D01*
Y-135108D01*
X-66267D01*
Y-135124D01*
X-66283D01*
Y-135140D01*
X-66298D01*
Y-135156D01*
X-66314D01*
Y-135172D01*
X-66330D01*
Y-135188D01*
X-66346D01*
Y-135203D01*
X-66362D01*
Y-135219D01*
X-66378D01*
Y-135235D01*
X-66393D01*
Y-135251D01*
X-66409D01*
Y-135267D01*
X-66425D01*
Y-135298D01*
X-66441D01*
Y-135314D01*
X-66457D01*
Y-135330D01*
X-66473D01*
Y-135346D01*
X-66488D01*
Y-135362D01*
X-66504D01*
Y-135378D01*
X-66520D01*
Y-135393D01*
X-66536D01*
Y-135409D01*
X-66552D01*
Y-135425D01*
X-66568D01*
Y-135441D01*
X-66583D01*
Y-135457D01*
X-66599D01*
Y-135472D01*
X-66615D01*
Y-135488D01*
X-66631D01*
Y-135504D01*
X-66647D01*
Y-135520D01*
X-66663D01*
Y-135536D01*
X-66678D01*
Y-135552D01*
X-66694D01*
Y-135568D01*
X-66710D01*
Y-135583D01*
X-66726D01*
Y-135615D01*
X-66742D01*
Y-135631D01*
X-66757D01*
Y-135647D01*
X-66773D01*
Y-135662D01*
X-66789D01*
Y-135678D01*
X-66805D01*
Y-135694D01*
X-66821D01*
Y-135710D01*
X-66837D01*
Y-135726D01*
X-66852D01*
Y-135742D01*
X-66868D01*
Y-135758D01*
X-66884D01*
Y-135773D01*
X-66900D01*
Y-135789D01*
X-66916D01*
Y-135805D01*
X-66932D01*
Y-135821D01*
X-66947D01*
Y-135837D01*
X-66963D01*
Y-135852D01*
X-66979D01*
Y-135868D01*
X-66995D01*
Y-135884D01*
X-67011D01*
Y-135900D01*
X-67027D01*
Y-135932D01*
X-67042D01*
Y-135948D01*
X-67058D01*
Y-135963D01*
X-67074D01*
Y-135979D01*
X-67090D01*
Y-135995D01*
X-67106D01*
Y-136011D01*
X-67122D01*
Y-136027D01*
X-67137D01*
Y-136042D01*
X-67153D01*
Y-136058D01*
X-67169D01*
Y-136074D01*
X-67185D01*
Y-136090D01*
X-67201D01*
Y-136106D01*
X-67217D01*
Y-136122D01*
X-67232D01*
Y-136138D01*
X-67248D01*
Y-136153D01*
X-67264D01*
Y-136169D01*
X-67280D01*
Y-136185D01*
X-67296D01*
Y-136201D01*
X-67312D01*
Y-136217D01*
X-67327D01*
Y-136248D01*
X-67343D01*
Y-136264D01*
X-67359D01*
Y-136280D01*
X-67375D01*
Y-136296D01*
X-67391D01*
Y-136312D01*
X-67407D01*
Y-136327D01*
X-67422D01*
Y-136343D01*
X-67438D01*
Y-136359D01*
X-67454D01*
Y-136375D01*
X-67470D01*
Y-136391D01*
X-67486D01*
Y-136407D01*
X-67502D01*
Y-136423D01*
X-67517D01*
Y-136438D01*
X-67533D01*
Y-136454D01*
X-67549D01*
Y-136470D01*
X-67565D01*
Y-136486D01*
X-67581D01*
Y-136502D01*
X-67597D01*
Y-136517D01*
X-67613D01*
Y-136533D01*
X-67628D01*
Y-136565D01*
X-67644D01*
Y-136581D01*
X-67660D01*
Y-136597D01*
X-67676D01*
Y-136613D01*
X-67692D01*
Y-136628D01*
X-67708D01*
Y-136644D01*
X-67723D01*
Y-136660D01*
X-67739D01*
Y-136676D01*
X-67755D01*
Y-136692D01*
X-67771D01*
Y-136707D01*
X-67787D01*
Y-136723D01*
X-67803D01*
Y-136739D01*
X-67818D01*
Y-136755D01*
X-67834D01*
Y-136771D01*
X-67850D01*
Y-136787D01*
X-67866D01*
Y-136803D01*
X-67882D01*
Y-136818D01*
X-67898D01*
Y-136834D01*
X-67913D01*
Y-136850D01*
X-67929D01*
Y-136882D01*
X-67945D01*
Y-136897D01*
X-67961D01*
Y-136913D01*
X-67993D01*
Y-136929D01*
X-68008D01*
Y-136945D01*
X-68024D01*
Y-136961D01*
X-68040D01*
Y-136977D01*
X-68056D01*
Y-136993D01*
X-68088D01*
Y-137008D01*
X-68119D01*
Y-137024D01*
X-68151D01*
Y-137040D01*
X-68198D01*
Y-137056D01*
X-68278D01*
Y-137072D01*
X-68483D01*
Y-137056D01*
X-68547D01*
Y-137040D01*
X-68594D01*
Y-137024D01*
X-68626D01*
Y-137008D01*
X-68657D01*
Y-136993D01*
X-68689D01*
Y-136977D01*
X-68705D01*
Y-136961D01*
X-68721D01*
Y-136945D01*
X-68752D01*
Y-136929D01*
X-68768D01*
Y-136913D01*
X-68784D01*
Y-136897D01*
X-68800D01*
Y-136882D01*
X-68816D01*
Y-136866D01*
X-68832D01*
Y-136850D01*
X-68847D01*
Y-136834D01*
X-68863D01*
Y-136803D01*
X-68879D01*
Y-136787D01*
X-68895D01*
Y-136771D01*
X-68911D01*
Y-136755D01*
X-68927D01*
Y-136739D01*
X-68942D01*
Y-136723D01*
X-68958D01*
Y-136707D01*
X-68974D01*
Y-136692D01*
X-68990D01*
Y-136676D01*
X-69006D01*
Y-136660D01*
X-69022D01*
Y-136644D01*
X-69037D01*
Y-136628D01*
X-69053D01*
Y-136613D01*
X-69069D01*
Y-136597D01*
X-69085D01*
Y-136581D01*
X-69101D01*
Y-136565D01*
X-69117D01*
Y-136549D01*
X-69132D01*
Y-136533D01*
X-69148D01*
Y-136517D01*
X-69164D01*
Y-136486D01*
X-69180D01*
Y-136470D01*
X-69196D01*
Y-136454D01*
X-69212D01*
Y-136438D01*
X-69227D01*
Y-136423D01*
X-69243D01*
Y-136407D01*
X-69259D01*
Y-136391D01*
X-69275D01*
Y-136375D01*
X-69291D01*
Y-136359D01*
X-69307D01*
Y-136343D01*
X-69323D01*
Y-136327D01*
X-69338D01*
Y-136312D01*
X-69354D01*
Y-136296D01*
X-69370D01*
Y-136280D01*
X-69386D01*
Y-136264D01*
X-69402D01*
Y-136248D01*
X-69418D01*
Y-136233D01*
X-69433D01*
Y-136217D01*
X-69449D01*
Y-136201D01*
X-69465D01*
Y-136169D01*
X-69481D01*
Y-136153D01*
X-69497D01*
Y-136138D01*
X-69513D01*
Y-136122D01*
X-69528D01*
Y-136106D01*
X-69544D01*
Y-136090D01*
X-69560D01*
Y-136074D01*
X-69576D01*
Y-136058D01*
X-69592D01*
Y-136042D01*
X-69608D01*
Y-136027D01*
X-69623D01*
Y-136011D01*
X-69639D01*
Y-135995D01*
X-69655D01*
Y-135979D01*
X-69671D01*
Y-135963D01*
X-69687D01*
Y-135948D01*
X-69703D01*
Y-135932D01*
X-69718D01*
Y-135916D01*
X-69734D01*
Y-135900D01*
X-69750D01*
Y-135884D01*
X-69766D01*
Y-135852D01*
X-69782D01*
Y-135837D01*
X-69798D01*
Y-135821D01*
X-69813D01*
Y-135805D01*
X-69829D01*
Y-135789D01*
X-69845D01*
Y-135773D01*
X-69861D01*
Y-135758D01*
X-69877D01*
Y-135742D01*
X-69893D01*
Y-135726D01*
X-69908D01*
Y-135710D01*
X-69924D01*
Y-135694D01*
X-69940D01*
Y-135678D01*
X-69956D01*
Y-135662D01*
X-69972D01*
Y-135647D01*
X-69988D01*
Y-135631D01*
X-70003D01*
Y-135615D01*
X-70019D01*
Y-135599D01*
X-70035D01*
Y-135583D01*
X-70051D01*
Y-135568D01*
X-70067D01*
Y-135536D01*
X-70083D01*
Y-135520D01*
X-70098D01*
Y-135504D01*
X-70114D01*
Y-135488D01*
X-70130D01*
Y-135472D01*
X-70146D01*
Y-135457D01*
X-70162D01*
Y-135441D01*
X-70177D01*
Y-135425D01*
X-70193D01*
Y-135409D01*
X-70209D01*
Y-135393D01*
X-70225D01*
Y-135378D01*
X-70241D01*
Y-135362D01*
X-70257D01*
Y-135346D01*
X-70272D01*
Y-135330D01*
X-70288D01*
Y-135314D01*
X-70304D01*
Y-135298D01*
X-70320D01*
Y-135282D01*
X-70336D01*
Y-135267D01*
X-70352D01*
Y-135251D01*
X-70367D01*
Y-135219D01*
X-70383D01*
Y-135203D01*
X-70399D01*
Y-135188D01*
X-70415D01*
Y-135172D01*
X-70431D01*
Y-135156D01*
X-70447D01*
Y-135140D01*
X-70462D01*
Y-135124D01*
X-70478D01*
Y-135108D01*
X-70494D01*
Y-135092D01*
X-70510D01*
Y-135077D01*
X-70526D01*
Y-135061D01*
X-70542D01*
Y-135045D01*
X-70557D01*
Y-135029D01*
X-70573D01*
Y-135013D01*
X-70589D01*
Y-134998D01*
X-70605D01*
Y-134982D01*
X-70621D01*
Y-134966D01*
X-70637D01*
Y-134950D01*
X-70652D01*
Y-134934D01*
X-70668D01*
Y-134918D01*
X-70684D01*
Y-134887D01*
X-70700D01*
Y-134871D01*
X-70716D01*
Y-134855D01*
X-70732D01*
Y-134839D01*
X-70747D01*
Y-134823D01*
X-70763D01*
Y-134808D01*
X-70779D01*
Y-134792D01*
X-70795D01*
Y-134776D01*
X-70811D01*
Y-134760D01*
X-70827D01*
Y-134744D01*
X-70842D01*
Y-134728D01*
X-70858D01*
Y-134712D01*
X-70874D01*
Y-134697D01*
X-70890D01*
Y-134681D01*
X-70906D01*
Y-134665D01*
X-70922D01*
Y-134649D01*
X-70938D01*
Y-134633D01*
X-70953D01*
Y-134618D01*
X-70969D01*
Y-134602D01*
X-70985D01*
Y-134586D01*
X-71001D01*
Y-134570D01*
X-71017D01*
Y-134538D01*
X-71033D01*
Y-134522D01*
X-71048D01*
Y-134507D01*
X-71064D01*
Y-134491D01*
X-71080D01*
Y-134475D01*
X-71096D01*
Y-134459D01*
X-71112D01*
Y-134443D01*
X-71128D01*
Y-134427D01*
X-71143D01*
Y-134412D01*
X-71159D01*
Y-134396D01*
X-71175D01*
Y-134380D01*
X-71191D01*
Y-134364D01*
X-71207D01*
Y-134348D01*
X-71223D01*
Y-134333D01*
X-71238D01*
Y-134317D01*
X-71254D01*
Y-134301D01*
X-71270D01*
Y-134285D01*
X-71286D01*
Y-134269D01*
X-71302D01*
Y-134237D01*
X-71318D01*
Y-134222D01*
X-71333D01*
Y-134206D01*
X-71349D01*
Y-134190D01*
X-71365D01*
Y-134174D01*
X-71381D01*
Y-134158D01*
X-71397D01*
Y-134143D01*
X-71413D01*
Y-134127D01*
X-71428D01*
Y-134111D01*
X-71444D01*
Y-134095D01*
X-71460D01*
Y-134079D01*
X-71476D01*
Y-134063D01*
X-71492D01*
Y-134047D01*
X-71508D01*
Y-134032D01*
X-71523D01*
Y-134016D01*
X-71539D01*
Y-134000D01*
X-71555D01*
Y-133984D01*
X-71603D01*
Y-133968D01*
X-71698D01*
Y-133984D01*
X-71713D01*
Y-134000D01*
X-71745D01*
Y-134016D01*
X-71761D01*
Y-134032D01*
X-71777D01*
Y-134047D01*
X-71792D01*
Y-134079D01*
X-71808D01*
Y-134095D01*
X-71824D01*
Y-134127D01*
X-71840D01*
Y-134158D01*
X-71856D01*
Y-134206D01*
X-71872D01*
Y-134253D01*
X-71887D01*
Y-134333D01*
X-71903D01*
Y-136628D01*
X-71919D01*
Y-136692D01*
X-71935D01*
Y-136739D01*
X-71951D01*
Y-136771D01*
X-71967D01*
Y-136803D01*
X-71982D01*
Y-136818D01*
X-71998D01*
Y-136850D01*
X-72014D01*
Y-136866D01*
X-72030D01*
Y-136882D01*
X-72046D01*
Y-136913D01*
X-72062D01*
Y-136929D01*
X-72077D01*
Y-136945D01*
X-72109D01*
Y-136961D01*
X-72125D01*
Y-136977D01*
X-72141D01*
Y-136993D01*
X-72172D01*
Y-137008D01*
X-72188D01*
Y-137024D01*
X-72220D01*
Y-137040D01*
X-72252D01*
Y-137056D01*
X-72299D01*
Y-137072D01*
X-72362D01*
Y-137087D01*
X-72473D01*
Y-137103D01*
X-74928D01*
Y-137087D01*
X-75038D01*
Y-137072D01*
X-75086D01*
Y-137056D01*
X-75133D01*
Y-137040D01*
X-75165D01*
Y-137024D01*
X-75197D01*
Y-137008D01*
X-75228D01*
Y-136993D01*
X-75244D01*
Y-136977D01*
X-75260D01*
Y-136961D01*
X-75276D01*
Y-136945D01*
X-75292D01*
Y-136929D01*
X-75307D01*
Y-136913D01*
X-75323D01*
Y-136897D01*
X-75339D01*
Y-136882D01*
X-75355D01*
Y-136866D01*
X-75371D01*
Y-136850D01*
X-75387D01*
Y-136818D01*
X-75402D01*
Y-136787D01*
X-75418D01*
Y-136755D01*
X-75434D01*
Y-136723D01*
X-75450D01*
Y-136660D01*
X-75466D01*
Y-136581D01*
X-75482D01*
Y-130026D01*
X-75466D01*
Y-129931D01*
X-75450D01*
Y-129883D01*
X-75434D01*
Y-129836D01*
X-75418D01*
Y-129804D01*
X-75402D01*
Y-129788D01*
X-75387D01*
Y-129757D01*
X-75371D01*
Y-129741D01*
X-75355D01*
Y-129709D01*
X-75339D01*
Y-129693D01*
X-75323D01*
Y-129677D01*
X-75307D01*
Y-129662D01*
X-75292D01*
Y-129646D01*
X-75276D01*
Y-129630D01*
X-75244D01*
Y-129614D01*
X-75228D01*
Y-129598D01*
X-75197D01*
Y-129583D01*
X-75165D01*
Y-129567D01*
X-75133D01*
Y-129551D01*
X-75102D01*
Y-129535D01*
X-75054D01*
Y-129519D01*
X-74991D01*
Y-129503D01*
X-74025D01*
X-74009D01*
D02*
G37*
G36*
X-167477Y-7941D02*
X-166984D01*
Y-8023D01*
X-166656D01*
Y-8105D01*
X-166410D01*
Y-8188D01*
X-166164D01*
Y-8270D01*
X-165918D01*
Y-8352D01*
X-165754D01*
Y-8434D01*
X-165590D01*
Y-8516D01*
X-165426D01*
Y-8598D01*
X-165262D01*
Y-8680D01*
X-165098D01*
Y-8762D01*
X-165016D01*
Y-8844D01*
X-164852D01*
Y-8926D01*
X-164769D01*
Y-9008D01*
X-164606D01*
Y-9090D01*
X-164523D01*
Y-9172D01*
X-164441D01*
Y-9254D01*
X-164359D01*
Y-9336D01*
X-164195D01*
Y-9418D01*
X-164113D01*
Y-9500D01*
X-164031D01*
Y-9582D01*
X-163949D01*
Y-9664D01*
X-163867D01*
Y-9746D01*
X-163785D01*
Y-9828D01*
X-163703D01*
Y-9992D01*
X-163621D01*
Y-10074D01*
X-163539D01*
Y-10156D01*
X-163457D01*
Y-10238D01*
X-163375D01*
Y-10402D01*
X-163293D01*
Y-10484D01*
X-163211D01*
Y-10648D01*
X-163129D01*
Y-10731D01*
X-163047D01*
Y-10812D01*
X-162965D01*
Y-10977D01*
X-162883D01*
Y-11141D01*
X-162801D01*
Y-11305D01*
X-162719D01*
Y-11469D01*
X-162637D01*
Y-11633D01*
X-162555D01*
Y-11715D01*
X-162473D01*
Y-11879D01*
X-162391D01*
Y-12043D01*
X-162309D01*
Y-12207D01*
X-162227D01*
Y-12371D01*
X-162145D01*
Y-12535D01*
X-162062D01*
Y-12699D01*
X-161980D01*
Y-12781D01*
X-161898D01*
Y-12945D01*
X-161816D01*
Y-13109D01*
X-161734D01*
Y-13274D01*
X-161652D01*
Y-13438D01*
X-161570D01*
Y-13602D01*
X-161488D01*
Y-13684D01*
X-161406D01*
Y-13848D01*
X-161324D01*
Y-14012D01*
X-161242D01*
Y-14176D01*
X-161160D01*
Y-14340D01*
X-161078D01*
Y-14504D01*
X-160996D01*
Y-14586D01*
X-160914D01*
Y-14750D01*
X-160832D01*
Y-14914D01*
X-160750D01*
Y-15078D01*
X-160668D01*
Y-15242D01*
X-160586D01*
Y-15406D01*
X-160504D01*
Y-15488D01*
X-160422D01*
Y-15652D01*
X-160340D01*
Y-15816D01*
X-160258D01*
Y-15980D01*
X-160176D01*
Y-16144D01*
X-160094D01*
Y-16309D01*
X-160012D01*
Y-16391D01*
X-159930D01*
Y-16555D01*
X-159848D01*
Y-16719D01*
X-159766D01*
Y-16883D01*
X-159684D01*
Y-17047D01*
X-159602D01*
Y-17211D01*
X-159520D01*
Y-17375D01*
X-159438D01*
Y-17457D01*
X-159355D01*
Y-17621D01*
X-159273D01*
Y-17785D01*
X-159191D01*
Y-17949D01*
X-159109D01*
Y-18113D01*
X-159027D01*
Y-18277D01*
X-158945D01*
Y-18359D01*
X-158863D01*
Y-18523D01*
X-158781D01*
Y-18687D01*
X-158699D01*
Y-18852D01*
X-158617D01*
Y-19016D01*
X-158535D01*
Y-19180D01*
X-158453D01*
Y-19262D01*
X-158371D01*
Y-19426D01*
X-158289D01*
Y-19590D01*
X-158207D01*
Y-19754D01*
X-158125D01*
Y-19918D01*
X-158043D01*
Y-20082D01*
X-157961D01*
Y-20164D01*
X-157879D01*
Y-20328D01*
X-157797D01*
Y-20492D01*
X-157715D01*
Y-20656D01*
X-157633D01*
Y-20820D01*
X-157551D01*
Y-20984D01*
X-157469D01*
Y-21066D01*
X-157387D01*
Y-21230D01*
X-157305D01*
Y-21395D01*
X-157223D01*
Y-21559D01*
X-157141D01*
Y-21723D01*
X-157059D01*
Y-21887D01*
X-156976D01*
Y-21969D01*
X-156895D01*
Y-22133D01*
X-156812D01*
Y-22297D01*
X-156730D01*
Y-22461D01*
X-156648D01*
Y-22625D01*
X-156566D01*
Y-22789D01*
X-156484D01*
Y-22953D01*
X-156402D01*
Y-23035D01*
X-156320D01*
Y-23199D01*
X-156238D01*
Y-23363D01*
X-156156D01*
Y-23527D01*
X-156074D01*
Y-23691D01*
X-155992D01*
Y-23856D01*
X-155910D01*
Y-23937D01*
X-155828D01*
Y-24102D01*
X-155746D01*
Y-24266D01*
X-155664D01*
Y-24430D01*
X-155582D01*
Y-24594D01*
X-155500D01*
Y-24758D01*
X-155418D01*
Y-24840D01*
X-155336D01*
Y-25004D01*
X-155254D01*
Y-25168D01*
X-155172D01*
Y-25332D01*
X-155090D01*
Y-25496D01*
X-155008D01*
Y-25660D01*
X-154926D01*
Y-25742D01*
X-154844D01*
Y-25906D01*
X-154762D01*
Y-26070D01*
X-154680D01*
Y-26234D01*
X-154598D01*
Y-26398D01*
X-154516D01*
Y-26562D01*
X-154434D01*
Y-26644D01*
X-154352D01*
Y-26809D01*
X-154270D01*
Y-26973D01*
X-154187D01*
Y-27137D01*
X-154106D01*
Y-27301D01*
X-154023D01*
Y-27465D01*
X-153941D01*
Y-27547D01*
X-153859D01*
Y-27711D01*
X-153777D01*
Y-27875D01*
X-153695D01*
Y-28039D01*
X-153613D01*
Y-28203D01*
X-153531D01*
Y-28367D01*
X-153449D01*
Y-28531D01*
X-153367D01*
Y-28613D01*
X-153285D01*
Y-28777D01*
X-153203D01*
Y-28941D01*
X-153121D01*
Y-29106D01*
X-153039D01*
Y-29270D01*
X-152957D01*
Y-29434D01*
X-152875D01*
Y-29516D01*
X-152793D01*
Y-29680D01*
X-152711D01*
Y-29844D01*
X-152629D01*
Y-30008D01*
X-152547D01*
Y-30172D01*
X-152465D01*
Y-30336D01*
X-152383D01*
Y-30418D01*
X-152301D01*
Y-30582D01*
X-152219D01*
Y-30746D01*
X-152137D01*
Y-30910D01*
X-152055D01*
Y-31074D01*
X-151973D01*
Y-31238D01*
X-151891D01*
Y-31320D01*
X-151809D01*
Y-31484D01*
X-151727D01*
Y-31648D01*
X-151644D01*
Y-31813D01*
X-151562D01*
Y-31977D01*
X-151480D01*
Y-32141D01*
X-151398D01*
Y-32223D01*
X-151316D01*
Y-32387D01*
X-151234D01*
Y-32551D01*
X-151152D01*
Y-32715D01*
X-151070D01*
Y-32879D01*
X-150988D01*
Y-33043D01*
X-150906D01*
Y-33207D01*
X-150824D01*
Y-33289D01*
X-150742D01*
Y-33453D01*
X-150660D01*
Y-33617D01*
X-150578D01*
Y-33781D01*
X-150496D01*
Y-33945D01*
X-150414D01*
Y-34109D01*
X-150332D01*
Y-34191D01*
X-150250D01*
Y-34355D01*
X-150168D01*
Y-34520D01*
X-150086D01*
Y-34684D01*
X-150004D01*
Y-34848D01*
X-149922D01*
Y-35012D01*
X-149840D01*
Y-35094D01*
X-149758D01*
Y-35258D01*
X-149676D01*
Y-35422D01*
X-149594D01*
Y-35586D01*
X-149512D01*
Y-35750D01*
X-149430D01*
Y-35914D01*
X-149348D01*
Y-35996D01*
X-149266D01*
Y-36160D01*
X-149184D01*
Y-36324D01*
X-149102D01*
Y-36488D01*
X-149019D01*
Y-36652D01*
X-148938D01*
Y-36816D01*
X-148855D01*
Y-36899D01*
X-148773D01*
Y-37062D01*
X-148691D01*
Y-37227D01*
X-148609D01*
Y-37391D01*
X-148527D01*
Y-37555D01*
X-148445D01*
Y-37719D01*
X-148363D01*
Y-37801D01*
X-148281D01*
Y-37965D01*
X-148199D01*
Y-38129D01*
X-148117D01*
Y-38293D01*
X-148035D01*
Y-38457D01*
X-147953D01*
Y-38621D01*
X-147871D01*
Y-38785D01*
X-147789D01*
Y-38949D01*
X-147707D01*
Y-39195D01*
X-147625D01*
Y-39441D01*
X-147543D01*
Y-39688D01*
X-147461D01*
Y-40098D01*
X-147379D01*
Y-40590D01*
X-147297D01*
Y-41820D01*
X-147379D01*
Y-42395D01*
X-147461D01*
Y-42805D01*
X-147543D01*
Y-43051D01*
X-147625D01*
Y-43297D01*
X-147707D01*
Y-43543D01*
X-147789D01*
Y-43707D01*
X-147871D01*
Y-43871D01*
X-147953D01*
Y-44035D01*
X-148035D01*
Y-44199D01*
X-148117D01*
Y-44363D01*
X-148199D01*
Y-44527D01*
X-148281D01*
Y-44609D01*
X-148363D01*
Y-44774D01*
X-148445D01*
Y-44855D01*
X-148527D01*
Y-45020D01*
X-148609D01*
Y-45102D01*
X-148691D01*
Y-45184D01*
X-148773D01*
Y-45266D01*
X-148855D01*
Y-45348D01*
X-148938D01*
Y-45512D01*
X-149019D01*
Y-45594D01*
X-149102D01*
Y-45676D01*
X-149184D01*
Y-45758D01*
X-149348D01*
Y-45840D01*
X-149430D01*
Y-45922D01*
X-149512D01*
Y-46004D01*
X-149594D01*
Y-46086D01*
X-149676D01*
Y-46168D01*
X-149840D01*
Y-46250D01*
X-149922D01*
Y-46332D01*
X-150004D01*
Y-46414D01*
X-150168D01*
Y-46496D01*
X-150250D01*
Y-46578D01*
X-150414D01*
Y-46660D01*
X-150578D01*
Y-46742D01*
X-150742D01*
Y-46824D01*
X-150906D01*
Y-46906D01*
X-151070D01*
Y-46988D01*
X-151316D01*
Y-47070D01*
X-151562D01*
Y-47152D01*
X-151809D01*
Y-47234D01*
X-152219D01*
Y-47316D01*
X-152547D01*
Y-47399D01*
X-184047D01*
Y-47316D01*
X-184375D01*
Y-47234D01*
X-184785D01*
Y-47152D01*
X-185031D01*
Y-47070D01*
X-185277D01*
Y-46988D01*
X-185523D01*
Y-46906D01*
X-185688D01*
Y-46824D01*
X-185852D01*
Y-46742D01*
X-186016D01*
Y-46660D01*
X-186180D01*
Y-46578D01*
X-186344D01*
Y-46496D01*
X-186426D01*
Y-46414D01*
X-186590D01*
Y-46332D01*
X-186672D01*
Y-46250D01*
X-186754D01*
Y-46168D01*
X-186918D01*
Y-46086D01*
X-187000D01*
Y-46004D01*
X-187082D01*
Y-45922D01*
X-187164D01*
Y-45840D01*
X-187246D01*
Y-45758D01*
X-187410D01*
Y-45676D01*
X-187492D01*
Y-45594D01*
X-187574D01*
Y-45512D01*
X-187656D01*
Y-45348D01*
X-187738D01*
Y-45266D01*
X-187820D01*
Y-45184D01*
X-187902D01*
Y-45102D01*
X-187984D01*
Y-45020D01*
X-188066D01*
Y-44855D01*
X-188148D01*
Y-44774D01*
X-188230D01*
Y-44609D01*
X-188312D01*
Y-44527D01*
X-188395D01*
Y-44363D01*
X-188477D01*
Y-44281D01*
X-188559D01*
Y-44035D01*
X-188641D01*
Y-43871D01*
X-188723D01*
Y-43707D01*
X-188805D01*
Y-43543D01*
X-188887D01*
Y-43297D01*
X-188969D01*
Y-43051D01*
X-189051D01*
Y-42805D01*
X-189133D01*
Y-42395D01*
X-189215D01*
Y-41820D01*
X-189297D01*
Y-40590D01*
X-189215D01*
Y-40098D01*
X-189133D01*
Y-39688D01*
X-189051D01*
Y-39441D01*
X-188969D01*
Y-39195D01*
X-188887D01*
Y-38949D01*
X-188805D01*
Y-38785D01*
X-188723D01*
Y-38621D01*
X-188641D01*
Y-38457D01*
X-188559D01*
Y-38293D01*
X-188477D01*
Y-38129D01*
X-188395D01*
Y-37965D01*
X-188312D01*
Y-37883D01*
X-188230D01*
Y-37719D01*
X-188148D01*
Y-37555D01*
X-188066D01*
Y-37391D01*
X-187984D01*
Y-37227D01*
X-187902D01*
Y-37062D01*
X-187820D01*
Y-36981D01*
X-187738D01*
Y-36816D01*
X-187656D01*
Y-36652D01*
X-187574D01*
Y-36488D01*
X-187492D01*
Y-36324D01*
X-187410D01*
Y-36160D01*
X-187328D01*
Y-35996D01*
X-187246D01*
Y-35914D01*
X-187164D01*
Y-35750D01*
X-187082D01*
Y-35586D01*
X-187000D01*
Y-35422D01*
X-186918D01*
Y-35258D01*
X-186836D01*
Y-35094D01*
X-186754D01*
Y-35012D01*
X-186672D01*
Y-34848D01*
X-186590D01*
Y-34684D01*
X-186508D01*
Y-34520D01*
X-186426D01*
Y-34355D01*
X-186344D01*
Y-34191D01*
X-186262D01*
Y-34109D01*
X-186180D01*
Y-33945D01*
X-186098D01*
Y-33781D01*
X-186016D01*
Y-33617D01*
X-185934D01*
Y-33453D01*
X-185852D01*
Y-33289D01*
X-185770D01*
Y-33207D01*
X-185688D01*
Y-33043D01*
X-185606D01*
Y-32879D01*
X-185523D01*
Y-32715D01*
X-185441D01*
Y-32551D01*
X-185359D01*
Y-32387D01*
X-185277D01*
Y-32305D01*
X-185195D01*
Y-32141D01*
X-185113D01*
Y-31977D01*
X-185031D01*
Y-31813D01*
X-184949D01*
Y-31648D01*
X-184867D01*
Y-31484D01*
X-184785D01*
Y-31320D01*
X-184703D01*
Y-31238D01*
X-184621D01*
Y-31074D01*
X-184539D01*
Y-30910D01*
X-184457D01*
Y-30746D01*
X-184375D01*
Y-30582D01*
X-184293D01*
Y-30418D01*
X-184211D01*
Y-30336D01*
X-184129D01*
Y-30172D01*
X-184047D01*
Y-30008D01*
X-183965D01*
Y-29844D01*
X-183883D01*
Y-29680D01*
X-183801D01*
Y-29516D01*
X-183719D01*
Y-29434D01*
X-183637D01*
Y-29270D01*
X-183555D01*
Y-29106D01*
X-183473D01*
Y-28941D01*
X-183391D01*
Y-28777D01*
X-183309D01*
Y-28613D01*
X-183227D01*
Y-28531D01*
X-183144D01*
Y-28367D01*
X-183062D01*
Y-28203D01*
X-182980D01*
Y-28039D01*
X-182898D01*
Y-27875D01*
X-182816D01*
Y-27711D01*
X-182734D01*
Y-27629D01*
X-182652D01*
Y-27465D01*
X-182570D01*
Y-27301D01*
X-182488D01*
Y-27137D01*
X-182406D01*
Y-26973D01*
X-182324D01*
Y-26809D01*
X-182242D01*
Y-26727D01*
X-182160D01*
Y-26562D01*
X-182078D01*
Y-26398D01*
X-181996D01*
Y-26234D01*
X-181914D01*
Y-26070D01*
X-181832D01*
Y-25906D01*
X-181750D01*
Y-25742D01*
X-181668D01*
Y-25660D01*
X-181586D01*
Y-25496D01*
X-181504D01*
Y-25332D01*
X-181422D01*
Y-25168D01*
X-181340D01*
Y-25004D01*
X-181258D01*
Y-24840D01*
X-181176D01*
Y-24758D01*
X-181094D01*
Y-24594D01*
X-181012D01*
Y-24430D01*
X-180930D01*
Y-24266D01*
X-180848D01*
Y-24102D01*
X-180766D01*
Y-23937D01*
X-180684D01*
Y-23856D01*
X-180602D01*
Y-23691D01*
X-180520D01*
Y-23527D01*
X-180438D01*
Y-23363D01*
X-180355D01*
Y-23199D01*
X-180273D01*
Y-23035D01*
X-180191D01*
Y-22953D01*
X-180109D01*
Y-22789D01*
X-180027D01*
Y-22625D01*
X-179945D01*
Y-22461D01*
X-179863D01*
Y-22297D01*
X-179781D01*
Y-22133D01*
X-179699D01*
Y-22051D01*
X-179617D01*
Y-21887D01*
X-179535D01*
Y-21723D01*
X-179453D01*
Y-21559D01*
X-179371D01*
Y-21395D01*
X-179289D01*
Y-21230D01*
X-179207D01*
Y-21066D01*
X-179125D01*
Y-20984D01*
X-179043D01*
Y-20820D01*
X-178961D01*
Y-20656D01*
X-178879D01*
Y-20492D01*
X-178797D01*
Y-20328D01*
X-178715D01*
Y-20164D01*
X-178633D01*
Y-20082D01*
X-178551D01*
Y-19918D01*
X-178469D01*
Y-19754D01*
X-178387D01*
Y-19590D01*
X-178305D01*
Y-19426D01*
X-178223D01*
Y-19262D01*
X-178141D01*
Y-19180D01*
X-178059D01*
Y-19016D01*
X-177977D01*
Y-18852D01*
X-177894D01*
Y-18687D01*
X-177812D01*
Y-18523D01*
X-177731D01*
Y-18359D01*
X-177648D01*
Y-18277D01*
X-177566D01*
Y-18113D01*
X-177484D01*
Y-17949D01*
X-177402D01*
Y-17785D01*
X-177320D01*
Y-17621D01*
X-177238D01*
Y-17457D01*
X-177156D01*
Y-17375D01*
X-177074D01*
Y-17211D01*
X-176992D01*
Y-17047D01*
X-176910D01*
Y-16883D01*
X-176828D01*
Y-16719D01*
X-176746D01*
Y-16555D01*
X-176664D01*
Y-16391D01*
X-176582D01*
Y-16309D01*
X-176500D01*
Y-16144D01*
X-176418D01*
Y-15980D01*
X-176336D01*
Y-15816D01*
X-176254D01*
Y-15652D01*
X-176172D01*
Y-15488D01*
X-176090D01*
Y-15406D01*
X-176008D01*
Y-15242D01*
X-175926D01*
Y-15078D01*
X-175844D01*
Y-14914D01*
X-175762D01*
Y-14750D01*
X-175680D01*
Y-14586D01*
X-175598D01*
Y-14504D01*
X-175516D01*
Y-14340D01*
X-175434D01*
Y-14176D01*
X-175352D01*
Y-14012D01*
X-175270D01*
Y-13848D01*
X-175187D01*
Y-13684D01*
X-175105D01*
Y-13602D01*
X-175023D01*
Y-13438D01*
X-174941D01*
Y-13274D01*
X-174859D01*
Y-13109D01*
X-174777D01*
Y-12945D01*
X-174695D01*
Y-12781D01*
X-174613D01*
Y-12699D01*
X-174531D01*
Y-12535D01*
X-174449D01*
Y-12371D01*
X-174367D01*
Y-12207D01*
X-174285D01*
Y-12043D01*
X-174203D01*
Y-11879D01*
X-174121D01*
Y-11715D01*
X-174039D01*
Y-11633D01*
X-173957D01*
Y-11469D01*
X-173875D01*
Y-11305D01*
X-173793D01*
Y-11141D01*
X-173711D01*
Y-10977D01*
X-173629D01*
Y-10812D01*
X-173547D01*
Y-10731D01*
X-173465D01*
Y-10648D01*
X-173383D01*
Y-10484D01*
X-173301D01*
Y-10402D01*
X-173219D01*
Y-10238D01*
X-173137D01*
Y-10156D01*
X-173055D01*
Y-10074D01*
X-172973D01*
Y-9992D01*
X-172891D01*
Y-9910D01*
X-172809D01*
Y-9746D01*
X-172727D01*
Y-9664D01*
X-172645D01*
Y-9582D01*
X-172563D01*
Y-9500D01*
X-172481D01*
Y-9418D01*
X-172398D01*
Y-9336D01*
X-172234D01*
Y-9254D01*
X-172152D01*
Y-9172D01*
X-172070D01*
Y-9090D01*
X-171988D01*
Y-9008D01*
X-171824D01*
Y-8926D01*
X-171742D01*
Y-8844D01*
X-171578D01*
Y-8762D01*
X-171496D01*
Y-8680D01*
X-171332D01*
Y-8598D01*
X-171168D01*
Y-8516D01*
X-171004D01*
Y-8434D01*
X-170840D01*
Y-8352D01*
X-170676D01*
Y-8270D01*
X-170430D01*
Y-8188D01*
X-170184D01*
Y-8105D01*
X-169937D01*
Y-8023D01*
X-169609D01*
Y-7941D01*
X-169117D01*
Y-7859D01*
X-167477D01*
Y-7941D01*
D02*
G37*
G36*
X75985Y-133378D02*
X67311Y-133363D01*
X67325Y-135754D01*
X74280Y-135783D01*
X74294Y-138203D01*
X67311Y-138189D01*
X67325Y-140580D01*
X75971Y-140594D01*
X75985Y-143000D01*
X64876D01*
Y-130957D01*
X75971D01*
X75985Y-133378D01*
D02*
G37*
G36*
X60837Y-130972D02*
X60998Y-131001D01*
X61187Y-131045D01*
X61391Y-131103D01*
X61595Y-131176D01*
X61799Y-131293D01*
X61829Y-131307D01*
X61887Y-131351D01*
X61989Y-131424D01*
X62106Y-131526D01*
X62251Y-131643D01*
X62397Y-131788D01*
X62528Y-131963D01*
X62660Y-132153D01*
X62674Y-132182D01*
X62718Y-132240D01*
X62762Y-132357D01*
X62835Y-132503D01*
X62893Y-132678D01*
X62951Y-132896D01*
X62995Y-133115D01*
X63010Y-133363D01*
X62995Y-134383D01*
X60560D01*
Y-133479D01*
Y-133465D01*
Y-133450D01*
X60531Y-133407D01*
X60516Y-133392D01*
X60502Y-133378D01*
X53402D01*
X53372Y-133407D01*
Y-133421D01*
Y-133479D01*
Y-135681D01*
Y-135710D01*
Y-135754D01*
X53402Y-135768D01*
X53416D01*
X53460Y-135754D01*
X60633D01*
X60721Y-135768D01*
X60837Y-135783D01*
X60998Y-135812D01*
X61187Y-135856D01*
X61391Y-135914D01*
X61595Y-136002D01*
X61799Y-136104D01*
X61829Y-136118D01*
X61887Y-136162D01*
X61989Y-136235D01*
X62106Y-136323D01*
X62251Y-136454D01*
X62397Y-136600D01*
X62528Y-136775D01*
X62660Y-136964D01*
X62674Y-136993D01*
X62718Y-137066D01*
X62762Y-137168D01*
X62835Y-137329D01*
X62893Y-137503D01*
X62951Y-137708D01*
X62995Y-137926D01*
X63010Y-138174D01*
Y-140594D01*
Y-140624D01*
Y-140711D01*
X62995Y-140842D01*
X62966Y-141003D01*
X62922Y-141192D01*
X62849Y-141396D01*
X62776Y-141600D01*
X62660Y-141819D01*
X62645Y-141848D01*
X62601Y-141906D01*
X62528Y-142009D01*
X62426Y-142125D01*
X62310Y-142271D01*
X62164Y-142402D01*
X61989Y-142548D01*
X61799Y-142679D01*
X61770Y-142694D01*
X61712Y-142723D01*
X61595Y-142781D01*
X61449Y-142840D01*
X61275Y-142898D01*
X61070Y-142956D01*
X60837Y-142985D01*
X60604Y-143000D01*
X53241D01*
X53125Y-142985D01*
X52964Y-142956D01*
X52775Y-142927D01*
X52571Y-142869D01*
X52366Y-142781D01*
X52148Y-142679D01*
X52119Y-142665D01*
X52060Y-142621D01*
X51958Y-142548D01*
X51827Y-142446D01*
X51681Y-142329D01*
X51535Y-142184D01*
X51390Y-142009D01*
X51258Y-141819D01*
X51244Y-141790D01*
X51215Y-141717D01*
X51156Y-141615D01*
X51098Y-141455D01*
X51040Y-141280D01*
X50996Y-141061D01*
X50967Y-140842D01*
X50952Y-140594D01*
X50938Y-139574D01*
X53372D01*
Y-140478D01*
Y-140492D01*
Y-140507D01*
Y-140565D01*
X53402Y-140580D01*
X60516D01*
X60531Y-140565D01*
X60546Y-140536D01*
X60560Y-140478D01*
Y-138291D01*
Y-138276D01*
Y-138262D01*
X60546Y-138232D01*
X60531Y-138218D01*
X60516Y-138203D01*
X53329D01*
X53241Y-138189D01*
X53125Y-138174D01*
X52964Y-138160D01*
X52775Y-138116D01*
X52571Y-138057D01*
X52366Y-137970D01*
X52148Y-137868D01*
X52119Y-137853D01*
X52060Y-137810D01*
X51958Y-137737D01*
X51827Y-137635D01*
X51681Y-137518D01*
X51535Y-137358D01*
X51390Y-137183D01*
X51258Y-136993D01*
X51244Y-136964D01*
X51215Y-136891D01*
X51156Y-136789D01*
X51098Y-136629D01*
X51040Y-136454D01*
X50996Y-136250D01*
X50967Y-136031D01*
X50952Y-135798D01*
Y-133363D01*
Y-133348D01*
Y-133334D01*
Y-133246D01*
X50967Y-133115D01*
X50981Y-132955D01*
X51025Y-132765D01*
X51069Y-132576D01*
X51156Y-132357D01*
X51258Y-132153D01*
X51273Y-132124D01*
X51317Y-132065D01*
X51390Y-131963D01*
X51492Y-131847D01*
X51623Y-131701D01*
X51769Y-131555D01*
X51958Y-131424D01*
X52148Y-131293D01*
X52177Y-131278D01*
X52250Y-131234D01*
X52352Y-131191D01*
X52512Y-131118D01*
X52687Y-131059D01*
X52891Y-131016D01*
X53125Y-130972D01*
X53358Y-130957D01*
X60721D01*
X60837Y-130972D01*
D02*
G37*
G36*
X21283Y-143000D02*
X18848D01*
Y-134558D01*
X14503Y-139763D01*
X10129Y-134573D01*
Y-143000D01*
X7724D01*
Y-130957D01*
X10275D01*
X14503Y-135987D01*
X18702Y-130957D01*
X21283D01*
Y-143000D01*
D02*
G37*
G36*
X49144Y-140594D02*
Y-140624D01*
Y-140711D01*
X49130Y-140842D01*
X49101Y-141003D01*
X49057Y-141192D01*
X48999Y-141396D01*
X48926Y-141600D01*
X48809Y-141819D01*
X48794Y-141848D01*
X48751Y-141906D01*
X48678Y-142009D01*
X48576Y-142125D01*
X48444Y-142271D01*
X48299Y-142402D01*
X48124Y-142548D01*
X47934Y-142679D01*
X47905Y-142694D01*
X47847Y-142723D01*
X47730Y-142781D01*
X47584Y-142840D01*
X47409Y-142898D01*
X47205Y-142956D01*
X46987Y-142985D01*
X46739Y-143000D01*
X39391D01*
X39259Y-142985D01*
X39099Y-142956D01*
X38909Y-142927D01*
X38705Y-142869D01*
X38501Y-142781D01*
X38282Y-142679D01*
X38253Y-142665D01*
X38195Y-142621D01*
X38093Y-142548D01*
X37976Y-142446D01*
X37831Y-142329D01*
X37685Y-142184D01*
X37539Y-142009D01*
X37408Y-141819D01*
X37393Y-141790D01*
X37364Y-141717D01*
X37306Y-141615D01*
X37247Y-141455D01*
X37189Y-141280D01*
X37131Y-141061D01*
X37102Y-140842D01*
X37087Y-140594D01*
Y-130957D01*
X39507D01*
Y-140478D01*
Y-140492D01*
Y-140507D01*
X39522Y-140565D01*
X39551Y-140580D01*
X46651D01*
X46680Y-140565D01*
X46695Y-140536D01*
X46710Y-140521D01*
X46695Y-140478D01*
X46724Y-130957D01*
X49144D01*
Y-140594D01*
D02*
G37*
G36*
X33107Y-130972D02*
X33282Y-131001D01*
X33457Y-131045D01*
X33661Y-131103D01*
X33865Y-131176D01*
X34069Y-131293D01*
X34098Y-131307D01*
X34156Y-131351D01*
X34259Y-131424D01*
X34375Y-131526D01*
X34521Y-131643D01*
X34667Y-131788D01*
X34813Y-131963D01*
X34944Y-132153D01*
X34958Y-132182D01*
X35002Y-132240D01*
X35046Y-132357D01*
X35119Y-132503D01*
X35177Y-132678D01*
X35221Y-132896D01*
X35265Y-133115D01*
X35279Y-133363D01*
Y-140594D01*
Y-140624D01*
Y-140711D01*
X35265Y-140842D01*
X35235Y-141003D01*
X35192Y-141192D01*
X35133Y-141396D01*
X35061Y-141600D01*
X34944Y-141819D01*
X34929Y-141848D01*
X34885Y-141906D01*
X34813Y-142009D01*
X34711Y-142125D01*
X34579Y-142271D01*
X34434Y-142402D01*
X34259Y-142548D01*
X34069Y-142679D01*
X34040Y-142694D01*
X33982Y-142723D01*
X33865Y-142781D01*
X33719Y-142840D01*
X33544Y-142898D01*
X33340Y-142956D01*
X33121Y-142985D01*
X32873Y-143000D01*
X25525D01*
X25394Y-142985D01*
X25234Y-142956D01*
X25044Y-142927D01*
X24840Y-142869D01*
X24636Y-142781D01*
X24417Y-142679D01*
X24388Y-142665D01*
X24330Y-142621D01*
X24228Y-142548D01*
X24111Y-142446D01*
X23965Y-142329D01*
X23820Y-142184D01*
X23674Y-142009D01*
X23543Y-141819D01*
X23528Y-141790D01*
X23499Y-141717D01*
X23440Y-141615D01*
X23382Y-141455D01*
X23324Y-141280D01*
X23266Y-141061D01*
X23236Y-140842D01*
X23222Y-140594D01*
Y-133363D01*
Y-133348D01*
Y-133334D01*
Y-133246D01*
X23236Y-133115D01*
X23266Y-132955D01*
X23295Y-132765D01*
X23353Y-132576D01*
X23440Y-132357D01*
X23543Y-132153D01*
X23557Y-132124D01*
X23601Y-132065D01*
X23674Y-131963D01*
X23776Y-131847D01*
X23907Y-131701D01*
X24053Y-131555D01*
X24228Y-131424D01*
X24417Y-131293D01*
X24446Y-131278D01*
X24519Y-131234D01*
X24622Y-131191D01*
X24782Y-131118D01*
X24957Y-131059D01*
X25175Y-131016D01*
X25394Y-130972D01*
X25642Y-130957D01*
X32990D01*
X33107Y-130972D01*
D02*
G37*
G36*
X3773Y-133319D02*
X3933Y-133348D01*
X4123Y-133378D01*
X4312Y-133436D01*
X4531Y-133523D01*
X4735Y-133625D01*
X4764Y-133640D01*
X4822Y-133684D01*
X4924Y-133757D01*
X5041Y-133844D01*
X5172Y-133975D01*
X5318Y-134121D01*
X5464Y-134296D01*
X5580Y-134486D01*
X5595Y-134515D01*
X5624Y-134573D01*
X5683Y-134690D01*
X5741Y-134835D01*
X5785Y-135010D01*
X5843Y-135215D01*
X5872Y-135433D01*
X5887Y-135667D01*
Y-140653D01*
Y-140682D01*
Y-140755D01*
X5872Y-140886D01*
X5857Y-141032D01*
X5814Y-141207D01*
X5756Y-141411D01*
X5683Y-141615D01*
X5566Y-141819D01*
X5551Y-141848D01*
X5508Y-141906D01*
X5435Y-142009D01*
X5347Y-142125D01*
X5216Y-142271D01*
X5070Y-142402D01*
X4910Y-142548D01*
X4720Y-142679D01*
X4691Y-142694D01*
X4633Y-142723D01*
X4516Y-142781D01*
X4370Y-142840D01*
X4195Y-142898D01*
X3991Y-142956D01*
X3773Y-142985D01*
X3525Y-143000D01*
X-1695D01*
X-1826Y-142985D01*
X-1986Y-142956D01*
X-2161Y-142927D01*
X-2365Y-142869D01*
X-2569Y-142781D01*
X-2774Y-142679D01*
X-2803Y-142665D01*
X-2861Y-142621D01*
X-2963Y-142548D01*
X-3080Y-142446D01*
X-3211Y-142329D01*
X-3357Y-142184D01*
X-3503Y-142009D01*
X-3634Y-141819D01*
X-3648Y-141790D01*
X-3677Y-141732D01*
X-3736Y-141615D01*
X-3794Y-141469D01*
X-3853Y-141294D01*
X-3911Y-141105D01*
X-3940Y-140886D01*
X-3955Y-140653D01*
Y-135667D01*
Y-135652D01*
Y-135637D01*
Y-135564D01*
X-3940Y-135433D01*
X-3911Y-135273D01*
X-3882Y-135098D01*
X-3823Y-134894D01*
X-3736Y-134690D01*
X-3634Y-134486D01*
X-3619Y-134456D01*
X-3575Y-134398D01*
X-3503Y-134296D01*
X-3401Y-134179D01*
X-3269Y-134034D01*
X-3124Y-133888D01*
X-2963Y-133757D01*
X-2774Y-133625D01*
X-2744Y-133611D01*
X-2672Y-133582D01*
X-2569Y-133523D01*
X-2424Y-133465D01*
X-2249Y-133407D01*
X-2045Y-133348D01*
X-1826Y-133319D01*
X-1593Y-133305D01*
X3641D01*
X3773Y-133319D01*
D02*
G37*
G36*
X-5733Y-143000D02*
X-13329D01*
X-13446Y-142985D01*
X-13621Y-142956D01*
X-13796Y-142927D01*
X-14000Y-142869D01*
X-14219Y-142796D01*
X-14423Y-142694D01*
X-14452Y-142679D01*
X-14510Y-142635D01*
X-14612Y-142563D01*
X-14729Y-142461D01*
X-14860Y-142344D01*
X-15006Y-142198D01*
X-15137Y-142023D01*
X-15268Y-141834D01*
X-15283Y-141805D01*
X-15312Y-141732D01*
X-15370Y-141629D01*
X-15429Y-141484D01*
X-15487Y-141294D01*
X-15545Y-141105D01*
X-15575Y-140886D01*
X-15589Y-140653D01*
Y-135667D01*
Y-135652D01*
Y-135637D01*
Y-135564D01*
X-15575Y-135433D01*
X-15545Y-135273D01*
X-15516Y-135098D01*
X-15458Y-134894D01*
X-15370Y-134690D01*
X-15268Y-134486D01*
X-15254Y-134456D01*
X-15210Y-134398D01*
X-15137Y-134296D01*
X-15035Y-134179D01*
X-14918Y-134034D01*
X-14773Y-133888D01*
X-14612Y-133757D01*
X-14423Y-133625D01*
X-14394Y-133611D01*
X-14321Y-133582D01*
X-14219Y-133523D01*
X-14073Y-133465D01*
X-13883Y-133407D01*
X-13679Y-133348D01*
X-13461Y-133319D01*
X-13213Y-133305D01*
X-8110D01*
Y-130126D01*
X-5719D01*
X-5733Y-143000D01*
D02*
G37*
G36*
X-16901D02*
X-24497D01*
X-24614Y-142985D01*
X-24789Y-142956D01*
X-24964Y-142927D01*
X-25168Y-142869D01*
X-25387Y-142796D01*
X-25591Y-142694D01*
X-25620Y-142679D01*
X-25678Y-142635D01*
X-25780Y-142563D01*
X-25897Y-142461D01*
X-26028Y-142344D01*
X-26174Y-142198D01*
X-26305Y-142023D01*
X-26436Y-141834D01*
X-26451Y-141805D01*
X-26480Y-141732D01*
X-26538Y-141629D01*
X-26597Y-141484D01*
X-26655Y-141294D01*
X-26713Y-141105D01*
X-26742Y-140886D01*
X-26757Y-140653D01*
Y-135667D01*
Y-135652D01*
Y-135637D01*
Y-135564D01*
X-26742Y-135433D01*
X-26713Y-135273D01*
X-26684Y-135098D01*
X-26626Y-134894D01*
X-26538Y-134690D01*
X-26436Y-134486D01*
X-26422Y-134456D01*
X-26378Y-134398D01*
X-26305Y-134296D01*
X-26203Y-134179D01*
X-26086Y-134034D01*
X-25941Y-133888D01*
X-25780Y-133757D01*
X-25591Y-133625D01*
X-25561Y-133611D01*
X-25489Y-133582D01*
X-25387Y-133523D01*
X-25241Y-133465D01*
X-25051Y-133407D01*
X-24847Y-133348D01*
X-24628Y-133319D01*
X-24381Y-133305D01*
X-19278D01*
Y-130126D01*
X-16887D01*
X-16901Y-143000D01*
D02*
G37*
G36*
X-30154Y-133319D02*
X-29994Y-133348D01*
X-29804Y-133378D01*
X-29615Y-133436D01*
X-29396Y-133523D01*
X-29192Y-133625D01*
X-29163Y-133640D01*
X-29104Y-133684D01*
X-29002Y-133757D01*
X-28886Y-133844D01*
X-28754Y-133975D01*
X-28609Y-134121D01*
X-28463Y-134296D01*
X-28346Y-134486D01*
X-28332Y-134515D01*
X-28303Y-134573D01*
X-28244Y-134690D01*
X-28186Y-134835D01*
X-28142Y-135010D01*
X-28084Y-135215D01*
X-28055Y-135433D01*
X-28040Y-135667D01*
Y-140653D01*
Y-140682D01*
Y-140755D01*
X-28055Y-140886D01*
X-28069Y-141032D01*
X-28113Y-141207D01*
X-28171Y-141411D01*
X-28244Y-141615D01*
X-28361Y-141819D01*
X-28375Y-141848D01*
X-28419Y-141906D01*
X-28492Y-142009D01*
X-28579Y-142125D01*
X-28711Y-142271D01*
X-28856Y-142402D01*
X-29017Y-142548D01*
X-29206Y-142679D01*
X-29236Y-142694D01*
X-29294Y-142723D01*
X-29411Y-142781D01*
X-29556Y-142840D01*
X-29731Y-142898D01*
X-29935Y-142956D01*
X-30154Y-142985D01*
X-30402Y-143000D01*
X-35621D01*
X-35753Y-142985D01*
X-35913Y-142956D01*
X-36088Y-142927D01*
X-36292Y-142869D01*
X-36496Y-142781D01*
X-36700Y-142679D01*
X-36730Y-142665D01*
X-36788Y-142621D01*
X-36890Y-142548D01*
X-37006Y-142446D01*
X-37138Y-142329D01*
X-37283Y-142184D01*
X-37429Y-142009D01*
X-37561Y-141819D01*
X-37575Y-141790D01*
X-37604Y-141732D01*
X-37663Y-141615D01*
X-37721Y-141469D01*
X-37779Y-141294D01*
X-37838Y-141105D01*
X-37867Y-140886D01*
X-37881Y-140653D01*
Y-135667D01*
Y-135652D01*
Y-135637D01*
Y-135564D01*
X-37867Y-135433D01*
X-37838Y-135273D01*
X-37808Y-135098D01*
X-37750Y-134894D01*
X-37663Y-134690D01*
X-37561Y-134486D01*
X-37546Y-134456D01*
X-37502Y-134398D01*
X-37429Y-134296D01*
X-37327Y-134179D01*
X-37196Y-134034D01*
X-37050Y-133888D01*
X-36890Y-133757D01*
X-36700Y-133625D01*
X-36671Y-133611D01*
X-36598Y-133582D01*
X-36496Y-133523D01*
X-36350Y-133465D01*
X-36175Y-133407D01*
X-35971Y-133348D01*
X-35753Y-133319D01*
X-35519Y-133305D01*
X-30285D01*
X-30154Y-133319D01*
D02*
G37*
G36*
X-42109D02*
X-41949Y-133348D01*
X-41760Y-133378D01*
X-41570Y-133436D01*
X-41351Y-133523D01*
X-41147Y-133625D01*
X-41118Y-133640D01*
X-41060Y-133684D01*
X-40958Y-133757D01*
X-40841Y-133859D01*
X-40710Y-133975D01*
X-40564Y-134121D01*
X-40418Y-134296D01*
X-40301Y-134486D01*
X-40287Y-134515D01*
X-40258Y-134573D01*
X-40199Y-134690D01*
X-40141Y-134835D01*
X-40083Y-135010D01*
X-40024Y-135215D01*
X-39995Y-135433D01*
X-39981Y-135667D01*
Y-143000D01*
X-42343D01*
X-42357Y-135783D01*
Y-135768D01*
Y-135754D01*
Y-135725D01*
X-42372Y-135710D01*
X-42386Y-135696D01*
X-42459Y-135681D01*
X-45798D01*
X-45856Y-135710D01*
X-45871Y-135725D01*
X-45886Y-135739D01*
Y-135783D01*
Y-143000D01*
X-48277D01*
Y-135783D01*
Y-135768D01*
Y-135754D01*
X-48291Y-135725D01*
X-48306Y-135710D01*
X-48320Y-135696D01*
X-48379Y-135681D01*
X-51747D01*
X-51790Y-135710D01*
X-51805Y-135725D01*
Y-135739D01*
Y-135783D01*
X-51819Y-143000D01*
X-54210D01*
Y-133305D01*
X-42241D01*
X-42109Y-133319D01*
D02*
G37*
G36*
X-142902Y-58321D02*
X-139861Y-62883D01*
X-142017D01*
X-143496Y-60602D01*
X-143506Y-60581D01*
X-143538Y-60529D01*
X-143590Y-60456D01*
X-143652Y-60342D01*
X-143725Y-60206D01*
X-143808Y-60060D01*
X-143892Y-59883D01*
X-143985Y-59696D01*
X-144006D01*
Y-59706D01*
X-144017Y-59717D01*
X-144048Y-59779D01*
X-144089Y-59873D01*
X-144152Y-59998D01*
X-144225Y-60133D01*
X-144308Y-60290D01*
X-144496Y-60602D01*
X-145974Y-62883D01*
X-148120D01*
X-145079Y-58248D01*
X-147838Y-53999D01*
X-145745D01*
X-144454Y-56072D01*
X-144444Y-56093D01*
X-144412Y-56145D01*
X-144360Y-56228D01*
X-144298Y-56332D01*
X-144225Y-56468D01*
X-144142Y-56624D01*
X-144058Y-56790D01*
X-143975Y-56978D01*
X-143944D01*
X-143933Y-56957D01*
X-143912Y-56905D01*
X-143871Y-56822D01*
X-143819Y-56707D01*
X-143756Y-56572D01*
X-143683Y-56426D01*
X-143506Y-56114D01*
X-142225Y-53999D01*
X-140132D01*
X-142902Y-58321D01*
D02*
G37*
G36*
X-157930Y-62883D02*
X-159586D01*
Y-55884D01*
X-161523Y-62883D01*
X-163241D01*
X-165199Y-55884D01*
Y-62883D01*
X-166854D01*
Y-53999D01*
X-164178D01*
X-162376Y-60290D01*
X-160616Y-53999D01*
X-157930D01*
Y-62883D01*
D02*
G37*
G36*
X-174061D02*
X-175935D01*
X-179060Y-53999D01*
X-177112D01*
X-175373Y-59165D01*
Y-59175D01*
X-175363Y-59196D01*
X-175352Y-59238D01*
X-175331Y-59290D01*
X-175311Y-59352D01*
X-175279Y-59436D01*
X-175259Y-59519D01*
X-175227Y-59623D01*
X-175154Y-59842D01*
X-175092Y-60102D01*
X-175019Y-60383D01*
X-174946Y-60675D01*
X-174925D01*
Y-60664D01*
X-174915Y-60633D01*
X-174904Y-60592D01*
X-174894Y-60529D01*
X-174873Y-60456D01*
X-174852Y-60373D01*
X-174821Y-60269D01*
X-174800Y-60164D01*
X-174738Y-59935D01*
X-174665Y-59686D01*
X-174592Y-59425D01*
X-174509Y-59175D01*
X-172822Y-53999D01*
X-170916D01*
X-174061Y-62883D01*
D02*
G37*
G36*
X-182486Y-54010D02*
X-182403D01*
X-182205Y-54041D01*
X-181986Y-54072D01*
X-181736Y-54124D01*
X-181497Y-54197D01*
X-181257Y-54301D01*
X-181247D01*
X-181226Y-54312D01*
X-181194Y-54333D01*
X-181153Y-54353D01*
X-181049Y-54416D01*
X-180903Y-54510D01*
X-180757Y-54624D01*
X-180601Y-54770D01*
X-180445Y-54926D01*
X-180309Y-55114D01*
Y-55124D01*
X-180299Y-55135D01*
X-180278Y-55166D01*
X-180257Y-55208D01*
X-180205Y-55312D01*
X-180143Y-55447D01*
X-180080Y-55624D01*
X-180028Y-55822D01*
X-179986Y-56051D01*
X-179976Y-56290D01*
Y-56301D01*
Y-56322D01*
Y-56353D01*
Y-56395D01*
X-179997Y-56509D01*
X-180018Y-56655D01*
X-180059Y-56832D01*
X-180122Y-57020D01*
X-180216Y-57217D01*
X-180330Y-57405D01*
Y-57415D01*
X-180351Y-57426D01*
X-180393Y-57488D01*
X-180476Y-57571D01*
X-180590Y-57686D01*
X-180736Y-57800D01*
X-180924Y-57936D01*
X-181143Y-58050D01*
X-181392Y-58165D01*
X-181382D01*
X-181361Y-58175D01*
X-181309Y-58186D01*
X-181257Y-58196D01*
X-181194Y-58217D01*
X-181111Y-58248D01*
X-180934Y-58321D01*
X-180726Y-58415D01*
X-180518Y-58540D01*
X-180320Y-58696D01*
X-180132Y-58894D01*
X-180122Y-58904D01*
X-180112Y-58915D01*
X-180091Y-58946D01*
X-180059Y-58998D01*
X-180028Y-59050D01*
X-179986Y-59113D01*
X-179903Y-59269D01*
X-179820Y-59467D01*
X-179747Y-59706D01*
X-179695Y-59967D01*
X-179674Y-60102D01*
Y-60248D01*
Y-60258D01*
Y-60290D01*
Y-60331D01*
X-179685Y-60394D01*
Y-60466D01*
X-179695Y-60560D01*
X-179705Y-60654D01*
X-179716Y-60768D01*
X-179768Y-60998D01*
X-179830Y-61258D01*
X-179914Y-61508D01*
X-180039Y-61758D01*
Y-61768D01*
X-180059Y-61789D01*
X-180080Y-61820D01*
X-180101Y-61862D01*
X-180184Y-61977D01*
X-180309Y-62112D01*
X-180455Y-62268D01*
X-180632Y-62424D01*
X-180840Y-62581D01*
X-181080Y-62716D01*
X-181090D01*
X-181111Y-62726D01*
X-181153Y-62747D01*
X-181205Y-62768D01*
X-181267Y-62789D01*
X-181340Y-62820D01*
X-181434Y-62851D01*
X-181538Y-62872D01*
X-181642Y-62903D01*
X-181767Y-62935D01*
X-182038Y-62987D01*
X-182351Y-63028D01*
X-182684Y-63039D01*
X-182819D01*
X-182882Y-63028D01*
X-182965D01*
X-183163Y-63007D01*
X-183382Y-62966D01*
X-183621Y-62924D01*
X-183871Y-62851D01*
X-184111Y-62758D01*
X-184121D01*
X-184142Y-62747D01*
X-184173Y-62726D01*
X-184215Y-62705D01*
X-184329Y-62643D01*
X-184475Y-62549D01*
X-184642Y-62424D01*
X-184819Y-62279D01*
X-184985Y-62112D01*
X-185152Y-61914D01*
Y-61904D01*
X-185173Y-61883D01*
X-185194Y-61852D01*
X-185214Y-61810D01*
X-185246Y-61758D01*
X-185287Y-61685D01*
X-185329Y-61612D01*
X-185371Y-61529D01*
X-185454Y-61321D01*
X-185537Y-61091D01*
X-185610Y-60821D01*
X-185662Y-60529D01*
X-183965Y-60331D01*
Y-60342D01*
Y-60362D01*
X-183954Y-60394D01*
X-183944Y-60435D01*
X-183923Y-60550D01*
X-183881Y-60685D01*
X-183829Y-60841D01*
X-183756Y-61008D01*
X-183673Y-61164D01*
X-183559Y-61300D01*
X-183548Y-61310D01*
X-183496Y-61352D01*
X-183423Y-61404D01*
X-183329Y-61456D01*
X-183204Y-61518D01*
X-183059Y-61570D01*
X-182882Y-61612D01*
X-182694Y-61623D01*
X-182632D01*
X-182559Y-61612D01*
X-182475Y-61602D01*
X-182371Y-61581D01*
X-182267Y-61539D01*
X-182153Y-61498D01*
X-182048Y-61435D01*
X-182038Y-61425D01*
X-182007Y-61393D01*
X-181955Y-61352D01*
X-181892Y-61289D01*
X-181819Y-61216D01*
X-181747Y-61123D01*
X-181674Y-61019D01*
X-181611Y-60904D01*
X-181601Y-60894D01*
X-181590Y-60841D01*
X-181559Y-60779D01*
X-181528Y-60685D01*
X-181507Y-60581D01*
X-181476Y-60456D01*
X-181465Y-60321D01*
X-181455Y-60175D01*
Y-60154D01*
Y-60113D01*
X-181465Y-60040D01*
X-181476Y-59946D01*
X-181497Y-59842D01*
X-181528Y-59727D01*
X-181569Y-59602D01*
X-181621Y-59488D01*
X-181632Y-59477D01*
X-181653Y-59436D01*
X-181694Y-59384D01*
X-181747Y-59311D01*
X-181809Y-59238D01*
X-181892Y-59165D01*
X-181986Y-59082D01*
X-182090Y-59019D01*
X-182101Y-59009D01*
X-182142Y-58988D01*
X-182205Y-58967D01*
X-182288Y-58936D01*
X-182392Y-58904D01*
X-182507Y-58873D01*
X-182642Y-58863D01*
X-182788Y-58852D01*
X-183590D01*
X-183413Y-57540D01*
X-183267D01*
X-183194Y-57530D01*
X-183111Y-57519D01*
X-182923Y-57498D01*
X-182705Y-57467D01*
X-182496Y-57415D01*
X-182288Y-57342D01*
X-182205Y-57301D01*
X-182121Y-57249D01*
X-182101Y-57238D01*
X-182059Y-57196D01*
X-181986Y-57124D01*
X-181913Y-57030D01*
X-181840Y-56915D01*
X-181767Y-56770D01*
X-181726Y-56592D01*
X-181705Y-56395D01*
Y-56384D01*
Y-56374D01*
Y-56322D01*
X-181715Y-56238D01*
X-181736Y-56134D01*
X-181778Y-56020D01*
X-181819Y-55905D01*
X-181892Y-55791D01*
X-181986Y-55686D01*
X-181996Y-55676D01*
X-182038Y-55645D01*
X-182101Y-55603D01*
X-182184Y-55551D01*
X-182288Y-55510D01*
X-182423Y-55468D01*
X-182569Y-55437D01*
X-182736Y-55426D01*
X-182819D01*
X-182902Y-55447D01*
X-183017Y-55468D01*
X-183142Y-55510D01*
X-183277Y-55561D01*
X-183413Y-55645D01*
X-183538Y-55749D01*
X-183548Y-55759D01*
X-183590Y-55801D01*
X-183642Y-55874D01*
X-183704Y-55968D01*
X-183767Y-56093D01*
X-183829Y-56238D01*
X-183881Y-56416D01*
X-183913Y-56603D01*
X-185537Y-56322D01*
Y-56311D01*
X-185527Y-56270D01*
X-185506Y-56207D01*
X-185485Y-56134D01*
X-185454Y-56041D01*
X-185423Y-55926D01*
X-185381Y-55801D01*
X-185329Y-55666D01*
X-185194Y-55384D01*
X-185027Y-55103D01*
X-184933Y-54957D01*
X-184819Y-54822D01*
X-184704Y-54697D01*
X-184569Y-54583D01*
X-184558Y-54572D01*
X-184537Y-54562D01*
X-184496Y-54531D01*
X-184433Y-54489D01*
X-184360Y-54447D01*
X-184277Y-54395D01*
X-184173Y-54343D01*
X-184058Y-54291D01*
X-183933Y-54239D01*
X-183788Y-54187D01*
X-183631Y-54135D01*
X-183465Y-54093D01*
X-183288Y-54051D01*
X-183100Y-54020D01*
X-182902Y-54010D01*
X-182694Y-53999D01*
X-182559D01*
X-182486Y-54010D01*
D02*
G37*
G36*
X-192962D02*
X-192879D01*
X-192681Y-54041D01*
X-192463Y-54072D01*
X-192213Y-54124D01*
X-191973Y-54197D01*
X-191733Y-54301D01*
X-191723D01*
X-191702Y-54312D01*
X-191671Y-54333D01*
X-191629Y-54353D01*
X-191525Y-54416D01*
X-191379Y-54510D01*
X-191234Y-54624D01*
X-191077Y-54770D01*
X-190921Y-54926D01*
X-190786Y-55114D01*
Y-55124D01*
X-190775Y-55135D01*
X-190755Y-55166D01*
X-190734Y-55208D01*
X-190682Y-55312D01*
X-190619Y-55447D01*
X-190557Y-55624D01*
X-190505Y-55822D01*
X-190463Y-56051D01*
X-190453Y-56290D01*
Y-56301D01*
Y-56322D01*
Y-56353D01*
Y-56395D01*
X-190473Y-56509D01*
X-190494Y-56655D01*
X-190536Y-56832D01*
X-190598Y-57020D01*
X-190692Y-57217D01*
X-190807Y-57405D01*
Y-57415D01*
X-190828Y-57426D01*
X-190869Y-57488D01*
X-190952Y-57571D01*
X-191067Y-57686D01*
X-191213Y-57800D01*
X-191400Y-57936D01*
X-191619Y-58050D01*
X-191869Y-58165D01*
X-191859D01*
X-191838Y-58175D01*
X-191786Y-58186D01*
X-191733Y-58196D01*
X-191671Y-58217D01*
X-191588Y-58248D01*
X-191411Y-58321D01*
X-191202Y-58415D01*
X-190994Y-58540D01*
X-190796Y-58696D01*
X-190609Y-58894D01*
X-190598Y-58904D01*
X-190588Y-58915D01*
X-190567Y-58946D01*
X-190536Y-58998D01*
X-190505Y-59050D01*
X-190463Y-59113D01*
X-190380Y-59269D01*
X-190296Y-59467D01*
X-190224Y-59706D01*
X-190171Y-59967D01*
X-190151Y-60102D01*
Y-60248D01*
Y-60258D01*
Y-60290D01*
Y-60331D01*
X-190161Y-60394D01*
Y-60466D01*
X-190171Y-60560D01*
X-190182Y-60654D01*
X-190192Y-60768D01*
X-190244Y-60998D01*
X-190307Y-61258D01*
X-190390Y-61508D01*
X-190515Y-61758D01*
Y-61768D01*
X-190536Y-61789D01*
X-190557Y-61820D01*
X-190578Y-61862D01*
X-190661Y-61977D01*
X-190786Y-62112D01*
X-190932Y-62268D01*
X-191109Y-62424D01*
X-191317Y-62581D01*
X-191556Y-62716D01*
X-191567D01*
X-191588Y-62726D01*
X-191629Y-62747D01*
X-191681Y-62768D01*
X-191744Y-62789D01*
X-191817Y-62820D01*
X-191910Y-62851D01*
X-192015Y-62872D01*
X-192119Y-62903D01*
X-192244Y-62935D01*
X-192515Y-62987D01*
X-192827Y-63028D01*
X-193160Y-63039D01*
X-193296D01*
X-193358Y-63028D01*
X-193441D01*
X-193639Y-63007D01*
X-193858Y-62966D01*
X-194097Y-62924D01*
X-194347Y-62851D01*
X-194587Y-62758D01*
X-194597D01*
X-194618Y-62747D01*
X-194649Y-62726D01*
X-194691Y-62705D01*
X-194806Y-62643D01*
X-194951Y-62549D01*
X-195118Y-62424D01*
X-195295Y-62279D01*
X-195462Y-62112D01*
X-195628Y-61914D01*
Y-61904D01*
X-195649Y-61883D01*
X-195670Y-61852D01*
X-195691Y-61810D01*
X-195722Y-61758D01*
X-195764Y-61685D01*
X-195805Y-61612D01*
X-195847Y-61529D01*
X-195930Y-61321D01*
X-196014Y-61091D01*
X-196087Y-60821D01*
X-196139Y-60529D01*
X-194441Y-60331D01*
Y-60342D01*
Y-60362D01*
X-194431Y-60394D01*
X-194420Y-60435D01*
X-194400Y-60550D01*
X-194358Y-60685D01*
X-194306Y-60841D01*
X-194233Y-61008D01*
X-194149Y-61164D01*
X-194035Y-61300D01*
X-194025Y-61310D01*
X-193972Y-61352D01*
X-193900Y-61404D01*
X-193806Y-61456D01*
X-193681Y-61518D01*
X-193535Y-61570D01*
X-193358Y-61612D01*
X-193171Y-61623D01*
X-193108D01*
X-193035Y-61612D01*
X-192952Y-61602D01*
X-192848Y-61581D01*
X-192744Y-61539D01*
X-192629Y-61498D01*
X-192525Y-61435D01*
X-192515Y-61425D01*
X-192483Y-61393D01*
X-192431Y-61352D01*
X-192369Y-61289D01*
X-192296Y-61216D01*
X-192223Y-61123D01*
X-192150Y-61019D01*
X-192088Y-60904D01*
X-192077Y-60894D01*
X-192067Y-60841D01*
X-192036Y-60779D01*
X-192004Y-60685D01*
X-191983Y-60581D01*
X-191952Y-60456D01*
X-191942Y-60321D01*
X-191931Y-60175D01*
Y-60154D01*
Y-60113D01*
X-191942Y-60040D01*
X-191952Y-59946D01*
X-191973Y-59842D01*
X-192004Y-59727D01*
X-192046Y-59602D01*
X-192098Y-59488D01*
X-192108Y-59477D01*
X-192129Y-59436D01*
X-192171Y-59384D01*
X-192223Y-59311D01*
X-192285Y-59238D01*
X-192369Y-59165D01*
X-192463Y-59082D01*
X-192567Y-59019D01*
X-192577Y-59009D01*
X-192619Y-58988D01*
X-192681Y-58967D01*
X-192764Y-58936D01*
X-192869Y-58904D01*
X-192983Y-58873D01*
X-193119Y-58863D01*
X-193264Y-58852D01*
X-194066D01*
X-193889Y-57540D01*
X-193743D01*
X-193671Y-57530D01*
X-193587Y-57519D01*
X-193400Y-57498D01*
X-193181Y-57467D01*
X-192973Y-57415D01*
X-192764Y-57342D01*
X-192681Y-57301D01*
X-192598Y-57249D01*
X-192577Y-57238D01*
X-192535Y-57196D01*
X-192463Y-57124D01*
X-192390Y-57030D01*
X-192317Y-56915D01*
X-192244Y-56770D01*
X-192202Y-56592D01*
X-192181Y-56395D01*
Y-56384D01*
Y-56374D01*
Y-56322D01*
X-192192Y-56238D01*
X-192213Y-56134D01*
X-192254Y-56020D01*
X-192296Y-55905D01*
X-192369Y-55791D01*
X-192463Y-55686D01*
X-192473Y-55676D01*
X-192515Y-55645D01*
X-192577Y-55603D01*
X-192660Y-55551D01*
X-192764Y-55510D01*
X-192900Y-55468D01*
X-193046Y-55437D01*
X-193212Y-55426D01*
X-193296D01*
X-193379Y-55447D01*
X-193493Y-55468D01*
X-193618Y-55510D01*
X-193754Y-55561D01*
X-193889Y-55645D01*
X-194014Y-55749D01*
X-194025Y-55759D01*
X-194066Y-55801D01*
X-194118Y-55874D01*
X-194181Y-55968D01*
X-194243Y-56093D01*
X-194306Y-56238D01*
X-194358Y-56416D01*
X-194389Y-56603D01*
X-196014Y-56322D01*
Y-56311D01*
X-196003Y-56270D01*
X-195982Y-56207D01*
X-195962Y-56134D01*
X-195930Y-56041D01*
X-195899Y-55926D01*
X-195857Y-55801D01*
X-195805Y-55666D01*
X-195670Y-55384D01*
X-195503Y-55103D01*
X-195410Y-54957D01*
X-195295Y-54822D01*
X-195180Y-54697D01*
X-195045Y-54583D01*
X-195035Y-54572D01*
X-195014Y-54562D01*
X-194972Y-54531D01*
X-194910Y-54489D01*
X-194837Y-54447D01*
X-194754Y-54395D01*
X-194649Y-54343D01*
X-194535Y-54291D01*
X-194410Y-54239D01*
X-194264Y-54187D01*
X-194108Y-54135D01*
X-193941Y-54093D01*
X-193764Y-54051D01*
X-193577Y-54020D01*
X-193379Y-54010D01*
X-193171Y-53999D01*
X-193035D01*
X-192962Y-54010D01*
D02*
G37*
G36*
X-148172Y-62883D02*
X-150130D01*
X-150900Y-60883D01*
X-154337D01*
X-155066Y-62883D01*
X-156972D01*
X-153514Y-53999D01*
X-151744D01*
X-148172Y-62883D01*
D02*
G37*
G36*
X-186974D02*
X-188713D01*
Y-61143D01*
X-186974D01*
Y-62883D01*
D02*
G37*
G36*
X-183293Y-64826D02*
X-183158Y-64836D01*
X-183012Y-64847D01*
X-182845Y-64868D01*
X-182668Y-64899D01*
X-182481Y-64930D01*
X-182283Y-64972D01*
X-182075Y-65024D01*
X-181877Y-65097D01*
X-181668Y-65170D01*
X-181471Y-65253D01*
X-181283Y-65357D01*
X-181106Y-65472D01*
X-181096Y-65482D01*
X-181064Y-65503D01*
X-181023Y-65544D01*
X-180960Y-65596D01*
X-180877Y-65659D01*
X-180794Y-65742D01*
X-180700Y-65846D01*
X-180606Y-65961D01*
X-180502Y-66096D01*
X-180387Y-66242D01*
X-180283Y-66398D01*
X-180179Y-66575D01*
X-180075Y-66763D01*
X-179981Y-66971D01*
X-179898Y-67190D01*
X-179825Y-67429D01*
X-181616Y-67763D01*
Y-67752D01*
X-181627Y-67731D01*
X-181637Y-67700D01*
X-181658Y-67648D01*
X-181700Y-67523D01*
X-181772Y-67377D01*
X-181866Y-67211D01*
X-181981Y-67034D01*
X-182127Y-66867D01*
X-182293Y-66721D01*
X-182304D01*
X-182314Y-66700D01*
X-182345Y-66690D01*
X-182376Y-66659D01*
X-182491Y-66607D01*
X-182637Y-66534D01*
X-182814Y-66471D01*
X-183022Y-66409D01*
X-183272Y-66367D01*
X-183543Y-66357D01*
X-183657D01*
X-183730Y-66367D01*
X-183834Y-66378D01*
X-183939Y-66398D01*
X-184064Y-66419D01*
X-184199Y-66450D01*
X-184345Y-66492D01*
X-184491Y-66544D01*
X-184647Y-66596D01*
X-184803Y-66669D01*
X-184949Y-66763D01*
X-185095Y-66857D01*
X-185230Y-66971D01*
X-185365Y-67106D01*
X-185376Y-67117D01*
X-185397Y-67138D01*
X-185428Y-67179D01*
X-185469Y-67242D01*
X-185522Y-67325D01*
X-185574Y-67419D01*
X-185636Y-67533D01*
X-185688Y-67658D01*
X-185751Y-67804D01*
X-185813Y-67971D01*
X-185865Y-68148D01*
X-185917Y-68346D01*
X-185959Y-68565D01*
X-185990Y-68794D01*
X-186011Y-69043D01*
X-186021Y-69314D01*
Y-69325D01*
Y-69356D01*
Y-69408D01*
Y-69481D01*
X-186011Y-69564D01*
Y-69658D01*
X-186001Y-69773D01*
X-185990Y-69887D01*
X-185949Y-70158D01*
X-185907Y-70439D01*
X-185834Y-70720D01*
X-185740Y-71001D01*
Y-71012D01*
X-185730Y-71033D01*
X-185709Y-71064D01*
X-185688Y-71116D01*
X-185657Y-71178D01*
X-185615Y-71241D01*
X-185522Y-71407D01*
X-185407Y-71574D01*
X-185261Y-71762D01*
X-185095Y-71939D01*
X-184897Y-72095D01*
X-184886D01*
X-184876Y-72116D01*
X-184845Y-72126D01*
X-184803Y-72157D01*
X-184741Y-72178D01*
X-184678Y-72209D01*
X-184522Y-72282D01*
X-184324Y-72355D01*
X-184105Y-72407D01*
X-183845Y-72449D01*
X-183564Y-72470D01*
X-183470D01*
X-183355Y-72459D01*
X-183210Y-72449D01*
X-183043Y-72428D01*
X-182856Y-72397D01*
X-182658Y-72355D01*
X-182449Y-72303D01*
X-182439D01*
X-182429Y-72293D01*
X-182397Y-72282D01*
X-182356Y-72272D01*
X-182252Y-72230D01*
X-182127Y-72178D01*
X-181970Y-72105D01*
X-181814Y-72022D01*
X-181658Y-71918D01*
X-181502Y-71803D01*
Y-70595D01*
X-183574D01*
Y-69085D01*
X-179721D01*
Y-72626D01*
X-179742Y-72647D01*
X-179794Y-72688D01*
X-179877Y-72761D01*
X-180002Y-72855D01*
X-180148Y-72970D01*
X-180325Y-73084D01*
X-180523Y-73209D01*
X-180742Y-73334D01*
X-180752D01*
X-180773Y-73344D01*
X-180804Y-73365D01*
X-180846Y-73386D01*
X-180908Y-73407D01*
X-180971Y-73438D01*
X-181137Y-73511D01*
X-181335Y-73594D01*
X-181564Y-73667D01*
X-181814Y-73751D01*
X-182085Y-73823D01*
X-182095D01*
X-182116Y-73834D01*
X-182158Y-73844D01*
X-182210Y-73855D01*
X-182272Y-73865D01*
X-182356Y-73876D01*
X-182439Y-73896D01*
X-182543Y-73907D01*
X-182762Y-73948D01*
X-183012Y-73969D01*
X-183283Y-73990D01*
X-183553Y-74001D01*
X-183689D01*
X-183782Y-73990D01*
X-183897Y-73980D01*
X-184032Y-73969D01*
X-184189Y-73948D01*
X-184355Y-73928D01*
X-184532Y-73896D01*
X-184720Y-73865D01*
X-185115Y-73761D01*
X-185313Y-73688D01*
X-185511Y-73615D01*
X-185699Y-73532D01*
X-185886Y-73428D01*
X-185896Y-73417D01*
X-185928Y-73397D01*
X-185980Y-73365D01*
X-186042Y-73324D01*
X-186126Y-73261D01*
X-186219Y-73188D01*
X-186323Y-73105D01*
X-186438Y-73001D01*
X-186553Y-72897D01*
X-186677Y-72772D01*
X-186792Y-72636D01*
X-186917Y-72501D01*
X-187042Y-72334D01*
X-187157Y-72168D01*
X-187261Y-71991D01*
X-187365Y-71803D01*
X-187375Y-71793D01*
X-187386Y-71751D01*
X-187407Y-71699D01*
X-187438Y-71616D01*
X-187479Y-71522D01*
X-187521Y-71397D01*
X-187563Y-71262D01*
X-187615Y-71105D01*
X-187656Y-70939D01*
X-187708Y-70751D01*
X-187750Y-70553D01*
X-187781Y-70345D01*
X-187823Y-70116D01*
X-187844Y-69887D01*
X-187854Y-69637D01*
X-187865Y-69387D01*
Y-69366D01*
Y-69325D01*
Y-69252D01*
X-187854Y-69158D01*
X-187844Y-69033D01*
X-187833Y-68898D01*
X-187823Y-68741D01*
X-187802Y-68575D01*
X-187771Y-68387D01*
X-187740Y-68200D01*
X-187636Y-67794D01*
X-187584Y-67586D01*
X-187511Y-67377D01*
X-187427Y-67179D01*
X-187334Y-66982D01*
X-187323Y-66971D01*
X-187313Y-66940D01*
X-187281Y-66877D01*
X-187229Y-66815D01*
X-187177Y-66721D01*
X-187115Y-66627D01*
X-187032Y-66513D01*
X-186938Y-66398D01*
X-186834Y-66273D01*
X-186719Y-66138D01*
X-186594Y-66003D01*
X-186459Y-65878D01*
X-186313Y-65742D01*
X-186157Y-65617D01*
X-185990Y-65503D01*
X-185813Y-65388D01*
X-185803Y-65378D01*
X-185772Y-65367D01*
X-185709Y-65336D01*
X-185636Y-65294D01*
X-185542Y-65253D01*
X-185428Y-65211D01*
X-185303Y-65159D01*
X-185157Y-65097D01*
X-185001Y-65044D01*
X-184824Y-64992D01*
X-184636Y-64951D01*
X-184438Y-64909D01*
X-184230Y-64868D01*
X-184011Y-64836D01*
X-183782Y-64826D01*
X-183543Y-64815D01*
X-183397D01*
X-183293Y-64826D01*
D02*
G37*
G36*
X-146115Y-73844D02*
X-147896D01*
Y-64961D01*
X-146115D01*
Y-73844D01*
D02*
G37*
G36*
X-156227Y-72345D02*
X-152259D01*
Y-73844D01*
X-158008D01*
Y-64961D01*
X-156227D01*
Y-72345D01*
D02*
G37*
G36*
X-158966Y-73844D02*
X-160924D01*
X-161694Y-71845D01*
X-165131D01*
X-165860Y-73844D01*
X-167766D01*
X-164308Y-64961D01*
X-162538D01*
X-158966Y-73844D01*
D02*
G37*
G36*
X-168088Y-66471D02*
X-170661D01*
Y-73844D01*
X-172442D01*
Y-66471D01*
X-175014D01*
Y-64961D01*
X-168088D01*
Y-66471D01*
D02*
G37*
G36*
X-176253Y-73844D02*
X-178034D01*
Y-64961D01*
X-176253D01*
Y-73844D01*
D02*
G37*
G36*
X-189333D02*
X-191114D01*
Y-64961D01*
X-189333D01*
Y-73844D01*
D02*
G37*
G36*
X-196373Y-64972D02*
X-196279Y-64982D01*
X-196175Y-64992D01*
X-196050Y-65013D01*
X-195925Y-65034D01*
X-195779Y-65065D01*
X-195623Y-65097D01*
X-195290Y-65201D01*
X-195113Y-65263D01*
X-194936Y-65336D01*
X-194748Y-65430D01*
X-194561Y-65524D01*
X-194384Y-65638D01*
X-194196Y-65763D01*
X-194019Y-65909D01*
X-193842Y-66065D01*
X-193676Y-66232D01*
X-193509Y-66430D01*
X-193353Y-66638D01*
X-193207Y-66867D01*
X-193072Y-67106D01*
X-192957Y-67377D01*
X-192853Y-67669D01*
X-192759Y-67981D01*
X-192686Y-68314D01*
X-192634Y-68679D01*
X-192603Y-69064D01*
X-192593Y-69471D01*
Y-69481D01*
Y-69491D01*
Y-69523D01*
Y-69564D01*
X-192603Y-69668D01*
Y-69804D01*
X-192624Y-69981D01*
X-192645Y-70179D01*
X-192676Y-70397D01*
X-192718Y-70637D01*
X-192770Y-70887D01*
X-192832Y-71147D01*
X-192905Y-71418D01*
X-192999Y-71689D01*
X-193113Y-71949D01*
X-193238Y-72209D01*
X-193395Y-72449D01*
X-193561Y-72678D01*
X-193572Y-72688D01*
X-193603Y-72730D01*
X-193665Y-72782D01*
X-193749Y-72855D01*
X-193842Y-72949D01*
X-193978Y-73042D01*
X-194123Y-73157D01*
X-194301Y-73261D01*
X-194498Y-73365D01*
X-194717Y-73480D01*
X-194967Y-73574D01*
X-195238Y-73657D01*
X-195529Y-73740D01*
X-195852Y-73792D01*
X-196196Y-73834D01*
X-196560Y-73844D01*
X-200018D01*
Y-64961D01*
X-196446D01*
X-196373Y-64972D01*
D02*
G37*
G36*
X-140106Y-64826D02*
X-139992Y-64836D01*
X-139856Y-64847D01*
X-139700Y-64868D01*
X-139544Y-64888D01*
X-139367Y-64920D01*
X-139179Y-64951D01*
X-138794Y-65055D01*
X-138596Y-65117D01*
X-138398Y-65201D01*
X-138211Y-65284D01*
X-138023Y-65388D01*
X-138013Y-65399D01*
X-137982Y-65419D01*
X-137930Y-65451D01*
X-137857Y-65492D01*
X-137784Y-65555D01*
X-137690Y-65628D01*
X-137576Y-65711D01*
X-137471Y-65805D01*
X-137346Y-65909D01*
X-137221Y-66034D01*
X-137096Y-66169D01*
X-136972Y-66315D01*
X-136847Y-66471D01*
X-136732Y-66638D01*
X-136617Y-66815D01*
X-136513Y-67002D01*
X-136503Y-67013D01*
X-136492Y-67054D01*
X-136461Y-67106D01*
X-136430Y-67190D01*
X-136388Y-67284D01*
X-136347Y-67408D01*
X-136295Y-67544D01*
X-136243Y-67700D01*
X-136201Y-67867D01*
X-136149Y-68054D01*
X-136107Y-68252D01*
X-136066Y-68460D01*
X-136034Y-68689D01*
X-136003Y-68929D01*
X-135993Y-69169D01*
X-135982Y-69429D01*
Y-69439D01*
Y-69491D01*
Y-69564D01*
X-135993Y-69658D01*
Y-69773D01*
X-136013Y-69908D01*
X-136024Y-70064D01*
X-136045Y-70231D01*
X-136076Y-70408D01*
X-136107Y-70606D01*
X-136201Y-71001D01*
X-136263Y-71210D01*
X-136326Y-71407D01*
X-136409Y-71616D01*
X-136503Y-71814D01*
X-136513Y-71824D01*
X-136524Y-71855D01*
X-136555Y-71907D01*
X-136597Y-71980D01*
X-136649Y-72074D01*
X-136721Y-72168D01*
X-136794Y-72282D01*
X-136888Y-72397D01*
X-136982Y-72532D01*
X-137096Y-72657D01*
X-137221Y-72793D01*
X-137357Y-72928D01*
X-137503Y-73063D01*
X-137659Y-73188D01*
X-137825Y-73313D01*
X-138003Y-73428D01*
X-138013Y-73438D01*
X-138044Y-73449D01*
X-138096Y-73480D01*
X-138169Y-73521D01*
X-138263Y-73563D01*
X-138377Y-73605D01*
X-138502Y-73657D01*
X-138648Y-73709D01*
X-138815Y-73772D01*
X-138992Y-73823D01*
X-139179Y-73865D01*
X-139377Y-73907D01*
X-139596Y-73948D01*
X-139815Y-73980D01*
X-140054Y-73990D01*
X-140294Y-74001D01*
X-140419D01*
X-140512Y-73990D01*
X-140627Y-73980D01*
X-140762Y-73969D01*
X-140918Y-73948D01*
X-141075Y-73928D01*
X-141252Y-73896D01*
X-141439Y-73865D01*
X-141824Y-73761D01*
X-142022Y-73699D01*
X-142220Y-73626D01*
X-142418Y-73532D01*
X-142605Y-73438D01*
X-142616Y-73428D01*
X-142647Y-73407D01*
X-142699Y-73376D01*
X-142772Y-73334D01*
X-142855Y-73272D01*
X-142949Y-73199D01*
X-143053Y-73115D01*
X-143168Y-73022D01*
X-143282Y-72917D01*
X-143407Y-72793D01*
X-143543Y-72668D01*
X-143668Y-72522D01*
X-143793Y-72366D01*
X-143907Y-72199D01*
X-144022Y-72022D01*
X-144126Y-71835D01*
X-144136Y-71824D01*
X-144147Y-71782D01*
X-144178Y-71730D01*
X-144209Y-71647D01*
X-144251Y-71553D01*
X-144292Y-71439D01*
X-144334Y-71303D01*
X-144386Y-71147D01*
X-144438Y-70981D01*
X-144480Y-70793D01*
X-144522Y-70606D01*
X-144563Y-70397D01*
X-144594Y-70179D01*
X-144626Y-69949D01*
X-144636Y-69710D01*
X-144647Y-69460D01*
Y-69439D01*
Y-69398D01*
Y-69325D01*
X-144636Y-69220D01*
X-144626Y-69106D01*
X-144615Y-68960D01*
X-144605Y-68804D01*
X-144584Y-68627D01*
X-144553Y-68439D01*
X-144522Y-68242D01*
X-144428Y-67835D01*
X-144365Y-67627D01*
X-144292Y-67419D01*
X-144220Y-67211D01*
X-144126Y-67013D01*
X-144115Y-67002D01*
X-144105Y-66971D01*
X-144074Y-66909D01*
X-144032Y-66836D01*
X-143970Y-66752D01*
X-143907Y-66648D01*
X-143824Y-66534D01*
X-143741Y-66419D01*
X-143636Y-66284D01*
X-143522Y-66148D01*
X-143397Y-66023D01*
X-143261Y-65888D01*
X-143116Y-65753D01*
X-142959Y-65617D01*
X-142793Y-65503D01*
X-142616Y-65388D01*
X-142605Y-65378D01*
X-142574Y-65367D01*
X-142512Y-65336D01*
X-142439Y-65294D01*
X-142345Y-65253D01*
X-142231Y-65211D01*
X-142106Y-65159D01*
X-141960Y-65097D01*
X-141793Y-65044D01*
X-141627Y-64992D01*
X-141429Y-64951D01*
X-141231Y-64909D01*
X-141023Y-64868D01*
X-140793Y-64836D01*
X-140564Y-64826D01*
X-140325Y-64815D01*
X-140200D01*
X-140106Y-64826D01*
D02*
G37*
%LPC*%
G36*
X-168051Y-37555D02*
X-168543D01*
Y-37637D01*
X-168953D01*
Y-37719D01*
X-169199D01*
Y-37801D01*
X-169363D01*
Y-37883D01*
X-169527D01*
Y-37965D01*
X-169691D01*
Y-38047D01*
X-169773D01*
Y-38129D01*
X-169855D01*
Y-38211D01*
X-170019D01*
Y-38293D01*
X-170102D01*
Y-38457D01*
X-170184D01*
Y-38539D01*
X-170266D01*
Y-38621D01*
X-170348D01*
Y-38785D01*
X-170430D01*
Y-38867D01*
X-170512D01*
Y-39031D01*
X-170594D01*
Y-39277D01*
X-170676D01*
Y-39606D01*
X-170758D01*
Y-40426D01*
X-170676D01*
Y-40754D01*
X-170594D01*
Y-41000D01*
X-170512D01*
Y-41164D01*
X-170430D01*
Y-41328D01*
X-170348D01*
Y-41410D01*
X-170266D01*
Y-41574D01*
X-170184D01*
Y-41656D01*
X-170102D01*
Y-41738D01*
X-170019D01*
Y-41820D01*
X-169937D01*
Y-41902D01*
X-169855D01*
Y-41984D01*
X-169773D01*
Y-42066D01*
X-169609D01*
Y-42148D01*
X-169445D01*
Y-42231D01*
X-169281D01*
Y-42312D01*
X-169117D01*
Y-42395D01*
X-168789D01*
Y-42477D01*
X-167805D01*
Y-42395D01*
X-167477D01*
Y-42312D01*
X-167313D01*
Y-42231D01*
X-167148D01*
Y-42148D01*
X-166984D01*
Y-42066D01*
X-166820D01*
Y-41984D01*
X-166738D01*
Y-41902D01*
X-166656D01*
Y-41820D01*
X-166574D01*
Y-41738D01*
X-166492D01*
Y-41656D01*
X-166410D01*
Y-41574D01*
X-166328D01*
Y-41410D01*
X-166246D01*
Y-41328D01*
X-166164D01*
Y-41164D01*
X-166082D01*
Y-41000D01*
X-166000D01*
Y-40754D01*
X-165918D01*
Y-40508D01*
Y-40426D01*
X-165836D01*
Y-39606D01*
X-165918D01*
Y-39277D01*
X-166000D01*
Y-39031D01*
X-166082D01*
Y-38867D01*
X-166164D01*
Y-38785D01*
X-166246D01*
Y-38621D01*
X-166328D01*
Y-38539D01*
X-166410D01*
Y-38457D01*
X-166492D01*
Y-38293D01*
X-166574D01*
Y-38211D01*
X-166738D01*
Y-38129D01*
X-166820D01*
Y-38047D01*
X-166902D01*
Y-37965D01*
X-167066D01*
Y-37883D01*
X-167230D01*
Y-37801D01*
X-167395D01*
Y-37719D01*
X-167641D01*
Y-37637D01*
X-168051D01*
Y-37555D01*
D02*
G37*
G36*
Y-17867D02*
X-168543D01*
Y-17949D01*
X-168953D01*
Y-18031D01*
X-169199D01*
Y-18113D01*
X-169363D01*
Y-18195D01*
X-169527D01*
Y-18277D01*
X-169691D01*
Y-18359D01*
X-169773D01*
Y-18441D01*
X-169855D01*
Y-18523D01*
X-170019D01*
Y-18606D01*
X-170102D01*
Y-18770D01*
X-170184D01*
Y-18852D01*
X-170266D01*
Y-18934D01*
X-170348D01*
Y-19098D01*
X-170430D01*
Y-19180D01*
X-170512D01*
Y-19344D01*
X-170594D01*
Y-19590D01*
X-170676D01*
Y-19918D01*
X-170758D01*
Y-33043D01*
X-170676D01*
Y-33371D01*
X-170594D01*
Y-33617D01*
X-170512D01*
Y-33781D01*
X-170430D01*
Y-33945D01*
X-170348D01*
Y-34027D01*
X-170266D01*
Y-34191D01*
X-170184D01*
Y-34274D01*
X-170102D01*
Y-34355D01*
X-170019D01*
Y-34437D01*
X-169937D01*
Y-34520D01*
X-169855D01*
Y-34602D01*
X-169773D01*
Y-34684D01*
X-169609D01*
Y-34766D01*
X-169445D01*
Y-34848D01*
X-169281D01*
Y-34930D01*
X-169117D01*
Y-35012D01*
X-168789D01*
Y-35094D01*
X-167805D01*
Y-35012D01*
X-167477D01*
Y-34930D01*
X-167313D01*
Y-34848D01*
X-167148D01*
Y-34766D01*
X-166984D01*
Y-34684D01*
X-166820D01*
Y-34602D01*
X-166738D01*
Y-34520D01*
X-166656D01*
Y-34437D01*
X-166574D01*
Y-34355D01*
X-166492D01*
Y-34274D01*
X-166410D01*
Y-34191D01*
X-166328D01*
Y-34027D01*
X-166246D01*
Y-33945D01*
X-166164D01*
Y-33781D01*
X-166082D01*
Y-33617D01*
X-166000D01*
Y-33371D01*
X-165918D01*
Y-33043D01*
X-165836D01*
Y-19918D01*
X-165918D01*
Y-19590D01*
X-166000D01*
Y-19344D01*
X-166082D01*
Y-19180D01*
X-166164D01*
Y-19098D01*
X-166246D01*
Y-18934D01*
X-166328D01*
Y-18852D01*
X-166410D01*
Y-18770D01*
X-166492D01*
Y-18606D01*
X-166574D01*
Y-18523D01*
X-166738D01*
Y-18441D01*
X-166820D01*
Y-18359D01*
X-166902D01*
Y-18277D01*
X-167066D01*
Y-18195D01*
X-167230D01*
Y-18113D01*
X-167395D01*
Y-18031D01*
X-167641D01*
Y-17949D01*
X-168051D01*
Y-17867D01*
D02*
G37*
G36*
X32771Y-133378D02*
X25686D01*
X25657Y-133407D01*
Y-133421D01*
X25642Y-133479D01*
Y-140478D01*
Y-140492D01*
Y-140507D01*
X25657Y-140565D01*
X25686Y-140580D01*
X32786D01*
X32815Y-140565D01*
X32830Y-140536D01*
X32844Y-140521D01*
X32830Y-140478D01*
Y-133479D01*
Y-133465D01*
X32844Y-133450D01*
X32830Y-133436D01*
X32815Y-133407D01*
X32801Y-133392D01*
X32771Y-133378D01*
D02*
G37*
G36*
X3452Y-135681D02*
X-1505D01*
X-1549Y-135710D01*
X-1564Y-135725D01*
X-1578Y-135739D01*
Y-135783D01*
Y-140536D01*
Y-140565D01*
X-1549Y-140609D01*
X-1534D01*
X-1476Y-140624D01*
X3467D01*
X3481Y-140609D01*
X3496Y-140594D01*
X3510Y-140536D01*
Y-135783D01*
Y-135768D01*
Y-135754D01*
X3496Y-135725D01*
X3481Y-135710D01*
X3467Y-135696D01*
X3452Y-135681D01*
D02*
G37*
G36*
X-8168D02*
X-13125D01*
X-13169Y-135710D01*
X-13183Y-135725D01*
X-13198Y-135739D01*
Y-135783D01*
Y-140536D01*
Y-140565D01*
X-13169Y-140609D01*
X-13154D01*
X-13096Y-140624D01*
X-8153D01*
X-8139Y-140609D01*
X-8124Y-140594D01*
X-8110Y-140536D01*
Y-135783D01*
Y-135768D01*
Y-135754D01*
X-8124Y-135725D01*
X-8139Y-135710D01*
X-8153Y-135696D01*
X-8168Y-135681D01*
D02*
G37*
G36*
X-19336D02*
X-24293D01*
X-24337Y-135710D01*
X-24351Y-135725D01*
X-24366Y-135739D01*
Y-135783D01*
Y-140536D01*
Y-140565D01*
X-24337Y-140609D01*
X-24322D01*
X-24264Y-140624D01*
X-19321D01*
X-19307Y-140609D01*
X-19292Y-140594D01*
X-19278Y-140536D01*
Y-135783D01*
Y-135768D01*
Y-135754D01*
X-19292Y-135725D01*
X-19307Y-135710D01*
X-19321Y-135696D01*
X-19336Y-135681D01*
D02*
G37*
G36*
X-30475D02*
X-35432D01*
X-35476Y-135710D01*
X-35490Y-135725D01*
X-35505Y-135739D01*
Y-135783D01*
Y-140536D01*
Y-140565D01*
X-35476Y-140609D01*
X-35461D01*
X-35403Y-140624D01*
X-30460D01*
X-30446Y-140609D01*
X-30431Y-140594D01*
X-30417Y-140536D01*
Y-135783D01*
Y-135768D01*
Y-135754D01*
X-30431Y-135725D01*
X-30446Y-135710D01*
X-30460Y-135696D01*
X-30475Y-135681D01*
D02*
G37*
G36*
X-152629Y-55916D02*
X-152681D01*
Y-55926D01*
Y-55947D01*
X-152691Y-55988D01*
X-152702Y-56041D01*
X-152712Y-56103D01*
X-152733Y-56186D01*
X-152744Y-56270D01*
X-152764Y-56374D01*
X-152816Y-56592D01*
X-152879Y-56842D01*
X-152962Y-57103D01*
X-153056Y-57374D01*
X-153785Y-59373D01*
X-151473D01*
X-152223Y-57374D01*
X-152233Y-57353D01*
X-152244Y-57301D01*
X-152275Y-57228D01*
X-152306Y-57124D01*
X-152348Y-56999D01*
X-152389Y-56863D01*
X-152483Y-56572D01*
Y-56551D01*
X-152504Y-56499D01*
X-152525Y-56426D01*
X-152546Y-56332D01*
X-152566Y-56228D01*
X-152598Y-56124D01*
X-152619Y-56020D01*
X-152629Y-55916D01*
D02*
G37*
G36*
X-163423Y-66877D02*
X-163475D01*
Y-66888D01*
Y-66909D01*
X-163486Y-66950D01*
X-163496Y-67002D01*
X-163506Y-67065D01*
X-163527Y-67148D01*
X-163538Y-67231D01*
X-163558Y-67336D01*
X-163610Y-67554D01*
X-163673Y-67804D01*
X-163756Y-68065D01*
X-163850Y-68335D01*
X-164579Y-70335D01*
X-162267D01*
X-163017Y-68335D01*
X-163027Y-68314D01*
X-163038Y-68262D01*
X-163069Y-68190D01*
X-163100Y-68085D01*
X-163142Y-67960D01*
X-163183Y-67825D01*
X-163277Y-67533D01*
Y-67513D01*
X-163298Y-67461D01*
X-163319Y-67388D01*
X-163340Y-67294D01*
X-163361Y-67190D01*
X-163392Y-67086D01*
X-163413Y-66982D01*
X-163423Y-66877D01*
D02*
G37*
G36*
X-196831Y-66471D02*
X-198237D01*
Y-72345D01*
X-196654D01*
X-196581Y-72334D01*
X-196488D01*
X-196290Y-72313D01*
X-196071Y-72282D01*
X-195842Y-72230D01*
X-195613Y-72168D01*
X-195404Y-72074D01*
X-195394D01*
X-195384Y-72064D01*
X-195321Y-72022D01*
X-195227Y-71949D01*
X-195123Y-71855D01*
X-194998Y-71730D01*
X-194873Y-71574D01*
X-194759Y-71387D01*
X-194665Y-71168D01*
Y-71157D01*
X-194655Y-71137D01*
X-194644Y-71105D01*
X-194634Y-71053D01*
X-194613Y-70991D01*
X-194592Y-70908D01*
X-194571Y-70814D01*
X-194550Y-70710D01*
X-194530Y-70595D01*
X-194509Y-70460D01*
X-194488Y-70314D01*
X-194467Y-70158D01*
X-194457Y-69991D01*
X-194446Y-69814D01*
X-194436Y-69616D01*
Y-69418D01*
Y-69408D01*
Y-69366D01*
Y-69314D01*
Y-69241D01*
X-194446Y-69148D01*
Y-69033D01*
X-194457Y-68918D01*
X-194467Y-68794D01*
X-194498Y-68512D01*
X-194540Y-68221D01*
X-194603Y-67940D01*
X-194644Y-67804D01*
X-194686Y-67679D01*
Y-67669D01*
X-194696Y-67648D01*
X-194717Y-67617D01*
X-194727Y-67575D01*
X-194790Y-67461D01*
X-194873Y-67325D01*
X-194988Y-67169D01*
X-195113Y-67013D01*
X-195269Y-66877D01*
X-195457Y-66752D01*
X-195467D01*
X-195477Y-66742D01*
X-195509Y-66721D01*
X-195550Y-66711D01*
X-195602Y-66690D01*
X-195665Y-66659D01*
X-195738Y-66638D01*
X-195821Y-66607D01*
X-196019Y-66565D01*
X-196248Y-66513D01*
X-196519Y-66482D01*
X-196831Y-66471D01*
D02*
G37*
G36*
X-140325Y-66357D02*
X-140398D01*
X-140450Y-66367D01*
X-140523D01*
X-140596Y-66378D01*
X-140773Y-66409D01*
X-140981Y-66450D01*
X-141200Y-66523D01*
X-141429Y-66617D01*
X-141647Y-66752D01*
X-141658D01*
X-141668Y-66773D01*
X-141699Y-66794D01*
X-141741Y-66825D01*
X-141845Y-66909D01*
X-141970Y-67034D01*
X-142106Y-67190D01*
X-142251Y-67367D01*
X-142387Y-67586D01*
X-142512Y-67835D01*
Y-67846D01*
X-142522Y-67867D01*
X-142543Y-67908D01*
X-142553Y-67960D01*
X-142574Y-68023D01*
X-142605Y-68096D01*
X-142626Y-68190D01*
X-142657Y-68294D01*
X-142710Y-68523D01*
X-142762Y-68794D01*
X-142793Y-69085D01*
X-142803Y-69408D01*
Y-69418D01*
Y-69450D01*
Y-69491D01*
Y-69554D01*
X-142793Y-69637D01*
X-142782Y-69731D01*
Y-69835D01*
X-142762Y-69939D01*
X-142730Y-70189D01*
X-142678Y-70460D01*
X-142605Y-70731D01*
X-142512Y-71001D01*
Y-71012D01*
X-142501Y-71033D01*
X-142480Y-71064D01*
X-142460Y-71116D01*
X-142387Y-71241D01*
X-142293Y-71397D01*
X-142178Y-71564D01*
X-142033Y-71751D01*
X-141856Y-71928D01*
X-141658Y-72084D01*
X-141647D01*
X-141627Y-72105D01*
X-141595Y-72116D01*
X-141554Y-72147D01*
X-141502Y-72178D01*
X-141439Y-72209D01*
X-141272Y-72272D01*
X-141075Y-72345D01*
X-140845Y-72407D01*
X-140585Y-72449D01*
X-140304Y-72470D01*
X-140231D01*
X-140179Y-72459D01*
X-140106D01*
X-140033Y-72449D01*
X-139856Y-72418D01*
X-139648Y-72376D01*
X-139429Y-72303D01*
X-139200Y-72209D01*
X-138981Y-72084D01*
X-138971D01*
X-138961Y-72064D01*
X-138929Y-72043D01*
X-138888Y-72011D01*
X-138784Y-71918D01*
X-138659Y-71803D01*
X-138523Y-71647D01*
X-138388Y-71459D01*
X-138252Y-71241D01*
X-138127Y-70991D01*
Y-70981D01*
X-138117Y-70960D01*
X-138096Y-70918D01*
X-138075Y-70866D01*
X-138055Y-70803D01*
X-138034Y-70720D01*
X-138003Y-70626D01*
X-137971Y-70533D01*
X-137950Y-70418D01*
X-137919Y-70293D01*
X-137867Y-70022D01*
X-137836Y-69720D01*
X-137825Y-69387D01*
Y-69377D01*
Y-69345D01*
Y-69304D01*
Y-69241D01*
X-137836Y-69158D01*
Y-69075D01*
X-137846Y-68971D01*
X-137867Y-68867D01*
X-137898Y-68616D01*
X-137950Y-68356D01*
X-138023Y-68085D01*
X-138127Y-67825D01*
Y-67815D01*
X-138138Y-67794D01*
X-138159Y-67763D01*
X-138180Y-67710D01*
X-138252Y-67586D01*
X-138346Y-67429D01*
X-138461Y-67263D01*
X-138607Y-67086D01*
X-138784Y-66909D01*
X-138981Y-66752D01*
X-138992D01*
X-139002Y-66732D01*
X-139033Y-66711D01*
X-139086Y-66690D01*
X-139138Y-66659D01*
X-139200Y-66627D01*
X-139356Y-66555D01*
X-139554Y-66482D01*
X-139783Y-66419D01*
X-140044Y-66378D01*
X-140325Y-66357D01*
D02*
G37*
%LPD*%
D10*
X-16501Y-90300D02*
G03*
X-16501Y-90300I-1000J0D01*
G01*
X172700Y-132700D02*
Y-81900D01*
X96500Y-132700D02*
Y-81900D01*
X172700D01*
X96500Y-132700D02*
X172700D01*
X124017D02*
X172700D01*
X-38100Y-98300D02*
X38100D01*
X-38100Y-123700D02*
Y-98300D01*
Y-123700D02*
X38100D01*
Y-98300D01*
X-96500Y-132700D02*
Y-81900D01*
X-172700Y-132700D02*
Y-81900D01*
X-96500D01*
X-172700Y-132700D02*
X-96500D01*
X-145183D02*
X-96500D01*
D11*
X-24001Y-52500D02*
X23999D01*
X-30001Y-84000D02*
Y-65000D01*
Y-84000D02*
X-21501D01*
X29999D02*
Y-65000D01*
X21499Y-84000D02*
X29999D01*
D12*
X210000Y-134000D02*
Y-126000D01*
X209000Y-127000D02*
X211000D01*
X208000Y-128000D02*
X212000D01*
X207000Y-129000D02*
X213000D01*
X206000Y-130000D02*
X214000D01*
X205000Y-131000D02*
X215000D01*
X204000Y-132000D02*
X216000D01*
X203000Y-133000D02*
X217000D01*
X206000Y-134000D02*
X214000D01*
X206000Y-135000D02*
X214000D01*
X206000Y-136000D02*
X214000D01*
X206000Y-138000D02*
X214000D01*
X206000Y-140000D02*
X214000D01*
X206000Y-139000D02*
X214000D01*
X206000Y-141000D02*
X214000D01*
X206000Y-142000D02*
X214000D01*
X206000Y-143000D02*
X214000D01*
Y-134000D02*
X219000D01*
X210000Y-125000D02*
X219000Y-134000D01*
X201000D02*
X210000Y-125000D01*
X201000Y-134000D02*
X206000D01*
X210000Y-125000D02*
Y-125000D01*
X206000Y-144000D02*
Y-134000D01*
X210000Y-125000D02*
Y-125000D01*
X214000Y-144000D02*
Y-134000D01*
X206000Y-144000D02*
X214000D01*
X206000Y-137000D02*
X214000D01*
X-214000D02*
X-206000D01*
X-214000Y-144000D02*
X-206000D01*
X-214000D02*
Y-134000D01*
X-210000Y-125000D02*
Y-125000D01*
X-206000Y-144000D02*
Y-134000D01*
X-210000Y-125000D02*
Y-125000D01*
X-206000Y-134000D02*
X-201000D01*
X-210000Y-125000D02*
X-201000Y-134000D01*
X-219000D02*
X-210000Y-125000D01*
X-219000Y-134000D02*
X-214000D01*
Y-143000D02*
X-206000D01*
X-214000Y-142000D02*
X-206000D01*
X-214000Y-141000D02*
X-206000D01*
X-214000Y-139000D02*
X-206000D01*
X-214000Y-140000D02*
X-206000D01*
X-214000Y-138000D02*
X-206000D01*
X-214000Y-136000D02*
X-206000D01*
X-214000Y-135000D02*
X-206000D01*
X-214000Y-134000D02*
X-206000D01*
X-217000Y-133000D02*
X-203000D01*
X-216000Y-132000D02*
X-204000D01*
X-215000Y-131000D02*
X-205000D01*
X-214000Y-130000D02*
X-206000D01*
X-213000Y-129000D02*
X-207000D01*
X-212000Y-128000D02*
X-208000D01*
X-211000Y-127000D02*
X-209000D01*
X-210000Y-134000D02*
Y-126000D01*
X82503Y-88999D02*
Y-83001D01*
X85502D01*
X86502Y-84001D01*
Y-86000D01*
X85502Y-87000D01*
X82503D01*
X88501Y-84001D02*
X89501Y-83001D01*
X91500D01*
X92500Y-84001D01*
Y-85000D01*
X91500Y-86000D01*
X90501D01*
X91500D01*
X92500Y-87000D01*
Y-87999D01*
X91500Y-88999D01*
X89501D01*
X88501Y-87999D01*
X-92598Y-88999D02*
Y-83001D01*
X-89599D01*
X-88600Y-84001D01*
Y-86000D01*
X-89599Y-87000D01*
X-92598D01*
X-82602Y-88999D02*
X-86600D01*
X-82602Y-85000D01*
Y-84001D01*
X-83601Y-83001D01*
X-85601D01*
X-86600Y-84001D01*
X42001Y-104999D02*
Y-99001D01*
X45000D01*
X46000Y-100001D01*
Y-102000D01*
X45000Y-103000D01*
X42001D01*
X47999Y-104999D02*
X49999D01*
X48999D01*
Y-99001D01*
X47999Y-100001D01*
D13*
X-1834Y-64501D02*
X-4500D01*
X-3167D01*
Y-71166D01*
X-4500Y-72499D01*
X-5832D01*
X-7165Y-71166D01*
X832Y-65834D02*
X2165Y-64501D01*
X4831D01*
X6164Y-65834D01*
Y-67167D01*
X4831Y-68500D01*
X3498D01*
X4831D01*
X6164Y-69833D01*
Y-71166D01*
X4831Y-72499D01*
X2165D01*
X832Y-71166D01*
M02*
