M48
;Layer_Color=9474304
;FILE_FORMAT=2:4
INCH,TZ
;TYPE=PLATED
T01F00S00C0.0118
T02F00S00C0.0276
T03F00S00C0.0354
%
T01
X7835Y-5591
X-7835
X-5748Y-394
X-1339Y-2283
X1339
X1004Y-3287
X3189Y-3110
T02
X-8268Y-4327
Y-3827
Y-3327
Y-2827
Y-2327
Y-1827
Y-1327
Y-827
X8268Y-831
Y-1331
Y-1831
Y-2331
Y-2831
Y-3331
Y-3831
Y-4331
T03
X-6299Y-4724
Y-3724
X-5299
Y-4724
X-4299
Y-3724
X-1000Y-4370
X0
X1000
X4299Y-4724
Y-3724
X5299
Y-4724
X6299
Y-3724
M30
