M48
;Layer_Color=9474304
;FILE_FORMAT=2:4
INCH,TZ
;TYPE=PLATED
T01F00S00C0.0118
T02F00S00C0.0244
T03F00S00C0.0354
T04F00S00C0.0433
T05F00S00C0.0807
%
T01
X-2480Y-3898
X-1496
X-512
X512
X1496
X2520
X3228Y-630
X3740
X4252
X4764
X5276
X5709
X-3228
X-3661
X-4173
X-4685
X-5197
X-5709
T02
X-5709Y-1102
X-5209
X-4709
X-4209
X-3709
X-3209
X3209
X3709
X4209
X4709
X5209
X5709
T03
X-2500Y-4409
X-1500
X-500
Y-3409
X500
X1500
X2500
Y-4409
X1500
X500
X-1500Y-3409
X-2500
T04
X-4803Y-5984
X4803
X6929
X-6929
X-8189Y-4370
Y-2244
X8189
Y-4370
T05
X-5866Y-5984
X-3740
X3740
X5866
X8189Y-5433
X-8189
Y-3307
Y-1181
X8189
Y-3307
M30
