G04*
G04 #@! TF.GenerationSoftware,Altium Limited,Altium Designer,25.8.1 (18)*
G04*
G04 Layer_Color=32896*
%FSLAX44Y44*%
%MOMM*%
G71*
G04*
G04 #@! TF.SameCoordinates,AEC5E859-BCC1-4B89-9571-4312C6F7A3D7*
G04*
G04*
G04 #@! TF.FilePolarity,Positive*
G04*
G01*
G75*
%ADD12C,0.1500*%
G36*
X-92175Y-40576D02*
X-93300Y-40743D01*
Y-40734D01*
X-93383Y-40642D01*
X-93466Y-40568D01*
X-93550Y-40493D01*
X-93633Y-40434D01*
X-93725Y-40384D01*
X-93808Y-40343D01*
X-93975Y-40284D01*
X-94124Y-40243D01*
X-94191Y-40234D01*
X-94241Y-40226D01*
X-94291Y-40218D01*
X-94349D01*
X-94524Y-40234D01*
X-94683Y-40268D01*
X-94816Y-40318D01*
X-94924Y-40376D01*
X-95008Y-40443D01*
X-95066Y-40493D01*
X-95107Y-40526D01*
X-95116Y-40543D01*
X-95208Y-40676D01*
X-95274Y-40826D01*
X-95316Y-40976D01*
X-95349Y-41134D01*
X-95366Y-41267D01*
X-95374Y-41326D01*
X-95382Y-41384D01*
Y-41426D01*
Y-41459D01*
Y-41476D01*
Y-41484D01*
X-95374Y-41634D01*
X-95366Y-41776D01*
X-95341Y-41909D01*
X-95324Y-42017D01*
X-95299Y-42101D01*
X-95274Y-42167D01*
X-95266Y-42209D01*
X-95258Y-42225D01*
X-95208Y-42334D01*
X-95149Y-42434D01*
X-95091Y-42517D01*
X-95033Y-42584D01*
X-94983Y-42642D01*
X-94941Y-42675D01*
X-94916Y-42700D01*
X-94908Y-42709D01*
X-94824Y-42759D01*
X-94733Y-42800D01*
X-94649Y-42825D01*
X-94566Y-42850D01*
X-94499Y-42859D01*
X-94441Y-42867D01*
X-94391D01*
X-94241Y-42859D01*
X-94116Y-42825D01*
X-94000Y-42784D01*
X-93899Y-42734D01*
X-93825Y-42692D01*
X-93766Y-42650D01*
X-93733Y-42617D01*
X-93716Y-42609D01*
X-93625Y-42500D01*
X-93550Y-42392D01*
X-93500Y-42267D01*
X-93458Y-42159D01*
X-93425Y-42059D01*
X-93408Y-41975D01*
X-93400Y-41942D01*
X-93391Y-41917D01*
Y-41909D01*
Y-41901D01*
X-92000Y-42034D01*
X-92042Y-42259D01*
X-92100Y-42459D01*
X-92167Y-42642D01*
X-92233Y-42792D01*
X-92292Y-42917D01*
X-92325Y-42967D01*
X-92350Y-43017D01*
X-92367Y-43050D01*
X-92383Y-43075D01*
X-92400Y-43084D01*
Y-43092D01*
X-92533Y-43250D01*
X-92667Y-43383D01*
X-92808Y-43500D01*
X-92941Y-43592D01*
X-93058Y-43667D01*
X-93150Y-43725D01*
X-93183Y-43742D01*
X-93208Y-43758D01*
X-93225Y-43767D01*
X-93233D01*
X-93425Y-43842D01*
X-93625Y-43900D01*
X-93816Y-43942D01*
X-93991Y-43967D01*
X-94149Y-43983D01*
X-94216Y-43992D01*
X-94266Y-44000D01*
X-94374D01*
X-94658Y-43983D01*
X-94908Y-43950D01*
X-95133Y-43892D01*
X-95232Y-43858D01*
X-95324Y-43825D01*
X-95407Y-43800D01*
X-95482Y-43767D01*
X-95549Y-43733D01*
X-95599Y-43708D01*
X-95641Y-43692D01*
X-95674Y-43675D01*
X-95691Y-43658D01*
X-95699D01*
X-95891Y-43517D01*
X-96057Y-43367D01*
X-96199Y-43217D01*
X-96316Y-43075D01*
X-96407Y-42942D01*
X-96440Y-42884D01*
X-96474Y-42834D01*
X-96499Y-42800D01*
X-96507Y-42767D01*
X-96524Y-42750D01*
Y-42742D01*
X-96615Y-42525D01*
X-96691Y-42300D01*
X-96740Y-42092D01*
X-96774Y-41901D01*
X-96782Y-41817D01*
X-96790Y-41734D01*
X-96799Y-41667D01*
X-96807Y-41609D01*
Y-41559D01*
Y-41526D01*
Y-41501D01*
Y-41492D01*
X-96799Y-41242D01*
X-96765Y-41017D01*
X-96724Y-40809D01*
X-96682Y-40634D01*
X-96657Y-40559D01*
X-96632Y-40484D01*
X-96607Y-40426D01*
X-96590Y-40376D01*
X-96574Y-40334D01*
X-96557Y-40309D01*
X-96549Y-40293D01*
Y-40284D01*
X-96449Y-40093D01*
X-96324Y-39926D01*
X-96207Y-39776D01*
X-96082Y-39660D01*
X-95974Y-39560D01*
X-95891Y-39493D01*
X-95857Y-39468D01*
X-95832Y-39451D01*
X-95816Y-39434D01*
X-95807D01*
X-95616Y-39334D01*
X-95424Y-39260D01*
X-95232Y-39201D01*
X-95049Y-39168D01*
X-94891Y-39143D01*
X-94824Y-39135D01*
X-94766D01*
X-94716Y-39126D01*
X-94649D01*
X-94458Y-39135D01*
X-94283Y-39160D01*
X-94116Y-39201D01*
X-93983Y-39243D01*
X-93875Y-39285D01*
X-93791Y-39326D01*
X-93758Y-39334D01*
X-93733Y-39351D01*
X-93725Y-39360D01*
X-93716D01*
X-93916Y-38143D01*
X-96490D01*
Y-36869D01*
X-92866D01*
X-92175Y-40576D01*
D02*
G37*
G36*
X135984Y-37102D02*
X136109Y-37310D01*
X136242Y-37502D01*
X136375Y-37652D01*
X136442Y-37727D01*
X136492Y-37785D01*
X136550Y-37835D01*
X136592Y-37877D01*
X136634Y-37910D01*
X136659Y-37935D01*
X136675Y-37943D01*
X136684Y-37952D01*
X136900Y-38101D01*
X137117Y-38243D01*
X137342Y-38368D01*
X137550Y-38476D01*
X137642Y-38518D01*
X137725Y-38560D01*
X137808Y-38593D01*
X137875Y-38626D01*
X137925Y-38643D01*
X137967Y-38660D01*
X137992Y-38676D01*
X138000D01*
Y-39901D01*
X137817Y-39843D01*
X137633Y-39784D01*
X137467Y-39709D01*
X137317Y-39643D01*
X137192Y-39585D01*
X137134Y-39560D01*
X137092Y-39534D01*
X137059Y-39518D01*
X137034Y-39501D01*
X137017Y-39493D01*
X137009D01*
X136834Y-39385D01*
X136667Y-39276D01*
X136517Y-39176D01*
X136392Y-39076D01*
X136292Y-38993D01*
X136217Y-38926D01*
X136167Y-38885D01*
X136151Y-38868D01*
Y-44000D01*
X134768D01*
Y-36860D01*
X135876D01*
X135984Y-37102D01*
D02*
G37*
G36*
X130352D02*
X130477Y-37310D01*
X130610Y-37502D01*
X130744Y-37652D01*
X130810Y-37727D01*
X130860Y-37785D01*
X130919Y-37835D01*
X130960Y-37877D01*
X131002Y-37910D01*
X131027Y-37935D01*
X131044Y-37943D01*
X131052Y-37952D01*
X131268Y-38101D01*
X131485Y-38243D01*
X131710Y-38368D01*
X131918Y-38476D01*
X132010Y-38518D01*
X132093Y-38560D01*
X132177Y-38593D01*
X132243Y-38626D01*
X132293Y-38643D01*
X132335Y-38660D01*
X132360Y-38676D01*
X132368D01*
Y-39901D01*
X132185Y-39843D01*
X132001Y-39784D01*
X131835Y-39709D01*
X131685Y-39643D01*
X131560Y-39585D01*
X131502Y-39560D01*
X131460Y-39534D01*
X131427Y-39518D01*
X131402Y-39501D01*
X131385Y-39493D01*
X131377D01*
X131202Y-39385D01*
X131035Y-39276D01*
X130885Y-39176D01*
X130760Y-39076D01*
X130660Y-38993D01*
X130585Y-38926D01*
X130535Y-38885D01*
X130519Y-38868D01*
Y-44000D01*
X129136D01*
Y-36860D01*
X130244D01*
X130352Y-37102D01*
D02*
G37*
G36*
X-132333Y-36869D02*
X-132149Y-36885D01*
X-131983Y-36910D01*
X-131825Y-36944D01*
X-131675Y-36985D01*
X-131541Y-37027D01*
X-131416Y-37077D01*
X-131300Y-37118D01*
X-131200Y-37168D01*
X-131108Y-37218D01*
X-131033Y-37260D01*
X-130966Y-37302D01*
X-130916Y-37335D01*
X-130883Y-37360D01*
X-130858Y-37377D01*
X-130850Y-37385D01*
X-130733Y-37485D01*
X-130633Y-37602D01*
X-130541Y-37727D01*
X-130466Y-37852D01*
X-130392Y-37985D01*
X-130333Y-38118D01*
X-130283Y-38243D01*
X-130242Y-38377D01*
X-130200Y-38493D01*
X-130175Y-38610D01*
X-130150Y-38710D01*
X-130133Y-38801D01*
X-130125Y-38876D01*
X-130117Y-38926D01*
X-130108Y-38968D01*
Y-38976D01*
X-131516Y-39110D01*
Y-39101D01*
X-131541Y-38901D01*
X-131575Y-38735D01*
X-131616Y-38593D01*
X-131666Y-38476D01*
X-131708Y-38393D01*
X-131749Y-38326D01*
X-131775Y-38285D01*
X-131783Y-38277D01*
X-131883Y-38185D01*
X-131991Y-38118D01*
X-132108Y-38068D01*
X-132224Y-38035D01*
X-132324Y-38018D01*
X-132408Y-38001D01*
X-132483D01*
X-132624Y-38010D01*
X-132749Y-38043D01*
X-132858Y-38077D01*
X-132949Y-38126D01*
X-133016Y-38168D01*
X-133066Y-38210D01*
X-133099Y-38243D01*
X-133108Y-38252D01*
X-133182Y-38352D01*
X-133241Y-38460D01*
X-133282Y-38576D01*
X-133316Y-38685D01*
X-133333Y-38785D01*
X-133341Y-38868D01*
Y-38901D01*
Y-38926D01*
Y-38935D01*
Y-38943D01*
X-133333Y-39060D01*
X-133324Y-39176D01*
X-133299Y-39285D01*
X-133266Y-39393D01*
X-133191Y-39585D01*
X-133099Y-39751D01*
X-133057Y-39826D01*
X-133008Y-39893D01*
X-132966Y-39943D01*
X-132933Y-39993D01*
X-132899Y-40026D01*
X-132883Y-40051D01*
X-132866Y-40068D01*
X-132858Y-40076D01*
X-132641Y-40293D01*
X-132533Y-40393D01*
X-132441Y-40493D01*
X-132358Y-40568D01*
X-132299Y-40626D01*
X-132258Y-40668D01*
X-132241Y-40684D01*
X-132033Y-40884D01*
X-131841Y-41067D01*
X-131683Y-41226D01*
X-131541Y-41367D01*
X-131425Y-41484D01*
X-131341Y-41567D01*
X-131316Y-41601D01*
X-131291Y-41626D01*
X-131283Y-41634D01*
X-131275Y-41642D01*
X-131133Y-41792D01*
X-131008Y-41942D01*
X-130891Y-42084D01*
X-130783Y-42209D01*
X-130700Y-42317D01*
X-130641Y-42400D01*
X-130617Y-42434D01*
X-130600Y-42459D01*
X-130583Y-42467D01*
Y-42475D01*
X-130492Y-42609D01*
X-130417Y-42734D01*
X-130342Y-42867D01*
X-130283Y-43000D01*
X-130183Y-43259D01*
X-130108Y-43492D01*
X-130075Y-43600D01*
X-130050Y-43700D01*
X-130033Y-43783D01*
X-130025Y-43858D01*
X-130008Y-43917D01*
Y-43958D01*
X-130000Y-43992D01*
Y-44000D01*
X-134765D01*
Y-42734D01*
X-132058D01*
X-132100Y-42667D01*
X-132158Y-42584D01*
X-132233Y-42500D01*
X-132308Y-42409D01*
X-132491Y-42225D01*
X-132674Y-42034D01*
X-132858Y-41867D01*
X-132933Y-41784D01*
X-133008Y-41726D01*
X-133066Y-41667D01*
X-133108Y-41626D01*
X-133141Y-41601D01*
X-133149Y-41592D01*
X-133357Y-41401D01*
X-133549Y-41217D01*
X-133707Y-41051D01*
X-133841Y-40901D01*
X-133949Y-40776D01*
X-133991Y-40726D01*
X-134024Y-40684D01*
X-134057Y-40651D01*
X-134074Y-40626D01*
X-134091Y-40617D01*
Y-40609D01*
X-134216Y-40443D01*
X-134324Y-40284D01*
X-134416Y-40134D01*
X-134482Y-40009D01*
X-134541Y-39901D01*
X-134574Y-39818D01*
X-134591Y-39784D01*
X-134599Y-39759D01*
X-134607Y-39751D01*
Y-39743D01*
X-134657Y-39585D01*
X-134699Y-39426D01*
X-134724Y-39276D01*
X-134749Y-39143D01*
X-134757Y-39026D01*
X-134765Y-38935D01*
Y-38901D01*
Y-38876D01*
Y-38868D01*
Y-38860D01*
X-134757Y-38660D01*
X-134724Y-38468D01*
X-134682Y-38293D01*
X-134632Y-38143D01*
X-134582Y-38026D01*
X-134557Y-37977D01*
X-134541Y-37927D01*
X-134524Y-37893D01*
X-134507Y-37868D01*
X-134499Y-37860D01*
Y-37852D01*
X-134390Y-37685D01*
X-134266Y-37543D01*
X-134132Y-37418D01*
X-134007Y-37318D01*
X-133891Y-37235D01*
X-133799Y-37177D01*
X-133766Y-37152D01*
X-133741Y-37135D01*
X-133724Y-37127D01*
X-133716D01*
X-133516Y-37035D01*
X-133316Y-36969D01*
X-133116Y-36927D01*
X-132924Y-36893D01*
X-132841Y-36885D01*
X-132766Y-36877D01*
X-132691Y-36869D01*
X-132633Y-36860D01*
X-132516D01*
X-132333Y-36869D01*
D02*
G37*
G36*
X94884Y-36744D02*
X95100Y-36769D01*
X95300Y-36810D01*
X95467Y-36852D01*
X95542Y-36877D01*
X95609Y-36902D01*
X95667Y-36918D01*
X95709Y-36935D01*
X95750Y-36952D01*
X95775Y-36969D01*
X95792Y-36977D01*
X95800D01*
X95975Y-37069D01*
X96125Y-37177D01*
X96250Y-37285D01*
X96358Y-37393D01*
X96442Y-37485D01*
X96500Y-37568D01*
X96542Y-37618D01*
X96550Y-37627D01*
Y-37635D01*
X96633Y-37793D01*
X96700Y-37960D01*
X96742Y-38118D01*
X96775Y-38260D01*
X96792Y-38385D01*
X96800Y-38443D01*
Y-38485D01*
X96808Y-38526D01*
Y-38551D01*
Y-38568D01*
Y-38576D01*
X96800Y-38760D01*
X96767Y-38926D01*
X96725Y-39076D01*
X96683Y-39210D01*
X96633Y-39318D01*
X96600Y-39393D01*
X96567Y-39443D01*
X96559Y-39451D01*
Y-39460D01*
X96450Y-39593D01*
X96334Y-39709D01*
X96208Y-39809D01*
X96084Y-39893D01*
X95975Y-39959D01*
X95892Y-40001D01*
X95859Y-40018D01*
X95834Y-40034D01*
X95817Y-40043D01*
X95809D01*
X96017Y-40143D01*
X96192Y-40259D01*
X96350Y-40384D01*
X96475Y-40501D01*
X96575Y-40601D01*
X96642Y-40693D01*
X96667Y-40726D01*
X96683Y-40743D01*
X96700Y-40759D01*
Y-40767D01*
X96800Y-40951D01*
X96875Y-41142D01*
X96925Y-41334D01*
X96958Y-41509D01*
X96983Y-41667D01*
X96992Y-41734D01*
Y-41792D01*
X97000Y-41834D01*
Y-41867D01*
Y-41892D01*
Y-41901D01*
X96983Y-42126D01*
X96950Y-42334D01*
X96900Y-42525D01*
X96842Y-42692D01*
X96792Y-42825D01*
X96767Y-42875D01*
X96742Y-42925D01*
X96717Y-42959D01*
X96708Y-42984D01*
X96692Y-43000D01*
Y-43009D01*
X96567Y-43175D01*
X96425Y-43325D01*
X96275Y-43450D01*
X96142Y-43550D01*
X96017Y-43633D01*
X95917Y-43692D01*
X95875Y-43717D01*
X95850Y-43733D01*
X95834Y-43742D01*
X95825D01*
X95609Y-43825D01*
X95392Y-43892D01*
X95184Y-43933D01*
X94992Y-43967D01*
X94909Y-43975D01*
X94826Y-43983D01*
X94759Y-43992D01*
X94701D01*
X94651Y-44000D01*
X94584D01*
X94334Y-43992D01*
X94109Y-43958D01*
X93901Y-43917D01*
X93717Y-43867D01*
X93643Y-43842D01*
X93576Y-43817D01*
X93509Y-43792D01*
X93459Y-43775D01*
X93418Y-43758D01*
X93393Y-43742D01*
X93376Y-43733D01*
X93368D01*
X93176Y-43625D01*
X93009Y-43500D01*
X92868Y-43367D01*
X92751Y-43250D01*
X92660Y-43134D01*
X92593Y-43050D01*
X92568Y-43017D01*
X92551Y-42992D01*
X92535Y-42975D01*
Y-42967D01*
X92435Y-42775D01*
X92360Y-42584D01*
X92310Y-42400D01*
X92268Y-42225D01*
X92251Y-42076D01*
X92243Y-42017D01*
Y-41959D01*
X92235Y-41917D01*
Y-41884D01*
Y-41867D01*
Y-41859D01*
X92251Y-41626D01*
X92285Y-41409D01*
X92334Y-41226D01*
X92385Y-41059D01*
X92418Y-40992D01*
X92443Y-40926D01*
X92468Y-40876D01*
X92493Y-40834D01*
X92518Y-40801D01*
X92526Y-40767D01*
X92543Y-40759D01*
Y-40751D01*
X92668Y-40584D01*
X92809Y-40443D01*
X92959Y-40318D01*
X93109Y-40218D01*
X93243Y-40143D01*
X93293Y-40109D01*
X93343Y-40084D01*
X93384Y-40068D01*
X93418Y-40051D01*
X93434Y-40043D01*
X93443D01*
X93276Y-39959D01*
X93134Y-39859D01*
X93009Y-39768D01*
X92909Y-39668D01*
X92826Y-39585D01*
X92776Y-39518D01*
X92734Y-39468D01*
X92726Y-39451D01*
X92643Y-39301D01*
X92576Y-39151D01*
X92535Y-39010D01*
X92501Y-38868D01*
X92485Y-38751D01*
X92468Y-38660D01*
Y-38626D01*
Y-38601D01*
Y-38585D01*
Y-38576D01*
X92476Y-38377D01*
X92509Y-38201D01*
X92551Y-38035D01*
X92601Y-37893D01*
X92660Y-37777D01*
X92701Y-37693D01*
X92718Y-37660D01*
X92734Y-37635D01*
X92743Y-37627D01*
Y-37618D01*
X92851Y-37468D01*
X92976Y-37343D01*
X93101Y-37227D01*
X93218Y-37135D01*
X93334Y-37060D01*
X93418Y-37010D01*
X93451Y-36994D01*
X93476Y-36977D01*
X93493Y-36969D01*
X93501D01*
X93693Y-36893D01*
X93884Y-36835D01*
X94076Y-36793D01*
X94259Y-36760D01*
X94409Y-36744D01*
X94476D01*
X94534Y-36735D01*
X94642D01*
X94884Y-36744D01*
D02*
G37*
G36*
X-15983Y-52000D02*
X-18828D01*
Y-49172D01*
X-15983D01*
Y-52000D01*
D02*
G37*
G36*
X-104000Y-41384D02*
Y-42575D01*
X-106916D01*
Y-44000D01*
X-108274D01*
Y-42575D01*
X-109157D01*
Y-41367D01*
X-108274D01*
Y-36877D01*
X-107133D01*
X-104000Y-41384D01*
D02*
G37*
G36*
X-54792Y-137395D02*
X-54620Y-137404D01*
X-54458Y-137431D01*
X-54305Y-137467D01*
X-54160Y-137503D01*
X-54025Y-137548D01*
X-53899Y-137593D01*
X-53791Y-137639D01*
X-53692Y-137684D01*
X-53601Y-137729D01*
X-53529Y-137774D01*
X-53466Y-137810D01*
X-53412Y-137846D01*
X-53376Y-137873D01*
X-53358Y-137882D01*
X-53349Y-137891D01*
X-53232Y-137990D01*
X-53133Y-138098D01*
X-53033Y-138216D01*
X-52952Y-138342D01*
X-52808Y-138585D01*
X-52691Y-138829D01*
X-52646Y-138946D01*
X-52610Y-139054D01*
X-52582Y-139153D01*
X-52555Y-139235D01*
X-52537Y-139298D01*
X-52519Y-139352D01*
X-52510Y-139388D01*
Y-139397D01*
X-53917Y-139640D01*
X-53944Y-139478D01*
X-53989Y-139325D01*
X-54043Y-139199D01*
X-54097Y-139090D01*
X-54151Y-139009D01*
X-54197Y-138946D01*
X-54233Y-138910D01*
X-54241Y-138901D01*
X-54350Y-138811D01*
X-54467Y-138739D01*
X-54584Y-138694D01*
X-54692Y-138657D01*
X-54792Y-138639D01*
X-54864Y-138621D01*
X-54936D01*
X-55080Y-138630D01*
X-55206Y-138657D01*
X-55324Y-138694D01*
X-55414Y-138730D01*
X-55486Y-138775D01*
X-55540Y-138811D01*
X-55576Y-138838D01*
X-55585Y-138847D01*
X-55666Y-138937D01*
X-55729Y-139036D01*
X-55765Y-139135D01*
X-55802Y-139235D01*
X-55820Y-139325D01*
X-55828Y-139397D01*
Y-139442D01*
Y-139451D01*
Y-139460D01*
X-55810Y-139631D01*
X-55774Y-139785D01*
X-55711Y-139911D01*
X-55648Y-140010D01*
X-55585Y-140091D01*
X-55522Y-140154D01*
X-55486Y-140190D01*
X-55468Y-140199D01*
X-55396Y-140244D01*
X-55324Y-140281D01*
X-55143Y-140344D01*
X-54963Y-140389D01*
X-54774Y-140416D01*
X-54611Y-140434D01*
X-54539Y-140443D01*
X-54476Y-140452D01*
X-54350D01*
X-54197Y-141588D01*
X-54891D01*
X-55017Y-141597D01*
X-55134Y-141606D01*
X-55233Y-141633D01*
X-55324Y-141660D01*
X-55396Y-141687D01*
X-55450Y-141705D01*
X-55486Y-141723D01*
X-55495Y-141732D01*
X-55585Y-141786D01*
X-55666Y-141859D01*
X-55738Y-141922D01*
X-55792Y-141985D01*
X-55838Y-142048D01*
X-55874Y-142093D01*
X-55892Y-142129D01*
X-55901Y-142138D01*
X-55946Y-142237D01*
X-55982Y-142345D01*
X-56009Y-142445D01*
X-56027Y-142535D01*
X-56036Y-142616D01*
X-56045Y-142679D01*
Y-142715D01*
Y-142733D01*
X-56036Y-142859D01*
X-56027Y-142977D01*
X-56000Y-143085D01*
X-55982Y-143175D01*
X-55955Y-143256D01*
X-55928Y-143310D01*
X-55919Y-143355D01*
X-55910Y-143364D01*
X-55856Y-143463D01*
X-55792Y-143554D01*
X-55729Y-143635D01*
X-55666Y-143698D01*
X-55612Y-143752D01*
X-55567Y-143788D01*
X-55540Y-143815D01*
X-55531Y-143824D01*
X-55441Y-143878D01*
X-55342Y-143914D01*
X-55251Y-143950D01*
X-55161Y-143968D01*
X-55089Y-143977D01*
X-55026Y-143987D01*
X-54972D01*
X-54810Y-143977D01*
X-54656Y-143941D01*
X-54530Y-143896D01*
X-54422Y-143842D01*
X-54341Y-143797D01*
X-54278Y-143752D01*
X-54233Y-143716D01*
X-54223Y-143707D01*
X-54124Y-143590D01*
X-54052Y-143455D01*
X-53989Y-143310D01*
X-53944Y-143175D01*
X-53908Y-143058D01*
X-53890Y-142958D01*
X-53881Y-142922D01*
X-53872Y-142895D01*
Y-142877D01*
Y-142868D01*
X-52402Y-143040D01*
X-52447Y-143292D01*
X-52510Y-143527D01*
X-52582Y-143725D01*
X-52655Y-143905D01*
X-52691Y-143977D01*
X-52727Y-144041D01*
X-52763Y-144104D01*
X-52790Y-144149D01*
X-52808Y-144185D01*
X-52826Y-144212D01*
X-52844Y-144230D01*
Y-144239D01*
X-52988Y-144410D01*
X-53133Y-144555D01*
X-53286Y-144681D01*
X-53430Y-144789D01*
X-53556Y-144870D01*
X-53655Y-144924D01*
X-53692Y-144942D01*
X-53719Y-144960D01*
X-53737Y-144969D01*
X-53746D01*
X-53953Y-145050D01*
X-54169Y-145114D01*
X-54377Y-145150D01*
X-54566Y-145186D01*
X-54738Y-145204D01*
X-54810D01*
X-54864Y-145213D01*
X-54981D01*
X-55269Y-145204D01*
X-55540Y-145168D01*
X-55774Y-145123D01*
X-55883Y-145096D01*
X-55973Y-145069D01*
X-56063Y-145050D01*
X-56144Y-145023D01*
X-56207Y-144996D01*
X-56261Y-144978D01*
X-56306Y-144960D01*
X-56343Y-144942D01*
X-56361Y-144933D01*
X-56370D01*
X-56577Y-144816D01*
X-56757Y-144681D01*
X-56911Y-144545D01*
X-57037Y-144410D01*
X-57145Y-144293D01*
X-57217Y-144194D01*
X-57235Y-144158D01*
X-57253Y-144131D01*
X-57271Y-144113D01*
Y-144104D01*
X-57379Y-143887D01*
X-57452Y-143671D01*
X-57506Y-143446D01*
X-57551Y-143247D01*
X-57560Y-143148D01*
X-57569Y-143067D01*
X-57578Y-142986D01*
Y-142922D01*
X-57587Y-142868D01*
Y-142832D01*
Y-142805D01*
Y-142796D01*
Y-142670D01*
X-57569Y-142553D01*
X-57524Y-142327D01*
X-57461Y-142120D01*
X-57389Y-141949D01*
X-57316Y-141813D01*
X-57280Y-141759D01*
X-57253Y-141714D01*
X-57226Y-141669D01*
X-57208Y-141642D01*
X-57199Y-141633D01*
X-57190Y-141624D01*
X-57028Y-141453D01*
X-56856Y-141317D01*
X-56676Y-141209D01*
X-56496Y-141128D01*
X-56343Y-141065D01*
X-56270Y-141038D01*
X-56216Y-141020D01*
X-56171Y-141011D01*
X-56126Y-141002D01*
X-56108Y-140993D01*
X-56099D01*
X-56315Y-140894D01*
X-56505Y-140794D01*
X-56667Y-140677D01*
X-56793Y-140578D01*
X-56892Y-140479D01*
X-56965Y-140407D01*
X-57001Y-140353D01*
X-57019Y-140344D01*
Y-140335D01*
X-57118Y-140172D01*
X-57199Y-140001D01*
X-57253Y-139839D01*
X-57289Y-139685D01*
X-57307Y-139559D01*
X-57325Y-139460D01*
Y-139424D01*
Y-139397D01*
Y-139379D01*
Y-139370D01*
X-57316Y-139162D01*
X-57280Y-138964D01*
X-57235Y-138793D01*
X-57181Y-138639D01*
X-57127Y-138522D01*
X-57082Y-138432D01*
X-57064Y-138396D01*
X-57046Y-138369D01*
X-57037Y-138360D01*
Y-138351D01*
X-56920Y-138188D01*
X-56784Y-138053D01*
X-56649Y-137927D01*
X-56523Y-137828D01*
X-56397Y-137747D01*
X-56306Y-137693D01*
X-56270Y-137675D01*
X-56243Y-137656D01*
X-56225Y-137647D01*
X-56216D01*
X-56009Y-137557D01*
X-55802Y-137494D01*
X-55585Y-137449D01*
X-55396Y-137422D01*
X-55224Y-137395D01*
X-55152D01*
X-55089Y-137386D01*
X-54972D01*
X-54792Y-137395D01*
D02*
G37*
G36*
X-29535Y-145077D02*
X-31158D01*
X-33881Y-137386D01*
X-32231D01*
X-30770Y-141868D01*
X-30698Y-142084D01*
X-30635Y-142309D01*
X-30572Y-142526D01*
X-30518Y-142724D01*
X-30500Y-142814D01*
X-30473Y-142904D01*
X-30455Y-142977D01*
X-30437Y-143040D01*
X-30428Y-143094D01*
X-30419Y-143130D01*
X-30410Y-143157D01*
Y-143166D01*
X-30392D01*
X-30329Y-142914D01*
X-30265Y-142670D01*
X-30211Y-142445D01*
X-30148Y-142255D01*
X-30121Y-142165D01*
X-30103Y-142093D01*
X-30076Y-142021D01*
X-30058Y-141967D01*
X-30040Y-141922D01*
X-30031Y-141885D01*
X-30022Y-141868D01*
Y-141859D01*
X-28516Y-137386D01*
X-26830D01*
X-29535Y-145077D01*
D02*
G37*
G36*
X-60824D02*
X-62447D01*
X-65170Y-137386D01*
X-63520D01*
X-62059Y-141868D01*
X-61987Y-142084D01*
X-61924Y-142309D01*
X-61861Y-142526D01*
X-61807Y-142724D01*
X-61789Y-142814D01*
X-61762Y-142904D01*
X-61744Y-142977D01*
X-61726Y-143040D01*
X-61717Y-143094D01*
X-61708Y-143130D01*
X-61699Y-143157D01*
Y-143166D01*
X-61681D01*
X-61617Y-142914D01*
X-61554Y-142670D01*
X-61500Y-142445D01*
X-61437Y-142255D01*
X-61410Y-142165D01*
X-61392Y-142093D01*
X-61365Y-142021D01*
X-61347Y-141967D01*
X-61329Y-141922D01*
X-61320Y-141885D01*
X-61311Y-141868D01*
Y-141859D01*
X-59805Y-137386D01*
X-58119D01*
X-60824Y-145077D01*
D02*
G37*
G36*
X-34711D02*
X-37704D01*
X-38020Y-145069D01*
X-38317Y-145033D01*
X-38597Y-144987D01*
X-38849Y-144915D01*
X-39084Y-144843D01*
X-39300Y-144762D01*
X-39490Y-144663D01*
X-39661Y-144573D01*
X-39814Y-144482D01*
X-39941Y-144383D01*
X-40058Y-144302D01*
X-40139Y-144221D01*
X-40211Y-144158D01*
X-40265Y-144113D01*
X-40292Y-144077D01*
X-40301Y-144068D01*
X-40445Y-143869D01*
X-40581Y-143662D01*
X-40689Y-143436D01*
X-40788Y-143211D01*
X-40869Y-142977D01*
X-40932Y-142742D01*
X-40987Y-142517D01*
X-41032Y-142300D01*
X-41068Y-142093D01*
X-41095Y-141904D01*
X-41113Y-141732D01*
X-41131Y-141579D01*
Y-141462D01*
X-41140Y-141371D01*
Y-141335D01*
Y-141308D01*
Y-141299D01*
Y-141290D01*
X-41131Y-140939D01*
X-41104Y-140605D01*
X-41059Y-140289D01*
X-40996Y-140001D01*
X-40914Y-139731D01*
X-40824Y-139478D01*
X-40725Y-139243D01*
X-40608Y-139036D01*
X-40482Y-138838D01*
X-40346Y-138657D01*
X-40202Y-138486D01*
X-40058Y-138342D01*
X-39904Y-138207D01*
X-39751Y-138080D01*
X-39589Y-137972D01*
X-39436Y-137873D01*
X-39273Y-137792D01*
X-39111Y-137711D01*
X-38958Y-137647D01*
X-38804Y-137593D01*
X-38516Y-137503D01*
X-38381Y-137476D01*
X-38254Y-137449D01*
X-38146Y-137431D01*
X-38038Y-137413D01*
X-37948Y-137404D01*
X-37867Y-137395D01*
X-37804Y-137386D01*
X-34711D01*
Y-145077D01*
D02*
G37*
G36*
X-42420D02*
X-45414D01*
X-45729Y-145069D01*
X-46027Y-145033D01*
X-46307Y-144987D01*
X-46559Y-144915D01*
X-46793Y-144843D01*
X-47010Y-144762D01*
X-47199Y-144663D01*
X-47371Y-144573D01*
X-47524Y-144482D01*
X-47650Y-144383D01*
X-47767Y-144302D01*
X-47849Y-144221D01*
X-47921Y-144158D01*
X-47975Y-144113D01*
X-48002Y-144077D01*
X-48011Y-144068D01*
X-48155Y-143869D01*
X-48290Y-143662D01*
X-48398Y-143436D01*
X-48498Y-143211D01*
X-48579Y-142977D01*
X-48642Y-142742D01*
X-48696Y-142517D01*
X-48741Y-142300D01*
X-48777Y-142093D01*
X-48804Y-141904D01*
X-48822Y-141732D01*
X-48840Y-141579D01*
Y-141462D01*
X-48849Y-141371D01*
Y-141335D01*
Y-141308D01*
Y-141299D01*
Y-141290D01*
X-48840Y-140939D01*
X-48813Y-140605D01*
X-48768Y-140289D01*
X-48705Y-140001D01*
X-48624Y-139731D01*
X-48534Y-139478D01*
X-48435Y-139243D01*
X-48317Y-139036D01*
X-48191Y-138838D01*
X-48056Y-138657D01*
X-47912Y-138486D01*
X-47767Y-138342D01*
X-47614Y-138207D01*
X-47461Y-138080D01*
X-47298Y-137972D01*
X-47145Y-137873D01*
X-46983Y-137792D01*
X-46821Y-137711D01*
X-46667Y-137647D01*
X-46514Y-137593D01*
X-46225Y-137503D01*
X-46090Y-137476D01*
X-45964Y-137449D01*
X-45856Y-137431D01*
X-45747Y-137413D01*
X-45657Y-137404D01*
X-45576Y-137395D01*
X-45513Y-137386D01*
X-42420D01*
Y-145077D01*
D02*
G37*
G36*
X-17569Y-146760D02*
X-17371Y-146778D01*
X-17191Y-146805D01*
X-17019Y-146841D01*
X-16857Y-146886D01*
X-16713Y-146931D01*
X-16578Y-146986D01*
X-16451Y-147031D01*
X-16343Y-147085D01*
X-16244Y-147139D01*
X-16163Y-147184D01*
X-16091Y-147229D01*
X-16036Y-147265D01*
X-16000Y-147292D01*
X-15973Y-147310D01*
X-15964Y-147319D01*
X-15838Y-147427D01*
X-15730Y-147554D01*
X-15631Y-147689D01*
X-15550Y-147824D01*
X-15468Y-147968D01*
X-15405Y-148113D01*
X-15351Y-148248D01*
X-15306Y-148392D01*
X-15261Y-148518D01*
X-15234Y-148645D01*
X-15207Y-148753D01*
X-15189Y-148852D01*
X-15180Y-148933D01*
X-15171Y-148987D01*
X-15162Y-149032D01*
Y-149041D01*
X-16686Y-149186D01*
Y-149177D01*
X-16713Y-148960D01*
X-16749Y-148780D01*
X-16794Y-148627D01*
X-16848Y-148500D01*
X-16893Y-148410D01*
X-16938Y-148338D01*
X-16965Y-148293D01*
X-16974Y-148284D01*
X-17083Y-148185D01*
X-17200Y-148113D01*
X-17326Y-148059D01*
X-17452Y-148022D01*
X-17560Y-148005D01*
X-17651Y-147986D01*
X-17732D01*
X-17885Y-147995D01*
X-18020Y-148032D01*
X-18138Y-148068D01*
X-18237Y-148122D01*
X-18309Y-148167D01*
X-18363Y-148212D01*
X-18399Y-148248D01*
X-18408Y-148257D01*
X-18489Y-148365D01*
X-18552Y-148482D01*
X-18597Y-148609D01*
X-18633Y-148726D01*
X-18651Y-148834D01*
X-18661Y-148924D01*
Y-148960D01*
Y-148987D01*
Y-148996D01*
Y-149005D01*
X-18651Y-149132D01*
X-18642Y-149258D01*
X-18615Y-149375D01*
X-18579Y-149492D01*
X-18498Y-149700D01*
X-18399Y-149880D01*
X-18354Y-149961D01*
X-18300Y-150033D01*
X-18255Y-150087D01*
X-18219Y-150141D01*
X-18183Y-150178D01*
X-18164Y-150205D01*
X-18147Y-150223D01*
X-18138Y-150232D01*
X-17903Y-150466D01*
X-17786Y-150574D01*
X-17687Y-150682D01*
X-17596Y-150764D01*
X-17533Y-150827D01*
X-17488Y-150872D01*
X-17470Y-150890D01*
X-17245Y-151106D01*
X-17037Y-151305D01*
X-16866Y-151476D01*
X-16713Y-151629D01*
X-16587Y-151756D01*
X-16496Y-151846D01*
X-16469Y-151882D01*
X-16442Y-151909D01*
X-16433Y-151918D01*
X-16424Y-151927D01*
X-16271Y-152089D01*
X-16136Y-152252D01*
X-16010Y-152405D01*
X-15892Y-152540D01*
X-15802Y-152657D01*
X-15739Y-152747D01*
X-15712Y-152783D01*
X-15694Y-152810D01*
X-15676Y-152819D01*
Y-152829D01*
X-15577Y-152973D01*
X-15496Y-153108D01*
X-15414Y-153252D01*
X-15351Y-153397D01*
X-15243Y-153676D01*
X-15162Y-153929D01*
X-15126Y-154046D01*
X-15099Y-154154D01*
X-15081Y-154244D01*
X-15072Y-154325D01*
X-15054Y-154389D01*
Y-154434D01*
X-15045Y-154470D01*
Y-154479D01*
X-20202D01*
Y-153108D01*
X-17272D01*
X-17317Y-153036D01*
X-17380Y-152946D01*
X-17461Y-152856D01*
X-17542Y-152756D01*
X-17741Y-152558D01*
X-17939Y-152351D01*
X-18138Y-152170D01*
X-18219Y-152080D01*
X-18300Y-152017D01*
X-18363Y-151954D01*
X-18408Y-151909D01*
X-18444Y-151882D01*
X-18453Y-151873D01*
X-18678Y-151665D01*
X-18886Y-151467D01*
X-19057Y-151287D01*
X-19202Y-151124D01*
X-19319Y-150989D01*
X-19364Y-150935D01*
X-19400Y-150890D01*
X-19436Y-150854D01*
X-19454Y-150827D01*
X-19472Y-150818D01*
Y-150809D01*
X-19607Y-150628D01*
X-19725Y-150457D01*
X-19824Y-150295D01*
X-19896Y-150160D01*
X-19959Y-150042D01*
X-19995Y-149952D01*
X-20013Y-149916D01*
X-20022Y-149889D01*
X-20031Y-149880D01*
Y-149871D01*
X-20085Y-149700D01*
X-20130Y-149528D01*
X-20157Y-149366D01*
X-20184Y-149222D01*
X-20193Y-149095D01*
X-20202Y-148996D01*
Y-148960D01*
Y-148933D01*
Y-148924D01*
Y-148915D01*
X-20193Y-148699D01*
X-20157Y-148491D01*
X-20112Y-148302D01*
X-20058Y-148140D01*
X-20004Y-148013D01*
X-19977Y-147959D01*
X-19959Y-147905D01*
X-19941Y-147869D01*
X-19923Y-147842D01*
X-19914Y-147833D01*
Y-147824D01*
X-19797Y-147644D01*
X-19661Y-147491D01*
X-19517Y-147355D01*
X-19382Y-147247D01*
X-19256Y-147157D01*
X-19156Y-147094D01*
X-19120Y-147067D01*
X-19093Y-147049D01*
X-19075Y-147040D01*
X-19066D01*
X-18850Y-146940D01*
X-18633Y-146868D01*
X-18417Y-146823D01*
X-18210Y-146787D01*
X-18119Y-146778D01*
X-18038Y-146769D01*
X-17957Y-146760D01*
X-17894Y-146751D01*
X-17768D01*
X-17569Y-146760D01*
D02*
G37*
G36*
X-72438Y-150466D02*
X-69805Y-154479D01*
X-71662D01*
X-72943Y-152504D01*
X-73105Y-152233D01*
X-73177Y-152098D01*
X-73240Y-151981D01*
X-73295Y-151873D01*
X-73330Y-151792D01*
X-73358Y-151737D01*
X-73367Y-151728D01*
Y-151720D01*
X-73385D01*
X-73466Y-151882D01*
X-73538Y-152035D01*
X-73610Y-152161D01*
X-73673Y-152278D01*
X-73727Y-152378D01*
X-73772Y-152441D01*
X-73799Y-152486D01*
X-73808Y-152504D01*
X-75089Y-154479D01*
X-76955D01*
X-74322Y-150529D01*
X-76721Y-146787D01*
X-74908D01*
X-73799Y-148618D01*
X-73646Y-148888D01*
X-73583Y-149014D01*
X-73529Y-149132D01*
X-73484Y-149231D01*
X-73448Y-149303D01*
X-73430Y-149348D01*
X-73421Y-149366D01*
X-73394D01*
X-73321Y-149204D01*
X-73249Y-149059D01*
X-73177Y-148924D01*
X-73114Y-148807D01*
X-73060Y-148717D01*
X-73015Y-148645D01*
X-72988Y-148600D01*
X-72979Y-148581D01*
X-71861Y-146787D01*
X-70048D01*
X-72438Y-150466D01*
D02*
G37*
G36*
X-36577Y-148798D02*
X-36397Y-148825D01*
X-36235Y-148852D01*
X-36099Y-148888D01*
X-35982Y-148933D01*
X-35901Y-148960D01*
X-35847Y-148987D01*
X-35838Y-148996D01*
X-35829D01*
X-35685Y-149087D01*
X-35549Y-149186D01*
X-35423Y-149285D01*
X-35324Y-149393D01*
X-35234Y-149483D01*
X-35162Y-149555D01*
X-35126Y-149609D01*
X-35108Y-149619D01*
Y-149628D01*
X-35099D01*
Y-148915D01*
X-33728D01*
Y-154479D01*
X-35198D01*
Y-151440D01*
X-35207Y-151169D01*
X-35243Y-150944D01*
X-35297Y-150737D01*
X-35360Y-150565D01*
X-35441Y-150421D01*
X-35531Y-150295D01*
X-35631Y-150196D01*
X-35730Y-150114D01*
X-35829Y-150051D01*
X-35928Y-150006D01*
X-36018Y-149970D01*
X-36099Y-149952D01*
X-36163Y-149934D01*
X-36217Y-149925D01*
X-36262D01*
X-36406Y-149934D01*
X-36523Y-149970D01*
X-36622Y-150015D01*
X-36695Y-150060D01*
X-36758Y-150114D01*
X-36803Y-150160D01*
X-36821Y-150196D01*
X-36830Y-150205D01*
X-36884Y-150313D01*
X-36920Y-150439D01*
X-36956Y-150565D01*
X-36974Y-150682D01*
X-36983Y-150791D01*
X-36992Y-150881D01*
Y-150917D01*
Y-150944D01*
Y-150953D01*
Y-150962D01*
Y-154479D01*
X-38462D01*
Y-151440D01*
X-38471Y-151269D01*
X-38480Y-151115D01*
X-38498Y-150971D01*
X-38525Y-150854D01*
X-38552Y-150755D01*
X-38570Y-150691D01*
X-38579Y-150646D01*
X-38588Y-150628D01*
X-38642Y-150511D01*
X-38705Y-150403D01*
X-38768Y-150313D01*
X-38823Y-150241D01*
X-38877Y-150178D01*
X-38922Y-150141D01*
X-38949Y-150114D01*
X-38958Y-150105D01*
X-39048Y-150042D01*
X-39147Y-149997D01*
X-39237Y-149970D01*
X-39318Y-149943D01*
X-39400Y-149934D01*
X-39454Y-149925D01*
X-39508D01*
X-39643Y-149934D01*
X-39751Y-149961D01*
X-39850Y-150006D01*
X-39932Y-150051D01*
X-39986Y-150096D01*
X-40031Y-150141D01*
X-40058Y-150169D01*
X-40067Y-150178D01*
X-40130Y-150277D01*
X-40175Y-150394D01*
X-40211Y-150511D01*
X-40229Y-150628D01*
X-40247Y-150728D01*
X-40256Y-150809D01*
Y-150872D01*
Y-150881D01*
Y-150890D01*
Y-154479D01*
X-41726D01*
Y-150863D01*
X-41717Y-150665D01*
X-41708Y-150484D01*
X-41681Y-150313D01*
X-41654Y-150160D01*
X-41618Y-150015D01*
X-41582Y-149889D01*
X-41537Y-149772D01*
X-41501Y-149664D01*
X-41455Y-149573D01*
X-41410Y-149501D01*
X-41374Y-149429D01*
X-41338Y-149375D01*
X-41311Y-149339D01*
X-41284Y-149312D01*
X-41275Y-149294D01*
X-41266Y-149285D01*
X-41176Y-149195D01*
X-41077Y-149123D01*
X-40978Y-149050D01*
X-40869Y-148996D01*
X-40653Y-148906D01*
X-40437Y-148852D01*
X-40337Y-148834D01*
X-40247Y-148816D01*
X-40166Y-148807D01*
X-40094Y-148798D01*
X-40031Y-148789D01*
X-39950D01*
X-39778Y-148798D01*
X-39607Y-148825D01*
X-39454Y-148861D01*
X-39327Y-148897D01*
X-39210Y-148933D01*
X-39129Y-148969D01*
X-39075Y-148996D01*
X-39066Y-149005D01*
X-39057D01*
X-38913Y-149095D01*
X-38768Y-149204D01*
X-38642Y-149312D01*
X-38525Y-149420D01*
X-38435Y-149519D01*
X-38363Y-149600D01*
X-38317Y-149655D01*
X-38300Y-149664D01*
Y-149673D01*
X-38200Y-149519D01*
X-38101Y-149384D01*
X-37984Y-149267D01*
X-37858Y-149159D01*
X-37731Y-149078D01*
X-37605Y-149005D01*
X-37479Y-148942D01*
X-37362Y-148897D01*
X-37245Y-148861D01*
X-37136Y-148834D01*
X-37037Y-148816D01*
X-36947Y-148798D01*
X-36875D01*
X-36821Y-148789D01*
X-36776D01*
X-36577Y-148798D01*
D02*
G37*
G36*
X-53583Y-154479D02*
X-55017D01*
Y-148419D01*
X-56712Y-154479D01*
X-58200D01*
X-59877Y-148419D01*
Y-154479D01*
X-61311D01*
Y-146787D01*
X-58984D01*
X-57461Y-152233D01*
X-55901Y-146787D01*
X-53583D01*
Y-154479D01*
D02*
G37*
G36*
X-42447D02*
X-44097D01*
X-44729Y-152747D01*
X-47704D01*
X-48372Y-154479D01*
X-50067D01*
X-46974Y-146787D01*
X-45441D01*
X-42447Y-154479D01*
D02*
G37*
G36*
X-62140D02*
X-63791D01*
X-64422Y-152747D01*
X-67397D01*
X-68065Y-154479D01*
X-69760D01*
X-66667Y-146787D01*
X-65134D01*
X-62140Y-154479D01*
D02*
G37*
G36*
X-23602Y-146760D02*
X-23385Y-146796D01*
X-23187Y-146841D01*
X-22998Y-146904D01*
X-22826Y-146976D01*
X-22664Y-147058D01*
X-22520Y-147139D01*
X-22394Y-147229D01*
X-22285Y-147319D01*
X-22186Y-147409D01*
X-22096Y-147491D01*
X-22033Y-147563D01*
X-21979Y-147626D01*
X-21934Y-147671D01*
X-21916Y-147707D01*
X-21907Y-147716D01*
X-21789Y-147905D01*
X-21690Y-148122D01*
X-21600Y-148347D01*
X-21528Y-148581D01*
X-21465Y-148825D01*
X-21411Y-149078D01*
X-21366Y-149321D01*
X-21330Y-149555D01*
X-21302Y-149781D01*
X-21284Y-149997D01*
X-21266Y-150187D01*
X-21257Y-150349D01*
Y-150493D01*
X-21248Y-150547D01*
Y-150592D01*
Y-150628D01*
Y-150655D01*
Y-150674D01*
Y-150682D01*
X-21257Y-151061D01*
X-21275Y-151404D01*
X-21312Y-151728D01*
X-21347Y-152026D01*
X-21402Y-152296D01*
X-21456Y-152540D01*
X-21519Y-152765D01*
X-21582Y-152964D01*
X-21636Y-153135D01*
X-21699Y-153279D01*
X-21753Y-153406D01*
X-21807Y-153505D01*
X-21844Y-153586D01*
X-21879Y-153640D01*
X-21898Y-153676D01*
X-21907Y-153685D01*
X-22042Y-153848D01*
X-22186Y-153992D01*
X-22330Y-154118D01*
X-22493Y-154226D01*
X-22655Y-154307D01*
X-22817Y-154389D01*
X-22980Y-154452D01*
X-23133Y-154497D01*
X-23277Y-154533D01*
X-23412Y-154569D01*
X-23539Y-154587D01*
X-23647Y-154596D01*
X-23728Y-154605D01*
X-23800Y-154614D01*
X-23854D01*
X-24080Y-154605D01*
X-24296Y-154578D01*
X-24495Y-154524D01*
X-24684Y-154470D01*
X-24855Y-154397D01*
X-25017Y-154316D01*
X-25153Y-154235D01*
X-25288Y-154145D01*
X-25396Y-154064D01*
X-25495Y-153983D01*
X-25585Y-153902D01*
X-25649Y-153829D01*
X-25703Y-153766D01*
X-25748Y-153721D01*
X-25766Y-153694D01*
X-25775Y-153685D01*
X-25892Y-153496D01*
X-26000Y-153288D01*
X-26091Y-153063D01*
X-26163Y-152819D01*
X-26235Y-152576D01*
X-26289Y-152324D01*
X-26334Y-152071D01*
X-26370Y-151828D01*
X-26397Y-151602D01*
X-26415Y-151386D01*
X-26433Y-151187D01*
X-26442Y-151016D01*
X-26451Y-150881D01*
Y-150818D01*
Y-150773D01*
Y-150737D01*
Y-150710D01*
Y-150691D01*
Y-150682D01*
X-26442Y-150322D01*
X-26424Y-149979D01*
X-26388Y-149673D01*
X-26352Y-149375D01*
X-26298Y-149114D01*
X-26244Y-148870D01*
X-26190Y-148654D01*
X-26126Y-148455D01*
X-26063Y-148284D01*
X-26009Y-148131D01*
X-25955Y-148013D01*
X-25901Y-147905D01*
X-25865Y-147824D01*
X-25829Y-147770D01*
X-25811Y-147734D01*
X-25802Y-147725D01*
X-25676Y-147554D01*
X-25531Y-147400D01*
X-25387Y-147274D01*
X-25225Y-147166D01*
X-25062Y-147067D01*
X-24900Y-146986D01*
X-24738Y-146922D01*
X-24576Y-146868D01*
X-24431Y-146832D01*
X-24287Y-146805D01*
X-24161Y-146778D01*
X-24053Y-146769D01*
X-23963Y-146760D01*
X-23890Y-146751D01*
X-23836D01*
X-23602Y-146760D01*
D02*
G37*
G36*
X-29697D02*
X-29481Y-146796D01*
X-29283Y-146841D01*
X-29093Y-146904D01*
X-28922Y-146976D01*
X-28760Y-147058D01*
X-28615Y-147139D01*
X-28489Y-147229D01*
X-28381Y-147319D01*
X-28282Y-147409D01*
X-28191Y-147491D01*
X-28128Y-147563D01*
X-28074Y-147626D01*
X-28029Y-147671D01*
X-28011Y-147707D01*
X-28002Y-147716D01*
X-27885Y-147905D01*
X-27786Y-148122D01*
X-27696Y-148347D01*
X-27623Y-148581D01*
X-27560Y-148825D01*
X-27506Y-149078D01*
X-27461Y-149321D01*
X-27425Y-149555D01*
X-27398Y-149781D01*
X-27380Y-149997D01*
X-27362Y-150187D01*
X-27353Y-150349D01*
Y-150493D01*
X-27344Y-150547D01*
Y-150592D01*
Y-150628D01*
Y-150655D01*
Y-150674D01*
Y-150682D01*
X-27353Y-151061D01*
X-27371Y-151404D01*
X-27407Y-151728D01*
X-27443Y-152026D01*
X-27497Y-152296D01*
X-27551Y-152540D01*
X-27614Y-152765D01*
X-27678Y-152964D01*
X-27732Y-153135D01*
X-27795Y-153279D01*
X-27849Y-153406D01*
X-27903Y-153505D01*
X-27939Y-153586D01*
X-27975Y-153640D01*
X-27993Y-153676D01*
X-28002Y-153685D01*
X-28137Y-153848D01*
X-28282Y-153992D01*
X-28426Y-154118D01*
X-28588Y-154226D01*
X-28751Y-154307D01*
X-28913Y-154389D01*
X-29075Y-154452D01*
X-29228Y-154497D01*
X-29373Y-154533D01*
X-29508Y-154569D01*
X-29634Y-154587D01*
X-29742Y-154596D01*
X-29824Y-154605D01*
X-29896Y-154614D01*
X-29950D01*
X-30175Y-154605D01*
X-30392Y-154578D01*
X-30590Y-154524D01*
X-30779Y-154470D01*
X-30951Y-154397D01*
X-31113Y-154316D01*
X-31248Y-154235D01*
X-31384Y-154145D01*
X-31492Y-154064D01*
X-31591Y-153983D01*
X-31681Y-153902D01*
X-31744Y-153829D01*
X-31798Y-153766D01*
X-31843Y-153721D01*
X-31861Y-153694D01*
X-31870Y-153685D01*
X-31988Y-153496D01*
X-32096Y-153288D01*
X-32186Y-153063D01*
X-32258Y-152819D01*
X-32330Y-152576D01*
X-32384Y-152324D01*
X-32429Y-152071D01*
X-32466Y-151828D01*
X-32492Y-151602D01*
X-32511Y-151386D01*
X-32529Y-151187D01*
X-32538Y-151016D01*
X-32547Y-150881D01*
Y-150818D01*
Y-150773D01*
Y-150737D01*
Y-150710D01*
Y-150691D01*
Y-150682D01*
X-32538Y-150322D01*
X-32520Y-149979D01*
X-32483Y-149673D01*
X-32448Y-149375D01*
X-32393Y-149114D01*
X-32339Y-148870D01*
X-32285Y-148654D01*
X-32222Y-148455D01*
X-32159Y-148284D01*
X-32105Y-148131D01*
X-32051Y-148013D01*
X-31997Y-147905D01*
X-31960Y-147824D01*
X-31925Y-147770D01*
X-31906Y-147734D01*
X-31897Y-147725D01*
X-31771Y-147554D01*
X-31627Y-147400D01*
X-31483Y-147274D01*
X-31320Y-147166D01*
X-31158Y-147067D01*
X-30996Y-146986D01*
X-30833Y-146922D01*
X-30671Y-146868D01*
X-30527Y-146832D01*
X-30383Y-146805D01*
X-30256Y-146778D01*
X-30148Y-146769D01*
X-30058Y-146760D01*
X-29986Y-146751D01*
X-29932D01*
X-29697Y-146760D01*
D02*
G37*
G36*
X32011Y-52000D02*
X30191D01*
X30180Y-46506D01*
Y-46472D01*
Y-46461D01*
X30168Y-46450D01*
X30135Y-46428D01*
X27571D01*
X27527Y-46439D01*
X27516Y-46450D01*
X27505Y-46461D01*
X27494Y-46483D01*
Y-46494D01*
Y-46506D01*
Y-52000D01*
X25673D01*
Y-46506D01*
Y-46472D01*
X25662Y-46461D01*
X25651Y-46450D01*
X25607Y-46428D01*
X23065D01*
X23009Y-46439D01*
X22998Y-46450D01*
X22987Y-46461D01*
Y-46483D01*
Y-46494D01*
Y-46506D01*
X22976Y-52000D01*
X21178D01*
Y-46417D01*
X21189Y-46239D01*
X21211Y-46073D01*
X21255Y-45917D01*
X21300Y-45784D01*
X21344Y-45673D01*
X21389Y-45584D01*
X21411Y-45540D01*
X21422Y-45518D01*
X21511Y-45373D01*
X21622Y-45240D01*
X21733Y-45129D01*
X21833Y-45040D01*
X21921Y-44963D01*
X21999Y-44907D01*
X22043Y-44874D01*
X22066Y-44863D01*
X22221Y-44785D01*
X22388Y-44718D01*
X22532Y-44674D01*
X22676Y-44652D01*
X22798Y-44630D01*
X22898Y-44619D01*
X32011D01*
Y-52000D01*
D02*
G37*
G36*
X17959Y-44630D02*
X18125Y-44652D01*
X18281Y-44696D01*
X18414Y-44741D01*
X18525Y-44785D01*
X18603Y-44830D01*
X18658Y-44852D01*
X18680Y-44863D01*
X18824Y-44963D01*
X18947Y-45063D01*
X19058Y-45174D01*
X19158Y-45285D01*
X19235Y-45373D01*
X19291Y-45451D01*
X19324Y-45496D01*
X19335Y-45518D01*
X19413Y-45673D01*
X19479Y-45828D01*
X19524Y-45984D01*
X19546Y-46117D01*
X19568Y-46239D01*
X19579Y-46339D01*
Y-46395D01*
Y-46406D01*
Y-46417D01*
Y-50213D01*
X19568Y-50391D01*
X19546Y-50557D01*
X19502Y-50701D01*
X19457Y-50834D01*
X19413Y-50946D01*
X19368Y-51034D01*
X19346Y-51079D01*
X19335Y-51101D01*
X19235Y-51245D01*
X19124Y-51378D01*
X19013Y-51489D01*
X18913Y-51578D01*
X18824Y-51656D01*
X18747Y-51711D01*
X18702Y-51745D01*
X18680Y-51756D01*
X18525Y-51834D01*
X18369Y-51900D01*
X18214Y-51944D01*
X18081Y-51967D01*
X17959Y-51989D01*
X17859Y-52000D01*
X13885D01*
X13696Y-51989D01*
X13530Y-51967D01*
X13375Y-51922D01*
X13241Y-51878D01*
X13130Y-51834D01*
X13042Y-51789D01*
X12997Y-51767D01*
X12975Y-51756D01*
X12831Y-51656D01*
X12709Y-51545D01*
X12598Y-51445D01*
X12498Y-51334D01*
X12431Y-51245D01*
X12376Y-51167D01*
X12342Y-51123D01*
X12331Y-51101D01*
X12242Y-50946D01*
X12187Y-50790D01*
X12142Y-50635D01*
X12109Y-50501D01*
X12098Y-50391D01*
X12087Y-50291D01*
Y-50235D01*
Y-50213D01*
Y-46417D01*
X12098Y-46239D01*
X12120Y-46073D01*
X12165Y-45917D01*
X12198Y-45784D01*
X12242Y-45673D01*
X12287Y-45584D01*
X12309Y-45540D01*
X12320Y-45518D01*
X12409Y-45373D01*
X12520Y-45240D01*
X12631Y-45129D01*
X12731Y-45029D01*
X12820Y-44963D01*
X12897Y-44907D01*
X12942Y-44874D01*
X12964Y-44863D01*
X13119Y-44785D01*
X13286Y-44718D01*
X13430Y-44674D01*
X13574Y-44652D01*
X13696Y-44630D01*
X13796Y-44619D01*
X17781D01*
X17959Y-44630D01*
D02*
G37*
G36*
X5416Y-44619D02*
X9301D01*
X9490Y-44630D01*
X9656Y-44652D01*
X9811Y-44696D01*
X9956Y-44741D01*
X10067Y-44785D01*
X10144Y-44830D01*
X10200Y-44852D01*
X10222Y-44863D01*
X10366Y-44963D01*
X10489Y-45063D01*
X10600Y-45174D01*
X10688Y-45285D01*
X10766Y-45373D01*
X10822Y-45451D01*
X10855Y-45496D01*
X10866Y-45518D01*
X10944Y-45673D01*
X11010Y-45828D01*
X11055Y-45984D01*
X11077Y-46117D01*
X11099Y-46239D01*
X11110Y-46339D01*
Y-46395D01*
Y-46406D01*
Y-46417D01*
Y-50213D01*
X11099Y-50391D01*
X11077Y-50557D01*
X11033Y-50701D01*
X10988Y-50846D01*
X10944Y-50957D01*
X10899Y-51034D01*
X10877Y-51090D01*
X10866Y-51112D01*
X10766Y-51256D01*
X10666Y-51389D01*
X10555Y-51501D01*
X10455Y-51589D01*
X10366Y-51667D01*
X10289Y-51722D01*
X10244Y-51756D01*
X10222Y-51767D01*
X10067Y-51845D01*
X9900Y-51900D01*
X9745Y-51944D01*
X9612Y-51967D01*
X9478Y-51989D01*
X9390Y-52000D01*
X3607D01*
X3596Y-42199D01*
X5416D01*
Y-44619D01*
D02*
G37*
G36*
X-3086D02*
X799D01*
X987Y-44630D01*
X1154Y-44652D01*
X1309Y-44696D01*
X1453Y-44741D01*
X1564Y-44785D01*
X1642Y-44830D01*
X1698Y-44852D01*
X1720Y-44863D01*
X1864Y-44963D01*
X1986Y-45063D01*
X2097Y-45174D01*
X2186Y-45285D01*
X2264Y-45373D01*
X2319Y-45451D01*
X2352Y-45496D01*
X2363Y-45518D01*
X2441Y-45673D01*
X2508Y-45828D01*
X2552Y-45984D01*
X2574Y-46117D01*
X2597Y-46239D01*
X2608Y-46339D01*
Y-46395D01*
Y-46406D01*
Y-46417D01*
Y-50213D01*
X2597Y-50391D01*
X2574Y-50557D01*
X2530Y-50701D01*
X2486Y-50846D01*
X2441Y-50957D01*
X2397Y-51034D01*
X2375Y-51090D01*
X2363Y-51112D01*
X2264Y-51256D01*
X2164Y-51389D01*
X2053Y-51501D01*
X1953Y-51589D01*
X1864Y-51667D01*
X1786Y-51722D01*
X1742Y-51756D01*
X1720Y-51767D01*
X1564Y-51845D01*
X1398Y-51900D01*
X1243Y-51944D01*
X1109Y-51967D01*
X976Y-51989D01*
X887Y-52000D01*
X-4896D01*
X-4907Y-42199D01*
X-3086D01*
Y-44619D01*
D02*
G37*
G36*
X-7871Y-44630D02*
X-7704Y-44652D01*
X-7549Y-44696D01*
X-7415Y-44741D01*
X-7304Y-44785D01*
X-7227Y-44830D01*
X-7171Y-44852D01*
X-7149Y-44863D01*
X-7005Y-44963D01*
X-6883Y-45063D01*
X-6772Y-45174D01*
X-6672Y-45285D01*
X-6594Y-45373D01*
X-6539Y-45451D01*
X-6505Y-45496D01*
X-6494Y-45518D01*
X-6416Y-45673D01*
X-6350Y-45828D01*
X-6305Y-45984D01*
X-6283Y-46117D01*
X-6261Y-46239D01*
X-6250Y-46339D01*
Y-46395D01*
Y-46406D01*
Y-46417D01*
Y-50213D01*
X-6261Y-50391D01*
X-6283Y-50557D01*
X-6328Y-50701D01*
X-6372Y-50834D01*
X-6416Y-50946D01*
X-6461Y-51034D01*
X-6483Y-51079D01*
X-6494Y-51101D01*
X-6594Y-51245D01*
X-6705Y-51378D01*
X-6816Y-51489D01*
X-6916Y-51578D01*
X-7005Y-51656D01*
X-7082Y-51711D01*
X-7127Y-51745D01*
X-7149Y-51756D01*
X-7304Y-51834D01*
X-7460Y-51900D01*
X-7615Y-51944D01*
X-7748Y-51967D01*
X-7871Y-51989D01*
X-7970Y-52000D01*
X-11944D01*
X-12133Y-51989D01*
X-12299Y-51967D01*
X-12455Y-51922D01*
X-12588Y-51878D01*
X-12699Y-51834D01*
X-12788Y-51789D01*
X-12832Y-51767D01*
X-12854Y-51756D01*
X-12999Y-51656D01*
X-13121Y-51545D01*
X-13232Y-51445D01*
X-13332Y-51334D01*
X-13398Y-51245D01*
X-13454Y-51167D01*
X-13487Y-51123D01*
X-13498Y-51101D01*
X-13587Y-50946D01*
X-13642Y-50790D01*
X-13687Y-50635D01*
X-13720Y-50501D01*
X-13731Y-50391D01*
X-13742Y-50291D01*
Y-50235D01*
Y-50213D01*
Y-46417D01*
X-13731Y-46239D01*
X-13709Y-46073D01*
X-13665Y-45917D01*
X-13631Y-45784D01*
X-13587Y-45673D01*
X-13542Y-45584D01*
X-13520Y-45540D01*
X-13509Y-45518D01*
X-13420Y-45373D01*
X-13309Y-45240D01*
X-13198Y-45129D01*
X-13098Y-45029D01*
X-13010Y-44963D01*
X-12932Y-44907D01*
X-12888Y-44874D01*
X-12865Y-44863D01*
X-12710Y-44785D01*
X-12543Y-44718D01*
X-12399Y-44674D01*
X-12255Y-44652D01*
X-12133Y-44630D01*
X-12033Y-44619D01*
X-8048D01*
X-7871Y-44630D01*
D02*
G37*
G36*
X122984Y-36977D02*
X123109Y-37185D01*
X123242Y-37377D01*
X123375Y-37527D01*
X123442Y-37602D01*
X123492Y-37660D01*
X123550Y-37710D01*
X123592Y-37752D01*
X123634Y-37785D01*
X123659Y-37810D01*
X123675Y-37818D01*
X123684Y-37827D01*
X123900Y-37977D01*
X124117Y-38118D01*
X124342Y-38243D01*
X124550Y-38352D01*
X124642Y-38393D01*
X124725Y-38435D01*
X124808Y-38468D01*
X124875Y-38501D01*
X124925Y-38518D01*
X124967Y-38535D01*
X124992Y-38551D01*
X125000D01*
Y-39776D01*
X124817Y-39718D01*
X124633Y-39660D01*
X124467Y-39585D01*
X124317Y-39518D01*
X124192Y-39460D01*
X124134Y-39434D01*
X124092Y-39409D01*
X124059Y-39393D01*
X124034Y-39376D01*
X124017Y-39368D01*
X124009D01*
X123834Y-39260D01*
X123667Y-39151D01*
X123517Y-39051D01*
X123392Y-38951D01*
X123292Y-38868D01*
X123217Y-38801D01*
X123167Y-38760D01*
X123151Y-38743D01*
Y-43875D01*
X121768D01*
Y-36735D01*
X122875D01*
X122984Y-36977D01*
D02*
G37*
G36*
X117544Y-36744D02*
X117744Y-36777D01*
X117927Y-36818D01*
X118102Y-36877D01*
X118260Y-36944D01*
X118410Y-37018D01*
X118543Y-37093D01*
X118660Y-37177D01*
X118760Y-37260D01*
X118852Y-37343D01*
X118935Y-37418D01*
X118993Y-37485D01*
X119043Y-37543D01*
X119085Y-37585D01*
X119101Y-37618D01*
X119110Y-37627D01*
X119218Y-37802D01*
X119310Y-38001D01*
X119393Y-38210D01*
X119460Y-38426D01*
X119518Y-38651D01*
X119568Y-38885D01*
X119610Y-39110D01*
X119643Y-39326D01*
X119668Y-39534D01*
X119685Y-39734D01*
X119701Y-39909D01*
X119710Y-40059D01*
Y-40193D01*
X119718Y-40243D01*
Y-40284D01*
Y-40318D01*
Y-40343D01*
Y-40359D01*
Y-40368D01*
X119710Y-40718D01*
X119693Y-41034D01*
X119660Y-41334D01*
X119626Y-41609D01*
X119576Y-41859D01*
X119526Y-42084D01*
X119468Y-42292D01*
X119410Y-42475D01*
X119360Y-42634D01*
X119302Y-42767D01*
X119251Y-42884D01*
X119201Y-42975D01*
X119168Y-43050D01*
X119135Y-43100D01*
X119118Y-43134D01*
X119110Y-43142D01*
X118985Y-43292D01*
X118852Y-43425D01*
X118718Y-43542D01*
X118568Y-43642D01*
X118418Y-43717D01*
X118268Y-43792D01*
X118118Y-43850D01*
X117977Y-43892D01*
X117844Y-43925D01*
X117718Y-43958D01*
X117602Y-43975D01*
X117502Y-43983D01*
X117427Y-43992D01*
X117360Y-44000D01*
X117310D01*
X117102Y-43992D01*
X116902Y-43967D01*
X116719Y-43917D01*
X116544Y-43867D01*
X116385Y-43800D01*
X116236Y-43725D01*
X116111Y-43650D01*
X115986Y-43567D01*
X115886Y-43492D01*
X115794Y-43417D01*
X115711Y-43342D01*
X115652Y-43275D01*
X115602Y-43217D01*
X115561Y-43175D01*
X115544Y-43150D01*
X115536Y-43142D01*
X115428Y-42967D01*
X115328Y-42775D01*
X115244Y-42567D01*
X115177Y-42342D01*
X115111Y-42117D01*
X115061Y-41884D01*
X115019Y-41651D01*
X114986Y-41426D01*
X114961Y-41217D01*
X114944Y-41017D01*
X114928Y-40834D01*
X114919Y-40676D01*
X114911Y-40551D01*
Y-40493D01*
Y-40451D01*
Y-40418D01*
Y-40393D01*
Y-40376D01*
Y-40368D01*
X114919Y-40034D01*
X114936Y-39718D01*
X114969Y-39434D01*
X115003Y-39160D01*
X115053Y-38918D01*
X115103Y-38693D01*
X115153Y-38493D01*
X115211Y-38310D01*
X115269Y-38152D01*
X115319Y-38010D01*
X115369Y-37902D01*
X115419Y-37802D01*
X115452Y-37727D01*
X115486Y-37677D01*
X115502Y-37643D01*
X115511Y-37635D01*
X115627Y-37477D01*
X115761Y-37335D01*
X115894Y-37218D01*
X116044Y-37118D01*
X116194Y-37027D01*
X116344Y-36952D01*
X116494Y-36893D01*
X116644Y-36844D01*
X116777Y-36810D01*
X116910Y-36785D01*
X117027Y-36760D01*
X117127Y-36752D01*
X117210Y-36744D01*
X117277Y-36735D01*
X117327D01*
X117544Y-36744D01*
D02*
G37*
G36*
X-119208Y-36777D02*
X-119050Y-36785D01*
X-118899Y-36810D01*
X-118758Y-36844D01*
X-118625Y-36877D01*
X-118500Y-36918D01*
X-118383Y-36960D01*
X-118283Y-37002D01*
X-118191Y-37043D01*
X-118108Y-37085D01*
X-118041Y-37127D01*
X-117983Y-37160D01*
X-117933Y-37193D01*
X-117900Y-37218D01*
X-117883Y-37227D01*
X-117875Y-37235D01*
X-117767Y-37327D01*
X-117675Y-37427D01*
X-117583Y-37535D01*
X-117508Y-37652D01*
X-117375Y-37877D01*
X-117267Y-38101D01*
X-117225Y-38210D01*
X-117192Y-38310D01*
X-117167Y-38401D01*
X-117142Y-38476D01*
X-117125Y-38535D01*
X-117108Y-38585D01*
X-117100Y-38618D01*
Y-38626D01*
X-118400Y-38851D01*
X-118425Y-38701D01*
X-118466Y-38560D01*
X-118516Y-38443D01*
X-118566Y-38343D01*
X-118616Y-38268D01*
X-118658Y-38210D01*
X-118691Y-38177D01*
X-118700Y-38168D01*
X-118799Y-38085D01*
X-118908Y-38018D01*
X-119016Y-37977D01*
X-119116Y-37943D01*
X-119208Y-37927D01*
X-119274Y-37910D01*
X-119341D01*
X-119474Y-37918D01*
X-119591Y-37943D01*
X-119699Y-37977D01*
X-119783Y-38010D01*
X-119849Y-38052D01*
X-119899Y-38085D01*
X-119933Y-38110D01*
X-119941Y-38118D01*
X-120016Y-38201D01*
X-120074Y-38293D01*
X-120107Y-38385D01*
X-120141Y-38476D01*
X-120157Y-38560D01*
X-120166Y-38626D01*
Y-38668D01*
Y-38676D01*
Y-38685D01*
X-120149Y-38843D01*
X-120116Y-38985D01*
X-120057Y-39101D01*
X-119999Y-39193D01*
X-119941Y-39268D01*
X-119883Y-39326D01*
X-119849Y-39360D01*
X-119833Y-39368D01*
X-119766Y-39409D01*
X-119699Y-39443D01*
X-119533Y-39501D01*
X-119366Y-39543D01*
X-119191Y-39568D01*
X-119041Y-39585D01*
X-118975Y-39593D01*
X-118916Y-39601D01*
X-118799D01*
X-118658Y-40651D01*
X-119299D01*
X-119416Y-40659D01*
X-119524Y-40668D01*
X-119616Y-40693D01*
X-119699Y-40718D01*
X-119766Y-40743D01*
X-119816Y-40759D01*
X-119849Y-40776D01*
X-119858Y-40784D01*
X-119941Y-40834D01*
X-120016Y-40901D01*
X-120083Y-40959D01*
X-120133Y-41017D01*
X-120174Y-41076D01*
X-120208Y-41117D01*
X-120224Y-41151D01*
X-120232Y-41159D01*
X-120274Y-41251D01*
X-120308Y-41351D01*
X-120332Y-41442D01*
X-120349Y-41526D01*
X-120358Y-41601D01*
X-120366Y-41659D01*
Y-41692D01*
Y-41709D01*
X-120358Y-41826D01*
X-120349Y-41934D01*
X-120324Y-42034D01*
X-120308Y-42117D01*
X-120282Y-42192D01*
X-120258Y-42242D01*
X-120249Y-42284D01*
X-120241Y-42292D01*
X-120191Y-42384D01*
X-120133Y-42467D01*
X-120074Y-42542D01*
X-120016Y-42600D01*
X-119966Y-42650D01*
X-119924Y-42684D01*
X-119899Y-42709D01*
X-119891Y-42717D01*
X-119808Y-42767D01*
X-119716Y-42800D01*
X-119633Y-42834D01*
X-119549Y-42850D01*
X-119483Y-42859D01*
X-119424Y-42867D01*
X-119374D01*
X-119224Y-42859D01*
X-119083Y-42825D01*
X-118966Y-42784D01*
X-118866Y-42734D01*
X-118791Y-42692D01*
X-118733Y-42650D01*
X-118691Y-42617D01*
X-118683Y-42609D01*
X-118591Y-42500D01*
X-118525Y-42375D01*
X-118466Y-42242D01*
X-118425Y-42117D01*
X-118391Y-42009D01*
X-118375Y-41917D01*
X-118366Y-41884D01*
X-118358Y-41859D01*
Y-41842D01*
Y-41834D01*
X-117000Y-41992D01*
X-117042Y-42225D01*
X-117100Y-42442D01*
X-117167Y-42625D01*
X-117233Y-42792D01*
X-117267Y-42859D01*
X-117300Y-42917D01*
X-117333Y-42975D01*
X-117358Y-43017D01*
X-117375Y-43050D01*
X-117392Y-43075D01*
X-117408Y-43092D01*
Y-43100D01*
X-117542Y-43259D01*
X-117675Y-43392D01*
X-117816Y-43509D01*
X-117950Y-43608D01*
X-118066Y-43683D01*
X-118158Y-43733D01*
X-118191Y-43750D01*
X-118216Y-43767D01*
X-118233Y-43775D01*
X-118241D01*
X-118433Y-43850D01*
X-118633Y-43908D01*
X-118825Y-43942D01*
X-119000Y-43975D01*
X-119158Y-43992D01*
X-119224D01*
X-119274Y-44000D01*
X-119383D01*
X-119649Y-43992D01*
X-119899Y-43958D01*
X-120116Y-43917D01*
X-120216Y-43892D01*
X-120299Y-43867D01*
X-120382Y-43850D01*
X-120457Y-43825D01*
X-120516Y-43800D01*
X-120566Y-43783D01*
X-120607Y-43767D01*
X-120641Y-43750D01*
X-120657Y-43742D01*
X-120666D01*
X-120857Y-43633D01*
X-121024Y-43509D01*
X-121166Y-43383D01*
X-121282Y-43259D01*
X-121382Y-43150D01*
X-121449Y-43059D01*
X-121466Y-43025D01*
X-121482Y-43000D01*
X-121499Y-42984D01*
Y-42975D01*
X-121599Y-42775D01*
X-121665Y-42575D01*
X-121715Y-42367D01*
X-121757Y-42184D01*
X-121765Y-42092D01*
X-121774Y-42017D01*
X-121782Y-41942D01*
Y-41884D01*
X-121790Y-41834D01*
Y-41801D01*
Y-41776D01*
Y-41767D01*
Y-41651D01*
X-121774Y-41542D01*
X-121732Y-41334D01*
X-121674Y-41142D01*
X-121607Y-40984D01*
X-121540Y-40859D01*
X-121507Y-40809D01*
X-121482Y-40767D01*
X-121457Y-40726D01*
X-121440Y-40701D01*
X-121432Y-40693D01*
X-121424Y-40684D01*
X-121274Y-40526D01*
X-121116Y-40401D01*
X-120949Y-40301D01*
X-120782Y-40226D01*
X-120641Y-40168D01*
X-120574Y-40143D01*
X-120524Y-40126D01*
X-120482Y-40118D01*
X-120441Y-40109D01*
X-120424Y-40101D01*
X-120416D01*
X-120616Y-40009D01*
X-120791Y-39918D01*
X-120941Y-39809D01*
X-121057Y-39718D01*
X-121149Y-39626D01*
X-121216Y-39560D01*
X-121249Y-39509D01*
X-121266Y-39501D01*
Y-39493D01*
X-121357Y-39343D01*
X-121432Y-39185D01*
X-121482Y-39035D01*
X-121516Y-38893D01*
X-121532Y-38776D01*
X-121549Y-38685D01*
Y-38651D01*
Y-38626D01*
Y-38610D01*
Y-38601D01*
X-121540Y-38410D01*
X-121507Y-38226D01*
X-121466Y-38068D01*
X-121416Y-37927D01*
X-121365Y-37818D01*
X-121324Y-37735D01*
X-121307Y-37702D01*
X-121291Y-37677D01*
X-121282Y-37668D01*
Y-37660D01*
X-121174Y-37510D01*
X-121049Y-37385D01*
X-120924Y-37268D01*
X-120807Y-37177D01*
X-120691Y-37102D01*
X-120607Y-37052D01*
X-120574Y-37035D01*
X-120549Y-37018D01*
X-120532Y-37010D01*
X-120524D01*
X-120332Y-36927D01*
X-120141Y-36869D01*
X-119941Y-36827D01*
X-119766Y-36802D01*
X-119608Y-36777D01*
X-119541D01*
X-119483Y-36769D01*
X-119374D01*
X-119208Y-36777D01*
D02*
G37*
G36*
X84000Y-38268D02*
X80892D01*
X81076Y-38501D01*
X81242Y-38743D01*
X81401Y-38985D01*
X81551Y-39218D01*
X81684Y-39451D01*
X81817Y-39685D01*
X81934Y-39901D01*
X82034Y-40101D01*
X82126Y-40293D01*
X82209Y-40468D01*
X82284Y-40626D01*
X82334Y-40759D01*
X82384Y-40859D01*
X82417Y-40943D01*
X82434Y-40992D01*
X82442Y-41001D01*
Y-41009D01*
X82542Y-41284D01*
X82634Y-41567D01*
X82709Y-41842D01*
X82775Y-42109D01*
X82834Y-42367D01*
X82884Y-42609D01*
X82917Y-42842D01*
X82950Y-43067D01*
X82984Y-43267D01*
X83000Y-43450D01*
X83017Y-43608D01*
X83025Y-43742D01*
X83034Y-43850D01*
X83042Y-43933D01*
Y-43983D01*
Y-43992D01*
Y-44000D01*
X81659D01*
X81651Y-43692D01*
X81626Y-43383D01*
X81592Y-43075D01*
X81542Y-42784D01*
X81492Y-42500D01*
X81434Y-42225D01*
X81376Y-41967D01*
X81309Y-41726D01*
X81251Y-41501D01*
X81184Y-41301D01*
X81134Y-41126D01*
X81076Y-40976D01*
X81034Y-40859D01*
X81017Y-40809D01*
X81001Y-40767D01*
X80992Y-40734D01*
X80984Y-40709D01*
X80976Y-40701D01*
Y-40693D01*
X80843Y-40384D01*
X80701Y-40084D01*
X80559Y-39809D01*
X80418Y-39551D01*
X80276Y-39309D01*
X80134Y-39085D01*
X80001Y-38885D01*
X79868Y-38701D01*
X79751Y-38535D01*
X79634Y-38393D01*
X79535Y-38268D01*
X79451Y-38168D01*
X79384Y-38085D01*
X79326Y-38035D01*
X79293Y-37993D01*
X79285Y-37985D01*
Y-36994D01*
X84000D01*
Y-38268D01*
D02*
G37*
G36*
X143485Y-36869D02*
X143668Y-36885D01*
X143835Y-36910D01*
X143994Y-36944D01*
X144143Y-36985D01*
X144277Y-37027D01*
X144402Y-37077D01*
X144518Y-37118D01*
X144618Y-37168D01*
X144710Y-37218D01*
X144785Y-37260D01*
X144852Y-37302D01*
X144902Y-37335D01*
X144935Y-37360D01*
X144960Y-37377D01*
X144968Y-37385D01*
X145085Y-37485D01*
X145185Y-37602D01*
X145276Y-37727D01*
X145351Y-37852D01*
X145426Y-37985D01*
X145485Y-38118D01*
X145535Y-38243D01*
X145576Y-38377D01*
X145618Y-38493D01*
X145643Y-38610D01*
X145668Y-38710D01*
X145685Y-38801D01*
X145693Y-38876D01*
X145701Y-38926D01*
X145710Y-38968D01*
Y-38976D01*
X144302Y-39110D01*
Y-39101D01*
X144277Y-38901D01*
X144243Y-38735D01*
X144202Y-38593D01*
X144152Y-38476D01*
X144110Y-38393D01*
X144068Y-38326D01*
X144044Y-38285D01*
X144035Y-38277D01*
X143935Y-38185D01*
X143827Y-38118D01*
X143710Y-38068D01*
X143594Y-38035D01*
X143494Y-38018D01*
X143410Y-38001D01*
X143335D01*
X143194Y-38010D01*
X143069Y-38043D01*
X142960Y-38077D01*
X142869Y-38126D01*
X142802Y-38168D01*
X142752Y-38210D01*
X142719Y-38243D01*
X142711Y-38252D01*
X142635Y-38352D01*
X142577Y-38460D01*
X142535Y-38576D01*
X142502Y-38685D01*
X142486Y-38785D01*
X142477Y-38868D01*
Y-38901D01*
Y-38926D01*
Y-38935D01*
Y-38943D01*
X142486Y-39060D01*
X142494Y-39176D01*
X142519Y-39285D01*
X142552Y-39393D01*
X142627Y-39585D01*
X142719Y-39751D01*
X142760Y-39826D01*
X142810Y-39893D01*
X142852Y-39943D01*
X142885Y-39993D01*
X142919Y-40026D01*
X142935Y-40051D01*
X142952Y-40068D01*
X142960Y-40076D01*
X143177Y-40293D01*
X143285Y-40393D01*
X143377Y-40493D01*
X143460Y-40568D01*
X143519Y-40626D01*
X143560Y-40668D01*
X143577Y-40684D01*
X143785Y-40884D01*
X143977Y-41067D01*
X144135Y-41226D01*
X144277Y-41367D01*
X144393Y-41484D01*
X144477Y-41567D01*
X144502Y-41601D01*
X144527Y-41626D01*
X144535Y-41634D01*
X144543Y-41642D01*
X144685Y-41792D01*
X144810Y-41942D01*
X144927Y-42084D01*
X145035Y-42209D01*
X145118Y-42317D01*
X145176Y-42400D01*
X145202Y-42434D01*
X145218Y-42459D01*
X145235Y-42467D01*
Y-42475D01*
X145326Y-42609D01*
X145401Y-42734D01*
X145476Y-42867D01*
X145535Y-43000D01*
X145635Y-43259D01*
X145710Y-43492D01*
X145743Y-43600D01*
X145768Y-43700D01*
X145785Y-43783D01*
X145793Y-43858D01*
X145810Y-43917D01*
Y-43958D01*
X145818Y-43992D01*
Y-44000D01*
X141053D01*
Y-42734D01*
X143760D01*
X143719Y-42667D01*
X143660Y-42584D01*
X143585Y-42500D01*
X143510Y-42409D01*
X143327Y-42225D01*
X143144Y-42034D01*
X142960Y-41867D01*
X142885Y-41784D01*
X142810Y-41726D01*
X142752Y-41667D01*
X142711Y-41626D01*
X142677Y-41601D01*
X142669Y-41592D01*
X142460Y-41401D01*
X142269Y-41217D01*
X142111Y-41051D01*
X141977Y-40901D01*
X141869Y-40776D01*
X141827Y-40726D01*
X141794Y-40684D01*
X141761Y-40651D01*
X141744Y-40626D01*
X141727Y-40617D01*
Y-40609D01*
X141602Y-40443D01*
X141494Y-40284D01*
X141403Y-40134D01*
X141336Y-40009D01*
X141278Y-39901D01*
X141244Y-39818D01*
X141228Y-39784D01*
X141219Y-39759D01*
X141211Y-39751D01*
Y-39743D01*
X141161Y-39585D01*
X141119Y-39426D01*
X141094Y-39276D01*
X141069Y-39143D01*
X141061Y-39026D01*
X141053Y-38935D01*
Y-38901D01*
Y-38876D01*
Y-38868D01*
Y-38860D01*
X141061Y-38660D01*
X141094Y-38468D01*
X141136Y-38293D01*
X141186Y-38143D01*
X141236Y-38026D01*
X141261Y-37977D01*
X141278Y-37927D01*
X141294Y-37893D01*
X141311Y-37868D01*
X141319Y-37860D01*
Y-37852D01*
X141427Y-37685D01*
X141552Y-37543D01*
X141686Y-37418D01*
X141811Y-37318D01*
X141927Y-37235D01*
X142019Y-37177D01*
X142052Y-37152D01*
X142077Y-37135D01*
X142094Y-37127D01*
X142102D01*
X142302Y-37035D01*
X142502Y-36969D01*
X142702Y-36927D01*
X142894Y-36893D01*
X142977Y-36885D01*
X143052Y-36877D01*
X143127Y-36869D01*
X143185Y-36860D01*
X143302D01*
X143485Y-36869D01*
D02*
G37*
G36*
X148984Y-37102D02*
X149109Y-37310D01*
X149242Y-37502D01*
X149375Y-37652D01*
X149442Y-37727D01*
X149492Y-37785D01*
X149550Y-37835D01*
X149592Y-37877D01*
X149634Y-37910D01*
X149659Y-37935D01*
X149675Y-37943D01*
X149684Y-37952D01*
X149900Y-38101D01*
X150117Y-38243D01*
X150342Y-38368D01*
X150550Y-38476D01*
X150642Y-38518D01*
X150725Y-38560D01*
X150808Y-38593D01*
X150875Y-38626D01*
X150925Y-38643D01*
X150967Y-38660D01*
X150992Y-38676D01*
X151000D01*
Y-39901D01*
X150817Y-39843D01*
X150633Y-39784D01*
X150467Y-39709D01*
X150317Y-39643D01*
X150192Y-39585D01*
X150134Y-39560D01*
X150092Y-39534D01*
X150059Y-39518D01*
X150034Y-39501D01*
X150017Y-39493D01*
X150009D01*
X149834Y-39385D01*
X149667Y-39276D01*
X149517Y-39176D01*
X149392Y-39076D01*
X149292Y-38993D01*
X149217Y-38926D01*
X149167Y-38885D01*
X149150Y-38868D01*
Y-44000D01*
X147767D01*
Y-36860D01*
X148876D01*
X148984Y-37102D01*
D02*
G37*
G36*
X106909Y-36752D02*
X107142Y-36785D01*
X107350Y-36835D01*
X107534Y-36893D01*
X107617Y-36927D01*
X107684Y-36952D01*
X107750Y-36977D01*
X107800Y-37002D01*
X107842Y-37018D01*
X107867Y-37035D01*
X107884Y-37052D01*
X107892D01*
X108084Y-37177D01*
X108242Y-37318D01*
X108384Y-37468D01*
X108500Y-37602D01*
X108600Y-37727D01*
X108658Y-37827D01*
X108683Y-37868D01*
X108700Y-37893D01*
X108717Y-37910D01*
Y-37918D01*
X108808Y-38126D01*
X108883Y-38335D01*
X108933Y-38543D01*
X108967Y-38735D01*
X108975Y-38818D01*
X108983Y-38901D01*
X108992Y-38968D01*
Y-39026D01*
X109000Y-39076D01*
Y-39110D01*
Y-39135D01*
Y-39143D01*
X108992Y-39385D01*
X108958Y-39609D01*
X108917Y-39818D01*
X108867Y-39993D01*
X108850Y-40068D01*
X108825Y-40134D01*
X108800Y-40201D01*
X108783Y-40251D01*
X108767Y-40293D01*
X108750Y-40318D01*
X108742Y-40334D01*
Y-40343D01*
X108633Y-40526D01*
X108517Y-40693D01*
X108400Y-40834D01*
X108284Y-40951D01*
X108175Y-41042D01*
X108092Y-41109D01*
X108059Y-41134D01*
X108034Y-41151D01*
X108025Y-41167D01*
X108017D01*
X107834Y-41267D01*
X107659Y-41342D01*
X107475Y-41392D01*
X107317Y-41426D01*
X107176Y-41451D01*
X107117Y-41459D01*
X107067D01*
X107025Y-41467D01*
X106967D01*
X106817Y-41459D01*
X106676Y-41442D01*
X106534Y-41417D01*
X106409Y-41376D01*
X106292Y-41334D01*
X106192Y-41284D01*
X106092Y-41226D01*
X106001Y-41176D01*
X105926Y-41117D01*
X105859Y-41067D01*
X105801Y-41017D01*
X105751Y-40976D01*
X105717Y-40934D01*
X105693Y-40909D01*
X105676Y-40893D01*
X105667Y-40884D01*
X105676Y-41067D01*
X105693Y-41234D01*
X105709Y-41392D01*
X105734Y-41542D01*
X105759Y-41676D01*
X105793Y-41801D01*
X105826Y-41917D01*
X105859Y-42034D01*
X105901Y-42134D01*
X105942Y-42225D01*
X106034Y-42384D01*
X106134Y-42517D01*
X106226Y-42617D01*
X106326Y-42700D01*
X106417Y-42759D01*
X106509Y-42809D01*
X106584Y-42834D01*
X106651Y-42850D01*
X106701Y-42867D01*
X106742D01*
X106859Y-42859D01*
X106959Y-42834D01*
X107051Y-42809D01*
X107126Y-42767D01*
X107184Y-42734D01*
X107226Y-42709D01*
X107250Y-42684D01*
X107259Y-42675D01*
X107325Y-42592D01*
X107375Y-42500D01*
X107417Y-42400D01*
X107459Y-42309D01*
X107484Y-42225D01*
X107500Y-42159D01*
X107517Y-42109D01*
Y-42092D01*
X108858Y-42234D01*
X108825Y-42425D01*
X108775Y-42600D01*
X108717Y-42767D01*
X108658Y-42900D01*
X108608Y-43009D01*
X108559Y-43092D01*
X108542Y-43125D01*
X108525Y-43150D01*
X108517Y-43159D01*
Y-43167D01*
X108408Y-43309D01*
X108292Y-43433D01*
X108175Y-43534D01*
X108059Y-43625D01*
X107959Y-43692D01*
X107884Y-43742D01*
X107850Y-43758D01*
X107825Y-43775D01*
X107817Y-43783D01*
X107809D01*
X107642Y-43858D01*
X107467Y-43908D01*
X107300Y-43950D01*
X107150Y-43975D01*
X107017Y-43992D01*
X106967D01*
X106917Y-44000D01*
X106826D01*
X106676Y-43992D01*
X106526Y-43983D01*
X106251Y-43933D01*
X106126Y-43900D01*
X106017Y-43867D01*
X105909Y-43833D01*
X105809Y-43792D01*
X105717Y-43750D01*
X105642Y-43717D01*
X105576Y-43683D01*
X105518Y-43650D01*
X105476Y-43625D01*
X105443Y-43600D01*
X105426Y-43592D01*
X105418Y-43583D01*
X105309Y-43500D01*
X105209Y-43408D01*
X105034Y-43208D01*
X104884Y-43000D01*
X104759Y-42800D01*
X104709Y-42709D01*
X104668Y-42617D01*
X104626Y-42534D01*
X104601Y-42467D01*
X104576Y-42409D01*
X104559Y-42367D01*
X104543Y-42342D01*
Y-42334D01*
X104493Y-42175D01*
X104443Y-42009D01*
X104368Y-41667D01*
X104318Y-41334D01*
X104293Y-41167D01*
X104276Y-41017D01*
X104268Y-40868D01*
X104260Y-40734D01*
X104251Y-40617D01*
Y-40518D01*
X104243Y-40434D01*
Y-40368D01*
Y-40334D01*
Y-40318D01*
X104251Y-39993D01*
X104268Y-39693D01*
X104301Y-39409D01*
X104343Y-39143D01*
X104384Y-38901D01*
X104443Y-38685D01*
X104493Y-38485D01*
X104551Y-38310D01*
X104609Y-38152D01*
X104668Y-38010D01*
X104726Y-37902D01*
X104768Y-37802D01*
X104809Y-37727D01*
X104843Y-37677D01*
X104859Y-37643D01*
X104868Y-37635D01*
X104993Y-37477D01*
X105118Y-37335D01*
X105259Y-37218D01*
X105409Y-37118D01*
X105551Y-37027D01*
X105701Y-36952D01*
X105851Y-36893D01*
X105992Y-36844D01*
X106126Y-36810D01*
X106251Y-36785D01*
X106359Y-36760D01*
X106459Y-36752D01*
X106542Y-36744D01*
X106601Y-36735D01*
X106651D01*
X106909Y-36752D01*
D02*
G37*
G36*
X-20989Y-44019D02*
X-22798D01*
Y-42199D01*
X-20989D01*
Y-44019D01*
D02*
G37*
G36*
Y-52000D02*
X-22798D01*
Y-44619D01*
X-20989D01*
Y-52000D01*
D02*
G37*
G36*
X-25484Y-44630D02*
X-25318Y-44652D01*
X-25162Y-44696D01*
X-25029Y-44741D01*
X-24918Y-44785D01*
X-24841Y-44830D01*
X-24785Y-44852D01*
X-24763Y-44863D01*
X-24618Y-44963D01*
X-24496Y-45063D01*
X-24385Y-45174D01*
X-24286Y-45285D01*
X-24208Y-45373D01*
X-24152Y-45451D01*
X-24119Y-45496D01*
X-24108Y-45518D01*
X-24030Y-45673D01*
X-23964Y-45828D01*
X-23919Y-45984D01*
X-23897Y-46117D01*
X-23875Y-46239D01*
X-23864Y-46339D01*
Y-46395D01*
Y-46406D01*
Y-46417D01*
Y-50213D01*
X-23875Y-50391D01*
X-23897Y-50557D01*
X-23942Y-50701D01*
X-23986Y-50834D01*
X-24030Y-50946D01*
X-24075Y-51034D01*
X-24097Y-51079D01*
X-24108Y-51101D01*
X-24208Y-51245D01*
X-24319Y-51378D01*
X-24430Y-51489D01*
X-24530Y-51578D01*
X-24618Y-51656D01*
X-24696Y-51711D01*
X-24741Y-51745D01*
X-24763Y-51756D01*
X-24918Y-51834D01*
X-25074Y-51900D01*
X-25229Y-51944D01*
X-25362Y-51967D01*
X-25484Y-51989D01*
X-25584Y-52000D01*
X-29558D01*
X-29747Y-51989D01*
X-29913Y-51967D01*
X-30069Y-51922D01*
X-30202Y-51878D01*
X-30313Y-51834D01*
X-30401Y-51789D01*
X-30446Y-51767D01*
X-30468Y-51756D01*
X-30612Y-51656D01*
X-30735Y-51545D01*
X-30845Y-51445D01*
X-30945Y-51334D01*
X-31012Y-51245D01*
X-31068Y-51167D01*
X-31101Y-51123D01*
X-31112Y-51101D01*
X-31201Y-50946D01*
X-31256Y-50790D01*
X-31301Y-50635D01*
X-31334Y-50501D01*
X-31345Y-50391D01*
X-31356Y-50291D01*
Y-50235D01*
Y-50213D01*
Y-46417D01*
X-31345Y-46239D01*
X-31323Y-46073D01*
X-31278Y-45917D01*
X-31245Y-45784D01*
X-31201Y-45673D01*
X-31156Y-45584D01*
X-31134Y-45540D01*
X-31123Y-45518D01*
X-31034Y-45373D01*
X-30923Y-45240D01*
X-30812Y-45129D01*
X-30712Y-45029D01*
X-30624Y-44963D01*
X-30546Y-44907D01*
X-30501Y-44874D01*
X-30479Y-44863D01*
X-30324Y-44785D01*
X-30157Y-44718D01*
X-30013Y-44674D01*
X-29869Y-44652D01*
X-29747Y-44630D01*
X-29647Y-44619D01*
X-25662D01*
X-25484Y-44630D01*
D02*
G37*
G36*
X-145016Y-37102D02*
X-144891Y-37310D01*
X-144758Y-37502D01*
X-144625Y-37652D01*
X-144558Y-37727D01*
X-144508Y-37785D01*
X-144450Y-37835D01*
X-144408Y-37877D01*
X-144366Y-37910D01*
X-144341Y-37935D01*
X-144325Y-37943D01*
X-144316Y-37952D01*
X-144100Y-38101D01*
X-143883Y-38243D01*
X-143658Y-38368D01*
X-143450Y-38476D01*
X-143358Y-38518D01*
X-143275Y-38560D01*
X-143192Y-38593D01*
X-143125Y-38626D01*
X-143075Y-38643D01*
X-143033Y-38660D01*
X-143008Y-38676D01*
X-143000D01*
Y-39901D01*
X-143183Y-39843D01*
X-143367Y-39784D01*
X-143533Y-39709D01*
X-143683Y-39643D01*
X-143808Y-39585D01*
X-143866Y-39560D01*
X-143908Y-39534D01*
X-143941Y-39518D01*
X-143966Y-39501D01*
X-143983Y-39493D01*
X-143991D01*
X-144166Y-39385D01*
X-144333Y-39276D01*
X-144483Y-39176D01*
X-144608Y-39076D01*
X-144708Y-38993D01*
X-144783Y-38926D01*
X-144833Y-38885D01*
X-144850Y-38868D01*
Y-44000D01*
X-146233D01*
Y-36860D01*
X-145124D01*
X-145016Y-37102D01*
D02*
G37*
G36*
X-81433Y-36744D02*
X-81283Y-36752D01*
X-81008Y-36802D01*
X-80883Y-36835D01*
X-80766Y-36869D01*
X-80658Y-36910D01*
X-80566Y-36944D01*
X-80475Y-36985D01*
X-80391Y-37027D01*
X-80325Y-37060D01*
X-80275Y-37093D01*
X-80225Y-37118D01*
X-80191Y-37143D01*
X-80175Y-37152D01*
X-80166Y-37160D01*
X-80058Y-37243D01*
X-79966Y-37335D01*
X-79791Y-37535D01*
X-79633Y-37743D01*
X-79517Y-37943D01*
X-79458Y-38035D01*
X-79417Y-38126D01*
X-79375Y-38201D01*
X-79350Y-38277D01*
X-79325Y-38326D01*
X-79308Y-38377D01*
X-79292Y-38401D01*
Y-38410D01*
X-79242Y-38568D01*
X-79192Y-38735D01*
X-79125Y-39076D01*
X-79075Y-39409D01*
X-79050Y-39576D01*
X-79033Y-39726D01*
X-79025Y-39876D01*
X-79017Y-40009D01*
X-79008Y-40126D01*
Y-40226D01*
X-79000Y-40309D01*
Y-40376D01*
Y-40409D01*
Y-40426D01*
X-79008Y-40751D01*
X-79025Y-41051D01*
X-79058Y-41334D01*
X-79100Y-41601D01*
X-79142Y-41834D01*
X-79192Y-42059D01*
X-79250Y-42259D01*
X-79308Y-42434D01*
X-79367Y-42592D01*
X-79425Y-42734D01*
X-79475Y-42842D01*
X-79517Y-42942D01*
X-79558Y-43017D01*
X-79591Y-43067D01*
X-79608Y-43100D01*
X-79616Y-43109D01*
X-79742Y-43267D01*
X-79866Y-43400D01*
X-80008Y-43525D01*
X-80158Y-43625D01*
X-80300Y-43708D01*
X-80450Y-43783D01*
X-80600Y-43842D01*
X-80741Y-43892D01*
X-80875Y-43925D01*
X-80999Y-43950D01*
X-81108Y-43975D01*
X-81208Y-43983D01*
X-81291Y-43992D01*
X-81349Y-44000D01*
X-81399D01*
X-81658Y-43983D01*
X-81891Y-43950D01*
X-82107Y-43900D01*
X-82282Y-43842D01*
X-82366Y-43817D01*
X-82432Y-43792D01*
X-82499Y-43767D01*
X-82549Y-43742D01*
X-82591Y-43717D01*
X-82616Y-43708D01*
X-82632Y-43692D01*
X-82641D01*
X-82832Y-43567D01*
X-82999Y-43425D01*
X-83132Y-43284D01*
X-83257Y-43142D01*
X-83349Y-43025D01*
X-83415Y-42925D01*
X-83432Y-42884D01*
X-83449Y-42859D01*
X-83465Y-42842D01*
Y-42834D01*
X-83566Y-42625D01*
X-83632Y-42409D01*
X-83682Y-42200D01*
X-83724Y-42009D01*
X-83732Y-41926D01*
X-83740Y-41842D01*
X-83749Y-41776D01*
Y-41717D01*
X-83757Y-41667D01*
Y-41634D01*
Y-41609D01*
Y-41601D01*
X-83749Y-41359D01*
X-83715Y-41134D01*
X-83674Y-40934D01*
X-83624Y-40751D01*
X-83599Y-40676D01*
X-83574Y-40609D01*
X-83549Y-40551D01*
X-83532Y-40501D01*
X-83516Y-40459D01*
X-83499Y-40434D01*
X-83490Y-40418D01*
Y-40409D01*
X-83382Y-40218D01*
X-83266Y-40051D01*
X-83149Y-39909D01*
X-83032Y-39793D01*
X-82924Y-39701D01*
X-82841Y-39634D01*
X-82807Y-39609D01*
X-82782Y-39593D01*
X-82774Y-39576D01*
X-82766D01*
X-82591Y-39476D01*
X-82408Y-39401D01*
X-82233Y-39343D01*
X-82074Y-39309D01*
X-81933Y-39285D01*
X-81874Y-39276D01*
X-81824D01*
X-81783Y-39268D01*
X-81724D01*
X-81574Y-39276D01*
X-81424Y-39293D01*
X-81291Y-39326D01*
X-81166Y-39360D01*
X-81049Y-39401D01*
X-80941Y-39451D01*
X-80850Y-39509D01*
X-80758Y-39560D01*
X-80683Y-39618D01*
X-80616Y-39676D01*
X-80558Y-39726D01*
X-80508Y-39768D01*
X-80475Y-39801D01*
X-80450Y-39834D01*
X-80433Y-39851D01*
X-80425Y-39859D01*
X-80433Y-39676D01*
X-80450Y-39509D01*
X-80466Y-39351D01*
X-80491Y-39201D01*
X-80516Y-39068D01*
X-80550Y-38943D01*
X-80583Y-38818D01*
X-80616Y-38710D01*
X-80658Y-38610D01*
X-80700Y-38518D01*
X-80791Y-38360D01*
X-80883Y-38226D01*
X-80983Y-38126D01*
X-81083Y-38043D01*
X-81174Y-37985D01*
X-81258Y-37935D01*
X-81333Y-37910D01*
X-81399Y-37893D01*
X-81449Y-37877D01*
X-81491D01*
X-81608Y-37885D01*
X-81716Y-37910D01*
X-81799Y-37943D01*
X-81874Y-37977D01*
X-81933Y-38010D01*
X-81974Y-38043D01*
X-81999Y-38068D01*
X-82008Y-38077D01*
X-82074Y-38160D01*
X-82133Y-38243D01*
X-82174Y-38343D01*
X-82207Y-38435D01*
X-82233Y-38518D01*
X-82249Y-38585D01*
X-82266Y-38635D01*
Y-38643D01*
Y-38651D01*
X-83616Y-38510D01*
X-83582Y-38318D01*
X-83532Y-38135D01*
X-83474Y-37977D01*
X-83415Y-37843D01*
X-83357Y-37735D01*
X-83307Y-37643D01*
X-83291Y-37618D01*
X-83274Y-37593D01*
X-83266Y-37585D01*
Y-37577D01*
X-83157Y-37435D01*
X-83041Y-37310D01*
X-82924Y-37202D01*
X-82807Y-37118D01*
X-82707Y-37052D01*
X-82632Y-37002D01*
X-82599Y-36985D01*
X-82574Y-36969D01*
X-82566Y-36960D01*
X-82557D01*
X-82391Y-36885D01*
X-82224Y-36827D01*
X-82058Y-36793D01*
X-81908Y-36760D01*
X-81774Y-36744D01*
X-81724D01*
X-81674Y-36735D01*
X-81583D01*
X-81433Y-36744D01*
D02*
G37*
%LPC*%
G36*
X94709Y-37835D02*
X94642D01*
X94501Y-37843D01*
X94376Y-37868D01*
X94276Y-37910D01*
X94184Y-37943D01*
X94109Y-37985D01*
X94059Y-38026D01*
X94026Y-38052D01*
X94017Y-38060D01*
X93934Y-38152D01*
X93876Y-38252D01*
X93834Y-38352D01*
X93809Y-38451D01*
X93784Y-38535D01*
X93776Y-38601D01*
Y-38651D01*
Y-38660D01*
Y-38668D01*
X93784Y-38768D01*
X93792Y-38860D01*
X93818Y-38943D01*
X93834Y-39010D01*
X93859Y-39068D01*
X93884Y-39110D01*
X93892Y-39135D01*
X93901Y-39143D01*
X93951Y-39210D01*
X94001Y-39276D01*
X94051Y-39326D01*
X94101Y-39368D01*
X94142Y-39401D01*
X94176Y-39426D01*
X94201Y-39434D01*
X94209Y-39443D01*
X94284Y-39476D01*
X94359Y-39493D01*
X94434Y-39509D01*
X94501Y-39526D01*
X94559D01*
X94601Y-39534D01*
X94642D01*
X94776Y-39526D01*
X94901Y-39501D01*
X95009Y-39460D01*
X95100Y-39418D01*
X95167Y-39385D01*
X95225Y-39343D01*
X95259Y-39318D01*
X95267Y-39309D01*
X95342Y-39218D01*
X95400Y-39118D01*
X95442Y-39010D01*
X95467Y-38910D01*
X95484Y-38826D01*
X95500Y-38751D01*
Y-38701D01*
Y-38693D01*
Y-38685D01*
X95492Y-38551D01*
X95467Y-38426D01*
X95425Y-38318D01*
X95384Y-38235D01*
X95342Y-38160D01*
X95300Y-38110D01*
X95275Y-38077D01*
X95267Y-38068D01*
X95176Y-37993D01*
X95067Y-37935D01*
X94967Y-37893D01*
X94867Y-37860D01*
X94776Y-37843D01*
X94709Y-37835D01*
D02*
G37*
G36*
X94676Y-40626D02*
X94634D01*
X94517Y-40634D01*
X94417Y-40651D01*
X94326Y-40676D01*
X94242Y-40701D01*
X94184Y-40734D01*
X94134Y-40759D01*
X94101Y-40776D01*
X94092Y-40784D01*
X94009Y-40851D01*
X93942Y-40918D01*
X93884Y-40992D01*
X93834Y-41059D01*
X93801Y-41126D01*
X93776Y-41176D01*
X93759Y-41209D01*
X93751Y-41217D01*
X93709Y-41326D01*
X93676Y-41426D01*
X93659Y-41534D01*
X93643Y-41626D01*
X93634Y-41709D01*
X93626Y-41776D01*
Y-41817D01*
Y-41834D01*
X93634Y-42009D01*
X93667Y-42159D01*
X93709Y-42292D01*
X93751Y-42409D01*
X93801Y-42500D01*
X93842Y-42559D01*
X93876Y-42600D01*
X93884Y-42617D01*
X93984Y-42717D01*
X94101Y-42784D01*
X94226Y-42834D01*
X94342Y-42875D01*
X94442Y-42892D01*
X94534Y-42900D01*
X94567Y-42909D01*
X94609D01*
X94717Y-42900D01*
X94817Y-42884D01*
X94901Y-42867D01*
X94984Y-42842D01*
X95042Y-42817D01*
X95092Y-42792D01*
X95126Y-42784D01*
X95134Y-42775D01*
X95217Y-42717D01*
X95284Y-42659D01*
X95342Y-42592D01*
X95392Y-42534D01*
X95434Y-42475D01*
X95459Y-42434D01*
X95475Y-42400D01*
X95484Y-42392D01*
X95525Y-42292D01*
X95559Y-42200D01*
X95575Y-42101D01*
X95592Y-42017D01*
X95600Y-41942D01*
X95609Y-41876D01*
Y-41842D01*
Y-41826D01*
X95600Y-41626D01*
X95567Y-41451D01*
X95525Y-41301D01*
X95475Y-41176D01*
X95434Y-41084D01*
X95392Y-41009D01*
X95359Y-40967D01*
X95350Y-40951D01*
X95242Y-40842D01*
X95126Y-40759D01*
X95009Y-40701D01*
X94892Y-40668D01*
X94792Y-40642D01*
X94709Y-40634D01*
X94676Y-40626D01*
D02*
G37*
G36*
X-106916Y-39001D02*
Y-41367D01*
X-105275D01*
X-106916Y-39001D01*
D02*
G37*
G36*
X-36253Y-138694D02*
X-37470D01*
X-37740Y-138702D01*
X-37975Y-138730D01*
X-38173Y-138775D01*
X-38345Y-138811D01*
X-38417Y-138838D01*
X-38480Y-138856D01*
X-38534Y-138883D01*
X-38579Y-138901D01*
X-38615Y-138910D01*
X-38642Y-138928D01*
X-38651Y-138937D01*
X-38660D01*
X-38823Y-139045D01*
X-38958Y-139162D01*
X-39066Y-139298D01*
X-39165Y-139433D01*
X-39237Y-139550D01*
X-39291Y-139649D01*
X-39300Y-139685D01*
X-39318Y-139712D01*
X-39327Y-139731D01*
Y-139740D01*
X-39364Y-139848D01*
X-39400Y-139965D01*
X-39454Y-140208D01*
X-39490Y-140461D01*
X-39517Y-140704D01*
X-39526Y-140813D01*
X-39535Y-140912D01*
Y-141011D01*
X-39544Y-141092D01*
Y-141155D01*
Y-141200D01*
Y-141236D01*
Y-141245D01*
Y-141417D01*
X-39535Y-141588D01*
X-39526Y-141741D01*
X-39517Y-141885D01*
X-39499Y-142021D01*
X-39481Y-142147D01*
X-39463Y-142264D01*
X-39445Y-142363D01*
X-39427Y-142454D01*
X-39409Y-142535D01*
X-39390Y-142607D01*
X-39372Y-142661D01*
X-39364Y-142706D01*
X-39355Y-142733D01*
X-39346Y-142751D01*
Y-142760D01*
X-39264Y-142949D01*
X-39165Y-143112D01*
X-39057Y-143247D01*
X-38949Y-143355D01*
X-38858Y-143436D01*
X-38777Y-143500D01*
X-38723Y-143536D01*
X-38714Y-143545D01*
X-38705D01*
X-38525Y-143626D01*
X-38326Y-143680D01*
X-38128Y-143725D01*
X-37939Y-143752D01*
X-37768Y-143770D01*
X-37686D01*
X-37623Y-143779D01*
X-36253D01*
Y-138694D01*
D02*
G37*
G36*
X-43962D02*
X-45180D01*
X-45450Y-138702D01*
X-45684Y-138730D01*
X-45883Y-138775D01*
X-46054Y-138811D01*
X-46126Y-138838D01*
X-46189Y-138856D01*
X-46244Y-138883D01*
X-46289Y-138901D01*
X-46325Y-138910D01*
X-46352Y-138928D01*
X-46361Y-138937D01*
X-46370D01*
X-46532Y-139045D01*
X-46667Y-139162D01*
X-46775Y-139298D01*
X-46875Y-139433D01*
X-46947Y-139550D01*
X-47001Y-139649D01*
X-47010Y-139685D01*
X-47028Y-139712D01*
X-47037Y-139731D01*
Y-139740D01*
X-47073Y-139848D01*
X-47109Y-139965D01*
X-47163Y-140208D01*
X-47199Y-140461D01*
X-47226Y-140704D01*
X-47235Y-140813D01*
X-47244Y-140912D01*
Y-141011D01*
X-47253Y-141092D01*
Y-141155D01*
Y-141200D01*
Y-141236D01*
Y-141245D01*
Y-141417D01*
X-47244Y-141588D01*
X-47235Y-141741D01*
X-47226Y-141885D01*
X-47208Y-142021D01*
X-47190Y-142147D01*
X-47172Y-142264D01*
X-47154Y-142363D01*
X-47136Y-142454D01*
X-47118Y-142535D01*
X-47100Y-142607D01*
X-47082Y-142661D01*
X-47073Y-142706D01*
X-47064Y-142733D01*
X-47055Y-142751D01*
Y-142760D01*
X-46974Y-142949D01*
X-46875Y-143112D01*
X-46767Y-143247D01*
X-46658Y-143355D01*
X-46568Y-143436D01*
X-46487Y-143500D01*
X-46433Y-143536D01*
X-46424Y-143545D01*
X-46415D01*
X-46234Y-143626D01*
X-46036Y-143680D01*
X-45838Y-143725D01*
X-45648Y-143752D01*
X-45477Y-143770D01*
X-45396D01*
X-45333Y-143779D01*
X-43962D01*
Y-138694D01*
D02*
G37*
G36*
X-46162Y-148446D02*
X-46207D01*
X-46216Y-148537D01*
X-46234Y-148627D01*
X-46262Y-148717D01*
X-46280Y-148807D01*
X-46298Y-148888D01*
X-46316Y-148951D01*
X-46334Y-148996D01*
Y-149014D01*
X-46415Y-149267D01*
X-46451Y-149384D01*
X-46487Y-149492D01*
X-46514Y-149582D01*
X-46541Y-149646D01*
X-46550Y-149691D01*
X-46559Y-149709D01*
X-47208Y-151440D01*
X-45206D01*
X-45838Y-149709D01*
X-45919Y-149474D01*
X-45991Y-149249D01*
X-46045Y-149032D01*
X-46090Y-148843D01*
X-46108Y-148753D01*
X-46117Y-148681D01*
X-46135Y-148609D01*
X-46144Y-148554D01*
X-46153Y-148509D01*
X-46162Y-148473D01*
Y-148455D01*
Y-148446D01*
D02*
G37*
G36*
X-65855D02*
X-65901D01*
X-65910Y-148537D01*
X-65928Y-148627D01*
X-65955Y-148717D01*
X-65973Y-148807D01*
X-65991Y-148888D01*
X-66009Y-148951D01*
X-66027Y-148996D01*
Y-149014D01*
X-66108Y-149267D01*
X-66144Y-149384D01*
X-66180Y-149492D01*
X-66207Y-149582D01*
X-66234Y-149646D01*
X-66243Y-149691D01*
X-66252Y-149709D01*
X-66901Y-151440D01*
X-64900D01*
X-65531Y-149709D01*
X-65612Y-149474D01*
X-65684Y-149249D01*
X-65738Y-149032D01*
X-65783Y-148843D01*
X-65801Y-148753D01*
X-65810Y-148681D01*
X-65828Y-148609D01*
X-65837Y-148554D01*
X-65846Y-148509D01*
X-65855Y-148473D01*
Y-148455D01*
Y-148446D01*
D02*
G37*
G36*
X-23809Y-147986D02*
X-23872D01*
X-24007Y-147995D01*
X-24125Y-148022D01*
X-24224Y-148068D01*
X-24314Y-148104D01*
X-24377Y-148149D01*
X-24431Y-148194D01*
X-24458Y-148221D01*
X-24467Y-148230D01*
X-24549Y-148338D01*
X-24612Y-148464D01*
X-24675Y-148600D01*
X-24720Y-148735D01*
X-24756Y-148861D01*
X-24783Y-148960D01*
X-24792Y-149005D01*
Y-149032D01*
X-24801Y-149050D01*
Y-149059D01*
X-24819Y-149177D01*
X-24837Y-149294D01*
X-24864Y-149564D01*
X-24882Y-149835D01*
X-24900Y-150096D01*
Y-150214D01*
Y-150331D01*
X-24909Y-150430D01*
Y-150520D01*
Y-150592D01*
Y-150646D01*
Y-150682D01*
Y-150691D01*
Y-150872D01*
Y-151052D01*
X-24900Y-151215D01*
X-24891Y-151368D01*
X-24882Y-151512D01*
X-24873Y-151638D01*
X-24864Y-151756D01*
X-24855Y-151864D01*
X-24846Y-151963D01*
X-24837Y-152044D01*
X-24828Y-152116D01*
X-24819Y-152179D01*
X-24810Y-152224D01*
Y-152261D01*
X-24801Y-152278D01*
Y-152288D01*
X-24756Y-152495D01*
X-24702Y-152666D01*
X-24648Y-152810D01*
X-24594Y-152928D01*
X-24539Y-153018D01*
X-24495Y-153081D01*
X-24467Y-153126D01*
X-24458Y-153135D01*
X-24368Y-153216D01*
X-24269Y-153279D01*
X-24161Y-153324D01*
X-24062Y-153351D01*
X-23972Y-153370D01*
X-23899Y-153388D01*
X-23836D01*
X-23701Y-153379D01*
X-23584Y-153351D01*
X-23485Y-153306D01*
X-23394Y-153261D01*
X-23322Y-153225D01*
X-23277Y-153180D01*
X-23241Y-153153D01*
X-23232Y-153144D01*
X-23151Y-153036D01*
X-23088Y-152919D01*
X-23025Y-152783D01*
X-22980Y-152648D01*
X-22943Y-152522D01*
X-22917Y-152423D01*
X-22908Y-152387D01*
Y-152360D01*
X-22898Y-152342D01*
Y-152333D01*
X-22880Y-152224D01*
X-22862Y-152107D01*
X-22835Y-151855D01*
X-22817Y-151593D01*
X-22808Y-151350D01*
X-22799Y-151242D01*
Y-151133D01*
X-22790Y-151043D01*
Y-150962D01*
Y-150890D01*
Y-150845D01*
Y-150809D01*
Y-150800D01*
Y-150592D01*
X-22799Y-150394D01*
Y-150205D01*
X-22808Y-150033D01*
X-22817Y-149880D01*
X-22826Y-149736D01*
X-22835Y-149600D01*
X-22853Y-149483D01*
X-22862Y-149384D01*
X-22871Y-149294D01*
X-22880Y-149213D01*
X-22889Y-149150D01*
X-22898Y-149104D01*
Y-149068D01*
X-22908Y-149050D01*
Y-149041D01*
X-22935Y-148933D01*
X-22953Y-148825D01*
X-23007Y-148654D01*
X-23070Y-148509D01*
X-23124Y-148392D01*
X-23169Y-148311D01*
X-23214Y-148257D01*
X-23241Y-148221D01*
X-23250Y-148212D01*
X-23340Y-148140D01*
X-23449Y-148086D01*
X-23548Y-148041D01*
X-23647Y-148013D01*
X-23737Y-147995D01*
X-23809Y-147986D01*
D02*
G37*
G36*
X-29905D02*
X-29968D01*
X-30103Y-147995D01*
X-30220Y-148022D01*
X-30319Y-148068D01*
X-30410Y-148104D01*
X-30473Y-148149D01*
X-30527Y-148194D01*
X-30554Y-148221D01*
X-30563Y-148230D01*
X-30644Y-148338D01*
X-30707Y-148464D01*
X-30770Y-148600D01*
X-30815Y-148735D01*
X-30851Y-148861D01*
X-30879Y-148960D01*
X-30887Y-149005D01*
Y-149032D01*
X-30896Y-149050D01*
Y-149059D01*
X-30915Y-149177D01*
X-30933Y-149294D01*
X-30960Y-149564D01*
X-30978Y-149835D01*
X-30996Y-150096D01*
Y-150214D01*
Y-150331D01*
X-31005Y-150430D01*
Y-150520D01*
Y-150592D01*
Y-150646D01*
Y-150682D01*
Y-150691D01*
Y-150872D01*
Y-151052D01*
X-30996Y-151215D01*
X-30987Y-151368D01*
X-30978Y-151512D01*
X-30969Y-151638D01*
X-30960Y-151756D01*
X-30951Y-151864D01*
X-30942Y-151963D01*
X-30933Y-152044D01*
X-30924Y-152116D01*
X-30915Y-152179D01*
X-30906Y-152224D01*
Y-152261D01*
X-30896Y-152278D01*
Y-152288D01*
X-30851Y-152495D01*
X-30797Y-152666D01*
X-30743Y-152810D01*
X-30689Y-152928D01*
X-30635Y-153018D01*
X-30590Y-153081D01*
X-30563Y-153126D01*
X-30554Y-153135D01*
X-30464Y-153216D01*
X-30364Y-153279D01*
X-30256Y-153324D01*
X-30157Y-153351D01*
X-30067Y-153370D01*
X-29995Y-153388D01*
X-29932D01*
X-29797Y-153379D01*
X-29679Y-153351D01*
X-29580Y-153306D01*
X-29490Y-153261D01*
X-29418Y-153225D01*
X-29373Y-153180D01*
X-29337Y-153153D01*
X-29328Y-153144D01*
X-29246Y-153036D01*
X-29183Y-152919D01*
X-29120Y-152783D01*
X-29075Y-152648D01*
X-29039Y-152522D01*
X-29012Y-152423D01*
X-29003Y-152387D01*
Y-152360D01*
X-28994Y-152342D01*
Y-152333D01*
X-28976Y-152224D01*
X-28958Y-152107D01*
X-28931Y-151855D01*
X-28913Y-151593D01*
X-28904Y-151350D01*
X-28895Y-151242D01*
Y-151133D01*
X-28886Y-151043D01*
Y-150962D01*
Y-150890D01*
Y-150845D01*
Y-150809D01*
Y-150800D01*
Y-150592D01*
X-28895Y-150394D01*
Y-150205D01*
X-28904Y-150033D01*
X-28913Y-149880D01*
X-28922Y-149736D01*
X-28931Y-149600D01*
X-28949Y-149483D01*
X-28958Y-149384D01*
X-28967Y-149294D01*
X-28976Y-149213D01*
X-28985Y-149150D01*
X-28994Y-149104D01*
Y-149068D01*
X-29003Y-149050D01*
Y-149041D01*
X-29030Y-148933D01*
X-29048Y-148825D01*
X-29102Y-148654D01*
X-29165Y-148509D01*
X-29219Y-148392D01*
X-29265Y-148311D01*
X-29309Y-148257D01*
X-29337Y-148221D01*
X-29346Y-148212D01*
X-29436Y-148140D01*
X-29544Y-148086D01*
X-29643Y-148041D01*
X-29742Y-148013D01*
X-29832Y-147995D01*
X-29905Y-147986D01*
D02*
G37*
G36*
X17715Y-46428D02*
X13941D01*
X13930Y-46439D01*
X13918Y-46450D01*
X13907Y-46461D01*
X13896Y-46483D01*
Y-46494D01*
Y-46506D01*
Y-50124D01*
X13907Y-50168D01*
X13918Y-50180D01*
X13930Y-50191D01*
X17692D01*
X17737Y-50180D01*
X17748D01*
X17770Y-50146D01*
Y-50124D01*
Y-46506D01*
Y-46472D01*
X17759Y-46461D01*
X17748Y-46450D01*
X17715Y-46428D01*
D02*
G37*
G36*
X9234D02*
X5460D01*
X5449Y-46439D01*
X5438Y-46450D01*
X5427Y-46461D01*
X5416Y-46483D01*
Y-46494D01*
Y-46506D01*
Y-50124D01*
X5427Y-50168D01*
X5438Y-50180D01*
X5449Y-50191D01*
X9212D01*
X9257Y-50180D01*
X9268D01*
X9290Y-50146D01*
Y-50124D01*
Y-46506D01*
Y-46472D01*
X9279Y-46461D01*
X9268Y-46450D01*
X9234Y-46428D01*
D02*
G37*
G36*
X732D02*
X-3042D01*
X-3053Y-46439D01*
X-3064Y-46450D01*
X-3075Y-46461D01*
X-3086Y-46483D01*
Y-46494D01*
Y-46506D01*
Y-50124D01*
X-3075Y-50168D01*
X-3064Y-50180D01*
X-3053Y-50191D01*
X710D01*
X754Y-50180D01*
X765D01*
X787Y-50146D01*
Y-50124D01*
Y-46506D01*
Y-46472D01*
X776Y-46461D01*
X765Y-46450D01*
X732Y-46428D01*
D02*
G37*
G36*
X-8115D02*
X-11889D01*
X-11900Y-46439D01*
X-11911Y-46450D01*
X-11922Y-46461D01*
X-11933Y-46483D01*
Y-46494D01*
Y-46506D01*
Y-50124D01*
X-11922Y-50168D01*
X-11911Y-50180D01*
X-11900Y-50191D01*
X-8137D01*
X-8092Y-50180D01*
X-8081D01*
X-8059Y-50146D01*
Y-50124D01*
Y-46506D01*
Y-46472D01*
X-8070Y-46461D01*
X-8081Y-46450D01*
X-8115Y-46428D01*
D02*
G37*
G36*
X117352Y-37877D02*
X117294D01*
X117169Y-37885D01*
X117060Y-37910D01*
X116969Y-37952D01*
X116885Y-37985D01*
X116827Y-38026D01*
X116777Y-38068D01*
X116752Y-38093D01*
X116744Y-38101D01*
X116669Y-38201D01*
X116610Y-38318D01*
X116552Y-38443D01*
X116510Y-38568D01*
X116477Y-38685D01*
X116452Y-38776D01*
X116444Y-38818D01*
Y-38843D01*
X116435Y-38860D01*
Y-38868D01*
X116419Y-38976D01*
X116402Y-39085D01*
X116377Y-39334D01*
X116361Y-39585D01*
X116344Y-39826D01*
Y-39934D01*
Y-40043D01*
X116336Y-40134D01*
Y-40218D01*
Y-40284D01*
Y-40334D01*
Y-40368D01*
Y-40376D01*
Y-40543D01*
Y-40709D01*
X116344Y-40859D01*
X116352Y-41001D01*
X116361Y-41134D01*
X116369Y-41251D01*
X116377Y-41359D01*
X116385Y-41459D01*
X116394Y-41551D01*
X116402Y-41626D01*
X116411Y-41692D01*
X116419Y-41751D01*
X116427Y-41792D01*
Y-41826D01*
X116435Y-41842D01*
Y-41851D01*
X116477Y-42042D01*
X116527Y-42200D01*
X116577Y-42334D01*
X116627Y-42442D01*
X116677Y-42525D01*
X116719Y-42584D01*
X116744Y-42625D01*
X116752Y-42634D01*
X116835Y-42709D01*
X116927Y-42767D01*
X117027Y-42809D01*
X117119Y-42834D01*
X117202Y-42850D01*
X117269Y-42867D01*
X117327D01*
X117452Y-42859D01*
X117560Y-42834D01*
X117652Y-42792D01*
X117735Y-42750D01*
X117802Y-42717D01*
X117844Y-42675D01*
X117877Y-42650D01*
X117885Y-42642D01*
X117960Y-42542D01*
X118019Y-42434D01*
X118077Y-42309D01*
X118118Y-42184D01*
X118152Y-42067D01*
X118177Y-41975D01*
X118185Y-41942D01*
Y-41917D01*
X118193Y-41901D01*
Y-41892D01*
X118210Y-41792D01*
X118227Y-41684D01*
X118252Y-41451D01*
X118268Y-41209D01*
X118277Y-40984D01*
X118285Y-40884D01*
Y-40784D01*
X118293Y-40701D01*
Y-40626D01*
Y-40559D01*
Y-40518D01*
Y-40484D01*
Y-40476D01*
Y-40284D01*
X118285Y-40101D01*
Y-39926D01*
X118277Y-39768D01*
X118268Y-39626D01*
X118260Y-39493D01*
X118252Y-39368D01*
X118235Y-39260D01*
X118227Y-39168D01*
X118218Y-39085D01*
X118210Y-39010D01*
X118202Y-38951D01*
X118193Y-38910D01*
Y-38876D01*
X118185Y-38860D01*
Y-38851D01*
X118160Y-38751D01*
X118143Y-38651D01*
X118093Y-38493D01*
X118035Y-38360D01*
X117985Y-38252D01*
X117943Y-38177D01*
X117902Y-38126D01*
X117877Y-38093D01*
X117868Y-38085D01*
X117785Y-38018D01*
X117685Y-37968D01*
X117594Y-37927D01*
X117502Y-37902D01*
X117419Y-37885D01*
X117352Y-37877D01*
D02*
G37*
G36*
X106701D02*
X106659D01*
X106559Y-37885D01*
X106476Y-37902D01*
X106392Y-37927D01*
X106317Y-37952D01*
X106267Y-37985D01*
X106217Y-38010D01*
X106192Y-38026D01*
X106184Y-38035D01*
X106109Y-38101D01*
X106042Y-38168D01*
X105984Y-38252D01*
X105934Y-38326D01*
X105892Y-38393D01*
X105868Y-38451D01*
X105851Y-38485D01*
X105843Y-38501D01*
X105801Y-38626D01*
X105767Y-38760D01*
X105751Y-38885D01*
X105734Y-39010D01*
X105726Y-39118D01*
X105717Y-39201D01*
Y-39235D01*
Y-39260D01*
Y-39268D01*
Y-39276D01*
X105726Y-39476D01*
X105759Y-39651D01*
X105801Y-39801D01*
X105851Y-39926D01*
X105901Y-40018D01*
X105942Y-40084D01*
X105976Y-40126D01*
X105984Y-40143D01*
X106084Y-40234D01*
X106201Y-40309D01*
X106309Y-40359D01*
X106417Y-40393D01*
X106517Y-40409D01*
X106592Y-40418D01*
X106642Y-40426D01*
X106659D01*
X106826Y-40409D01*
X106975Y-40368D01*
X107100Y-40309D01*
X107209Y-40226D01*
X107300Y-40126D01*
X107375Y-40018D01*
X107442Y-39901D01*
X107492Y-39784D01*
X107525Y-39668D01*
X107559Y-39551D01*
X107575Y-39443D01*
X107592Y-39343D01*
X107600Y-39260D01*
X107609Y-39201D01*
Y-39160D01*
Y-39143D01*
X107600Y-38926D01*
X107567Y-38743D01*
X107525Y-38576D01*
X107475Y-38451D01*
X107434Y-38343D01*
X107392Y-38268D01*
X107359Y-38226D01*
X107350Y-38210D01*
X107250Y-38101D01*
X107134Y-38018D01*
X107017Y-37960D01*
X106909Y-37918D01*
X106809Y-37893D01*
X106734Y-37885D01*
X106701Y-37877D01*
D02*
G37*
G36*
X-25728Y-46428D02*
X-29502D01*
X-29514Y-46439D01*
X-29525Y-46450D01*
X-29536Y-46461D01*
X-29547Y-46483D01*
Y-46494D01*
Y-46506D01*
Y-50124D01*
X-29536Y-50168D01*
X-29525Y-50180D01*
X-29514Y-50191D01*
X-25751D01*
X-25706Y-50180D01*
X-25695D01*
X-25673Y-50146D01*
Y-50124D01*
Y-46506D01*
Y-46472D01*
X-25684Y-46461D01*
X-25695Y-46450D01*
X-25728Y-46428D01*
D02*
G37*
G36*
X-81391Y-40318D02*
X-81408D01*
X-81574Y-40334D01*
X-81724Y-40376D01*
X-81849Y-40434D01*
X-81966Y-40518D01*
X-82058Y-40617D01*
X-82133Y-40726D01*
X-82199Y-40842D01*
X-82249Y-40959D01*
X-82282Y-41076D01*
X-82316Y-41192D01*
X-82341Y-41301D01*
X-82349Y-41401D01*
X-82358Y-41484D01*
X-82366Y-41542D01*
Y-41584D01*
Y-41601D01*
X-82358Y-41817D01*
X-82324Y-42000D01*
X-82282Y-42167D01*
X-82241Y-42300D01*
X-82191Y-42400D01*
X-82149Y-42484D01*
X-82116Y-42525D01*
X-82107Y-42542D01*
X-82008Y-42650D01*
X-81891Y-42734D01*
X-81783Y-42784D01*
X-81674Y-42825D01*
X-81574Y-42850D01*
X-81499Y-42859D01*
X-81449Y-42867D01*
X-81433D01*
X-81349Y-42859D01*
X-81274Y-42850D01*
X-81141Y-42809D01*
X-81016Y-42750D01*
X-80916Y-42684D01*
X-80841Y-42625D01*
X-80783Y-42567D01*
X-80741Y-42525D01*
X-80733Y-42509D01*
X-80650Y-42359D01*
X-80583Y-42192D01*
X-80541Y-42017D01*
X-80508Y-41851D01*
X-80491Y-41701D01*
X-80483Y-41634D01*
Y-41576D01*
X-80475Y-41534D01*
Y-41501D01*
Y-41476D01*
Y-41467D01*
X-80483Y-41267D01*
X-80516Y-41092D01*
X-80558Y-40943D01*
X-80608Y-40826D01*
X-80650Y-40726D01*
X-80691Y-40659D01*
X-80725Y-40626D01*
X-80733Y-40609D01*
X-80833Y-40509D01*
X-80949Y-40443D01*
X-81058Y-40393D01*
X-81166Y-40351D01*
X-81266Y-40334D01*
X-81341Y-40326D01*
X-81391Y-40318D01*
D02*
G37*
%LPD*%
D12*
X-38000Y-134000D02*
Y-124000D01*
X-42000Y-128000D02*
X-38000Y-124000D01*
X-34000Y-128000D01*
M02*
