G04*
G04 #@! TF.GenerationSoftware,Altium Limited,Altium Designer,25.8.1 (18)*
G04*
G04 Layer_Physical_Order=1*
G04 Layer_Color=255*
%FSLAX44Y44*%
%MOMM*%
G71*
G04*
G04 #@! TF.SameCoordinates,EE5D2AC8-0814-4AB7-85DC-423FF69BB6BB*
G04*
G04*
G04 #@! TF.FilePolarity,Positive*
G04*
G01*
G75*
%ADD20C,0.1524*%
%ADD21C,0.2000*%
%ADD22C,0.4000*%
%ADD23C,0.2500*%
%ADD24C,0.5000*%
%ADD25R,1.5000X1.5000*%
%ADD26C,1.5000*%
%ADD27C,1.8000*%
%ADD28C,0.9000*%
%ADD29C,2.5000*%
%ADD30R,0.9000X0.9000*%
%ADD31C,0.6000*%
G36*
X214000Y-2926D02*
Y-2937D01*
X215828Y-3177D01*
X217532Y-3883D01*
X218995Y-5005D01*
X220117Y-6468D01*
X220823Y-8172D01*
X221063Y-10000D01*
X221074D01*
Y-140000D01*
X221074Y-140000D01*
X221063D01*
X220823Y-141828D01*
X220117Y-143532D01*
X218995Y-144995D01*
X217532Y-146117D01*
X215828Y-146823D01*
X214000Y-147063D01*
Y-147074D01*
X181364D01*
X181023Y-145804D01*
X183658Y-144283D01*
X186283Y-141658D01*
X188139Y-138442D01*
X189100Y-134856D01*
Y-131144D01*
X188139Y-127558D01*
X186283Y-124342D01*
X183658Y-121717D01*
X180442Y-119861D01*
X176856Y-118900D01*
X173144D01*
X169558Y-119861D01*
X166342Y-121717D01*
X163717Y-124342D01*
X161861Y-127558D01*
X160900Y-131144D01*
Y-134856D01*
X161861Y-138442D01*
X163717Y-141658D01*
X166342Y-144283D01*
X168977Y-145804D01*
X168636Y-147074D01*
X127364D01*
X127023Y-145804D01*
X129658Y-144283D01*
X132283Y-141658D01*
X134139Y-138442D01*
X135100Y-134856D01*
Y-131144D01*
X134139Y-127558D01*
X132283Y-124342D01*
X129658Y-121717D01*
X126442Y-119861D01*
X122856Y-118900D01*
X119144D01*
X115558Y-119861D01*
X112342Y-121717D01*
X109717Y-124342D01*
X107861Y-127558D01*
X106900Y-131144D01*
Y-134856D01*
X107861Y-138442D01*
X109717Y-141658D01*
X112342Y-144283D01*
X114977Y-145804D01*
X114636Y-147074D01*
X-114636D01*
X-114977Y-145804D01*
X-112342Y-144283D01*
X-109717Y-141658D01*
X-107861Y-138442D01*
X-106900Y-134856D01*
Y-131144D01*
X-107861Y-127558D01*
X-109717Y-124342D01*
X-112342Y-121717D01*
X-115558Y-119861D01*
X-119144Y-118900D01*
X-122856D01*
X-126442Y-119861D01*
X-129658Y-121717D01*
X-132283Y-124342D01*
X-134139Y-127558D01*
X-135100Y-131144D01*
Y-134856D01*
X-134139Y-138442D01*
X-132283Y-141658D01*
X-129658Y-144283D01*
X-127023Y-145804D01*
X-127364Y-147074D01*
X-168636D01*
X-168977Y-145804D01*
X-166342Y-144283D01*
X-163717Y-141658D01*
X-161861Y-138442D01*
X-160900Y-134856D01*
Y-131144D01*
X-161861Y-127558D01*
X-163717Y-124342D01*
X-166342Y-121717D01*
X-169558Y-119861D01*
X-173144Y-118900D01*
X-176856D01*
X-180442Y-119861D01*
X-183658Y-121717D01*
X-186283Y-124342D01*
X-188139Y-127558D01*
X-189100Y-131144D01*
Y-134856D01*
X-188139Y-138442D01*
X-186283Y-141658D01*
X-183658Y-144283D01*
X-181023Y-145804D01*
X-181364Y-147074D01*
X-214000D01*
Y-147063D01*
X-215828Y-146823D01*
X-217532Y-146117D01*
X-218995Y-144995D01*
X-220117Y-143532D01*
X-220823Y-141828D01*
X-221063Y-140000D01*
X-221074D01*
Y-10000D01*
X-221063D01*
X-220823Y-8172D01*
X-220117Y-6468D01*
X-218995Y-5005D01*
X-217532Y-3883D01*
X-215828Y-3177D01*
X-214000Y-2937D01*
Y-2926D01*
X-181364D01*
X-181023Y-4196D01*
X-183658Y-5717D01*
X-186283Y-8342D01*
X-188139Y-11558D01*
X-189100Y-15144D01*
Y-18856D01*
X-188139Y-22442D01*
X-186283Y-25658D01*
X-183658Y-28283D01*
X-180442Y-30139D01*
X-176856Y-31100D01*
X-173144D01*
X-169558Y-30139D01*
X-166342Y-28283D01*
X-163717Y-25658D01*
X-161861Y-22442D01*
X-160900Y-18856D01*
Y-15144D01*
X-161861Y-11558D01*
X-163717Y-8342D01*
X-166342Y-5717D01*
X-168977Y-4196D01*
X-168636Y-2926D01*
X-127364D01*
X-127023Y-4196D01*
X-129658Y-5717D01*
X-132283Y-8342D01*
X-134139Y-11558D01*
X-135100Y-15144D01*
Y-18856D01*
X-134139Y-22442D01*
X-132283Y-25658D01*
X-129658Y-28283D01*
X-126442Y-30139D01*
X-122856Y-31100D01*
X-119144D01*
X-115558Y-30139D01*
X-112342Y-28283D01*
X-109717Y-25658D01*
X-107861Y-22442D01*
X-106900Y-18856D01*
Y-15144D01*
X-107861Y-11558D01*
X-109717Y-8342D01*
X-112342Y-5717D01*
X-114977Y-4196D01*
X-114636Y-2926D01*
X114636D01*
X114977Y-4196D01*
X112342Y-5717D01*
X109717Y-8342D01*
X107861Y-11558D01*
X106900Y-15144D01*
Y-18856D01*
X107861Y-22442D01*
X109717Y-25658D01*
X112342Y-28283D01*
X115558Y-30139D01*
X119144Y-31100D01*
X122856D01*
X126442Y-30139D01*
X129658Y-28283D01*
X132283Y-25658D01*
X134139Y-22442D01*
X135100Y-18856D01*
Y-15144D01*
X134139Y-11558D01*
X132283Y-8342D01*
X129658Y-5717D01*
X127023Y-4196D01*
X127364Y-2926D01*
X168636D01*
X168977Y-4196D01*
X166342Y-5717D01*
X163717Y-8342D01*
X161861Y-11558D01*
X160900Y-15144D01*
Y-18856D01*
X161861Y-22442D01*
X163717Y-25658D01*
X166342Y-28283D01*
X169558Y-30139D01*
X173144Y-31100D01*
X176856D01*
X180442Y-30139D01*
X183658Y-28283D01*
X186283Y-25658D01*
X188139Y-22442D01*
X189100Y-18856D01*
Y-15144D01*
X188139Y-11558D01*
X186283Y-8342D01*
X183658Y-5717D01*
X181023Y-4196D01*
X181364Y-2926D01*
X214000D01*
X214000Y-2926D01*
D02*
G37*
%LPC*%
G36*
X-204500Y-15500D02*
X-208730D01*
Y-19730D01*
X-204500D01*
Y-15500D01*
D02*
G37*
G36*
X-211270D02*
X-215500D01*
Y-19730D01*
X-211270D01*
Y-15500D01*
D02*
G37*
G36*
X149396Y-6400D02*
X146604D01*
X143909Y-7122D01*
X141491Y-8518D01*
X139518Y-10491D01*
X138122Y-12909D01*
X137400Y-15604D01*
Y-18396D01*
X138122Y-21091D01*
X139518Y-23509D01*
X141491Y-25482D01*
X143909Y-26878D01*
X146604Y-27600D01*
X149396D01*
X152091Y-26878D01*
X154509Y-25482D01*
X156482Y-23509D01*
X157878Y-21091D01*
X158600Y-18396D01*
Y-15604D01*
X157878Y-12909D01*
X156482Y-10491D01*
X154509Y-8518D01*
X152091Y-7122D01*
X149396Y-6400D01*
D02*
G37*
G36*
X-146604D02*
X-149396D01*
X-152091Y-7122D01*
X-154509Y-8518D01*
X-156482Y-10491D01*
X-157878Y-12909D01*
X-158600Y-15604D01*
Y-18396D01*
X-157878Y-21091D01*
X-156482Y-23509D01*
X-154509Y-25482D01*
X-152091Y-26878D01*
X-149396Y-27600D01*
X-146604D01*
X-143909Y-26878D01*
X-141491Y-25482D01*
X-139518Y-23509D01*
X-138122Y-21091D01*
X-137400Y-18396D01*
Y-15604D01*
X-138122Y-12909D01*
X-139518Y-10491D01*
X-141491Y-8518D01*
X-143909Y-7122D01*
X-146604Y-6400D01*
D02*
G37*
G36*
X-11430Y-55141D02*
Y-62330D01*
X-4241D01*
X-4779Y-60319D01*
X-5898Y-58381D01*
X-7481Y-56798D01*
X-9419Y-55679D01*
X-11430Y-55141D01*
D02*
G37*
G36*
X-4241Y-64870D02*
X-11430D01*
Y-72059D01*
X-9419Y-71521D01*
X-7481Y-70402D01*
X-5898Y-68819D01*
X-4779Y-66881D01*
X-4241Y-64870D01*
D02*
G37*
G36*
X-204500Y-22270D02*
X-210000D01*
X-215500D01*
Y-26500D01*
X-211876D01*
X-211624Y-27770D01*
X-213455Y-28529D01*
X-215171Y-30245D01*
X-216100Y-32487D01*
Y-34913D01*
X-215171Y-37155D01*
X-213455Y-38871D01*
X-212269Y-39363D01*
Y-40737D01*
X-213455Y-41229D01*
X-215171Y-42945D01*
X-216100Y-45187D01*
Y-47613D01*
X-215171Y-49855D01*
X-213455Y-51571D01*
X-212269Y-52063D01*
Y-53437D01*
X-213455Y-53929D01*
X-215171Y-55645D01*
X-216100Y-57887D01*
Y-60313D01*
X-215171Y-62555D01*
X-213455Y-64271D01*
X-212269Y-64763D01*
Y-66137D01*
X-213455Y-66629D01*
X-215171Y-68345D01*
X-216100Y-70587D01*
Y-73013D01*
X-215171Y-75255D01*
X-213455Y-76971D01*
X-212269Y-77463D01*
Y-78837D01*
X-213455Y-79329D01*
X-215171Y-81045D01*
X-216100Y-83287D01*
Y-85713D01*
X-215171Y-87955D01*
X-213455Y-89671D01*
X-212269Y-90163D01*
Y-91537D01*
X-213455Y-92029D01*
X-215171Y-93745D01*
X-216100Y-95987D01*
Y-98413D01*
X-215171Y-100655D01*
X-213455Y-102371D01*
X-212269Y-102863D01*
Y-104237D01*
X-213455Y-104729D01*
X-215171Y-106445D01*
X-216100Y-108687D01*
Y-111113D01*
X-215171Y-113355D01*
X-213455Y-115071D01*
X-211213Y-116000D01*
X-208787D01*
X-206545Y-115071D01*
X-205554Y-114080D01*
X-140900D01*
X-139300Y-113762D01*
X-137944Y-112856D01*
X-118268Y-93180D01*
X-98000D01*
Y-98100D01*
X-79800D01*
Y-79900D01*
X-98000D01*
Y-84820D01*
X-120000D01*
X-121600Y-85138D01*
X-122956Y-86044D01*
X-142632Y-105720D01*
X-205554D01*
X-206545Y-104729D01*
X-207731Y-104237D01*
Y-102863D01*
X-206545Y-102371D01*
X-205044Y-100871D01*
X-142200D01*
X-140795Y-100591D01*
X-139605Y-99796D01*
X-107080Y-67270D01*
X-97289D01*
X-96182Y-69187D01*
X-94487Y-70882D01*
X-92413Y-72080D01*
X-90098Y-72700D01*
X-87702D01*
X-85387Y-72080D01*
X-83313Y-70882D01*
X-81618Y-69187D01*
X-80420Y-67112D01*
X-79800Y-64798D01*
Y-62402D01*
X-80420Y-60087D01*
X-81618Y-58012D01*
X-83313Y-56318D01*
X-83967Y-55940D01*
X-83626Y-54671D01*
X-77620D01*
X-72027Y-60264D01*
X-72600Y-62402D01*
Y-64798D01*
X-71980Y-67112D01*
X-70782Y-69187D01*
X-69088Y-70882D01*
X-67013Y-72080D01*
X-64698Y-72700D01*
X-62302D01*
X-59988Y-72080D01*
X-57913Y-70882D01*
X-56218Y-69187D01*
X-55020Y-67112D01*
X-54400Y-64798D01*
Y-62402D01*
X-55020Y-60087D01*
X-56218Y-58012D01*
X-57913Y-56318D01*
X-59988Y-55120D01*
X-62302Y-54500D01*
X-64698D01*
X-66836Y-55073D01*
X-72458Y-49451D01*
X-71932Y-48181D01*
X-58710D01*
X-46627Y-60264D01*
X-47200Y-62402D01*
Y-64798D01*
X-46580Y-67112D01*
X-45382Y-69187D01*
X-43688Y-70882D01*
X-41613Y-72080D01*
X-39298Y-72700D01*
X-36902D01*
X-34588Y-72080D01*
X-32513Y-70882D01*
X-30818Y-69187D01*
X-30445Y-68540D01*
X-29174Y-68881D01*
Y-76196D01*
X-28895Y-77601D01*
X-28099Y-78791D01*
X-21227Y-85664D01*
X-21800Y-87802D01*
Y-90198D01*
X-21180Y-92513D01*
X-19982Y-94587D01*
X-18288Y-96282D01*
X-16213Y-97480D01*
X-13898Y-98100D01*
X-11502D01*
X-9187Y-97480D01*
X-7113Y-96282D01*
X-5418Y-94587D01*
X-4220Y-92513D01*
X-3600Y-90198D01*
Y-87802D01*
X-4220Y-85487D01*
X-5418Y-83413D01*
X-7113Y-81718D01*
X-9187Y-80520D01*
X-11502Y-79900D01*
X-13898D01*
X-16036Y-80473D01*
X-21833Y-74676D01*
Y-67603D01*
X-20678Y-66951D01*
X-20563Y-66980D01*
X-19502Y-68819D01*
X-17919Y-70402D01*
X-15981Y-71521D01*
X-13970Y-72059D01*
Y-63600D01*
Y-55141D01*
X-15981Y-55679D01*
X-17919Y-56798D01*
X-19502Y-58381D01*
X-20563Y-60220D01*
X-20678Y-60249D01*
X-21833Y-59597D01*
Y-53496D01*
X-22113Y-52091D01*
X-22908Y-50901D01*
X-38405Y-35405D01*
X-39595Y-34609D01*
X-41000Y-34330D01*
X-194480D01*
X-197705Y-31105D01*
X-198895Y-30309D01*
X-200300Y-30029D01*
X-205044D01*
X-206545Y-28529D01*
X-208376Y-27770D01*
X-208124Y-26500D01*
X-204500D01*
Y-22270D01*
D02*
G37*
G36*
X97360Y-90270D02*
X90170D01*
Y-97459D01*
X92181Y-96921D01*
X94119Y-95802D01*
X95702Y-94219D01*
X96821Y-92281D01*
X97360Y-90270D01*
D02*
G37*
G36*
X87630D02*
X80441D01*
X80979Y-92281D01*
X82098Y-94219D01*
X83681Y-95802D01*
X85619Y-96921D01*
X87630Y-97459D01*
Y-90270D01*
D02*
G37*
G36*
X64698Y-79900D02*
X62302D01*
X59988Y-80520D01*
X57913Y-81718D01*
X56218Y-83413D01*
X55020Y-85487D01*
X54400Y-87802D01*
Y-90198D01*
X55020Y-92513D01*
X56218Y-94587D01*
X57913Y-96282D01*
X59988Y-97480D01*
X62302Y-98100D01*
X64698D01*
X67013Y-97480D01*
X69088Y-96282D01*
X70782Y-94587D01*
X71980Y-92513D01*
X72600Y-90198D01*
Y-87802D01*
X71980Y-85487D01*
X70782Y-83413D01*
X69088Y-81718D01*
X67013Y-80520D01*
X64698Y-79900D01*
D02*
G37*
G36*
X39298D02*
X36902D01*
X34588Y-80520D01*
X32513Y-81718D01*
X30818Y-83413D01*
X29620Y-85487D01*
X29000Y-87802D01*
Y-90198D01*
X29620Y-92513D01*
X30818Y-94587D01*
X32513Y-96282D01*
X34588Y-97480D01*
X36902Y-98100D01*
X39298D01*
X41613Y-97480D01*
X43688Y-96282D01*
X45382Y-94587D01*
X46580Y-92513D01*
X47200Y-90198D01*
Y-87802D01*
X46580Y-85487D01*
X45382Y-83413D01*
X43688Y-81718D01*
X41613Y-80520D01*
X39298Y-79900D01*
D02*
G37*
G36*
X13898D02*
X11502D01*
X9187Y-80520D01*
X7113Y-81718D01*
X5418Y-83413D01*
X4220Y-85487D01*
X3600Y-87802D01*
Y-90198D01*
X4220Y-92513D01*
X5418Y-94587D01*
X7113Y-96282D01*
X9187Y-97480D01*
X11502Y-98100D01*
X13898D01*
X16213Y-97480D01*
X18288Y-96282D01*
X19982Y-94587D01*
X21180Y-92513D01*
X21800Y-90198D01*
Y-87802D01*
X21180Y-85487D01*
X19982Y-83413D01*
X18288Y-81718D01*
X16213Y-80520D01*
X13898Y-79900D01*
D02*
G37*
G36*
X-36902D02*
X-39298D01*
X-41613Y-80520D01*
X-43688Y-81718D01*
X-45382Y-83413D01*
X-46580Y-85487D01*
X-47200Y-87802D01*
Y-90198D01*
X-46580Y-92513D01*
X-45382Y-94587D01*
X-43688Y-96282D01*
X-41613Y-97480D01*
X-39298Y-98100D01*
X-36902D01*
X-34588Y-97480D01*
X-32513Y-96282D01*
X-30818Y-94587D01*
X-29620Y-92513D01*
X-29000Y-90198D01*
Y-87802D01*
X-29620Y-85487D01*
X-30818Y-83413D01*
X-32513Y-81718D01*
X-34588Y-80520D01*
X-36902Y-79900D01*
D02*
G37*
G36*
X-62302D02*
X-64698D01*
X-67013Y-80520D01*
X-69088Y-81718D01*
X-70782Y-83413D01*
X-71980Y-85487D01*
X-72600Y-87802D01*
Y-90198D01*
X-71980Y-92513D01*
X-70782Y-94587D01*
X-69088Y-96282D01*
X-67013Y-97480D01*
X-64698Y-98100D01*
X-62302D01*
X-59988Y-97480D01*
X-57913Y-96282D01*
X-56218Y-94587D01*
X-55020Y-92513D01*
X-54400Y-90198D01*
Y-87802D01*
X-55020Y-85487D01*
X-56218Y-83413D01*
X-57913Y-81718D01*
X-59988Y-80520D01*
X-62302Y-79900D01*
D02*
G37*
G36*
X211213Y-15000D02*
X208787D01*
X206545Y-15929D01*
X204829Y-17645D01*
X204355Y-18788D01*
X203348Y-19461D01*
X185480Y-37329D01*
X35300D01*
X33895Y-37609D01*
X32705Y-38405D01*
X16036Y-55073D01*
X13898Y-54500D01*
X11502D01*
X9187Y-55120D01*
X7113Y-56318D01*
X5418Y-58012D01*
X4220Y-60087D01*
X3600Y-62402D01*
Y-64798D01*
X4220Y-67112D01*
X5418Y-69187D01*
X7113Y-70882D01*
X9187Y-72080D01*
X11502Y-72700D01*
X13898D01*
X16213Y-72080D01*
X18288Y-70882D01*
X19982Y-69187D01*
X21180Y-67112D01*
X21800Y-64798D01*
Y-62402D01*
X21227Y-60264D01*
X36820Y-44671D01*
X187000D01*
X188405Y-44391D01*
X189596Y-43595D01*
X206484Y-26707D01*
X207175Y-26993D01*
Y-28368D01*
X206545Y-28629D01*
X204829Y-30345D01*
X203900Y-32587D01*
Y-35013D01*
X204829Y-37255D01*
X206545Y-38971D01*
X207731Y-39463D01*
Y-40837D01*
X206545Y-41329D01*
X205044Y-42829D01*
X199500D01*
X198095Y-43109D01*
X196905Y-43905D01*
X194480Y-46329D01*
X51700D01*
X50295Y-46609D01*
X49104Y-47404D01*
X41436Y-55073D01*
X39298Y-54500D01*
X36902D01*
X34588Y-55120D01*
X32513Y-56318D01*
X30818Y-58012D01*
X29620Y-60087D01*
X29000Y-62402D01*
Y-64798D01*
X29620Y-67112D01*
X30818Y-69187D01*
X32513Y-70882D01*
X34588Y-72080D01*
X36902Y-72700D01*
X39298D01*
X41613Y-72080D01*
X43688Y-70882D01*
X45382Y-69187D01*
X46580Y-67112D01*
X47200Y-64798D01*
Y-62402D01*
X46627Y-60264D01*
X53220Y-53671D01*
X60491D01*
X60658Y-54941D01*
X59988Y-55120D01*
X57913Y-56318D01*
X56218Y-58012D01*
X55020Y-60087D01*
X54400Y-62402D01*
Y-64798D01*
X55020Y-67112D01*
X56218Y-69187D01*
X57913Y-70882D01*
X59988Y-72080D01*
X62302Y-72700D01*
X64698D01*
X66836Y-72127D01*
X73536Y-78827D01*
X74727Y-79623D01*
X76132Y-79902D01*
X84601D01*
X84756Y-80111D01*
X84409Y-81778D01*
X83681Y-82198D01*
X82098Y-83781D01*
X80979Y-85719D01*
X80441Y-87730D01*
X97360D01*
X96821Y-85719D01*
X95702Y-83781D01*
X94119Y-82198D01*
X93391Y-81778D01*
X93044Y-80111D01*
X93199Y-79902D01*
X197768D01*
X199173Y-79623D01*
X200364Y-78827D01*
X203620Y-75571D01*
X205044D01*
X206545Y-77071D01*
X207731Y-77563D01*
Y-78937D01*
X206545Y-79429D01*
X204829Y-81145D01*
X203900Y-83387D01*
Y-85813D01*
X204829Y-88055D01*
X206545Y-89771D01*
X207731Y-90263D01*
Y-91637D01*
X206545Y-92129D01*
X204829Y-93845D01*
X203900Y-96087D01*
Y-98513D01*
X204829Y-100755D01*
X206545Y-102471D01*
X208376Y-103230D01*
X208124Y-104500D01*
X204500D01*
Y-108730D01*
X215500D01*
Y-104500D01*
X211876D01*
X211624Y-103230D01*
X213455Y-102471D01*
X215171Y-100755D01*
X216100Y-98513D01*
Y-96087D01*
X215171Y-93845D01*
X213455Y-92129D01*
X212269Y-91637D01*
Y-90263D01*
X213455Y-89771D01*
X215171Y-88055D01*
X216100Y-85813D01*
Y-83387D01*
X215171Y-81145D01*
X213455Y-79429D01*
X212269Y-78937D01*
Y-77563D01*
X213455Y-77071D01*
X215171Y-75355D01*
X216100Y-73113D01*
Y-70687D01*
X215171Y-68445D01*
X213455Y-66729D01*
X212269Y-66237D01*
Y-64863D01*
X213455Y-64371D01*
X215171Y-62655D01*
X216100Y-60413D01*
Y-57987D01*
X215171Y-55745D01*
X213455Y-54029D01*
X212269Y-53537D01*
Y-52163D01*
X213455Y-51671D01*
X215171Y-49955D01*
X216100Y-47713D01*
Y-45287D01*
X215171Y-43045D01*
X213455Y-41329D01*
X212269Y-40837D01*
Y-39463D01*
X213455Y-38971D01*
X215171Y-37255D01*
X216100Y-35013D01*
Y-32587D01*
X215171Y-30345D01*
X213455Y-28629D01*
X212269Y-28137D01*
Y-26763D01*
X213455Y-26271D01*
X215171Y-24555D01*
X216100Y-22313D01*
Y-19887D01*
X215171Y-17645D01*
X213455Y-15929D01*
X211213Y-15000D01*
D02*
G37*
G36*
X215500Y-111270D02*
X211270D01*
Y-115500D01*
X215500D01*
Y-111270D01*
D02*
G37*
G36*
X208730D02*
X204500D01*
Y-115500D01*
X208730D01*
Y-111270D01*
D02*
G37*
G36*
X203396Y-122400D02*
X200604D01*
X197909Y-123122D01*
X195492Y-124518D01*
X193518Y-126491D01*
X192122Y-128909D01*
X191400Y-131604D01*
Y-134396D01*
X192122Y-137092D01*
X193518Y-139509D01*
X195492Y-141482D01*
X197909Y-142878D01*
X200604Y-143600D01*
X203396D01*
X206091Y-142878D01*
X208508Y-141482D01*
X210482Y-139509D01*
X211878Y-137092D01*
X212600Y-134396D01*
Y-131604D01*
X211878Y-128909D01*
X210482Y-126491D01*
X208508Y-124518D01*
X206091Y-123122D01*
X203396Y-122400D01*
D02*
G37*
G36*
X149396D02*
X146604D01*
X143909Y-123122D01*
X141491Y-124518D01*
X139518Y-126491D01*
X138122Y-128909D01*
X137400Y-131604D01*
Y-134396D01*
X138122Y-137092D01*
X139518Y-139509D01*
X141491Y-141482D01*
X143909Y-142878D01*
X146604Y-143600D01*
X149396D01*
X152091Y-142878D01*
X154509Y-141482D01*
X156482Y-139509D01*
X157878Y-137092D01*
X158600Y-134396D01*
Y-131604D01*
X157878Y-128909D01*
X156482Y-126491D01*
X154509Y-124518D01*
X152091Y-123122D01*
X149396Y-122400D01*
D02*
G37*
G36*
X-146604D02*
X-149396D01*
X-152091Y-123122D01*
X-154509Y-124518D01*
X-156482Y-126491D01*
X-157878Y-128909D01*
X-158600Y-131604D01*
Y-134396D01*
X-157878Y-137092D01*
X-156482Y-139509D01*
X-154509Y-141482D01*
X-152091Y-142878D01*
X-149396Y-143600D01*
X-146604D01*
X-143909Y-142878D01*
X-141491Y-141482D01*
X-139518Y-139509D01*
X-138122Y-137092D01*
X-137400Y-134396D01*
Y-131604D01*
X-138122Y-128909D01*
X-139518Y-126491D01*
X-141491Y-124518D01*
X-143909Y-123122D01*
X-146604Y-122400D01*
D02*
G37*
G36*
X-200604D02*
X-203396D01*
X-206091Y-123122D01*
X-208508Y-124518D01*
X-210482Y-126491D01*
X-211878Y-128909D01*
X-212600Y-131604D01*
Y-134396D01*
X-211878Y-137092D01*
X-210482Y-139509D01*
X-208508Y-141482D01*
X-206091Y-142878D01*
X-203396Y-143600D01*
X-200604D01*
X-197909Y-142878D01*
X-195492Y-141482D01*
X-193518Y-139509D01*
X-192122Y-137092D01*
X-191400Y-134396D01*
Y-131604D01*
X-192122Y-128909D01*
X-193518Y-126491D01*
X-195492Y-124518D01*
X-197909Y-123122D01*
X-200604Y-122400D01*
D02*
G37*
%LPD*%
G36*
X-29174Y-55016D02*
Y-58320D01*
X-30445Y-58660D01*
X-30818Y-58012D01*
X-32513Y-56318D01*
X-34588Y-55120D01*
X-36902Y-54500D01*
X-39298D01*
X-41436Y-55073D01*
X-53569Y-42941D01*
X-53042Y-41670D01*
X-42520D01*
X-29174Y-55016D01*
D02*
G37*
G36*
X-171781Y-56689D02*
X-171070Y-56943D01*
X-169698Y-57781D01*
X-168885Y-58619D01*
X-168310Y-59537D01*
X-167996Y-60549D01*
X-168174Y-61057D01*
X-168700Y-61357D01*
X-177320D01*
X-178055Y-60600D01*
X-177670Y-59417D01*
X-177242Y-58771D01*
X-176505Y-58035D01*
X-175921Y-57501D01*
X-174930Y-56917D01*
X-173991Y-56638D01*
X-171781Y-56689D01*
D02*
G37*
G36*
X-93833Y-55940D02*
X-94487Y-56318D01*
X-96182Y-58012D01*
X-97289Y-59929D01*
X-108600D01*
X-110005Y-60209D01*
X-111195Y-61005D01*
X-143720Y-93530D01*
X-205044D01*
X-206545Y-92029D01*
X-207731Y-91537D01*
Y-90163D01*
X-206545Y-89671D01*
X-204829Y-87955D01*
X-203900Y-85713D01*
Y-83287D01*
X-204829Y-81045D01*
X-206545Y-79329D01*
X-207731Y-78837D01*
Y-77463D01*
X-206545Y-76971D01*
X-204829Y-75255D01*
X-204783Y-75146D01*
X-203475D01*
X-202071Y-74866D01*
X-200880Y-74071D01*
X-181480Y-54671D01*
X-177009D01*
X-176873Y-54926D01*
X-176676Y-55940D01*
X-177855Y-56845D01*
X-178946Y-58267D01*
X-179186Y-58847D01*
X-179190Y-58856D01*
X-179222Y-58912D01*
X-179344Y-59229D01*
X-179632Y-59923D01*
X-179641Y-59995D01*
X-179597Y-60006D01*
X-179714Y-60595D01*
X-179530Y-61516D01*
X-179008Y-62298D01*
X-178227Y-62819D01*
X-177446Y-62975D01*
X-177300Y-62892D01*
X-168680D01*
X-168592Y-62982D01*
X-168541Y-62972D01*
X-168498Y-62975D01*
X-168410Y-62946D01*
X-167773Y-62819D01*
X-166992Y-62298D01*
X-166470Y-61516D01*
X-166286Y-60595D01*
X-166403Y-60006D01*
X-166359Y-59995D01*
X-166368Y-59923D01*
X-167054Y-58267D01*
X-167548Y-57623D01*
X-167766Y-57297D01*
X-167833Y-57253D01*
X-168145Y-56845D01*
X-169324Y-55940D01*
X-169127Y-54926D01*
X-168991Y-54671D01*
X-94174D01*
X-93833Y-55940D01*
D02*
G37*
G36*
X-186642Y-49451D02*
X-204996Y-67805D01*
X-205368D01*
X-206545Y-66629D01*
X-207731Y-66137D01*
Y-64763D01*
X-206545Y-64271D01*
X-204829Y-62555D01*
X-203900Y-60313D01*
Y-57887D01*
X-204829Y-55645D01*
X-206545Y-53929D01*
X-207731Y-53437D01*
Y-52063D01*
X-206545Y-51571D01*
X-204829Y-49855D01*
X-204299Y-48577D01*
X-203707Y-48181D01*
X-187168D01*
X-186642Y-49451D01*
D02*
G37*
G36*
X206545Y-51671D02*
X207731Y-52163D01*
Y-53537D01*
X206545Y-54029D01*
X204829Y-55745D01*
X203900Y-57987D01*
Y-60413D01*
X204829Y-62655D01*
X206545Y-64371D01*
X207731Y-64863D01*
Y-66237D01*
X206545Y-66729D01*
X205044Y-68229D01*
X202100D01*
X200695Y-68509D01*
X199505Y-69305D01*
X196248Y-72561D01*
X92919D01*
X92579Y-71291D01*
X94119Y-70402D01*
X95702Y-68819D01*
X96821Y-66881D01*
X97360Y-64870D01*
X80441D01*
X80979Y-66881D01*
X82098Y-68819D01*
X83681Y-70402D01*
X85221Y-71291D01*
X84881Y-72561D01*
X77652D01*
X72027Y-66936D01*
X72600Y-64798D01*
Y-62402D01*
X71980Y-60087D01*
X70782Y-58012D01*
X69088Y-56318D01*
X67013Y-55120D01*
X66342Y-54941D01*
X66509Y-53671D01*
X196000D01*
X197405Y-53391D01*
X198596Y-52595D01*
X201020Y-50170D01*
X205044D01*
X206545Y-51671D01*
D02*
G37*
%LPC*%
G36*
X90170Y-55141D02*
Y-62330D01*
X97360D01*
X96821Y-60319D01*
X95702Y-58381D01*
X94119Y-56798D01*
X92181Y-55679D01*
X90170Y-55141D01*
D02*
G37*
G36*
X87630D02*
X85619Y-55679D01*
X83681Y-56798D01*
X82098Y-58381D01*
X80979Y-60319D01*
X80441Y-62330D01*
X87630D01*
Y-55141D01*
D02*
G37*
%LPD*%
D20*
X-169469Y-59000D02*
G03*
X-173000Y-57255I-3531J-2700D01*
G01*
D02*
G03*
X-177305Y-60595I0J-4445D01*
G01*
X-173000Y-66993D02*
G03*
X-171825Y-66835I0J4445D01*
G01*
X-174175D02*
G03*
X-173000Y-66993I1175J4287D01*
G01*
X-177305Y-63654D02*
G03*
X-174175Y-66835I4305J1105D01*
G01*
X-171825D02*
G03*
X-168695Y-63654I-1175J4287D01*
G01*
Y-60595D02*
G03*
X-169469Y-59000I-4305J-1105D01*
G01*
X-174175Y-66835D02*
X-173283Y-67728D01*
X-173000Y-74000D02*
Y-73000D01*
X-173283Y-72717D02*
Y-67728D01*
Y-72717D02*
X-173000Y-73000D01*
D21*
Y-65248D02*
D03*
Y-59000D02*
D03*
D22*
X76132Y-76232D02*
X197768D01*
X63500Y-63600D02*
X76132Y-76232D01*
X202100Y-71900D02*
X210000D01*
X197768Y-76232D02*
X202100Y-71900D01*
X-25504Y-76196D02*
Y-53496D01*
Y-76196D02*
X-12700Y-89000D01*
X-41000Y-38000D02*
X-25504Y-53496D01*
X-174000Y-51000D02*
X-76100D01*
X-183000D02*
X-174000D01*
X-173000Y-52000D01*
X35300Y-41000D02*
X187000D01*
X205943Y-22057D01*
X12700Y-63600D02*
X35300Y-41000D01*
X51700Y-50000D02*
X196000D01*
X38100Y-63600D02*
X51700Y-50000D01*
X196000D02*
X199500Y-46500D01*
X210000D01*
X-57189Y-44511D02*
X-38100Y-63600D01*
X-210000Y-46400D02*
X-209043Y-45443D01*
X-206089D01*
X-205157Y-44511D02*
X-57189D01*
X-206089Y-45443D02*
X-205157Y-44511D01*
X-200300Y-33700D02*
X-196000Y-38000D01*
X-41000D01*
X-76100Y-51000D02*
X-63500Y-63600D01*
X-203475Y-71475D02*
X-183000Y-51000D01*
X-210000Y-33700D02*
X-200300D01*
X209043Y-22057D02*
X210000Y-21100D01*
X205943Y-22057D02*
X209043D01*
X-210000Y-71800D02*
X-209675Y-71475D01*
X-203475D01*
X-142200Y-97200D02*
X-108600Y-63600D01*
X-88900D01*
X-210000Y-97200D02*
X-142200D01*
D23*
X-173000Y-57255D02*
Y-52000D01*
Y-66993D02*
Y-65248D01*
Y-73000D02*
Y-66993D01*
Y-74000D02*
Y-73000D01*
D24*
X-140900Y-109900D02*
X-120000Y-89000D01*
X-210000Y-109900D02*
X-140900D01*
X-120000Y-89000D02*
X-88900D01*
D25*
D03*
D26*
Y-63600D02*
D03*
X-63500D02*
D03*
X-38100Y-89000D02*
D03*
Y-63600D02*
D03*
X-12700Y-89000D02*
D03*
Y-63600D02*
D03*
X12700Y-89000D02*
D03*
Y-63600D02*
D03*
X38100Y-89000D02*
D03*
Y-63600D02*
D03*
X63500Y-89000D02*
D03*
Y-63600D02*
D03*
X88900Y-89000D02*
D03*
Y-63600D02*
D03*
X-63500Y-89000D02*
D03*
D27*
X202000Y-133000D02*
D03*
X-202000D02*
D03*
X148000D02*
D03*
X-148000D02*
D03*
X148000Y-17000D02*
D03*
X-148000D02*
D03*
D28*
X-210000Y-84500D02*
D03*
Y-71800D02*
D03*
X210000Y-84600D02*
D03*
Y-46500D02*
D03*
X-210000Y-109900D02*
D03*
Y-97200D02*
D03*
Y-33700D02*
D03*
Y-46400D02*
D03*
Y-59100D02*
D03*
X210000Y-21100D02*
D03*
Y-71900D02*
D03*
Y-97300D02*
D03*
Y-59200D02*
D03*
Y-33800D02*
D03*
D29*
X121000Y-133000D02*
D03*
X175000D02*
D03*
X-175000D02*
D03*
X-121000D02*
D03*
X121000Y-17000D02*
D03*
X175000D02*
D03*
X-175000D02*
D03*
X-121000D02*
D03*
D30*
X-210000Y-21000D02*
D03*
X210000Y-110000D02*
D03*
D31*
X-76000Y-75000D02*
D03*
X-173000Y-74000D02*
D03*
X218000Y-40000D02*
D03*
Y-53000D02*
D03*
Y-66000D02*
D03*
Y-78000D02*
D03*
Y-91000D02*
D03*
Y-14000D02*
D03*
Y-27000D02*
D03*
Y-103000D02*
D03*
X-218000Y-117000D02*
D03*
Y-104000D02*
D03*
Y-91000D02*
D03*
Y-78000D02*
D03*
Y-65000D02*
D03*
Y-53000D02*
D03*
Y-40000D02*
D03*
Y-28000D02*
D03*
M02*
