G04*
G04 #@! TF.GenerationSoftware,Altium Limited,Altium Designer,25.8.1 (18)*
G04*
G04 Layer_Color=32896*
%FSLAX44Y44*%
%MOMM*%
G71*
G04*
G04 #@! TF.SameCoordinates,EE5D2AC8-0814-4AB7-85DC-423FF69BB6BB*
G04*
G04*
G04 #@! TF.FilePolarity,Positive*
G04*
G01*
G75*
%ADD10C,0.1500*%
%ADD32C,0.1270*%
G36*
X-194000Y-94791D02*
X-197324D01*
X-197134Y-95041D01*
X-196955Y-95290D01*
X-196785Y-95550D01*
X-196625Y-95809D01*
X-196476Y-96059D01*
X-196346Y-96308D01*
X-196216Y-96538D01*
X-196106Y-96768D01*
X-196006Y-96967D01*
X-195917Y-97167D01*
X-195847Y-97327D01*
X-195777Y-97476D01*
X-195727Y-97596D01*
X-195697Y-97686D01*
X-195677Y-97736D01*
X-195667Y-97756D01*
X-195557Y-98065D01*
X-195457Y-98375D01*
X-195378Y-98674D01*
X-195308Y-98964D01*
X-195238Y-99243D01*
X-195188Y-99513D01*
X-195148Y-99762D01*
X-195108Y-100002D01*
X-195078Y-100211D01*
X-195058Y-100411D01*
X-195048Y-100581D01*
X-195028Y-100730D01*
Y-100840D01*
X-195018Y-100930D01*
Y-100980D01*
Y-101000D01*
X-196436D01*
X-196446Y-100611D01*
X-196486Y-100211D01*
X-196535Y-99832D01*
X-196565Y-99642D01*
X-196595Y-99473D01*
X-196625Y-99313D01*
X-196655Y-99163D01*
X-196685Y-99033D01*
X-196715Y-98924D01*
X-196735Y-98834D01*
X-196755Y-98764D01*
X-196765Y-98714D01*
Y-98704D01*
X-196905Y-98225D01*
X-197064Y-97776D01*
X-197144Y-97566D01*
X-197224Y-97357D01*
X-197304Y-97167D01*
X-197384Y-96997D01*
X-197454Y-96837D01*
X-197524Y-96688D01*
X-197584Y-96568D01*
X-197644Y-96458D01*
X-197683Y-96368D01*
X-197713Y-96308D01*
X-197733Y-96268D01*
X-197743Y-96258D01*
X-197863Y-96049D01*
X-197983Y-95849D01*
X-198103Y-95669D01*
X-198213Y-95500D01*
X-198332Y-95340D01*
X-198432Y-95190D01*
X-198532Y-95061D01*
X-198622Y-94941D01*
X-198712Y-94841D01*
X-198791Y-94751D01*
X-198851Y-94671D01*
X-198911Y-94601D01*
X-198961Y-94551D01*
X-198991Y-94522D01*
X-199011Y-94502D01*
X-199021Y-94492D01*
Y-93424D01*
X-194000D01*
Y-94791D01*
D02*
G37*
G36*
X-196771Y-79837D02*
X-196561Y-79867D01*
X-196352Y-79917D01*
X-196162Y-79977D01*
X-195982Y-80046D01*
X-195823Y-80126D01*
X-195663Y-80206D01*
X-195533Y-80296D01*
X-195403Y-80386D01*
X-195294Y-80466D01*
X-195204Y-80546D01*
X-195124Y-80615D01*
X-195064Y-80675D01*
X-195024Y-80725D01*
X-194994Y-80755D01*
X-194984Y-80765D01*
X-194844Y-80955D01*
X-194725Y-81164D01*
X-194625Y-81394D01*
X-194535Y-81634D01*
X-194455Y-81893D01*
X-194395Y-82143D01*
X-194345Y-82392D01*
X-194305Y-82642D01*
X-194275Y-82881D01*
X-194245Y-83101D01*
X-194225Y-83301D01*
X-194215Y-83470D01*
Y-83620D01*
X-194205Y-83680D01*
Y-83730D01*
Y-83770D01*
Y-83800D01*
Y-83810D01*
Y-83820D01*
X-194215Y-84189D01*
X-194235Y-84538D01*
X-194275Y-84858D01*
X-194325Y-85147D01*
X-194375Y-85417D01*
X-194435Y-85656D01*
X-194505Y-85876D01*
X-194575Y-86076D01*
X-194645Y-86245D01*
X-194715Y-86385D01*
X-194774Y-86515D01*
X-194824Y-86615D01*
X-194874Y-86685D01*
X-194914Y-86744D01*
X-194934Y-86774D01*
X-194944Y-86784D01*
X-195094Y-86944D01*
X-195244Y-87084D01*
X-195403Y-87204D01*
X-195563Y-87303D01*
X-195723Y-87393D01*
X-195882Y-87463D01*
X-196032Y-87523D01*
X-196182Y-87573D01*
X-196322Y-87603D01*
X-196451Y-87633D01*
X-196571Y-87653D01*
X-196671Y-87673D01*
X-196751D01*
X-196811Y-87683D01*
X-196861D01*
X-197060Y-87673D01*
X-197250Y-87653D01*
X-197420Y-87613D01*
X-197589Y-87573D01*
X-197749Y-87523D01*
X-197889Y-87463D01*
X-198029Y-87393D01*
X-198148Y-87323D01*
X-198258Y-87263D01*
X-198358Y-87194D01*
X-198438Y-87134D01*
X-198508Y-87084D01*
X-198558Y-87044D01*
X-198598Y-87004D01*
X-198618Y-86984D01*
X-198628Y-86974D01*
X-198747Y-86834D01*
X-198857Y-86685D01*
X-198947Y-86535D01*
X-199037Y-86375D01*
X-199097Y-86215D01*
X-199157Y-86056D01*
X-199207Y-85906D01*
X-199237Y-85756D01*
X-199266Y-85616D01*
X-199286Y-85487D01*
X-199306Y-85377D01*
X-199316Y-85277D01*
X-199326Y-85187D01*
Y-85127D01*
Y-85087D01*
Y-85077D01*
X-199316Y-84868D01*
X-199296Y-84678D01*
X-199266Y-84498D01*
X-199226Y-84319D01*
X-199177Y-84159D01*
X-199117Y-84009D01*
X-199057Y-83870D01*
X-198997Y-83750D01*
X-198937Y-83640D01*
X-198877Y-83540D01*
X-198817Y-83460D01*
X-198767Y-83390D01*
X-198727Y-83330D01*
X-198697Y-83291D01*
X-198678Y-83271D01*
X-198668Y-83261D01*
X-198538Y-83131D01*
X-198408Y-83031D01*
X-198278Y-82931D01*
X-198148Y-82851D01*
X-198009Y-82781D01*
X-197879Y-82722D01*
X-197749Y-82682D01*
X-197629Y-82642D01*
X-197519Y-82612D01*
X-197420Y-82592D01*
X-197320Y-82572D01*
X-197240Y-82562D01*
X-197180Y-82552D01*
X-197090D01*
X-196941Y-82562D01*
X-196801Y-82582D01*
X-196661Y-82612D01*
X-196531Y-82652D01*
X-196302Y-82761D01*
X-196102Y-82881D01*
X-196012Y-82941D01*
X-195942Y-83001D01*
X-195872Y-83061D01*
X-195823Y-83111D01*
X-195783Y-83151D01*
X-195753Y-83181D01*
X-195733Y-83201D01*
X-195723Y-83211D01*
X-195743Y-82971D01*
X-195763Y-82752D01*
X-195793Y-82552D01*
X-195823Y-82382D01*
X-195853Y-82212D01*
X-195882Y-82073D01*
X-195922Y-81953D01*
X-195952Y-81843D01*
X-195982Y-81743D01*
X-196012Y-81664D01*
X-196042Y-81604D01*
X-196072Y-81554D01*
X-196092Y-81514D01*
X-196112Y-81484D01*
X-196122Y-81464D01*
X-196252Y-81324D01*
X-196382Y-81224D01*
X-196521Y-81144D01*
X-196641Y-81095D01*
X-196751Y-81065D01*
X-196831Y-81055D01*
X-196891Y-81045D01*
X-196911D01*
X-197040Y-81055D01*
X-197150Y-81074D01*
X-197240Y-81115D01*
X-197330Y-81144D01*
X-197390Y-81184D01*
X-197440Y-81224D01*
X-197470Y-81244D01*
X-197480Y-81254D01*
X-197560Y-81344D01*
X-197619Y-81444D01*
X-197669Y-81544D01*
X-197699Y-81653D01*
X-197729Y-81743D01*
X-197749Y-81823D01*
X-197759Y-81873D01*
Y-81883D01*
Y-81893D01*
X-199187Y-81743D01*
X-199157Y-81574D01*
X-199107Y-81414D01*
X-199057Y-81264D01*
X-199007Y-81134D01*
X-198947Y-81005D01*
X-198887Y-80885D01*
X-198817Y-80785D01*
X-198757Y-80685D01*
X-198697Y-80605D01*
X-198638Y-80526D01*
X-198588Y-80466D01*
X-198538Y-80416D01*
X-198498Y-80376D01*
X-198478Y-80346D01*
X-198458Y-80336D01*
X-198448Y-80326D01*
X-198338Y-80236D01*
X-198218Y-80156D01*
X-198099Y-80096D01*
X-197979Y-80036D01*
X-197739Y-79947D01*
X-197510Y-79887D01*
X-197410Y-79867D01*
X-197310Y-79857D01*
X-197220Y-79837D01*
X-197150D01*
X-197090Y-79827D01*
X-197001D01*
X-196771Y-79837D01*
D02*
G37*
G36*
X2363Y-22808D02*
X234D01*
Y-19620D01*
X-1498Y-17847D01*
X-4411Y-22808D01*
X-7173D01*
X-2968Y-16349D01*
X-6967Y-12241D01*
X-4095D01*
X234Y-16940D01*
Y-12241D01*
X2363D01*
Y-22808D01*
D02*
G37*
G36*
X67965Y-22808D02*
X65986D01*
Y-15896D01*
X61713Y-22808D01*
X59569D01*
Y-12241D01*
X61548D01*
Y-19317D01*
X65904Y-12241D01*
X67965D01*
Y-22808D01*
D02*
G37*
G36*
X-79013Y-22808D02*
X-81294D01*
X-85087Y-12241D01*
X-82819D01*
X-80222Y-20059D01*
X-77557Y-12241D01*
X-75248D01*
X-79013Y-22808D01*
D02*
G37*
G36*
X-19746Y-17888D02*
Y-18204D01*
X-19760Y-18507D01*
Y-18795D01*
X-19774Y-19056D01*
X-19801Y-19304D01*
X-19815Y-19524D01*
X-19829Y-19716D01*
X-19856Y-19894D01*
X-19870Y-20059D01*
X-19884Y-20197D01*
X-19911Y-20307D01*
X-19925Y-20403D01*
X-19939Y-20485D01*
Y-20540D01*
X-19952Y-20568D01*
Y-20582D01*
X-20021Y-20801D01*
X-20104Y-21021D01*
X-20200Y-21214D01*
X-20296Y-21392D01*
X-20392Y-21543D01*
X-20475Y-21653D01*
X-20530Y-21722D01*
X-20543Y-21750D01*
X-20722Y-21956D01*
X-20928Y-22134D01*
X-21134Y-22285D01*
X-21327Y-22409D01*
X-21505Y-22519D01*
X-21656Y-22588D01*
X-21711Y-22615D01*
X-21753Y-22643D01*
X-21766Y-22657D01*
X-21780D01*
X-21931Y-22712D01*
X-22110Y-22766D01*
X-22467Y-22849D01*
X-22852Y-22918D01*
X-23223Y-22959D01*
X-23402Y-22973D01*
X-23567Y-22986D01*
X-23718D01*
X-23841Y-23000D01*
X-24089D01*
X-24542Y-22986D01*
X-24941Y-22945D01*
X-25284Y-22904D01*
X-25435Y-22876D01*
X-25573Y-22835D01*
X-25696Y-22808D01*
X-25806Y-22780D01*
X-25903Y-22753D01*
X-25985Y-22739D01*
X-26040Y-22712D01*
X-26081Y-22698D01*
X-26109Y-22684D01*
X-26122D01*
X-26397Y-22560D01*
X-26645Y-22423D01*
X-26864Y-22272D01*
X-27029Y-22134D01*
X-27181Y-22024D01*
X-27277Y-21915D01*
X-27345Y-21860D01*
X-27359Y-21832D01*
X-27524Y-21612D01*
X-27661Y-21392D01*
X-27771Y-21172D01*
X-27854Y-20953D01*
X-27922Y-20774D01*
X-27964Y-20623D01*
X-27991Y-20568D01*
Y-20527D01*
X-28005Y-20513D01*
Y-20499D01*
X-28033Y-20334D01*
X-28060Y-20156D01*
X-28087Y-19949D01*
X-28115Y-19743D01*
X-28142Y-19290D01*
X-28156Y-18850D01*
X-28170Y-18644D01*
Y-18452D01*
X-28184Y-18273D01*
Y-18108D01*
Y-17984D01*
Y-17888D01*
Y-17833D01*
Y-17806D01*
Y-12241D01*
X-26054D01*
Y-18094D01*
Y-18328D01*
Y-18534D01*
X-26040Y-18727D01*
Y-18905D01*
X-26026Y-19070D01*
Y-19221D01*
X-26012Y-19345D01*
Y-19468D01*
X-25999Y-19565D01*
X-25985Y-19661D01*
Y-19730D01*
X-25971Y-19784D01*
X-25958Y-19867D01*
Y-19894D01*
X-25903Y-20087D01*
X-25834Y-20266D01*
X-25738Y-20417D01*
X-25642Y-20554D01*
X-25545Y-20650D01*
X-25463Y-20733D01*
X-25422Y-20788D01*
X-25394Y-20801D01*
X-25202Y-20925D01*
X-24982Y-21021D01*
X-24748Y-21076D01*
X-24528Y-21131D01*
X-24336Y-21159D01*
X-24171Y-21172D01*
X-24020D01*
X-23704Y-21159D01*
X-23429Y-21117D01*
X-23182Y-21049D01*
X-22976Y-20980D01*
X-22811Y-20911D01*
X-22701Y-20843D01*
X-22632Y-20801D01*
X-22605Y-20788D01*
X-22426Y-20623D01*
X-22289Y-20458D01*
X-22165Y-20279D01*
X-22082Y-20114D01*
X-22014Y-19963D01*
X-21972Y-19853D01*
X-21959Y-19771D01*
X-21945Y-19757D01*
Y-19743D01*
X-21931Y-19661D01*
X-21918Y-19551D01*
Y-19427D01*
X-21904Y-19304D01*
X-21890Y-19001D01*
Y-18713D01*
X-21876Y-18424D01*
Y-18300D01*
Y-18190D01*
Y-18094D01*
Y-18026D01*
Y-17984D01*
Y-17971D01*
Y-12241D01*
X-19746D01*
Y-17888D01*
D02*
G37*
G36*
X99117Y-22808D02*
X96987D01*
Y-18314D01*
X92576D01*
Y-16528D01*
X96987D01*
Y-14027D01*
X91875D01*
Y-12241D01*
X99117D01*
Y-22808D01*
D02*
G37*
G36*
X90102D02*
X87972D01*
Y-18397D01*
X87285D01*
X87065Y-18410D01*
X86887Y-18438D01*
X86736Y-18452D01*
X86612Y-18479D01*
X86543Y-18507D01*
X86488Y-18520D01*
X86475D01*
X86351Y-18575D01*
X86227Y-18644D01*
X86117Y-18713D01*
X86021Y-18781D01*
X85939Y-18850D01*
X85884Y-18905D01*
X85843Y-18946D01*
X85829Y-18960D01*
X85760Y-19029D01*
X85691Y-19111D01*
X85609Y-19221D01*
X85527Y-19331D01*
X85334Y-19592D01*
X85155Y-19853D01*
X84977Y-20101D01*
X84908Y-20210D01*
X84839Y-20320D01*
X84784Y-20403D01*
X84743Y-20458D01*
X84716Y-20499D01*
X84702Y-20513D01*
X83163Y-22808D01*
X80607D01*
X81899Y-20746D01*
X82036Y-20527D01*
X82174Y-20320D01*
X82297Y-20128D01*
X82407Y-19963D01*
X82517Y-19812D01*
X82627Y-19675D01*
X82710Y-19551D01*
X82792Y-19441D01*
X82874Y-19345D01*
X82943Y-19262D01*
X83039Y-19139D01*
X83094Y-19070D01*
X83122Y-19043D01*
X83300Y-18864D01*
X83479Y-18699D01*
X83671Y-18548D01*
X83850Y-18410D01*
X84015Y-18300D01*
X84139Y-18218D01*
X84235Y-18163D01*
X84249Y-18149D01*
X84262D01*
X84001Y-18108D01*
X83768Y-18053D01*
X83548Y-17984D01*
X83342Y-17916D01*
X83149Y-17833D01*
X82984Y-17751D01*
X82819Y-17668D01*
X82682Y-17586D01*
X82558Y-17503D01*
X82448Y-17421D01*
X82366Y-17352D01*
X82297Y-17297D01*
X82228Y-17242D01*
X82187Y-17201D01*
X82174Y-17187D01*
X82160Y-17174D01*
X82036Y-17023D01*
X81926Y-16871D01*
X81830Y-16706D01*
X81748Y-16542D01*
X81624Y-16212D01*
X81542Y-15896D01*
X81514Y-15758D01*
X81500Y-15621D01*
X81487Y-15511D01*
X81473Y-15401D01*
X81459Y-15319D01*
Y-15264D01*
Y-15222D01*
Y-15209D01*
X81473Y-14865D01*
X81528Y-14549D01*
X81610Y-14274D01*
X81693Y-14027D01*
X81775Y-13821D01*
X81816Y-13738D01*
X81858Y-13670D01*
X81885Y-13615D01*
X81912Y-13573D01*
X81926Y-13560D01*
Y-13546D01*
X82119Y-13299D01*
X82311Y-13079D01*
X82517Y-12900D01*
X82723Y-12763D01*
X82888Y-12653D01*
X83039Y-12584D01*
X83094Y-12557D01*
X83122Y-12543D01*
X83149Y-12529D01*
X83163D01*
X83314Y-12474D01*
X83479Y-12433D01*
X83671Y-12392D01*
X83864Y-12364D01*
X84276Y-12309D01*
X84675Y-12282D01*
X84867Y-12268D01*
X85045Y-12254D01*
X85210D01*
X85348Y-12241D01*
X90102D01*
Y-22808D01*
D02*
G37*
G36*
X58057Y-14027D02*
X54924D01*
Y-22808D01*
X52794D01*
Y-14027D01*
X49675D01*
Y-12241D01*
X58057D01*
Y-14027D01*
D02*
G37*
G36*
X44192Y-22808D02*
X40235D01*
X39905Y-22794D01*
X39342D01*
X39108Y-22780D01*
X38709D01*
X38558Y-22766D01*
X38421D01*
X38311Y-22753D01*
X38146D01*
X38091Y-22739D01*
X38036D01*
X37734Y-22684D01*
X37459Y-22615D01*
X37212Y-22547D01*
X37006Y-22450D01*
X36841Y-22382D01*
X36703Y-22313D01*
X36635Y-22258D01*
X36607Y-22244D01*
X36401Y-22079D01*
X36209Y-21901D01*
X36057Y-21722D01*
X35920Y-21543D01*
X35824Y-21392D01*
X35741Y-21269D01*
X35700Y-21186D01*
X35686Y-21172D01*
Y-21159D01*
X35577Y-20898D01*
X35494Y-20650D01*
X35425Y-20417D01*
X35384Y-20197D01*
X35357Y-20018D01*
X35343Y-19881D01*
Y-19826D01*
Y-19784D01*
Y-19771D01*
Y-19757D01*
X35370Y-19427D01*
X35425Y-19125D01*
X35508Y-18850D01*
X35604Y-18616D01*
X35700Y-18424D01*
X35783Y-18287D01*
X35810Y-18232D01*
X35838Y-18190D01*
X35865Y-18177D01*
Y-18163D01*
X36085Y-17929D01*
X36319Y-17723D01*
X36566Y-17558D01*
X36799Y-17435D01*
X37019Y-17325D01*
X37115Y-17284D01*
X37184Y-17256D01*
X37253Y-17229D01*
X37308Y-17215D01*
X37335Y-17201D01*
X37349D01*
X37102Y-17064D01*
X36896Y-16926D01*
X36703Y-16761D01*
X36552Y-16610D01*
X36428Y-16473D01*
X36332Y-16363D01*
X36277Y-16294D01*
X36264Y-16267D01*
X36126Y-16033D01*
X36030Y-15799D01*
X35961Y-15566D01*
X35920Y-15360D01*
X35879Y-15167D01*
X35865Y-15030D01*
Y-14975D01*
Y-14934D01*
Y-14920D01*
Y-14906D01*
X35879Y-14659D01*
X35920Y-14425D01*
X35975Y-14219D01*
X36030Y-14027D01*
X36085Y-13876D01*
X36140Y-13766D01*
X36181Y-13697D01*
X36195Y-13670D01*
X36319Y-13477D01*
X36456Y-13299D01*
X36593Y-13147D01*
X36717Y-13024D01*
X36841Y-12928D01*
X36923Y-12845D01*
X36978Y-12804D01*
X37006Y-12790D01*
X37184Y-12680D01*
X37377Y-12584D01*
X37569Y-12502D01*
X37734Y-12447D01*
X37885Y-12405D01*
X37995Y-12378D01*
X38077Y-12350D01*
X38105D01*
X38229Y-12337D01*
X38366Y-12309D01*
X38655Y-12282D01*
X38971Y-12268D01*
X39273Y-12254D01*
X39548Y-12241D01*
X44192D01*
Y-22808D01*
D02*
G37*
G36*
X33529D02*
X31399D01*
Y-18397D01*
X30712D01*
X30492Y-18410D01*
X30313Y-18438D01*
X30162Y-18452D01*
X30039Y-18479D01*
X29970Y-18507D01*
X29915Y-18520D01*
X29901D01*
X29778Y-18575D01*
X29654Y-18644D01*
X29544Y-18713D01*
X29448Y-18781D01*
X29365Y-18850D01*
X29310Y-18905D01*
X29269Y-18946D01*
X29255Y-18960D01*
X29187Y-19029D01*
X29118Y-19111D01*
X29036Y-19221D01*
X28953Y-19331D01*
X28761Y-19592D01*
X28582Y-19853D01*
X28403Y-20101D01*
X28335Y-20210D01*
X28266Y-20320D01*
X28211Y-20403D01*
X28170Y-20458D01*
X28142Y-20499D01*
X28129Y-20513D01*
X26590Y-22808D01*
X24034D01*
X25325Y-20746D01*
X25463Y-20527D01*
X25600Y-20320D01*
X25724Y-20128D01*
X25834Y-19963D01*
X25944Y-19812D01*
X26054Y-19675D01*
X26136Y-19551D01*
X26219Y-19441D01*
X26301Y-19345D01*
X26370Y-19262D01*
X26466Y-19139D01*
X26521Y-19070D01*
X26548Y-19043D01*
X26727Y-18864D01*
X26906Y-18699D01*
X27098Y-18548D01*
X27277Y-18410D01*
X27442Y-18300D01*
X27565Y-18218D01*
X27661Y-18163D01*
X27675Y-18149D01*
X27689D01*
X27428Y-18108D01*
X27194Y-18053D01*
X26974Y-17984D01*
X26768Y-17916D01*
X26576Y-17833D01*
X26411Y-17751D01*
X26246Y-17668D01*
X26109Y-17586D01*
X25985Y-17503D01*
X25875Y-17421D01*
X25793Y-17352D01*
X25724Y-17297D01*
X25655Y-17242D01*
X25614Y-17201D01*
X25600Y-17187D01*
X25587Y-17174D01*
X25463Y-17023D01*
X25353Y-16871D01*
X25257Y-16707D01*
X25174Y-16542D01*
X25051Y-16212D01*
X24968Y-15896D01*
X24941Y-15758D01*
X24927Y-15621D01*
X24913Y-15511D01*
X24899Y-15401D01*
X24886Y-15319D01*
Y-15264D01*
Y-15222D01*
Y-15209D01*
X24899Y-14865D01*
X24954Y-14549D01*
X25037Y-14274D01*
X25119Y-14027D01*
X25202Y-13821D01*
X25243Y-13738D01*
X25284Y-13670D01*
X25312Y-13615D01*
X25339Y-13573D01*
X25353Y-13560D01*
Y-13546D01*
X25545Y-13299D01*
X25738Y-13079D01*
X25944Y-12900D01*
X26150Y-12763D01*
X26315Y-12653D01*
X26466Y-12584D01*
X26521Y-12557D01*
X26548Y-12543D01*
X26576Y-12529D01*
X26590D01*
X26741Y-12474D01*
X26906Y-12433D01*
X27098Y-12392D01*
X27290Y-12364D01*
X27703Y-12309D01*
X28101Y-12282D01*
X28293Y-12268D01*
X28472Y-12254D01*
X28637D01*
X28774Y-12241D01*
X33529D01*
Y-22808D01*
D02*
G37*
G36*
X22866Y-22808D02*
X14841D01*
Y-21021D01*
X20736D01*
Y-18149D01*
X15445D01*
Y-16363D01*
X20736D01*
Y-14027D01*
X15047D01*
Y-12241D01*
X22866D01*
Y-22808D01*
D02*
G37*
G36*
X14112D02*
X11859D01*
X10979Y-20403D01*
X6761D01*
X5826Y-22808D01*
X3504D01*
X7723Y-12241D01*
X10004D01*
X14112Y-22808D01*
D02*
G37*
G36*
X-29681Y-14027D02*
X-32815D01*
Y-22808D01*
X-34944D01*
Y-14027D01*
X-38064D01*
Y-12241D01*
X-29681D01*
Y-14027D01*
D02*
G37*
G36*
X-55831Y-22808D02*
X-57961D01*
Y-18397D01*
X-58648D01*
X-58868Y-18410D01*
X-59047Y-18438D01*
X-59198Y-18452D01*
X-59322Y-18479D01*
X-59390Y-18507D01*
X-59445Y-18520D01*
X-59459D01*
X-59583Y-18575D01*
X-59706Y-18644D01*
X-59816Y-18713D01*
X-59913Y-18781D01*
X-59995Y-18850D01*
X-60050Y-18905D01*
X-60091Y-18946D01*
X-60105Y-18960D01*
X-60174Y-19029D01*
X-60242Y-19111D01*
X-60325Y-19221D01*
X-60407Y-19331D01*
X-60600Y-19592D01*
X-60778Y-19853D01*
X-60957Y-20101D01*
X-61026Y-20210D01*
X-61094Y-20320D01*
X-61149Y-20403D01*
X-61191Y-20458D01*
X-61218Y-20499D01*
X-61232Y-20513D01*
X-62771Y-22808D01*
X-65327D01*
X-64035Y-20746D01*
X-63898Y-20527D01*
X-63760Y-20320D01*
X-63636Y-20128D01*
X-63527Y-19963D01*
X-63417Y-19812D01*
X-63307Y-19675D01*
X-63224Y-19551D01*
X-63142Y-19441D01*
X-63059Y-19345D01*
X-62991Y-19262D01*
X-62894Y-19139D01*
X-62839Y-19070D01*
X-62812Y-19043D01*
X-62633Y-18864D01*
X-62455Y-18699D01*
X-62262Y-18548D01*
X-62084Y-18410D01*
X-61919Y-18300D01*
X-61795Y-18218D01*
X-61699Y-18163D01*
X-61685Y-18149D01*
X-61671D01*
X-61933Y-18108D01*
X-62166Y-18053D01*
X-62386Y-17984D01*
X-62592Y-17916D01*
X-62785Y-17833D01*
X-62949Y-17751D01*
X-63114Y-17668D01*
X-63252Y-17586D01*
X-63375Y-17503D01*
X-63485Y-17421D01*
X-63568Y-17352D01*
X-63636Y-17297D01*
X-63705Y-17242D01*
X-63746Y-17201D01*
X-63760Y-17187D01*
X-63774Y-17174D01*
X-63898Y-17023D01*
X-64007Y-16871D01*
X-64104Y-16707D01*
X-64186Y-16542D01*
X-64310Y-16212D01*
X-64392Y-15896D01*
X-64420Y-15758D01*
X-64433Y-15621D01*
X-64447Y-15511D01*
X-64461Y-15401D01*
X-64475Y-15319D01*
Y-15264D01*
Y-15222D01*
Y-15209D01*
X-64461Y-14865D01*
X-64406Y-14549D01*
X-64324Y-14274D01*
X-64241Y-14027D01*
X-64159Y-13821D01*
X-64117Y-13738D01*
X-64076Y-13670D01*
X-64049Y-13615D01*
X-64021Y-13573D01*
X-64007Y-13560D01*
Y-13546D01*
X-63815Y-13299D01*
X-63623Y-13079D01*
X-63417Y-12900D01*
X-63210Y-12763D01*
X-63046Y-12653D01*
X-62894Y-12584D01*
X-62839Y-12557D01*
X-62812Y-12543D01*
X-62785Y-12529D01*
X-62771D01*
X-62620Y-12474D01*
X-62455Y-12433D01*
X-62262Y-12392D01*
X-62070Y-12364D01*
X-61658Y-12309D01*
X-61259Y-12282D01*
X-61067Y-12268D01*
X-60888Y-12254D01*
X-60723D01*
X-60586Y-12241D01*
X-55831D01*
Y-22808D01*
D02*
G37*
G36*
X-66495D02*
X-74520D01*
Y-21021D01*
X-68625D01*
Y-18149D01*
X-73915D01*
Y-16363D01*
X-68625D01*
Y-14027D01*
X-74314D01*
Y-12241D01*
X-66495D01*
Y-22808D01*
D02*
G37*
G36*
X-90267D02*
X-94225D01*
X-94555Y-22794D01*
X-95118D01*
X-95352Y-22780D01*
X-95750D01*
X-95901Y-22766D01*
X-96039D01*
X-96149Y-22753D01*
X-96313D01*
X-96368Y-22739D01*
X-96423D01*
X-96726Y-22684D01*
X-97001Y-22615D01*
X-97248Y-22547D01*
X-97454Y-22450D01*
X-97619Y-22382D01*
X-97756Y-22313D01*
X-97825Y-22258D01*
X-97852Y-22244D01*
X-98059Y-22079D01*
X-98251Y-21901D01*
X-98402Y-21722D01*
X-98540Y-21543D01*
X-98636Y-21392D01*
X-98718Y-21269D01*
X-98759Y-21186D01*
X-98773Y-21172D01*
Y-21159D01*
X-98883Y-20898D01*
X-98966Y-20650D01*
X-99034Y-20417D01*
X-99075Y-20197D01*
X-99103Y-20018D01*
X-99117Y-19881D01*
Y-19826D01*
Y-19784D01*
Y-19771D01*
Y-19757D01*
X-99089Y-19427D01*
X-99034Y-19125D01*
X-98952Y-18850D01*
X-98856Y-18616D01*
X-98759Y-18424D01*
X-98677Y-18287D01*
X-98650Y-18232D01*
X-98622Y-18190D01*
X-98595Y-18177D01*
Y-18163D01*
X-98375Y-17930D01*
X-98141Y-17723D01*
X-97894Y-17558D01*
X-97660Y-17435D01*
X-97440Y-17325D01*
X-97344Y-17284D01*
X-97275Y-17256D01*
X-97207Y-17229D01*
X-97152Y-17215D01*
X-97124Y-17201D01*
X-97111D01*
X-97358Y-17064D01*
X-97564Y-16926D01*
X-97756Y-16761D01*
X-97907Y-16610D01*
X-98031Y-16473D01*
X-98127Y-16363D01*
X-98182Y-16294D01*
X-98196Y-16267D01*
X-98334Y-16033D01*
X-98430Y-15799D01*
X-98498Y-15566D01*
X-98540Y-15360D01*
X-98581Y-15167D01*
X-98595Y-15030D01*
Y-14975D01*
Y-14934D01*
Y-14920D01*
Y-14906D01*
X-98581Y-14659D01*
X-98540Y-14425D01*
X-98485Y-14219D01*
X-98430Y-14027D01*
X-98375Y-13876D01*
X-98320Y-13766D01*
X-98279Y-13697D01*
X-98265Y-13670D01*
X-98141Y-13477D01*
X-98004Y-13299D01*
X-97866Y-13147D01*
X-97743Y-13024D01*
X-97619Y-12928D01*
X-97536Y-12845D01*
X-97481Y-12804D01*
X-97454Y-12790D01*
X-97275Y-12680D01*
X-97083Y-12584D01*
X-96891Y-12502D01*
X-96726Y-12447D01*
X-96575Y-12405D01*
X-96465Y-12378D01*
X-96382Y-12350D01*
X-96355D01*
X-96231Y-12337D01*
X-96094Y-12309D01*
X-95805Y-12282D01*
X-95489Y-12268D01*
X-95187Y-12254D01*
X-94912Y-12241D01*
X-90267D01*
Y-22808D01*
D02*
G37*
G36*
X75248Y-12062D02*
X75688Y-12117D01*
X76072Y-12185D01*
X76251Y-12227D01*
X76402Y-12254D01*
X76553Y-12296D01*
X76677Y-12337D01*
X76787Y-12378D01*
X76883Y-12405D01*
X76966Y-12433D01*
X77021Y-12460D01*
X77048Y-12474D01*
X77062D01*
X77337Y-12612D01*
X77584Y-12763D01*
X77818Y-12914D01*
X78024Y-13079D01*
X78189Y-13216D01*
X78312Y-13326D01*
X78395Y-13408D01*
X78408Y-13422D01*
X78422Y-13436D01*
X78642Y-13683D01*
X78834Y-13931D01*
X78999Y-14164D01*
X79137Y-14398D01*
X79247Y-14590D01*
X79329Y-14741D01*
X79357Y-14796D01*
X79384Y-14838D01*
X79398Y-14865D01*
Y-14879D01*
X79563Y-15305D01*
X79673Y-15772D01*
X79755Y-16226D01*
X79824Y-16652D01*
X79837Y-16844D01*
X79851Y-17023D01*
X79865Y-17187D01*
Y-17325D01*
X79879Y-17449D01*
Y-17531D01*
Y-17586D01*
Y-17600D01*
X79865Y-18067D01*
X79824Y-18493D01*
X79755Y-18905D01*
X79659Y-19290D01*
X79563Y-19647D01*
X79439Y-19963D01*
X79315Y-20266D01*
X79178Y-20527D01*
X79054Y-20774D01*
X78931Y-20980D01*
X78807Y-21159D01*
X78711Y-21310D01*
X78615Y-21420D01*
X78546Y-21502D01*
X78505Y-21557D01*
X78491Y-21571D01*
X78216Y-21818D01*
X77927Y-22038D01*
X77625Y-22231D01*
X77323Y-22395D01*
X77007Y-22533D01*
X76705Y-22657D01*
X76388Y-22739D01*
X76100Y-22821D01*
X75825Y-22876D01*
X75564Y-22918D01*
X75344Y-22959D01*
X75138Y-22973D01*
X74973Y-22986D01*
X74863Y-23000D01*
X74753D01*
X74327Y-22986D01*
X73929Y-22931D01*
X73544Y-22863D01*
X73187Y-22780D01*
X72857Y-22670D01*
X72555Y-22547D01*
X72280Y-22409D01*
X72032Y-22272D01*
X71799Y-22148D01*
X71606Y-22011D01*
X71441Y-21887D01*
X71290Y-21777D01*
X71181Y-21695D01*
X71112Y-21612D01*
X71057Y-21571D01*
X71043Y-21557D01*
X70796Y-21269D01*
X70576Y-20966D01*
X70397Y-20650D01*
X70232Y-20320D01*
X70095Y-19991D01*
X69985Y-19647D01*
X69889Y-19331D01*
X69820Y-19015D01*
X69765Y-18713D01*
X69710Y-18438D01*
X69683Y-18190D01*
X69669Y-17971D01*
X69655Y-17792D01*
X69641Y-17655D01*
Y-17572D01*
Y-17558D01*
Y-17545D01*
X69655Y-17077D01*
X69696Y-16624D01*
X69765Y-16212D01*
X69861Y-15827D01*
X69971Y-15456D01*
X70081Y-15126D01*
X70205Y-14824D01*
X70342Y-14549D01*
X70466Y-14315D01*
X70603Y-14096D01*
X70713Y-13917D01*
X70823Y-13766D01*
X70919Y-13656D01*
X70988Y-13573D01*
X71029Y-13518D01*
X71043Y-13505D01*
X71318Y-13244D01*
X71606Y-13024D01*
X71909Y-12831D01*
X72211Y-12666D01*
X72527Y-12515D01*
X72843Y-12405D01*
X73145Y-12309D01*
X73434Y-12227D01*
X73709Y-12172D01*
X73970Y-12131D01*
X74190Y-12089D01*
X74396Y-12076D01*
X74561Y-12062D01*
X74671Y-12048D01*
X74781D01*
X75248Y-12062D01*
D02*
G37*
G36*
X-12491Y-12062D02*
X-12051Y-12117D01*
X-11666Y-12185D01*
X-11488Y-12227D01*
X-11337Y-12254D01*
X-11185Y-12296D01*
X-11062Y-12337D01*
X-10952Y-12378D01*
X-10856Y-12405D01*
X-10773Y-12433D01*
X-10718Y-12460D01*
X-10691Y-12474D01*
X-10677D01*
X-10402Y-12612D01*
X-10155Y-12763D01*
X-9921Y-12914D01*
X-9715Y-13079D01*
X-9550Y-13216D01*
X-9427Y-13326D01*
X-9344Y-13408D01*
X-9330Y-13422D01*
X-9317Y-13436D01*
X-9097Y-13683D01*
X-8904Y-13931D01*
X-8740Y-14164D01*
X-8602Y-14398D01*
X-8492Y-14590D01*
X-8410Y-14741D01*
X-8382Y-14796D01*
X-8355Y-14838D01*
X-8341Y-14865D01*
Y-14879D01*
X-8176Y-15305D01*
X-8066Y-15772D01*
X-7984Y-16226D01*
X-7915Y-16652D01*
X-7901Y-16844D01*
X-7888Y-17023D01*
X-7874Y-17187D01*
Y-17325D01*
X-7860Y-17449D01*
Y-17531D01*
Y-17586D01*
Y-17600D01*
X-7874Y-18067D01*
X-7915Y-18493D01*
X-7984Y-18905D01*
X-8080Y-19290D01*
X-8176Y-19647D01*
X-8300Y-19963D01*
X-8424Y-20266D01*
X-8561Y-20527D01*
X-8685Y-20774D01*
X-8808Y-20980D01*
X-8932Y-21159D01*
X-9028Y-21310D01*
X-9124Y-21420D01*
X-9193Y-21502D01*
X-9234Y-21557D01*
X-9248Y-21571D01*
X-9523Y-21818D01*
X-9811Y-22038D01*
X-10114Y-22231D01*
X-10416Y-22395D01*
X-10732Y-22533D01*
X-11034Y-22657D01*
X-11350Y-22739D01*
X-11639Y-22821D01*
X-11914Y-22876D01*
X-12175Y-22918D01*
X-12395Y-22959D01*
X-12601Y-22973D01*
X-12766Y-22986D01*
X-12876Y-23000D01*
X-12986D01*
X-13412Y-22986D01*
X-13810Y-22931D01*
X-14195Y-22863D01*
X-14552Y-22780D01*
X-14882Y-22670D01*
X-15184Y-22547D01*
X-15459Y-22409D01*
X-15706Y-22272D01*
X-15940Y-22148D01*
X-16132Y-22011D01*
X-16297Y-21887D01*
X-16449Y-21777D01*
X-16558Y-21695D01*
X-16627Y-21612D01*
X-16682Y-21571D01*
X-16696Y-21557D01*
X-16943Y-21269D01*
X-17163Y-20966D01*
X-17342Y-20650D01*
X-17507Y-20320D01*
X-17644Y-19991D01*
X-17754Y-19647D01*
X-17850Y-19331D01*
X-17919Y-19015D01*
X-17974Y-18713D01*
X-18029Y-18438D01*
X-18056Y-18190D01*
X-18070Y-17971D01*
X-18084Y-17792D01*
X-18097Y-17655D01*
Y-17572D01*
Y-17558D01*
Y-17545D01*
X-18084Y-17077D01*
X-18043Y-16624D01*
X-17974Y-16212D01*
X-17878Y-15827D01*
X-17768Y-15456D01*
X-17658Y-15126D01*
X-17534Y-14824D01*
X-17397Y-14549D01*
X-17273Y-14316D01*
X-17135Y-14096D01*
X-17026Y-13917D01*
X-16916Y-13766D01*
X-16819Y-13656D01*
X-16751Y-13573D01*
X-16710Y-13519D01*
X-16696Y-13505D01*
X-16421Y-13244D01*
X-16132Y-13024D01*
X-15830Y-12831D01*
X-15528Y-12666D01*
X-15212Y-12515D01*
X-14896Y-12405D01*
X-14593Y-12309D01*
X-14305Y-12227D01*
X-14030Y-12172D01*
X-13769Y-12131D01*
X-13549Y-12089D01*
X-13343Y-12076D01*
X-13178Y-12062D01*
X-13068Y-12048D01*
X-12958D01*
X-12491Y-12062D01*
D02*
G37*
G36*
X-194385Y-71959D02*
X-195573Y-72129D01*
X-195673Y-72029D01*
X-195763Y-71939D01*
X-195863Y-71870D01*
X-195962Y-71810D01*
X-196152Y-71710D01*
X-196322Y-71640D01*
X-196471Y-71600D01*
X-196541Y-71590D01*
X-196591Y-71580D01*
X-196641Y-71570D01*
X-196701D01*
X-196881Y-71590D01*
X-197040Y-71630D01*
X-197180Y-71680D01*
X-197300Y-71750D01*
X-197390Y-71820D01*
X-197460Y-71870D01*
X-197510Y-71909D01*
X-197519Y-71929D01*
X-197629Y-72079D01*
X-197709Y-72249D01*
X-197759Y-72429D01*
X-197799Y-72598D01*
X-197819Y-72758D01*
X-197829Y-72818D01*
X-197839Y-72878D01*
Y-72928D01*
Y-72968D01*
Y-72988D01*
Y-72997D01*
X-197829Y-73267D01*
X-197789Y-73497D01*
X-197739Y-73686D01*
X-197679Y-73846D01*
X-197619Y-73976D01*
X-197570Y-74066D01*
X-197530Y-74116D01*
X-197519Y-74135D01*
X-197390Y-74255D01*
X-197260Y-74345D01*
X-197130Y-74415D01*
X-197010Y-74455D01*
X-196901Y-74485D01*
X-196821Y-74495D01*
X-196761Y-74505D01*
X-196741D01*
X-196591Y-74495D01*
X-196461Y-74455D01*
X-196342Y-74415D01*
X-196242Y-74355D01*
X-196152Y-74305D01*
X-196092Y-74255D01*
X-196042Y-74225D01*
X-196032Y-74215D01*
X-195932Y-74096D01*
X-195853Y-73966D01*
X-195783Y-73836D01*
X-195743Y-73716D01*
X-195713Y-73597D01*
X-195683Y-73507D01*
X-195673Y-73447D01*
Y-73437D01*
Y-73427D01*
X-194205Y-73587D01*
X-194235Y-73766D01*
X-194275Y-73926D01*
X-194325Y-74086D01*
X-194385Y-74225D01*
X-194445Y-74365D01*
X-194515Y-74495D01*
X-194585Y-74605D01*
X-194655Y-74704D01*
X-194725Y-74804D01*
X-194784Y-74884D01*
X-194844Y-74954D01*
X-194894Y-75014D01*
X-194944Y-75054D01*
X-194974Y-75084D01*
X-194994Y-75104D01*
X-195004Y-75114D01*
X-195134Y-75214D01*
X-195273Y-75303D01*
X-195413Y-75373D01*
X-195553Y-75443D01*
X-195703Y-75493D01*
X-195842Y-75543D01*
X-196122Y-75613D01*
X-196242Y-75633D01*
X-196362Y-75653D01*
X-196461Y-75663D01*
X-196551Y-75673D01*
X-196631Y-75683D01*
X-196731D01*
X-196971Y-75673D01*
X-197200Y-75643D01*
X-197420Y-75593D01*
X-197619Y-75523D01*
X-197799Y-75443D01*
X-197969Y-75363D01*
X-198129Y-75264D01*
X-198268Y-75174D01*
X-198388Y-75074D01*
X-198498Y-74984D01*
X-198598Y-74904D01*
X-198668Y-74824D01*
X-198727Y-74754D01*
X-198777Y-74704D01*
X-198797Y-74675D01*
X-198807Y-74665D01*
X-198907Y-74525D01*
X-198987Y-74375D01*
X-199067Y-74235D01*
X-199127Y-74086D01*
X-199226Y-73806D01*
X-199286Y-73547D01*
X-199306Y-73427D01*
X-199326Y-73317D01*
X-199336Y-73217D01*
X-199346Y-73137D01*
X-199356Y-73067D01*
Y-73018D01*
Y-72988D01*
Y-72978D01*
X-199346Y-72768D01*
X-199326Y-72568D01*
X-199296Y-72379D01*
X-199247Y-72209D01*
X-199197Y-72039D01*
X-199147Y-71890D01*
X-199077Y-71750D01*
X-199017Y-71620D01*
X-198957Y-71510D01*
X-198897Y-71410D01*
X-198837Y-71321D01*
X-198787Y-71251D01*
X-198737Y-71191D01*
X-198707Y-71151D01*
X-198687Y-71131D01*
X-198678Y-71121D01*
X-198548Y-70991D01*
X-198408Y-70881D01*
X-198268Y-70792D01*
X-198129Y-70702D01*
X-197989Y-70632D01*
X-197859Y-70582D01*
X-197719Y-70532D01*
X-197599Y-70492D01*
X-197480Y-70462D01*
X-197370Y-70442D01*
X-197270Y-70422D01*
X-197180Y-70412D01*
X-197120Y-70402D01*
X-197020D01*
X-196831Y-70412D01*
X-196651Y-70442D01*
X-196481Y-70482D01*
X-196322Y-70522D01*
X-196202Y-70572D01*
X-196102Y-70612D01*
X-196062Y-70632D01*
X-196032Y-70642D01*
X-196022Y-70652D01*
X-196012D01*
X-196252Y-69344D01*
X-199017D01*
Y-67966D01*
X-195144D01*
X-194385Y-71959D01*
D02*
G37*
G36*
X31011Y-142000D02*
X29191D01*
X29180Y-136506D01*
Y-136472D01*
Y-136461D01*
X29169Y-136450D01*
X29135Y-136428D01*
X26571D01*
X26527Y-136439D01*
X26516Y-136450D01*
X26505Y-136461D01*
X26493Y-136483D01*
Y-136495D01*
Y-136506D01*
Y-142000D01*
X24673D01*
Y-136506D01*
Y-136472D01*
X24662Y-136461D01*
X24651Y-136450D01*
X24606Y-136428D01*
X22065D01*
X22009Y-136439D01*
X21998Y-136450D01*
X21987Y-136461D01*
Y-136483D01*
Y-136495D01*
Y-136506D01*
X21976Y-142000D01*
X20178D01*
Y-136417D01*
X20189Y-136239D01*
X20211Y-136073D01*
X20255Y-135917D01*
X20300Y-135784D01*
X20344Y-135673D01*
X20389Y-135584D01*
X20411Y-135540D01*
X20422Y-135518D01*
X20511Y-135373D01*
X20622Y-135240D01*
X20733Y-135129D01*
X20833Y-135040D01*
X20921Y-134963D01*
X20999Y-134907D01*
X21044Y-134874D01*
X21066Y-134863D01*
X21221Y-134785D01*
X21388Y-134719D01*
X21532Y-134674D01*
X21676Y-134652D01*
X21798Y-134630D01*
X21898Y-134619D01*
X31011D01*
Y-142000D01*
D02*
G37*
G36*
X16959Y-134630D02*
X17125Y-134652D01*
X17281Y-134696D01*
X17414Y-134741D01*
X17525Y-134785D01*
X17603Y-134830D01*
X17658Y-134852D01*
X17680Y-134863D01*
X17825Y-134963D01*
X17947Y-135063D01*
X18058Y-135174D01*
X18158Y-135285D01*
X18235Y-135373D01*
X18291Y-135451D01*
X18324Y-135496D01*
X18335Y-135518D01*
X18413Y-135673D01*
X18479Y-135829D01*
X18524Y-135984D01*
X18546Y-136117D01*
X18568Y-136239D01*
X18579Y-136339D01*
Y-136395D01*
Y-136406D01*
Y-136417D01*
Y-140213D01*
X18568Y-140391D01*
X18546Y-140557D01*
X18502Y-140701D01*
X18457Y-140835D01*
X18413Y-140946D01*
X18368Y-141034D01*
X18346Y-141079D01*
X18335Y-141101D01*
X18235Y-141245D01*
X18124Y-141378D01*
X18013Y-141489D01*
X17913Y-141578D01*
X17825Y-141656D01*
X17747Y-141711D01*
X17702Y-141745D01*
X17680Y-141756D01*
X17525Y-141833D01*
X17370Y-141900D01*
X17214Y-141945D01*
X17081Y-141967D01*
X16959Y-141989D01*
X16859Y-142000D01*
X12885D01*
X12696Y-141989D01*
X12530Y-141967D01*
X12375Y-141922D01*
X12241Y-141878D01*
X12130Y-141833D01*
X12042Y-141789D01*
X11997Y-141767D01*
X11975Y-141756D01*
X11831Y-141656D01*
X11709Y-141545D01*
X11598Y-141445D01*
X11498Y-141334D01*
X11431Y-141245D01*
X11376Y-141167D01*
X11342Y-141123D01*
X11331Y-141101D01*
X11242Y-140946D01*
X11187Y-140790D01*
X11142Y-140635D01*
X11109Y-140501D01*
X11098Y-140391D01*
X11087Y-140291D01*
Y-140235D01*
Y-140213D01*
Y-136417D01*
X11098Y-136239D01*
X11120Y-136073D01*
X11165Y-135917D01*
X11198Y-135784D01*
X11242Y-135673D01*
X11287Y-135584D01*
X11309Y-135540D01*
X11320Y-135518D01*
X11409Y-135373D01*
X11520Y-135240D01*
X11631Y-135129D01*
X11731Y-135029D01*
X11820Y-134963D01*
X11897Y-134907D01*
X11942Y-134874D01*
X11964Y-134863D01*
X12119Y-134785D01*
X12286Y-134719D01*
X12430Y-134674D01*
X12574Y-134652D01*
X12696Y-134630D01*
X12796Y-134619D01*
X16781D01*
X16959Y-134630D01*
D02*
G37*
G36*
X4416Y-134619D02*
X8301D01*
X8490Y-134630D01*
X8656Y-134652D01*
X8812Y-134696D01*
X8956Y-134741D01*
X9067Y-134785D01*
X9144Y-134830D01*
X9200Y-134852D01*
X9222Y-134863D01*
X9366Y-134963D01*
X9489Y-135063D01*
X9600Y-135174D01*
X9688Y-135285D01*
X9766Y-135373D01*
X9822Y-135451D01*
X9855Y-135496D01*
X9866Y-135518D01*
X9944Y-135673D01*
X10010Y-135829D01*
X10055Y-135984D01*
X10077Y-136117D01*
X10099Y-136239D01*
X10110Y-136339D01*
Y-136395D01*
Y-136406D01*
Y-136417D01*
Y-140213D01*
X10099Y-140391D01*
X10077Y-140557D01*
X10033Y-140701D01*
X9988Y-140846D01*
X9944Y-140957D01*
X9899Y-141034D01*
X9877Y-141090D01*
X9866Y-141112D01*
X9766Y-141256D01*
X9666Y-141390D01*
X9555Y-141501D01*
X9455Y-141589D01*
X9366Y-141667D01*
X9289Y-141722D01*
X9244Y-141756D01*
X9222Y-141767D01*
X9067Y-141845D01*
X8900Y-141900D01*
X8745Y-141945D01*
X8612Y-141967D01*
X8479Y-141989D01*
X8390Y-142000D01*
X2607D01*
X2596Y-132199D01*
X4416D01*
Y-134619D01*
D02*
G37*
G36*
X-4087D02*
X-202D01*
X-13Y-134630D01*
X154Y-134652D01*
X309Y-134696D01*
X453Y-134741D01*
X564Y-134785D01*
X642Y-134830D01*
X698Y-134852D01*
X720Y-134863D01*
X864Y-134963D01*
X986Y-135063D01*
X1097Y-135174D01*
X1186Y-135285D01*
X1264Y-135373D01*
X1319Y-135451D01*
X1352Y-135496D01*
X1364Y-135518D01*
X1441Y-135673D01*
X1508Y-135829D01*
X1552Y-135984D01*
X1574Y-136117D01*
X1597Y-136239D01*
X1608Y-136339D01*
Y-136395D01*
Y-136406D01*
Y-136417D01*
Y-140213D01*
X1597Y-140391D01*
X1574Y-140557D01*
X1530Y-140701D01*
X1486Y-140846D01*
X1441Y-140957D01*
X1397Y-141034D01*
X1375Y-141090D01*
X1364Y-141112D01*
X1264Y-141256D01*
X1164Y-141390D01*
X1053Y-141501D01*
X953Y-141589D01*
X864Y-141667D01*
X786Y-141722D01*
X742Y-141756D01*
X720Y-141767D01*
X564Y-141845D01*
X398Y-141900D01*
X243Y-141945D01*
X109Y-141967D01*
X-24Y-141989D01*
X-113Y-142000D01*
X-5896D01*
X-5907Y-132199D01*
X-4087D01*
Y-134619D01*
D02*
G37*
G36*
X-8870Y-134630D02*
X-8704Y-134652D01*
X-8549Y-134696D01*
X-8415Y-134741D01*
X-8304Y-134785D01*
X-8227Y-134830D01*
X-8171Y-134852D01*
X-8149Y-134863D01*
X-8005Y-134963D01*
X-7883Y-135063D01*
X-7772Y-135174D01*
X-7672Y-135285D01*
X-7594Y-135373D01*
X-7538Y-135451D01*
X-7505Y-135496D01*
X-7494Y-135518D01*
X-7416Y-135673D01*
X-7350Y-135829D01*
X-7305Y-135984D01*
X-7283Y-136117D01*
X-7261Y-136239D01*
X-7250Y-136339D01*
Y-136395D01*
Y-136406D01*
Y-136417D01*
Y-140213D01*
X-7261Y-140391D01*
X-7283Y-140557D01*
X-7328Y-140701D01*
X-7372Y-140835D01*
X-7416Y-140946D01*
X-7461Y-141034D01*
X-7483Y-141079D01*
X-7494Y-141101D01*
X-7594Y-141245D01*
X-7705Y-141378D01*
X-7816Y-141489D01*
X-7916Y-141578D01*
X-8005Y-141656D01*
X-8082Y-141711D01*
X-8127Y-141745D01*
X-8149Y-141756D01*
X-8304Y-141833D01*
X-8460Y-141900D01*
X-8615Y-141945D01*
X-8748Y-141967D01*
X-8870Y-141989D01*
X-8970Y-142000D01*
X-12944D01*
X-13133Y-141989D01*
X-13299Y-141967D01*
X-13455Y-141922D01*
X-13588Y-141878D01*
X-13699Y-141833D01*
X-13788Y-141789D01*
X-13832Y-141767D01*
X-13854Y-141756D01*
X-13999Y-141656D01*
X-14121Y-141545D01*
X-14232Y-141445D01*
X-14332Y-141334D01*
X-14398Y-141245D01*
X-14454Y-141167D01*
X-14487Y-141123D01*
X-14498Y-141101D01*
X-14587Y-140946D01*
X-14642Y-140790D01*
X-14687Y-140635D01*
X-14720Y-140501D01*
X-14731Y-140391D01*
X-14742Y-140291D01*
Y-140235D01*
Y-140213D01*
Y-136417D01*
X-14731Y-136239D01*
X-14709Y-136073D01*
X-14665Y-135917D01*
X-14631Y-135784D01*
X-14587Y-135673D01*
X-14542Y-135584D01*
X-14520Y-135540D01*
X-14509Y-135518D01*
X-14420Y-135373D01*
X-14309Y-135240D01*
X-14198Y-135129D01*
X-14099Y-135029D01*
X-14010Y-134963D01*
X-13932Y-134907D01*
X-13888Y-134874D01*
X-13865Y-134863D01*
X-13710Y-134785D01*
X-13543Y-134719D01*
X-13399Y-134674D01*
X-13255Y-134652D01*
X-13133Y-134630D01*
X-13033Y-134619D01*
X-9048D01*
X-8870Y-134630D01*
D02*
G37*
G36*
X-194205Y-59858D02*
Y-61136D01*
X-197340D01*
Y-62683D01*
X-198767D01*
Y-61136D01*
X-199716D01*
Y-59848D01*
X-198767D01*
Y-54977D01*
X-197519D01*
X-194205Y-59858D01*
D02*
G37*
G36*
X196744Y-106154D02*
X196934Y-106174D01*
X197103Y-106214D01*
X197273Y-106254D01*
X197433Y-106314D01*
X197573Y-106374D01*
X197712Y-106433D01*
X197832Y-106503D01*
X197942Y-106573D01*
X198032Y-106633D01*
X198122Y-106693D01*
X198181Y-106753D01*
X198241Y-106793D01*
X198281Y-106833D01*
X198301Y-106853D01*
X198311Y-106863D01*
X198431Y-107002D01*
X198541Y-107152D01*
X198631Y-107302D01*
X198710Y-107462D01*
X198780Y-107621D01*
X198830Y-107771D01*
X198880Y-107931D01*
X198910Y-108071D01*
X198940Y-108210D01*
X198960Y-108340D01*
X198980Y-108460D01*
X198990Y-108560D01*
X199000Y-108640D01*
Y-108700D01*
Y-108739D01*
Y-108749D01*
X198990Y-108959D01*
X198970Y-109149D01*
X198940Y-109338D01*
X198900Y-109508D01*
X198850Y-109668D01*
X198790Y-109827D01*
X198741Y-109957D01*
X198671Y-110087D01*
X198611Y-110197D01*
X198561Y-110297D01*
X198501Y-110377D01*
X198451Y-110446D01*
X198411Y-110506D01*
X198381Y-110546D01*
X198361Y-110566D01*
X198351Y-110576D01*
X198221Y-110696D01*
X198092Y-110806D01*
X197962Y-110896D01*
X197832Y-110975D01*
X197692Y-111045D01*
X197563Y-111105D01*
X197443Y-111155D01*
X197323Y-111185D01*
X197213Y-111215D01*
X197103Y-111235D01*
X197014Y-111255D01*
X196934Y-111265D01*
X196874Y-111275D01*
X196784D01*
X196634Y-111265D01*
X196485Y-111245D01*
X196345Y-111215D01*
X196215Y-111175D01*
X195985Y-111075D01*
X195776Y-110955D01*
X195696Y-110896D01*
X195616Y-110836D01*
X195546Y-110786D01*
X195496Y-110736D01*
X195456Y-110696D01*
X195426Y-110666D01*
X195406Y-110646D01*
X195396Y-110636D01*
X195416Y-110876D01*
X195436Y-111085D01*
X195466Y-111285D01*
X195496Y-111465D01*
X195526Y-111624D01*
X195566Y-111764D01*
X195596Y-111894D01*
X195636Y-111994D01*
X195666Y-112093D01*
X195696Y-112173D01*
X195726Y-112233D01*
X195756Y-112283D01*
X195776Y-112323D01*
X195796Y-112353D01*
X195806Y-112363D01*
Y-112373D01*
X195926Y-112513D01*
X196055Y-112612D01*
X196185Y-112682D01*
X196305Y-112732D01*
X196415Y-112762D01*
X196495Y-112772D01*
X196554Y-112782D01*
X196574D01*
X196704Y-112772D01*
X196814Y-112752D01*
X196914Y-112722D01*
X196994Y-112682D01*
X197064Y-112642D01*
X197113Y-112612D01*
X197143Y-112592D01*
X197153Y-112583D01*
X197223Y-112493D01*
X197283Y-112393D01*
X197323Y-112283D01*
X197363Y-112183D01*
X197383Y-112083D01*
X197403Y-112004D01*
X197413Y-111954D01*
Y-111934D01*
X198840Y-112093D01*
X198810Y-112263D01*
X198770Y-112433D01*
X198720Y-112583D01*
X198671Y-112722D01*
X198611Y-112852D01*
X198551Y-112972D01*
X198491Y-113072D01*
X198431Y-113172D01*
X198381Y-113251D01*
X198321Y-113331D01*
X198271Y-113391D01*
X198231Y-113441D01*
X198192Y-113481D01*
X198162Y-113511D01*
X198151Y-113521D01*
X198142Y-113531D01*
X198032Y-113611D01*
X197922Y-113681D01*
X197682Y-113800D01*
X197433Y-113880D01*
X197203Y-113940D01*
X197093Y-113960D01*
X196994Y-113970D01*
X196914Y-113990D01*
X196834D01*
X196774Y-114000D01*
X196684D01*
X196455Y-113990D01*
X196235Y-113960D01*
X196035Y-113910D01*
X195846Y-113850D01*
X195656Y-113780D01*
X195496Y-113710D01*
X195337Y-113621D01*
X195207Y-113531D01*
X195077Y-113451D01*
X194967Y-113361D01*
X194877Y-113291D01*
X194797Y-113211D01*
X194738Y-113161D01*
X194698Y-113112D01*
X194668Y-113082D01*
X194658Y-113072D01*
X194518Y-112882D01*
X194398Y-112672D01*
X194298Y-112443D01*
X194209Y-112203D01*
X194129Y-111954D01*
X194069Y-111694D01*
X194019Y-111445D01*
X193979Y-111195D01*
X193949Y-110965D01*
X193919Y-110746D01*
X193899Y-110546D01*
X193889Y-110366D01*
X193879Y-110227D01*
Y-110117D01*
Y-110077D01*
Y-110047D01*
Y-110037D01*
Y-110027D01*
X193889Y-109658D01*
X193909Y-109308D01*
X193949Y-108989D01*
X193999Y-108689D01*
X194049Y-108420D01*
X194119Y-108180D01*
X194179Y-107961D01*
X194249Y-107761D01*
X194318Y-107591D01*
X194388Y-107452D01*
X194458Y-107322D01*
X194508Y-107222D01*
X194558Y-107152D01*
X194598Y-107092D01*
X194618Y-107062D01*
X194628Y-107052D01*
X194768Y-106893D01*
X194927Y-106753D01*
X195087Y-106633D01*
X195247Y-106523D01*
X195406Y-106444D01*
X195566Y-106364D01*
X195716Y-106304D01*
X195866Y-106254D01*
X196005Y-106224D01*
X196135Y-106194D01*
X196255Y-106174D01*
X196355Y-106154D01*
X196435D01*
X196495Y-106144D01*
X196544D01*
X196744Y-106154D01*
D02*
G37*
G36*
X-21989Y-134019D02*
X-23798D01*
Y-132199D01*
X-21989D01*
Y-134019D01*
D02*
G37*
G36*
Y-142000D02*
X-23798D01*
Y-134619D01*
X-21989D01*
Y-142000D01*
D02*
G37*
G36*
X-26484Y-134630D02*
X-26318Y-134652D01*
X-26162Y-134696D01*
X-26029Y-134741D01*
X-25918Y-134785D01*
X-25840Y-134830D01*
X-25785Y-134852D01*
X-25763Y-134863D01*
X-25619Y-134963D01*
X-25496Y-135063D01*
X-25385Y-135174D01*
X-25285Y-135285D01*
X-25208Y-135373D01*
X-25152Y-135451D01*
X-25119Y-135496D01*
X-25108Y-135518D01*
X-25030Y-135673D01*
X-24964Y-135829D01*
X-24919Y-135984D01*
X-24897Y-136117D01*
X-24875Y-136239D01*
X-24864Y-136339D01*
Y-136395D01*
Y-136406D01*
Y-136417D01*
Y-140213D01*
X-24875Y-140391D01*
X-24897Y-140557D01*
X-24941Y-140701D01*
X-24986Y-140835D01*
X-25030Y-140946D01*
X-25075Y-141034D01*
X-25097Y-141079D01*
X-25108Y-141101D01*
X-25208Y-141245D01*
X-25319Y-141378D01*
X-25430Y-141489D01*
X-25530Y-141578D01*
X-25619Y-141656D01*
X-25696Y-141711D01*
X-25741Y-141745D01*
X-25763Y-141756D01*
X-25918Y-141833D01*
X-26074Y-141900D01*
X-26229Y-141945D01*
X-26362Y-141967D01*
X-26484Y-141989D01*
X-26584Y-142000D01*
X-30558D01*
X-30747Y-141989D01*
X-30913Y-141967D01*
X-31068Y-141922D01*
X-31202Y-141878D01*
X-31313Y-141833D01*
X-31402Y-141789D01*
X-31446Y-141767D01*
X-31468Y-141756D01*
X-31612Y-141656D01*
X-31734Y-141545D01*
X-31846Y-141445D01*
X-31945Y-141334D01*
X-32012Y-141245D01*
X-32067Y-141167D01*
X-32101Y-141123D01*
X-32112Y-141101D01*
X-32201Y-140946D01*
X-32256Y-140790D01*
X-32301Y-140635D01*
X-32334Y-140501D01*
X-32345Y-140391D01*
X-32356Y-140291D01*
Y-140235D01*
Y-140213D01*
Y-136417D01*
X-32345Y-136239D01*
X-32323Y-136073D01*
X-32278Y-135917D01*
X-32245Y-135784D01*
X-32201Y-135673D01*
X-32156Y-135584D01*
X-32134Y-135540D01*
X-32123Y-135518D01*
X-32034Y-135373D01*
X-31923Y-135240D01*
X-31812Y-135129D01*
X-31712Y-135029D01*
X-31623Y-134963D01*
X-31546Y-134907D01*
X-31501Y-134874D01*
X-31479Y-134863D01*
X-31324Y-134785D01*
X-31157Y-134719D01*
X-31013Y-134674D01*
X-30869Y-134652D01*
X-30747Y-134630D01*
X-30647Y-134619D01*
X-26662D01*
X-26484Y-134630D01*
D02*
G37*
G36*
X-196525Y-30294D02*
X-196346Y-30304D01*
X-196166Y-30334D01*
X-196006Y-30364D01*
X-195857Y-30403D01*
X-195717Y-30454D01*
X-195577Y-30503D01*
X-195467Y-30543D01*
X-195358Y-30593D01*
X-195258Y-30643D01*
X-195178Y-30693D01*
X-195108Y-30733D01*
X-195058Y-30763D01*
X-195018Y-30793D01*
X-194998Y-30803D01*
X-194988Y-30813D01*
X-194868Y-30923D01*
X-194759Y-31042D01*
X-194659Y-31172D01*
X-194569Y-31312D01*
X-194489Y-31452D01*
X-194429Y-31601D01*
X-194319Y-31881D01*
X-194279Y-32021D01*
X-194249Y-32150D01*
X-194220Y-32260D01*
X-194200Y-32360D01*
X-194190Y-32440D01*
X-194180Y-32510D01*
X-194170Y-32550D01*
Y-32560D01*
X-195637Y-32699D01*
X-195667Y-32480D01*
X-195707Y-32290D01*
X-195757Y-32130D01*
X-195807Y-32001D01*
X-195857Y-31901D01*
X-195907Y-31831D01*
X-195937Y-31791D01*
X-195947Y-31781D01*
X-196056Y-31691D01*
X-196176Y-31621D01*
X-196296Y-31572D01*
X-196416Y-31532D01*
X-196516Y-31512D01*
X-196595Y-31502D01*
X-196675D01*
X-196845Y-31512D01*
X-196985Y-31542D01*
X-197114Y-31591D01*
X-197214Y-31631D01*
X-197294Y-31681D01*
X-197354Y-31731D01*
X-197394Y-31761D01*
X-197404Y-31771D01*
X-197494Y-31881D01*
X-197564Y-32001D01*
X-197604Y-32130D01*
X-197644Y-32250D01*
X-197663Y-32360D01*
X-197673Y-32450D01*
Y-32510D01*
Y-32520D01*
Y-32530D01*
X-197663Y-32699D01*
X-197624Y-32859D01*
X-197574Y-33009D01*
X-197524Y-33149D01*
X-197464Y-33259D01*
X-197414Y-33348D01*
X-197374Y-33408D01*
X-197364Y-33418D01*
Y-33428D01*
X-197314Y-33498D01*
X-197244Y-33578D01*
X-197174Y-33668D01*
X-197085Y-33767D01*
X-196885Y-33967D01*
X-196675Y-34177D01*
X-196476Y-34376D01*
X-196386Y-34456D01*
X-196306Y-34536D01*
X-196236Y-34596D01*
X-196186Y-34646D01*
X-196156Y-34676D01*
X-196146Y-34686D01*
X-195927Y-34896D01*
X-195727Y-35095D01*
X-195537Y-35285D01*
X-195368Y-35454D01*
X-195218Y-35624D01*
X-195088Y-35774D01*
X-194968Y-35914D01*
X-194858Y-36044D01*
X-194769Y-36153D01*
X-194699Y-36253D01*
X-194639Y-36333D01*
X-194589Y-36403D01*
X-194549Y-36463D01*
X-194519Y-36503D01*
X-194509Y-36523D01*
X-194499Y-36533D01*
X-194359Y-36792D01*
X-194249Y-37052D01*
X-194160Y-37301D01*
X-194090Y-37531D01*
X-194070Y-37631D01*
X-194050Y-37720D01*
X-194030Y-37800D01*
X-194020Y-37870D01*
X-194010Y-37920D01*
X-194000Y-37970D01*
Y-37990D01*
Y-38000D01*
X-199151D01*
Y-36632D01*
X-196226D01*
X-196316Y-36493D01*
X-196416Y-36363D01*
X-196456Y-36313D01*
X-196495Y-36273D01*
X-196516Y-36243D01*
X-196525Y-36233D01*
X-196565Y-36193D01*
X-196615Y-36133D01*
X-196745Y-36014D01*
X-196885Y-35874D01*
X-197035Y-35734D01*
X-197174Y-35594D01*
X-197294Y-35484D01*
X-197344Y-35445D01*
X-197374Y-35415D01*
X-197394Y-35395D01*
X-197404Y-35385D01*
X-197534Y-35265D01*
X-197644Y-35155D01*
X-197853Y-34955D01*
X-198013Y-34786D01*
X-198153Y-34646D01*
X-198252Y-34536D01*
X-198322Y-34456D01*
X-198362Y-34416D01*
X-198372Y-34396D01*
X-198512Y-34207D01*
X-198632Y-34027D01*
X-198732Y-33867D01*
X-198821Y-33718D01*
X-198881Y-33598D01*
X-198921Y-33498D01*
X-198951Y-33438D01*
X-198961Y-33428D01*
Y-33418D01*
X-199021Y-33238D01*
X-199071Y-33069D01*
X-199101Y-32899D01*
X-199131Y-32749D01*
X-199141Y-32620D01*
X-199151Y-32520D01*
Y-32480D01*
Y-32450D01*
Y-32440D01*
Y-32430D01*
X-199141Y-32260D01*
X-199121Y-32101D01*
X-199091Y-31951D01*
X-199051Y-31801D01*
X-198941Y-31542D01*
X-198891Y-31432D01*
X-198831Y-31322D01*
X-198762Y-31222D01*
X-198712Y-31142D01*
X-198652Y-31072D01*
X-198602Y-31012D01*
X-198562Y-30963D01*
X-198532Y-30933D01*
X-198512Y-30913D01*
X-198502Y-30903D01*
X-198372Y-30793D01*
X-198242Y-30703D01*
X-198093Y-30613D01*
X-197953Y-30543D01*
X-197803Y-30483D01*
X-197654Y-30433D01*
X-197364Y-30364D01*
X-197234Y-30334D01*
X-197114Y-30314D01*
X-196995Y-30304D01*
X-196905Y-30294D01*
X-196825Y-30284D01*
X-196715D01*
X-196525Y-30294D01*
D02*
G37*
G36*
X-196296Y-106154D02*
X-196106Y-106164D01*
X-195926Y-106194D01*
X-195757Y-106234D01*
X-195607Y-106274D01*
X-195467Y-106324D01*
X-195338Y-106374D01*
X-195228Y-106424D01*
X-195128Y-106483D01*
X-195038Y-106533D01*
X-194958Y-106583D01*
X-194898Y-106623D01*
X-194848Y-106663D01*
X-194818Y-106693D01*
X-194799Y-106703D01*
X-194789Y-106713D01*
X-194679Y-106823D01*
X-194589Y-106933D01*
X-194509Y-107052D01*
X-194439Y-107172D01*
X-194389Y-107282D01*
X-194339Y-107402D01*
X-194270Y-107621D01*
X-194220Y-107821D01*
X-194210Y-107911D01*
X-194200Y-107981D01*
X-194190Y-108041D01*
Y-108081D01*
Y-108111D01*
Y-108120D01*
X-194200Y-108310D01*
X-194230Y-108480D01*
X-194270Y-108640D01*
X-194319Y-108779D01*
X-194359Y-108889D01*
X-194399Y-108979D01*
X-194429Y-109029D01*
X-194439Y-109049D01*
X-194549Y-109199D01*
X-194679Y-109328D01*
X-194818Y-109438D01*
X-194958Y-109538D01*
X-195078Y-109608D01*
X-195188Y-109668D01*
X-195228Y-109678D01*
X-195248Y-109698D01*
X-195268Y-109708D01*
X-195278D01*
X-195048Y-109827D01*
X-194839Y-109957D01*
X-194679Y-110087D01*
X-194539Y-110217D01*
X-194429Y-110337D01*
X-194359Y-110426D01*
X-194309Y-110496D01*
X-194299Y-110506D01*
Y-110516D01*
X-194200Y-110716D01*
X-194130Y-110915D01*
X-194070Y-111105D01*
X-194040Y-111285D01*
X-194020Y-111435D01*
X-194010Y-111504D01*
Y-111554D01*
X-194000Y-111604D01*
Y-111634D01*
Y-111654D01*
Y-111664D01*
X-194010Y-111874D01*
X-194040Y-112064D01*
X-194080Y-112253D01*
X-194130Y-112423D01*
X-194190Y-112583D01*
X-194259Y-112732D01*
X-194329Y-112862D01*
X-194409Y-112982D01*
X-194489Y-113092D01*
X-194559Y-113181D01*
X-194629Y-113261D01*
X-194689Y-113331D01*
X-194739Y-113381D01*
X-194789Y-113421D01*
X-194809Y-113441D01*
X-194818Y-113451D01*
X-194958Y-113551D01*
X-195098Y-113631D01*
X-195238Y-113701D01*
X-195387Y-113770D01*
X-195677Y-113870D01*
X-195956Y-113930D01*
X-196076Y-113950D01*
X-196196Y-113970D01*
X-196306Y-113980D01*
X-196396Y-113990D01*
X-196466Y-114000D01*
X-196565D01*
X-196775Y-113990D01*
X-196965Y-113970D01*
X-197154Y-113940D01*
X-197324Y-113900D01*
X-197484Y-113850D01*
X-197633Y-113790D01*
X-197773Y-113730D01*
X-197893Y-113671D01*
X-198003Y-113611D01*
X-198103Y-113551D01*
X-198183Y-113491D01*
X-198252Y-113441D01*
X-198302Y-113401D01*
X-198342Y-113371D01*
X-198362Y-113351D01*
X-198372Y-113341D01*
X-198492Y-113211D01*
X-198592Y-113072D01*
X-198692Y-112932D01*
X-198762Y-112792D01*
X-198831Y-112642D01*
X-198881Y-112493D01*
X-198971Y-112223D01*
X-198991Y-112093D01*
X-199011Y-111974D01*
X-199031Y-111874D01*
X-199041Y-111784D01*
X-199051Y-111704D01*
Y-111654D01*
Y-111614D01*
Y-111604D01*
X-199041Y-111365D01*
X-199001Y-111155D01*
X-198941Y-110955D01*
X-198881Y-110796D01*
X-198821Y-110656D01*
X-198762Y-110556D01*
X-198741Y-110516D01*
X-198722Y-110486D01*
X-198712Y-110476D01*
Y-110466D01*
X-198572Y-110287D01*
X-198422Y-110137D01*
X-198262Y-110007D01*
X-198103Y-109897D01*
X-197963Y-109817D01*
X-197853Y-109758D01*
X-197803Y-109738D01*
X-197773Y-109718D01*
X-197753Y-109708D01*
X-197743D01*
X-197923Y-109618D01*
X-198073Y-109518D01*
X-198213Y-109408D01*
X-198322Y-109308D01*
X-198412Y-109219D01*
X-198472Y-109149D01*
X-198512Y-109099D01*
X-198522Y-109079D01*
X-198612Y-108919D01*
X-198682Y-108749D01*
X-198731Y-108590D01*
X-198771Y-108440D01*
X-198791Y-108310D01*
X-198801Y-108210D01*
Y-108170D01*
Y-108140D01*
Y-108131D01*
Y-108120D01*
X-198791Y-107961D01*
X-198771Y-107821D01*
X-198741Y-107671D01*
X-198712Y-107542D01*
X-198612Y-107302D01*
X-198502Y-107102D01*
X-198442Y-107013D01*
X-198382Y-106933D01*
X-198332Y-106873D01*
X-198292Y-106813D01*
X-198252Y-106773D01*
X-198222Y-106743D01*
X-198202Y-106723D01*
X-198193Y-106713D01*
X-198073Y-106613D01*
X-197943Y-106523D01*
X-197813Y-106454D01*
X-197673Y-106384D01*
X-197534Y-106324D01*
X-197384Y-106284D01*
X-197114Y-106214D01*
X-196985Y-106194D01*
X-196875Y-106174D01*
X-196765Y-106164D01*
X-196675Y-106154D01*
X-196595Y-106144D01*
X-196495D01*
X-196296Y-106154D01*
D02*
G37*
G36*
X196884Y-93274D02*
X196944Y-93404D01*
X197083Y-93633D01*
X197233Y-93843D01*
X197393Y-94032D01*
X197533Y-94172D01*
X197593Y-94242D01*
X197652Y-94292D01*
X197702Y-94332D01*
X197732Y-94362D01*
X197752Y-94372D01*
X197762Y-94382D01*
X198012Y-94562D01*
X198241Y-94711D01*
X198451Y-94841D01*
X198631Y-94931D01*
X198780Y-95001D01*
X198850Y-95031D01*
X198900Y-95051D01*
X198940Y-95071D01*
X198970Y-95081D01*
X198990Y-95091D01*
X199000D01*
Y-96428D01*
X198611Y-96278D01*
X198241Y-96099D01*
X198082Y-96009D01*
X197922Y-95919D01*
X197772Y-95829D01*
X197642Y-95739D01*
X197523Y-95649D01*
X197413Y-95580D01*
X197323Y-95500D01*
X197243Y-95440D01*
X197183Y-95390D01*
X197143Y-95350D01*
X197113Y-95330D01*
X197103Y-95320D01*
Y-100860D01*
X195636D01*
Y-93144D01*
X196834D01*
X196884Y-93274D01*
D02*
G37*
G36*
X191154Y-93154D02*
X191354Y-93174D01*
X191533Y-93214D01*
X191693Y-93264D01*
X191853Y-93324D01*
X191992Y-93394D01*
X192122Y-93463D01*
X192242Y-93533D01*
X192342Y-93613D01*
X192432Y-93683D01*
X192512Y-93753D01*
X192582Y-93813D01*
X192631Y-93863D01*
X192661Y-93903D01*
X192681Y-93923D01*
X192691Y-93933D01*
X192821Y-94122D01*
X192941Y-94342D01*
X193041Y-94581D01*
X193120Y-94831D01*
X193200Y-95081D01*
X193260Y-95350D01*
X193310Y-95610D01*
X193350Y-95859D01*
X193380Y-96099D01*
X193400Y-96328D01*
X193420Y-96528D01*
X193430Y-96708D01*
Y-96857D01*
X193440Y-96917D01*
Y-96967D01*
Y-97017D01*
Y-97037D01*
Y-97057D01*
Y-97067D01*
X193430Y-97466D01*
X193410Y-97836D01*
X193380Y-98175D01*
X193330Y-98484D01*
X193280Y-98764D01*
X193220Y-99014D01*
X193160Y-99233D01*
X193101Y-99433D01*
X193041Y-99602D01*
X192971Y-99752D01*
X192921Y-99872D01*
X192871Y-99972D01*
X192821Y-100052D01*
X192791Y-100102D01*
X192771Y-100132D01*
X192761Y-100141D01*
X192631Y-100291D01*
X192482Y-100421D01*
X192342Y-100541D01*
X192192Y-100641D01*
X192033Y-100721D01*
X191883Y-100790D01*
X191743Y-100850D01*
X191603Y-100890D01*
X191464Y-100930D01*
X191344Y-100950D01*
X191234Y-100970D01*
X191144Y-100990D01*
X191064D01*
X191004Y-101000D01*
X190954D01*
X190755Y-100990D01*
X190555Y-100970D01*
X190375Y-100930D01*
X190216Y-100880D01*
X190056Y-100820D01*
X189916Y-100750D01*
X189786Y-100681D01*
X189667Y-100611D01*
X189567Y-100541D01*
X189467Y-100471D01*
X189397Y-100401D01*
X189327Y-100341D01*
X189277Y-100291D01*
X189247Y-100251D01*
X189228Y-100231D01*
X189217Y-100221D01*
X189088Y-100032D01*
X188968Y-99812D01*
X188868Y-99572D01*
X188778Y-99323D01*
X188708Y-99064D01*
X188648Y-98804D01*
X188589Y-98544D01*
X188549Y-98285D01*
X188519Y-98045D01*
X188499Y-97816D01*
X188479Y-97616D01*
X188469Y-97436D01*
X188459Y-97287D01*
Y-97227D01*
Y-97177D01*
Y-97127D01*
Y-97097D01*
Y-97087D01*
Y-97077D01*
X188469Y-96678D01*
X188489Y-96318D01*
X188529Y-95979D01*
X188579Y-95669D01*
X188629Y-95380D01*
X188698Y-95120D01*
X188758Y-94891D01*
X188828Y-94691D01*
X188898Y-94512D01*
X188968Y-94362D01*
X189038Y-94232D01*
X189088Y-94122D01*
X189138Y-94042D01*
X189177Y-93982D01*
X189198Y-93953D01*
X189207Y-93943D01*
X189327Y-93803D01*
X189467Y-93683D01*
X189607Y-93573D01*
X189746Y-93483D01*
X189886Y-93404D01*
X190036Y-93334D01*
X190176Y-93284D01*
X190315Y-93244D01*
X190445Y-93214D01*
X190565Y-93184D01*
X190675Y-93164D01*
X190765Y-93154D01*
X190845Y-93144D01*
X190954D01*
X191154Y-93154D01*
D02*
G37*
G36*
X196884Y-42414D02*
X196944Y-42543D01*
X197083Y-42773D01*
X197233Y-42983D01*
X197393Y-43172D01*
X197533Y-43312D01*
X197593Y-43382D01*
X197652Y-43432D01*
X197702Y-43472D01*
X197732Y-43502D01*
X197752Y-43512D01*
X197762Y-43522D01*
X198012Y-43701D01*
X198241Y-43851D01*
X198451Y-43981D01*
X198631Y-44071D01*
X198780Y-44141D01*
X198850Y-44170D01*
X198900Y-44190D01*
X198940Y-44210D01*
X198970Y-44220D01*
X198990Y-44230D01*
X199000D01*
Y-45568D01*
X198611Y-45418D01*
X198241Y-45238D01*
X198082Y-45149D01*
X197922Y-45059D01*
X197772Y-44969D01*
X197642Y-44879D01*
X197523Y-44789D01*
X197413Y-44719D01*
X197323Y-44640D01*
X197243Y-44580D01*
X197183Y-44530D01*
X197143Y-44490D01*
X197113Y-44470D01*
X197103Y-44460D01*
Y-50000D01*
X195636D01*
Y-42284D01*
X196834D01*
X196884Y-42414D01*
D02*
G37*
G36*
X193689Y-47175D02*
Y-48453D01*
X190555D01*
Y-50000D01*
X189128D01*
Y-48453D01*
X188179D01*
Y-47165D01*
X189128D01*
Y-42294D01*
X190375D01*
X193689Y-47175D01*
D02*
G37*
G36*
X193230Y-33277D02*
X192042Y-33446D01*
X191943Y-33347D01*
X191853Y-33257D01*
X191753Y-33187D01*
X191653Y-33127D01*
X191464Y-33027D01*
X191294Y-32957D01*
X191144Y-32917D01*
X191074Y-32907D01*
X191024Y-32897D01*
X190974Y-32887D01*
X190914D01*
X190735Y-32907D01*
X190575Y-32947D01*
X190435Y-32997D01*
X190315Y-33067D01*
X190226Y-33137D01*
X190156Y-33187D01*
X190106Y-33227D01*
X190096Y-33247D01*
X189986Y-33396D01*
X189906Y-33566D01*
X189856Y-33746D01*
X189816Y-33916D01*
X189796Y-34075D01*
X189786Y-34135D01*
X189776Y-34195D01*
Y-34245D01*
Y-34285D01*
Y-34305D01*
Y-34315D01*
X189786Y-34584D01*
X189826Y-34814D01*
X189876Y-35004D01*
X189936Y-35163D01*
X189996Y-35293D01*
X190046Y-35383D01*
X190086Y-35433D01*
X190096Y-35453D01*
X190226Y-35573D01*
X190355Y-35662D01*
X190485Y-35732D01*
X190605Y-35772D01*
X190715Y-35802D01*
X190795Y-35812D01*
X190855Y-35822D01*
X190875D01*
X191024Y-35812D01*
X191154Y-35772D01*
X191274Y-35732D01*
X191374Y-35672D01*
X191464Y-35622D01*
X191523Y-35573D01*
X191573Y-35543D01*
X191583Y-35533D01*
X191683Y-35413D01*
X191763Y-35283D01*
X191833Y-35153D01*
X191873Y-35034D01*
X191903Y-34914D01*
X191933Y-34824D01*
X191943Y-34764D01*
Y-34754D01*
Y-34744D01*
X193410Y-34904D01*
X193380Y-35083D01*
X193340Y-35243D01*
X193290Y-35403D01*
X193230Y-35543D01*
X193170Y-35682D01*
X193101Y-35812D01*
X193031Y-35922D01*
X192961Y-36022D01*
X192891Y-36122D01*
X192831Y-36201D01*
X192771Y-36271D01*
X192721Y-36331D01*
X192671Y-36371D01*
X192641Y-36401D01*
X192621Y-36421D01*
X192611Y-36431D01*
X192482Y-36531D01*
X192342Y-36621D01*
X192202Y-36691D01*
X192062Y-36760D01*
X191913Y-36810D01*
X191773Y-36860D01*
X191493Y-36930D01*
X191374Y-36950D01*
X191254Y-36970D01*
X191154Y-36980D01*
X191064Y-36990D01*
X190984Y-37000D01*
X190884D01*
X190645Y-36990D01*
X190415Y-36960D01*
X190196Y-36910D01*
X189996Y-36840D01*
X189816Y-36760D01*
X189647Y-36681D01*
X189487Y-36581D01*
X189347Y-36491D01*
X189228Y-36391D01*
X189118Y-36301D01*
X189018Y-36221D01*
X188948Y-36142D01*
X188888Y-36072D01*
X188838Y-36022D01*
X188818Y-35992D01*
X188808Y-35982D01*
X188708Y-35842D01*
X188629Y-35692D01*
X188549Y-35553D01*
X188489Y-35403D01*
X188389Y-35123D01*
X188329Y-34864D01*
X188309Y-34744D01*
X188289Y-34634D01*
X188279Y-34534D01*
X188269Y-34455D01*
X188259Y-34385D01*
Y-34335D01*
Y-34305D01*
Y-34295D01*
X188269Y-34085D01*
X188289Y-33886D01*
X188319Y-33696D01*
X188369Y-33526D01*
X188419Y-33356D01*
X188469Y-33207D01*
X188539Y-33067D01*
X188599Y-32937D01*
X188659Y-32827D01*
X188718Y-32728D01*
X188778Y-32638D01*
X188828Y-32568D01*
X188878Y-32508D01*
X188908Y-32468D01*
X188928Y-32448D01*
X188938Y-32438D01*
X189068Y-32308D01*
X189207Y-32199D01*
X189347Y-32109D01*
X189487Y-32019D01*
X189627Y-31949D01*
X189757Y-31899D01*
X189896Y-31849D01*
X190016Y-31809D01*
X190136Y-31779D01*
X190246Y-31759D01*
X190345Y-31739D01*
X190435Y-31729D01*
X190495Y-31719D01*
X190595D01*
X190785Y-31729D01*
X190964Y-31759D01*
X191134Y-31799D01*
X191294Y-31839D01*
X191414Y-31889D01*
X191513Y-31929D01*
X191553Y-31949D01*
X191583Y-31959D01*
X191593Y-31969D01*
X191603D01*
X191364Y-30661D01*
X188599D01*
Y-29284D01*
X192472D01*
X193230Y-33277D01*
D02*
G37*
G36*
X196884Y-29274D02*
X196944Y-29404D01*
X197083Y-29633D01*
X197233Y-29843D01*
X197393Y-30032D01*
X197533Y-30172D01*
X197593Y-30242D01*
X197652Y-30292D01*
X197702Y-30332D01*
X197732Y-30362D01*
X197752Y-30372D01*
X197762Y-30382D01*
X198012Y-30561D01*
X198241Y-30711D01*
X198451Y-30841D01*
X198631Y-30931D01*
X198780Y-31001D01*
X198850Y-31031D01*
X198900Y-31051D01*
X198940Y-31071D01*
X198970Y-31081D01*
X198990Y-31091D01*
X199000D01*
Y-32428D01*
X198611Y-32278D01*
X198241Y-32099D01*
X198082Y-32009D01*
X197922Y-31919D01*
X197772Y-31829D01*
X197642Y-31739D01*
X197523Y-31649D01*
X197413Y-31580D01*
X197323Y-31500D01*
X197243Y-31440D01*
X197183Y-31390D01*
X197143Y-31350D01*
X197113Y-31330D01*
X197103Y-31320D01*
Y-36860D01*
X195636D01*
Y-29144D01*
X196834D01*
X196884Y-29274D01*
D02*
G37*
G36*
X-196451Y-42837D02*
X-196232Y-42867D01*
X-196042Y-42907D01*
X-195872Y-42947D01*
X-195733Y-42986D01*
X-195623Y-43026D01*
X-195583Y-43046D01*
X-195553Y-43056D01*
X-195543Y-43066D01*
X-195533D01*
X-195353Y-43166D01*
X-195194Y-43266D01*
X-195054Y-43376D01*
X-194944Y-43486D01*
X-194854Y-43575D01*
X-194784Y-43655D01*
X-194744Y-43705D01*
X-194734Y-43725D01*
X-194635Y-43895D01*
X-194555Y-44075D01*
X-194475Y-44264D01*
X-194425Y-44444D01*
X-194375Y-44604D01*
X-194355Y-44664D01*
X-194345Y-44723D01*
X-194335Y-44773D01*
X-194325Y-44813D01*
X-194315Y-44833D01*
Y-44843D01*
X-195673Y-45073D01*
X-195703Y-44893D01*
X-195743Y-44743D01*
X-195793Y-44614D01*
X-195853Y-44504D01*
X-195902Y-44424D01*
X-195952Y-44364D01*
X-195982Y-44324D01*
X-195992Y-44314D01*
X-196102Y-44224D01*
X-196212Y-44154D01*
X-196312Y-44114D01*
X-196422Y-44075D01*
X-196511Y-44055D01*
X-196581Y-44045D01*
X-196641D01*
X-196781Y-44055D01*
X-196901Y-44085D01*
X-197001Y-44124D01*
X-197090Y-44164D01*
X-197160Y-44204D01*
X-197210Y-44244D01*
X-197240Y-44274D01*
X-197250Y-44284D01*
X-197330Y-44374D01*
X-197390Y-44474D01*
X-197430Y-44584D01*
X-197460Y-44683D01*
X-197480Y-44763D01*
X-197490Y-44843D01*
Y-44883D01*
Y-44903D01*
X-197480Y-45063D01*
X-197440Y-45212D01*
X-197390Y-45342D01*
X-197330Y-45442D01*
X-197270Y-45532D01*
X-197220Y-45592D01*
X-197180Y-45632D01*
X-197170Y-45642D01*
X-197040Y-45732D01*
X-196901Y-45792D01*
X-196751Y-45841D01*
X-196601Y-45871D01*
X-196471Y-45881D01*
X-196362Y-45891D01*
X-196262D01*
X-196102Y-47089D01*
X-196242Y-47049D01*
X-196372Y-47019D01*
X-196481Y-46999D01*
X-196581Y-46979D01*
X-196661D01*
X-196721Y-46969D01*
X-196771D01*
X-196931Y-46979D01*
X-197070Y-47019D01*
X-197190Y-47069D01*
X-197300Y-47129D01*
X-197380Y-47199D01*
X-197450Y-47249D01*
X-197490Y-47289D01*
X-197500Y-47299D01*
X-197599Y-47429D01*
X-197669Y-47578D01*
X-197729Y-47728D01*
X-197759Y-47868D01*
X-197779Y-47997D01*
X-197799Y-48097D01*
Y-48137D01*
Y-48157D01*
Y-48177D01*
Y-48187D01*
X-197789Y-48397D01*
X-197749Y-48587D01*
X-197699Y-48746D01*
X-197639Y-48876D01*
X-197579Y-48986D01*
X-197530Y-49066D01*
X-197490Y-49106D01*
X-197480Y-49125D01*
X-197360Y-49235D01*
X-197230Y-49325D01*
X-197100Y-49385D01*
X-196980Y-49425D01*
X-196881Y-49445D01*
X-196801Y-49455D01*
X-196741Y-49465D01*
X-196721D01*
X-196571Y-49455D01*
X-196422Y-49425D01*
X-196302Y-49375D01*
X-196192Y-49325D01*
X-196112Y-49275D01*
X-196042Y-49225D01*
X-196002Y-49195D01*
X-195992Y-49185D01*
X-195892Y-49066D01*
X-195813Y-48936D01*
X-195743Y-48796D01*
X-195703Y-48656D01*
X-195673Y-48537D01*
X-195643Y-48437D01*
Y-48397D01*
X-195633Y-48367D01*
Y-48357D01*
Y-48347D01*
X-194205Y-48527D01*
X-194235Y-48706D01*
X-194275Y-48876D01*
X-194315Y-49026D01*
X-194375Y-49175D01*
X-194435Y-49315D01*
X-194505Y-49445D01*
X-194575Y-49565D01*
X-194645Y-49675D01*
X-194705Y-49764D01*
X-194774Y-49854D01*
X-194834Y-49924D01*
X-194884Y-49984D01*
X-194934Y-50034D01*
X-194964Y-50064D01*
X-194984Y-50084D01*
X-194994Y-50094D01*
X-195124Y-50194D01*
X-195264Y-50283D01*
X-195413Y-50363D01*
X-195553Y-50433D01*
X-195703Y-50493D01*
X-195842Y-50543D01*
X-196112Y-50613D01*
X-196242Y-50633D01*
X-196352Y-50653D01*
X-196461Y-50663D01*
X-196551Y-50673D01*
X-196621Y-50683D01*
X-196721D01*
X-196921Y-50673D01*
X-197120Y-50653D01*
X-197300Y-50613D01*
X-197480Y-50573D01*
X-197639Y-50523D01*
X-197789Y-50463D01*
X-197929Y-50393D01*
X-198059Y-50323D01*
X-198178Y-50264D01*
X-198278Y-50194D01*
X-198358Y-50134D01*
X-198438Y-50084D01*
X-198488Y-50044D01*
X-198538Y-50004D01*
X-198558Y-49984D01*
X-198568Y-49974D01*
X-198697Y-49834D01*
X-198807Y-49694D01*
X-198907Y-49555D01*
X-198997Y-49405D01*
X-199067Y-49255D01*
X-199127Y-49116D01*
X-199177Y-48976D01*
X-199216Y-48846D01*
X-199247Y-48716D01*
X-199266Y-48607D01*
X-199286Y-48507D01*
X-199296Y-48417D01*
X-199306Y-48347D01*
Y-48287D01*
Y-48257D01*
Y-48247D01*
X-199286Y-47997D01*
X-199247Y-47768D01*
X-199177Y-47568D01*
X-199107Y-47389D01*
X-199037Y-47249D01*
X-198967Y-47149D01*
X-198947Y-47109D01*
X-198927Y-47079D01*
X-198907Y-47069D01*
Y-47059D01*
X-198747Y-46890D01*
X-198578Y-46750D01*
X-198408Y-46640D01*
X-198238Y-46560D01*
X-198088Y-46490D01*
X-198029Y-46470D01*
X-197969Y-46450D01*
X-197919Y-46440D01*
X-197889Y-46430D01*
X-197869Y-46420D01*
X-197859D01*
X-198059Y-46301D01*
X-198228Y-46181D01*
X-198368Y-46051D01*
X-198498Y-45911D01*
X-198608Y-45781D01*
X-198697Y-45642D01*
X-198767Y-45512D01*
X-198827Y-45382D01*
X-198877Y-45262D01*
X-198907Y-45153D01*
X-198937Y-45053D01*
X-198947Y-44973D01*
X-198957Y-44903D01*
X-198967Y-44843D01*
Y-44813D01*
Y-44803D01*
X-198957Y-44674D01*
X-198947Y-44544D01*
X-198877Y-44304D01*
X-198797Y-44085D01*
X-198697Y-43895D01*
X-198588Y-43745D01*
X-198548Y-43675D01*
X-198508Y-43625D01*
X-198468Y-43585D01*
X-198438Y-43555D01*
X-198428Y-43535D01*
X-198418Y-43526D01*
X-198288Y-43406D01*
X-198158Y-43296D01*
X-198019Y-43206D01*
X-197869Y-43116D01*
X-197729Y-43056D01*
X-197579Y-42997D01*
X-197440Y-42947D01*
X-197310Y-42917D01*
X-197180Y-42887D01*
X-197060Y-42867D01*
X-196951Y-42847D01*
X-196861Y-42837D01*
X-196791Y-42827D01*
X-196681D01*
X-196451Y-42837D01*
D02*
G37*
G36*
X-150646Y-79671D02*
X-150408Y-79703D01*
X-150203Y-79746D01*
X-150019Y-79790D01*
X-149867Y-79833D01*
X-149748Y-79876D01*
X-149705Y-79898D01*
X-149672Y-79909D01*
X-149662Y-79919D01*
X-149651D01*
X-149456Y-80028D01*
X-149283Y-80136D01*
X-149131Y-80255D01*
X-149012Y-80374D01*
X-148915Y-80471D01*
X-148839Y-80558D01*
X-148796Y-80612D01*
X-148785Y-80633D01*
X-148677Y-80817D01*
X-148590Y-81012D01*
X-148504Y-81218D01*
X-148450Y-81413D01*
X-148396Y-81586D01*
X-148374Y-81651D01*
X-148363Y-81716D01*
X-148352Y-81770D01*
X-148342Y-81813D01*
X-148331Y-81835D01*
Y-81845D01*
X-149802Y-82094D01*
X-149835Y-81899D01*
X-149878Y-81737D01*
X-149932Y-81597D01*
X-149997Y-81477D01*
X-150051Y-81391D01*
X-150105Y-81326D01*
X-150138Y-81283D01*
X-150149Y-81272D01*
X-150268Y-81175D01*
X-150387Y-81099D01*
X-150495Y-81055D01*
X-150614Y-81012D01*
X-150711Y-80991D01*
X-150787Y-80980D01*
X-150852D01*
X-151004Y-80991D01*
X-151133Y-81023D01*
X-151242Y-81066D01*
X-151339Y-81110D01*
X-151415Y-81153D01*
X-151469Y-81196D01*
X-151501Y-81229D01*
X-151512Y-81240D01*
X-151599Y-81337D01*
X-151664Y-81445D01*
X-151707Y-81564D01*
X-151739Y-81672D01*
X-151761Y-81759D01*
X-151772Y-81845D01*
Y-81889D01*
Y-81910D01*
X-151761Y-82084D01*
X-151718Y-82246D01*
X-151664Y-82386D01*
X-151599Y-82495D01*
X-151534Y-82592D01*
X-151480Y-82657D01*
X-151436Y-82700D01*
X-151426Y-82711D01*
X-151285Y-82808D01*
X-151133Y-82873D01*
X-150971Y-82928D01*
X-150809Y-82960D01*
X-150668Y-82971D01*
X-150549Y-82982D01*
X-150441D01*
X-150268Y-84280D01*
X-150419Y-84237D01*
X-150560Y-84204D01*
X-150679Y-84183D01*
X-150787Y-84161D01*
X-150874D01*
X-150939Y-84150D01*
X-150993D01*
X-151166Y-84161D01*
X-151317Y-84204D01*
X-151447Y-84258D01*
X-151566Y-84323D01*
X-151653Y-84399D01*
X-151728Y-84453D01*
X-151772Y-84496D01*
X-151783Y-84507D01*
X-151891Y-84648D01*
X-151966Y-84810D01*
X-152031Y-84972D01*
X-152064Y-85124D01*
X-152086Y-85265D01*
X-152107Y-85373D01*
Y-85416D01*
Y-85438D01*
Y-85459D01*
Y-85470D01*
X-152096Y-85697D01*
X-152053Y-85903D01*
X-151999Y-86076D01*
X-151934Y-86217D01*
X-151869Y-86336D01*
X-151815Y-86423D01*
X-151772Y-86466D01*
X-151761Y-86487D01*
X-151631Y-86606D01*
X-151490Y-86704D01*
X-151350Y-86769D01*
X-151220Y-86812D01*
X-151112Y-86834D01*
X-151025Y-86845D01*
X-150960Y-86855D01*
X-150939D01*
X-150776Y-86845D01*
X-150614Y-86812D01*
X-150484Y-86758D01*
X-150365Y-86704D01*
X-150279Y-86650D01*
X-150203Y-86596D01*
X-150160Y-86563D01*
X-150149Y-86552D01*
X-150040Y-86423D01*
X-149954Y-86282D01*
X-149878Y-86130D01*
X-149835Y-85979D01*
X-149802Y-85849D01*
X-149770Y-85741D01*
Y-85697D01*
X-149759Y-85665D01*
Y-85654D01*
Y-85643D01*
X-148212Y-85838D01*
X-148244Y-86033D01*
X-148287Y-86217D01*
X-148331Y-86379D01*
X-148396Y-86542D01*
X-148461Y-86693D01*
X-148536Y-86834D01*
X-148612Y-86964D01*
X-148688Y-87083D01*
X-148753Y-87180D01*
X-148829Y-87277D01*
X-148893Y-87353D01*
X-148948Y-87418D01*
X-149002Y-87472D01*
X-149034Y-87505D01*
X-149056Y-87526D01*
X-149067Y-87537D01*
X-149207Y-87645D01*
X-149359Y-87743D01*
X-149521Y-87829D01*
X-149672Y-87905D01*
X-149835Y-87970D01*
X-149986Y-88024D01*
X-150279Y-88100D01*
X-150419Y-88121D01*
X-150538Y-88143D01*
X-150657Y-88154D01*
X-150755Y-88165D01*
X-150830Y-88175D01*
X-150939D01*
X-151155Y-88165D01*
X-151371Y-88143D01*
X-151566Y-88100D01*
X-151761Y-88056D01*
X-151934Y-88002D01*
X-152096Y-87937D01*
X-152248Y-87862D01*
X-152388Y-87786D01*
X-152518Y-87721D01*
X-152626Y-87645D01*
X-152713Y-87580D01*
X-152800Y-87526D01*
X-152854Y-87483D01*
X-152908Y-87440D01*
X-152929Y-87418D01*
X-152940Y-87407D01*
X-153081Y-87256D01*
X-153200Y-87104D01*
X-153308Y-86953D01*
X-153406Y-86790D01*
X-153481Y-86628D01*
X-153546Y-86477D01*
X-153600Y-86325D01*
X-153644Y-86184D01*
X-153676Y-86044D01*
X-153698Y-85925D01*
X-153719Y-85816D01*
X-153730Y-85719D01*
X-153741Y-85643D01*
Y-85578D01*
Y-85546D01*
Y-85535D01*
X-153719Y-85265D01*
X-153676Y-85016D01*
X-153600Y-84799D01*
X-153525Y-84605D01*
X-153449Y-84453D01*
X-153373Y-84345D01*
X-153351Y-84302D01*
X-153330Y-84269D01*
X-153308Y-84258D01*
Y-84248D01*
X-153135Y-84064D01*
X-152951Y-83912D01*
X-152767Y-83793D01*
X-152583Y-83707D01*
X-152421Y-83631D01*
X-152356Y-83609D01*
X-152291Y-83588D01*
X-152237Y-83577D01*
X-152205Y-83566D01*
X-152183Y-83555D01*
X-152172D01*
X-152388Y-83425D01*
X-152572Y-83295D01*
X-152724Y-83155D01*
X-152865Y-83003D01*
X-152984Y-82863D01*
X-153081Y-82711D01*
X-153157Y-82570D01*
X-153222Y-82430D01*
X-153276Y-82300D01*
X-153308Y-82181D01*
X-153341Y-82073D01*
X-153351Y-81986D01*
X-153362Y-81910D01*
X-153373Y-81845D01*
Y-81813D01*
Y-81802D01*
X-153362Y-81662D01*
X-153351Y-81521D01*
X-153276Y-81261D01*
X-153189Y-81023D01*
X-153081Y-80817D01*
X-152962Y-80655D01*
X-152919Y-80579D01*
X-152875Y-80525D01*
X-152832Y-80482D01*
X-152800Y-80450D01*
X-152789Y-80428D01*
X-152778Y-80417D01*
X-152637Y-80287D01*
X-152497Y-80168D01*
X-152345Y-80071D01*
X-152183Y-79974D01*
X-152031Y-79909D01*
X-151869Y-79844D01*
X-151718Y-79790D01*
X-151577Y-79757D01*
X-151436Y-79725D01*
X-151306Y-79703D01*
X-151187Y-79681D01*
X-151090Y-79671D01*
X-151014Y-79660D01*
X-150895D01*
X-150646Y-79671D01*
D02*
G37*
G36*
X-122979Y-88024D02*
X-124775D01*
X-127761Y-79703D01*
X-125976D01*
X-123931Y-85860D01*
X-121832Y-79703D01*
X-120014D01*
X-122979Y-88024D01*
D02*
G37*
G36*
X-157204D02*
X-159000D01*
X-161986Y-79703D01*
X-160201D01*
X-158156Y-85860D01*
X-156057Y-79703D01*
X-154239D01*
X-157204Y-88024D01*
D02*
G37*
G36*
X-128605D02*
X-131765D01*
X-132100Y-88013D01*
X-132392Y-87991D01*
X-132641Y-87970D01*
X-132749Y-87948D01*
X-132858Y-87937D01*
X-132944Y-87916D01*
X-133020Y-87905D01*
X-133096Y-87894D01*
X-133150Y-87872D01*
X-133193Y-87862D01*
X-133225D01*
X-133236Y-87851D01*
X-133247D01*
X-133518Y-87753D01*
X-133745Y-87645D01*
X-133951Y-87537D01*
X-134113Y-87429D01*
X-134254Y-87331D01*
X-134351Y-87256D01*
X-134405Y-87212D01*
X-134427Y-87191D01*
X-134632Y-86964D01*
X-134816Y-86725D01*
X-134968Y-86477D01*
X-135098Y-86238D01*
X-135195Y-86033D01*
X-135238Y-85946D01*
X-135271Y-85871D01*
X-135292Y-85806D01*
X-135314Y-85762D01*
X-135325Y-85730D01*
Y-85719D01*
X-135411Y-85427D01*
X-135476Y-85124D01*
X-135520Y-84832D01*
X-135552Y-84551D01*
X-135563Y-84421D01*
X-135574Y-84312D01*
Y-84204D01*
X-135584Y-84118D01*
Y-84042D01*
Y-83988D01*
Y-83955D01*
Y-83945D01*
X-135574Y-83523D01*
X-135563Y-83328D01*
X-135541Y-83144D01*
X-135520Y-82971D01*
X-135498Y-82808D01*
X-135465Y-82657D01*
X-135444Y-82527D01*
X-135422Y-82408D01*
X-135390Y-82300D01*
X-135368Y-82203D01*
X-135346Y-82127D01*
X-135325Y-82062D01*
X-135314Y-82019D01*
X-135303Y-81997D01*
Y-81986D01*
X-135195Y-81694D01*
X-135065Y-81434D01*
X-134935Y-81207D01*
X-134805Y-81012D01*
X-134697Y-80850D01*
X-134643Y-80785D01*
X-134600Y-80731D01*
X-134567Y-80688D01*
X-134535Y-80655D01*
X-134524Y-80644D01*
X-134513Y-80633D01*
X-134308Y-80439D01*
X-134102Y-80276D01*
X-133886Y-80147D01*
X-133691Y-80038D01*
X-133518Y-79963D01*
X-133442Y-79930D01*
X-133377Y-79909D01*
X-133334Y-79887D01*
X-133291Y-79876D01*
X-133269Y-79865D01*
X-133258D01*
X-133150Y-79833D01*
X-133031Y-79811D01*
X-132782Y-79768D01*
X-132511Y-79746D01*
X-132252Y-79725D01*
X-132133Y-79714D01*
X-132024D01*
X-131927Y-79703D01*
X-128605D01*
Y-88024D01*
D02*
G37*
G36*
X-137002D02*
X-140161D01*
X-140497Y-88013D01*
X-140789Y-87991D01*
X-141038Y-87970D01*
X-141146Y-87948D01*
X-141254Y-87937D01*
X-141341Y-87916D01*
X-141417Y-87905D01*
X-141492Y-87894D01*
X-141546Y-87872D01*
X-141590Y-87862D01*
X-141622D01*
X-141633Y-87851D01*
X-141644D01*
X-141914Y-87753D01*
X-142142Y-87645D01*
X-142347Y-87537D01*
X-142509Y-87429D01*
X-142650Y-87331D01*
X-142747Y-87256D01*
X-142802Y-87212D01*
X-142823Y-87191D01*
X-143029Y-86964D01*
X-143213Y-86725D01*
X-143364Y-86477D01*
X-143494Y-86238D01*
X-143591Y-86033D01*
X-143635Y-85946D01*
X-143667Y-85871D01*
X-143689Y-85806D01*
X-143710Y-85762D01*
X-143721Y-85730D01*
Y-85719D01*
X-143808Y-85427D01*
X-143873Y-85124D01*
X-143916Y-84832D01*
X-143949Y-84551D01*
X-143959Y-84421D01*
X-143970Y-84312D01*
Y-84204D01*
X-143981Y-84118D01*
Y-84042D01*
Y-83988D01*
Y-83955D01*
Y-83945D01*
X-143970Y-83523D01*
X-143959Y-83328D01*
X-143938Y-83144D01*
X-143916Y-82971D01*
X-143895Y-82808D01*
X-143862Y-82657D01*
X-143840Y-82527D01*
X-143819Y-82408D01*
X-143786Y-82300D01*
X-143765Y-82203D01*
X-143743Y-82127D01*
X-143721Y-82062D01*
X-143710Y-82019D01*
X-143700Y-81997D01*
Y-81986D01*
X-143591Y-81694D01*
X-143462Y-81434D01*
X-143332Y-81207D01*
X-143202Y-81012D01*
X-143094Y-80850D01*
X-143040Y-80785D01*
X-142996Y-80731D01*
X-142964Y-80688D01*
X-142931Y-80655D01*
X-142921Y-80644D01*
X-142910Y-80633D01*
X-142704Y-80439D01*
X-142499Y-80276D01*
X-142282Y-80147D01*
X-142087Y-80038D01*
X-141914Y-79963D01*
X-141839Y-79930D01*
X-141774Y-79909D01*
X-141730Y-79887D01*
X-141687Y-79876D01*
X-141665Y-79865D01*
X-141655D01*
X-141546Y-79833D01*
X-141427Y-79811D01*
X-141179Y-79768D01*
X-140908Y-79746D01*
X-140648Y-79725D01*
X-140529Y-79714D01*
X-140421D01*
X-140324Y-79703D01*
X-137002D01*
Y-88024D01*
D02*
G37*
G36*
X-124851Y-89850D02*
X-124656Y-89861D01*
X-124461Y-89894D01*
X-124288Y-89926D01*
X-124126Y-89969D01*
X-123974Y-90023D01*
X-123823Y-90078D01*
X-123704Y-90121D01*
X-123585Y-90175D01*
X-123476Y-90229D01*
X-123390Y-90283D01*
X-123314Y-90326D01*
X-123260Y-90359D01*
X-123217Y-90391D01*
X-123195Y-90402D01*
X-123184Y-90413D01*
X-123054Y-90532D01*
X-122935Y-90662D01*
X-122827Y-90803D01*
X-122730Y-90954D01*
X-122643Y-91105D01*
X-122578Y-91268D01*
X-122459Y-91571D01*
X-122416Y-91722D01*
X-122383Y-91863D01*
X-122351Y-91982D01*
X-122329Y-92090D01*
X-122319Y-92177D01*
X-122308Y-92253D01*
X-122297Y-92296D01*
Y-92307D01*
X-123888Y-92458D01*
X-123920Y-92220D01*
X-123963Y-92014D01*
X-124017Y-91841D01*
X-124072Y-91701D01*
X-124126Y-91593D01*
X-124180Y-91517D01*
X-124212Y-91473D01*
X-124223Y-91463D01*
X-124342Y-91365D01*
X-124472Y-91290D01*
X-124602Y-91235D01*
X-124732Y-91192D01*
X-124840Y-91171D01*
X-124926Y-91160D01*
X-125013D01*
X-125197Y-91171D01*
X-125348Y-91203D01*
X-125489Y-91257D01*
X-125597Y-91300D01*
X-125684Y-91354D01*
X-125749Y-91409D01*
X-125792Y-91441D01*
X-125803Y-91452D01*
X-125900Y-91571D01*
X-125976Y-91701D01*
X-126019Y-91841D01*
X-126062Y-91971D01*
X-126084Y-92090D01*
X-126095Y-92188D01*
Y-92253D01*
Y-92263D01*
Y-92274D01*
X-126084Y-92458D01*
X-126041Y-92631D01*
X-125987Y-92794D01*
X-125933Y-92945D01*
X-125868Y-93064D01*
X-125814Y-93161D01*
X-125770Y-93226D01*
X-125759Y-93237D01*
Y-93248D01*
X-125705Y-93324D01*
X-125630Y-93410D01*
X-125554Y-93508D01*
X-125456Y-93616D01*
X-125240Y-93832D01*
X-125013Y-94059D01*
X-124796Y-94276D01*
X-124699Y-94362D01*
X-124613Y-94449D01*
X-124537Y-94514D01*
X-124483Y-94568D01*
X-124450Y-94600D01*
X-124439Y-94611D01*
X-124201Y-94839D01*
X-123985Y-95055D01*
X-123779Y-95261D01*
X-123595Y-95444D01*
X-123433Y-95628D01*
X-123292Y-95791D01*
X-123163Y-95942D01*
X-123043Y-96083D01*
X-122946Y-96202D01*
X-122870Y-96310D01*
X-122806Y-96397D01*
X-122751Y-96473D01*
X-122708Y-96537D01*
X-122676Y-96581D01*
X-122665Y-96602D01*
X-122654Y-96613D01*
X-122502Y-96894D01*
X-122383Y-97176D01*
X-122286Y-97446D01*
X-122210Y-97695D01*
X-122189Y-97803D01*
X-122167Y-97901D01*
X-122146Y-97987D01*
X-122135Y-98063D01*
X-122124Y-98117D01*
X-122113Y-98171D01*
Y-98193D01*
Y-98204D01*
X-127696D01*
Y-96721D01*
X-124526D01*
X-124623Y-96570D01*
X-124732Y-96429D01*
X-124775Y-96375D01*
X-124818Y-96332D01*
X-124840Y-96299D01*
X-124851Y-96288D01*
X-124894Y-96245D01*
X-124948Y-96180D01*
X-125089Y-96051D01*
X-125240Y-95899D01*
X-125402Y-95747D01*
X-125554Y-95596D01*
X-125684Y-95477D01*
X-125738Y-95434D01*
X-125770Y-95401D01*
X-125792Y-95380D01*
X-125803Y-95369D01*
X-125943Y-95239D01*
X-126062Y-95120D01*
X-126290Y-94903D01*
X-126463Y-94719D01*
X-126614Y-94568D01*
X-126722Y-94449D01*
X-126798Y-94362D01*
X-126841Y-94319D01*
X-126852Y-94298D01*
X-127004Y-94092D01*
X-127134Y-93897D01*
X-127242Y-93724D01*
X-127339Y-93562D01*
X-127404Y-93432D01*
X-127447Y-93324D01*
X-127480Y-93259D01*
X-127491Y-93248D01*
Y-93237D01*
X-127556Y-93042D01*
X-127610Y-92858D01*
X-127642Y-92675D01*
X-127675Y-92512D01*
X-127685Y-92372D01*
X-127696Y-92263D01*
Y-92220D01*
Y-92188D01*
Y-92177D01*
Y-92166D01*
X-127685Y-91982D01*
X-127664Y-91809D01*
X-127631Y-91647D01*
X-127588Y-91484D01*
X-127469Y-91203D01*
X-127415Y-91084D01*
X-127350Y-90965D01*
X-127274Y-90857D01*
X-127220Y-90770D01*
X-127155Y-90694D01*
X-127101Y-90629D01*
X-127058Y-90575D01*
X-127025Y-90543D01*
X-127004Y-90521D01*
X-126993Y-90510D01*
X-126852Y-90391D01*
X-126712Y-90294D01*
X-126549Y-90197D01*
X-126398Y-90121D01*
X-126236Y-90056D01*
X-126073Y-90002D01*
X-125759Y-89926D01*
X-125619Y-89894D01*
X-125489Y-89872D01*
X-125359Y-89861D01*
X-125262Y-89850D01*
X-125175Y-89839D01*
X-125056D01*
X-124851Y-89850D01*
D02*
G37*
G36*
X-145052Y-92047D02*
X-144858Y-92079D01*
X-144674Y-92123D01*
X-144500Y-92188D01*
X-144338Y-92263D01*
X-144187Y-92339D01*
X-144046Y-92436D01*
X-143916Y-92523D01*
X-143797Y-92610D01*
X-143689Y-92696D01*
X-143602Y-92783D01*
X-143527Y-92858D01*
X-143462Y-92923D01*
X-143418Y-92967D01*
X-143397Y-92999D01*
X-143386Y-93010D01*
Y-92177D01*
X-141914D01*
Y-98204D01*
X-143505D01*
Y-95282D01*
Y-95120D01*
X-143516Y-94979D01*
Y-94839D01*
X-143527Y-94719D01*
X-143537Y-94600D01*
X-143548Y-94503D01*
X-143570Y-94330D01*
X-143591Y-94200D01*
X-143602Y-94114D01*
X-143624Y-94059D01*
Y-94038D01*
X-143678Y-93908D01*
X-143743Y-93789D01*
X-143819Y-93692D01*
X-143884Y-93605D01*
X-143949Y-93551D01*
X-144003Y-93497D01*
X-144035Y-93475D01*
X-144046Y-93464D01*
X-144165Y-93399D01*
X-144284Y-93345D01*
X-144392Y-93313D01*
X-144500Y-93280D01*
X-144587Y-93270D01*
X-144652Y-93259D01*
X-144825D01*
X-144922Y-93280D01*
X-144998Y-93302D01*
X-145074Y-93324D01*
X-145117Y-93345D01*
X-145160Y-93367D01*
X-145182Y-93378D01*
X-145193Y-93389D01*
X-145258Y-93443D01*
X-145312Y-93508D01*
X-145399Y-93627D01*
X-145431Y-93692D01*
X-145453Y-93735D01*
X-145463Y-93767D01*
Y-93778D01*
X-145474Y-93832D01*
X-145496Y-93897D01*
X-145518Y-94059D01*
X-145528Y-94243D01*
X-145539Y-94438D01*
X-145550Y-94611D01*
Y-94687D01*
Y-94763D01*
Y-94817D01*
Y-94860D01*
Y-94893D01*
Y-94903D01*
Y-98204D01*
X-147141D01*
Y-95315D01*
Y-95163D01*
X-147151Y-95012D01*
X-147162Y-94763D01*
X-147184Y-94546D01*
X-147205Y-94373D01*
X-147227Y-94243D01*
X-147249Y-94146D01*
X-147270Y-94092D01*
Y-94070D01*
X-147324Y-93930D01*
X-147389Y-93811D01*
X-147465Y-93702D01*
X-147530Y-93616D01*
X-147595Y-93551D01*
X-147649Y-93508D01*
X-147682Y-93475D01*
X-147692Y-93464D01*
X-147801Y-93399D01*
X-147909Y-93345D01*
X-148017Y-93313D01*
X-148114Y-93280D01*
X-148201Y-93270D01*
X-148266Y-93259D01*
X-148320D01*
X-148482Y-93270D01*
X-148623Y-93313D01*
X-148742Y-93367D01*
X-148839Y-93432D01*
X-148904Y-93497D01*
X-148958Y-93551D01*
X-148991Y-93594D01*
X-149002Y-93605D01*
X-149034Y-93659D01*
X-149056Y-93724D01*
X-149099Y-93897D01*
X-149131Y-94081D01*
X-149153Y-94276D01*
X-149164Y-94460D01*
X-149175Y-94546D01*
Y-94622D01*
Y-94676D01*
Y-94719D01*
Y-94752D01*
Y-94763D01*
Y-98204D01*
X-150765D01*
Y-94352D01*
Y-94189D01*
X-150755Y-94049D01*
Y-93919D01*
X-150744Y-93789D01*
X-150711Y-93573D01*
X-150679Y-93399D01*
X-150646Y-93270D01*
X-150625Y-93183D01*
X-150603Y-93129D01*
X-150592Y-93107D01*
X-150495Y-92923D01*
X-150387Y-92761D01*
X-150279Y-92620D01*
X-150160Y-92512D01*
X-150062Y-92415D01*
X-149976Y-92361D01*
X-149921Y-92317D01*
X-149911Y-92307D01*
X-149900D01*
X-149727Y-92220D01*
X-149532Y-92155D01*
X-149348Y-92101D01*
X-149175Y-92069D01*
X-149023Y-92047D01*
X-148893Y-92036D01*
X-148785D01*
X-148590Y-92047D01*
X-148417Y-92079D01*
X-148244Y-92112D01*
X-148104Y-92155D01*
X-147974Y-92209D01*
X-147887Y-92242D01*
X-147822Y-92274D01*
X-147811Y-92285D01*
X-147801D01*
X-147638Y-92382D01*
X-147476Y-92501D01*
X-147335Y-92620D01*
X-147205Y-92729D01*
X-147097Y-92837D01*
X-147011Y-92923D01*
X-146967Y-92978D01*
X-146946Y-92988D01*
Y-92999D01*
X-146838Y-92826D01*
X-146719Y-92685D01*
X-146610Y-92566D01*
X-146502Y-92458D01*
X-146405Y-92382D01*
X-146329Y-92328D01*
X-146275Y-92296D01*
X-146253Y-92285D01*
X-146091Y-92198D01*
X-145918Y-92144D01*
X-145745Y-92101D01*
X-145593Y-92069D01*
X-145453Y-92047D01*
X-145344Y-92036D01*
X-145247D01*
X-145052Y-92047D01*
D02*
G37*
G36*
X-151534Y-98204D02*
X-153308D01*
X-154001Y-96310D01*
X-157323D01*
X-158058Y-98204D01*
X-159887D01*
X-156565Y-89883D01*
X-154769D01*
X-151534Y-98204D01*
D02*
G37*
G36*
X-131245Y-89850D02*
X-131029Y-89872D01*
X-130834Y-89915D01*
X-130661Y-89969D01*
X-130488Y-90034D01*
X-130337Y-90110D01*
X-130196Y-90186D01*
X-130066Y-90261D01*
X-129958Y-90348D01*
X-129860Y-90424D01*
X-129774Y-90500D01*
X-129698Y-90564D01*
X-129644Y-90619D01*
X-129612Y-90662D01*
X-129590Y-90683D01*
X-129579Y-90694D01*
X-129438Y-90900D01*
X-129309Y-91138D01*
X-129200Y-91398D01*
X-129114Y-91668D01*
X-129027Y-91939D01*
X-128962Y-92231D01*
X-128908Y-92512D01*
X-128865Y-92783D01*
X-128833Y-93042D01*
X-128811Y-93291D01*
X-128789Y-93508D01*
X-128778Y-93702D01*
Y-93865D01*
X-128767Y-93930D01*
Y-93984D01*
Y-94038D01*
Y-94059D01*
Y-94081D01*
Y-94092D01*
X-128778Y-94525D01*
X-128800Y-94925D01*
X-128833Y-95293D01*
X-128887Y-95628D01*
X-128941Y-95931D01*
X-129006Y-96202D01*
X-129071Y-96440D01*
X-129135Y-96656D01*
X-129200Y-96840D01*
X-129276Y-97003D01*
X-129330Y-97133D01*
X-129384Y-97241D01*
X-129438Y-97327D01*
X-129471Y-97381D01*
X-129493Y-97414D01*
X-129503Y-97425D01*
X-129644Y-97587D01*
X-129806Y-97728D01*
X-129958Y-97858D01*
X-130120Y-97966D01*
X-130293Y-98052D01*
X-130456Y-98128D01*
X-130607Y-98193D01*
X-130758Y-98236D01*
X-130910Y-98279D01*
X-131040Y-98301D01*
X-131159Y-98323D01*
X-131256Y-98344D01*
X-131343D01*
X-131408Y-98355D01*
X-131462D01*
X-131678Y-98344D01*
X-131895Y-98323D01*
X-132089Y-98279D01*
X-132262Y-98225D01*
X-132436Y-98160D01*
X-132587Y-98085D01*
X-132728Y-98009D01*
X-132858Y-97933D01*
X-132966Y-97858D01*
X-133074Y-97782D01*
X-133150Y-97706D01*
X-133225Y-97641D01*
X-133280Y-97587D01*
X-133312Y-97544D01*
X-133334Y-97522D01*
X-133345Y-97511D01*
X-133485Y-97306D01*
X-133615Y-97068D01*
X-133723Y-96808D01*
X-133821Y-96537D01*
X-133896Y-96256D01*
X-133961Y-95975D01*
X-134026Y-95693D01*
X-134069Y-95412D01*
X-134102Y-95152D01*
X-134124Y-94903D01*
X-134145Y-94687D01*
X-134156Y-94492D01*
X-134167Y-94330D01*
Y-94265D01*
Y-94211D01*
Y-94157D01*
Y-94124D01*
Y-94114D01*
Y-94103D01*
X-134156Y-93670D01*
X-134135Y-93280D01*
X-134091Y-92913D01*
X-134037Y-92577D01*
X-133983Y-92263D01*
X-133907Y-91982D01*
X-133842Y-91733D01*
X-133767Y-91517D01*
X-133691Y-91322D01*
X-133615Y-91160D01*
X-133539Y-91019D01*
X-133485Y-90900D01*
X-133431Y-90813D01*
X-133388Y-90749D01*
X-133366Y-90716D01*
X-133355Y-90705D01*
X-133225Y-90554D01*
X-133074Y-90424D01*
X-132923Y-90305D01*
X-132771Y-90207D01*
X-132620Y-90121D01*
X-132457Y-90045D01*
X-132306Y-89991D01*
X-132154Y-89948D01*
X-132014Y-89915D01*
X-131884Y-89883D01*
X-131765Y-89861D01*
X-131667Y-89850D01*
X-131581Y-89839D01*
X-131462D01*
X-131245Y-89850D01*
D02*
G37*
G36*
X-137705D02*
X-137489Y-89872D01*
X-137294Y-89915D01*
X-137121Y-89969D01*
X-136948Y-90034D01*
X-136796Y-90110D01*
X-136656Y-90186D01*
X-136526Y-90261D01*
X-136418Y-90348D01*
X-136320Y-90424D01*
X-136234Y-90500D01*
X-136158Y-90564D01*
X-136104Y-90619D01*
X-136071Y-90662D01*
X-136050Y-90683D01*
X-136039Y-90694D01*
X-135898Y-90900D01*
X-135768Y-91138D01*
X-135660Y-91398D01*
X-135574Y-91668D01*
X-135487Y-91939D01*
X-135422Y-92231D01*
X-135368Y-92512D01*
X-135325Y-92783D01*
X-135292Y-93042D01*
X-135271Y-93291D01*
X-135249Y-93508D01*
X-135238Y-93702D01*
Y-93865D01*
X-135227Y-93930D01*
Y-93984D01*
Y-94038D01*
Y-94059D01*
Y-94081D01*
Y-94092D01*
X-135238Y-94525D01*
X-135260Y-94925D01*
X-135292Y-95293D01*
X-135346Y-95628D01*
X-135400Y-95931D01*
X-135465Y-96202D01*
X-135530Y-96440D01*
X-135595Y-96656D01*
X-135660Y-96840D01*
X-135736Y-97003D01*
X-135790Y-97133D01*
X-135844Y-97241D01*
X-135898Y-97327D01*
X-135931Y-97381D01*
X-135952Y-97414D01*
X-135963Y-97425D01*
X-136104Y-97587D01*
X-136266Y-97728D01*
X-136418Y-97858D01*
X-136580Y-97966D01*
X-136753Y-98052D01*
X-136915Y-98128D01*
X-137067Y-98193D01*
X-137218Y-98236D01*
X-137370Y-98279D01*
X-137500Y-98301D01*
X-137619Y-98323D01*
X-137716Y-98344D01*
X-137803D01*
X-137867Y-98355D01*
X-137922D01*
X-138138Y-98344D01*
X-138354Y-98323D01*
X-138549Y-98279D01*
X-138722Y-98225D01*
X-138895Y-98160D01*
X-139047Y-98085D01*
X-139188Y-98009D01*
X-139317Y-97933D01*
X-139426Y-97858D01*
X-139534Y-97782D01*
X-139610Y-97706D01*
X-139685Y-97641D01*
X-139739Y-97587D01*
X-139772Y-97544D01*
X-139794Y-97522D01*
X-139804Y-97511D01*
X-139945Y-97306D01*
X-140075Y-97068D01*
X-140183Y-96808D01*
X-140280Y-96537D01*
X-140356Y-96256D01*
X-140421Y-95975D01*
X-140486Y-95693D01*
X-140529Y-95412D01*
X-140562Y-95152D01*
X-140583Y-94903D01*
X-140605Y-94687D01*
X-140616Y-94492D01*
X-140627Y-94330D01*
Y-94265D01*
Y-94211D01*
Y-94157D01*
Y-94124D01*
Y-94114D01*
Y-94103D01*
X-140616Y-93670D01*
X-140594Y-93280D01*
X-140551Y-92913D01*
X-140497Y-92577D01*
X-140443Y-92263D01*
X-140367Y-91982D01*
X-140302Y-91733D01*
X-140226Y-91517D01*
X-140151Y-91322D01*
X-140075Y-91160D01*
X-139999Y-91019D01*
X-139945Y-90900D01*
X-139891Y-90813D01*
X-139848Y-90749D01*
X-139826Y-90716D01*
X-139815Y-90705D01*
X-139685Y-90554D01*
X-139534Y-90424D01*
X-139382Y-90305D01*
X-139231Y-90207D01*
X-139079Y-90121D01*
X-138917Y-90045D01*
X-138766Y-89991D01*
X-138614Y-89948D01*
X-138473Y-89915D01*
X-138344Y-89883D01*
X-138225Y-89861D01*
X-138127Y-89850D01*
X-138041Y-89839D01*
X-137922D01*
X-137705Y-89850D01*
D02*
G37*
G36*
X-148645Y-104012D02*
X-145766Y-108340D01*
X-147779D01*
X-149629Y-105516D01*
X-151480Y-108340D01*
X-153492D01*
X-150625Y-104001D01*
X-153232Y-100019D01*
X-151285D01*
X-149640Y-102508D01*
X-147995Y-100019D01*
X-146037D01*
X-148645Y-104012D01*
D02*
G37*
G36*
X-128508Y-108340D02*
X-130066D01*
Y-101794D01*
X-131711Y-108340D01*
X-133323D01*
X-134968Y-101794D01*
X-134978Y-108340D01*
X-136537D01*
Y-100019D01*
X-134015D01*
X-132522Y-105700D01*
X-131018Y-100019D01*
X-128508D01*
Y-108340D01*
D02*
G37*
G36*
X-137370D02*
X-139144D01*
X-139837Y-106447D01*
X-143159D01*
X-143895Y-108340D01*
X-145723D01*
X-142401Y-100019D01*
X-140605D01*
X-137370Y-108340D01*
D02*
G37*
G36*
X191244Y-54154D02*
X191464Y-54184D01*
X191653Y-54224D01*
X191823Y-54264D01*
X191963Y-54304D01*
X192072Y-54344D01*
X192112Y-54364D01*
X192142Y-54374D01*
X192152Y-54384D01*
X192162D01*
X192342Y-54483D01*
X192502Y-54583D01*
X192641Y-54693D01*
X192751Y-54803D01*
X192841Y-54893D01*
X192911Y-54973D01*
X192951Y-55022D01*
X192961Y-55042D01*
X193061Y-55212D01*
X193141Y-55392D01*
X193220Y-55581D01*
X193270Y-55761D01*
X193320Y-55921D01*
X193340Y-55981D01*
X193350Y-56041D01*
X193360Y-56090D01*
X193370Y-56130D01*
X193380Y-56150D01*
Y-56160D01*
X192022Y-56390D01*
X191992Y-56210D01*
X191953Y-56061D01*
X191903Y-55931D01*
X191843Y-55821D01*
X191793Y-55741D01*
X191743Y-55681D01*
X191713Y-55641D01*
X191703Y-55631D01*
X191593Y-55542D01*
X191483Y-55472D01*
X191384Y-55432D01*
X191274Y-55392D01*
X191184Y-55372D01*
X191114Y-55362D01*
X191054D01*
X190914Y-55372D01*
X190795Y-55402D01*
X190695Y-55442D01*
X190605Y-55482D01*
X190535Y-55522D01*
X190485Y-55561D01*
X190455Y-55591D01*
X190445Y-55601D01*
X190365Y-55691D01*
X190306Y-55791D01*
X190266Y-55901D01*
X190236Y-56001D01*
X190216Y-56081D01*
X190206Y-56160D01*
Y-56200D01*
Y-56220D01*
X190216Y-56380D01*
X190256Y-56530D01*
X190306Y-56659D01*
X190365Y-56759D01*
X190425Y-56849D01*
X190475Y-56909D01*
X190515Y-56949D01*
X190525Y-56959D01*
X190655Y-57049D01*
X190795Y-57109D01*
X190944Y-57159D01*
X191094Y-57189D01*
X191224Y-57199D01*
X191334Y-57208D01*
X191434D01*
X191593Y-58406D01*
X191453Y-58366D01*
X191324Y-58337D01*
X191214Y-58317D01*
X191114Y-58297D01*
X191034D01*
X190974Y-58287D01*
X190924D01*
X190765Y-58297D01*
X190625Y-58337D01*
X190505Y-58386D01*
X190395Y-58446D01*
X190315Y-58516D01*
X190246Y-58566D01*
X190206Y-58606D01*
X190196Y-58616D01*
X190096Y-58746D01*
X190026Y-58896D01*
X189966Y-59045D01*
X189936Y-59185D01*
X189916Y-59315D01*
X189896Y-59415D01*
Y-59454D01*
Y-59475D01*
Y-59495D01*
Y-59504D01*
X189906Y-59714D01*
X189946Y-59904D01*
X189996Y-60064D01*
X190056Y-60193D01*
X190116Y-60303D01*
X190166Y-60383D01*
X190206Y-60423D01*
X190216Y-60443D01*
X190336Y-60553D01*
X190465Y-60642D01*
X190595Y-60702D01*
X190715Y-60742D01*
X190815Y-60762D01*
X190895Y-60772D01*
X190954Y-60782D01*
X190974D01*
X191124Y-60772D01*
X191274Y-60742D01*
X191394Y-60692D01*
X191503Y-60642D01*
X191583Y-60592D01*
X191653Y-60543D01*
X191693Y-60513D01*
X191703Y-60503D01*
X191803Y-60383D01*
X191883Y-60253D01*
X191953Y-60113D01*
X191992Y-59974D01*
X192022Y-59854D01*
X192052Y-59754D01*
Y-59714D01*
X192062Y-59684D01*
Y-59674D01*
Y-59664D01*
X193490Y-59844D01*
X193460Y-60023D01*
X193420Y-60193D01*
X193380Y-60343D01*
X193320Y-60493D01*
X193260Y-60632D01*
X193190Y-60762D01*
X193120Y-60882D01*
X193051Y-60992D01*
X192991Y-61082D01*
X192921Y-61171D01*
X192861Y-61241D01*
X192811Y-61301D01*
X192761Y-61351D01*
X192731Y-61381D01*
X192711Y-61401D01*
X192701Y-61411D01*
X192572Y-61511D01*
X192432Y-61601D01*
X192282Y-61681D01*
X192142Y-61750D01*
X191992Y-61810D01*
X191853Y-61860D01*
X191583Y-61930D01*
X191453Y-61950D01*
X191344Y-61970D01*
X191234Y-61980D01*
X191144Y-61990D01*
X191074Y-62000D01*
X190974D01*
X190775Y-61990D01*
X190575Y-61970D01*
X190395Y-61930D01*
X190216Y-61890D01*
X190056Y-61840D01*
X189906Y-61780D01*
X189767Y-61711D01*
X189637Y-61641D01*
X189517Y-61581D01*
X189417Y-61511D01*
X189337Y-61451D01*
X189257Y-61401D01*
X189207Y-61361D01*
X189158Y-61321D01*
X189138Y-61301D01*
X189128Y-61291D01*
X188998Y-61151D01*
X188888Y-61012D01*
X188788Y-60872D01*
X188698Y-60722D01*
X188629Y-60573D01*
X188569Y-60433D01*
X188519Y-60293D01*
X188479Y-60163D01*
X188449Y-60033D01*
X188429Y-59924D01*
X188409Y-59824D01*
X188399Y-59734D01*
X188389Y-59664D01*
Y-59604D01*
Y-59574D01*
Y-59564D01*
X188409Y-59315D01*
X188449Y-59085D01*
X188519Y-58886D01*
X188589Y-58706D01*
X188659Y-58566D01*
X188728Y-58466D01*
X188748Y-58426D01*
X188768Y-58396D01*
X188788Y-58386D01*
Y-58376D01*
X188948Y-58207D01*
X189118Y-58067D01*
X189287Y-57957D01*
X189457Y-57877D01*
X189607Y-57807D01*
X189667Y-57787D01*
X189727Y-57768D01*
X189776Y-57758D01*
X189806Y-57748D01*
X189826Y-57738D01*
X189836D01*
X189637Y-57618D01*
X189467Y-57498D01*
X189327Y-57368D01*
X189198Y-57228D01*
X189088Y-57099D01*
X188998Y-56959D01*
X188928Y-56829D01*
X188868Y-56700D01*
X188818Y-56580D01*
X188788Y-56470D01*
X188758Y-56370D01*
X188748Y-56290D01*
X188738Y-56220D01*
X188728Y-56160D01*
Y-56130D01*
Y-56121D01*
X188738Y-55991D01*
X188748Y-55861D01*
X188818Y-55621D01*
X188898Y-55402D01*
X188998Y-55212D01*
X189108Y-55062D01*
X189148Y-54992D01*
X189188Y-54943D01*
X189228Y-54903D01*
X189257Y-54873D01*
X189267Y-54853D01*
X189277Y-54843D01*
X189407Y-54723D01*
X189537Y-54613D01*
X189677Y-54523D01*
X189826Y-54433D01*
X189966Y-54374D01*
X190116Y-54314D01*
X190256Y-54264D01*
X190385Y-54234D01*
X190515Y-54204D01*
X190635Y-54184D01*
X190745Y-54164D01*
X190835Y-54154D01*
X190905Y-54144D01*
X191014D01*
X191244Y-54154D01*
D02*
G37*
G36*
X196884Y-54274D02*
X196944Y-54404D01*
X197083Y-54633D01*
X197233Y-54843D01*
X197393Y-55032D01*
X197533Y-55172D01*
X197593Y-55242D01*
X197652Y-55292D01*
X197702Y-55332D01*
X197732Y-55362D01*
X197752Y-55372D01*
X197762Y-55382D01*
X198012Y-55561D01*
X198241Y-55711D01*
X198451Y-55841D01*
X198631Y-55931D01*
X198780Y-56001D01*
X198850Y-56031D01*
X198900Y-56051D01*
X198940Y-56071D01*
X198970Y-56081D01*
X198990Y-56090D01*
X199000D01*
Y-57428D01*
X198611Y-57278D01*
X198241Y-57099D01*
X198082Y-57009D01*
X197922Y-56919D01*
X197772Y-56829D01*
X197642Y-56739D01*
X197523Y-56649D01*
X197413Y-56580D01*
X197323Y-56500D01*
X197243Y-56440D01*
X197183Y-56390D01*
X197143Y-56350D01*
X197113Y-56330D01*
X197103Y-56320D01*
Y-61860D01*
X195636D01*
Y-54144D01*
X196834D01*
X196884Y-54274D01*
D02*
G37*
G36*
Y-80414D02*
X196944Y-80543D01*
X197083Y-80773D01*
X197233Y-80983D01*
X197393Y-81172D01*
X197533Y-81312D01*
X197593Y-81382D01*
X197652Y-81432D01*
X197702Y-81472D01*
X197732Y-81502D01*
X197752Y-81512D01*
X197762Y-81522D01*
X198012Y-81701D01*
X198241Y-81851D01*
X198451Y-81981D01*
X198631Y-82071D01*
X198780Y-82141D01*
X198850Y-82170D01*
X198900Y-82190D01*
X198940Y-82210D01*
X198970Y-82220D01*
X198990Y-82230D01*
X199000D01*
Y-83568D01*
X198611Y-83418D01*
X198241Y-83238D01*
X198082Y-83149D01*
X197922Y-83059D01*
X197772Y-82969D01*
X197642Y-82879D01*
X197523Y-82789D01*
X197413Y-82719D01*
X197323Y-82640D01*
X197243Y-82580D01*
X197183Y-82530D01*
X197143Y-82490D01*
X197113Y-82470D01*
X197103Y-82460D01*
Y-88000D01*
X195636D01*
Y-80284D01*
X196834D01*
X196884Y-80414D01*
D02*
G37*
G36*
X190924D02*
X190984Y-80543D01*
X191124Y-80773D01*
X191274Y-80983D01*
X191434Y-81172D01*
X191573Y-81312D01*
X191633Y-81382D01*
X191693Y-81432D01*
X191743Y-81472D01*
X191773Y-81502D01*
X191793Y-81512D01*
X191803Y-81522D01*
X192052Y-81701D01*
X192282Y-81851D01*
X192492Y-81981D01*
X192671Y-82071D01*
X192821Y-82141D01*
X192891Y-82170D01*
X192941Y-82190D01*
X192981Y-82210D01*
X193011Y-82220D01*
X193031Y-82230D01*
X193041D01*
Y-83568D01*
X192651Y-83418D01*
X192282Y-83238D01*
X192122Y-83149D01*
X191963Y-83059D01*
X191813Y-82969D01*
X191683Y-82879D01*
X191563Y-82789D01*
X191453Y-82719D01*
X191364Y-82640D01*
X191284Y-82580D01*
X191224Y-82530D01*
X191184Y-82490D01*
X191154Y-82470D01*
X191144Y-82460D01*
Y-88000D01*
X189677D01*
Y-80284D01*
X190875D01*
X190924Y-80414D01*
D02*
G37*
G36*
X-196116Y-17414D02*
X-196056Y-17543D01*
X-195917Y-17773D01*
X-195767Y-17982D01*
X-195607Y-18172D01*
X-195467Y-18312D01*
X-195408Y-18382D01*
X-195348Y-18432D01*
X-195298Y-18472D01*
X-195268Y-18502D01*
X-195248Y-18512D01*
X-195238Y-18522D01*
X-194988Y-18701D01*
X-194759Y-18851D01*
X-194549Y-18981D01*
X-194369Y-19071D01*
X-194220Y-19140D01*
X-194150Y-19170D01*
X-194100Y-19190D01*
X-194060Y-19210D01*
X-194030Y-19220D01*
X-194010Y-19230D01*
X-194000D01*
Y-20568D01*
X-194389Y-20418D01*
X-194759Y-20238D01*
X-194918Y-20149D01*
X-195078Y-20059D01*
X-195228Y-19969D01*
X-195358Y-19879D01*
X-195477Y-19789D01*
X-195587Y-19719D01*
X-195677Y-19640D01*
X-195757Y-19580D01*
X-195817Y-19530D01*
X-195857Y-19490D01*
X-195887Y-19470D01*
X-195897Y-19460D01*
Y-25000D01*
X-197364D01*
Y-17284D01*
X-196166D01*
X-196116Y-17414D01*
D02*
G37*
G36*
X191094Y-67294D02*
X191274Y-67304D01*
X191453Y-67334D01*
X191613Y-67364D01*
X191763Y-67403D01*
X191903Y-67453D01*
X192042Y-67503D01*
X192152Y-67543D01*
X192262Y-67593D01*
X192362Y-67643D01*
X192442Y-67693D01*
X192512Y-67733D01*
X192561Y-67763D01*
X192601Y-67793D01*
X192621Y-67803D01*
X192631Y-67813D01*
X192751Y-67923D01*
X192861Y-68042D01*
X192961Y-68172D01*
X193051Y-68312D01*
X193130Y-68452D01*
X193190Y-68601D01*
X193300Y-68881D01*
X193340Y-69021D01*
X193370Y-69150D01*
X193400Y-69260D01*
X193420Y-69360D01*
X193430Y-69440D01*
X193440Y-69510D01*
X193450Y-69550D01*
Y-69560D01*
X191982Y-69700D01*
X191953Y-69480D01*
X191913Y-69290D01*
X191863Y-69131D01*
X191813Y-69001D01*
X191763Y-68901D01*
X191713Y-68831D01*
X191683Y-68791D01*
X191673Y-68781D01*
X191563Y-68691D01*
X191444Y-68621D01*
X191324Y-68572D01*
X191204Y-68531D01*
X191104Y-68512D01*
X191024Y-68502D01*
X190944D01*
X190775Y-68512D01*
X190635Y-68541D01*
X190505Y-68591D01*
X190405Y-68631D01*
X190326Y-68681D01*
X190266Y-68731D01*
X190226Y-68761D01*
X190216Y-68771D01*
X190126Y-68881D01*
X190056Y-69001D01*
X190016Y-69131D01*
X189976Y-69250D01*
X189956Y-69360D01*
X189946Y-69450D01*
Y-69510D01*
Y-69520D01*
Y-69530D01*
X189956Y-69700D01*
X189996Y-69859D01*
X190046Y-70009D01*
X190096Y-70149D01*
X190156Y-70258D01*
X190206Y-70348D01*
X190246Y-70408D01*
X190256Y-70418D01*
Y-70428D01*
X190306Y-70498D01*
X190375Y-70578D01*
X190445Y-70668D01*
X190535Y-70767D01*
X190735Y-70967D01*
X190944Y-71177D01*
X191144Y-71377D01*
X191234Y-71456D01*
X191314Y-71536D01*
X191384Y-71596D01*
X191434Y-71646D01*
X191464Y-71676D01*
X191474Y-71686D01*
X191693Y-71895D01*
X191893Y-72095D01*
X192082Y-72285D01*
X192252Y-72455D01*
X192402Y-72624D01*
X192532Y-72774D01*
X192651Y-72914D01*
X192761Y-73043D01*
X192851Y-73153D01*
X192921Y-73253D01*
X192981Y-73333D01*
X193031Y-73403D01*
X193071Y-73463D01*
X193101Y-73503D01*
X193111Y-73523D01*
X193120Y-73533D01*
X193260Y-73792D01*
X193370Y-74052D01*
X193460Y-74301D01*
X193530Y-74531D01*
X193550Y-74631D01*
X193570Y-74721D01*
X193590Y-74800D01*
X193600Y-74870D01*
X193610Y-74920D01*
X193620Y-74970D01*
Y-74990D01*
Y-75000D01*
X188469D01*
Y-73632D01*
X191394D01*
X191304Y-73493D01*
X191204Y-73363D01*
X191164Y-73313D01*
X191124Y-73273D01*
X191104Y-73243D01*
X191094Y-73233D01*
X191054Y-73193D01*
X191004Y-73133D01*
X190875Y-73014D01*
X190735Y-72874D01*
X190585Y-72734D01*
X190445Y-72594D01*
X190326Y-72484D01*
X190276Y-72445D01*
X190246Y-72415D01*
X190226Y-72395D01*
X190216Y-72385D01*
X190086Y-72265D01*
X189976Y-72155D01*
X189767Y-71955D01*
X189607Y-71786D01*
X189467Y-71646D01*
X189367Y-71536D01*
X189297Y-71456D01*
X189257Y-71416D01*
X189247Y-71396D01*
X189108Y-71207D01*
X188988Y-71027D01*
X188888Y-70867D01*
X188798Y-70718D01*
X188738Y-70598D01*
X188698Y-70498D01*
X188668Y-70438D01*
X188659Y-70428D01*
Y-70418D01*
X188599Y-70238D01*
X188549Y-70069D01*
X188519Y-69899D01*
X188489Y-69749D01*
X188479Y-69620D01*
X188469Y-69520D01*
Y-69480D01*
Y-69450D01*
Y-69440D01*
Y-69430D01*
X188479Y-69260D01*
X188499Y-69100D01*
X188529Y-68951D01*
X188569Y-68801D01*
X188678Y-68541D01*
X188728Y-68432D01*
X188788Y-68322D01*
X188858Y-68222D01*
X188908Y-68142D01*
X188968Y-68072D01*
X189018Y-68012D01*
X189058Y-67963D01*
X189088Y-67933D01*
X189108Y-67913D01*
X189118Y-67903D01*
X189247Y-67793D01*
X189377Y-67703D01*
X189527Y-67613D01*
X189667Y-67543D01*
X189816Y-67483D01*
X189966Y-67434D01*
X190256Y-67364D01*
X190385Y-67334D01*
X190505Y-67314D01*
X190625Y-67304D01*
X190715Y-67294D01*
X190795Y-67284D01*
X190905D01*
X191094Y-67294D01*
D02*
G37*
G36*
X196884Y-67414D02*
X196944Y-67543D01*
X197083Y-67773D01*
X197233Y-67983D01*
X197393Y-68172D01*
X197533Y-68312D01*
X197593Y-68382D01*
X197652Y-68432D01*
X197702Y-68472D01*
X197732Y-68502D01*
X197752Y-68512D01*
X197762Y-68522D01*
X198012Y-68701D01*
X198241Y-68851D01*
X198451Y-68981D01*
X198631Y-69071D01*
X198780Y-69141D01*
X198850Y-69170D01*
X198900Y-69190D01*
X198940Y-69210D01*
X198970Y-69220D01*
X198990Y-69230D01*
X199000D01*
Y-70568D01*
X198611Y-70418D01*
X198241Y-70238D01*
X198082Y-70149D01*
X197922Y-70059D01*
X197772Y-69969D01*
X197642Y-69879D01*
X197523Y-69789D01*
X197413Y-69719D01*
X197323Y-69640D01*
X197243Y-69580D01*
X197183Y-69530D01*
X197143Y-69490D01*
X197113Y-69470D01*
X197103Y-69460D01*
Y-75000D01*
X195636D01*
Y-67284D01*
X196834D01*
X196884Y-67414D01*
D02*
G37*
G36*
X-16983Y-142000D02*
X-19828D01*
Y-139172D01*
X-16983D01*
Y-142000D01*
D02*
G37*
G36*
X196884Y-16274D02*
X196944Y-16403D01*
X197083Y-16633D01*
X197233Y-16843D01*
X197393Y-17032D01*
X197533Y-17172D01*
X197593Y-17242D01*
X197652Y-17292D01*
X197702Y-17332D01*
X197732Y-17362D01*
X197752Y-17372D01*
X197762Y-17382D01*
X198012Y-17562D01*
X198241Y-17711D01*
X198451Y-17841D01*
X198631Y-17931D01*
X198780Y-18001D01*
X198850Y-18031D01*
X198900Y-18051D01*
X198940Y-18071D01*
X198970Y-18081D01*
X198990Y-18090D01*
X199000D01*
Y-19428D01*
X198611Y-19278D01*
X198241Y-19099D01*
X198082Y-19009D01*
X197922Y-18919D01*
X197772Y-18829D01*
X197642Y-18739D01*
X197523Y-18649D01*
X197413Y-18580D01*
X197323Y-18500D01*
X197243Y-18440D01*
X197183Y-18390D01*
X197143Y-18350D01*
X197113Y-18330D01*
X197103Y-18320D01*
Y-23860D01*
X195636D01*
Y-16144D01*
X196834D01*
X196884Y-16274D01*
D02*
G37*
G36*
X190865Y-16154D02*
X191074Y-16184D01*
X191284Y-16234D01*
X191474Y-16294D01*
X191653Y-16364D01*
X191813Y-16444D01*
X191973Y-16523D01*
X192102Y-16613D01*
X192232Y-16703D01*
X192342Y-16783D01*
X192432Y-16863D01*
X192512Y-16933D01*
X192572Y-16992D01*
X192611Y-17042D01*
X192641Y-17072D01*
X192651Y-17082D01*
X192791Y-17272D01*
X192911Y-17482D01*
X193011Y-17711D01*
X193101Y-17951D01*
X193180Y-18210D01*
X193240Y-18460D01*
X193290Y-18709D01*
X193330Y-18959D01*
X193360Y-19199D01*
X193390Y-19418D01*
X193410Y-19618D01*
X193420Y-19787D01*
Y-19937D01*
X193430Y-19997D01*
Y-20047D01*
Y-20087D01*
Y-20117D01*
Y-20127D01*
Y-20137D01*
X193420Y-20506D01*
X193400Y-20856D01*
X193360Y-21175D01*
X193310Y-21465D01*
X193260Y-21734D01*
X193200Y-21974D01*
X193130Y-22193D01*
X193061Y-22393D01*
X192991Y-22563D01*
X192921Y-22702D01*
X192861Y-22832D01*
X192811Y-22932D01*
X192761Y-23002D01*
X192721Y-23062D01*
X192701Y-23092D01*
X192691Y-23102D01*
X192542Y-23261D01*
X192392Y-23401D01*
X192232Y-23521D01*
X192072Y-23621D01*
X191913Y-23710D01*
X191753Y-23780D01*
X191603Y-23840D01*
X191453Y-23890D01*
X191314Y-23920D01*
X191184Y-23950D01*
X191064Y-23970D01*
X190964Y-23990D01*
X190884D01*
X190825Y-24000D01*
X190775D01*
X190575Y-23990D01*
X190385Y-23970D01*
X190216Y-23930D01*
X190046Y-23890D01*
X189886Y-23840D01*
X189746Y-23780D01*
X189607Y-23710D01*
X189487Y-23641D01*
X189377Y-23581D01*
X189277Y-23511D01*
X189198Y-23451D01*
X189128Y-23401D01*
X189078Y-23361D01*
X189038Y-23321D01*
X189018Y-23301D01*
X189008Y-23291D01*
X188888Y-23152D01*
X188778Y-23002D01*
X188688Y-22852D01*
X188599Y-22692D01*
X188539Y-22533D01*
X188479Y-22373D01*
X188429Y-22223D01*
X188399Y-22073D01*
X188369Y-21934D01*
X188349Y-21804D01*
X188329Y-21694D01*
X188319Y-21594D01*
X188309Y-21504D01*
Y-21445D01*
Y-21405D01*
Y-21395D01*
X188319Y-21185D01*
X188339Y-20995D01*
X188369Y-20816D01*
X188409Y-20636D01*
X188459Y-20476D01*
X188519Y-20327D01*
X188579Y-20187D01*
X188638Y-20067D01*
X188698Y-19957D01*
X188758Y-19857D01*
X188818Y-19777D01*
X188868Y-19708D01*
X188908Y-19648D01*
X188938Y-19608D01*
X188958Y-19588D01*
X188968Y-19578D01*
X189098Y-19448D01*
X189228Y-19348D01*
X189357Y-19248D01*
X189487Y-19169D01*
X189627Y-19099D01*
X189757Y-19039D01*
X189886Y-18999D01*
X190006Y-18959D01*
X190116Y-18929D01*
X190216Y-18909D01*
X190315Y-18889D01*
X190395Y-18879D01*
X190455Y-18869D01*
X190545D01*
X190695Y-18879D01*
X190835Y-18899D01*
X190974Y-18929D01*
X191104Y-18969D01*
X191334Y-19079D01*
X191533Y-19199D01*
X191623Y-19259D01*
X191693Y-19318D01*
X191763Y-19378D01*
X191813Y-19428D01*
X191853Y-19468D01*
X191883Y-19498D01*
X191903Y-19518D01*
X191913Y-19528D01*
X191893Y-19288D01*
X191873Y-19069D01*
X191843Y-18869D01*
X191813Y-18700D01*
X191783Y-18530D01*
X191753Y-18390D01*
X191713Y-18270D01*
X191683Y-18160D01*
X191653Y-18061D01*
X191623Y-17981D01*
X191593Y-17921D01*
X191563Y-17871D01*
X191543Y-17831D01*
X191523Y-17801D01*
X191513Y-17781D01*
X191384Y-17641D01*
X191254Y-17542D01*
X191114Y-17462D01*
X190994Y-17412D01*
X190884Y-17382D01*
X190805Y-17372D01*
X190745Y-17362D01*
X190725D01*
X190595Y-17372D01*
X190485Y-17392D01*
X190395Y-17432D01*
X190306Y-17462D01*
X190246Y-17502D01*
X190196Y-17542D01*
X190166Y-17562D01*
X190156Y-17572D01*
X190076Y-17661D01*
X190016Y-17761D01*
X189966Y-17861D01*
X189936Y-17971D01*
X189906Y-18061D01*
X189886Y-18140D01*
X189876Y-18190D01*
Y-18200D01*
Y-18210D01*
X188449Y-18061D01*
X188479Y-17891D01*
X188529Y-17731D01*
X188579Y-17581D01*
X188629Y-17452D01*
X188688Y-17322D01*
X188748Y-17202D01*
X188818Y-17102D01*
X188878Y-17003D01*
X188938Y-16923D01*
X188998Y-16843D01*
X189048Y-16783D01*
X189098Y-16733D01*
X189138Y-16693D01*
X189158Y-16663D01*
X189177Y-16653D01*
X189188Y-16643D01*
X189297Y-16553D01*
X189417Y-16473D01*
X189537Y-16414D01*
X189657Y-16354D01*
X189896Y-16264D01*
X190126Y-16204D01*
X190226Y-16184D01*
X190326Y-16174D01*
X190415Y-16154D01*
X190485D01*
X190545Y-16144D01*
X190635D01*
X190865Y-16154D01*
D02*
G37*
%LPC*%
G36*
X-196791Y-83640D02*
X-196861D01*
X-197020Y-83660D01*
X-197160Y-83700D01*
X-197280Y-83750D01*
X-197390Y-83820D01*
X-197480Y-83890D01*
X-197540Y-83939D01*
X-197579Y-83979D01*
X-197589Y-83999D01*
X-197689Y-84149D01*
X-197759Y-84319D01*
X-197819Y-84498D01*
X-197849Y-84678D01*
X-197869Y-84838D01*
X-197879Y-84918D01*
X-197889Y-84978D01*
Y-85028D01*
Y-85067D01*
Y-85087D01*
Y-85097D01*
X-197879Y-85347D01*
X-197849Y-85567D01*
X-197799Y-85746D01*
X-197749Y-85896D01*
X-197699Y-86006D01*
X-197649Y-86086D01*
X-197619Y-86125D01*
X-197609Y-86145D01*
X-197500Y-86255D01*
X-197390Y-86325D01*
X-197280Y-86385D01*
X-197170Y-86425D01*
X-197070Y-86445D01*
X-197001Y-86455D01*
X-196951Y-86465D01*
X-196931D01*
X-196781Y-86445D01*
X-196641Y-86405D01*
X-196511Y-86345D01*
X-196402Y-86265D01*
X-196312Y-86195D01*
X-196242Y-86136D01*
X-196202Y-86096D01*
X-196182Y-86076D01*
X-196072Y-85916D01*
X-195992Y-85736D01*
X-195932Y-85556D01*
X-195892Y-85377D01*
X-195872Y-85217D01*
X-195863Y-85147D01*
Y-85087D01*
X-195853Y-85037D01*
Y-84998D01*
Y-84978D01*
Y-84968D01*
X-195863Y-84738D01*
X-195902Y-84538D01*
X-195942Y-84369D01*
X-196002Y-84229D01*
X-196052Y-84119D01*
X-196102Y-84039D01*
X-196132Y-83999D01*
X-196142Y-83979D01*
X-196252Y-83870D01*
X-196382Y-83780D01*
X-196501Y-83720D01*
X-196611Y-83680D01*
X-196711Y-83660D01*
X-196791Y-83640D01*
D02*
G37*
G36*
X87972Y-14027D02*
X85527D01*
X85375Y-14041D01*
X85045D01*
X84977Y-14054D01*
X84812D01*
X84771Y-14068D01*
X84757D01*
X84578Y-14109D01*
X84413Y-14164D01*
X84276Y-14233D01*
X84152Y-14302D01*
X84070Y-14370D01*
X84001Y-14425D01*
X83960Y-14467D01*
X83946Y-14480D01*
X83850Y-14618D01*
X83781Y-14755D01*
X83726Y-14893D01*
X83699Y-15030D01*
X83671Y-15154D01*
X83658Y-15250D01*
Y-15319D01*
Y-15346D01*
X83671Y-15511D01*
X83685Y-15662D01*
X83726Y-15799D01*
X83768Y-15923D01*
X83809Y-16019D01*
X83836Y-16088D01*
X83864Y-16129D01*
X83877Y-16143D01*
X83960Y-16253D01*
X84070Y-16349D01*
X84166Y-16418D01*
X84262Y-16487D01*
X84345Y-16528D01*
X84413Y-16555D01*
X84468Y-16583D01*
X84482D01*
X84565Y-16610D01*
X84675Y-16624D01*
X84798Y-16638D01*
X84936Y-16652D01*
X85252Y-16679D01*
X85581Y-16693D01*
X85884D01*
X86021Y-16706D01*
X87972D01*
Y-14027D01*
D02*
G37*
G36*
X42062Y-13999D02*
X39919D01*
X39754Y-14013D01*
X39369D01*
X39273Y-14027D01*
X39094D01*
X39039Y-14041D01*
X39026D01*
X38833Y-14082D01*
X38668Y-14123D01*
X38531Y-14192D01*
X38421Y-14247D01*
X38325Y-14315D01*
X38270Y-14357D01*
X38229Y-14398D01*
X38215Y-14412D01*
X38119Y-14535D01*
X38050Y-14659D01*
X38009Y-14796D01*
X37968Y-14920D01*
X37954Y-15030D01*
X37940Y-15126D01*
Y-15181D01*
Y-15209D01*
X37954Y-15387D01*
X37995Y-15552D01*
X38036Y-15690D01*
X38091Y-15813D01*
X38160Y-15909D01*
X38201Y-15978D01*
X38242Y-16019D01*
X38256Y-16033D01*
X38380Y-16143D01*
X38531Y-16226D01*
X38668Y-16294D01*
X38806Y-16349D01*
X38929Y-16377D01*
X39026Y-16404D01*
X39094Y-16418D01*
X39190D01*
X39273Y-16432D01*
X39740D01*
X40015Y-16445D01*
X42062D01*
Y-13999D01*
D02*
G37*
G36*
Y-18204D02*
X39850D01*
X39630Y-18218D01*
X39438Y-18232D01*
X39259Y-18246D01*
X39108D01*
X38971Y-18259D01*
X38847Y-18273D01*
X38751Y-18287D01*
X38668Y-18300D01*
X38600Y-18314D01*
X38545Y-18328D01*
X38476Y-18342D01*
X38448Y-18355D01*
X38297Y-18424D01*
X38160Y-18493D01*
X38036Y-18575D01*
X37940Y-18658D01*
X37871Y-18726D01*
X37816Y-18795D01*
X37789Y-18836D01*
X37775Y-18850D01*
X37693Y-18974D01*
X37638Y-19111D01*
X37596Y-19249D01*
X37569Y-19372D01*
X37555Y-19482D01*
X37541Y-19565D01*
Y-19620D01*
Y-19647D01*
X37555Y-19853D01*
X37583Y-20032D01*
X37638Y-20183D01*
X37693Y-20307D01*
X37748Y-20417D01*
X37803Y-20485D01*
X37830Y-20540D01*
X37844Y-20554D01*
X37968Y-20664D01*
X38091Y-20760D01*
X38229Y-20829D01*
X38352Y-20884D01*
X38462Y-20925D01*
X38545Y-20952D01*
X38600Y-20966D01*
X38627D01*
X38696Y-20980D01*
X38778D01*
X38874Y-20994D01*
X38984D01*
X39218Y-21007D01*
X39465D01*
X39699Y-21021D01*
X42062D01*
Y-18204D01*
D02*
G37*
G36*
X31399Y-14027D02*
X28953D01*
X28802Y-14041D01*
X28472D01*
X28403Y-14054D01*
X28239D01*
X28197Y-14068D01*
X28184D01*
X28005Y-14109D01*
X27840Y-14164D01*
X27703Y-14233D01*
X27579Y-14302D01*
X27497Y-14370D01*
X27428Y-14425D01*
X27387Y-14467D01*
X27373Y-14480D01*
X27277Y-14618D01*
X27208Y-14755D01*
X27153Y-14893D01*
X27125Y-15030D01*
X27098Y-15154D01*
X27084Y-15250D01*
Y-15319D01*
Y-15346D01*
X27098Y-15511D01*
X27112Y-15662D01*
X27153Y-15799D01*
X27194Y-15923D01*
X27236Y-16019D01*
X27263Y-16088D01*
X27290Y-16129D01*
X27304Y-16143D01*
X27387Y-16253D01*
X27497Y-16349D01*
X27593Y-16418D01*
X27689Y-16487D01*
X27771Y-16528D01*
X27840Y-16555D01*
X27895Y-16583D01*
X27909D01*
X27991Y-16610D01*
X28101Y-16624D01*
X28225Y-16638D01*
X28362Y-16652D01*
X28678Y-16679D01*
X29008Y-16693D01*
X29310D01*
X29448Y-16706D01*
X31399D01*
Y-14027D01*
D02*
G37*
G36*
X8891Y-14700D02*
X7434Y-18616D01*
X10320D01*
X8891Y-14700D01*
D02*
G37*
G36*
X-57961Y-14027D02*
X-60407D01*
X-60558Y-14041D01*
X-60888D01*
X-60957Y-14054D01*
X-61122D01*
X-61163Y-14068D01*
X-61177D01*
X-61355Y-14109D01*
X-61520Y-14164D01*
X-61658Y-14233D01*
X-61781Y-14302D01*
X-61864Y-14370D01*
X-61933Y-14425D01*
X-61974Y-14467D01*
X-61988Y-14480D01*
X-62084Y-14618D01*
X-62152Y-14755D01*
X-62207Y-14893D01*
X-62235Y-15030D01*
X-62262Y-15154D01*
X-62276Y-15250D01*
Y-15319D01*
Y-15346D01*
X-62262Y-15511D01*
X-62249Y-15662D01*
X-62207Y-15799D01*
X-62166Y-15923D01*
X-62125Y-16019D01*
X-62097Y-16088D01*
X-62070Y-16129D01*
X-62056Y-16143D01*
X-61974Y-16253D01*
X-61864Y-16349D01*
X-61768Y-16418D01*
X-61671Y-16487D01*
X-61589Y-16528D01*
X-61520Y-16555D01*
X-61465Y-16583D01*
X-61452D01*
X-61369Y-16610D01*
X-61259Y-16624D01*
X-61136Y-16638D01*
X-60998Y-16652D01*
X-60682Y-16679D01*
X-60352Y-16693D01*
X-60050D01*
X-59913Y-16707D01*
X-57961D01*
Y-14027D01*
D02*
G37*
G36*
X-92397Y-13999D02*
X-94541D01*
X-94706Y-14013D01*
X-95091D01*
X-95187Y-14027D01*
X-95365D01*
X-95420Y-14041D01*
X-95434D01*
X-95626Y-14082D01*
X-95791Y-14123D01*
X-95929Y-14192D01*
X-96039Y-14247D01*
X-96135Y-14316D01*
X-96190Y-14357D01*
X-96231Y-14398D01*
X-96245Y-14412D01*
X-96341Y-14535D01*
X-96410Y-14659D01*
X-96451Y-14796D01*
X-96492Y-14920D01*
X-96506Y-15030D01*
X-96520Y-15126D01*
Y-15181D01*
Y-15209D01*
X-96506Y-15387D01*
X-96465Y-15552D01*
X-96423Y-15690D01*
X-96368Y-15813D01*
X-96300Y-15910D01*
X-96258Y-15978D01*
X-96217Y-16019D01*
X-96203Y-16033D01*
X-96080Y-16143D01*
X-95929Y-16226D01*
X-95791Y-16294D01*
X-95654Y-16349D01*
X-95530Y-16377D01*
X-95434Y-16404D01*
X-95365Y-16418D01*
X-95269D01*
X-95187Y-16432D01*
X-94719D01*
X-94445Y-16445D01*
X-92397D01*
Y-13999D01*
D02*
G37*
G36*
Y-18204D02*
X-94609D01*
X-94829Y-18218D01*
X-95022Y-18232D01*
X-95200Y-18246D01*
X-95352D01*
X-95489Y-18259D01*
X-95613Y-18273D01*
X-95709Y-18287D01*
X-95791Y-18300D01*
X-95860Y-18314D01*
X-95915Y-18328D01*
X-95984Y-18342D01*
X-96011Y-18355D01*
X-96162Y-18424D01*
X-96300Y-18493D01*
X-96423Y-18575D01*
X-96520Y-18658D01*
X-96588Y-18727D01*
X-96643Y-18795D01*
X-96671Y-18836D01*
X-96685Y-18850D01*
X-96767Y-18974D01*
X-96822Y-19111D01*
X-96863Y-19249D01*
X-96891Y-19372D01*
X-96904Y-19482D01*
X-96918Y-19565D01*
Y-19620D01*
Y-19647D01*
X-96904Y-19853D01*
X-96877Y-20032D01*
X-96822Y-20183D01*
X-96767Y-20307D01*
X-96712Y-20417D01*
X-96657Y-20485D01*
X-96629Y-20540D01*
X-96616Y-20554D01*
X-96492Y-20664D01*
X-96368Y-20760D01*
X-96231Y-20829D01*
X-96107Y-20884D01*
X-95997Y-20925D01*
X-95915Y-20953D01*
X-95860Y-20966D01*
X-95833D01*
X-95764Y-20980D01*
X-95681D01*
X-95585Y-20994D01*
X-95475D01*
X-95242Y-21007D01*
X-94994D01*
X-94761Y-21021D01*
X-92397D01*
Y-18204D01*
D02*
G37*
G36*
X74877Y-13876D02*
X74753D01*
X74506Y-13889D01*
X74286Y-13917D01*
X74066Y-13958D01*
X73860Y-14013D01*
X73681Y-14082D01*
X73503Y-14164D01*
X73338Y-14247D01*
X73200Y-14329D01*
X73077Y-14412D01*
X72953Y-14494D01*
X72857Y-14576D01*
X72788Y-14645D01*
X72719Y-14700D01*
X72678Y-14741D01*
X72651Y-14769D01*
X72637Y-14783D01*
X72500Y-14961D01*
X72376Y-15154D01*
X72266Y-15360D01*
X72170Y-15580D01*
X72101Y-15799D01*
X72032Y-16033D01*
X71936Y-16473D01*
X71909Y-16679D01*
X71881Y-16871D01*
X71867Y-17036D01*
X71854Y-17187D01*
X71840Y-17311D01*
Y-17407D01*
Y-17462D01*
Y-17490D01*
X71854Y-17819D01*
X71881Y-18135D01*
X71922Y-18424D01*
X71964Y-18699D01*
X72032Y-18946D01*
X72101Y-19166D01*
X72170Y-19372D01*
X72252Y-19565D01*
X72335Y-19716D01*
X72403Y-19867D01*
X72472Y-19977D01*
X72541Y-20073D01*
X72582Y-20155D01*
X72623Y-20210D01*
X72651Y-20238D01*
X72664Y-20252D01*
X72816Y-20417D01*
X72981Y-20554D01*
X73159Y-20678D01*
X73338Y-20788D01*
X73503Y-20870D01*
X73681Y-20952D01*
X74011Y-21063D01*
X74162Y-21090D01*
X74300Y-21117D01*
X74437Y-21145D01*
X74547Y-21159D01*
X74630Y-21172D01*
X74753D01*
X74987Y-21159D01*
X75207Y-21131D01*
X75427Y-21090D01*
X75619Y-21021D01*
X75811Y-20952D01*
X75976Y-20884D01*
X76141Y-20801D01*
X76279Y-20705D01*
X76416Y-20623D01*
X76526Y-20540D01*
X76622Y-20472D01*
X76705Y-20389D01*
X76773Y-20334D01*
X76814Y-20293D01*
X76842Y-20266D01*
X76856Y-20252D01*
X77007Y-20073D01*
X77130Y-19867D01*
X77240Y-19647D01*
X77337Y-19427D01*
X77405Y-19207D01*
X77474Y-18974D01*
X77570Y-18534D01*
X77611Y-18328D01*
X77639Y-18135D01*
X77653Y-17957D01*
X77666Y-17806D01*
X77680Y-17696D01*
Y-17600D01*
Y-17531D01*
Y-17517D01*
X77666Y-17187D01*
X77639Y-16871D01*
X77611Y-16583D01*
X77557Y-16322D01*
X77502Y-16074D01*
X77433Y-15855D01*
X77350Y-15648D01*
X77282Y-15470D01*
X77213Y-15305D01*
X77130Y-15167D01*
X77062Y-15044D01*
X77007Y-14948D01*
X76952Y-14879D01*
X76911Y-14824D01*
X76897Y-14796D01*
X76883Y-14783D01*
X76732Y-14618D01*
X76553Y-14480D01*
X76388Y-14357D01*
X76210Y-14260D01*
X76031Y-14164D01*
X75852Y-14096D01*
X75509Y-13986D01*
X75358Y-13944D01*
X75207Y-13917D01*
X75083Y-13903D01*
X74973Y-13889D01*
X74877Y-13876D01*
D02*
G37*
G36*
X-12862Y-13876D02*
X-12986D01*
X-13233Y-13889D01*
X-13453Y-13917D01*
X-13673Y-13958D01*
X-13879Y-14013D01*
X-14058Y-14082D01*
X-14236Y-14164D01*
X-14401Y-14247D01*
X-14538Y-14329D01*
X-14662Y-14412D01*
X-14786Y-14494D01*
X-14882Y-14577D01*
X-14951Y-14645D01*
X-15019Y-14700D01*
X-15061Y-14741D01*
X-15088Y-14769D01*
X-15102Y-14783D01*
X-15239Y-14961D01*
X-15363Y-15154D01*
X-15473Y-15360D01*
X-15569Y-15580D01*
X-15638Y-15799D01*
X-15706Y-16033D01*
X-15803Y-16473D01*
X-15830Y-16679D01*
X-15858Y-16871D01*
X-15871Y-17036D01*
X-15885Y-17187D01*
X-15899Y-17311D01*
Y-17407D01*
Y-17462D01*
Y-17490D01*
X-15885Y-17819D01*
X-15858Y-18136D01*
X-15816Y-18424D01*
X-15775Y-18699D01*
X-15706Y-18946D01*
X-15638Y-19166D01*
X-15569Y-19372D01*
X-15487Y-19565D01*
X-15404Y-19716D01*
X-15335Y-19867D01*
X-15267Y-19977D01*
X-15198Y-20073D01*
X-15157Y-20156D01*
X-15115Y-20210D01*
X-15088Y-20238D01*
X-15074Y-20252D01*
X-14923Y-20417D01*
X-14758Y-20554D01*
X-14580Y-20678D01*
X-14401Y-20788D01*
X-14236Y-20870D01*
X-14058Y-20953D01*
X-13728Y-21063D01*
X-13577Y-21090D01*
X-13439Y-21117D01*
X-13302Y-21145D01*
X-13192Y-21159D01*
X-13109Y-21172D01*
X-12986D01*
X-12752Y-21159D01*
X-12532Y-21131D01*
X-12312Y-21090D01*
X-12120Y-21021D01*
X-11927Y-20953D01*
X-11763Y-20884D01*
X-11598Y-20801D01*
X-11460Y-20705D01*
X-11323Y-20623D01*
X-11213Y-20540D01*
X-11117Y-20472D01*
X-11034Y-20389D01*
X-10966Y-20334D01*
X-10924Y-20293D01*
X-10897Y-20266D01*
X-10883Y-20252D01*
X-10732Y-20073D01*
X-10608Y-19867D01*
X-10498Y-19647D01*
X-10402Y-19427D01*
X-10333Y-19207D01*
X-10265Y-18974D01*
X-10169Y-18534D01*
X-10127Y-18328D01*
X-10100Y-18136D01*
X-10086Y-17957D01*
X-10072Y-17806D01*
X-10059Y-17696D01*
Y-17600D01*
Y-17531D01*
Y-17517D01*
X-10072Y-17187D01*
X-10100Y-16871D01*
X-10127Y-16583D01*
X-10182Y-16322D01*
X-10237Y-16074D01*
X-10306Y-15855D01*
X-10388Y-15648D01*
X-10457Y-15470D01*
X-10526Y-15305D01*
X-10608Y-15167D01*
X-10677Y-15044D01*
X-10732Y-14948D01*
X-10787Y-14879D01*
X-10828Y-14824D01*
X-10842Y-14796D01*
X-10856Y-14783D01*
X-11007Y-14618D01*
X-11185Y-14480D01*
X-11350Y-14357D01*
X-11529Y-14260D01*
X-11708Y-14164D01*
X-11886Y-14096D01*
X-12230Y-13986D01*
X-12381Y-13944D01*
X-12532Y-13917D01*
X-12656Y-13903D01*
X-12766Y-13889D01*
X-12862Y-13876D01*
D02*
G37*
G36*
X16715Y-136428D02*
X12941D01*
X12930Y-136439D01*
X12918Y-136450D01*
X12907Y-136461D01*
X12896Y-136483D01*
Y-136495D01*
Y-136506D01*
Y-140124D01*
X12907Y-140169D01*
X12918Y-140180D01*
X12930Y-140191D01*
X16692D01*
X16737Y-140180D01*
X16748D01*
X16770Y-140146D01*
Y-140124D01*
Y-136506D01*
Y-136472D01*
X16759Y-136461D01*
X16748Y-136450D01*
X16715Y-136428D01*
D02*
G37*
G36*
X8234D02*
X4460D01*
X4449Y-136439D01*
X4438Y-136450D01*
X4427Y-136461D01*
X4416Y-136483D01*
Y-136495D01*
Y-136506D01*
Y-140124D01*
X4427Y-140169D01*
X4438Y-140180D01*
X4449Y-140191D01*
X8212D01*
X8256Y-140180D01*
X8268D01*
X8290Y-140146D01*
Y-140124D01*
Y-136506D01*
Y-136472D01*
X8279Y-136461D01*
X8268Y-136450D01*
X8234Y-136428D01*
D02*
G37*
G36*
X-268D02*
X-4042D01*
X-4053Y-136439D01*
X-4064Y-136450D01*
X-4075Y-136461D01*
X-4087Y-136483D01*
Y-136495D01*
Y-136506D01*
Y-140124D01*
X-4075Y-140169D01*
X-4064Y-140180D01*
X-4053Y-140191D01*
X-290D01*
X-246Y-140180D01*
X-235D01*
X-213Y-140146D01*
Y-140124D01*
Y-136506D01*
Y-136472D01*
X-224Y-136461D01*
X-235Y-136450D01*
X-268Y-136428D01*
D02*
G37*
G36*
X-9115D02*
X-12889D01*
X-12900Y-136439D01*
X-12911Y-136450D01*
X-12922Y-136461D01*
X-12933Y-136483D01*
Y-136495D01*
Y-136506D01*
Y-140124D01*
X-12922Y-140169D01*
X-12911Y-140180D01*
X-12900Y-140191D01*
X-9137D01*
X-9093Y-140180D01*
X-9081D01*
X-9059Y-140146D01*
Y-140124D01*
Y-136506D01*
Y-136472D01*
X-9070Y-136461D01*
X-9081Y-136450D01*
X-9115Y-136428D01*
D02*
G37*
G36*
X-197340Y-57242D02*
Y-59848D01*
X-195583D01*
X-197340Y-57242D01*
D02*
G37*
G36*
X196684Y-107362D02*
X196614D01*
X196455Y-107382D01*
X196315Y-107422D01*
X196185Y-107492D01*
X196075Y-107562D01*
X195985Y-107631D01*
X195916Y-107701D01*
X195866Y-107741D01*
X195856Y-107761D01*
X195746Y-107921D01*
X195666Y-108101D01*
X195606Y-108290D01*
X195566Y-108460D01*
X195546Y-108620D01*
X195536Y-108689D01*
X195526Y-108749D01*
Y-108799D01*
Y-108839D01*
Y-108859D01*
Y-108869D01*
X195536Y-109099D01*
X195576Y-109298D01*
X195616Y-109478D01*
X195676Y-109618D01*
X195726Y-109728D01*
X195776Y-109808D01*
X195816Y-109847D01*
X195826Y-109867D01*
X195935Y-109977D01*
X196055Y-110057D01*
X196175Y-110117D01*
X196285Y-110157D01*
X196385Y-110177D01*
X196465Y-110187D01*
X196514Y-110197D01*
X196534D01*
X196694Y-110177D01*
X196834Y-110137D01*
X196954Y-110087D01*
X197064Y-110017D01*
X197143Y-109957D01*
X197213Y-109897D01*
X197253Y-109857D01*
X197263Y-109847D01*
X197363Y-109698D01*
X197433Y-109528D01*
X197483Y-109348D01*
X197513Y-109169D01*
X197533Y-109009D01*
X197543Y-108929D01*
X197553Y-108869D01*
Y-108819D01*
Y-108779D01*
Y-108759D01*
Y-108749D01*
X197543Y-108490D01*
X197513Y-108270D01*
X197473Y-108090D01*
X197423Y-107941D01*
X197373Y-107831D01*
X197333Y-107751D01*
X197303Y-107701D01*
X197293Y-107691D01*
X197183Y-107581D01*
X197073Y-107502D01*
X196964Y-107442D01*
X196854Y-107402D01*
X196754Y-107382D01*
X196684Y-107362D01*
D02*
G37*
G36*
X-26728Y-136428D02*
X-30503D01*
X-30514Y-136439D01*
X-30525Y-136450D01*
X-30536Y-136461D01*
X-30547Y-136483D01*
Y-136495D01*
Y-136506D01*
Y-140124D01*
X-30536Y-140169D01*
X-30525Y-140180D01*
X-30514Y-140191D01*
X-26751D01*
X-26706Y-140180D01*
X-26695D01*
X-26673Y-140146D01*
Y-140124D01*
Y-136506D01*
Y-136472D01*
X-26684Y-136461D01*
X-26695Y-136450D01*
X-26728Y-136428D01*
D02*
G37*
G36*
X-196436Y-107312D02*
X-196506D01*
X-196655Y-107322D01*
X-196785Y-107352D01*
X-196895Y-107392D01*
X-196985Y-107432D01*
X-197064Y-107482D01*
X-197114Y-107522D01*
X-197154Y-107551D01*
X-197164Y-107562D01*
X-197254Y-107661D01*
X-197314Y-107771D01*
X-197364Y-107881D01*
X-197394Y-107991D01*
X-197414Y-108081D01*
X-197424Y-108160D01*
Y-108210D01*
Y-108230D01*
X-197414Y-108390D01*
X-197384Y-108520D01*
X-197344Y-108640D01*
X-197294Y-108739D01*
X-197244Y-108819D01*
X-197204Y-108869D01*
X-197174Y-108909D01*
X-197164Y-108919D01*
X-197064Y-108999D01*
X-196955Y-109059D01*
X-196845Y-109099D01*
X-196735Y-109129D01*
X-196635Y-109149D01*
X-196555Y-109159D01*
X-196486D01*
X-196336Y-109149D01*
X-196206Y-109119D01*
X-196096Y-109079D01*
X-196006Y-109039D01*
X-195926Y-108999D01*
X-195877Y-108959D01*
X-195837Y-108929D01*
X-195827Y-108919D01*
X-195747Y-108819D01*
X-195687Y-108709D01*
X-195637Y-108590D01*
X-195607Y-108480D01*
X-195587Y-108380D01*
X-195577Y-108300D01*
Y-108250D01*
Y-108230D01*
X-195587Y-108081D01*
X-195617Y-107951D01*
X-195657Y-107841D01*
X-195707Y-107751D01*
X-195747Y-107671D01*
X-195787Y-107621D01*
X-195817Y-107581D01*
X-195827Y-107571D01*
X-195926Y-107482D01*
X-196036Y-107422D01*
X-196156Y-107372D01*
X-196256Y-107342D01*
X-196356Y-107322D01*
X-196436Y-107312D01*
D02*
G37*
G36*
X-196466Y-110327D02*
X-196516D01*
X-196685Y-110337D01*
X-196835Y-110377D01*
X-196965Y-110436D01*
X-197075Y-110496D01*
X-197164Y-110556D01*
X-197234Y-110616D01*
X-197274Y-110656D01*
X-197284Y-110666D01*
X-197384Y-110796D01*
X-197464Y-110935D01*
X-197514Y-111085D01*
X-197554Y-111225D01*
X-197574Y-111345D01*
X-197594Y-111445D01*
Y-111484D01*
Y-111514D01*
Y-111524D01*
Y-111534D01*
X-197584Y-111754D01*
X-197544Y-111944D01*
X-197504Y-112103D01*
X-197444Y-112243D01*
X-197394Y-112343D01*
X-197344Y-112423D01*
X-197304Y-112463D01*
X-197294Y-112483D01*
X-197174Y-112592D01*
X-197055Y-112672D01*
X-196925Y-112732D01*
X-196805Y-112772D01*
X-196695Y-112792D01*
X-196615Y-112802D01*
X-196555Y-112812D01*
X-196535D01*
X-196366Y-112802D01*
X-196216Y-112762D01*
X-196086Y-112702D01*
X-195966Y-112642D01*
X-195877Y-112583D01*
X-195817Y-112523D01*
X-195767Y-112483D01*
X-195757Y-112473D01*
X-195657Y-112333D01*
X-195577Y-112183D01*
X-195527Y-112023D01*
X-195487Y-111864D01*
X-195467Y-111724D01*
X-195457Y-111614D01*
X-195447Y-111574D01*
Y-111544D01*
Y-111524D01*
Y-111514D01*
X-195457Y-111355D01*
X-195487Y-111205D01*
X-195527Y-111065D01*
X-195577Y-110945D01*
X-195627Y-110846D01*
X-195667Y-110776D01*
X-195697Y-110726D01*
X-195707Y-110706D01*
X-195817Y-110576D01*
X-195947Y-110486D01*
X-196086Y-110416D01*
X-196216Y-110377D01*
X-196336Y-110346D01*
X-196426Y-110337D01*
X-196466Y-110327D01*
D02*
G37*
G36*
X191004Y-94362D02*
X190954D01*
X190855Y-94372D01*
X190765Y-94392D01*
X190685Y-94422D01*
X190615Y-94452D01*
X190565Y-94482D01*
X190525Y-94512D01*
X190495Y-94531D01*
X190485Y-94542D01*
X190405Y-94621D01*
X190345Y-94721D01*
X190286Y-94831D01*
X190236Y-94941D01*
X190196Y-95051D01*
X190156Y-95140D01*
X190146Y-95200D01*
X190136Y-95210D01*
Y-95220D01*
X190116Y-95320D01*
X190086Y-95440D01*
X190066Y-95580D01*
X190056Y-95719D01*
X190026Y-96029D01*
X190016Y-96338D01*
X190006Y-96478D01*
Y-96618D01*
X189996Y-96748D01*
Y-96857D01*
Y-96947D01*
Y-97017D01*
Y-97057D01*
Y-97077D01*
Y-97327D01*
X190006Y-97546D01*
Y-97756D01*
X190016Y-97945D01*
X190036Y-98125D01*
X190046Y-98285D01*
X190056Y-98425D01*
X190076Y-98544D01*
X190086Y-98654D01*
X190106Y-98754D01*
X190116Y-98834D01*
X190126Y-98894D01*
X190136Y-98944D01*
X190146Y-98974D01*
X190156Y-98994D01*
Y-99004D01*
X190206Y-99153D01*
X190256Y-99283D01*
X190306Y-99393D01*
X190355Y-99473D01*
X190405Y-99533D01*
X190445Y-99583D01*
X190465Y-99602D01*
X190475Y-99613D01*
X190555Y-99672D01*
X190635Y-99712D01*
X190715Y-99742D01*
X190795Y-99762D01*
X190855Y-99772D01*
X190905Y-99782D01*
X190954D01*
X191054Y-99772D01*
X191144Y-99752D01*
X191224Y-99732D01*
X191294Y-99702D01*
X191354Y-99672D01*
X191394Y-99642D01*
X191423Y-99632D01*
X191434Y-99622D01*
X191503Y-99543D01*
X191573Y-99443D01*
X191633Y-99333D01*
X191673Y-99223D01*
X191713Y-99113D01*
X191743Y-99024D01*
X191763Y-98964D01*
X191773Y-98954D01*
Y-98944D01*
X191793Y-98834D01*
X191813Y-98714D01*
X191833Y-98584D01*
X191843Y-98435D01*
X191873Y-98125D01*
X191883Y-97816D01*
X191893Y-97676D01*
Y-97536D01*
X191903Y-97406D01*
Y-97297D01*
Y-97207D01*
Y-97137D01*
Y-97097D01*
Y-97077D01*
Y-96827D01*
X191893Y-96608D01*
Y-96398D01*
X191883Y-96199D01*
X191863Y-96029D01*
X191853Y-95869D01*
X191843Y-95729D01*
X191823Y-95600D01*
X191813Y-95500D01*
X191803Y-95400D01*
X191783Y-95320D01*
X191773Y-95260D01*
X191763Y-95210D01*
Y-95180D01*
X191753Y-95160D01*
Y-95150D01*
X191703Y-95001D01*
X191653Y-94871D01*
X191603Y-94761D01*
X191553Y-94681D01*
X191503Y-94621D01*
X191464Y-94572D01*
X191444Y-94551D01*
X191434Y-94542D01*
X191354Y-94482D01*
X191274Y-94442D01*
X191194Y-94402D01*
X191114Y-94382D01*
X191054Y-94372D01*
X191004Y-94362D01*
D02*
G37*
G36*
X190555Y-44560D02*
Y-47165D01*
X192312D01*
X190555Y-44560D01*
D02*
G37*
G36*
X-130282Y-81110D02*
X-131397D01*
X-131548Y-81121D01*
X-131689D01*
X-131819Y-81131D01*
X-131927D01*
X-132024Y-81142D01*
X-132111Y-81153D01*
X-132187Y-81164D01*
X-132252D01*
X-132306Y-81175D01*
X-132349Y-81185D01*
X-132392Y-81196D01*
X-132414D01*
X-132587Y-81240D01*
X-132739Y-81294D01*
X-132868Y-81358D01*
X-132987Y-81423D01*
X-133074Y-81488D01*
X-133139Y-81543D01*
X-133182Y-81575D01*
X-133193Y-81586D01*
X-133301Y-81705D01*
X-133399Y-81835D01*
X-133485Y-81975D01*
X-133550Y-82105D01*
X-133604Y-82213D01*
X-133647Y-82311D01*
X-133669Y-82376D01*
X-133680Y-82386D01*
Y-82397D01*
X-133734Y-82603D01*
X-133777Y-82841D01*
X-133810Y-83090D01*
X-133832Y-83328D01*
X-133842Y-83533D01*
X-133853Y-83631D01*
Y-83707D01*
Y-83771D01*
Y-83826D01*
Y-83858D01*
Y-83869D01*
X-133842Y-84215D01*
X-133832Y-84518D01*
X-133799Y-84778D01*
X-133788Y-84886D01*
X-133767Y-84994D01*
X-133756Y-85081D01*
X-133734Y-85167D01*
X-133723Y-85232D01*
X-133713Y-85286D01*
X-133702Y-85340D01*
X-133691Y-85373D01*
X-133680Y-85384D01*
Y-85394D01*
X-133615Y-85589D01*
X-133539Y-85762D01*
X-133464Y-85903D01*
X-133399Y-86011D01*
X-133334Y-86098D01*
X-133280Y-86163D01*
X-133247Y-86195D01*
X-133236Y-86206D01*
X-133128Y-86293D01*
X-133020Y-86357D01*
X-132901Y-86412D01*
X-132793Y-86466D01*
X-132695Y-86498D01*
X-132620Y-86520D01*
X-132576Y-86542D01*
X-132555D01*
X-132425Y-86563D01*
X-132262Y-86585D01*
X-132100Y-86596D01*
X-131927Y-86606D01*
X-131776Y-86617D01*
X-130282D01*
Y-81110D01*
D02*
G37*
G36*
X-138679D02*
X-139794D01*
X-139945Y-81121D01*
X-140086D01*
X-140216Y-81131D01*
X-140324D01*
X-140421Y-81142D01*
X-140508Y-81153D01*
X-140583Y-81164D01*
X-140648D01*
X-140702Y-81175D01*
X-140746Y-81185D01*
X-140789Y-81196D01*
X-140811D01*
X-140984Y-81240D01*
X-141135Y-81294D01*
X-141265Y-81358D01*
X-141384Y-81423D01*
X-141471Y-81488D01*
X-141536Y-81543D01*
X-141579Y-81575D01*
X-141590Y-81586D01*
X-141698Y-81705D01*
X-141795Y-81835D01*
X-141882Y-81975D01*
X-141947Y-82105D01*
X-142001Y-82213D01*
X-142044Y-82311D01*
X-142066Y-82376D01*
X-142077Y-82386D01*
Y-82397D01*
X-142131Y-82603D01*
X-142174Y-82841D01*
X-142206Y-83090D01*
X-142228Y-83328D01*
X-142239Y-83533D01*
X-142250Y-83631D01*
Y-83707D01*
Y-83771D01*
Y-83826D01*
Y-83858D01*
Y-83869D01*
X-142239Y-84215D01*
X-142228Y-84518D01*
X-142196Y-84778D01*
X-142185Y-84886D01*
X-142163Y-84994D01*
X-142152Y-85081D01*
X-142131Y-85167D01*
X-142120Y-85232D01*
X-142109Y-85286D01*
X-142098Y-85340D01*
X-142087Y-85373D01*
X-142077Y-85384D01*
Y-85394D01*
X-142012Y-85589D01*
X-141936Y-85762D01*
X-141860Y-85903D01*
X-141795Y-86011D01*
X-141730Y-86098D01*
X-141676Y-86163D01*
X-141644Y-86195D01*
X-141633Y-86206D01*
X-141525Y-86293D01*
X-141417Y-86357D01*
X-141298Y-86412D01*
X-141189Y-86466D01*
X-141092Y-86498D01*
X-141016Y-86520D01*
X-140973Y-86542D01*
X-140951D01*
X-140822Y-86563D01*
X-140659Y-86585D01*
X-140497Y-86596D01*
X-140324Y-86606D01*
X-140172Y-86617D01*
X-138679D01*
Y-81110D01*
D02*
G37*
G36*
X-155645Y-91820D02*
X-156792Y-94903D01*
X-154520D01*
X-155645Y-91820D01*
D02*
G37*
G36*
X-131408Y-91160D02*
X-131462D01*
X-131570Y-91171D01*
X-131667Y-91192D01*
X-131754Y-91225D01*
X-131830Y-91257D01*
X-131884Y-91290D01*
X-131927Y-91322D01*
X-131960Y-91344D01*
X-131970Y-91354D01*
X-132057Y-91441D01*
X-132122Y-91549D01*
X-132187Y-91668D01*
X-132241Y-91787D01*
X-132284Y-91906D01*
X-132327Y-92004D01*
X-132338Y-92069D01*
X-132349Y-92079D01*
Y-92090D01*
X-132371Y-92198D01*
X-132403Y-92328D01*
X-132425Y-92480D01*
X-132436Y-92631D01*
X-132468Y-92967D01*
X-132479Y-93302D01*
X-132490Y-93454D01*
Y-93605D01*
X-132501Y-93746D01*
Y-93865D01*
Y-93962D01*
Y-94038D01*
Y-94081D01*
Y-94103D01*
Y-94373D01*
X-132490Y-94611D01*
Y-94839D01*
X-132479Y-95044D01*
X-132457Y-95239D01*
X-132446Y-95412D01*
X-132436Y-95563D01*
X-132414Y-95693D01*
X-132403Y-95812D01*
X-132381Y-95921D01*
X-132371Y-96007D01*
X-132360Y-96072D01*
X-132349Y-96126D01*
X-132338Y-96159D01*
X-132327Y-96180D01*
Y-96191D01*
X-132273Y-96353D01*
X-132219Y-96494D01*
X-132165Y-96613D01*
X-132111Y-96700D01*
X-132057Y-96765D01*
X-132014Y-96819D01*
X-131992Y-96840D01*
X-131981Y-96851D01*
X-131895Y-96916D01*
X-131808Y-96959D01*
X-131721Y-96992D01*
X-131635Y-97014D01*
X-131570Y-97024D01*
X-131516Y-97035D01*
X-131462D01*
X-131354Y-97024D01*
X-131256Y-97003D01*
X-131170Y-96981D01*
X-131094Y-96948D01*
X-131029Y-96916D01*
X-130986Y-96884D01*
X-130953Y-96873D01*
X-130942Y-96862D01*
X-130867Y-96775D01*
X-130791Y-96667D01*
X-130726Y-96548D01*
X-130683Y-96429D01*
X-130639Y-96310D01*
X-130607Y-96213D01*
X-130585Y-96148D01*
X-130575Y-96137D01*
Y-96126D01*
X-130553Y-96007D01*
X-130531Y-95877D01*
X-130510Y-95737D01*
X-130499Y-95574D01*
X-130466Y-95239D01*
X-130456Y-94903D01*
X-130445Y-94752D01*
Y-94600D01*
X-130434Y-94460D01*
Y-94341D01*
Y-94243D01*
Y-94168D01*
Y-94124D01*
Y-94103D01*
Y-93832D01*
X-130445Y-93594D01*
Y-93367D01*
X-130456Y-93151D01*
X-130477Y-92967D01*
X-130488Y-92794D01*
X-130499Y-92642D01*
X-130520Y-92501D01*
X-130531Y-92393D01*
X-130542Y-92285D01*
X-130564Y-92198D01*
X-130575Y-92134D01*
X-130585Y-92079D01*
Y-92047D01*
X-130596Y-92025D01*
Y-92014D01*
X-130650Y-91852D01*
X-130704Y-91712D01*
X-130758Y-91593D01*
X-130813Y-91506D01*
X-130867Y-91441D01*
X-130910Y-91387D01*
X-130932Y-91365D01*
X-130942Y-91354D01*
X-131029Y-91290D01*
X-131116Y-91246D01*
X-131202Y-91203D01*
X-131289Y-91181D01*
X-131354Y-91171D01*
X-131408Y-91160D01*
D02*
G37*
G36*
X-137867D02*
X-137922D01*
X-138030Y-91171D01*
X-138127Y-91192D01*
X-138214Y-91225D01*
X-138289Y-91257D01*
X-138344Y-91290D01*
X-138387Y-91322D01*
X-138419Y-91344D01*
X-138430Y-91354D01*
X-138517Y-91441D01*
X-138582Y-91549D01*
X-138647Y-91668D01*
X-138701Y-91787D01*
X-138744Y-91906D01*
X-138787Y-92004D01*
X-138798Y-92069D01*
X-138809Y-92079D01*
Y-92090D01*
X-138830Y-92198D01*
X-138863Y-92328D01*
X-138885Y-92480D01*
X-138895Y-92631D01*
X-138928Y-92967D01*
X-138939Y-93302D01*
X-138949Y-93454D01*
Y-93605D01*
X-138960Y-93746D01*
Y-93865D01*
Y-93962D01*
Y-94038D01*
Y-94081D01*
Y-94103D01*
Y-94373D01*
X-138949Y-94611D01*
Y-94839D01*
X-138939Y-95044D01*
X-138917Y-95239D01*
X-138906Y-95412D01*
X-138895Y-95563D01*
X-138874Y-95693D01*
X-138863Y-95812D01*
X-138841Y-95921D01*
X-138830Y-96007D01*
X-138820Y-96072D01*
X-138809Y-96126D01*
X-138798Y-96159D01*
X-138787Y-96180D01*
Y-96191D01*
X-138733Y-96353D01*
X-138679Y-96494D01*
X-138625Y-96613D01*
X-138571Y-96700D01*
X-138517Y-96765D01*
X-138473Y-96819D01*
X-138452Y-96840D01*
X-138441Y-96851D01*
X-138354Y-96916D01*
X-138268Y-96959D01*
X-138181Y-96992D01*
X-138095Y-97014D01*
X-138030Y-97024D01*
X-137976Y-97035D01*
X-137922D01*
X-137813Y-97024D01*
X-137716Y-97003D01*
X-137629Y-96981D01*
X-137554Y-96948D01*
X-137489Y-96916D01*
X-137445Y-96884D01*
X-137413Y-96873D01*
X-137402Y-96862D01*
X-137326Y-96775D01*
X-137251Y-96667D01*
X-137186Y-96548D01*
X-137142Y-96429D01*
X-137099Y-96310D01*
X-137067Y-96213D01*
X-137045Y-96148D01*
X-137034Y-96137D01*
Y-96126D01*
X-137013Y-96007D01*
X-136991Y-95877D01*
X-136969Y-95737D01*
X-136959Y-95574D01*
X-136926Y-95239D01*
X-136915Y-94903D01*
X-136904Y-94752D01*
Y-94600D01*
X-136894Y-94460D01*
Y-94341D01*
Y-94243D01*
Y-94168D01*
Y-94124D01*
Y-94103D01*
Y-93832D01*
X-136904Y-93594D01*
Y-93367D01*
X-136915Y-93151D01*
X-136937Y-92967D01*
X-136948Y-92794D01*
X-136959Y-92642D01*
X-136980Y-92501D01*
X-136991Y-92393D01*
X-137002Y-92285D01*
X-137023Y-92198D01*
X-137034Y-92134D01*
X-137045Y-92079D01*
Y-92047D01*
X-137056Y-92025D01*
Y-92014D01*
X-137110Y-91852D01*
X-137164Y-91712D01*
X-137218Y-91593D01*
X-137272Y-91506D01*
X-137326Y-91441D01*
X-137370Y-91387D01*
X-137391Y-91365D01*
X-137402Y-91354D01*
X-137489Y-91290D01*
X-137575Y-91246D01*
X-137662Y-91203D01*
X-137748Y-91181D01*
X-137813Y-91171D01*
X-137867Y-91160D01*
D02*
G37*
G36*
X-141482Y-101956D02*
X-142628Y-105040D01*
X-140356D01*
X-141482Y-101956D01*
D02*
G37*
G36*
X190845Y-19957D02*
X190775D01*
X190615Y-19977D01*
X190475Y-20017D01*
X190355Y-20067D01*
X190246Y-20137D01*
X190156Y-20207D01*
X190096Y-20257D01*
X190056Y-20297D01*
X190046Y-20317D01*
X189946Y-20466D01*
X189876Y-20636D01*
X189816Y-20816D01*
X189786Y-20995D01*
X189767Y-21155D01*
X189757Y-21235D01*
X189746Y-21295D01*
Y-21345D01*
Y-21385D01*
Y-21405D01*
Y-21415D01*
X189757Y-21664D01*
X189786Y-21884D01*
X189836Y-22064D01*
X189886Y-22213D01*
X189936Y-22323D01*
X189986Y-22403D01*
X190016Y-22443D01*
X190026Y-22463D01*
X190136Y-22573D01*
X190246Y-22642D01*
X190355Y-22702D01*
X190465Y-22742D01*
X190565Y-22762D01*
X190635Y-22772D01*
X190685Y-22782D01*
X190705D01*
X190855Y-22762D01*
X190994Y-22722D01*
X191124Y-22662D01*
X191234Y-22582D01*
X191324Y-22513D01*
X191394Y-22453D01*
X191434Y-22413D01*
X191453Y-22393D01*
X191563Y-22233D01*
X191643Y-22053D01*
X191703Y-21874D01*
X191743Y-21694D01*
X191763Y-21534D01*
X191773Y-21465D01*
Y-21405D01*
X191783Y-21355D01*
Y-21315D01*
Y-21295D01*
Y-21285D01*
X191773Y-21055D01*
X191733Y-20856D01*
X191693Y-20686D01*
X191633Y-20546D01*
X191583Y-20436D01*
X191533Y-20357D01*
X191503Y-20317D01*
X191493Y-20297D01*
X191384Y-20187D01*
X191254Y-20097D01*
X191134Y-20037D01*
X191024Y-19997D01*
X190924Y-19977D01*
X190845Y-19957D01*
D02*
G37*
%LPD*%
D10*
X-106000Y-93000D02*
X-102000Y-89000D01*
X-106000Y-85000D02*
X-102000Y-89000D01*
X-120000D02*
X-102000D01*
X212000Y-5001D02*
X213999D01*
X212999D01*
Y-9999D01*
X213999Y-10999D01*
X214999D01*
X215998Y-9999D01*
X206002Y-10999D02*
X210000D01*
X206002Y-7000D01*
Y-6001D01*
X207001Y-5001D01*
X209001D01*
X210000Y-6001D01*
X-210000Y-5001D02*
X-208001D01*
X-209000D01*
Y-9999D01*
X-208001Y-10999D01*
X-207001D01*
X-206001Y-9999D01*
X-211999Y-10999D02*
X-213999D01*
X-212999D01*
Y-5001D01*
X-211999Y-6001D01*
D32*
X-218200Y-117500D02*
Y-13500D01*
Y-117500D02*
X-201800D01*
Y-13500D01*
X-218200D02*
X-201800D01*
X201800Y-117500D02*
X218200D01*
X201800D02*
Y-13500D01*
X218200D01*
Y-117500D02*
Y-13500D01*
M02*
