G04*
G04 #@! TF.GenerationSoftware,Altium Limited,Altium Designer,25.8.1 (18)*
G04*
G04 Layer_Color=255*
%FSLAX44Y44*%
%MOMM*%
G71*
G04*
G04 #@! TF.SameCoordinates,EE5D2AC8-0814-4AB7-85DC-423FF69BB6BB*
G04*
G04*
G04 #@! TF.FilePolarity,Positive*
G04*
G01*
G75*
%ADD21C,0.2000*%
%ADD25R,1.5000X1.5000*%
%ADD26C,1.5000*%
%ADD27C,1.8000*%
%ADD28C,0.9000*%
%ADD29C,2.5000*%
%ADD30R,0.9000X0.9000*%
D21*
X-173000Y-65248D02*
D03*
Y-59000D02*
D03*
D25*
X-88900Y-89000D02*
D03*
D26*
Y-63600D02*
D03*
X-63500D02*
D03*
X-38100Y-89000D02*
D03*
Y-63600D02*
D03*
X-12700Y-89000D02*
D03*
Y-63600D02*
D03*
X12700Y-89000D02*
D03*
Y-63600D02*
D03*
X38100Y-89000D02*
D03*
Y-63600D02*
D03*
X63500Y-89000D02*
D03*
Y-63600D02*
D03*
X88900Y-89000D02*
D03*
Y-63600D02*
D03*
X-63500Y-89000D02*
D03*
D27*
X202000Y-133000D02*
D03*
X-202000D02*
D03*
X148000D02*
D03*
X-148000D02*
D03*
X148000Y-17000D02*
D03*
X-148000D02*
D03*
D28*
X-210000Y-84500D02*
D03*
Y-71800D02*
D03*
X210000Y-84600D02*
D03*
Y-46500D02*
D03*
X-210000Y-109900D02*
D03*
Y-97200D02*
D03*
Y-33700D02*
D03*
Y-46400D02*
D03*
Y-59100D02*
D03*
X210000Y-21100D02*
D03*
Y-71900D02*
D03*
Y-97300D02*
D03*
Y-59200D02*
D03*
Y-33800D02*
D03*
D29*
X121000Y-133000D02*
D03*
X175000D02*
D03*
X-175000D02*
D03*
X-121000D02*
D03*
X121000Y-17000D02*
D03*
X175000D02*
D03*
X-175000D02*
D03*
X-121000D02*
D03*
D30*
X-210000Y-21000D02*
D03*
X210000Y-110000D02*
D03*
M02*
