M48
;Layer_Color=9474304
;FILE_FORMAT=2:4
INCH,TZ
;TYPE=PLATED
T01F00S00C0.0118
T02F00S00C0.0276
T03F00S00C0.0354
T04F00S00C0.0433
T05F00S00C0.0807
%
T01
X-8583Y-4606
Y-4094
Y-3583
Y-3071
Y-2559
Y-2087
Y-1575
Y-1102
X-6811Y-2913
X-2992Y-2953
X8583Y-3071
Y-2598
Y-2087
Y-1575
Y-1063
Y-551
Y-3583
Y-4055
T02
X-8268Y-4327
Y-3827
Y-3327
Y-2827
Y-2327
Y-1827
Y-1327
Y-827
X8268Y-831
Y-1331
Y-1831
Y-2331
Y-2831
Y-3331
Y-3831
Y-4331
T03
X-3500Y-3504
Y-2504
X-2500
X-1500
Y-3504
X-500
Y-2504
X500
Y-3504
X1500
Y-2504
X2500
Y-3504
X3500
Y-2504
X-2500Y-3504
T04
X-5827Y-5236
X5827
X7953
X-7953
X-5827Y-669
X5827
T05
X-4764Y-5236
X4764
X6890
X-6890
Y-669
X-4764
X4764
X6890
M30
