G04*
G04 #@! TF.GenerationSoftware,Altium Limited,Altium Designer,26.5.0 (11)*
G04*
G04 Layer_Color=255*
G04 Board_Origin=30663386|31124408*
%FSLAX44Y44*%
%MOMM*%
G71*
G04*
G04 #@! TF.SameCoordinates,942C748D-FA27-44E2-97B5-00C3AED168DD*
G04*
G04*
G04 #@! TF.FilePolarity,Positive*
G04*
G01*
G75*
%ADD20C,1.8000*%
%ADD21C,2.4000*%
%ADD22R,1.8000X1.8000*%
%ADD23R,1.8000X1.8000*%
%ADD24C,2.2000*%
%ADD26R,0.8000X0.3000*%
%ADD27R,0.8000X0.4000*%
D20*
X5000Y132000D02*
D03*
X50000D02*
D03*
X5000Y67000D02*
D03*
X50000D02*
D03*
X132500Y3000D02*
D03*
X157500D02*
D03*
X229000Y99500D02*
D03*
Y124500D02*
D03*
D21*
X66000Y177000D02*
D03*
X199000D02*
D03*
X66000Y22000D02*
D03*
X199000D02*
D03*
D22*
X107500Y3000D02*
D03*
D23*
X229000Y74500D02*
D03*
D24*
X-1000Y1000D02*
D03*
X231000Y1000D02*
D03*
Y178000D02*
D03*
X-1000D02*
D03*
D26*
X71000Y97000D02*
D03*
Y112000D02*
D03*
Y117000D02*
D03*
Y82000D02*
D03*
Y102000D02*
D03*
Y87000D02*
D03*
Y107000D02*
D03*
Y92000D02*
D03*
D27*
X96000Y72000D02*
D03*
Y127000D02*
D03*
M02*
