G04*
G04 #@! TF.GenerationSoftware,Altium Limited,Altium Designer,26.5.0 (11)*
G04*
G04 Layer_Color=16711935*
G04 Board_Origin=30663386|31124408*
%FSLAX44Y44*%
%MOMM*%
G71*
G04*
G04 #@! TF.SameCoordinates,942C748D-FA27-44E2-97B5-00C3AED168DD*
G04*
G04*
G04 #@! TF.FilePolarity,Negative*
G04*
G01*
G75*
%ADD12C,1.9000*%
%ADD13C,2.5000*%
%ADD14R,1.9000X1.9000*%
%ADD15R,1.9000X1.9000*%
%ADD16C,2.3000*%
%ADD28R,0.9000X0.4000*%
%ADD29R,0.9000X0.5000*%
D12*
X5000Y132000D02*
D03*
X50000D02*
D03*
X5000Y67000D02*
D03*
X50000D02*
D03*
X132500Y3000D02*
D03*
X157500D02*
D03*
X229000Y99500D02*
D03*
Y124500D02*
D03*
D13*
X66000Y177000D02*
D03*
X199000D02*
D03*
X66000Y22000D02*
D03*
X199000D02*
D03*
D14*
X107500Y3000D02*
D03*
D15*
X229000Y74500D02*
D03*
D16*
X-1000Y1000D02*
D03*
X231000Y1000D02*
D03*
Y178000D02*
D03*
X-1000D02*
D03*
D28*
X71000Y97000D02*
D03*
Y112000D02*
D03*
Y117000D02*
D03*
Y82000D02*
D03*
Y102000D02*
D03*
Y87000D02*
D03*
Y107000D02*
D03*
Y92000D02*
D03*
D29*
X96000Y72000D02*
D03*
Y127000D02*
D03*
M02*
