G04*
G04 #@! TF.GenerationSoftware,Altium Limited,Altium Designer,26.5.0 (11)*
G04*
G04 Layer_Color=32896*
G04 Board_Origin=30663386|31124408*
%FSLAX44Y44*%
%MOMM*%
G71*
G04*
G04 #@! TF.SameCoordinates,942C748D-FA27-44E2-97B5-00C3AED168DD*
G04*
G04*
G04 #@! TF.FilePolarity,Positive*
G04*
G01*
G75*
%ADD10C,0.2000*%
%ADD11C,0.1500*%
%ADD30C,0.1270*%
G36*
X113475Y43225D02*
X113575D01*
Y43200D01*
X113650D01*
Y43175D01*
X113700D01*
Y43150D01*
X113750D01*
Y43125D01*
X113800D01*
Y43100D01*
X113850D01*
Y43075D01*
X113875D01*
Y43050D01*
X113900D01*
Y43025D01*
X113950D01*
Y43000D01*
X113975D01*
Y42975D01*
X114000D01*
Y42925D01*
X114025D01*
Y42900D01*
X114050D01*
Y42875D01*
X114075D01*
Y42850D01*
X114100D01*
Y42800D01*
X114125D01*
Y42750D01*
X114150D01*
Y42700D01*
X114175D01*
Y42625D01*
X114200D01*
Y42550D01*
X114225D01*
Y42375D01*
X114250D01*
Y32125D01*
X114225D01*
Y31950D01*
X114200D01*
Y31875D01*
X114175D01*
Y31800D01*
X114150D01*
Y31750D01*
X114125D01*
Y31700D01*
X114100D01*
Y31675D01*
X114075D01*
Y31625D01*
X114050D01*
Y31600D01*
X114025D01*
Y31575D01*
X114000D01*
Y31550D01*
X113975D01*
Y31525D01*
X113950D01*
Y31500D01*
X113925D01*
Y31475D01*
X113900D01*
Y31450D01*
X113875D01*
Y31425D01*
X113825D01*
Y31400D01*
X113800D01*
Y31375D01*
X113750D01*
Y31350D01*
X113700D01*
Y31325D01*
X113625D01*
Y31300D01*
X113550D01*
Y31275D01*
X113375D01*
Y31250D01*
X109500D01*
Y31275D01*
X109325D01*
Y31300D01*
X109225D01*
Y31325D01*
X109150D01*
Y31350D01*
X109100D01*
Y31375D01*
X109050D01*
Y31400D01*
X109000D01*
Y31425D01*
X108975D01*
Y31450D01*
X108950D01*
Y31475D01*
X108900D01*
Y31500D01*
X108875D01*
Y31525D01*
X108850D01*
Y31550D01*
X108825D01*
Y31575D01*
X108800D01*
Y31600D01*
X108775D01*
Y31650D01*
X108750D01*
Y31675D01*
X108725D01*
Y31725D01*
X108700D01*
Y31775D01*
X108675D01*
Y31825D01*
X108650D01*
Y31900D01*
X108625D01*
Y31975D01*
X108600D01*
Y35575D01*
X108575D01*
Y35725D01*
X108550D01*
Y35800D01*
X108525D01*
Y35875D01*
X108500D01*
Y35925D01*
X108475D01*
Y35975D01*
X108450D01*
Y36025D01*
X108425D01*
Y36050D01*
X108400D01*
Y36100D01*
X108375D01*
Y36125D01*
X108350D01*
Y36150D01*
X108300D01*
Y36175D01*
X108250D01*
Y36200D01*
X108125D01*
Y36175D01*
X108050D01*
Y36150D01*
X108025D01*
Y36125D01*
X108000D01*
Y36100D01*
X107975D01*
Y36075D01*
X107950D01*
Y36050D01*
X107925D01*
Y36025D01*
X107900D01*
Y36000D01*
X107875D01*
Y35975D01*
X107850D01*
Y35950D01*
X107825D01*
Y35925D01*
X107800D01*
Y35900D01*
X107775D01*
Y35875D01*
X107750D01*
Y35850D01*
X107725D01*
Y35825D01*
X107700D01*
Y35800D01*
X107675D01*
Y35775D01*
X107650D01*
Y35750D01*
X107625D01*
Y35725D01*
X107600D01*
Y35700D01*
X107575D01*
Y35650D01*
X107550D01*
Y35625D01*
X107525D01*
Y35600D01*
X107500D01*
Y35575D01*
X107475D01*
Y35550D01*
X107450D01*
Y35525D01*
X107425D01*
Y35500D01*
X107400D01*
Y35475D01*
X107375D01*
Y35450D01*
X107350D01*
Y35425D01*
X107325D01*
Y35400D01*
X107300D01*
Y35375D01*
X107275D01*
Y35350D01*
X107250D01*
Y35325D01*
X107225D01*
Y35300D01*
X107200D01*
Y35275D01*
X107175D01*
Y35250D01*
X107150D01*
Y35225D01*
X107125D01*
Y35200D01*
X107100D01*
Y35175D01*
X107075D01*
Y35150D01*
X107050D01*
Y35100D01*
X107025D01*
Y35075D01*
X107000D01*
Y35050D01*
X106975D01*
Y35025D01*
X106950D01*
Y35000D01*
X106925D01*
Y34975D01*
X106900D01*
Y34950D01*
X106875D01*
Y34925D01*
X106850D01*
Y34900D01*
X106825D01*
Y34875D01*
X106800D01*
Y34850D01*
X106775D01*
Y34825D01*
X106750D01*
Y34800D01*
X106725D01*
Y34775D01*
X106700D01*
Y34750D01*
X106675D01*
Y34725D01*
X106650D01*
Y34700D01*
X106625D01*
Y34675D01*
X106600D01*
Y34650D01*
X106575D01*
Y34600D01*
X106550D01*
Y34575D01*
X106525D01*
Y34550D01*
X106500D01*
Y34525D01*
X106475D01*
Y34500D01*
X106450D01*
Y34475D01*
X106425D01*
Y34450D01*
X106400D01*
Y34425D01*
X106375D01*
Y34400D01*
X106350D01*
Y34375D01*
X106325D01*
Y34350D01*
X106300D01*
Y34325D01*
X106275D01*
Y34300D01*
X106250D01*
Y34275D01*
X106225D01*
Y34250D01*
X106200D01*
Y34225D01*
X106175D01*
Y34200D01*
X106150D01*
Y34175D01*
X106125D01*
Y34150D01*
X106100D01*
Y34100D01*
X106075D01*
Y34075D01*
X106050D01*
Y34050D01*
X106025D01*
Y34025D01*
X106000D01*
Y34000D01*
X105975D01*
Y33975D01*
X105950D01*
Y33950D01*
X105925D01*
Y33925D01*
X105900D01*
Y33900D01*
X105875D01*
Y33875D01*
X105850D01*
Y33850D01*
X105825D01*
Y33825D01*
X105800D01*
Y33800D01*
X105775D01*
Y33775D01*
X105750D01*
Y33750D01*
X105725D01*
Y33725D01*
X105700D01*
Y33700D01*
X105675D01*
Y33675D01*
X105650D01*
Y33650D01*
X105625D01*
Y33600D01*
X105600D01*
Y33575D01*
X105575D01*
Y33550D01*
X105550D01*
Y33525D01*
X105525D01*
Y33500D01*
X105500D01*
Y33475D01*
X105475D01*
Y33450D01*
X105450D01*
Y33425D01*
X105425D01*
Y33400D01*
X105400D01*
Y33375D01*
X105375D01*
Y33350D01*
X105350D01*
Y33325D01*
X105325D01*
Y33300D01*
X105300D01*
Y33275D01*
X105275D01*
Y33250D01*
X105250D01*
Y33225D01*
X105225D01*
Y33200D01*
X105200D01*
Y33175D01*
X105175D01*
Y33150D01*
X105150D01*
Y33100D01*
X105125D01*
Y33075D01*
X105100D01*
Y33050D01*
X105075D01*
Y33025D01*
X105050D01*
Y33000D01*
X105025D01*
Y32975D01*
X105000D01*
Y32950D01*
X104975D01*
Y32925D01*
X104950D01*
Y32900D01*
X104925D01*
Y32875D01*
X104900D01*
Y32850D01*
X104875D01*
Y32825D01*
X104850D01*
Y32800D01*
X104825D01*
Y32775D01*
X104800D01*
Y32750D01*
X104775D01*
Y32725D01*
X104750D01*
Y32700D01*
X104725D01*
Y32675D01*
X104700D01*
Y32650D01*
X104675D01*
Y32600D01*
X104650D01*
Y32575D01*
X104625D01*
Y32550D01*
X104600D01*
Y32525D01*
X104575D01*
Y32500D01*
X104550D01*
Y32475D01*
X104525D01*
Y32450D01*
X104500D01*
Y32425D01*
X104475D01*
Y32400D01*
X104450D01*
Y32375D01*
X104425D01*
Y32350D01*
X104400D01*
Y32325D01*
X104375D01*
Y32300D01*
X104350D01*
Y32275D01*
X104325D01*
Y32250D01*
X104300D01*
Y32225D01*
X104275D01*
Y32200D01*
X104250D01*
Y32175D01*
X104225D01*
Y32150D01*
X104200D01*
Y32100D01*
X104175D01*
Y32075D01*
X104150D01*
Y32050D01*
X104125D01*
Y32025D01*
X104100D01*
Y32000D01*
X104075D01*
Y31975D01*
X104050D01*
Y31950D01*
X104025D01*
Y31925D01*
X104000D01*
Y31900D01*
X103975D01*
Y31875D01*
X103950D01*
Y31850D01*
X103925D01*
Y31825D01*
X103900D01*
Y31800D01*
X103875D01*
Y31775D01*
X103850D01*
Y31750D01*
X103825D01*
Y31725D01*
X103800D01*
Y31700D01*
X103775D01*
Y31675D01*
X103750D01*
Y31650D01*
X103725D01*
Y31600D01*
X103700D01*
Y31575D01*
X103675D01*
Y31550D01*
X103625D01*
Y31525D01*
X103600D01*
Y31500D01*
X103575D01*
Y31475D01*
X103550D01*
Y31450D01*
X103525D01*
Y31425D01*
X103475D01*
Y31400D01*
X103425D01*
Y31375D01*
X103375D01*
Y31350D01*
X103300D01*
Y31325D01*
X103175D01*
Y31300D01*
X102850D01*
Y31325D01*
X102750D01*
Y31350D01*
X102675D01*
Y31375D01*
X102625D01*
Y31400D01*
X102575D01*
Y31425D01*
X102525D01*
Y31450D01*
X102500D01*
Y31475D01*
X102475D01*
Y31500D01*
X102425D01*
Y31525D01*
X102400D01*
Y31550D01*
X102375D01*
Y31575D01*
X102350D01*
Y31600D01*
X102325D01*
Y31625D01*
X102300D01*
Y31650D01*
X102275D01*
Y31675D01*
X102250D01*
Y31725D01*
X102225D01*
Y31750D01*
X102200D01*
Y31775D01*
X102175D01*
Y31800D01*
X102150D01*
Y31825D01*
X102125D01*
Y31850D01*
X102100D01*
Y31875D01*
X102075D01*
Y31900D01*
X102050D01*
Y31925D01*
X102025D01*
Y31950D01*
X102000D01*
Y31975D01*
X101975D01*
Y32000D01*
X101950D01*
Y32025D01*
X101925D01*
Y32050D01*
X101900D01*
Y32075D01*
X101875D01*
Y32100D01*
X101850D01*
Y32125D01*
X101825D01*
Y32150D01*
X101800D01*
Y32175D01*
X101775D01*
Y32225D01*
X101750D01*
Y32250D01*
X101725D01*
Y32275D01*
X101700D01*
Y32300D01*
X101675D01*
Y32325D01*
X101650D01*
Y32350D01*
X101625D01*
Y32375D01*
X101600D01*
Y32400D01*
X101575D01*
Y32425D01*
X101550D01*
Y32450D01*
X101525D01*
Y32475D01*
X101500D01*
Y32500D01*
X101475D01*
Y32525D01*
X101450D01*
Y32550D01*
X101425D01*
Y32575D01*
X101400D01*
Y32600D01*
X101375D01*
Y32625D01*
X101350D01*
Y32650D01*
X101325D01*
Y32675D01*
X101300D01*
Y32725D01*
X101275D01*
Y32750D01*
X101250D01*
Y32775D01*
X101225D01*
Y32800D01*
X101200D01*
Y32825D01*
X101175D01*
Y32850D01*
X101150D01*
Y32875D01*
X101125D01*
Y32900D01*
X101100D01*
Y32925D01*
X101075D01*
Y32950D01*
X101050D01*
Y32975D01*
X101025D01*
Y33000D01*
X101000D01*
Y33025D01*
X100975D01*
Y33050D01*
X100950D01*
Y33075D01*
X100925D01*
Y33100D01*
X100900D01*
Y33125D01*
X100875D01*
Y33150D01*
X100850D01*
Y33175D01*
X100825D01*
Y33225D01*
X100800D01*
Y33250D01*
X100775D01*
Y33275D01*
X100750D01*
Y33300D01*
X100725D01*
Y33325D01*
X100700D01*
Y33350D01*
X100675D01*
Y33375D01*
X100650D01*
Y33400D01*
X100625D01*
Y33425D01*
X100600D01*
Y33450D01*
X100575D01*
Y33475D01*
X100550D01*
Y33500D01*
X100525D01*
Y33525D01*
X100500D01*
Y33550D01*
X100475D01*
Y33575D01*
X100450D01*
Y33600D01*
X100425D01*
Y33625D01*
X100400D01*
Y33650D01*
X100375D01*
Y33675D01*
X100350D01*
Y33725D01*
X100325D01*
Y33750D01*
X100300D01*
Y33775D01*
X100275D01*
Y33800D01*
X100250D01*
Y33825D01*
X100225D01*
Y33850D01*
X100200D01*
Y33875D01*
X100175D01*
Y33900D01*
X100150D01*
Y33925D01*
X100125D01*
Y33950D01*
X100100D01*
Y33975D01*
X100075D01*
Y34000D01*
X100050D01*
Y34025D01*
X100025D01*
Y34050D01*
X100000D01*
Y34075D01*
X99975D01*
Y34100D01*
X99950D01*
Y34125D01*
X99925D01*
Y34150D01*
X99900D01*
Y34175D01*
X99875D01*
Y34225D01*
X99850D01*
Y34250D01*
X99825D01*
Y34275D01*
X99800D01*
Y34300D01*
X99775D01*
Y34325D01*
X99750D01*
Y34350D01*
X99725D01*
Y34375D01*
X99700D01*
Y34400D01*
X99675D01*
Y34425D01*
X99650D01*
Y34450D01*
X99625D01*
Y34475D01*
X99600D01*
Y34500D01*
X99575D01*
Y34525D01*
X99550D01*
Y34550D01*
X99525D01*
Y34575D01*
X99500D01*
Y34600D01*
X99475D01*
Y34625D01*
X99450D01*
Y34650D01*
X99425D01*
Y34675D01*
X99400D01*
Y34700D01*
X99375D01*
Y34750D01*
X99350D01*
Y34775D01*
X99325D01*
Y34800D01*
X99300D01*
Y34825D01*
X99275D01*
Y34850D01*
X99250D01*
Y34875D01*
X99225D01*
Y34900D01*
X99200D01*
Y34925D01*
X99175D01*
Y34950D01*
X99150D01*
Y34975D01*
X99125D01*
Y35000D01*
X99100D01*
Y35025D01*
X99075D01*
Y35050D01*
X99050D01*
Y35075D01*
X99025D01*
Y35100D01*
X99000D01*
Y35125D01*
X98975D01*
Y35150D01*
X98950D01*
Y35175D01*
X98925D01*
Y35200D01*
X98900D01*
Y35225D01*
X98875D01*
Y35250D01*
X98850D01*
Y35300D01*
X98825D01*
Y35325D01*
X98800D01*
Y35350D01*
X98775D01*
Y35375D01*
X98750D01*
Y35400D01*
X98725D01*
Y35425D01*
X98700D01*
Y35450D01*
X98675D01*
Y35475D01*
X98650D01*
Y35500D01*
X98625D01*
Y35525D01*
X98600D01*
Y35550D01*
X98575D01*
Y35575D01*
X98550D01*
Y35600D01*
X98525D01*
Y35625D01*
X98500D01*
Y35650D01*
X98475D01*
Y35675D01*
X98450D01*
Y35700D01*
X98425D01*
Y35725D01*
X98400D01*
Y35775D01*
X98375D01*
Y35800D01*
X98350D01*
Y35825D01*
X98325D01*
Y35850D01*
X98300D01*
Y35875D01*
X98275D01*
Y35900D01*
X98250D01*
Y35925D01*
X98225D01*
Y35950D01*
X98200D01*
Y35975D01*
X98175D01*
Y36000D01*
X98150D01*
Y36025D01*
X98125D01*
Y36050D01*
X98100D01*
Y36075D01*
X98075D01*
Y36100D01*
X98050D01*
Y36125D01*
X98025D01*
Y36150D01*
X98000D01*
Y36175D01*
X97925D01*
Y36200D01*
X97775D01*
Y36175D01*
X97750D01*
Y36150D01*
X97700D01*
Y36125D01*
X97675D01*
Y36100D01*
X97650D01*
Y36075D01*
X97625D01*
Y36025D01*
X97600D01*
Y36000D01*
X97575D01*
Y35950D01*
X97550D01*
Y35900D01*
X97525D01*
Y35825D01*
X97500D01*
Y35750D01*
X97475D01*
Y35625D01*
X97450D01*
Y32000D01*
X97425D01*
Y31900D01*
X97400D01*
Y31825D01*
X97375D01*
Y31775D01*
X97350D01*
Y31725D01*
X97325D01*
Y31700D01*
X97300D01*
Y31650D01*
X97275D01*
Y31625D01*
X97250D01*
Y31600D01*
X97225D01*
Y31550D01*
X97200D01*
Y31525D01*
X97175D01*
Y31500D01*
X97125D01*
Y31475D01*
X97100D01*
Y31450D01*
X97075D01*
Y31425D01*
X97025D01*
Y31400D01*
X97000D01*
Y31375D01*
X96950D01*
Y31350D01*
X96900D01*
Y31325D01*
X96825D01*
Y31300D01*
X96725D01*
Y31275D01*
X96550D01*
Y31250D01*
X92675D01*
Y31275D01*
X92500D01*
Y31300D01*
X92425D01*
Y31325D01*
X92350D01*
Y31350D01*
X92300D01*
Y31375D01*
X92250D01*
Y31400D01*
X92200D01*
Y31425D01*
X92175D01*
Y31450D01*
X92150D01*
Y31475D01*
X92125D01*
Y31500D01*
X92100D01*
Y31525D01*
X92075D01*
Y31550D01*
X92050D01*
Y31575D01*
X92025D01*
Y31600D01*
X92000D01*
Y31625D01*
X91975D01*
Y31650D01*
X91950D01*
Y31700D01*
X91925D01*
Y31750D01*
X91900D01*
Y31800D01*
X91875D01*
Y31850D01*
X91850D01*
Y31950D01*
X91825D01*
Y32075D01*
X91800D01*
Y42425D01*
X91825D01*
Y42575D01*
X91850D01*
Y42650D01*
X91875D01*
Y42725D01*
X91900D01*
Y42775D01*
X91925D01*
Y42800D01*
X91950D01*
Y42850D01*
X91975D01*
Y42875D01*
X92000D01*
Y42925D01*
X92025D01*
Y42950D01*
X92050D01*
Y42975D01*
X92075D01*
Y43000D01*
X92100D01*
Y43025D01*
X92125D01*
Y43050D01*
X92175D01*
Y43075D01*
X92200D01*
Y43100D01*
X92250D01*
Y43125D01*
X92300D01*
Y43150D01*
X92350D01*
Y43175D01*
X92400D01*
Y43200D01*
X92475D01*
Y43225D01*
X92575D01*
Y43250D01*
X97275D01*
Y43225D01*
X97350D01*
Y43200D01*
X97425D01*
Y43175D01*
X97475D01*
Y43150D01*
X97525D01*
Y43125D01*
X97575D01*
Y43100D01*
X97600D01*
Y43075D01*
X97650D01*
Y43050D01*
X97675D01*
Y43025D01*
X97700D01*
Y43000D01*
X97725D01*
Y42975D01*
X97750D01*
Y42950D01*
X97775D01*
Y42925D01*
X97800D01*
Y42900D01*
X97825D01*
Y42875D01*
X97850D01*
Y42850D01*
X97875D01*
Y42825D01*
X97900D01*
Y42800D01*
X97925D01*
Y42775D01*
X97950D01*
Y42750D01*
X97975D01*
Y42725D01*
X98000D01*
Y42700D01*
X98025D01*
Y42675D01*
X98050D01*
Y42650D01*
X98075D01*
Y42625D01*
X98100D01*
Y42600D01*
X98125D01*
Y42575D01*
X98150D01*
Y42550D01*
X98175D01*
Y42500D01*
X98200D01*
Y42475D01*
X98225D01*
Y42450D01*
X98250D01*
Y42425D01*
X98275D01*
Y42400D01*
X98300D01*
Y42375D01*
X98325D01*
Y42350D01*
X98350D01*
Y42325D01*
X98375D01*
Y42300D01*
X98400D01*
Y42275D01*
X98425D01*
Y42250D01*
X98450D01*
Y42225D01*
X98475D01*
Y42200D01*
X98500D01*
Y42175D01*
X98525D01*
Y42150D01*
X98550D01*
Y42125D01*
X98575D01*
Y42100D01*
X98600D01*
Y42075D01*
X98625D01*
Y42025D01*
X98650D01*
Y42000D01*
X98675D01*
Y41975D01*
X98700D01*
Y41950D01*
X98725D01*
Y41925D01*
X98750D01*
Y41900D01*
X98775D01*
Y41875D01*
X98800D01*
Y41850D01*
X98825D01*
Y41825D01*
X98850D01*
Y41800D01*
X98875D01*
Y41775D01*
X98900D01*
Y41750D01*
X98925D01*
Y41725D01*
X98950D01*
Y41700D01*
X98975D01*
Y41675D01*
X99000D01*
Y41650D01*
X99025D01*
Y41625D01*
X99050D01*
Y41600D01*
X99075D01*
Y41575D01*
X99100D01*
Y41525D01*
X99125D01*
Y41500D01*
X99150D01*
Y41475D01*
X99175D01*
Y41450D01*
X99200D01*
Y41425D01*
X99225D01*
Y41400D01*
X99250D01*
Y41375D01*
X99275D01*
Y41350D01*
X99300D01*
Y41325D01*
X99325D01*
Y41300D01*
X99350D01*
Y41275D01*
X99375D01*
Y41250D01*
X99400D01*
Y41225D01*
X99425D01*
Y41200D01*
X99450D01*
Y41175D01*
X99475D01*
Y41150D01*
X99500D01*
Y41125D01*
X99525D01*
Y41100D01*
X99550D01*
Y41075D01*
X99575D01*
Y41050D01*
X99600D01*
Y41025D01*
X99625D01*
Y40975D01*
X99650D01*
Y40950D01*
X99675D01*
Y40925D01*
X99700D01*
Y40900D01*
X99725D01*
Y40875D01*
X99750D01*
Y40850D01*
X99775D01*
Y40825D01*
X99800D01*
Y40800D01*
X99825D01*
Y40775D01*
X99850D01*
Y40750D01*
X99875D01*
Y40725D01*
X99900D01*
Y40700D01*
X99925D01*
Y40675D01*
X99950D01*
Y40650D01*
X99975D01*
Y40625D01*
X100000D01*
Y40600D01*
X100025D01*
Y40575D01*
X100050D01*
Y40550D01*
X100075D01*
Y40525D01*
X100100D01*
Y40475D01*
X100125D01*
Y40450D01*
X100150D01*
Y40425D01*
X100175D01*
Y40400D01*
X100200D01*
Y40375D01*
X100225D01*
Y40350D01*
X100250D01*
Y40325D01*
X100275D01*
Y40300D01*
X100300D01*
Y40275D01*
X100325D01*
Y40250D01*
X100350D01*
Y40225D01*
X100375D01*
Y40200D01*
X100400D01*
Y40175D01*
X100425D01*
Y40150D01*
X100450D01*
Y40125D01*
X100475D01*
Y40100D01*
X100500D01*
Y40075D01*
X100525D01*
Y40050D01*
X100550D01*
Y40025D01*
X100575D01*
Y39975D01*
X100600D01*
Y39950D01*
X100625D01*
Y39925D01*
X100650D01*
Y39900D01*
X100675D01*
Y39875D01*
X100700D01*
Y39850D01*
X100725D01*
Y39825D01*
X100750D01*
Y39800D01*
X100775D01*
Y39775D01*
X100800D01*
Y39750D01*
X100825D01*
Y39725D01*
X100850D01*
Y39700D01*
X100875D01*
Y39675D01*
X100900D01*
Y39650D01*
X100925D01*
Y39625D01*
X100950D01*
Y39600D01*
X100975D01*
Y39575D01*
X101000D01*
Y39550D01*
X101025D01*
Y39525D01*
X101050D01*
Y39475D01*
X101075D01*
Y39450D01*
X101100D01*
Y39425D01*
X101125D01*
Y39400D01*
X101150D01*
Y39375D01*
X101175D01*
Y39350D01*
X101200D01*
Y39325D01*
X101225D01*
Y39300D01*
X101250D01*
Y39275D01*
X101275D01*
Y39250D01*
X101300D01*
Y39225D01*
X101325D01*
Y39200D01*
X101350D01*
Y39175D01*
X101375D01*
Y39150D01*
X101400D01*
Y39125D01*
X101425D01*
Y39100D01*
X101450D01*
Y39075D01*
X101475D01*
Y39050D01*
X101500D01*
Y39025D01*
X101525D01*
Y39000D01*
X101550D01*
Y38950D01*
X101575D01*
Y38925D01*
X101600D01*
Y38900D01*
X101625D01*
Y38875D01*
X101650D01*
Y38850D01*
X101675D01*
Y38825D01*
X101700D01*
Y38800D01*
X101725D01*
Y38775D01*
X101750D01*
Y38750D01*
X101775D01*
Y38725D01*
X101800D01*
Y38700D01*
X101825D01*
Y38675D01*
X101850D01*
Y38650D01*
X101875D01*
Y38625D01*
X101900D01*
Y38600D01*
X101925D01*
Y38575D01*
X101950D01*
Y38550D01*
X101975D01*
Y38525D01*
X102000D01*
Y38475D01*
X102025D01*
Y38450D01*
X102050D01*
Y38425D01*
X102075D01*
Y38400D01*
X102100D01*
Y38375D01*
X102125D01*
Y38350D01*
X102150D01*
Y38325D01*
X102175D01*
Y38300D01*
X102200D01*
Y38275D01*
X102225D01*
Y38250D01*
X102250D01*
Y38225D01*
X102275D01*
Y38200D01*
X102300D01*
Y38175D01*
X102325D01*
Y38150D01*
X102350D01*
Y38125D01*
X102375D01*
Y38100D01*
X102400D01*
Y38075D01*
X102425D01*
Y38050D01*
X102450D01*
Y38025D01*
X102475D01*
Y37975D01*
X102500D01*
Y37950D01*
X102525D01*
Y37925D01*
X102550D01*
Y37900D01*
X102575D01*
Y37875D01*
X102600D01*
Y37850D01*
X102625D01*
Y37825D01*
X102650D01*
Y37800D01*
X102675D01*
Y37775D01*
X102700D01*
Y37750D01*
X102725D01*
Y37725D01*
X102750D01*
Y37700D01*
X102775D01*
Y37675D01*
X102800D01*
Y37650D01*
X102825D01*
Y37625D01*
X102850D01*
Y37600D01*
X102875D01*
Y37575D01*
X102925D01*
Y37550D01*
X102975D01*
Y37525D01*
X103075D01*
Y37550D01*
X103125D01*
Y37575D01*
X103175D01*
Y37600D01*
X103200D01*
Y37625D01*
X103225D01*
Y37650D01*
X103250D01*
Y37675D01*
X103275D01*
Y37700D01*
X103300D01*
Y37725D01*
X103325D01*
Y37750D01*
X103350D01*
Y37775D01*
X103375D01*
Y37800D01*
X103400D01*
Y37825D01*
X103425D01*
Y37875D01*
X103450D01*
Y37900D01*
X103475D01*
Y37925D01*
X103500D01*
Y37950D01*
X103525D01*
Y37975D01*
X103550D01*
Y38000D01*
X103575D01*
Y38025D01*
X103600D01*
Y38050D01*
X103625D01*
Y38075D01*
X103650D01*
Y38100D01*
X103675D01*
Y38125D01*
X103700D01*
Y38150D01*
X103725D01*
Y38175D01*
X103750D01*
Y38200D01*
X103775D01*
Y38225D01*
X103800D01*
Y38250D01*
X103825D01*
Y38275D01*
X103850D01*
Y38300D01*
X103875D01*
Y38325D01*
X103900D01*
Y38350D01*
X103925D01*
Y38375D01*
X103950D01*
Y38425D01*
X103975D01*
Y38450D01*
X104000D01*
Y38475D01*
X104025D01*
Y38500D01*
X104050D01*
Y38525D01*
X104075D01*
Y38550D01*
X104100D01*
Y38575D01*
X104125D01*
Y38600D01*
X104150D01*
Y38625D01*
X104175D01*
Y38650D01*
X104200D01*
Y38675D01*
X104225D01*
Y38700D01*
X104250D01*
Y38725D01*
X104275D01*
Y38750D01*
X104300D01*
Y38775D01*
X104325D01*
Y38800D01*
X104350D01*
Y38825D01*
X104375D01*
Y38850D01*
X104400D01*
Y38875D01*
X104425D01*
Y38925D01*
X104450D01*
Y38950D01*
X104475D01*
Y38975D01*
X104500D01*
Y39000D01*
X104525D01*
Y39025D01*
X104550D01*
Y39050D01*
X104575D01*
Y39075D01*
X104600D01*
Y39100D01*
X104625D01*
Y39125D01*
X104650D01*
Y39150D01*
X104675D01*
Y39175D01*
X104700D01*
Y39200D01*
X104725D01*
Y39225D01*
X104750D01*
Y39250D01*
X104775D01*
Y39275D01*
X104800D01*
Y39300D01*
X104825D01*
Y39325D01*
X104850D01*
Y39350D01*
X104875D01*
Y39375D01*
X104900D01*
Y39425D01*
X104925D01*
Y39450D01*
X104950D01*
Y39475D01*
X104975D01*
Y39500D01*
X105000D01*
Y39525D01*
X105025D01*
Y39550D01*
X105050D01*
Y39575D01*
X105075D01*
Y39600D01*
X105100D01*
Y39625D01*
X105125D01*
Y39650D01*
X105150D01*
Y39675D01*
X105175D01*
Y39700D01*
X105200D01*
Y39725D01*
X105225D01*
Y39750D01*
X105250D01*
Y39775D01*
X105275D01*
Y39800D01*
X105300D01*
Y39825D01*
X105325D01*
Y39850D01*
X105350D01*
Y39875D01*
X105375D01*
Y39925D01*
X105400D01*
Y39950D01*
X105425D01*
Y39975D01*
X105450D01*
Y40000D01*
X105475D01*
Y40025D01*
X105500D01*
Y40050D01*
X105525D01*
Y40075D01*
X105550D01*
Y40100D01*
X105575D01*
Y40125D01*
X105600D01*
Y40150D01*
X105625D01*
Y40175D01*
X105650D01*
Y40200D01*
X105675D01*
Y40225D01*
X105700D01*
Y40250D01*
X105725D01*
Y40275D01*
X105750D01*
Y40300D01*
X105775D01*
Y40325D01*
X105800D01*
Y40350D01*
X105825D01*
Y40375D01*
X105850D01*
Y40425D01*
X105875D01*
Y40450D01*
X105900D01*
Y40475D01*
X105925D01*
Y40500D01*
X105950D01*
Y40525D01*
X105975D01*
Y40550D01*
X106000D01*
Y40575D01*
X106025D01*
Y40600D01*
X106050D01*
Y40625D01*
X106075D01*
Y40650D01*
X106100D01*
Y40675D01*
X106125D01*
Y40700D01*
X106150D01*
Y40725D01*
X106175D01*
Y40750D01*
X106200D01*
Y40775D01*
X106225D01*
Y40800D01*
X106250D01*
Y40825D01*
X106275D01*
Y40850D01*
X106300D01*
Y40875D01*
X106325D01*
Y40925D01*
X106350D01*
Y40950D01*
X106375D01*
Y40975D01*
X106400D01*
Y41000D01*
X106425D01*
Y41025D01*
X106450D01*
Y41050D01*
X106475D01*
Y41075D01*
X106500D01*
Y41100D01*
X106525D01*
Y41125D01*
X106550D01*
Y41150D01*
X106575D01*
Y41175D01*
X106600D01*
Y41200D01*
X106625D01*
Y41225D01*
X106650D01*
Y41250D01*
X106675D01*
Y41275D01*
X106700D01*
Y41300D01*
X106725D01*
Y41325D01*
X106750D01*
Y41350D01*
X106775D01*
Y41375D01*
X106800D01*
Y41425D01*
X106825D01*
Y41450D01*
X106850D01*
Y41475D01*
X106875D01*
Y41500D01*
X106900D01*
Y41525D01*
X106925D01*
Y41550D01*
X106950D01*
Y41575D01*
X106975D01*
Y41600D01*
X107000D01*
Y41625D01*
X107025D01*
Y41650D01*
X107050D01*
Y41675D01*
X107075D01*
Y41700D01*
X107100D01*
Y41725D01*
X107125D01*
Y41750D01*
X107150D01*
Y41775D01*
X107175D01*
Y41800D01*
X107200D01*
Y41825D01*
X107225D01*
Y41850D01*
X107250D01*
Y41875D01*
X107275D01*
Y41900D01*
X107300D01*
Y41925D01*
X107325D01*
Y41975D01*
X107350D01*
Y42000D01*
X107375D01*
Y42025D01*
X107400D01*
Y42050D01*
X107425D01*
Y42075D01*
X107450D01*
Y42100D01*
X107475D01*
Y42125D01*
X107500D01*
Y42150D01*
X107525D01*
Y42175D01*
X107550D01*
Y42200D01*
X107575D01*
Y42225D01*
X107600D01*
Y42250D01*
X107625D01*
Y42275D01*
X107650D01*
Y42300D01*
X107675D01*
Y42325D01*
X107700D01*
Y42350D01*
X107725D01*
Y42375D01*
X107750D01*
Y42400D01*
X107775D01*
Y42425D01*
X107800D01*
Y42475D01*
X107825D01*
Y42500D01*
X107850D01*
Y42525D01*
X107875D01*
Y42550D01*
X107900D01*
Y42575D01*
X107925D01*
Y42600D01*
X107950D01*
Y42625D01*
X107975D01*
Y42650D01*
X108000D01*
Y42675D01*
X108025D01*
Y42700D01*
X108050D01*
Y42725D01*
X108075D01*
Y42750D01*
X108100D01*
Y42775D01*
X108125D01*
Y42800D01*
X108150D01*
Y42825D01*
X108175D01*
Y42850D01*
X108200D01*
Y42875D01*
X108225D01*
Y42900D01*
X108250D01*
Y42950D01*
X108275D01*
Y42975D01*
X108300D01*
Y43000D01*
X108325D01*
Y43025D01*
X108375D01*
Y43050D01*
X108400D01*
Y43075D01*
X108425D01*
Y43100D01*
X108475D01*
Y43125D01*
X108525D01*
Y43150D01*
X108550D01*
Y43175D01*
X108625D01*
Y43200D01*
X108675D01*
Y43225D01*
X108775D01*
Y43250D01*
X113475D01*
Y43225D01*
D02*
G37*
G36*
X113375Y29875D02*
X113550D01*
Y29850D01*
X113625D01*
Y29825D01*
X113700D01*
Y29800D01*
X113750D01*
Y29775D01*
X113800D01*
Y29750D01*
X113825D01*
Y29725D01*
X113875D01*
Y29700D01*
X113900D01*
Y29675D01*
X113925D01*
Y29650D01*
X113950D01*
Y29625D01*
X113975D01*
Y29600D01*
X114000D01*
Y29575D01*
X114025D01*
Y29550D01*
X114050D01*
Y29525D01*
X114075D01*
Y29475D01*
X114100D01*
Y29450D01*
X114125D01*
Y29400D01*
X114150D01*
Y29350D01*
X114175D01*
Y29275D01*
X114200D01*
Y29200D01*
X114225D01*
Y29025D01*
X114250D01*
Y21700D01*
X114225D01*
Y21550D01*
X114200D01*
Y21450D01*
X114175D01*
Y21400D01*
X114150D01*
Y21325D01*
X114125D01*
Y21300D01*
X114100D01*
Y21250D01*
X114075D01*
Y21225D01*
X114050D01*
Y21175D01*
X114025D01*
Y21150D01*
X114000D01*
Y21125D01*
X113975D01*
Y21100D01*
X113950D01*
Y21075D01*
X113925D01*
Y21050D01*
X113900D01*
Y21025D01*
X113850D01*
Y21000D01*
X113825D01*
Y20975D01*
X113775D01*
Y20950D01*
X113725D01*
Y20925D01*
X113675D01*
Y20900D01*
X113600D01*
Y20875D01*
X113525D01*
Y20850D01*
X112650D01*
Y20825D01*
X108200D01*
Y20850D01*
X105125D01*
Y20875D01*
X105025D01*
Y20900D01*
X104975D01*
Y20925D01*
X104925D01*
Y20950D01*
X104875D01*
Y20975D01*
X104825D01*
Y21000D01*
X104800D01*
Y21025D01*
X104750D01*
Y21050D01*
X104725D01*
Y21075D01*
X104700D01*
Y21100D01*
X104675D01*
Y21125D01*
X104650D01*
Y21150D01*
X104625D01*
Y21175D01*
X104600D01*
Y21200D01*
X104575D01*
Y21250D01*
X104550D01*
Y21275D01*
X104525D01*
Y21325D01*
X104500D01*
Y21375D01*
X104475D01*
Y21425D01*
X104450D01*
Y21525D01*
X104425D01*
Y21650D01*
X104400D01*
Y25525D01*
X104425D01*
Y25675D01*
X104450D01*
Y25775D01*
X104475D01*
Y25825D01*
X104500D01*
Y25875D01*
X104525D01*
Y25925D01*
X104550D01*
Y25975D01*
X104575D01*
Y26000D01*
X104600D01*
Y26025D01*
X104625D01*
Y26075D01*
X104650D01*
Y26100D01*
X104675D01*
Y26125D01*
X104700D01*
Y26150D01*
X104725D01*
Y26175D01*
X104750D01*
Y26200D01*
X104775D01*
Y26225D01*
X104825D01*
Y26250D01*
X104850D01*
Y26275D01*
X104875D01*
Y26300D01*
X104900D01*
Y26325D01*
X104925D01*
Y26350D01*
X104950D01*
Y26375D01*
X105000D01*
Y26400D01*
X105025D01*
Y26425D01*
X105050D01*
Y26450D01*
X105075D01*
Y26475D01*
X105100D01*
Y26500D01*
X105150D01*
Y26525D01*
X105175D01*
Y26550D01*
X105200D01*
Y26575D01*
X105225D01*
Y26600D01*
X105250D01*
Y26625D01*
X105300D01*
Y26650D01*
X105325D01*
Y26675D01*
X105350D01*
Y26700D01*
X105375D01*
Y26725D01*
X105400D01*
Y26750D01*
X105450D01*
Y26775D01*
X105475D01*
Y26800D01*
X105500D01*
Y26825D01*
X105525D01*
Y26850D01*
X105550D01*
Y26875D01*
X105600D01*
Y26900D01*
X105625D01*
Y26925D01*
X105650D01*
Y26950D01*
X105675D01*
Y26975D01*
X105700D01*
Y27000D01*
X105725D01*
Y27025D01*
X105775D01*
Y27050D01*
X105800D01*
Y27075D01*
X105825D01*
Y27100D01*
X105850D01*
Y27125D01*
X105875D01*
Y27150D01*
X105925D01*
Y27175D01*
X105950D01*
Y27200D01*
X105975D01*
Y27225D01*
X106000D01*
Y27250D01*
X106025D01*
Y27275D01*
X106075D01*
Y27300D01*
X106100D01*
Y27325D01*
X106125D01*
Y27350D01*
X106150D01*
Y27375D01*
X106175D01*
Y27400D01*
X106225D01*
Y27425D01*
X106250D01*
Y27450D01*
X106275D01*
Y27475D01*
X106300D01*
Y27500D01*
X106325D01*
Y27525D01*
X106375D01*
Y27550D01*
X106400D01*
Y27575D01*
X106425D01*
Y27600D01*
X106450D01*
Y27625D01*
X106475D01*
Y27650D01*
X106525D01*
Y27675D01*
X106550D01*
Y27700D01*
X106575D01*
Y27725D01*
X106600D01*
Y27750D01*
X106625D01*
Y27775D01*
X106675D01*
Y27800D01*
X106700D01*
Y27825D01*
X106725D01*
Y27850D01*
X106750D01*
Y27875D01*
X106775D01*
Y27900D01*
X106800D01*
Y27925D01*
X106850D01*
Y27950D01*
X106875D01*
Y27975D01*
X106900D01*
Y28000D01*
X106925D01*
Y28025D01*
X106950D01*
Y28050D01*
X107000D01*
Y28075D01*
X107025D01*
Y28100D01*
X107050D01*
Y28125D01*
X107075D01*
Y28150D01*
X107100D01*
Y28175D01*
X107150D01*
Y28200D01*
X107175D01*
Y28225D01*
X107200D01*
Y28250D01*
X107225D01*
Y28275D01*
X107250D01*
Y28300D01*
X107300D01*
Y28325D01*
X107325D01*
Y28350D01*
X107350D01*
Y28375D01*
X107375D01*
Y28400D01*
X107400D01*
Y28425D01*
X107450D01*
Y28450D01*
X107475D01*
Y28475D01*
X107500D01*
Y28500D01*
X107525D01*
Y28525D01*
X107550D01*
Y28550D01*
X107600D01*
Y28575D01*
X107625D01*
Y28600D01*
X107650D01*
Y28625D01*
X107675D01*
Y28650D01*
X107700D01*
Y28675D01*
X107750D01*
Y28700D01*
X107775D01*
Y28725D01*
X107800D01*
Y28750D01*
X107825D01*
Y28775D01*
X107850D01*
Y28800D01*
X107875D01*
Y28825D01*
X107925D01*
Y28850D01*
X107950D01*
Y28875D01*
X107975D01*
Y28900D01*
X108000D01*
Y28925D01*
X108025D01*
Y28950D01*
X108075D01*
Y28975D01*
X108100D01*
Y29000D01*
X108125D01*
Y29025D01*
X108150D01*
Y29050D01*
X108175D01*
Y29075D01*
X108225D01*
Y29100D01*
X108250D01*
Y29125D01*
X108275D01*
Y29150D01*
X108300D01*
Y29175D01*
X108325D01*
Y29200D01*
X108375D01*
Y29225D01*
X108400D01*
Y29250D01*
X108425D01*
Y29275D01*
X108450D01*
Y29300D01*
X108475D01*
Y29325D01*
X108525D01*
Y29350D01*
X108550D01*
Y29375D01*
X108575D01*
Y29400D01*
X108600D01*
Y29425D01*
X108625D01*
Y29450D01*
X108675D01*
Y29475D01*
X108700D01*
Y29500D01*
X108725D01*
Y29525D01*
X108750D01*
Y29550D01*
X108775D01*
Y29575D01*
X108825D01*
Y29600D01*
X108850D01*
Y29625D01*
X108875D01*
Y29650D01*
X108900D01*
Y29675D01*
X108950D01*
Y29700D01*
X108975D01*
Y29725D01*
X109000D01*
Y29750D01*
X109050D01*
Y29775D01*
X109100D01*
Y29800D01*
X109150D01*
Y29825D01*
X109225D01*
Y29850D01*
X109325D01*
Y29875D01*
X109500D01*
Y29900D01*
X113375D01*
Y29875D01*
D02*
G37*
G36*
X96550D02*
X96725D01*
Y29850D01*
X96825D01*
Y29825D01*
X96900D01*
Y29800D01*
X96950D01*
Y29775D01*
X97000D01*
Y29750D01*
X97050D01*
Y29725D01*
X97075D01*
Y29700D01*
X97125D01*
Y29675D01*
X97175D01*
Y29650D01*
X97200D01*
Y29625D01*
X97225D01*
Y29600D01*
X97275D01*
Y29575D01*
X97300D01*
Y29550D01*
X97325D01*
Y29525D01*
X97350D01*
Y29500D01*
X97400D01*
Y29475D01*
X97425D01*
Y29450D01*
X97450D01*
Y29425D01*
X97475D01*
Y29400D01*
X97500D01*
Y29375D01*
X97525D01*
Y29350D01*
X97575D01*
Y29325D01*
X97600D01*
Y29300D01*
X97625D01*
Y29275D01*
X97650D01*
Y29250D01*
X97675D01*
Y29225D01*
X97725D01*
Y29200D01*
X97750D01*
Y29175D01*
X97775D01*
Y29150D01*
X97800D01*
Y29125D01*
X97825D01*
Y29100D01*
X97875D01*
Y29075D01*
X97900D01*
Y29050D01*
X97925D01*
Y29025D01*
X97950D01*
Y29000D01*
X97975D01*
Y28975D01*
X98025D01*
Y28950D01*
X98050D01*
Y28925D01*
X98075D01*
Y28900D01*
X98100D01*
Y28875D01*
X98125D01*
Y28850D01*
X98175D01*
Y28825D01*
X98200D01*
Y28800D01*
X98225D01*
Y28775D01*
X98250D01*
Y28750D01*
X98275D01*
Y28725D01*
X98300D01*
Y28700D01*
X98350D01*
Y28675D01*
X98375D01*
Y28650D01*
X98400D01*
Y28625D01*
X98425D01*
Y28600D01*
X98475D01*
Y28575D01*
X98500D01*
Y28550D01*
X98525D01*
Y28525D01*
X98550D01*
Y28500D01*
X98575D01*
Y28475D01*
X98600D01*
Y28450D01*
X98650D01*
Y28425D01*
X98675D01*
Y28400D01*
X98700D01*
Y28375D01*
X98725D01*
Y28350D01*
X98750D01*
Y28325D01*
X98800D01*
Y28300D01*
X98825D01*
Y28275D01*
X98850D01*
Y28250D01*
X98875D01*
Y28225D01*
X98900D01*
Y28200D01*
X98950D01*
Y28175D01*
X98975D01*
Y28150D01*
X99000D01*
Y28125D01*
X99025D01*
Y28100D01*
X99050D01*
Y28075D01*
X99100D01*
Y28050D01*
X99125D01*
Y28025D01*
X99150D01*
Y28000D01*
X99175D01*
Y27975D01*
X99200D01*
Y27950D01*
X99250D01*
Y27925D01*
X99275D01*
Y27900D01*
X99300D01*
Y27875D01*
X99325D01*
Y27850D01*
X99350D01*
Y27825D01*
X99375D01*
Y27800D01*
X99425D01*
Y27775D01*
X99450D01*
Y27750D01*
X99475D01*
Y27725D01*
X99500D01*
Y27700D01*
X99525D01*
Y27675D01*
X99575D01*
Y27650D01*
X99600D01*
Y27625D01*
X99625D01*
Y27600D01*
X99650D01*
Y27575D01*
X99675D01*
Y27550D01*
X99725D01*
Y27525D01*
X99750D01*
Y27500D01*
X99775D01*
Y27475D01*
X99800D01*
Y27450D01*
X99825D01*
Y27425D01*
X99875D01*
Y27400D01*
X99900D01*
Y27375D01*
X99925D01*
Y27350D01*
X99950D01*
Y27325D01*
X99975D01*
Y27300D01*
X100025D01*
Y27275D01*
X100050D01*
Y27250D01*
X100075D01*
Y27225D01*
X100100D01*
Y27200D01*
X100125D01*
Y27175D01*
X100175D01*
Y27150D01*
X100200D01*
Y27125D01*
X100225D01*
Y27100D01*
X100250D01*
Y27075D01*
X100275D01*
Y27050D01*
X100325D01*
Y27025D01*
X100350D01*
Y27000D01*
X100375D01*
Y26975D01*
X100400D01*
Y26950D01*
X100425D01*
Y26925D01*
X100450D01*
Y26900D01*
X100500D01*
Y26875D01*
X100525D01*
Y26850D01*
X100550D01*
Y26825D01*
X100575D01*
Y26800D01*
X100625D01*
Y26775D01*
X100650D01*
Y26750D01*
X100675D01*
Y26725D01*
X100700D01*
Y26700D01*
X100725D01*
Y26675D01*
X100750D01*
Y26650D01*
X100800D01*
Y26625D01*
X100825D01*
Y26600D01*
X100850D01*
Y26575D01*
X100875D01*
Y26550D01*
X100900D01*
Y26525D01*
X100950D01*
Y26500D01*
X100975D01*
Y26475D01*
X101000D01*
Y26450D01*
X101025D01*
Y26425D01*
X101050D01*
Y26400D01*
X101100D01*
Y26375D01*
X101125D01*
Y26350D01*
X101150D01*
Y26325D01*
X101175D01*
Y26300D01*
X101200D01*
Y26275D01*
X101225D01*
Y26250D01*
X101250D01*
Y26225D01*
X101275D01*
Y26200D01*
X101300D01*
Y26175D01*
X101325D01*
Y26150D01*
X101350D01*
Y26125D01*
X101400D01*
Y26075D01*
X101425D01*
Y26050D01*
X101450D01*
Y26025D01*
X101475D01*
Y26000D01*
X101500D01*
Y25950D01*
X101525D01*
Y25925D01*
X101550D01*
Y25875D01*
X101575D01*
Y25800D01*
X101600D01*
Y25750D01*
X101625D01*
Y25650D01*
X101650D01*
Y21550D01*
X101625D01*
Y21450D01*
X101600D01*
Y21400D01*
X101575D01*
Y21350D01*
X101550D01*
Y21300D01*
X101525D01*
Y21250D01*
X101500D01*
Y21225D01*
X101475D01*
Y21175D01*
X101450D01*
Y21150D01*
X101425D01*
Y21125D01*
X101400D01*
Y21100D01*
X101375D01*
Y21075D01*
X101350D01*
Y21050D01*
X101325D01*
Y21025D01*
X101275D01*
Y21000D01*
X101250D01*
Y20975D01*
X101200D01*
Y20950D01*
X101150D01*
Y20925D01*
X101100D01*
Y20900D01*
X101025D01*
Y20875D01*
X100950D01*
Y20850D01*
X97850D01*
Y20825D01*
X93425D01*
Y20850D01*
X92525D01*
Y20875D01*
X92425D01*
Y20900D01*
X92375D01*
Y20925D01*
X92325D01*
Y20950D01*
X92275D01*
Y20975D01*
X92225D01*
Y21000D01*
X92200D01*
Y21025D01*
X92150D01*
Y21050D01*
X92125D01*
Y21075D01*
X92100D01*
Y21100D01*
X92075D01*
Y21125D01*
X92050D01*
Y21150D01*
X92025D01*
Y21175D01*
X92000D01*
Y21200D01*
X91975D01*
Y21250D01*
X91950D01*
Y21275D01*
X91925D01*
Y21300D01*
Y21325D01*
X91900D01*
Y21375D01*
X91875D01*
Y21425D01*
X91850D01*
Y21525D01*
X91825D01*
Y21650D01*
X91800D01*
Y29075D01*
X91825D01*
Y29225D01*
X91850D01*
Y29300D01*
X91875D01*
Y29350D01*
X91900D01*
Y29400D01*
X91925D01*
Y29450D01*
X91950D01*
Y29500D01*
X91975D01*
Y29525D01*
X92000D01*
Y29550D01*
X92025D01*
Y29575D01*
X92050D01*
Y29600D01*
X92075D01*
Y29625D01*
X92100D01*
Y29650D01*
X92125D01*
Y29675D01*
X92150D01*
Y29700D01*
X92175D01*
Y29725D01*
X92200D01*
Y29750D01*
X92250D01*
Y29775D01*
X92300D01*
Y29800D01*
X92350D01*
Y29825D01*
X92425D01*
Y29850D01*
X92500D01*
Y29875D01*
X92675D01*
Y29900D01*
X96550D01*
Y29875D01*
D02*
G37*
G36*
X32011Y981D02*
X30202D01*
Y2801D01*
X32011D01*
Y981D01*
D02*
G37*
G36*
Y-7000D02*
X30202D01*
Y381D01*
X32011D01*
Y-7000D01*
D02*
G37*
G36*
X27516Y370D02*
X27682Y348D01*
X27838Y304D01*
X27971Y259D01*
X28082Y215D01*
X28159Y170D01*
X28215Y148D01*
X28237Y137D01*
X28381Y37D01*
X28503Y-63D01*
X28614Y-174D01*
X28714Y-285D01*
X28792Y-373D01*
X28848Y-451D01*
X28881Y-496D01*
X28892Y-518D01*
X28970Y-673D01*
X29036Y-829D01*
X29081Y-984D01*
X29103Y-1117D01*
X29125Y-1239D01*
X29136Y-1339D01*
Y-1395D01*
Y-1406D01*
Y-1417D01*
Y-5213D01*
X29125Y-5390D01*
X29103Y-5557D01*
X29058Y-5701D01*
X29014Y-5835D01*
X28970Y-5946D01*
X28925Y-6034D01*
X28903Y-6079D01*
X28892Y-6101D01*
X28792Y-6245D01*
X28681Y-6378D01*
X28570Y-6489D01*
X28470Y-6578D01*
X28381Y-6656D01*
X28304Y-6711D01*
X28259Y-6745D01*
X28237Y-6756D01*
X28082Y-6834D01*
X27926Y-6900D01*
X27771Y-6945D01*
X27638Y-6967D01*
X27516Y-6989D01*
X27416Y-7000D01*
X23442D01*
X23253Y-6989D01*
X23087Y-6967D01*
X22931Y-6922D01*
X22798Y-6878D01*
X22687Y-6834D01*
X22598Y-6789D01*
X22554Y-6767D01*
X22532Y-6756D01*
X22387Y-6656D01*
X22265Y-6545D01*
X22154Y-6445D01*
X22055Y-6334D01*
X21988Y-6245D01*
X21932Y-6168D01*
X21899Y-6123D01*
X21888Y-6101D01*
X21799Y-5946D01*
X21744Y-5790D01*
X21699Y-5635D01*
X21666Y-5501D01*
X21655Y-5390D01*
X21644Y-5291D01*
Y-5235D01*
Y-5213D01*
Y-1417D01*
X21655Y-1239D01*
X21677Y-1073D01*
X21721Y-917D01*
X21755Y-784D01*
X21799Y-673D01*
X21844Y-584D01*
X21866Y-540D01*
X21877Y-518D01*
X21966Y-373D01*
X22077Y-240D01*
X22188Y-129D01*
X22288Y-29D01*
X22376Y37D01*
X22454Y93D01*
X22499Y126D01*
X22521Y137D01*
X22676Y215D01*
X22843Y281D01*
X22987Y326D01*
X23131Y348D01*
X23253Y370D01*
X23353Y381D01*
X27338D01*
X27516Y370D01*
D02*
G37*
G36*
X157856Y153880D02*
X160961Y149222D01*
X158797D01*
X156798Y152259D01*
X154809Y149222D01*
X152636D01*
X155721Y153889D01*
X152907Y158178D01*
X155003D01*
X156789Y155490D01*
X158554Y158178D01*
X160670D01*
X157856Y153880D01*
D02*
G37*
G36*
X180881Y149222D02*
X179076D01*
Y151920D01*
X177621Y153424D01*
X175146Y149222D01*
X172808D01*
X176369Y154695D01*
X172983Y158178D01*
X175418D01*
X179076Y154200D01*
Y158178D01*
X180881D01*
Y149222D01*
D02*
G37*
G36*
X94400Y153996D02*
X92682D01*
Y155713D01*
X94400D01*
Y153996D01*
D02*
G37*
G36*
X134307Y149222D02*
X132638D01*
Y155102D01*
X129010Y149222D01*
X127205D01*
Y158178D01*
X128874D01*
Y152162D01*
X132561Y158178D01*
X134307D01*
Y149222D01*
D02*
G37*
G36*
X103724D02*
X102055D01*
Y155102D01*
X98426Y149222D01*
X96622D01*
Y158178D01*
X98290D01*
Y152162D01*
X101978Y158178D01*
X103724D01*
Y149222D01*
D02*
G37*
G36*
X186411Y158314D02*
X186741Y158275D01*
X187052Y158207D01*
X187343Y158129D01*
X187614Y158032D01*
X187857Y157935D01*
X188090Y157819D01*
X188294Y157703D01*
X188478Y157586D01*
X188643Y157479D01*
X188779Y157373D01*
X188895Y157276D01*
X188992Y157198D01*
X189050Y157140D01*
X189099Y157091D01*
X189109Y157081D01*
X189312Y156839D01*
X189487Y156577D01*
X189642Y156305D01*
X189768Y156024D01*
X189885Y155733D01*
X189972Y155442D01*
X190050Y155160D01*
X190108Y154879D01*
X190156Y154627D01*
X190195Y154384D01*
X190215Y154161D01*
X190234Y153977D01*
X190244Y153821D01*
X190254Y153763D01*
Y153705D01*
Y153666D01*
Y153637D01*
Y153618D01*
Y153608D01*
X190244Y153220D01*
X190205Y152861D01*
X190147Y152521D01*
X190079Y152201D01*
X189992Y151900D01*
X189895Y151629D01*
X189788Y151376D01*
X189681Y151153D01*
X189574Y150949D01*
X189468Y150775D01*
X189371Y150629D01*
X189283Y150503D01*
X189215Y150406D01*
X189157Y150338D01*
X189118Y150290D01*
X189109Y150280D01*
X188885Y150066D01*
X188653Y149882D01*
X188410Y149717D01*
X188167Y149581D01*
X187925Y149465D01*
X187682Y149368D01*
X187440Y149281D01*
X187217Y149222D01*
X187003Y149164D01*
X186799Y149135D01*
X186625Y149106D01*
X186479Y149086D01*
X186353Y149077D01*
X186256Y149067D01*
X186178D01*
X185916Y149077D01*
X185664Y149096D01*
X185422Y149135D01*
X185198Y149174D01*
X184985Y149232D01*
X184791Y149290D01*
X184606Y149358D01*
X184451Y149426D01*
X184296Y149484D01*
X184170Y149552D01*
X184063Y149610D01*
X183966Y149669D01*
X183898Y149707D01*
X183840Y149746D01*
X183811Y149766D01*
X183801Y149775D01*
X183627Y149921D01*
X183471Y150076D01*
X183326Y150241D01*
X183190Y150425D01*
X183074Y150600D01*
X182957Y150784D01*
X182860Y150969D01*
X182773Y151143D01*
X182695Y151308D01*
X182627Y151464D01*
X182579Y151609D01*
X182530Y151726D01*
X182491Y151832D01*
X182472Y151900D01*
X182453Y151949D01*
Y151968D01*
X184209Y152512D01*
X184257Y152337D01*
X184306Y152162D01*
X184364Y152007D01*
X184422Y151871D01*
X184490Y151735D01*
X184548Y151619D01*
X184616Y151512D01*
X184674Y151415D01*
X184733Y151337D01*
X184791Y151260D01*
X184839Y151202D01*
X184878Y151153D01*
X184917Y151114D01*
X184946Y151085D01*
X184956Y151075D01*
X184965Y151066D01*
X185063Y150988D01*
X185169Y150920D01*
X185373Y150804D01*
X185577Y150726D01*
X185771Y150668D01*
X185945Y150639D01*
X186013Y150619D01*
X186081D01*
X186130Y150610D01*
X186198D01*
X186372Y150619D01*
X186547Y150639D01*
X186712Y150678D01*
X186858Y150726D01*
X187003Y150775D01*
X187129Y150833D01*
X187255Y150901D01*
X187362Y150969D01*
X187459Y151037D01*
X187547Y151105D01*
X187614Y151163D01*
X187682Y151211D01*
X187721Y151260D01*
X187760Y151299D01*
X187779Y151318D01*
X187789Y151328D01*
X187896Y151473D01*
X187983Y151638D01*
X188070Y151813D01*
X188138Y152007D01*
X188197Y152211D01*
X188245Y152405D01*
X188313Y152803D01*
X188342Y152997D01*
X188361Y153171D01*
X188371Y153327D01*
X188381Y153472D01*
X188391Y153579D01*
Y153666D01*
Y153724D01*
Y153744D01*
X188381Y154035D01*
X188361Y154306D01*
X188332Y154549D01*
X188294Y154782D01*
X188245Y154995D01*
X188197Y155180D01*
X188138Y155354D01*
X188080Y155500D01*
X188032Y155636D01*
X187973Y155752D01*
X187925Y155849D01*
X187876Y155927D01*
X187838Y155985D01*
X187808Y156034D01*
X187789Y156053D01*
X187779Y156063D01*
X187663Y156189D01*
X187527Y156296D01*
X187401Y156393D01*
X187265Y156480D01*
X187129Y156548D01*
X186993Y156606D01*
X186858Y156655D01*
X186731Y156693D01*
X186615Y156722D01*
X186508Y156742D01*
X186411Y156761D01*
X186324Y156771D01*
X186256Y156781D01*
X186159D01*
X185897Y156761D01*
X185664Y156713D01*
X185460Y156655D01*
X185276Y156577D01*
X185131Y156499D01*
X185072Y156470D01*
X185024Y156441D01*
X184985Y156412D01*
X184956Y156393D01*
X184946Y156383D01*
X184936Y156373D01*
X184762Y156208D01*
X184616Y156034D01*
X184500Y155849D01*
X184412Y155675D01*
X184345Y155519D01*
X184315Y155451D01*
X184296Y155393D01*
X184286Y155345D01*
X184277Y155306D01*
X184267Y155287D01*
Y155277D01*
X182482Y155704D01*
X182540Y155898D01*
X182608Y156082D01*
X182685Y156247D01*
X182753Y156412D01*
X182831Y156558D01*
X182908Y156693D01*
X182986Y156810D01*
X183054Y156926D01*
X183132Y157023D01*
X183190Y157111D01*
X183248Y157179D01*
X183306Y157237D01*
X183345Y157285D01*
X183374Y157314D01*
X183394Y157334D01*
X183403Y157344D01*
X183607Y157518D01*
X183811Y157664D01*
X184034Y157800D01*
X184257Y157906D01*
X184480Y158003D01*
X184704Y158081D01*
X184917Y158149D01*
X185121Y158197D01*
X185315Y158246D01*
X185499Y158275D01*
X185664Y158294D01*
X185800Y158304D01*
X185916Y158314D01*
X185994Y158323D01*
X186072D01*
X186411Y158314D01*
D02*
G37*
G36*
X208000Y149222D02*
X204643D01*
X204361Y149232D01*
X203886D01*
X203682Y149242D01*
X203508D01*
X203352Y149251D01*
X203216D01*
X203110Y149261D01*
X203013D01*
X202935Y149271D01*
X202877D01*
X202828Y149281D01*
X202780D01*
X202518Y149319D01*
X202285Y149377D01*
X202072Y149445D01*
X201897Y149523D01*
X201761Y149591D01*
X201703Y149620D01*
X201654Y149640D01*
X201616Y149669D01*
X201586Y149688D01*
X201577Y149698D01*
X201567D01*
X201392Y149833D01*
X201237Y149989D01*
X201101Y150144D01*
X200995Y150290D01*
X200907Y150416D01*
X200839Y150522D01*
X200820Y150561D01*
X200800Y150590D01*
X200791Y150610D01*
Y150619D01*
X200694Y150843D01*
X200626Y151056D01*
X200568Y151250D01*
X200539Y151434D01*
X200519Y151590D01*
X200509Y151658D01*
X200500Y151706D01*
Y151755D01*
Y151784D01*
Y151803D01*
Y151813D01*
Y151958D01*
X200519Y152094D01*
X200568Y152356D01*
X200645Y152579D01*
X200723Y152783D01*
X200762Y152861D01*
X200800Y152938D01*
X200839Y153006D01*
X200878Y153065D01*
X200907Y153103D01*
X200927Y153132D01*
X200936Y153152D01*
X200946Y153162D01*
X201121Y153365D01*
X201325Y153530D01*
X201538Y153676D01*
X201732Y153783D01*
X201916Y153870D01*
X201994Y153899D01*
X202062Y153928D01*
X202120Y153947D01*
X202159Y153967D01*
X202188Y153977D01*
X202198D01*
X201994Y154083D01*
X201810Y154209D01*
X201654Y154345D01*
X201518Y154472D01*
X201412Y154588D01*
X201334Y154675D01*
X201315Y154714D01*
X201295Y154743D01*
X201276Y154753D01*
Y154763D01*
X201159Y154966D01*
X201082Y155160D01*
X201024Y155354D01*
X200975Y155539D01*
X200956Y155694D01*
X200946Y155752D01*
Y155810D01*
X200936Y155859D01*
Y155888D01*
Y155907D01*
Y155917D01*
X200946Y156131D01*
X200975Y156325D01*
X201024Y156509D01*
X201072Y156664D01*
X201130Y156790D01*
X201169Y156888D01*
X201189Y156917D01*
X201208Y156946D01*
X201218Y156955D01*
Y156965D01*
X201325Y157130D01*
X201441Y157276D01*
X201557Y157402D01*
X201664Y157518D01*
X201761Y157596D01*
X201839Y157664D01*
X201887Y157703D01*
X201897Y157712D01*
X201907D01*
X202062Y157809D01*
X202227Y157887D01*
X202382Y157955D01*
X202528Y158003D01*
X202654Y158042D01*
X202751Y158062D01*
X202790Y158071D01*
X202819Y158081D01*
X202838D01*
X202945Y158100D01*
X203052Y158110D01*
X203304Y158139D01*
X203566Y158159D01*
X203828Y158168D01*
X203944D01*
X204061Y158178D01*
X208000D01*
Y149222D01*
D02*
G37*
G36*
X199879D02*
X197967D01*
X197220Y151260D01*
X193640D01*
X192854Y149222D01*
X190884D01*
X194474Y158178D01*
X196395D01*
X199879Y149222D01*
D02*
G37*
G36*
X168393D02*
X161582D01*
Y150736D01*
X166588D01*
Y153171D01*
X162096D01*
Y154685D01*
X166588D01*
Y156664D01*
X161756D01*
Y158178D01*
X168393D01*
Y149222D01*
D02*
G37*
G36*
X151704D02*
X149900D01*
Y152599D01*
X148502D01*
X148289Y152608D01*
X148095D01*
X147910Y152618D01*
X147746Y152628D01*
X147590Y152638D01*
X147445Y152647D01*
X147319Y152667D01*
X147212Y152676D01*
X147115Y152686D01*
X147028Y152696D01*
X146960Y152706D01*
X146911Y152715D01*
X146872D01*
X146853Y152725D01*
X146843D01*
X146669Y152774D01*
X146494Y152832D01*
X146339Y152900D01*
X146203Y152968D01*
X146077Y153035D01*
X145989Y153094D01*
X145931Y153132D01*
X145921Y153142D01*
X145912D01*
X145747Y153278D01*
X145592Y153424D01*
X145465Y153569D01*
X145349Y153705D01*
X145262Y153831D01*
X145204Y153938D01*
X145174Y153977D01*
X145155Y154006D01*
X145145Y154015D01*
Y154025D01*
X145048Y154248D01*
X144971Y154481D01*
X144922Y154714D01*
X144883Y154928D01*
X144874Y155034D01*
X144864Y155122D01*
X144854Y155209D01*
X144845Y155277D01*
Y155335D01*
Y155374D01*
Y155403D01*
Y155413D01*
X144854Y155607D01*
X144864Y155801D01*
X144893Y155975D01*
X144922Y156140D01*
X144961Y156296D01*
X145009Y156441D01*
X145058Y156567D01*
X145106Y156693D01*
X145155Y156800D01*
X145204Y156888D01*
X145242Y156975D01*
X145291Y157043D01*
X145320Y157091D01*
X145349Y157130D01*
X145359Y157149D01*
X145368Y157159D01*
X145465Y157285D01*
X145572Y157392D01*
X145679Y157489D01*
X145795Y157586D01*
X146009Y157741D01*
X146213Y157858D01*
X146387Y157945D01*
X146465Y157974D01*
X146533Y158003D01*
X146581Y158023D01*
X146620Y158032D01*
X146649Y158042D01*
X146659D01*
X146766Y158062D01*
X146892Y158091D01*
X147037Y158110D01*
X147202Y158120D01*
X147377Y158129D01*
X147551Y158149D01*
X147920Y158159D01*
X148095Y158168D01*
X148250D01*
X148405Y158178D01*
X151704D01*
Y149222D01*
D02*
G37*
G36*
X144272D02*
X142360D01*
X141613Y151260D01*
X138033D01*
X137247Y149222D01*
X135278Y149222D01*
X138868Y158178D01*
X140789D01*
X144272Y149222D01*
D02*
G37*
G36*
X117007Y149222D02*
X115202D01*
Y158178D01*
X117007D01*
Y149222D01*
D02*
G37*
G36*
X94400D02*
X92682D01*
Y150940D01*
X94400D01*
Y149222D01*
D02*
G37*
G36*
X122538Y158314D02*
X122703Y158294D01*
X122877Y158275D01*
X123033Y158246D01*
X123178Y158226D01*
X123304Y158197D01*
X123430Y158168D01*
X123547Y158129D01*
X123644Y158100D01*
X123722Y158081D01*
X123799Y158052D01*
X123848Y158032D01*
X123896Y158013D01*
X123916Y158003D01*
X123925D01*
X124178Y157877D01*
X124410Y157732D01*
X124595Y157586D01*
X124760Y157441D01*
X124876Y157305D01*
X124973Y157198D01*
X125002Y157159D01*
X125022Y157130D01*
X125041Y157111D01*
Y157101D01*
X125167Y156878D01*
X125264Y156655D01*
X125332Y156431D01*
X125381Y156237D01*
X125410Y156072D01*
X125420Y155995D01*
Y155937D01*
X125429Y155888D01*
Y155849D01*
Y155830D01*
Y155820D01*
X125420Y155626D01*
X125390Y155442D01*
X125351Y155257D01*
X125303Y155092D01*
X125235Y154937D01*
X125167Y154782D01*
X125090Y154646D01*
X125012Y154520D01*
X124944Y154403D01*
X124866Y154306D01*
X124798Y154219D01*
X124731Y154151D01*
X124682Y154093D01*
X124643Y154054D01*
X124614Y154025D01*
X124604Y154015D01*
X124488Y153918D01*
X124352Y153831D01*
X124197Y153744D01*
X124042Y153656D01*
X123702Y153511D01*
X123363Y153375D01*
X123207Y153327D01*
X123062Y153278D01*
X122926Y153230D01*
X122800Y153200D01*
X122703Y153171D01*
X122635Y153152D01*
X122586Y153132D01*
X122567D01*
X122363Y153084D01*
X122179Y153035D01*
X122014Y152997D01*
X121868Y152958D01*
X121732Y152919D01*
X121616Y152890D01*
X121509Y152861D01*
X121422Y152832D01*
X121344Y152812D01*
X121286Y152793D01*
X121228Y152774D01*
X121189Y152764D01*
X121160Y152754D01*
X121140D01*
X121121Y152744D01*
X120956Y152676D01*
X120820Y152618D01*
X120714Y152550D01*
X120617Y152492D01*
X120558Y152434D01*
X120510Y152395D01*
X120481Y152366D01*
X120471Y152356D01*
X120403Y152269D01*
X120355Y152182D01*
X120325Y152085D01*
X120296Y151997D01*
X120287Y151929D01*
X120277Y151871D01*
Y151823D01*
Y151813D01*
Y151726D01*
X120296Y151638D01*
X120345Y151473D01*
X120422Y151318D01*
X120500Y151192D01*
X120578Y151095D01*
X120655Y151017D01*
X120704Y150969D01*
X120714Y150949D01*
X120723D01*
X120811Y150881D01*
X120908Y150823D01*
X121121Y150736D01*
X121344Y150668D01*
X121558Y150629D01*
X121752Y150600D01*
X121829Y150590D01*
X121907D01*
X121965Y150581D01*
X122053D01*
X122344Y150600D01*
X122606Y150648D01*
X122829Y150707D01*
X123023Y150784D01*
X123101Y150823D01*
X123168Y150862D01*
X123236Y150891D01*
X123285Y150920D01*
X123324Y150949D01*
X123353Y150969D01*
X123363Y150988D01*
X123372D01*
X123460Y151075D01*
X123537Y151163D01*
X123673Y151367D01*
X123789Y151590D01*
X123877Y151803D01*
X123935Y151997D01*
X123964Y152075D01*
X123983Y152153D01*
X123993Y152211D01*
X124003Y152259D01*
X124013Y152288D01*
Y152298D01*
X125769Y152123D01*
X125730Y151852D01*
X125672Y151590D01*
X125604Y151357D01*
X125526Y151134D01*
X125439Y150930D01*
X125351Y150736D01*
X125254Y150571D01*
X125157Y150416D01*
X125070Y150280D01*
X124983Y150163D01*
X124895Y150066D01*
X124828Y149979D01*
X124769Y149921D01*
X124721Y149872D01*
X124692Y149843D01*
X124682Y149833D01*
X124498Y149698D01*
X124304Y149581D01*
X124100Y149474D01*
X123886Y149387D01*
X123673Y149310D01*
X123460Y149251D01*
X123246Y149193D01*
X123033Y149154D01*
X122838Y149125D01*
X122654Y149096D01*
X122489Y149077D01*
X122353Y149067D01*
X122237D01*
X122150Y149057D01*
X121859D01*
X121655Y149067D01*
X121451Y149086D01*
X121276Y149106D01*
X121102Y149135D01*
X120937Y149154D01*
X120791Y149183D01*
X120655Y149222D01*
X120539Y149251D01*
X120432Y149280D01*
X120335Y149300D01*
X120258Y149329D01*
X120199Y149348D01*
X120161Y149368D01*
X120131Y149377D01*
X120122D01*
X119840Y149513D01*
X119598Y149669D01*
X119394Y149843D01*
X119219Y149999D01*
X119083Y150144D01*
X119035Y150212D01*
X118987Y150270D01*
X118957Y150309D01*
X118928Y150348D01*
X118909Y150367D01*
Y150377D01*
X118831Y150503D01*
X118763Y150639D01*
X118657Y150891D01*
X118579Y151134D01*
X118531Y151357D01*
X118511Y151454D01*
X118492Y151541D01*
X118482Y151629D01*
Y151696D01*
X118472Y151745D01*
Y151793D01*
Y151813D01*
Y151823D01*
X118492Y152123D01*
X118531Y152405D01*
X118589Y152647D01*
X118618Y152754D01*
X118647Y152851D01*
X118686Y152938D01*
X118715Y153016D01*
X118744Y153084D01*
X118773Y153142D01*
X118802Y153191D01*
X118812Y153220D01*
X118831Y153239D01*
Y153249D01*
X118977Y153453D01*
X119142Y153637D01*
X119307Y153792D01*
X119462Y153928D01*
X119607Y154025D01*
X119724Y154103D01*
X119772Y154122D01*
X119802Y154142D01*
X119821Y154161D01*
X119831D01*
X119957Y154219D01*
X120093Y154287D01*
X120248Y154345D01*
X120403Y154403D01*
X120723Y154510D01*
X121044Y154607D01*
X121189Y154646D01*
X121335Y154685D01*
X121451Y154724D01*
X121567Y154753D01*
X121655Y154772D01*
X121723Y154792D01*
X121762Y154801D01*
X121781D01*
X122014Y154860D01*
X122227Y154918D01*
X122421Y154976D01*
X122596Y155034D01*
X122751Y155083D01*
X122887Y155131D01*
X123004Y155180D01*
X123101Y155219D01*
X123188Y155257D01*
X123265Y155296D01*
X123324Y155325D01*
X123363Y155354D01*
X123401Y155374D01*
X123421Y155393D01*
X123440Y155403D01*
X123527Y155490D01*
X123595Y155578D01*
X123634Y155675D01*
X123673Y155762D01*
X123692Y155830D01*
X123702Y155898D01*
Y155937D01*
Y155946D01*
X123692Y156072D01*
X123653Y156179D01*
X123615Y156276D01*
X123556Y156354D01*
X123508Y156412D01*
X123460Y156461D01*
X123430Y156490D01*
X123421Y156499D01*
X123236Y156606D01*
X123042Y156693D01*
X122829Y156752D01*
X122635Y156790D01*
X122450Y156810D01*
X122373Y156819D01*
X122305Y156829D01*
X122179D01*
X121907Y156819D01*
X121674Y156781D01*
X121480Y156732D01*
X121315Y156674D01*
X121189Y156616D01*
X121102Y156567D01*
X121053Y156528D01*
X121034Y156519D01*
X120898Y156393D01*
X120791Y156237D01*
X120704Y156072D01*
X120636Y155917D01*
X120588Y155772D01*
X120568Y155704D01*
X120549Y155646D01*
X120539Y155607D01*
Y155568D01*
X120529Y155548D01*
Y155539D01*
X118724Y155607D01*
X118744Y155830D01*
X118773Y156043D01*
X118822Y156247D01*
X118890Y156431D01*
X118957Y156606D01*
X119035Y156771D01*
X119113Y156917D01*
X119190Y157052D01*
X119278Y157169D01*
X119355Y157276D01*
X119423Y157373D01*
X119491Y157441D01*
X119549Y157499D01*
X119588Y157547D01*
X119617Y157567D01*
X119627Y157576D01*
X119792Y157712D01*
X119976Y157819D01*
X120180Y157926D01*
X120384Y158013D01*
X120588Y158081D01*
X120801Y158139D01*
X121014Y158188D01*
X121208Y158226D01*
X121403Y158265D01*
X121587Y158285D01*
X121742Y158304D01*
X121888Y158314D01*
X121994Y158323D01*
X122159D01*
X122538Y158314D01*
D02*
G37*
G36*
X109914Y158304D02*
X110283Y158265D01*
X110448Y158236D01*
X110613Y158207D01*
X110758Y158178D01*
X110894Y158149D01*
X111020Y158110D01*
X111127Y158081D01*
X111224Y158052D01*
X111302Y158023D01*
X111360Y157994D01*
X111409Y157984D01*
X111438Y157964D01*
X111447D01*
X111680Y157858D01*
X111894Y157732D01*
X112098Y157596D01*
X112262Y157460D01*
X112408Y157344D01*
X112466Y157295D01*
X112515Y157246D01*
X112554Y157208D01*
X112583Y157178D01*
X112602Y157169D01*
X112612Y157159D01*
X112796Y156946D01*
X112961Y156742D01*
X113107Y156528D01*
X113223Y156344D01*
X113310Y156169D01*
X113349Y156102D01*
X113378Y156043D01*
X113407Y155995D01*
X113427Y155956D01*
X113436Y155937D01*
Y155927D01*
X113504Y155752D01*
X113572Y155558D01*
X113669Y155180D01*
X113747Y154792D01*
X113766Y154607D01*
X113795Y154433D01*
X113805Y154258D01*
X113825Y154112D01*
X113834Y153977D01*
Y153860D01*
X113844Y153763D01*
Y153686D01*
Y153647D01*
Y153627D01*
X113834Y153239D01*
X113795Y152871D01*
X113737Y152521D01*
X113660Y152201D01*
X113572Y151900D01*
X113475Y151629D01*
X113369Y151376D01*
X113252Y151153D01*
X113145Y150949D01*
X113039Y150775D01*
X112942Y150619D01*
X112854Y150493D01*
X112777Y150396D01*
X112718Y150328D01*
X112680Y150289D01*
X112670Y150270D01*
X112437Y150057D01*
X112194Y149872D01*
X111942Y149707D01*
X111680Y149572D01*
X111418Y149455D01*
X111147Y149358D01*
X110894Y149271D01*
X110642Y149213D01*
X110409Y149154D01*
X110196Y149125D01*
X109992Y149096D01*
X109827Y149077D01*
X109691Y149067D01*
X109585Y149057D01*
X109497D01*
X109138Y149067D01*
X108789Y149106D01*
X108469Y149174D01*
X108168Y149251D01*
X107886Y149339D01*
X107625Y149445D01*
X107392Y149552D01*
X107178Y149669D01*
X106984Y149785D01*
X106819Y149892D01*
X106674Y149999D01*
X106557Y150086D01*
X106460Y150163D01*
X106402Y150231D01*
X106354Y150270D01*
X106344Y150280D01*
X106130Y150522D01*
X105956Y150775D01*
X105791Y151046D01*
X105655Y151328D01*
X105548Y151609D01*
X105451Y151890D01*
X105373Y152172D01*
X105306Y152434D01*
X105257Y152686D01*
X105218Y152929D01*
X105199Y153132D01*
X105179Y153317D01*
X105170Y153472D01*
X105160Y153530D01*
Y153579D01*
Y153618D01*
Y153647D01*
Y153666D01*
Y153676D01*
X105170Y154074D01*
X105209Y154452D01*
X105267Y154801D01*
X105344Y155131D01*
X105432Y155432D01*
X105538Y155713D01*
X105645Y155975D01*
X105752Y156199D01*
X105868Y156412D01*
X105975Y156587D01*
X106072Y156742D01*
X106169Y156868D01*
X106247Y156965D01*
X106305Y157033D01*
X106344Y157081D01*
X106354Y157091D01*
X106586Y157305D01*
X106829Y157499D01*
X107081Y157664D01*
X107343Y157800D01*
X107615Y157926D01*
X107877Y158023D01*
X108129Y158100D01*
X108381Y158168D01*
X108614Y158217D01*
X108828Y158256D01*
X109022Y158285D01*
X109187Y158304D01*
X109323Y158314D01*
X109429Y158323D01*
X109517D01*
X109914Y158304D01*
D02*
G37*
G36*
X188265Y141930D02*
Y138165D01*
X186460D01*
Y141920D01*
X183190Y147121D01*
X185266D01*
X187314Y143579D01*
X189409Y147121D01*
X191534D01*
X188265Y141930D01*
D02*
G37*
G36*
X153761Y138165D02*
X151957D01*
Y140862D01*
X150501Y142366D01*
X148027Y138165D01*
X145689D01*
X149249Y143637D01*
X145863Y147121D01*
X148299D01*
X151957Y143142D01*
Y147121D01*
X153761D01*
Y138165D01*
D02*
G37*
G36*
X159292Y147256D02*
X159622Y147218D01*
X159932Y147150D01*
X160223Y147072D01*
X160495Y146975D01*
X160738Y146878D01*
X160970Y146762D01*
X161174Y146645D01*
X161359Y146529D01*
X161524Y146422D01*
X161659Y146315D01*
X161776Y146218D01*
X161873Y146141D01*
X161931Y146082D01*
X161980Y146034D01*
X161989Y146024D01*
X162193Y145782D01*
X162368Y145520D01*
X162523Y145248D01*
X162649Y144967D01*
X162766Y144676D01*
X162853Y144384D01*
X162931Y144103D01*
X162989Y143822D01*
X163037Y143569D01*
X163076Y143327D01*
X163095Y143104D01*
X163115Y142919D01*
X163125Y142764D01*
X163134Y142706D01*
Y142648D01*
Y142609D01*
Y142580D01*
Y142560D01*
Y142551D01*
X163125Y142163D01*
X163086Y141804D01*
X163027Y141464D01*
X162960Y141144D01*
X162872Y140843D01*
X162775Y140571D01*
X162668Y140319D01*
X162562Y140096D01*
X162455Y139892D01*
X162348Y139717D01*
X162251Y139572D01*
X162164Y139446D01*
X162096Y139349D01*
X162038Y139281D01*
X161999Y139232D01*
X161989Y139223D01*
X161766Y139009D01*
X161533Y138825D01*
X161291Y138660D01*
X161048Y138524D01*
X160806Y138407D01*
X160563Y138310D01*
X160320Y138223D01*
X160097Y138165D01*
X159884Y138107D01*
X159680Y138078D01*
X159505Y138048D01*
X159360Y138029D01*
X159234Y138019D01*
X159137Y138010D01*
X159059D01*
X158797Y138019D01*
X158545Y138039D01*
X158302Y138078D01*
X158079Y138116D01*
X157866Y138175D01*
X157672Y138233D01*
X157487Y138301D01*
X157332Y138369D01*
X157177Y138427D01*
X157051Y138495D01*
X156944Y138553D01*
X156847Y138611D01*
X156779Y138650D01*
X156721Y138689D01*
X156692Y138708D01*
X156682Y138718D01*
X156507Y138864D01*
X156352Y139019D01*
X156206Y139184D01*
X156071Y139368D01*
X155954Y139543D01*
X155838Y139727D01*
X155741Y139911D01*
X155653Y140086D01*
X155576Y140251D01*
X155508Y140406D01*
X155459Y140552D01*
X155411Y140668D01*
X155372Y140775D01*
X155353Y140843D01*
X155333Y140891D01*
Y140911D01*
X157089Y141454D01*
X157138Y141279D01*
X157186Y141105D01*
X157245Y140950D01*
X157303Y140814D01*
X157371Y140678D01*
X157429Y140562D01*
X157497Y140455D01*
X157555Y140358D01*
X157613Y140280D01*
X157672Y140203D01*
X157720Y140144D01*
X157759Y140096D01*
X157798Y140057D01*
X157827Y140028D01*
X157837Y140018D01*
X157846Y140008D01*
X157943Y139931D01*
X158050Y139863D01*
X158254Y139747D01*
X158457Y139669D01*
X158652Y139611D01*
X158826Y139582D01*
X158894Y139562D01*
X158962D01*
X159011Y139552D01*
X159079D01*
X159253Y139562D01*
X159428Y139582D01*
X159593Y139620D01*
X159738Y139669D01*
X159884Y139717D01*
X160010Y139776D01*
X160136Y139844D01*
X160243Y139911D01*
X160340Y139979D01*
X160427Y140047D01*
X160495Y140105D01*
X160563Y140154D01*
X160602Y140203D01*
X160641Y140241D01*
X160660Y140261D01*
X160670Y140271D01*
X160777Y140416D01*
X160864Y140581D01*
X160951Y140756D01*
X161019Y140950D01*
X161077Y141153D01*
X161126Y141348D01*
X161194Y141745D01*
X161223Y141939D01*
X161242Y142114D01*
X161252Y142269D01*
X161262Y142415D01*
X161271Y142521D01*
Y142609D01*
Y142667D01*
Y142687D01*
X161262Y142978D01*
X161242Y143249D01*
X161213Y143492D01*
X161174Y143725D01*
X161126Y143938D01*
X161077Y144122D01*
X161019Y144297D01*
X160961Y144443D01*
X160912Y144579D01*
X160854Y144695D01*
X160806Y144792D01*
X160757Y144870D01*
X160718Y144928D01*
X160689Y144976D01*
X160670Y144996D01*
X160660Y145005D01*
X160544Y145132D01*
X160408Y145238D01*
X160282Y145335D01*
X160146Y145423D01*
X160010Y145491D01*
X159874Y145549D01*
X159738Y145597D01*
X159612Y145636D01*
X159496Y145665D01*
X159389Y145685D01*
X159292Y145704D01*
X159205Y145714D01*
X159137Y145723D01*
X159040D01*
X158778Y145704D01*
X158545Y145655D01*
X158341Y145597D01*
X158157Y145520D01*
X158011Y145442D01*
X157953Y145413D01*
X157904Y145384D01*
X157866Y145355D01*
X157837Y145335D01*
X157827Y145326D01*
X157817Y145316D01*
X157642Y145151D01*
X157497Y144976D01*
X157381Y144792D01*
X157293Y144617D01*
X157225Y144462D01*
X157196Y144394D01*
X157177Y144336D01*
X157167Y144287D01*
X157157Y144249D01*
X157148Y144229D01*
Y144220D01*
X155362Y144646D01*
X155421Y144840D01*
X155488Y145025D01*
X155566Y145190D01*
X155634Y145355D01*
X155712Y145500D01*
X155789Y145636D01*
X155867Y145752D01*
X155935Y145869D01*
X156012Y145966D01*
X156071Y146053D01*
X156129Y146121D01*
X156187Y146180D01*
X156226Y146228D01*
X156255Y146257D01*
X156274Y146277D01*
X156284Y146286D01*
X156488Y146461D01*
X156692Y146606D01*
X156915Y146742D01*
X157138Y146849D01*
X157361Y146946D01*
X157584Y147024D01*
X157798Y147092D01*
X158001Y147140D01*
X158195Y147189D01*
X158380Y147218D01*
X158545Y147237D01*
X158681Y147247D01*
X158797Y147256D01*
X158875Y147266D01*
X158952D01*
X159292Y147256D01*
D02*
G37*
G36*
X174554Y145607D02*
X171896D01*
Y138165D01*
X170091D01*
Y145607D01*
X167452D01*
Y147121D01*
X174554D01*
Y145607D01*
D02*
G37*
G36*
X166346Y138165D02*
X164541D01*
Y147121D01*
X166346D01*
Y138165D01*
D02*
G37*
G36*
X204070Y141318D02*
Y141124D01*
X204080Y140950D01*
X204090Y140785D01*
X204109Y140639D01*
X204129Y140503D01*
X204148Y140387D01*
X204177Y140280D01*
X204196Y140193D01*
X204216Y140115D01*
X204245Y140047D01*
X204264Y139999D01*
X204284Y139950D01*
X204303Y139921D01*
X204313Y139902D01*
X204323Y139882D01*
X204429Y139766D01*
X204565Y139688D01*
X204701Y139630D01*
X204847Y139582D01*
X204973Y139562D01*
X205079Y139552D01*
X205118Y139543D01*
X205177D01*
X205283Y139552D01*
X205390Y139562D01*
X205565Y139620D01*
X205720Y139698D01*
X205846Y139785D01*
X205943Y139873D01*
X206011Y139941D01*
X206059Y139999D01*
X206069Y140008D01*
Y140018D01*
X206108Y140086D01*
X206137Y140154D01*
X206186Y140329D01*
X206224Y140503D01*
X206254Y140688D01*
X206273Y140853D01*
X206283Y140920D01*
Y140989D01*
X206292Y141037D01*
Y141086D01*
Y141105D01*
Y141115D01*
X208000Y140920D01*
X207990Y140659D01*
X207971Y140416D01*
X207932Y140183D01*
X207884Y139970D01*
X207835Y139776D01*
X207777Y139601D01*
X207709Y139436D01*
X207641Y139291D01*
X207573Y139164D01*
X207505Y139048D01*
X207447Y138951D01*
X207398Y138873D01*
X207350Y138815D01*
X207311Y138776D01*
X207292Y138747D01*
X207282Y138737D01*
X207136Y138611D01*
X206991Y138495D01*
X206826Y138398D01*
X206661Y138310D01*
X206486Y138243D01*
X206321Y138184D01*
X206157Y138136D01*
X205991Y138097D01*
X205836Y138058D01*
X205700Y138039D01*
X205574Y138019D01*
X205458Y138010D01*
X205371D01*
X205303Y138000D01*
X205244D01*
X205041Y138010D01*
X204837Y138019D01*
X204653Y138039D01*
X204478Y138078D01*
X204323Y138107D01*
X204167Y138146D01*
X204032Y138194D01*
X203905Y138233D01*
X203799Y138281D01*
X203702Y138320D01*
X203614Y138359D01*
X203546Y138398D01*
X203488Y138427D01*
X203449Y138446D01*
X203430Y138456D01*
X203420Y138466D01*
X203294Y138563D01*
X203178Y138660D01*
X202984Y138864D01*
X202819Y139077D01*
X202683Y139271D01*
X202586Y139455D01*
X202547Y139533D01*
X202518Y139601D01*
X202498Y139649D01*
X202479Y139688D01*
X202469Y139717D01*
Y139727D01*
X202431Y139844D01*
X202402Y139970D01*
X202353Y140251D01*
X202314Y140532D01*
X202295Y140804D01*
X202285Y140930D01*
X202275Y141056D01*
Y141163D01*
X202266Y141250D01*
Y141328D01*
Y141386D01*
Y141425D01*
Y141435D01*
Y147121D01*
X204070D01*
Y141318D01*
D02*
G37*
G36*
X196784Y147247D02*
X197152Y147208D01*
X197317Y147179D01*
X197482Y147150D01*
X197628Y147121D01*
X197764Y147092D01*
X197890Y147053D01*
X197996Y147024D01*
X198093Y146994D01*
X198171Y146965D01*
X198229Y146936D01*
X198278Y146927D01*
X198307Y146907D01*
X198317D01*
X198549Y146800D01*
X198763Y146674D01*
X198967Y146538D01*
X199132Y146403D01*
X199277Y146286D01*
X199335Y146238D01*
X199384Y146189D01*
X199423Y146150D01*
X199452Y146121D01*
X199471Y146111D01*
X199481Y146102D01*
X199665Y145888D01*
X199830Y145685D01*
X199976Y145471D01*
X200092Y145287D01*
X200180Y145112D01*
X200218Y145044D01*
X200247Y144986D01*
X200277Y144937D01*
X200296Y144899D01*
X200306Y144879D01*
Y144870D01*
X200374Y144695D01*
X200441Y144501D01*
X200539Y144122D01*
X200616Y143734D01*
X200636Y143550D01*
X200665Y143375D01*
X200674Y143201D01*
X200694Y143055D01*
X200704Y142919D01*
Y142803D01*
X200713Y142706D01*
Y142628D01*
Y142589D01*
Y142570D01*
X200704Y142182D01*
X200665Y141813D01*
X200606Y141464D01*
X200529Y141144D01*
X200441Y140843D01*
X200345Y140571D01*
X200238Y140319D01*
X200121Y140096D01*
X200015Y139892D01*
X199908Y139717D01*
X199811Y139562D01*
X199723Y139436D01*
X199646Y139339D01*
X199588Y139271D01*
X199549Y139232D01*
X199539Y139213D01*
X199306Y138999D01*
X199064Y138815D01*
X198811Y138650D01*
X198549Y138514D01*
X198288Y138398D01*
X198016Y138301D01*
X197764Y138214D01*
X197511Y138155D01*
X197278Y138097D01*
X197065Y138068D01*
X196861Y138039D01*
X196696Y138019D01*
X196560Y138010D01*
X196454Y138000D01*
X196366D01*
X196007Y138010D01*
X195658Y138048D01*
X195338Y138116D01*
X195037Y138194D01*
X194756Y138281D01*
X194494Y138388D01*
X194261Y138495D01*
X194047Y138611D01*
X193853Y138728D01*
X193688Y138834D01*
X193543Y138941D01*
X193426Y139029D01*
X193329Y139106D01*
X193271Y139174D01*
X193223Y139213D01*
X193213Y139223D01*
X192999Y139465D01*
X192825Y139717D01*
X192660Y139989D01*
X192524Y140271D01*
X192417Y140552D01*
X192320Y140833D01*
X192243Y141115D01*
X192175Y141377D01*
X192126Y141629D01*
X192087Y141871D01*
X192068Y142075D01*
X192049Y142260D01*
X192039Y142415D01*
X192029Y142473D01*
Y142521D01*
Y142560D01*
Y142589D01*
Y142609D01*
Y142619D01*
X192039Y143016D01*
X192078Y143395D01*
X192136Y143744D01*
X192213Y144074D01*
X192301Y144375D01*
X192408Y144656D01*
X192514Y144918D01*
X192621Y145141D01*
X192738Y145355D01*
X192844Y145529D01*
X192941Y145685D01*
X193038Y145811D01*
X193116Y145908D01*
X193174Y145976D01*
X193213Y146024D01*
X193223Y146034D01*
X193456Y146247D01*
X193698Y146441D01*
X193950Y146606D01*
X194212Y146742D01*
X194484Y146868D01*
X194746Y146965D01*
X194998Y147043D01*
X195250Y147111D01*
X195483Y147159D01*
X195697Y147198D01*
X195891Y147227D01*
X196056Y147247D01*
X196192Y147256D01*
X196298Y147266D01*
X196386D01*
X196784Y147247D01*
D02*
G37*
G36*
X179513Y147256D02*
X179678Y147237D01*
X179852Y147218D01*
X180007Y147189D01*
X180153Y147169D01*
X180279Y147140D01*
X180405Y147111D01*
X180522Y147072D01*
X180619Y147043D01*
X180696Y147024D01*
X180774Y146994D01*
X180822Y146975D01*
X180871Y146956D01*
X180890Y146946D01*
X180900D01*
X181152Y146820D01*
X181385Y146674D01*
X181570Y146529D01*
X181735Y146383D01*
X181851Y146247D01*
X181948Y146141D01*
X181977Y146102D01*
X181996Y146073D01*
X182016Y146053D01*
Y146044D01*
X182142Y145821D01*
X182239Y145597D01*
X182307Y145374D01*
X182355Y145180D01*
X182385Y145015D01*
X182394Y144937D01*
Y144879D01*
X182404Y144831D01*
Y144792D01*
Y144773D01*
Y144763D01*
X182394Y144569D01*
X182365Y144384D01*
X182326Y144200D01*
X182278Y144035D01*
X182210Y143880D01*
X182142Y143725D01*
X182064Y143589D01*
X181987Y143463D01*
X181919Y143346D01*
X181841Y143249D01*
X181773Y143162D01*
X181705Y143094D01*
X181657Y143036D01*
X181618Y142997D01*
X181589Y142968D01*
X181579Y142958D01*
X181463Y142861D01*
X181327Y142774D01*
X181172Y142687D01*
X181017Y142599D01*
X180677Y142454D01*
X180337Y142318D01*
X180182Y142269D01*
X180037Y142221D01*
X179901Y142172D01*
X179774Y142143D01*
X179678Y142114D01*
X179610Y142095D01*
X179561Y142075D01*
X179542D01*
X179338Y142027D01*
X179154Y141978D01*
X178989Y141939D01*
X178843Y141901D01*
X178707Y141862D01*
X178591Y141833D01*
X178484Y141804D01*
X178397Y141774D01*
X178319Y141755D01*
X178261Y141736D01*
X178203Y141716D01*
X178164Y141706D01*
X178135Y141697D01*
X178115D01*
X178096Y141687D01*
X177931Y141619D01*
X177795Y141561D01*
X177688Y141493D01*
X177591Y141435D01*
X177533Y141377D01*
X177485Y141338D01*
X177456Y141309D01*
X177446Y141299D01*
X177378Y141212D01*
X177329Y141124D01*
X177300Y141027D01*
X177271Y140940D01*
X177262Y140872D01*
X177252Y140814D01*
Y140765D01*
Y140756D01*
Y140668D01*
X177271Y140581D01*
X177320Y140416D01*
X177397Y140261D01*
X177475Y140135D01*
X177553Y140038D01*
X177630Y139960D01*
X177679Y139911D01*
X177688Y139892D01*
X177698D01*
X177785Y139824D01*
X177882Y139766D01*
X178096Y139679D01*
X178319Y139611D01*
X178533Y139572D01*
X178727Y139543D01*
X178804Y139533D01*
X178882D01*
X178940Y139523D01*
X179027D01*
X179319Y139543D01*
X179580Y139591D01*
X179804Y139649D01*
X179998Y139727D01*
X180075Y139766D01*
X180143Y139805D01*
X180211Y139834D01*
X180260Y139863D01*
X180299Y139892D01*
X180328Y139911D01*
X180337Y139931D01*
X180347D01*
X180434Y140018D01*
X180512Y140105D01*
X180648Y140309D01*
X180764Y140532D01*
X180852Y140746D01*
X180910Y140940D01*
X180939Y141018D01*
X180958Y141095D01*
X180968Y141153D01*
X180978Y141202D01*
X180987Y141231D01*
Y141241D01*
X182744Y141066D01*
X182705Y140794D01*
X182647Y140532D01*
X182579Y140300D01*
X182501Y140076D01*
X182414Y139873D01*
X182326Y139679D01*
X182229Y139514D01*
X182132Y139358D01*
X182045Y139223D01*
X181958Y139106D01*
X181870Y139009D01*
X181802Y138922D01*
X181744Y138864D01*
X181696Y138815D01*
X181667Y138786D01*
X181657Y138776D01*
X181472Y138640D01*
X181278Y138524D01*
X181075Y138417D01*
X180861Y138330D01*
X180648Y138252D01*
X180434Y138194D01*
X180221Y138136D01*
X180007Y138097D01*
X179813Y138068D01*
X179629Y138039D01*
X179464Y138019D01*
X179328Y138010D01*
X179212D01*
X179125Y138000D01*
X178833D01*
X178630Y138010D01*
X178426Y138029D01*
X178251Y138048D01*
X178077Y138078D01*
X177912Y138097D01*
X177766Y138126D01*
X177630Y138165D01*
X177514Y138194D01*
X177407Y138223D01*
X177310Y138243D01*
X177232Y138272D01*
X177174Y138291D01*
X177135Y138310D01*
X177106Y138320D01*
X177097D01*
X176815Y138456D01*
X176573Y138611D01*
X176369Y138786D01*
X176194Y138941D01*
X176058Y139087D01*
X176010Y139155D01*
X175961Y139213D01*
X175932Y139252D01*
X175903Y139291D01*
X175884Y139310D01*
Y139320D01*
X175806Y139446D01*
X175738Y139582D01*
X175631Y139834D01*
X175554Y140076D01*
X175505Y140300D01*
X175486Y140397D01*
X175466Y140484D01*
X175457Y140571D01*
Y140639D01*
X175447Y140688D01*
Y140736D01*
Y140756D01*
Y140765D01*
X175466Y141066D01*
X175505Y141348D01*
X175564Y141590D01*
X175593Y141697D01*
X175622Y141794D01*
X175661Y141881D01*
X175690Y141959D01*
X175719Y142027D01*
X175748Y142085D01*
X175777Y142133D01*
X175787Y142163D01*
X175806Y142182D01*
Y142192D01*
X175952Y142395D01*
X176117Y142580D01*
X176282Y142735D01*
X176437Y142871D01*
X176582Y142968D01*
X176699Y143046D01*
X176747Y143065D01*
X176776Y143084D01*
X176796Y143104D01*
X176805D01*
X176932Y143162D01*
X177068Y143230D01*
X177223Y143288D01*
X177378Y143346D01*
X177698Y143453D01*
X178018Y143550D01*
X178164Y143589D01*
X178309Y143628D01*
X178426Y143666D01*
X178542Y143695D01*
X178630Y143715D01*
X178697Y143734D01*
X178736Y143744D01*
X178756D01*
X178989Y143802D01*
X179202Y143861D01*
X179396Y143919D01*
X179571Y143977D01*
X179726Y144025D01*
X179862Y144074D01*
X179978Y144122D01*
X180075Y144161D01*
X180163Y144200D01*
X180240Y144239D01*
X180299Y144268D01*
X180337Y144297D01*
X180376Y144317D01*
X180396Y144336D01*
X180415Y144346D01*
X180502Y144433D01*
X180570Y144520D01*
X180609Y144617D01*
X180648Y144705D01*
X180667Y144773D01*
X180677Y144840D01*
Y144879D01*
Y144889D01*
X180667Y145015D01*
X180628Y145122D01*
X180590Y145219D01*
X180531Y145296D01*
X180483Y145355D01*
X180434Y145403D01*
X180405Y145432D01*
X180396Y145442D01*
X180211Y145549D01*
X180017Y145636D01*
X179804Y145694D01*
X179610Y145733D01*
X179425Y145752D01*
X179348Y145762D01*
X179280Y145772D01*
X179154D01*
X178882Y145762D01*
X178649Y145723D01*
X178455Y145675D01*
X178290Y145617D01*
X178164Y145559D01*
X178077Y145510D01*
X178028Y145471D01*
X178009Y145462D01*
X177873Y145335D01*
X177766Y145180D01*
X177679Y145015D01*
X177611Y144860D01*
X177562Y144714D01*
X177543Y144646D01*
X177523Y144588D01*
X177514Y144549D01*
Y144511D01*
X177504Y144491D01*
Y144481D01*
X175699Y144549D01*
X175719Y144773D01*
X175748Y144986D01*
X175796Y145190D01*
X175864Y145374D01*
X175932Y145549D01*
X176010Y145714D01*
X176087Y145859D01*
X176165Y145995D01*
X176252Y146111D01*
X176330Y146218D01*
X176398Y146315D01*
X176466Y146383D01*
X176524Y146441D01*
X176563Y146490D01*
X176592Y146509D01*
X176602Y146519D01*
X176767Y146655D01*
X176951Y146762D01*
X177155Y146868D01*
X177358Y146956D01*
X177562Y147024D01*
X177776Y147082D01*
X177989Y147130D01*
X178183Y147169D01*
X178377Y147208D01*
X178562Y147227D01*
X178717Y147247D01*
X178862Y147256D01*
X178969Y147266D01*
X179134D01*
X179513Y147256D01*
D02*
G37*
G36*
X167592Y33638D02*
X165659D01*
X165647Y39471D01*
Y39507D01*
Y39519D01*
X165636Y39530D01*
X165600Y39554D01*
X162878D01*
X162831Y39542D01*
X162819Y39530D01*
X162807Y39519D01*
X162795Y39495D01*
Y39483D01*
Y39471D01*
Y33638D01*
X160862D01*
Y39471D01*
Y39507D01*
X160851Y39519D01*
X160839Y39530D01*
X160792Y39554D01*
X158093D01*
X158034Y39542D01*
X158022Y39530D01*
X158010Y39519D01*
Y39495D01*
Y39483D01*
Y39471D01*
X157999Y33638D01*
X156089D01*
Y39566D01*
X156101Y39754D01*
X156125Y39931D01*
X156172Y40096D01*
X156219Y40238D01*
X156266Y40355D01*
X156313Y40450D01*
X156337Y40497D01*
X156348Y40520D01*
X156443Y40674D01*
X156561Y40815D01*
X156678Y40933D01*
X156785Y41027D01*
X156879Y41110D01*
X156961Y41169D01*
X157008Y41204D01*
X157032Y41216D01*
X157197Y41298D01*
X157374Y41369D01*
X157527Y41416D01*
X157680Y41440D01*
X157810Y41463D01*
X157916Y41475D01*
X167592D01*
Y33638D01*
D02*
G37*
G36*
X152671Y41463D02*
X152848Y41440D01*
X153013Y41393D01*
X153155Y41345D01*
X153272Y41298D01*
X153355Y41251D01*
X153414Y41228D01*
X153438Y41216D01*
X153591Y41110D01*
X153720Y41004D01*
X153838Y40886D01*
X153944Y40768D01*
X154027Y40674D01*
X154086Y40591D01*
X154121Y40544D01*
X154133Y40520D01*
X154215Y40355D01*
X154286Y40190D01*
X154333Y40025D01*
X154357Y39884D01*
X154380Y39754D01*
X154392Y39648D01*
Y39589D01*
Y39578D01*
Y39566D01*
Y35535D01*
X154380Y35347D01*
X154357Y35170D01*
X154310Y35017D01*
X154263Y34875D01*
X154215Y34757D01*
X154168Y34663D01*
X154145Y34616D01*
X154133Y34592D01*
X154027Y34439D01*
X153909Y34298D01*
X153791Y34180D01*
X153685Y34086D01*
X153591Y34003D01*
X153508Y33944D01*
X153461Y33909D01*
X153438Y33897D01*
X153272Y33814D01*
X153108Y33744D01*
X152942Y33697D01*
X152801Y33673D01*
X152671Y33649D01*
X152565Y33638D01*
X148346D01*
X148146Y33649D01*
X147969Y33673D01*
X147804Y33720D01*
X147662Y33767D01*
X147545Y33814D01*
X147450Y33862D01*
X147403Y33885D01*
X147380Y33897D01*
X147226Y34003D01*
X147097Y34121D01*
X146979Y34227D01*
X146873Y34345D01*
X146802Y34439D01*
X146743Y34522D01*
X146708Y34569D01*
X146696Y34592D01*
X146602Y34757D01*
X146543Y34922D01*
X146496Y35087D01*
X146460Y35229D01*
X146449Y35347D01*
X146437Y35453D01*
Y35512D01*
Y35535D01*
Y39566D01*
X146449Y39754D01*
X146472Y39931D01*
X146519Y40096D01*
X146555Y40238D01*
X146602Y40355D01*
X146649Y40450D01*
X146672Y40497D01*
X146684Y40520D01*
X146779Y40674D01*
X146896Y40815D01*
X147014Y40933D01*
X147120Y41039D01*
X147215Y41110D01*
X147297Y41169D01*
X147344Y41204D01*
X147368Y41216D01*
X147533Y41298D01*
X147710Y41369D01*
X147863Y41416D01*
X148016Y41440D01*
X148146Y41463D01*
X148252Y41475D01*
X152483D01*
X152671Y41463D01*
D02*
G37*
G36*
X139354Y41475D02*
X143479D01*
X143679Y41463D01*
X143856Y41440D01*
X144021Y41393D01*
X144174Y41345D01*
X144292Y41298D01*
X144374Y41251D01*
X144433Y41228D01*
X144457Y41216D01*
X144610Y41110D01*
X144740Y41004D01*
X144858Y40886D01*
X144952Y40768D01*
X145034Y40674D01*
X145093Y40591D01*
X145129Y40544D01*
X145140Y40520D01*
X145223Y40355D01*
X145294Y40190D01*
X145341Y40025D01*
X145364Y39884D01*
X145388Y39754D01*
X145400Y39648D01*
Y39589D01*
Y39578D01*
Y39566D01*
Y35535D01*
X145388Y35347D01*
X145364Y35170D01*
X145317Y35017D01*
X145270Y34863D01*
X145223Y34746D01*
X145176Y34663D01*
X145152Y34604D01*
X145140Y34581D01*
X145034Y34427D01*
X144928Y34286D01*
X144810Y34168D01*
X144704Y34074D01*
X144610Y33991D01*
X144528Y33932D01*
X144480Y33897D01*
X144457Y33885D01*
X144292Y33803D01*
X144115Y33744D01*
X143950Y33697D01*
X143809Y33673D01*
X143667Y33649D01*
X143573Y33638D01*
X137433D01*
X137421Y44044D01*
X139354D01*
Y41475D01*
D02*
G37*
G36*
X130326D02*
X134451D01*
X134651Y41463D01*
X134828Y41440D01*
X134993Y41393D01*
X135146Y41345D01*
X135264Y41298D01*
X135347Y41251D01*
X135406Y41228D01*
X135429Y41216D01*
X135582Y41110D01*
X135712Y41004D01*
X135830Y40886D01*
X135924Y40768D01*
X136007Y40674D01*
X136066Y40591D01*
X136101Y40544D01*
X136113Y40520D01*
X136195Y40355D01*
X136266Y40190D01*
X136313Y40025D01*
X136337Y39884D01*
X136360Y39754D01*
X136372Y39648D01*
Y39589D01*
Y39578D01*
Y39566D01*
Y35535D01*
X136360Y35347D01*
X136337Y35170D01*
X136289Y35017D01*
X136242Y34863D01*
X136195Y34746D01*
X136148Y34663D01*
X136124Y34604D01*
X136113Y34581D01*
X136007Y34427D01*
X135900Y34286D01*
X135783Y34168D01*
X135677Y34074D01*
X135582Y33991D01*
X135500Y33932D01*
X135453Y33897D01*
X135429Y33885D01*
X135264Y33803D01*
X135087Y33744D01*
X134922Y33697D01*
X134781Y33673D01*
X134639Y33649D01*
X134545Y33638D01*
X128405D01*
X128393Y44044D01*
X130326D01*
Y41475D01*
D02*
G37*
G36*
X125246Y41463D02*
X125423Y41440D01*
X125588Y41393D01*
X125730Y41345D01*
X125847Y41298D01*
X125930Y41251D01*
X125989Y41228D01*
X126012Y41216D01*
X126166Y41110D01*
X126295Y41004D01*
X126413Y40886D01*
X126519Y40768D01*
X126602Y40674D01*
X126661Y40591D01*
X126696Y40544D01*
X126708Y40520D01*
X126790Y40355D01*
X126861Y40190D01*
X126908Y40025D01*
X126932Y39884D01*
X126955Y39754D01*
X126967Y39648D01*
Y39589D01*
Y39578D01*
Y39566D01*
Y35535D01*
X126955Y35347D01*
X126932Y35170D01*
X126884Y35017D01*
X126837Y34875D01*
X126790Y34757D01*
X126743Y34663D01*
X126720Y34616D01*
X126708Y34592D01*
X126602Y34439D01*
X126484Y34298D01*
X126366Y34180D01*
X126260Y34086D01*
X126166Y34003D01*
X126083Y33944D01*
X126036Y33909D01*
X126012Y33897D01*
X125847Y33814D01*
X125682Y33744D01*
X125517Y33697D01*
X125376Y33673D01*
X125246Y33649D01*
X125140Y33638D01*
X120921D01*
X120721Y33649D01*
X120544Y33673D01*
X120379Y33720D01*
X120237Y33767D01*
X120120Y33814D01*
X120025Y33862D01*
X119978Y33885D01*
X119955Y33897D01*
X119801Y34003D01*
X119672Y34121D01*
X119554Y34227D01*
X119448Y34345D01*
X119377Y34439D01*
X119318Y34522D01*
X119283Y34569D01*
X119271Y34592D01*
X119177Y34757D01*
X119118Y34922D01*
X119071Y35087D01*
X119035Y35229D01*
X119024Y35347D01*
X119012Y35453D01*
Y35512D01*
Y35535D01*
Y39566D01*
X119024Y39754D01*
X119047Y39931D01*
X119094Y40096D01*
X119130Y40238D01*
X119177Y40355D01*
X119224Y40450D01*
X119247Y40497D01*
X119259Y40520D01*
X119354Y40674D01*
X119471Y40815D01*
X119589Y40933D01*
X119695Y41039D01*
X119790Y41110D01*
X119872Y41169D01*
X119919Y41204D01*
X119943Y41216D01*
X120108Y41298D01*
X120285Y41369D01*
X120438Y41416D01*
X120591Y41440D01*
X120721Y41463D01*
X120827Y41475D01*
X125058D01*
X125246Y41463D01*
D02*
G37*
G36*
X137480Y31679D02*
X137668Y31644D01*
X137833Y31608D01*
X137975Y31561D01*
X138104Y31502D01*
X138187Y31467D01*
X138246Y31431D01*
X138269Y31420D01*
X138423Y31314D01*
X138576Y31207D01*
X138694Y31090D01*
X138800Y30972D01*
X138882Y30877D01*
X138941Y30795D01*
X138976Y30748D01*
X138988Y30724D01*
X139071Y30559D01*
X139142Y30382D01*
X139177Y30229D01*
X139212Y30076D01*
X139224Y29946D01*
X139236Y29840D01*
Y29770D01*
Y29758D01*
Y29746D01*
Y27778D01*
X139224Y27589D01*
X139200Y27413D01*
X139165Y27248D01*
X139118Y27106D01*
X139071Y26976D01*
X139024Y26894D01*
X139000Y26835D01*
X138988Y26811D01*
X138882Y26658D01*
X138764Y26517D01*
X138646Y26387D01*
X138529Y26293D01*
X138423Y26210D01*
X138340Y26151D01*
X138293Y26116D01*
X138269Y26104D01*
X138093Y26022D01*
X137928Y25951D01*
X137763Y25904D01*
X137609Y25869D01*
X137480Y25857D01*
X137386Y25845D01*
X137315Y25833D01*
X131504D01*
X131493Y25821D01*
X131481Y25810D01*
X131469Y25786D01*
Y25774D01*
Y25763D01*
Y23995D01*
X131481Y23948D01*
X131493Y23924D01*
X131504Y23912D01*
X137256D01*
X137279Y23924D01*
Y23971D01*
Y23983D01*
Y23995D01*
Y24725D01*
X139248D01*
X139236Y23900D01*
X139224Y23700D01*
X139200Y23523D01*
X139165Y23346D01*
X139118Y23205D01*
X139071Y23075D01*
X139024Y22993D01*
X139000Y22934D01*
X138988Y22910D01*
X138882Y22757D01*
X138764Y22616D01*
X138646Y22498D01*
X138529Y22404D01*
X138423Y22321D01*
X138340Y22262D01*
X138293Y22227D01*
X138269Y22215D01*
X138093Y22132D01*
X137928Y22062D01*
X137763Y22015D01*
X137609Y21991D01*
X137480Y21967D01*
X137386Y21956D01*
X131434D01*
X131245Y21967D01*
X131057Y21991D01*
X130892Y22038D01*
X130750Y22085D01*
X130632Y22132D01*
X130538Y22180D01*
X130491Y22203D01*
X130467Y22215D01*
X130314Y22321D01*
X130173Y22439D01*
X130055Y22545D01*
X129960Y22663D01*
X129878Y22757D01*
X129819Y22840D01*
X129784Y22887D01*
X129772Y22910D01*
X129678Y23087D01*
X129619Y23252D01*
X129560Y23417D01*
X129524Y23570D01*
X129501Y23700D01*
X129489Y23806D01*
Y23877D01*
Y23900D01*
Y25857D01*
X129501Y26057D01*
X129536Y26234D01*
X129583Y26399D01*
X129631Y26540D01*
X129690Y26670D01*
X129725Y26753D01*
X129760Y26811D01*
X129772Y26835D01*
X129878Y26988D01*
X129984Y27130D01*
X130102Y27248D01*
X130220Y27353D01*
X130314Y27424D01*
X130397Y27483D01*
X130444Y27518D01*
X130467Y27530D01*
X130632Y27613D01*
X130797Y27683D01*
X130962Y27731D01*
X131116Y27766D01*
X131245Y27790D01*
X131340Y27801D01*
X131410Y27813D01*
X137209D01*
X137244Y27801D01*
X137256D01*
X137279Y27813D01*
Y27848D01*
Y27872D01*
Y29652D01*
Y29699D01*
Y29711D01*
X137256Y29734D01*
X131516D01*
X131504Y29722D01*
X131493Y29711D01*
X131469Y29675D01*
Y29664D01*
Y29652D01*
Y28921D01*
X129501D01*
X129489Y29746D01*
X129501Y29946D01*
X129536Y30123D01*
X129583Y30300D01*
X129631Y30441D01*
X129690Y30559D01*
X129725Y30654D01*
X129760Y30701D01*
X129772Y30724D01*
X129878Y30877D01*
X129984Y31019D01*
X130102Y31137D01*
X130220Y31231D01*
X130314Y31314D01*
X130397Y31372D01*
X130444Y31408D01*
X130467Y31420D01*
X130632Y31514D01*
X130797Y31573D01*
X130962Y31620D01*
X131116Y31655D01*
X131245Y31679D01*
X131340Y31691D01*
X137291D01*
X137480Y31679D01*
D02*
G37*
G36*
X174180Y21956D02*
X172236D01*
Y28768D01*
X168700Y24572D01*
X165188Y28780D01*
Y21956D01*
X163220D01*
Y31691D01*
X165306D01*
X168700Y27625D01*
X172118Y31691D01*
X174180D01*
Y21956D01*
D02*
G37*
G36*
X150444Y23900D02*
X150432Y23700D01*
X150409Y23523D01*
X150361Y23346D01*
X150314Y23205D01*
X150267Y23075D01*
X150220Y22993D01*
X150196Y22934D01*
X150185Y22910D01*
X150079Y22757D01*
X149961Y22616D01*
X149843Y22498D01*
X149725Y22404D01*
X149631Y22321D01*
X149548Y22262D01*
X149501Y22227D01*
X149478Y22215D01*
X149301Y22132D01*
X149136Y22062D01*
X148971Y22015D01*
X148818Y21991D01*
X148688Y21967D01*
X148582Y21956D01*
X142642D01*
X142442Y21967D01*
X142265Y21991D01*
X142100Y22038D01*
X141958Y22085D01*
X141840Y22132D01*
X141746Y22180D01*
X141699Y22203D01*
X141675Y22215D01*
X141522Y22321D01*
X141381Y22439D01*
X141263Y22545D01*
X141157Y22663D01*
X141074Y22757D01*
X141015Y22840D01*
X140980Y22887D01*
X140968Y22910D01*
X140874Y23087D01*
X140815Y23252D01*
X140768Y23417D01*
X140733Y23570D01*
X140709Y23700D01*
X140697Y23806D01*
Y23877D01*
Y23900D01*
Y31691D01*
X142654D01*
X142677Y23995D01*
X142665Y23959D01*
X142677Y23948D01*
X142689Y23924D01*
X142713Y23912D01*
X148452D01*
X148476Y23924D01*
X148488Y23971D01*
Y23983D01*
Y23995D01*
Y31691D01*
X150444D01*
Y23900D01*
D02*
G37*
G36*
X159896Y31679D02*
X160073Y31644D01*
X160250Y31608D01*
X160391Y31561D01*
X160521Y31502D01*
X160603Y31467D01*
X160662Y31431D01*
X160686Y31420D01*
X160839Y31314D01*
X160980Y31207D01*
X161098Y31090D01*
X161204Y30972D01*
X161287Y30877D01*
X161346Y30795D01*
X161381Y30748D01*
X161393Y30724D01*
X161475Y30559D01*
X161546Y30382D01*
X161593Y30229D01*
X161617Y30076D01*
X161640Y29946D01*
X161652Y29840D01*
Y29770D01*
Y29758D01*
Y29746D01*
Y23900D01*
X161640Y23700D01*
X161617Y23523D01*
X161569Y23346D01*
X161522Y23205D01*
X161475Y23075D01*
X161428Y22993D01*
X161404Y22934D01*
X161393Y22910D01*
X161287Y22757D01*
X161169Y22616D01*
X161051Y22498D01*
X160933Y22404D01*
X160839Y22321D01*
X160756Y22262D01*
X160709Y22227D01*
X160686Y22215D01*
X160509Y22132D01*
X160344Y22062D01*
X160179Y22015D01*
X160026Y21991D01*
X159896Y21967D01*
X159790Y21956D01*
X153850D01*
X153650Y21967D01*
X153473Y21991D01*
X153308Y22038D01*
X153166Y22085D01*
X153048Y22132D01*
X152954Y22180D01*
X152907Y22203D01*
X152884Y22215D01*
X152730Y22321D01*
X152589Y22439D01*
X152471Y22545D01*
X152365Y22663D01*
X152282Y22757D01*
X152224Y22840D01*
X152188Y22887D01*
X152176Y22910D01*
X152082Y23087D01*
X152023Y23252D01*
X151976Y23417D01*
X151941Y23570D01*
X151917Y23700D01*
X151905Y23806D01*
Y23877D01*
Y23900D01*
Y29746D01*
X151917Y29946D01*
X151952Y30123D01*
X151988Y30300D01*
X152035Y30441D01*
X152094Y30559D01*
X152129Y30654D01*
X152165Y30701D01*
X152176Y30724D01*
X152282Y30877D01*
X152400Y31019D01*
X152518Y31137D01*
X152636Y31231D01*
X152730Y31314D01*
X152813Y31372D01*
X152860Y31408D01*
X152884Y31420D01*
X153048Y31514D01*
X153214Y31573D01*
X153378Y31620D01*
X153520Y31655D01*
X153661Y31679D01*
X153756Y31691D01*
X159696D01*
X159896Y31679D01*
D02*
G37*
G36*
X127981Y21956D02*
X119000D01*
X119012Y23900D01*
X126001Y23912D01*
X126012Y25845D01*
X120367Y25833D01*
X120379Y27790D01*
X126001Y27813D01*
X126012Y29746D01*
X119000Y29734D01*
X119012Y31691D01*
X127981D01*
Y21956D01*
D02*
G37*
G36*
X188342Y93000D02*
X186402D01*
X183200Y101956D01*
X185121D01*
X187314Y95329D01*
X189584Y101956D01*
X191534D01*
X188342Y93000D01*
D02*
G37*
G36*
X208000D02*
X206195D01*
Y96736D01*
X205613D01*
X205429Y96716D01*
X205273Y96706D01*
X205147Y96687D01*
X205050Y96668D01*
X204982Y96648D01*
X204934Y96638D01*
X204924Y96629D01*
X204818Y96590D01*
X204720Y96532D01*
X204623Y96474D01*
X204546Y96406D01*
X204478Y96348D01*
X204420Y96309D01*
X204391Y96270D01*
X204381Y96260D01*
X204323Y96202D01*
X204264Y96124D01*
X204196Y96037D01*
X204119Y95940D01*
X203964Y95726D01*
X203799Y95503D01*
X203653Y95290D01*
X203585Y95203D01*
X203537Y95115D01*
X203488Y95047D01*
X203449Y94999D01*
X203430Y94960D01*
X203420Y94950D01*
X202110Y93000D01*
X199947D01*
X201043Y94737D01*
X201159Y94931D01*
X201276Y95096D01*
X201383Y95261D01*
X201480Y95406D01*
X201567Y95542D01*
X201654Y95659D01*
X201732Y95765D01*
X201800Y95862D01*
X201858Y95940D01*
X201916Y96008D01*
X201965Y96066D01*
X202004Y96115D01*
X202033Y96144D01*
X202052Y96173D01*
X202072Y96192D01*
X202217Y96338D01*
X202382Y96483D01*
X202547Y96609D01*
X202702Y96716D01*
X202838Y96813D01*
X202945Y96881D01*
X202984Y96910D01*
X203013Y96920D01*
X203032Y96939D01*
X203042D01*
X202828Y96978D01*
X202625Y97027D01*
X202440Y97085D01*
X202266Y97143D01*
X202101Y97211D01*
X201955Y97279D01*
X201829Y97347D01*
X201713Y97424D01*
X201606Y97492D01*
X201518Y97560D01*
X201441Y97619D01*
X201373Y97667D01*
X201325Y97716D01*
X201295Y97745D01*
X201276Y97764D01*
X201266Y97774D01*
X201159Y97900D01*
X201072Y98036D01*
X200995Y98172D01*
X200927Y98317D01*
X200868Y98453D01*
X200820Y98589D01*
X200752Y98861D01*
X200723Y98977D01*
X200704Y99093D01*
X200694Y99190D01*
X200684Y99278D01*
X200674Y99346D01*
Y99394D01*
Y99433D01*
Y99443D01*
X200694Y99734D01*
X200733Y99996D01*
X200800Y100238D01*
X200868Y100442D01*
X200907Y100529D01*
X200946Y100617D01*
X200975Y100685D01*
X201014Y100743D01*
X201033Y100791D01*
X201053Y100820D01*
X201072Y100840D01*
Y100850D01*
X201227Y101063D01*
X201402Y101247D01*
X201567Y101393D01*
X201732Y101519D01*
X201887Y101606D01*
X201945Y101636D01*
X202004Y101665D01*
X202052Y101684D01*
X202081Y101703D01*
X202101Y101713D01*
X202110D01*
X202236Y101752D01*
X202382Y101791D01*
X202547Y101830D01*
X202712Y101849D01*
X203052Y101897D01*
X203401Y101927D01*
X203556Y101936D01*
X203711Y101946D01*
X203847D01*
X203964Y101956D01*
X208000D01*
Y93000D01*
D02*
G37*
G36*
X198967D02*
X192155D01*
Y94514D01*
X197162D01*
Y96949D01*
X192670D01*
Y98463D01*
X197162D01*
Y100442D01*
X192330D01*
Y101956D01*
X198967D01*
Y93000D01*
D02*
G37*
G36*
X179716D02*
X177805D01*
X177058Y95038D01*
X173477D01*
X172691Y93000D01*
X170722D01*
X174312Y101956D01*
X176233D01*
X179716Y93000D01*
D02*
G37*
G36*
X98720Y62363D02*
Y59135D01*
X97178D01*
Y62354D01*
X94401Y66827D01*
X96187D01*
X97341Y64744D01*
X97467Y64509D01*
X97584Y64302D01*
X97674Y64122D01*
X97755Y63959D01*
X97828Y63833D01*
X97846Y63779D01*
X97873Y63734D01*
X97891Y63698D01*
X97900Y63671D01*
X97909Y63662D01*
Y63653D01*
X97927D01*
X98017Y63842D01*
X98107Y64032D01*
X98206Y64221D01*
X98296Y64392D01*
X98378Y64536D01*
X98405Y64600D01*
X98441Y64654D01*
X98459Y64690D01*
X98477Y64726D01*
X98495Y64744D01*
Y64753D01*
X99667Y66827D01*
X101480D01*
X98720Y62363D01*
D02*
G37*
G36*
X69217Y59135D02*
X67675D01*
Y61453D01*
X66512Y62679D01*
X64374Y59135D01*
X62436D01*
X65439Y63770D01*
X62652Y66827D01*
X64582D01*
X67675Y63409D01*
Y66827D01*
X69217D01*
Y59135D01*
D02*
G37*
G36*
X73951Y66944D02*
X74149Y66935D01*
X74338Y66908D01*
X74519Y66881D01*
X74681Y66845D01*
X74843Y66800D01*
X74988Y66755D01*
X75123Y66719D01*
X75240Y66673D01*
X75348Y66628D01*
X75438Y66583D01*
X75520Y66547D01*
X75583Y66520D01*
X75628Y66493D01*
X75655Y66484D01*
X75664Y66475D01*
X75808Y66385D01*
X75952Y66286D01*
X76079Y66178D01*
X76205Y66069D01*
X76313Y65952D01*
X76412Y65844D01*
X76511Y65727D01*
X76593Y65627D01*
X76674Y65519D01*
X76737Y65429D01*
X76791Y65339D01*
X76836Y65267D01*
X76872Y65204D01*
X76899Y65159D01*
X76908Y65132D01*
X76917Y65123D01*
X76989Y64951D01*
X77062Y64780D01*
X77170Y64419D01*
X77242Y64077D01*
X77269Y63905D01*
X77296Y63743D01*
X77314Y63599D01*
X77323Y63463D01*
X77341Y63337D01*
Y63238D01*
X77350Y63148D01*
Y63085D01*
Y63049D01*
Y63031D01*
X77341Y62796D01*
X77332Y62580D01*
X77314Y62363D01*
X77287Y62165D01*
X77251Y61976D01*
X77215Y61795D01*
X77179Y61633D01*
X77134Y61480D01*
X77098Y61344D01*
X77062Y61218D01*
X77025Y61119D01*
X76989Y61029D01*
X76962Y60957D01*
X76944Y60912D01*
X76926Y60876D01*
Y60866D01*
X76845Y60704D01*
X76755Y60551D01*
X76656Y60407D01*
X76557Y60271D01*
X76457Y60145D01*
X76349Y60028D01*
X76250Y59929D01*
X76151Y59839D01*
X76061Y59748D01*
X75979Y59676D01*
X75898Y59622D01*
X75835Y59568D01*
X75772Y59532D01*
X75736Y59505D01*
X75709Y59487D01*
X75700Y59478D01*
X75547Y59397D01*
X75384Y59325D01*
X75222Y59253D01*
X75051Y59198D01*
X74726Y59117D01*
X74573Y59081D01*
X74419Y59063D01*
X74284Y59036D01*
X74158Y59027D01*
X74041Y59018D01*
X73942Y59009D01*
X73860Y59000D01*
X73752D01*
X73437Y59009D01*
X73148Y59045D01*
X72887Y59099D01*
X72769Y59126D01*
X72652Y59153D01*
X72562Y59180D01*
X72472Y59207D01*
X72391Y59234D01*
X72327Y59261D01*
X72283Y59279D01*
X72237Y59298D01*
X72219Y59307D01*
X72210D01*
X71967Y59433D01*
X71741Y59577D01*
X71552Y59721D01*
X71390Y59866D01*
X71255Y59992D01*
X71209Y60046D01*
X71164Y60100D01*
X71128Y60136D01*
X71101Y60163D01*
X71092Y60181D01*
X71083Y60190D01*
X70930Y60416D01*
X70795Y60641D01*
X70686Y60866D01*
X70596Y61074D01*
X70560Y61173D01*
X70533Y61254D01*
X70506Y61335D01*
X70488Y61399D01*
X70470Y61453D01*
X70461Y61489D01*
X70452Y61516D01*
Y61525D01*
X71994Y61885D01*
X72048Y61714D01*
X72102Y61552D01*
X72165Y61417D01*
X72228Y61290D01*
X72283Y61191D01*
X72327Y61119D01*
X72364Y61074D01*
X72373Y61056D01*
X72472Y60930D01*
X72580Y60821D01*
X72688Y60731D01*
X72787Y60650D01*
X72869Y60596D01*
X72941Y60551D01*
X72986Y60524D01*
X73004Y60515D01*
X73139Y60452D01*
X73283Y60407D01*
X73410Y60371D01*
X73536Y60353D01*
X73644Y60335D01*
X73725Y60325D01*
X73797D01*
X74023Y60343D01*
X74221Y60380D01*
X74401Y60425D01*
X74555Y60488D01*
X74681Y60551D01*
X74771Y60596D01*
X74807Y60623D01*
X74834Y60632D01*
X74843Y60650D01*
X74852D01*
X75006Y60785D01*
X75141Y60939D01*
X75258Y61092D01*
X75357Y61245D01*
X75429Y61381D01*
X75456Y61435D01*
X75483Y61489D01*
X75501Y61534D01*
X75520Y61561D01*
X75529Y61579D01*
Y61588D01*
X75601Y61822D01*
X75655Y62066D01*
X75700Y62300D01*
X75727Y62526D01*
X75736Y62625D01*
X75745Y62715D01*
Y62796D01*
X75754Y62868D01*
Y62922D01*
Y62968D01*
Y62994D01*
Y63004D01*
X75745Y63283D01*
X75718Y63536D01*
X75682Y63761D01*
X75637Y63959D01*
X75619Y64050D01*
X75601Y64122D01*
X75583Y64185D01*
X75565Y64248D01*
X75547Y64284D01*
X75538Y64320D01*
X75529Y64338D01*
Y64347D01*
X75438Y64555D01*
X75330Y64744D01*
X75222Y64906D01*
X75114Y65032D01*
X75015Y65141D01*
X74934Y65213D01*
X74879Y65258D01*
X74870Y65276D01*
X74861D01*
X74681Y65393D01*
X74501Y65474D01*
X74320Y65537D01*
X74149Y65573D01*
X74005Y65601D01*
X73942Y65609D01*
X73888D01*
X73842Y65619D01*
X73779D01*
X73545Y65601D01*
X73328Y65564D01*
X73130Y65501D01*
X72959Y65420D01*
X72796Y65321D01*
X72661Y65213D01*
X72535Y65096D01*
X72436Y64978D01*
X72346Y64852D01*
X72264Y64735D01*
X72201Y64627D01*
X72156Y64527D01*
X72120Y64446D01*
X72093Y64383D01*
X72075Y64347D01*
Y64329D01*
X70542Y64690D01*
X70605Y64897D01*
X70686Y65086D01*
X70768Y65258D01*
X70858Y65429D01*
X70957Y65573D01*
X71047Y65718D01*
X71146Y65844D01*
X71237Y65952D01*
X71327Y66051D01*
X71417Y66142D01*
X71489Y66214D01*
X71552Y66268D01*
X71606Y66313D01*
X71651Y66349D01*
X71678Y66367D01*
X71687Y66376D01*
X71841Y66475D01*
X72012Y66565D01*
X72183Y66646D01*
X72355Y66709D01*
X72526Y66764D01*
X72697Y66809D01*
X72860Y66854D01*
X73022Y66881D01*
X73175Y66908D01*
X73310Y66926D01*
X73437Y66935D01*
X73545Y66944D01*
X73635Y66953D01*
X73752D01*
X73951Y66944D01*
D02*
G37*
G36*
X87233Y65519D02*
X85005D01*
Y59135D01*
X83463D01*
Y65519D01*
X81236D01*
Y66827D01*
X87233D01*
Y65519D01*
D02*
G37*
G36*
X80163Y59135D02*
X78621D01*
Y66827D01*
X80163D01*
Y59135D01*
D02*
G37*
G36*
X112192Y61786D02*
Y61597D01*
X112210Y61426D01*
X112219Y61272D01*
X112237Y61155D01*
X112255Y61056D01*
X112273Y60984D01*
X112282Y60939D01*
X112291Y60921D01*
X112327Y60812D01*
X112372Y60713D01*
X112426Y60641D01*
X112471Y60569D01*
X112516Y60524D01*
X112552Y60488D01*
X112579Y60470D01*
X112588Y60461D01*
X112670Y60416D01*
X112760Y60380D01*
X112850Y60362D01*
X112940Y60343D01*
X113012Y60335D01*
X113084Y60325D01*
X113139D01*
X113310Y60343D01*
X113454Y60380D01*
X113571Y60425D01*
X113671Y60488D01*
X113752Y60542D01*
X113806Y60596D01*
X113842Y60632D01*
X113851Y60641D01*
X113896Y60704D01*
X113932Y60776D01*
X113986Y60948D01*
X114031Y61119D01*
X114067Y61299D01*
X114085Y61453D01*
X114094Y61525D01*
Y61588D01*
X114103Y61633D01*
Y61669D01*
Y61696D01*
Y61705D01*
X115564Y61516D01*
X115555Y61281D01*
X115528Y61074D01*
X115501Y60866D01*
X115456Y60686D01*
X115411Y60515D01*
X115366Y60362D01*
X115303Y60217D01*
X115248Y60091D01*
X115194Y59983D01*
X115140Y59884D01*
X115086Y59802D01*
X115041Y59739D01*
X115005Y59685D01*
X114978Y59649D01*
X114960Y59631D01*
X114951Y59622D01*
X114834Y59514D01*
X114707Y59415D01*
X114563Y59334D01*
X114428Y59261D01*
X114275Y59198D01*
X114130Y59153D01*
X113986Y59108D01*
X113851Y59081D01*
X113716Y59054D01*
X113589Y59036D01*
X113481Y59018D01*
X113382Y59009D01*
X113301Y59000D01*
X113193D01*
X112949Y59009D01*
X112724Y59027D01*
X112507Y59063D01*
X112318Y59108D01*
X112138Y59162D01*
X111984Y59225D01*
X111840Y59289D01*
X111714Y59361D01*
X111597Y59424D01*
X111506Y59487D01*
X111425Y59550D01*
X111362Y59604D01*
X111308Y59649D01*
X111272Y59685D01*
X111254Y59703D01*
X111245Y59712D01*
X111137Y59857D01*
X111046Y60010D01*
X110965Y60172D01*
X110902Y60335D01*
X110839Y60506D01*
X110794Y60686D01*
X110722Y61020D01*
X110695Y61173D01*
X110677Y61317D01*
X110668Y61453D01*
X110659Y61561D01*
X110650Y61660D01*
Y61723D01*
Y61768D01*
Y61786D01*
Y66827D01*
X112192D01*
Y61786D01*
D02*
G37*
G36*
X105889Y66944D02*
X106087Y66935D01*
X106286Y66908D01*
X106466Y66872D01*
X106637Y66836D01*
X106809Y66800D01*
X106953Y66755D01*
X107097Y66709D01*
X107223Y66655D01*
X107331Y66610D01*
X107431Y66574D01*
X107512Y66538D01*
X107575Y66502D01*
X107629Y66475D01*
X107656Y66466D01*
X107665Y66457D01*
X107818Y66358D01*
X107963Y66259D01*
X108098Y66142D01*
X108224Y66024D01*
X108341Y65907D01*
X108450Y65799D01*
X108549Y65682D01*
X108639Y65564D01*
X108711Y65465D01*
X108783Y65366D01*
X108837Y65276D01*
X108891Y65204D01*
X108927Y65141D01*
X108955Y65086D01*
X108964Y65059D01*
X108973Y65050D01*
X109054Y64879D01*
X109117Y64699D01*
X109180Y64518D01*
X109234Y64338D01*
X109315Y63986D01*
X109342Y63815D01*
X109369Y63653D01*
X109387Y63499D01*
X109396Y63364D01*
X109405Y63238D01*
X109415Y63139D01*
X109424Y63049D01*
Y62986D01*
Y62950D01*
Y62931D01*
X109415Y62715D01*
X109405Y62508D01*
X109378Y62309D01*
X109351Y62120D01*
X109315Y61940D01*
X109279Y61777D01*
X109243Y61615D01*
X109198Y61471D01*
X109153Y61335D01*
X109117Y61218D01*
X109081Y61119D01*
X109045Y61038D01*
X109018Y60966D01*
X108991Y60921D01*
X108982Y60885D01*
X108973Y60876D01*
X108883Y60713D01*
X108783Y60560D01*
X108684Y60416D01*
X108576Y60280D01*
X108468Y60154D01*
X108350Y60046D01*
X108242Y59938D01*
X108143Y59848D01*
X108044Y59767D01*
X107954Y59694D01*
X107873Y59631D01*
X107800Y59577D01*
X107737Y59541D01*
X107692Y59514D01*
X107665Y59496D01*
X107656Y59487D01*
X107494Y59406D01*
X107323Y59325D01*
X107151Y59261D01*
X106980Y59207D01*
X106646Y59117D01*
X106484Y59090D01*
X106331Y59063D01*
X106195Y59045D01*
X106060Y59027D01*
X105943Y59018D01*
X105844Y59009D01*
X105763Y59000D01*
X105654D01*
X105447Y59009D01*
X105240Y59018D01*
X105050Y59045D01*
X104861Y59081D01*
X104690Y59117D01*
X104527Y59153D01*
X104374Y59198D01*
X104230Y59253D01*
X104103Y59298D01*
X103995Y59343D01*
X103896Y59379D01*
X103815Y59415D01*
X103752Y59451D01*
X103707Y59478D01*
X103680Y59487D01*
X103671Y59496D01*
X103517Y59595D01*
X103373Y59703D01*
X103238Y59812D01*
X103112Y59929D01*
X102994Y60046D01*
X102886Y60163D01*
X102787Y60271D01*
X102706Y60389D01*
X102625Y60488D01*
X102562Y60587D01*
X102498Y60668D01*
X102453Y60749D01*
X102417Y60812D01*
X102390Y60858D01*
X102381Y60885D01*
X102372Y60894D01*
X102291Y61065D01*
X102219Y61245D01*
X102165Y61417D01*
X102111Y61597D01*
X102029Y61940D01*
X102002Y62111D01*
X101975Y62264D01*
X101957Y62408D01*
X101948Y62544D01*
X101930Y62661D01*
Y62760D01*
X101921Y62841D01*
Y62904D01*
Y62950D01*
Y62958D01*
X101930Y63184D01*
X101939Y63391D01*
X101966Y63599D01*
X101994Y63797D01*
X102029Y63977D01*
X102066Y64149D01*
X102111Y64311D01*
X102147Y64455D01*
X102192Y64591D01*
X102237Y64708D01*
X102273Y64816D01*
X102309Y64897D01*
X102336Y64969D01*
X102363Y65014D01*
X102372Y65050D01*
X102381Y65059D01*
X102471Y65222D01*
X102571Y65375D01*
X102670Y65519D01*
X102778Y65655D01*
X102886Y65781D01*
X102994Y65898D01*
X103103Y66006D01*
X103211Y66096D01*
X103301Y66178D01*
X103400Y66250D01*
X103481Y66313D01*
X103544Y66367D01*
X103608Y66403D01*
X103653Y66430D01*
X103680Y66448D01*
X103689Y66457D01*
X103851Y66547D01*
X104013Y66619D01*
X104185Y66691D01*
X104356Y66746D01*
X104690Y66836D01*
X104852Y66863D01*
X105005Y66890D01*
X105140Y66908D01*
X105276Y66926D01*
X105393Y66935D01*
X105492Y66944D01*
X105573Y66953D01*
X105681D01*
X105889Y66944D01*
D02*
G37*
G36*
X91362D02*
X91642Y66908D01*
X91777Y66890D01*
X91894Y66863D01*
X92012Y66836D01*
X92111Y66818D01*
X92210Y66791D01*
X92291Y66764D01*
X92363Y66737D01*
X92426Y66719D01*
X92472Y66701D01*
X92508Y66683D01*
X92526Y66673D01*
X92535D01*
X92751Y66556D01*
X92940Y66439D01*
X93103Y66313D01*
X93229Y66187D01*
X93337Y66078D01*
X93409Y65988D01*
X93436Y65952D01*
X93454Y65925D01*
X93472Y65916D01*
Y65907D01*
X93581Y65718D01*
X93653Y65528D01*
X93707Y65339D01*
X93752Y65168D01*
X93770Y65014D01*
X93779Y64951D01*
Y64897D01*
X93788Y64852D01*
Y64816D01*
Y64798D01*
Y64789D01*
X93779Y64581D01*
X93752Y64392D01*
X93716Y64212D01*
X93671Y64068D01*
X93635Y63950D01*
X93599Y63860D01*
X93581Y63824D01*
X93572Y63797D01*
X93563Y63788D01*
Y63779D01*
X93463Y63626D01*
X93346Y63481D01*
X93220Y63355D01*
X93094Y63238D01*
X92977Y63148D01*
X92886Y63085D01*
X92850Y63058D01*
X92823Y63040D01*
X92805Y63022D01*
X92796D01*
X92688Y62958D01*
X92571Y62904D01*
X92327Y62796D01*
X92084Y62706D01*
X91849Y62625D01*
X91732Y62589D01*
X91633Y62562D01*
X91543Y62535D01*
X91462Y62517D01*
X91398Y62499D01*
X91353Y62481D01*
X91317Y62472D01*
X91308D01*
X91164Y62435D01*
X91029Y62399D01*
X90903Y62372D01*
X90785Y62336D01*
X90677Y62309D01*
X90587Y62273D01*
X90497Y62246D01*
X90425Y62228D01*
X90352Y62201D01*
X90298Y62183D01*
X90244Y62165D01*
X90208Y62147D01*
X90172Y62138D01*
X90154Y62129D01*
X90136Y62120D01*
X90010Y62066D01*
X89893Y62003D01*
X89811Y61949D01*
X89739Y61894D01*
X89694Y61849D01*
X89658Y61813D01*
X89640Y61786D01*
X89631Y61777D01*
X89586Y61705D01*
X89550Y61615D01*
X89532Y61525D01*
X89514Y61444D01*
X89505Y61371D01*
X89496Y61308D01*
Y61272D01*
Y61254D01*
X89505Y61146D01*
X89523Y61056D01*
X89550Y60966D01*
X89586Y60894D01*
X89622Y60830D01*
X89649Y60785D01*
X89667Y60758D01*
X89676Y60749D01*
X89748Y60677D01*
X89830Y60605D01*
X89911Y60551D01*
X89992Y60506D01*
X90073Y60461D01*
X90127Y60434D01*
X90163Y60425D01*
X90181Y60416D01*
X90307Y60380D01*
X90434Y60353D01*
X90560Y60325D01*
X90668Y60317D01*
X90776Y60307D01*
X90849Y60299D01*
X90921D01*
X91164Y60317D01*
X91381Y60353D01*
X91570Y60407D01*
X91723Y60479D01*
X91840Y60542D01*
X91931Y60596D01*
X91985Y60632D01*
X91994Y60650D01*
X92003D01*
X92075Y60722D01*
X92129Y60803D01*
X92246Y60975D01*
X92327Y61164D01*
X92399Y61344D01*
X92453Y61507D01*
X92472Y61579D01*
X92490Y61642D01*
X92499Y61696D01*
X92508Y61732D01*
X92517Y61759D01*
Y61768D01*
X94059Y61579D01*
X94022Y61353D01*
X93968Y61137D01*
X93905Y60939D01*
X93833Y60749D01*
X93761Y60578D01*
X93671Y60425D01*
X93590Y60280D01*
X93509Y60145D01*
X93427Y60037D01*
X93346Y59938D01*
X93274Y59848D01*
X93211Y59784D01*
X93157Y59730D01*
X93121Y59685D01*
X93094Y59667D01*
X93085Y59658D01*
X92922Y59541D01*
X92760Y59442D01*
X92589Y59352D01*
X92408Y59279D01*
X92237Y59216D01*
X92057Y59162D01*
X91885Y59117D01*
X91723Y59081D01*
X91561Y59054D01*
X91426Y59036D01*
X91290Y59018D01*
X91182Y59009D01*
X91092D01*
X91020Y59000D01*
X90966D01*
X90668Y59009D01*
X90389Y59036D01*
X90136Y59081D01*
X90019Y59099D01*
X89911Y59126D01*
X89811Y59153D01*
X89730Y59171D01*
X89649Y59198D01*
X89586Y59216D01*
X89541Y59225D01*
X89496Y59243D01*
X89478Y59253D01*
X89469D01*
X89225Y59361D01*
X89009Y59478D01*
X88820Y59613D01*
X88657Y59739D01*
X88540Y59857D01*
X88441Y59947D01*
X88414Y59983D01*
X88387Y60010D01*
X88378Y60028D01*
X88369Y60037D01*
X88297Y60136D01*
X88233Y60244D01*
X88125Y60470D01*
X88053Y60686D01*
X88008Y60903D01*
X87990Y60993D01*
X87972Y61083D01*
X87963Y61164D01*
Y61227D01*
X87954Y61290D01*
Y61326D01*
Y61353D01*
Y61363D01*
X87963Y61615D01*
X87990Y61840D01*
X88026Y62030D01*
X88071Y62201D01*
X88116Y62336D01*
X88134Y62390D01*
X88152Y62435D01*
X88170Y62472D01*
X88179Y62499D01*
X88188Y62508D01*
Y62517D01*
X88288Y62688D01*
X88405Y62841D01*
X88540Y62976D01*
X88666Y63094D01*
X88793Y63193D01*
X88892Y63256D01*
X88928Y63283D01*
X88955Y63301D01*
X88973Y63319D01*
X88982D01*
X89090Y63382D01*
X89216Y63436D01*
X89469Y63545D01*
X89730Y63644D01*
X89992Y63725D01*
X90109Y63761D01*
X90217Y63797D01*
X90316Y63824D01*
X90398Y63842D01*
X90470Y63860D01*
X90524Y63878D01*
X90560Y63887D01*
X90569D01*
X90803Y63941D01*
X91020Y63995D01*
X91200Y64050D01*
X91344Y64095D01*
X91462Y64131D01*
X91543Y64158D01*
X91597Y64176D01*
X91615Y64185D01*
X91741Y64239D01*
X91849Y64293D01*
X91939Y64347D01*
X92003Y64392D01*
X92057Y64428D01*
X92102Y64464D01*
X92120Y64482D01*
X92129Y64491D01*
X92183Y64555D01*
X92219Y64627D01*
X92246Y64699D01*
X92264Y64762D01*
X92273Y64816D01*
X92282Y64870D01*
Y64897D01*
Y64906D01*
X92264Y65032D01*
X92228Y65150D01*
X92174Y65240D01*
X92111Y65321D01*
X92057Y65384D01*
X92003Y65429D01*
X91967Y65456D01*
X91948Y65465D01*
X91813Y65537D01*
X91678Y65582D01*
X91543Y65619D01*
X91407Y65645D01*
X91290Y65664D01*
X91200Y65673D01*
X91119D01*
X90893Y65664D01*
X90695Y65637D01*
X90524Y65591D01*
X90380Y65546D01*
X90271Y65492D01*
X90199Y65456D01*
X90154Y65420D01*
X90136Y65411D01*
X90019Y65303D01*
X89929Y65168D01*
X89857Y65023D01*
X89803Y64888D01*
X89766Y64753D01*
X89739Y64654D01*
X89730Y64609D01*
X89721Y64581D01*
Y64563D01*
Y64555D01*
X88170Y64726D01*
X88207Y64924D01*
X88261Y65104D01*
X88324Y65276D01*
X88387Y65438D01*
X88459Y65591D01*
X88540Y65727D01*
X88612Y65844D01*
X88693Y65961D01*
X88765Y66051D01*
X88838Y66142D01*
X88910Y66214D01*
X88964Y66268D01*
X89009Y66313D01*
X89045Y66349D01*
X89072Y66367D01*
X89081Y66376D01*
X89225Y66475D01*
X89379Y66565D01*
X89532Y66646D01*
X89694Y66709D01*
X89857Y66764D01*
X90028Y66809D01*
X90335Y66881D01*
X90479Y66908D01*
X90614Y66926D01*
X90740Y66935D01*
X90839Y66944D01*
X90930Y66953D01*
X91047D01*
X91362Y66944D01*
D02*
G37*
G36*
X85011Y-7000D02*
X83191D01*
X83180Y-1506D01*
Y-1472D01*
Y-1461D01*
X83168Y-1450D01*
X83135Y-1428D01*
X80571D01*
X80527Y-1439D01*
X80516Y-1450D01*
X80505Y-1461D01*
X80493Y-1483D01*
Y-1495D01*
Y-1506D01*
Y-7000D01*
X78673D01*
Y-1506D01*
Y-1472D01*
X78662Y-1461D01*
X78651Y-1450D01*
X78607Y-1428D01*
X76065D01*
X76009Y-1439D01*
X75998Y-1450D01*
X75987Y-1461D01*
Y-1483D01*
Y-1495D01*
Y-1506D01*
X75976Y-7000D01*
X74178D01*
Y-1417D01*
X74189Y-1239D01*
X74211Y-1073D01*
X74255Y-917D01*
X74300Y-784D01*
X74344Y-673D01*
X74389Y-584D01*
X74411Y-540D01*
X74422Y-518D01*
X74511Y-373D01*
X74622Y-240D01*
X74733Y-129D01*
X74833Y-40D01*
X74921Y37D01*
X74999Y93D01*
X75044Y126D01*
X75066Y137D01*
X75221Y215D01*
X75388Y281D01*
X75532Y326D01*
X75676Y348D01*
X75798Y370D01*
X75898Y381D01*
X85011D01*
Y-7000D01*
D02*
G37*
G36*
X70959Y370D02*
X71125Y348D01*
X71281Y304D01*
X71414Y259D01*
X71525Y215D01*
X71603Y170D01*
X71658Y148D01*
X71680Y137D01*
X71824Y37D01*
X71947Y-63D01*
X72058Y-174D01*
X72158Y-285D01*
X72235Y-373D01*
X72291Y-451D01*
X72324Y-496D01*
X72335Y-518D01*
X72413Y-673D01*
X72479Y-829D01*
X72524Y-984D01*
X72546Y-1117D01*
X72568Y-1239D01*
X72579Y-1339D01*
Y-1395D01*
Y-1406D01*
Y-1417D01*
Y-5213D01*
X72568Y-5390D01*
X72546Y-5557D01*
X72502Y-5701D01*
X72457Y-5835D01*
X72413Y-5946D01*
X72368Y-6034D01*
X72346Y-6079D01*
X72335Y-6101D01*
X72235Y-6245D01*
X72124Y-6378D01*
X72013Y-6489D01*
X71913Y-6578D01*
X71824Y-6656D01*
X71747Y-6711D01*
X71702Y-6745D01*
X71680Y-6756D01*
X71525Y-6834D01*
X71369Y-6900D01*
X71214Y-6945D01*
X71081Y-6967D01*
X70959Y-6989D01*
X70859Y-7000D01*
X66885D01*
X66696Y-6989D01*
X66530Y-6967D01*
X66375Y-6922D01*
X66241Y-6878D01*
X66130Y-6834D01*
X66041Y-6789D01*
X65997Y-6767D01*
X65975Y-6756D01*
X65831Y-6656D01*
X65708Y-6545D01*
X65598Y-6445D01*
X65498Y-6334D01*
X65431Y-6245D01*
X65375Y-6168D01*
X65342Y-6123D01*
X65331Y-6101D01*
X65242Y-5946D01*
X65187Y-5790D01*
X65142Y-5635D01*
X65109Y-5501D01*
X65098Y-5390D01*
X65087Y-5291D01*
Y-5235D01*
Y-5213D01*
Y-1417D01*
X65098Y-1239D01*
X65120Y-1073D01*
X65165Y-917D01*
X65198Y-784D01*
X65242Y-673D01*
X65287Y-584D01*
X65309Y-540D01*
X65320Y-518D01*
X65409Y-373D01*
X65520Y-240D01*
X65631Y-129D01*
X65731Y-29D01*
X65820Y37D01*
X65897Y93D01*
X65942Y126D01*
X65964Y137D01*
X66119Y215D01*
X66286Y281D01*
X66430Y326D01*
X66574Y348D01*
X66696Y370D01*
X66796Y381D01*
X70781D01*
X70959Y370D01*
D02*
G37*
G36*
X58416Y381D02*
X62301D01*
X62490Y370D01*
X62656Y348D01*
X62811Y304D01*
X62956Y259D01*
X63067Y215D01*
X63144Y170D01*
X63200Y148D01*
X63222Y137D01*
X63366Y37D01*
X63489Y-63D01*
X63600Y-174D01*
X63688Y-285D01*
X63766Y-373D01*
X63822Y-451D01*
X63855Y-496D01*
X63866Y-518D01*
X63944Y-673D01*
X64010Y-829D01*
X64055Y-984D01*
X64077Y-1117D01*
X64099Y-1239D01*
X64110Y-1339D01*
Y-1395D01*
Y-1406D01*
Y-1417D01*
Y-5213D01*
X64099Y-5390D01*
X64077Y-5557D01*
X64033Y-5701D01*
X63988Y-5846D01*
X63944Y-5957D01*
X63899Y-6034D01*
X63877Y-6090D01*
X63866Y-6112D01*
X63766Y-6256D01*
X63666Y-6389D01*
X63555Y-6500D01*
X63455Y-6589D01*
X63366Y-6667D01*
X63289Y-6722D01*
X63244Y-6756D01*
X63222Y-6767D01*
X63067Y-6845D01*
X62900Y-6900D01*
X62745Y-6945D01*
X62612Y-6967D01*
X62478Y-6989D01*
X62390Y-7000D01*
X56607D01*
X56596Y2801D01*
X58416D01*
Y381D01*
D02*
G37*
G36*
X49914D02*
X53798D01*
X53987Y370D01*
X54154Y348D01*
X54309Y304D01*
X54453Y259D01*
X54564Y215D01*
X54642Y170D01*
X54697Y148D01*
X54720Y137D01*
X54864Y37D01*
X54986Y-63D01*
X55097Y-174D01*
X55186Y-285D01*
X55264Y-373D01*
X55319Y-451D01*
X55352Y-496D01*
X55363Y-518D01*
X55441Y-673D01*
X55508Y-829D01*
X55552Y-984D01*
X55574Y-1117D01*
X55597Y-1239D01*
X55608Y-1339D01*
Y-1395D01*
Y-1406D01*
Y-1417D01*
Y-5213D01*
X55597Y-5390D01*
X55574Y-5557D01*
X55530Y-5701D01*
X55486Y-5846D01*
X55441Y-5957D01*
X55397Y-6034D01*
X55375Y-6090D01*
X55363Y-6112D01*
X55264Y-6256D01*
X55164Y-6389D01*
X55053Y-6500D01*
X54953Y-6589D01*
X54864Y-6667D01*
X54786Y-6722D01*
X54742Y-6756D01*
X54720Y-6767D01*
X54564Y-6845D01*
X54398Y-6900D01*
X54242Y-6945D01*
X54109Y-6967D01*
X53976Y-6989D01*
X53887Y-7000D01*
X48104D01*
X48093Y2801D01*
X49914D01*
Y381D01*
D02*
G37*
G36*
X45129Y370D02*
X45296Y348D01*
X45451Y304D01*
X45585Y259D01*
X45696Y215D01*
X45773Y170D01*
X45829Y148D01*
X45851Y137D01*
X45995Y37D01*
X46117Y-63D01*
X46228Y-174D01*
X46328Y-285D01*
X46406Y-373D01*
X46462Y-451D01*
X46495Y-496D01*
X46506Y-518D01*
X46584Y-673D01*
X46650Y-829D01*
X46695Y-984D01*
X46717Y-1117D01*
X46739Y-1239D01*
X46750Y-1339D01*
Y-1395D01*
Y-1406D01*
Y-1417D01*
Y-5213D01*
X46739Y-5390D01*
X46717Y-5557D01*
X46672Y-5701D01*
X46628Y-5835D01*
X46584Y-5946D01*
X46539Y-6034D01*
X46517Y-6079D01*
X46506Y-6101D01*
X46406Y-6245D01*
X46295Y-6378D01*
X46184Y-6489D01*
X46084Y-6578D01*
X45995Y-6656D01*
X45918Y-6711D01*
X45873Y-6745D01*
X45851Y-6756D01*
X45696Y-6834D01*
X45540Y-6900D01*
X45385Y-6945D01*
X45252Y-6967D01*
X45129Y-6989D01*
X45030Y-7000D01*
X41056D01*
X40867Y-6989D01*
X40701Y-6967D01*
X40545Y-6922D01*
X40412Y-6878D01*
X40301Y-6834D01*
X40212Y-6789D01*
X40168Y-6767D01*
X40146Y-6756D01*
X40001Y-6656D01*
X39879Y-6545D01*
X39768Y-6445D01*
X39668Y-6334D01*
X39602Y-6245D01*
X39546Y-6168D01*
X39513Y-6123D01*
X39502Y-6101D01*
X39413Y-5946D01*
X39358Y-5790D01*
X39313Y-5635D01*
X39280Y-5501D01*
X39269Y-5390D01*
X39258Y-5291D01*
Y-5235D01*
Y-5213D01*
Y-1417D01*
X39269Y-1239D01*
X39291Y-1073D01*
X39335Y-917D01*
X39369Y-784D01*
X39413Y-673D01*
X39457Y-584D01*
X39480Y-540D01*
X39491Y-518D01*
X39580Y-373D01*
X39691Y-240D01*
X39802Y-129D01*
X39901Y-29D01*
X39990Y37D01*
X40068Y93D01*
X40112Y126D01*
X40135Y137D01*
X40290Y215D01*
X40457Y281D01*
X40601Y326D01*
X40745Y348D01*
X40867Y370D01*
X40967Y381D01*
X44952D01*
X45129Y370D01*
D02*
G37*
G36*
X205526Y130848D02*
X205594Y130702D01*
X205759Y130431D01*
X205933Y130188D01*
X206118Y129975D01*
X206205Y129878D01*
X206283Y129800D01*
X206350Y129722D01*
X206418Y129664D01*
X206467Y129616D01*
X206506Y129587D01*
X206535Y129567D01*
X206545Y129558D01*
X206836Y129344D01*
X207107Y129170D01*
X207350Y129024D01*
X207563Y128917D01*
X207660Y128869D01*
X207748Y128830D01*
X207816Y128801D01*
X207884Y128772D01*
X207932Y128752D01*
X207971Y128743D01*
X207990Y128733D01*
X208000D01*
Y127171D01*
X207767Y127258D01*
X207544Y127345D01*
X207321Y127442D01*
X207117Y127549D01*
X206923Y127656D01*
X206739Y127763D01*
X206574Y127869D01*
X206418Y127976D01*
X206273Y128073D01*
X206157Y128170D01*
X206040Y128257D01*
X205953Y128325D01*
X205885Y128384D01*
X205827Y128432D01*
X205798Y128461D01*
X205788Y128471D01*
Y122018D01*
X204070D01*
Y131003D01*
X205468D01*
X205526Y130848D01*
D02*
G37*
G36*
X178164Y122018D02*
X176495D01*
Y127898D01*
X172866Y122018D01*
X171061D01*
Y130974D01*
X172730D01*
Y124958D01*
X176417Y130974D01*
X178164D01*
Y122018D01*
D02*
G37*
G36*
X194377Y124405D02*
X191001D01*
Y126123D01*
X194377D01*
Y124405D01*
D02*
G37*
G36*
X201800Y125317D02*
Y123823D01*
X198142D01*
Y122018D01*
X196483D01*
Y123823D01*
X195367D01*
Y125327D01*
X196483D01*
Y131003D01*
X197929D01*
X201800Y125317D01*
D02*
G37*
G36*
X190001Y122018D02*
X188197D01*
Y125395D01*
X186799D01*
X186586Y125405D01*
X186392D01*
X186208Y125414D01*
X186043Y125424D01*
X185887Y125434D01*
X185742Y125444D01*
X185616Y125463D01*
X185509Y125473D01*
X185412Y125482D01*
X185324Y125492D01*
X185257Y125502D01*
X185208Y125512D01*
X185169D01*
X185150Y125521D01*
X185140D01*
X184965Y125570D01*
X184791Y125628D01*
X184636Y125696D01*
X184500Y125764D01*
X184374Y125832D01*
X184286Y125890D01*
X184228Y125929D01*
X184218Y125938D01*
X184209D01*
X184044Y126074D01*
X183888Y126220D01*
X183762Y126365D01*
X183646Y126501D01*
X183559Y126627D01*
X183500Y126734D01*
X183471Y126773D01*
X183452Y126802D01*
X183442Y126812D01*
Y126821D01*
X183345Y127045D01*
X183268Y127277D01*
X183219Y127510D01*
X183180Y127724D01*
X183171Y127830D01*
X183161Y127918D01*
X183151Y128005D01*
X183141Y128073D01*
Y128131D01*
Y128170D01*
Y128199D01*
Y128209D01*
X183151Y128403D01*
X183161Y128597D01*
X183190Y128772D01*
X183219Y128937D01*
X183258Y129092D01*
X183306Y129237D01*
X183355Y129363D01*
X183403Y129490D01*
X183452Y129596D01*
X183500Y129684D01*
X183539Y129771D01*
X183588Y129839D01*
X183617Y129888D01*
X183646Y129926D01*
X183656Y129946D01*
X183665Y129955D01*
X183762Y130082D01*
X183869Y130188D01*
X183976Y130285D01*
X184092Y130382D01*
X184306Y130538D01*
X184510Y130654D01*
X184684Y130741D01*
X184762Y130770D01*
X184830Y130800D01*
X184878Y130819D01*
X184917Y130829D01*
X184946Y130838D01*
X184956D01*
X185063Y130858D01*
X185189Y130887D01*
X185334Y130906D01*
X185499Y130916D01*
X185674Y130926D01*
X185849Y130945D01*
X186217Y130955D01*
X186392Y130964D01*
X186547D01*
X186702Y130974D01*
X190001D01*
Y122018D01*
D02*
G37*
G36*
X181715D02*
X179910D01*
Y130974D01*
X181715D01*
Y122018D01*
D02*
G37*
G36*
X118201Y120208D02*
X118346Y120189D01*
X118482Y120159D01*
X118608Y120130D01*
X118715Y120091D01*
X118822Y120053D01*
X118909Y120014D01*
X118996Y119965D01*
X119064Y119927D01*
X119132Y119888D01*
X119181Y119859D01*
X119219Y119830D01*
X119249Y119810D01*
X119258Y119800D01*
X119268Y119791D01*
X119394Y119655D01*
X119491Y119490D01*
X119578Y119315D01*
X119637Y119150D01*
X119675Y118995D01*
X119695Y118927D01*
X119705Y118869D01*
X119714Y118820D01*
X119724Y118782D01*
Y118762D01*
Y118752D01*
X118569Y118656D01*
X118550Y118791D01*
X118531Y118908D01*
X118501Y119005D01*
X118463Y119073D01*
X118433Y119131D01*
X118414Y119170D01*
X118395Y119189D01*
X118385Y119199D01*
X118317Y119247D01*
X118249Y119286D01*
X118172Y119315D01*
X118094Y119335D01*
X118036Y119344D01*
X117977Y119354D01*
X117929D01*
X117822Y119344D01*
X117725Y119335D01*
X117647Y119315D01*
X117580Y119286D01*
X117531Y119257D01*
X117492Y119238D01*
X117473Y119228D01*
X117463Y119218D01*
X117415Y119160D01*
X117376Y119102D01*
X117347Y119044D01*
X117327Y118985D01*
X117318Y118937D01*
X117308Y118898D01*
Y118869D01*
Y118859D01*
X117318Y118772D01*
X117337Y118685D01*
X117366Y118607D01*
X117405Y118529D01*
X117444Y118471D01*
X117473Y118423D01*
X117492Y118393D01*
X117502Y118384D01*
X117531Y118345D01*
X117580Y118306D01*
X117686Y118200D01*
X117822Y118083D01*
X117968Y117957D01*
X118104Y117850D01*
X118220Y117753D01*
X118268Y117714D01*
X118307Y117685D01*
X118327Y117676D01*
X118336Y117666D01*
X118501Y117530D01*
X118657Y117404D01*
X118792Y117287D01*
X118909Y117181D01*
X119025Y117084D01*
X119122Y116987D01*
X119200Y116899D01*
X119278Y116822D01*
X119346Y116754D01*
X119394Y116695D01*
X119472Y116608D01*
X119520Y116550D01*
X119530Y116531D01*
X119617Y116375D01*
X119695Y116210D01*
X119743Y116065D01*
X119792Y115919D01*
X119821Y115793D01*
X119840Y115696D01*
Y115657D01*
X119850Y115628D01*
Y115618D01*
Y115609D01*
X116144D01*
Y116579D01*
X118065D01*
X117997Y116637D01*
X117919Y116705D01*
X117754Y116841D01*
X117677Y116899D01*
X117618Y116948D01*
X117580Y116987D01*
X117560Y116996D01*
X117444Y117093D01*
X117337Y117181D01*
X117240Y117258D01*
X117153Y117326D01*
X117075Y117384D01*
X117007Y117443D01*
X116900Y117530D01*
X116823Y117598D01*
X116774Y117646D01*
X116745Y117666D01*
X116735Y117676D01*
X116629Y117792D01*
X116532Y117908D01*
X116454Y118005D01*
X116396Y118102D01*
X116347Y118180D01*
X116318Y118238D01*
X116299Y118277D01*
X116289Y118287D01*
X116241Y118403D01*
X116202Y118510D01*
X116182Y118617D01*
X116163Y118714D01*
X116153Y118801D01*
X116144Y118859D01*
Y118908D01*
Y118918D01*
Y119015D01*
X116163Y119111D01*
X116212Y119286D01*
X116289Y119441D01*
X116367Y119568D01*
X116454Y119684D01*
X116532Y119762D01*
X116580Y119810D01*
X116590Y119830D01*
X116600D01*
X116784Y119965D01*
X116988Y120062D01*
X117201Y120130D01*
X117415Y120179D01*
X117599Y120208D01*
X117677Y120218D01*
X117754D01*
X117812Y120227D01*
X118055D01*
X118201Y120208D01*
D02*
G37*
G36*
X149589Y120140D02*
X149841Y120111D01*
X150074Y120062D01*
X150268Y120014D01*
X150356Y119985D01*
X150433Y119956D01*
X150501Y119936D01*
X150559Y119917D01*
X150608Y119897D01*
X150637Y119878D01*
X150656Y119868D01*
X150666D01*
X150880Y119752D01*
X151064Y119626D01*
X151219Y119500D01*
X151345Y119374D01*
X151452Y119267D01*
X151530Y119170D01*
X151568Y119111D01*
X151588Y119102D01*
Y119092D01*
X151704Y118898D01*
X151801Y118685D01*
X151889Y118471D01*
X151957Y118258D01*
X152015Y118073D01*
X152034Y117996D01*
X152054Y117928D01*
X152063Y117870D01*
X152073Y117831D01*
X152083Y117802D01*
Y117792D01*
X150501Y117530D01*
X150462Y117734D01*
X150414Y117918D01*
X150356Y118064D01*
X150288Y118190D01*
X150220Y118287D01*
X150171Y118355D01*
X150133Y118403D01*
X150123Y118413D01*
X149997Y118520D01*
X149871Y118597D01*
X149744Y118646D01*
X149628Y118685D01*
X149521Y118704D01*
X149444Y118723D01*
X149366D01*
X149201Y118714D01*
X149056Y118685D01*
X148939Y118636D01*
X148832Y118588D01*
X148745Y118539D01*
X148687Y118491D01*
X148648Y118462D01*
X148638Y118452D01*
X148551Y118345D01*
X148483Y118229D01*
X148434Y118103D01*
X148396Y117996D01*
X148376Y117889D01*
X148367Y117811D01*
Y117753D01*
Y117744D01*
Y117734D01*
X148386Y117540D01*
X148425Y117375D01*
X148483Y117229D01*
X148551Y117103D01*
X148629Y117006D01*
X148687Y116938D01*
X148726Y116899D01*
X148745Y116880D01*
X148900Y116783D01*
X149065Y116705D01*
X149240Y116647D01*
X149415Y116618D01*
X149570Y116599D01*
X149638D01*
X149696Y116589D01*
X149812D01*
X149997Y115192D01*
X149832Y115240D01*
X149677Y115269D01*
X149550Y115298D01*
X149434Y115308D01*
X149337Y115318D01*
X149269Y115328D01*
X149211D01*
X149026Y115308D01*
X148861Y115269D01*
X148716Y115201D01*
X148590Y115133D01*
X148493Y115065D01*
X148415Y114998D01*
X148376Y114959D01*
X148357Y114939D01*
X148240Y114784D01*
X148153Y114619D01*
X148095Y114445D01*
X148046Y114280D01*
X148027Y114134D01*
X148017Y114076D01*
Y114018D01*
X148008Y113969D01*
Y113940D01*
Y113920D01*
Y113911D01*
X148027Y113668D01*
X148066Y113455D01*
X148124Y113271D01*
X148192Y113115D01*
X148260Y112989D01*
X148318Y112902D01*
X148357Y112844D01*
X148376Y112824D01*
X148522Y112688D01*
X148677Y112591D01*
X148823Y112523D01*
X148968Y112475D01*
X149094Y112446D01*
X149191Y112436D01*
X149230Y112426D01*
X149279D01*
X149453Y112436D01*
X149618Y112475D01*
X149764Y112533D01*
X149890Y112591D01*
X149987Y112649D01*
X150065Y112708D01*
X150103Y112746D01*
X150123Y112756D01*
X150239Y112892D01*
X150336Y113057D01*
X150414Y113212D01*
X150462Y113377D01*
X150511Y113513D01*
X150530Y113630D01*
X150540Y113678D01*
X150550Y113707D01*
Y113727D01*
Y113736D01*
X152209Y113532D01*
X152180Y113329D01*
X152131Y113125D01*
X152073Y112941D01*
X152015Y112766D01*
X151937Y112601D01*
X151860Y112455D01*
X151782Y112320D01*
X151704Y112193D01*
X151617Y112077D01*
X151549Y111980D01*
X151472Y111893D01*
X151413Y111825D01*
X151365Y111767D01*
X151326Y111728D01*
X151297Y111708D01*
X151287Y111699D01*
X151132Y111573D01*
X150967Y111466D01*
X150802Y111378D01*
X150627Y111291D01*
X150462Y111223D01*
X150297Y111175D01*
X150133Y111126D01*
X149977Y111087D01*
X149832Y111058D01*
X149696Y111039D01*
X149570Y111019D01*
X149473Y111010D01*
X149385D01*
X149327Y111000D01*
X149269D01*
X149036Y111010D01*
X148803Y111039D01*
X148590Y111078D01*
X148386Y111126D01*
X148202Y111194D01*
X148017Y111262D01*
X147852Y111340D01*
X147707Y111417D01*
X147571Y111485D01*
X147455Y111563D01*
X147358Y111631D01*
X147270Y111699D01*
X147202Y111747D01*
X147154Y111786D01*
X147125Y111815D01*
X147115Y111825D01*
X146960Y111990D01*
X146833Y112155D01*
X146717Y112320D01*
X146620Y112494D01*
X146533Y112659D01*
X146465Y112824D01*
X146407Y112989D01*
X146358Y113144D01*
X146319Y113290D01*
X146300Y113416D01*
X146280Y113532D01*
X146261Y113639D01*
Y113717D01*
X146251Y113785D01*
Y113823D01*
Y113833D01*
X146261Y113979D01*
X146271Y114124D01*
X146319Y114396D01*
X146397Y114629D01*
X146484Y114833D01*
X146523Y114920D01*
X146572Y114998D01*
X146610Y115065D01*
X146639Y115124D01*
X146678Y115162D01*
X146698Y115192D01*
X146707Y115211D01*
X146717Y115221D01*
X146804Y115328D01*
X146902Y115424D01*
X147095Y115580D01*
X147299Y115716D01*
X147503Y115813D01*
X147668Y115880D01*
X147746Y115910D01*
X147814Y115929D01*
X147862Y115948D01*
X147901Y115958D01*
X147930Y115968D01*
X147940D01*
X147717Y116104D01*
X147513Y116249D01*
X147338Y116404D01*
X147192Y116560D01*
X147066Y116715D01*
X146960Y116870D01*
X146882Y117025D01*
X146814Y117171D01*
X146756Y117307D01*
X146717Y117443D01*
X146688Y117559D01*
X146669Y117656D01*
X146659Y117734D01*
X146649Y117802D01*
Y117840D01*
Y117850D01*
X146659Y118005D01*
X146678Y118151D01*
X146707Y118296D01*
X146746Y118432D01*
X146853Y118685D01*
X146969Y118898D01*
X147028Y118995D01*
X147086Y119082D01*
X147144Y119160D01*
X147192Y119218D01*
X147231Y119267D01*
X147261Y119306D01*
X147280Y119325D01*
X147290Y119335D01*
X147435Y119480D01*
X147590Y119606D01*
X147755Y119713D01*
X147930Y119810D01*
X148095Y119888D01*
X148260Y119956D01*
X148425Y120004D01*
X148590Y120053D01*
X148735Y120082D01*
X148871Y120111D01*
X148997Y120121D01*
X149104Y120140D01*
X149191D01*
X149259Y120150D01*
X149318D01*
X149589Y120140D01*
D02*
G37*
G36*
X205050D02*
X205264Y120121D01*
X205468Y120091D01*
X205652Y120053D01*
X205836Y120004D01*
X206001Y119956D01*
X206147Y119897D01*
X206292Y119839D01*
X206418Y119781D01*
X206525Y119723D01*
X206622Y119674D01*
X206700Y119626D01*
X206758Y119587D01*
X206807Y119558D01*
X206836Y119538D01*
X206845Y119529D01*
X206991Y119403D01*
X207117Y119267D01*
X207234Y119111D01*
X207330Y118947D01*
X207418Y118782D01*
X207495Y118607D01*
X207563Y118442D01*
X207622Y118277D01*
X207670Y118122D01*
X207709Y117976D01*
X207738Y117840D01*
X207757Y117724D01*
X207777Y117627D01*
X207787Y117549D01*
X207796Y117511D01*
Y117491D01*
X206089Y117326D01*
X206079Y117462D01*
X206059Y117588D01*
X206011Y117811D01*
X205953Y117996D01*
X205895Y118141D01*
X205827Y118258D01*
X205778Y118335D01*
X205739Y118374D01*
X205730Y118393D01*
X205603Y118500D01*
X205458Y118588D01*
X205312Y118646D01*
X205177Y118685D01*
X205050Y118704D01*
X204953Y118723D01*
X204866D01*
X204672Y118714D01*
X204507Y118675D01*
X204361Y118626D01*
X204235Y118568D01*
X204138Y118510D01*
X204070Y118462D01*
X204022Y118423D01*
X204012Y118413D01*
X203905Y118287D01*
X203828Y118141D01*
X203779Y117996D01*
X203741Y117860D01*
X203721Y117724D01*
X203702Y117627D01*
Y117588D01*
Y117559D01*
Y117540D01*
Y117530D01*
X203721Y117336D01*
X203760Y117142D01*
X203818Y116967D01*
X203876Y116812D01*
X203944Y116676D01*
X204002Y116569D01*
X204032Y116531D01*
X204041Y116502D01*
X204061Y116492D01*
Y116482D01*
X204119Y116404D01*
X204196Y116307D01*
X204293Y116201D01*
X204391Y116094D01*
X204623Y115851D01*
X204876Y115609D01*
X204992Y115492D01*
X205109Y115376D01*
X205206Y115279D01*
X205303Y115192D01*
X205380Y115124D01*
X205438Y115065D01*
X205477Y115027D01*
X205487Y115017D01*
X205749Y114774D01*
X205982Y114542D01*
X206205Y114318D01*
X206399Y114115D01*
X206574Y113930D01*
X206729Y113746D01*
X206875Y113591D01*
X206991Y113445D01*
X207098Y113309D01*
X207185Y113202D01*
X207263Y113096D01*
X207321Y113018D01*
X207360Y112960D01*
X207398Y112912D01*
X207408Y112882D01*
X207418Y112873D01*
X207583Y112572D01*
X207709Y112271D01*
X207816Y111980D01*
X207893Y111718D01*
X207922Y111602D01*
X207942Y111495D01*
X207961Y111398D01*
X207981Y111320D01*
X207990Y111252D01*
Y111204D01*
X208000Y111175D01*
Y111165D01*
X201984D01*
Y112756D01*
X205400D01*
X205283Y112921D01*
X205225Y112999D01*
X205177Y113076D01*
X205128Y113135D01*
X205089Y113183D01*
X205060Y113212D01*
X205050Y113222D01*
X205002Y113271D01*
X204944Y113338D01*
X204876Y113406D01*
X204798Y113484D01*
X204633Y113649D01*
X204459Y113814D01*
X204293Y113969D01*
X204216Y114037D01*
X204148Y114095D01*
X204100Y114144D01*
X204061Y114183D01*
X204032Y114202D01*
X204022Y114212D01*
X203876Y114347D01*
X203741Y114474D01*
X203614Y114600D01*
X203498Y114706D01*
X203401Y114813D01*
X203304Y114901D01*
X203226Y114988D01*
X203149Y115065D01*
X203042Y115192D01*
X202955Y115279D01*
X202916Y115337D01*
X202896Y115357D01*
X202731Y115580D01*
X202586Y115793D01*
X202469Y115987D01*
X202372Y116152D01*
X202304Y116298D01*
X202275Y116356D01*
X202246Y116404D01*
X202227Y116443D01*
X202217Y116482D01*
X202207Y116492D01*
Y116502D01*
X202130Y116705D01*
X202081Y116909D01*
X202043Y117103D01*
X202013Y117287D01*
X201994Y117433D01*
Y117501D01*
X201984Y117549D01*
Y117598D01*
Y117627D01*
Y117646D01*
Y117656D01*
X201994Y117850D01*
X202013Y118034D01*
X202052Y118209D01*
X202101Y118384D01*
X202159Y118539D01*
X202227Y118685D01*
X202295Y118820D01*
X202363Y118937D01*
X202440Y119053D01*
X202508Y119150D01*
X202576Y119238D01*
X202634Y119306D01*
X202683Y119354D01*
X202722Y119403D01*
X202741Y119422D01*
X202751Y119432D01*
X202896Y119558D01*
X203061Y119665D01*
X203226Y119762D01*
X203391Y119849D01*
X203566Y119917D01*
X203741Y119975D01*
X203905Y120024D01*
X204070Y120062D01*
X204226Y120091D01*
X204371Y120111D01*
X204497Y120130D01*
X204604Y120140D01*
X204701Y120150D01*
X204827D01*
X205050Y120140D01*
D02*
G37*
G36*
X166802D02*
X167015Y120121D01*
X167219Y120091D01*
X167404Y120053D01*
X167588Y120004D01*
X167753Y119956D01*
X167898Y119897D01*
X168044Y119839D01*
X168170Y119781D01*
X168277Y119723D01*
X168374Y119674D01*
X168451Y119626D01*
X168510Y119587D01*
X168558Y119558D01*
X168587Y119538D01*
X168597Y119529D01*
X168743Y119403D01*
X168869Y119267D01*
X168985Y119111D01*
X169082Y118947D01*
X169169Y118782D01*
X169247Y118607D01*
X169315Y118442D01*
X169373Y118277D01*
X169422Y118122D01*
X169461Y117976D01*
X169490Y117840D01*
X169509Y117724D01*
X169528Y117627D01*
X169538Y117549D01*
X169548Y117511D01*
Y117491D01*
X167840Y117326D01*
X167830Y117462D01*
X167811Y117588D01*
X167763Y117811D01*
X167704Y117996D01*
X167646Y118141D01*
X167578Y118258D01*
X167530Y118335D01*
X167491Y118374D01*
X167481Y118393D01*
X167355Y118500D01*
X167209Y118588D01*
X167064Y118646D01*
X166928Y118685D01*
X166802Y118704D01*
X166705Y118723D01*
X166618D01*
X166423Y118714D01*
X166259Y118675D01*
X166113Y118626D01*
X165987Y118568D01*
X165890Y118510D01*
X165822Y118462D01*
X165773Y118423D01*
X165764Y118413D01*
X165657Y118287D01*
X165579Y118141D01*
X165531Y117996D01*
X165492Y117860D01*
X165473Y117724D01*
X165453Y117627D01*
Y117588D01*
Y117559D01*
Y117540D01*
Y117530D01*
X165473Y117336D01*
X165511Y117142D01*
X165570Y116967D01*
X165628Y116812D01*
X165696Y116676D01*
X165754Y116569D01*
X165783Y116531D01*
X165793Y116502D01*
X165812Y116492D01*
Y116482D01*
X165870Y116404D01*
X165948Y116307D01*
X166045Y116201D01*
X166142Y116094D01*
X166375Y115851D01*
X166627Y115609D01*
X166744Y115492D01*
X166860Y115376D01*
X166957Y115279D01*
X167054Y115192D01*
X167132Y115124D01*
X167190Y115065D01*
X167229Y115027D01*
X167239Y115017D01*
X167500Y114774D01*
X167733Y114542D01*
X167957Y114318D01*
X168151Y114115D01*
X168325Y113930D01*
X168480Y113746D01*
X168626Y113591D01*
X168743Y113445D01*
X168849Y113309D01*
X168937Y113202D01*
X169014Y113096D01*
X169072Y113018D01*
X169111Y112960D01*
X169150Y112912D01*
X169160Y112882D01*
X169169Y112873D01*
X169334Y112572D01*
X169461Y112271D01*
X169567Y111980D01*
X169645Y111718D01*
X169674Y111602D01*
X169693Y111495D01*
X169713Y111398D01*
X169732Y111320D01*
X169742Y111252D01*
Y111204D01*
X169752Y111175D01*
Y111165D01*
X163736D01*
Y112756D01*
X167151D01*
X167035Y112921D01*
X166977Y112999D01*
X166928Y113076D01*
X166880Y113135D01*
X166841Y113183D01*
X166812Y113212D01*
X166802Y113222D01*
X166753Y113271D01*
X166695Y113338D01*
X166627Y113406D01*
X166550Y113484D01*
X166385Y113649D01*
X166210Y113814D01*
X166045Y113969D01*
X165968Y114037D01*
X165900Y114095D01*
X165851Y114144D01*
X165812Y114183D01*
X165783Y114202D01*
X165773Y114212D01*
X165628Y114347D01*
X165492Y114474D01*
X165366Y114600D01*
X165250Y114706D01*
X165152Y114813D01*
X165055Y114901D01*
X164978Y114988D01*
X164900Y115065D01*
X164793Y115192D01*
X164706Y115279D01*
X164667Y115337D01*
X164648Y115357D01*
X164483Y115580D01*
X164337Y115793D01*
X164221Y115987D01*
X164124Y116152D01*
X164056Y116298D01*
X164027Y116356D01*
X163998Y116404D01*
X163978Y116443D01*
X163969Y116482D01*
X163959Y116492D01*
Y116502D01*
X163881Y116705D01*
X163833Y116909D01*
X163794Y117103D01*
X163765Y117287D01*
X163745Y117433D01*
Y117501D01*
X163736Y117549D01*
Y117598D01*
Y117627D01*
Y117646D01*
Y117656D01*
X163745Y117850D01*
X163765Y118034D01*
X163804Y118209D01*
X163852Y118384D01*
X163911Y118539D01*
X163978Y118685D01*
X164046Y118820D01*
X164114Y118937D01*
X164192Y119053D01*
X164260Y119150D01*
X164328Y119238D01*
X164386Y119306D01*
X164434Y119354D01*
X164473Y119403D01*
X164493Y119422D01*
X164502Y119432D01*
X164648Y119558D01*
X164813Y119665D01*
X164978Y119762D01*
X165143Y119849D01*
X165317Y119917D01*
X165492Y119975D01*
X165657Y120024D01*
X165822Y120062D01*
X165977Y120091D01*
X166123Y120111D01*
X166249Y120130D01*
X166356Y120140D01*
X166453Y120150D01*
X166579D01*
X166802Y120140D01*
D02*
G37*
G36*
X200597Y115337D02*
X199209Y115143D01*
X199102Y115260D01*
X198986Y115357D01*
X198870Y115444D01*
X198753Y115521D01*
X198647Y115580D01*
X198530Y115638D01*
X198326Y115716D01*
X198142Y115754D01*
X198074Y115774D01*
X198006Y115784D01*
X197948Y115793D01*
X197773D01*
X197666Y115774D01*
X197482Y115725D01*
X197317Y115657D01*
X197181Y115589D01*
X197065Y115512D01*
X196987Y115444D01*
X196939Y115395D01*
X196919Y115386D01*
Y115376D01*
X196793Y115201D01*
X196696Y115007D01*
X196628Y114803D01*
X196590Y114600D01*
X196560Y114415D01*
X196551Y114338D01*
Y114270D01*
X196541Y114212D01*
Y114173D01*
Y114144D01*
Y114134D01*
Y113979D01*
X196560Y113823D01*
X196580Y113688D01*
X196599Y113552D01*
X196628Y113435D01*
X196657Y113329D01*
X196696Y113232D01*
X196725Y113144D01*
X196764Y113067D01*
X196803Y112999D01*
X196832Y112941D01*
X196861Y112892D01*
X196881Y112863D01*
X196900Y112834D01*
X196919Y112824D01*
Y112814D01*
X196987Y112737D01*
X197065Y112669D01*
X197220Y112562D01*
X197366Y112485D01*
X197511Y112436D01*
X197637Y112397D01*
X197744Y112388D01*
X197783Y112378D01*
X197831D01*
X198006Y112397D01*
X198161Y112436D01*
X198307Y112485D01*
X198423Y112552D01*
X198530Y112611D01*
X198598Y112669D01*
X198647Y112708D01*
X198666Y112717D01*
X198782Y112853D01*
X198879Y113008D01*
X198957Y113154D01*
X199015Y113309D01*
X199054Y113435D01*
X199073Y113542D01*
X199083Y113581D01*
X199093Y113610D01*
Y113630D01*
Y113639D01*
X200800Y113455D01*
X200762Y113251D01*
X200723Y113057D01*
X200665Y112873D01*
X200597Y112698D01*
X200519Y112543D01*
X200441Y112397D01*
X200364Y112261D01*
X200286Y112135D01*
X200209Y112029D01*
X200131Y111931D01*
X200063Y111854D01*
X200005Y111786D01*
X199947Y111728D01*
X199908Y111689D01*
X199888Y111670D01*
X199879Y111660D01*
X199723Y111543D01*
X199568Y111446D01*
X199403Y111359D01*
X199229Y111281D01*
X199064Y111214D01*
X198889Y111165D01*
X198569Y111087D01*
X198423Y111058D01*
X198288Y111039D01*
X198161Y111019D01*
X198055Y111010D01*
X197967Y111000D01*
X197851D01*
X197570Y111010D01*
X197298Y111048D01*
X197045Y111107D01*
X196813Y111184D01*
X196599Y111272D01*
X196405Y111378D01*
X196221Y111485D01*
X196056Y111592D01*
X195910Y111699D01*
X195784Y111805D01*
X195677Y111912D01*
X195590Y111999D01*
X195513Y112077D01*
X195464Y112135D01*
X195435Y112174D01*
X195425Y112184D01*
X195309Y112349D01*
X195212Y112523D01*
X195124Y112688D01*
X195047Y112863D01*
X194988Y113028D01*
X194930Y113193D01*
X194891Y113348D01*
X194853Y113503D01*
X194833Y113639D01*
X194814Y113765D01*
X194795Y113882D01*
X194785Y113979D01*
X194775Y114056D01*
Y114115D01*
Y114153D01*
Y114163D01*
X194785Y114406D01*
X194814Y114639D01*
X194853Y114852D01*
X194901Y115065D01*
X194959Y115250D01*
X195027Y115434D01*
X195105Y115599D01*
X195173Y115745D01*
X195250Y115880D01*
X195328Y115997D01*
X195396Y116094D01*
X195454Y116172D01*
X195503Y116240D01*
X195542Y116288D01*
X195571Y116317D01*
X195580Y116327D01*
X195736Y116472D01*
X195891Y116599D01*
X196056Y116715D01*
X196221Y116812D01*
X196386Y116890D01*
X196541Y116958D01*
X196696Y117016D01*
X196852Y117055D01*
X196987Y117093D01*
X197113Y117113D01*
X197230Y117132D01*
X197327Y117152D01*
X197414D01*
X197472Y117161D01*
X197521D01*
X197744Y117152D01*
X197958Y117113D01*
X198152Y117074D01*
X198336Y117016D01*
X198482Y116967D01*
X198540Y116938D01*
X198598Y116919D01*
X198637Y116899D01*
X198666Y116880D01*
X198685Y116870D01*
X198695D01*
X198423Y118393D01*
X195173D01*
Y120004D01*
X199714D01*
X200597Y115337D01*
D02*
G37*
G36*
X190166D02*
X188779Y115143D01*
X188672Y115260D01*
X188556Y115357D01*
X188439Y115444D01*
X188323Y115521D01*
X188216Y115580D01*
X188099Y115638D01*
X187896Y115716D01*
X187711Y115754D01*
X187644Y115774D01*
X187576Y115784D01*
X187517Y115793D01*
X187343D01*
X187236Y115774D01*
X187052Y115725D01*
X186887Y115657D01*
X186751Y115589D01*
X186634Y115512D01*
X186557Y115444D01*
X186508Y115395D01*
X186489Y115386D01*
Y115376D01*
X186363Y115201D01*
X186266Y115007D01*
X186198Y114803D01*
X186159Y114600D01*
X186130Y114415D01*
X186120Y114338D01*
Y114270D01*
X186110Y114212D01*
Y114173D01*
Y114144D01*
Y114134D01*
Y113979D01*
X186130Y113823D01*
X186149Y113688D01*
X186169Y113552D01*
X186198Y113435D01*
X186227Y113329D01*
X186266Y113232D01*
X186295Y113144D01*
X186334Y113067D01*
X186372Y112999D01*
X186402Y112941D01*
X186431Y112892D01*
X186450Y112863D01*
X186469Y112834D01*
X186489Y112824D01*
Y112814D01*
X186557Y112737D01*
X186634Y112669D01*
X186790Y112562D01*
X186935Y112485D01*
X187081Y112436D01*
X187207Y112397D01*
X187314Y112388D01*
X187352Y112378D01*
X187401D01*
X187576Y112397D01*
X187731Y112436D01*
X187876Y112485D01*
X187993Y112552D01*
X188099Y112611D01*
X188167Y112669D01*
X188216Y112708D01*
X188235Y112717D01*
X188352Y112853D01*
X188449Y113008D01*
X188526Y113154D01*
X188585Y113309D01*
X188624Y113435D01*
X188643Y113542D01*
X188653Y113581D01*
X188662Y113610D01*
Y113630D01*
Y113639D01*
X190370Y113455D01*
X190331Y113251D01*
X190292Y113057D01*
X190234Y112873D01*
X190166Y112698D01*
X190089Y112543D01*
X190011Y112397D01*
X189933Y112261D01*
X189856Y112135D01*
X189778Y112029D01*
X189701Y111931D01*
X189633Y111854D01*
X189574Y111786D01*
X189516Y111728D01*
X189477Y111689D01*
X189458Y111670D01*
X189448Y111660D01*
X189293Y111543D01*
X189138Y111446D01*
X188973Y111359D01*
X188798Y111281D01*
X188633Y111214D01*
X188459Y111165D01*
X188138Y111087D01*
X187993Y111058D01*
X187857Y111039D01*
X187731Y111019D01*
X187624Y111010D01*
X187537Y111000D01*
X187420D01*
X187139Y111010D01*
X186867Y111048D01*
X186615Y111107D01*
X186382Y111184D01*
X186169Y111272D01*
X185975Y111378D01*
X185790Y111485D01*
X185625Y111592D01*
X185480Y111699D01*
X185354Y111805D01*
X185247Y111912D01*
X185160Y111999D01*
X185082Y112077D01*
X185033Y112135D01*
X185004Y112174D01*
X184995Y112184D01*
X184878Y112349D01*
X184781Y112523D01*
X184694Y112688D01*
X184616Y112863D01*
X184558Y113028D01*
X184500Y113193D01*
X184461Y113348D01*
X184422Y113503D01*
X184403Y113639D01*
X184383Y113765D01*
X184364Y113882D01*
X184354Y113979D01*
X184345Y114056D01*
Y114115D01*
Y114153D01*
Y114163D01*
X184354Y114406D01*
X184383Y114639D01*
X184422Y114852D01*
X184471Y115065D01*
X184529Y115250D01*
X184597Y115434D01*
X184674Y115599D01*
X184742Y115745D01*
X184820Y115880D01*
X184898Y115997D01*
X184965Y116094D01*
X185024Y116172D01*
X185072Y116240D01*
X185111Y116288D01*
X185140Y116317D01*
X185150Y116327D01*
X185305Y116472D01*
X185460Y116599D01*
X185625Y116715D01*
X185790Y116812D01*
X185955Y116890D01*
X186110Y116958D01*
X186266Y117016D01*
X186421Y117055D01*
X186557Y117093D01*
X186683Y117113D01*
X186799Y117132D01*
X186896Y117152D01*
X186984D01*
X187042Y117161D01*
X187090D01*
X187314Y117152D01*
X187527Y117113D01*
X187721Y117074D01*
X187906Y117016D01*
X188051Y116967D01*
X188109Y116938D01*
X188167Y116919D01*
X188206Y116899D01*
X188235Y116880D01*
X188255Y116870D01*
X188265D01*
X187993Y118393D01*
X184742D01*
Y120004D01*
X189283D01*
X190166Y115337D01*
D02*
G37*
G36*
X138091Y117792D02*
X138305Y117753D01*
X138499Y117705D01*
X138693Y117637D01*
X138868Y117559D01*
X139032Y117472D01*
X139188Y117384D01*
X139324Y117287D01*
X139450Y117190D01*
X139566Y117093D01*
X139663Y117006D01*
X139741Y116928D01*
X139809Y116861D01*
X139857Y116812D01*
X139886Y116773D01*
X139896Y116763D01*
Y117656D01*
X141478D01*
Y111165D01*
X139760D01*
Y114318D01*
Y114483D01*
X139750Y114639D01*
Y114784D01*
X139741Y114920D01*
X139731Y115036D01*
X139721Y115153D01*
X139702Y115250D01*
X139692Y115337D01*
X139683Y115405D01*
X139663Y115473D01*
X139654Y115531D01*
X139644Y115570D01*
X139634Y115609D01*
Y115628D01*
X139624Y115648D01*
X139566Y115793D01*
X139498Y115919D01*
X139421Y116026D01*
X139353Y116113D01*
X139285Y116181D01*
X139227Y116230D01*
X139188Y116259D01*
X139178Y116269D01*
X139052Y116346D01*
X138926Y116395D01*
X138809Y116434D01*
X138703Y116463D01*
X138606Y116482D01*
X138528Y116492D01*
X138460D01*
X138344Y116482D01*
X138237Y116472D01*
X138149Y116453D01*
X138072Y116424D01*
X138014Y116395D01*
X137975Y116375D01*
X137946Y116366D01*
X137936Y116356D01*
X137868Y116298D01*
X137810Y116230D01*
X137723Y116094D01*
X137694Y116036D01*
X137674Y115987D01*
X137655Y115948D01*
Y115939D01*
X137635Y115880D01*
X137626Y115813D01*
X137606Y115725D01*
X137597Y115638D01*
X137577Y115434D01*
X137567Y115230D01*
X137558Y115036D01*
Y114949D01*
Y114871D01*
Y114803D01*
Y114755D01*
Y114726D01*
Y114716D01*
Y111165D01*
X135840D01*
Y114280D01*
Y114445D01*
X135831Y114600D01*
Y114745D01*
X135821Y114881D01*
X135811Y114998D01*
X135801Y115104D01*
X135782Y115211D01*
X135772Y115298D01*
X135763Y115376D01*
X135743Y115434D01*
X135733Y115492D01*
X135724Y115541D01*
X135714Y115570D01*
Y115599D01*
X135704Y115618D01*
X135646Y115774D01*
X135578Y115900D01*
X135501Y116016D01*
X135423Y116104D01*
X135355Y116172D01*
X135297Y116230D01*
X135258Y116259D01*
X135248Y116269D01*
X135122Y116346D01*
X135006Y116395D01*
X134889Y116433D01*
X134792Y116463D01*
X134695Y116482D01*
X134627Y116492D01*
X134569D01*
X134395Y116472D01*
X134249Y116433D01*
X134123Y116375D01*
X134016Y116307D01*
X133939Y116240D01*
X133890Y116181D01*
X133851Y116143D01*
X133841Y116123D01*
X133812Y116065D01*
X133783Y115987D01*
X133754Y115900D01*
X133735Y115813D01*
X133706Y115599D01*
X133677Y115395D01*
X133667Y115192D01*
Y115104D01*
X133657Y115027D01*
Y114959D01*
Y114910D01*
Y114881D01*
Y114871D01*
Y111165D01*
X131940D01*
Y115308D01*
Y115473D01*
X131949Y115638D01*
X131959Y115784D01*
X131969Y115910D01*
X131979Y116036D01*
X131998Y116143D01*
X132017Y116240D01*
X132027Y116336D01*
X132046Y116414D01*
X132066Y116472D01*
X132085Y116531D01*
X132095Y116579D01*
X132105Y116608D01*
X132114Y116637D01*
X132124Y116657D01*
X132221Y116851D01*
X132338Y117025D01*
X132464Y117171D01*
X132580Y117297D01*
X132697Y117384D01*
X132784Y117452D01*
X132842Y117501D01*
X132852Y117511D01*
X132861D01*
X133056Y117608D01*
X133259Y117676D01*
X133463Y117734D01*
X133647Y117763D01*
X133812Y117782D01*
X133880Y117792D01*
X133948Y117802D01*
X134065D01*
X134268Y117792D01*
X134462Y117763D01*
X134647Y117714D01*
X134802Y117676D01*
X134938Y117627D01*
X135035Y117578D01*
X135074Y117569D01*
X135103Y117549D01*
X135113Y117540D01*
X135122D01*
X135307Y117433D01*
X135472Y117317D01*
X135627Y117181D01*
X135772Y117055D01*
X135879Y116938D01*
X135966Y116851D01*
X136005Y116812D01*
X136025Y116783D01*
X136034Y116773D01*
X136044Y116763D01*
X136160Y116948D01*
X136287Y117103D01*
X136413Y117239D01*
X136529Y117346D01*
X136636Y117433D01*
X136723Y117491D01*
X136781Y117530D01*
X136791Y117540D01*
X136801D01*
X136975Y117627D01*
X137160Y117695D01*
X137344Y117734D01*
X137509Y117773D01*
X137655Y117792D01*
X137723D01*
X137771Y117802D01*
X137878D01*
X138091Y117792D01*
D02*
G37*
G36*
X126972Y117792D02*
X127185Y117753D01*
X127379Y117705D01*
X127573Y117637D01*
X127748Y117559D01*
X127913Y117472D01*
X128068Y117384D01*
X128204Y117287D01*
X128330Y117190D01*
X128447Y117093D01*
X128544Y117006D01*
X128621Y116928D01*
X128689Y116861D01*
X128738Y116812D01*
X128767Y116773D01*
X128777Y116763D01*
Y117656D01*
X130358D01*
Y111165D01*
X128641D01*
Y114318D01*
Y114483D01*
X128631Y114639D01*
Y114784D01*
X128621Y114920D01*
X128612Y115036D01*
X128602Y115153D01*
X128583Y115250D01*
X128573Y115337D01*
X128563Y115405D01*
X128544Y115473D01*
X128534Y115531D01*
X128524Y115570D01*
X128515Y115609D01*
Y115628D01*
X128505Y115648D01*
X128447Y115793D01*
X128379Y115919D01*
X128301Y116026D01*
X128233Y116113D01*
X128165Y116181D01*
X128107Y116230D01*
X128068Y116259D01*
X128059Y116269D01*
X127933Y116346D01*
X127806Y116395D01*
X127690Y116433D01*
X127583Y116463D01*
X127486Y116482D01*
X127409Y116492D01*
X127341D01*
X127224Y116482D01*
X127117Y116472D01*
X127030Y116453D01*
X126952Y116424D01*
X126894Y116395D01*
X126855Y116375D01*
X126826Y116366D01*
X126817Y116356D01*
X126749Y116298D01*
X126691Y116230D01*
X126603Y116094D01*
X126574Y116036D01*
X126555Y115987D01*
X126535Y115948D01*
Y115939D01*
X126516Y115880D01*
X126506Y115813D01*
X126487Y115725D01*
X126477Y115638D01*
X126458Y115434D01*
X126448Y115230D01*
X126438Y115036D01*
Y114949D01*
Y114871D01*
Y114803D01*
Y114755D01*
Y114726D01*
Y114716D01*
Y111165D01*
X124721D01*
Y114279D01*
Y114445D01*
X124711Y114600D01*
Y114745D01*
X124701Y114881D01*
X124692Y114998D01*
X124682Y115104D01*
X124663Y115211D01*
X124653Y115298D01*
X124643Y115376D01*
X124624Y115434D01*
X124614Y115492D01*
X124604Y115541D01*
X124595Y115570D01*
Y115599D01*
X124585Y115618D01*
X124527Y115774D01*
X124459Y115900D01*
X124381Y116016D01*
X124304Y116104D01*
X124236Y116172D01*
X124178Y116230D01*
X124139Y116259D01*
X124129Y116269D01*
X124003Y116346D01*
X123886Y116395D01*
X123770Y116433D01*
X123673Y116463D01*
X123576Y116482D01*
X123508Y116492D01*
X123450D01*
X123275Y116472D01*
X123130Y116433D01*
X123004Y116375D01*
X122897Y116307D01*
X122819Y116240D01*
X122771Y116181D01*
X122732Y116143D01*
X122722Y116123D01*
X122693Y116065D01*
X122664Y115987D01*
X122635Y115900D01*
X122615Y115813D01*
X122586Y115599D01*
X122557Y115395D01*
X122547Y115192D01*
Y115104D01*
X122538Y115027D01*
Y114959D01*
Y114910D01*
Y114881D01*
Y114871D01*
Y111165D01*
X120820D01*
Y115308D01*
Y115473D01*
X120830Y115638D01*
X120840Y115784D01*
X120849Y115910D01*
X120859Y116036D01*
X120878Y116143D01*
X120898Y116240D01*
X120908Y116336D01*
X120927Y116414D01*
X120947Y116472D01*
X120966Y116531D01*
X120976Y116579D01*
X120985Y116608D01*
X120995Y116637D01*
X121005Y116657D01*
X121102Y116851D01*
X121218Y117025D01*
X121344Y117171D01*
X121461Y117297D01*
X121577Y117384D01*
X121664Y117452D01*
X121723Y117501D01*
X121732Y117511D01*
X121742D01*
X121936Y117608D01*
X122140Y117676D01*
X122344Y117734D01*
X122528Y117763D01*
X122693Y117782D01*
X122761Y117792D01*
X122829Y117802D01*
X122945D01*
X123149Y117792D01*
X123343Y117763D01*
X123527Y117714D01*
X123683Y117676D01*
X123819Y117627D01*
X123916Y117578D01*
X123954Y117569D01*
X123983Y117549D01*
X123993Y117540D01*
X124003D01*
X124187Y117433D01*
X124352Y117317D01*
X124507Y117181D01*
X124653Y117055D01*
X124760Y116938D01*
X124847Y116851D01*
X124886Y116812D01*
X124905Y116783D01*
X124915Y116773D01*
X124925Y116763D01*
X125041Y116948D01*
X125167Y117103D01*
X125293Y117239D01*
X125410Y117346D01*
X125517Y117433D01*
X125604Y117491D01*
X125662Y117530D01*
X125672Y117540D01*
X125681D01*
X125856Y117627D01*
X126040Y117695D01*
X126225Y117734D01*
X126390Y117773D01*
X126535Y117792D01*
X126603D01*
X126652Y117802D01*
X126758D01*
X126972Y117792D01*
D02*
G37*
G36*
X178086Y114503D02*
X180425Y111165D01*
X178416D01*
X177087Y113173D01*
X175767Y111165D01*
X173662D01*
X176058Y114580D01*
X173866Y117656D01*
X175874D01*
X177087Y115871D01*
X178232Y117656D01*
X180328D01*
X178086Y114503D01*
D02*
G37*
G36*
X193504Y111165D02*
X191787D01*
Y112882D01*
X193504D01*
Y111165D01*
D02*
G37*
G36*
X155256D02*
X153538D01*
Y112882D01*
X155256D01*
Y111165D01*
D02*
G37*
G36*
X159913Y120140D02*
X160136Y120111D01*
X160350Y120062D01*
X160544Y120004D01*
X160728Y119936D01*
X160893Y119859D01*
X161048Y119771D01*
X161184Y119694D01*
X161300Y119606D01*
X161407Y119519D01*
X161495Y119441D01*
X161572Y119374D01*
X161630Y119315D01*
X161669Y119267D01*
X161698Y119238D01*
X161708Y119228D01*
X161863Y119005D01*
X161999Y118752D01*
X162115Y118481D01*
X162213Y118190D01*
X162300Y117889D01*
X162368Y117588D01*
X162426Y117287D01*
X162474Y116987D01*
X162504Y116705D01*
X162533Y116443D01*
X162552Y116210D01*
X162572Y115997D01*
Y115910D01*
Y115832D01*
X162581Y115764D01*
Y115696D01*
Y115657D01*
Y115618D01*
Y115599D01*
Y115589D01*
X162572Y115124D01*
X162542Y114697D01*
X162504Y114299D01*
X162455Y113940D01*
X162397Y113610D01*
X162329Y113319D01*
X162261Y113057D01*
X162183Y112824D01*
X162106Y112630D01*
X162038Y112455D01*
X161970Y112310D01*
X161912Y112193D01*
X161863Y112106D01*
X161815Y112048D01*
X161795Y112009D01*
X161786Y111999D01*
X161630Y111825D01*
X161465Y111670D01*
X161291Y111534D01*
X161116Y111417D01*
X160941Y111330D01*
X160767Y111243D01*
X160602Y111175D01*
X160437Y111126D01*
X160282Y111087D01*
X160136Y111048D01*
X160010Y111029D01*
X159894Y111019D01*
X159806Y111010D01*
X159738Y111000D01*
X159680D01*
X159447Y111010D01*
X159224Y111039D01*
X159011Y111087D01*
X158816Y111145D01*
X158632Y111214D01*
X158467Y111291D01*
X158312Y111369D01*
X158176Y111456D01*
X158060Y111543D01*
X157953Y111621D01*
X157856Y111699D01*
X157788Y111767D01*
X157730Y111825D01*
X157681Y111873D01*
X157662Y111902D01*
X157652Y111912D01*
X157497Y112135D01*
X157361Y112388D01*
X157245Y112669D01*
X157138Y112950D01*
X157060Y113251D01*
X156983Y113561D01*
X156924Y113862D01*
X156876Y114163D01*
X156847Y114445D01*
X156818Y114706D01*
X156798Y114949D01*
X156779Y115153D01*
Y115250D01*
Y115328D01*
X156769Y115395D01*
Y115463D01*
Y115502D01*
Y115541D01*
Y115560D01*
Y115570D01*
X156779Y116026D01*
X156808Y116453D01*
X156847Y116851D01*
X156905Y117210D01*
X156973Y117540D01*
X157041Y117840D01*
X157128Y118112D01*
X157206Y118345D01*
X157283Y118559D01*
X157361Y118733D01*
X157439Y118888D01*
X157507Y119005D01*
X157565Y119102D01*
X157604Y119170D01*
X157633Y119209D01*
X157642Y119218D01*
X157788Y119383D01*
X157943Y119529D01*
X158108Y119655D01*
X158273Y119762D01*
X158438Y119849D01*
X158613Y119927D01*
X158778Y119985D01*
X158933Y120033D01*
X159088Y120072D01*
X159234Y120101D01*
X159360Y120121D01*
X159467Y120140D01*
X159554D01*
X159622Y120150D01*
X159680D01*
X159913Y120140D01*
D02*
G37*
G36*
X37017Y-7000D02*
X34172D01*
Y-4172D01*
X37017D01*
Y-7000D01*
D02*
G37*
%LPC*%
G36*
X27271Y-1428D02*
X23498D01*
X23486Y-1439D01*
X23475Y-1450D01*
X23464Y-1461D01*
X23453Y-1483D01*
Y-1495D01*
Y-1506D01*
Y-5124D01*
X23464Y-5168D01*
X23475Y-5180D01*
X23486Y-5191D01*
X27249D01*
X27294Y-5180D01*
X27305D01*
X27327Y-5146D01*
Y-5124D01*
Y-1506D01*
Y-1472D01*
X27316Y-1461D01*
X27305Y-1450D01*
X27271Y-1428D01*
D02*
G37*
G36*
X206195Y156684D02*
X204536D01*
X204371Y156674D01*
X204109D01*
X203993Y156664D01*
X203828D01*
X203760Y156655D01*
X203673D01*
X203643Y156645D01*
X203614D01*
X203449Y156616D01*
X203314Y156577D01*
X203197Y156529D01*
X203100Y156470D01*
X203022Y156422D01*
X202964Y156373D01*
X202935Y156344D01*
X202925Y156334D01*
X202848Y156228D01*
X202790Y156121D01*
X202751Y156004D01*
X202722Y155898D01*
X202702Y155810D01*
X202693Y155733D01*
Y155684D01*
Y155665D01*
X202702Y155510D01*
X202731Y155374D01*
X202780Y155248D01*
X202828Y155151D01*
X202877Y155063D01*
X202925Y155005D01*
X202955Y154966D01*
X202964Y154957D01*
X203071Y154869D01*
X203187Y154801D01*
X203314Y154743D01*
X203430Y154704D01*
X203527Y154675D01*
X203614Y154656D01*
X203673Y154646D01*
X203750D01*
X203828Y154636D01*
X203915D01*
X204012Y154627D01*
X204226D01*
X204449Y154617D01*
X206195D01*
Y156684D01*
D02*
G37*
G36*
Y153123D02*
X204517D01*
X204313Y153113D01*
X204129D01*
X203964Y153103D01*
X203818Y153094D01*
X203682Y153084D01*
X203566Y153065D01*
X203469Y153055D01*
X203382Y153045D01*
X203314Y153026D01*
X203255Y153016D01*
X203207Y153006D01*
X203168Y152997D01*
X203149D01*
X203129Y152987D01*
X203003Y152929D01*
X202887Y152871D01*
X202790Y152803D01*
X202712Y152735D01*
X202644Y152676D01*
X202605Y152628D01*
X202576Y152589D01*
X202566Y152579D01*
X202498Y152473D01*
X202450Y152356D01*
X202411Y152240D01*
X202392Y152133D01*
X202372Y152046D01*
X202363Y151968D01*
Y151920D01*
Y151900D01*
X202372Y151735D01*
X202402Y151580D01*
X202450Y151454D01*
X202489Y151347D01*
X202537Y151260D01*
X202586Y151192D01*
X202615Y151153D01*
X202625Y151143D01*
X202722Y151046D01*
X202838Y150969D01*
X202945Y150911D01*
X203052Y150862D01*
X203139Y150823D01*
X203216Y150804D01*
X203265Y150784D01*
X203284D01*
X203343Y150775D01*
X203411Y150765D01*
X203498D01*
X203585Y150755D01*
X203789Y150746D01*
X204002D01*
X204206Y150736D01*
X206195D01*
Y153123D01*
D02*
G37*
G36*
X195454Y156092D02*
X194212Y152774D01*
X196667D01*
X195454Y156092D01*
D02*
G37*
G36*
X149900Y156664D02*
X148687D01*
X148541Y156655D01*
X148415D01*
X148299Y156645D01*
X148192D01*
X148095Y156635D01*
X148008D01*
X147940Y156625D01*
X147881Y156616D01*
X147833D01*
X147794Y156606D01*
X147746Y156596D01*
X147726D01*
X147571Y156558D01*
X147425Y156499D01*
X147299Y156441D01*
X147202Y156373D01*
X147115Y156305D01*
X147047Y156247D01*
X147008Y156208D01*
X146999Y156199D01*
X146902Y156072D01*
X146833Y155937D01*
X146775Y155801D01*
X146746Y155675D01*
X146727Y155568D01*
X146707Y155471D01*
Y155413D01*
Y155403D01*
Y155393D01*
X146717Y155248D01*
X146736Y155112D01*
X146775Y154995D01*
X146814Y154898D01*
X146853Y154811D01*
X146892Y154753D01*
X146911Y154704D01*
X146921Y154695D01*
X146999Y154588D01*
X147095Y154501D01*
X147192Y154423D01*
X147280Y154355D01*
X147358Y154306D01*
X147425Y154277D01*
X147464Y154258D01*
X147484Y154248D01*
X147561Y154229D01*
X147649Y154200D01*
X147746Y154190D01*
X147862Y154171D01*
X148095Y154142D01*
X148328Y154132D01*
X148551Y154122D01*
X148648Y154113D01*
X149900D01*
Y156664D01*
D02*
G37*
G36*
X139847Y156092D02*
X138606Y152774D01*
X141060D01*
X139847Y156092D01*
D02*
G37*
G36*
X109604Y156781D02*
X109497D01*
X109293Y156771D01*
X109099Y156752D01*
X108915Y156713D01*
X108750Y156664D01*
X108585Y156606D01*
X108440Y156538D01*
X108304Y156470D01*
X108178Y156402D01*
X108071Y156325D01*
X107974Y156257D01*
X107896Y156189D01*
X107828Y156131D01*
X107770Y156082D01*
X107731Y156043D01*
X107712Y156024D01*
X107702Y156014D01*
X107586Y155869D01*
X107479Y155694D01*
X107392Y155519D01*
X107304Y155335D01*
X107246Y155151D01*
X107188Y154957D01*
X107139Y154762D01*
X107110Y154578D01*
X107081Y154403D01*
X107062Y154239D01*
X107042Y154093D01*
X107033Y153967D01*
X107023Y153860D01*
Y153783D01*
Y153734D01*
Y153715D01*
X107033Y153433D01*
X107052Y153162D01*
X107091Y152919D01*
X107130Y152686D01*
X107188Y152482D01*
X107246Y152288D01*
X107304Y152114D01*
X107372Y151958D01*
X107440Y151823D01*
X107498Y151706D01*
X107557Y151599D01*
X107615Y151522D01*
X107654Y151454D01*
X107692Y151415D01*
X107712Y151386D01*
X107722Y151376D01*
X107857Y151240D01*
X108003Y151124D01*
X108148Y151017D01*
X108294Y150930D01*
X108440Y150852D01*
X108595Y150794D01*
X108731Y150736D01*
X108867Y150697D01*
X109002Y150668D01*
X109119Y150639D01*
X109226Y150619D01*
X109313Y150610D01*
X109390D01*
X109449Y150600D01*
X109497D01*
X109691Y150610D01*
X109885Y150639D01*
X110070Y150678D01*
X110235Y150726D01*
X110390Y150784D01*
X110535Y150852D01*
X110671Y150920D01*
X110797Y150998D01*
X110904Y151066D01*
X111001Y151134D01*
X111088Y151202D01*
X111156Y151260D01*
X111215Y151318D01*
X111253Y151357D01*
X111273Y151376D01*
X111283Y151386D01*
X111409Y151541D01*
X111515Y151716D01*
X111603Y151890D01*
X111690Y152075D01*
X111758Y152269D01*
X111806Y152463D01*
X111855Y152647D01*
X111894Y152832D01*
X111923Y153006D01*
X111942Y153171D01*
X111962Y153317D01*
X111971Y153443D01*
Y153550D01*
X111981Y153627D01*
Y153676D01*
Y153695D01*
X111971Y153977D01*
X111952Y154239D01*
X111923Y154481D01*
X111874Y154704D01*
X111826Y154918D01*
X111768Y155102D01*
X111700Y155277D01*
X111642Y155432D01*
X111574Y155568D01*
X111515Y155684D01*
X111457Y155781D01*
X111409Y155859D01*
X111360Y155927D01*
X111331Y155966D01*
X111312Y155995D01*
X111302Y156004D01*
X111166Y156140D01*
X111030Y156257D01*
X110875Y156363D01*
X110729Y156451D01*
X110574Y156528D01*
X110429Y156596D01*
X110283Y156645D01*
X110138Y156684D01*
X110011Y156713D01*
X109885Y156742D01*
X109778Y156761D01*
X109682Y156771D01*
X109604Y156781D01*
D02*
G37*
G36*
X196473Y145723D02*
X196366D01*
X196163Y145714D01*
X195968Y145694D01*
X195784Y145655D01*
X195619Y145607D01*
X195454Y145549D01*
X195309Y145481D01*
X195173Y145413D01*
X195047Y145345D01*
X194940Y145267D01*
X194843Y145199D01*
X194765Y145132D01*
X194697Y145073D01*
X194639Y145025D01*
X194600Y144986D01*
X194581Y144967D01*
X194571Y144957D01*
X194455Y144811D01*
X194348Y144637D01*
X194261Y144462D01*
X194174Y144278D01*
X194115Y144093D01*
X194057Y143899D01*
X194009Y143705D01*
X193979Y143521D01*
X193950Y143346D01*
X193931Y143181D01*
X193911Y143036D01*
X193902Y142910D01*
X193892Y142803D01*
Y142725D01*
Y142677D01*
Y142657D01*
X193902Y142376D01*
X193921Y142104D01*
X193960Y141862D01*
X193999Y141629D01*
X194057Y141425D01*
X194115Y141231D01*
X194174Y141056D01*
X194241Y140901D01*
X194309Y140765D01*
X194368Y140649D01*
X194426Y140542D01*
X194484Y140464D01*
X194523Y140397D01*
X194562Y140358D01*
X194581Y140329D01*
X194591Y140319D01*
X194727Y140183D01*
X194872Y140067D01*
X195018Y139960D01*
X195163Y139873D01*
X195309Y139795D01*
X195464Y139737D01*
X195600Y139679D01*
X195736Y139640D01*
X195872Y139611D01*
X195988Y139582D01*
X196095Y139562D01*
X196182Y139552D01*
X196260D01*
X196318Y139543D01*
X196366D01*
X196560Y139552D01*
X196754Y139582D01*
X196939Y139620D01*
X197104Y139669D01*
X197259Y139727D01*
X197404Y139795D01*
X197540Y139863D01*
X197666Y139941D01*
X197773Y140008D01*
X197870Y140076D01*
X197958Y140144D01*
X198025Y140203D01*
X198084Y140261D01*
X198123Y140300D01*
X198142Y140319D01*
X198152Y140329D01*
X198278Y140484D01*
X198384Y140659D01*
X198472Y140833D01*
X198559Y141018D01*
X198627Y141212D01*
X198676Y141406D01*
X198724Y141590D01*
X198763Y141774D01*
X198792Y141949D01*
X198811Y142114D01*
X198831Y142260D01*
X198841Y142386D01*
Y142492D01*
X198850Y142570D01*
Y142619D01*
Y142638D01*
X198841Y142919D01*
X198821Y143181D01*
X198792Y143424D01*
X198743Y143647D01*
X198695Y143861D01*
X198637Y144045D01*
X198569Y144220D01*
X198511Y144375D01*
X198443Y144511D01*
X198384Y144627D01*
X198326Y144724D01*
X198278Y144802D01*
X198229Y144870D01*
X198200Y144908D01*
X198181Y144937D01*
X198171Y144947D01*
X198035Y145083D01*
X197899Y145199D01*
X197744Y145306D01*
X197599Y145393D01*
X197443Y145471D01*
X197298Y145539D01*
X197152Y145588D01*
X197007Y145626D01*
X196881Y145655D01*
X196754Y145685D01*
X196648Y145704D01*
X196551Y145714D01*
X196473Y145723D01*
D02*
G37*
G36*
X152412Y39554D02*
X148405D01*
X148393Y39542D01*
X148381Y39530D01*
X148370Y39519D01*
X148358Y39495D01*
Y39483D01*
Y39471D01*
Y35629D01*
X148370Y35582D01*
X148381Y35570D01*
X148393Y35559D01*
X152388D01*
X152436Y35570D01*
X152448D01*
X152471Y35606D01*
Y35629D01*
Y39471D01*
Y39507D01*
X152459Y39519D01*
X152448Y39530D01*
X152412Y39554D01*
D02*
G37*
G36*
X143408D02*
X139401D01*
X139389Y39542D01*
X139377Y39530D01*
X139366Y39519D01*
X139354Y39495D01*
Y39483D01*
Y39471D01*
Y35629D01*
X139366Y35582D01*
X139377Y35570D01*
X139389Y35559D01*
X143384D01*
X143432Y35570D01*
X143443D01*
X143467Y35606D01*
Y35629D01*
Y39471D01*
Y39507D01*
X143455Y39519D01*
X143443Y39530D01*
X143408Y39554D01*
D02*
G37*
G36*
X134380D02*
X130373D01*
X130361Y39542D01*
X130350Y39530D01*
X130338Y39519D01*
X130326Y39495D01*
Y39483D01*
Y39471D01*
Y35629D01*
X130338Y35582D01*
X130350Y35570D01*
X130361Y35559D01*
X134357D01*
X134404Y35570D01*
X134416D01*
X134439Y35606D01*
Y35629D01*
Y39471D01*
Y39507D01*
X134427Y39519D01*
X134416Y39530D01*
X134380Y39554D01*
D02*
G37*
G36*
X124987D02*
X120980D01*
X120968Y39542D01*
X120956Y39530D01*
X120945Y39519D01*
X120933Y39495D01*
Y39483D01*
Y39471D01*
Y35629D01*
X120945Y35582D01*
X120956Y35570D01*
X120968Y35559D01*
X124964D01*
X125011Y35570D01*
X125022D01*
X125046Y35606D01*
Y35629D01*
Y39471D01*
Y39507D01*
X125034Y39519D01*
X125022Y39530D01*
X124987Y39554D01*
D02*
G37*
G36*
X159660Y29734D02*
X153933D01*
X153909Y29722D01*
X153897Y29711D01*
X153885Y29687D01*
X153874Y29675D01*
X153885Y29664D01*
Y29652D01*
Y23995D01*
X153874Y23959D01*
X153885Y23948D01*
X153897Y23924D01*
X153921Y23912D01*
X159660D01*
X159684Y23924D01*
X159696Y23971D01*
Y23983D01*
Y23995D01*
Y29652D01*
X159684Y29699D01*
Y29711D01*
X159660Y29734D01*
D02*
G37*
G36*
X206195Y100442D02*
X204255D01*
X204119Y100432D01*
X203886D01*
X203789Y100423D01*
X203643D01*
X203595Y100413D01*
X203517D01*
X203479Y100403D01*
X203469D01*
X203314Y100364D01*
X203168Y100316D01*
X203052Y100267D01*
X202955Y100199D01*
X202877Y100151D01*
X202828Y100102D01*
X202790Y100064D01*
X202780Y100054D01*
X202702Y99937D01*
X202644Y99821D01*
X202596Y99705D01*
X202566Y99588D01*
X202547Y99481D01*
X202537Y99404D01*
Y99346D01*
Y99336D01*
Y99326D01*
X202547Y99181D01*
X202566Y99045D01*
X202596Y98928D01*
X202625Y98831D01*
X202663Y98754D01*
X202693Y98695D01*
X202712Y98657D01*
X202722Y98647D01*
X202799Y98550D01*
X202877Y98472D01*
X202964Y98405D01*
X203052Y98356D01*
X203120Y98317D01*
X203178Y98288D01*
X203216Y98278D01*
X203236Y98269D01*
X203304Y98249D01*
X203401Y98230D01*
X203508Y98220D01*
X203624Y98210D01*
X203886Y98191D01*
X204167Y98172D01*
X204429D01*
X204546Y98162D01*
X206195D01*
Y100442D01*
D02*
G37*
G36*
X175292Y99870D02*
X174050Y96551D01*
X176505D01*
X175292Y99870D01*
D02*
G37*
G36*
X105744Y65619D02*
X105681D01*
X105438Y65601D01*
X105212Y65564D01*
X105014Y65510D01*
X104843Y65447D01*
X104708Y65384D01*
X104654Y65357D01*
X104608Y65330D01*
X104563Y65312D01*
X104536Y65294D01*
X104527Y65276D01*
X104518D01*
X104347Y65141D01*
X104194Y64987D01*
X104067Y64834D01*
X103968Y64690D01*
X103887Y64555D01*
X103824Y64446D01*
X103806Y64401D01*
X103788Y64374D01*
X103779Y64356D01*
Y64347D01*
X103689Y64122D01*
X103625Y63887D01*
X103581Y63662D01*
X103553Y63445D01*
X103535Y63355D01*
X103526Y63265D01*
Y63193D01*
X103517Y63121D01*
Y63067D01*
Y63031D01*
Y63004D01*
Y62994D01*
X103526Y62706D01*
X103553Y62445D01*
X103598Y62210D01*
X103625Y62102D01*
X103644Y62003D01*
X103671Y61922D01*
X103698Y61840D01*
X103716Y61768D01*
X103734Y61714D01*
X103752Y61669D01*
X103770Y61633D01*
X103779Y61615D01*
Y61606D01*
X103887Y61389D01*
X104004Y61200D01*
X104122Y61038D01*
X104239Y60903D01*
X104347Y60803D01*
X104437Y60722D01*
X104473Y60695D01*
X104500Y60677D01*
X104509Y60659D01*
X104518D01*
X104708Y60551D01*
X104906Y60470D01*
X105095Y60407D01*
X105276Y60371D01*
X105429Y60343D01*
X105492Y60335D01*
X105555D01*
X105600Y60325D01*
X105663D01*
X105907Y60343D01*
X106132Y60380D01*
X106331Y60434D01*
X106502Y60497D01*
X106646Y60551D01*
X106700Y60578D01*
X106745Y60605D01*
X106782Y60632D01*
X106809Y60641D01*
X106827Y60659D01*
X106836D01*
X107007Y60794D01*
X107160Y60948D01*
X107287Y61110D01*
X107386Y61254D01*
X107467Y61389D01*
X107530Y61498D01*
X107548Y61543D01*
X107566Y61570D01*
X107575Y61588D01*
Y61597D01*
X107656Y61831D01*
X107719Y62066D01*
X107764Y62300D01*
X107791Y62517D01*
X107809Y62607D01*
Y62697D01*
X107818Y62778D01*
X107828Y62850D01*
Y62904D01*
Y62940D01*
Y62968D01*
Y62976D01*
X107818Y63256D01*
X107791Y63509D01*
X107746Y63743D01*
X107701Y63941D01*
X107674Y64032D01*
X107656Y64113D01*
X107629Y64176D01*
X107611Y64230D01*
X107602Y64275D01*
X107584Y64311D01*
X107575Y64329D01*
Y64338D01*
X107467Y64555D01*
X107350Y64744D01*
X107223Y64897D01*
X107106Y65032D01*
X106998Y65141D01*
X106908Y65213D01*
X106872Y65240D01*
X106845Y65258D01*
X106836Y65276D01*
X106827D01*
X106637Y65393D01*
X106439Y65474D01*
X106250Y65537D01*
X106069Y65573D01*
X105916Y65601D01*
X105853Y65609D01*
X105790D01*
X105744Y65619D01*
D02*
G37*
G36*
X70715Y-1428D02*
X66941D01*
X66929Y-1439D01*
X66918Y-1450D01*
X66907Y-1461D01*
X66896Y-1483D01*
Y-1495D01*
Y-1506D01*
Y-5124D01*
X66907Y-5168D01*
X66918Y-5180D01*
X66929Y-5191D01*
X70692D01*
X70737Y-5180D01*
X70748D01*
X70770Y-5146D01*
Y-5124D01*
Y-1506D01*
Y-1472D01*
X70759Y-1461D01*
X70748Y-1450D01*
X70715Y-1428D01*
D02*
G37*
G36*
X62234D02*
X58460D01*
X58449Y-1439D01*
X58438Y-1450D01*
X58427Y-1461D01*
X58416Y-1483D01*
Y-1495D01*
Y-1506D01*
Y-5124D01*
X58427Y-5168D01*
X58438Y-5180D01*
X58449Y-5191D01*
X62212D01*
X62256Y-5180D01*
X62268D01*
X62290Y-5146D01*
Y-5124D01*
Y-1506D01*
Y-1472D01*
X62279Y-1461D01*
X62268Y-1450D01*
X62234Y-1428D01*
D02*
G37*
G36*
X53732D02*
X49958D01*
X49947Y-1439D01*
X49936Y-1450D01*
X49925Y-1461D01*
X49914Y-1483D01*
Y-1495D01*
Y-1506D01*
Y-5124D01*
X49925Y-5168D01*
X49936Y-5180D01*
X49947Y-5191D01*
X53710D01*
X53754Y-5180D01*
X53765D01*
X53787Y-5146D01*
Y-5124D01*
Y-1506D01*
Y-1472D01*
X53776Y-1461D01*
X53765Y-1450D01*
X53732Y-1428D01*
D02*
G37*
G36*
X44885D02*
X41111D01*
X41100Y-1439D01*
X41089Y-1450D01*
X41078Y-1461D01*
X41067Y-1483D01*
Y-1495D01*
Y-1506D01*
Y-5124D01*
X41078Y-5168D01*
X41089Y-5180D01*
X41100Y-5191D01*
X44863D01*
X44907Y-5180D01*
X44919D01*
X44941Y-5146D01*
Y-5124D01*
Y-1506D01*
Y-1472D01*
X44930Y-1461D01*
X44919Y-1450D01*
X44885Y-1428D01*
D02*
G37*
G36*
X198142Y128374D02*
Y125327D01*
X200189D01*
X198142Y128374D01*
D02*
G37*
G36*
X188197Y129460D02*
X186984D01*
X186838Y129451D01*
X186712D01*
X186596Y129441D01*
X186489D01*
X186392Y129431D01*
X186304D01*
X186237Y129422D01*
X186178Y129412D01*
X186130D01*
X186091Y129402D01*
X186043Y129393D01*
X186023D01*
X185868Y129354D01*
X185722Y129296D01*
X185596Y129237D01*
X185499Y129170D01*
X185412Y129101D01*
X185344Y129043D01*
X185305Y129004D01*
X185295Y128995D01*
X185198Y128869D01*
X185131Y128733D01*
X185072Y128597D01*
X185043Y128471D01*
X185024Y128364D01*
X185004Y128267D01*
Y128209D01*
Y128199D01*
Y128189D01*
X185014Y128044D01*
X185033Y127908D01*
X185072Y127792D01*
X185111Y127695D01*
X185150Y127607D01*
X185189Y127549D01*
X185208Y127501D01*
X185218Y127491D01*
X185295Y127384D01*
X185392Y127297D01*
X185490Y127219D01*
X185577Y127151D01*
X185654Y127103D01*
X185722Y127074D01*
X185761Y127054D01*
X185781Y127045D01*
X185858Y127025D01*
X185945Y126996D01*
X186043Y126986D01*
X186159Y126967D01*
X186392Y126938D01*
X186625Y126928D01*
X186848Y126918D01*
X186945Y126909D01*
X188197D01*
Y129460D01*
D02*
G37*
G36*
X159729Y118723D02*
X159680D01*
X159564Y118714D01*
X159467Y118694D01*
X159370Y118656D01*
X159282Y118626D01*
X159224Y118588D01*
X159166Y118549D01*
X159137Y118529D01*
X159127Y118520D01*
X159040Y118432D01*
X158962Y118316D01*
X158894Y118190D01*
X158836Y118054D01*
X158787Y117928D01*
X158758Y117831D01*
X158749Y117792D01*
X158739Y117763D01*
X158729Y117744D01*
Y117734D01*
X158700Y117608D01*
X158671Y117472D01*
X158652Y117317D01*
X158632Y117142D01*
X158603Y116793D01*
X158584Y116434D01*
X158574Y116259D01*
Y116104D01*
X158564Y115948D01*
Y115822D01*
Y115716D01*
Y115638D01*
Y115589D01*
Y115570D01*
Y115289D01*
X158574Y115017D01*
X158584Y114774D01*
X158593Y114551D01*
X158603Y114347D01*
X158622Y114163D01*
X158642Y113998D01*
X158652Y113853D01*
X158671Y113727D01*
X158690Y113620D01*
X158710Y113532D01*
X158720Y113455D01*
X158729Y113397D01*
X158739Y113358D01*
X158749Y113338D01*
Y113329D01*
X158807Y113154D01*
X158865Y112999D01*
X158923Y112882D01*
X158991Y112785D01*
X159040Y112708D01*
X159088Y112659D01*
X159117Y112630D01*
X159127Y112620D01*
X159224Y112552D01*
X159311Y112504D01*
X159408Y112475D01*
X159496Y112455D01*
X159573Y112436D01*
X159632Y112426D01*
X159680D01*
X159796Y112436D01*
X159894Y112455D01*
X159991Y112485D01*
X160068Y112523D01*
X160136Y112562D01*
X160194Y112591D01*
X160223Y112611D01*
X160233Y112620D01*
X160320Y112708D01*
X160398Y112824D01*
X160466Y112950D01*
X160524Y113086D01*
X160573Y113202D01*
X160602Y113300D01*
X160611Y113338D01*
X160621Y113368D01*
X160631Y113387D01*
Y113397D01*
X160660Y113523D01*
X160679Y113659D01*
X160699Y113814D01*
X160718Y113989D01*
X160747Y114347D01*
X160767Y114706D01*
X160777Y114881D01*
Y115036D01*
Y115182D01*
X160786Y115318D01*
Y115424D01*
Y115502D01*
Y115551D01*
Y115570D01*
Y115851D01*
X160777Y116113D01*
X160767Y116366D01*
X160757Y116579D01*
X160747Y116783D01*
X160728Y116967D01*
X160718Y117132D01*
X160699Y117278D01*
X160679Y117404D01*
X160670Y117520D01*
X160650Y117608D01*
X160641Y117685D01*
X160631Y117744D01*
X160621Y117782D01*
X160611Y117802D01*
Y117811D01*
X160553Y117986D01*
X160495Y118141D01*
X160427Y118258D01*
X160369Y118355D01*
X160320Y118432D01*
X160272Y118481D01*
X160243Y118510D01*
X160233Y118520D01*
X160136Y118588D01*
X160049Y118636D01*
X159952Y118675D01*
X159864Y118694D01*
X159787Y118714D01*
X159729Y118723D01*
D02*
G37*
%LPD*%
D10*
X65200Y82000D02*
G03*
X65200Y82000I-1000J0D01*
G01*
D11*
X97000Y138999D02*
X98999D01*
X98000D01*
Y134001D01*
X98999Y133001D01*
X99999D01*
X100999Y134001D01*
X95001Y133001D02*
X93001D01*
X94001D01*
Y138999D01*
X95001Y137999D01*
D30*
X102000Y75500D02*
Y123500D01*
X70500Y69500D02*
X89500D01*
X70500D02*
Y78000D01*
Y129500D02*
X89500D01*
X70500Y121000D02*
Y129500D01*
M02*
