M48
;Layer_Color=9474304
;FILE_FORMAT=2:4
INCH,TZ
;TYPE=PLATED
T01F00S00C0.0118
T02F00S00C0.0394
T03F00S00C0.0433
T04F00S00C0.0591
%
T01
X4134Y3583
Y4055
X6339Y3819
T02
X4232Y118
X5217
X6201
X197Y2638
Y5197
X1969
Y2638
X9016Y2933
Y3917
Y4902
T03
X9094Y39
X-39Y39
X-39Y7008
X9094
T04
X2598Y866
X7835
Y6969
X2598
M30
