G04*
G04 #@! TF.GenerationSoftware,Altium Limited,Altium Designer,26.5.0 (11)*
G04*
G04 Layer_Color=8388736*
G04 Board_Origin=37750000|39155906*
%FSLAX44Y44*%
%MOMM*%
G71*
G04*
G04 #@! TF.SameCoordinates,4144DE4D-EBE6-4A72-B46E-C9550163EE8F*
G04*
G04*
G04 #@! TF.FilePolarity,Negative*
G04*
G01*
G75*
%ADD16R,0.4000X0.9000*%
%ADD17R,0.5000X0.9000*%
%ADD18C,1.7000*%
%ADD19R,12.8000X19.3000*%
G04:AMPARAMS|DCode=20|XSize=2.9mm|YSize=2.6mm|CornerRadius=0.675mm|HoleSize=0mm|Usage=FLASHONLY|Rotation=180.000|XOffset=0mm|YOffset=0mm|HoleType=Round|Shape=RoundedRectangle|*
%AMROUNDEDRECTD20*
21,1,2.9000,1.2500,0,0,180.0*
21,1,1.5500,2.6000,0,0,180.0*
1,1,1.3500,-0.7750,0.6250*
1,1,1.3500,0.7750,0.6250*
1,1,1.3500,0.7750,-0.6250*
1,1,1.3500,-0.7750,-0.6250*
%
%ADD20ROUNDEDRECTD20*%
%ADD21O,1.3500X1.6000*%
%ADD22C,2.2000*%
D16*
X17501Y-229500D02*
D03*
X-17499D02*
D03*
X-12499D02*
D03*
X-7499D02*
D03*
X-2499D02*
D03*
X2501D02*
D03*
X7501D02*
D03*
X12501D02*
D03*
D17*
X27501Y-254500D02*
D03*
X-27499D02*
D03*
D18*
X127500Y-87500D02*
D03*
Y-152500D02*
D03*
X82500Y-87500D02*
D03*
Y-152500D02*
D03*
D19*
X5500Y-120000D02*
D03*
D20*
X-95000Y-71000D02*
D03*
Y-169000D02*
D03*
D21*
X-75000Y-95000D02*
D03*
Y-145000D02*
D03*
Y-120000D02*
D03*
D22*
X100000Y-245000D02*
D03*
X-100000D02*
D03*
X100000Y-20000D02*
D03*
X-100000D02*
D03*
X115000Y-66000D02*
D03*
Y-174000D02*
D03*
X83000D02*
D03*
Y-66000D02*
D03*
M02*
