G04*
G04 #@! TF.GenerationSoftware,Altium Limited,Altium Designer,26.5.0 (11)*
G04*
G04 Layer_Color=32896*
G04 Board_Origin=37750000|39155906*
%FSLAX44Y44*%
%MOMM*%
G71*
G04*
G04 #@! TF.SameCoordinates,4144DE4D-EBE6-4A72-B46E-C9550163EE8F*
G04*
G04*
G04 #@! TF.FilePolarity,Positive*
G04*
G01*
G75*
G36*
X75991Y-4519D02*
X76054D01*
Y-4535D01*
X76102D01*
Y-4551D01*
X76133D01*
Y-4567D01*
X76165D01*
Y-4582D01*
X76197D01*
Y-4598D01*
X76228D01*
Y-4614D01*
X76244D01*
Y-4630D01*
X76276D01*
Y-4646D01*
X76292D01*
Y-4662D01*
X76308D01*
Y-4678D01*
X76323D01*
Y-4693D01*
X76339D01*
Y-4709D01*
X76355D01*
Y-4741D01*
X76371D01*
Y-4757D01*
X76387D01*
Y-4788D01*
X76403D01*
Y-4804D01*
X76418D01*
Y-4836D01*
X76434D01*
Y-4883D01*
X76450D01*
Y-4931D01*
X76466D01*
Y-5026D01*
X76482D01*
Y-11581D01*
X76466D01*
Y-11660D01*
X76450D01*
Y-11723D01*
X76434D01*
Y-11755D01*
X76418D01*
Y-11787D01*
X76403D01*
Y-11818D01*
X76387D01*
Y-11850D01*
X76371D01*
Y-11866D01*
X76355D01*
Y-11882D01*
X76339D01*
Y-11897D01*
X76323D01*
Y-11913D01*
X76308D01*
Y-11929D01*
X76292D01*
Y-11945D01*
X76276D01*
Y-11961D01*
X76260D01*
Y-11977D01*
X76244D01*
Y-11992D01*
X76228D01*
Y-12008D01*
X76197D01*
Y-12024D01*
X76165D01*
Y-12040D01*
X76133D01*
Y-12056D01*
X76086D01*
Y-12072D01*
X76038D01*
Y-12088D01*
X75928D01*
Y-12103D01*
X73473D01*
Y-12088D01*
X73362D01*
Y-12072D01*
X73299D01*
Y-12056D01*
X73252D01*
Y-12040D01*
X73220D01*
Y-12024D01*
X73188D01*
Y-12008D01*
X73172D01*
Y-11992D01*
X73141D01*
Y-11977D01*
X73125D01*
Y-11961D01*
X73109D01*
Y-11945D01*
X73078D01*
Y-11929D01*
X73062D01*
Y-11913D01*
X73046D01*
Y-11882D01*
X73030D01*
Y-11866D01*
X73014D01*
Y-11850D01*
X72998D01*
Y-11818D01*
X72983D01*
Y-11803D01*
X72967D01*
Y-11771D01*
X72951D01*
Y-11739D01*
X72935D01*
Y-11692D01*
X72919D01*
Y-11628D01*
X72903D01*
Y-9333D01*
X72888D01*
Y-9253D01*
X72872D01*
Y-9206D01*
X72856D01*
Y-9158D01*
X72840D01*
Y-9127D01*
X72824D01*
Y-9095D01*
X72808D01*
Y-9079D01*
X72793D01*
Y-9047D01*
X72777D01*
Y-9032D01*
X72761D01*
Y-9016D01*
X72745D01*
Y-9000D01*
X72713D01*
Y-8984D01*
X72698D01*
Y-8968D01*
X72603D01*
Y-8984D01*
X72555D01*
Y-9000D01*
X72539D01*
Y-9016D01*
X72523D01*
Y-9032D01*
X72508D01*
Y-9047D01*
X72492D01*
Y-9063D01*
X72476D01*
Y-9079D01*
X72460D01*
Y-9095D01*
X72444D01*
Y-9111D01*
X72428D01*
Y-9127D01*
X72413D01*
Y-9143D01*
X72397D01*
Y-9158D01*
X72381D01*
Y-9174D01*
X72365D01*
Y-9190D01*
X72349D01*
Y-9206D01*
X72333D01*
Y-9222D01*
X72318D01*
Y-9237D01*
X72302D01*
Y-9269D01*
X72286D01*
Y-9285D01*
X72270D01*
Y-9301D01*
X72254D01*
Y-9317D01*
X72238D01*
Y-9333D01*
X72222D01*
Y-9348D01*
X72207D01*
Y-9364D01*
X72191D01*
Y-9380D01*
X72175D01*
Y-9396D01*
X72159D01*
Y-9412D01*
X72143D01*
Y-9427D01*
X72127D01*
Y-9443D01*
X72112D01*
Y-9459D01*
X72096D01*
Y-9475D01*
X72080D01*
Y-9491D01*
X72064D01*
Y-9507D01*
X72048D01*
Y-9523D01*
X72032D01*
Y-9538D01*
X72017D01*
Y-9570D01*
X72001D01*
Y-9586D01*
X71985D01*
Y-9602D01*
X71969D01*
Y-9617D01*
X71953D01*
Y-9633D01*
X71937D01*
Y-9649D01*
X71922D01*
Y-9665D01*
X71906D01*
Y-9681D01*
X71890D01*
Y-9697D01*
X71874D01*
Y-9712D01*
X71858D01*
Y-9728D01*
X71842D01*
Y-9744D01*
X71827D01*
Y-9760D01*
X71811D01*
Y-9776D01*
X71795D01*
Y-9792D01*
X71779D01*
Y-9808D01*
X71763D01*
Y-9823D01*
X71747D01*
Y-9839D01*
X71732D01*
Y-9855D01*
X71716D01*
Y-9871D01*
X71700D01*
Y-9887D01*
X71684D01*
Y-9918D01*
X71668D01*
Y-9934D01*
X71652D01*
Y-9950D01*
X71637D01*
Y-9966D01*
X71621D01*
Y-9982D01*
X71605D01*
Y-9998D01*
X71589D01*
Y-10013D01*
X71573D01*
Y-10029D01*
X71557D01*
Y-10045D01*
X71542D01*
Y-10061D01*
X71526D01*
Y-10077D01*
X71510D01*
Y-10093D01*
X71494D01*
Y-10108D01*
X71478D01*
Y-10124D01*
X71462D01*
Y-10140D01*
X71447D01*
Y-10156D01*
X71431D01*
Y-10172D01*
X71415D01*
Y-10187D01*
X71399D01*
Y-10203D01*
X71383D01*
Y-10219D01*
X71368D01*
Y-10251D01*
X71352D01*
Y-10267D01*
X71336D01*
Y-10282D01*
X71320D01*
Y-10298D01*
X71304D01*
Y-10314D01*
X71288D01*
Y-10330D01*
X71273D01*
Y-10346D01*
X71257D01*
Y-10362D01*
X71241D01*
Y-10378D01*
X71225D01*
Y-10393D01*
X71209D01*
Y-10409D01*
X71193D01*
Y-10425D01*
X71178D01*
Y-10441D01*
X71162D01*
Y-10457D01*
X71146D01*
Y-10473D01*
X71130D01*
Y-10488D01*
X71114D01*
Y-10504D01*
X71098D01*
Y-10520D01*
X71083D01*
Y-10536D01*
X71067D01*
Y-10568D01*
X71051D01*
Y-10583D01*
X71035D01*
Y-10599D01*
X71019D01*
Y-10615D01*
X71003D01*
Y-10631D01*
X70988D01*
Y-10647D01*
X70972D01*
Y-10662D01*
X70956D01*
Y-10678D01*
X70940D01*
Y-10694D01*
X70924D01*
Y-10710D01*
X70908D01*
Y-10726D01*
X70893D01*
Y-10742D01*
X70877D01*
Y-10757D01*
X70861D01*
Y-10773D01*
X70845D01*
Y-10789D01*
X70829D01*
Y-10805D01*
X70813D01*
Y-10821D01*
X70798D01*
Y-10837D01*
X70782D01*
Y-10853D01*
X70766D01*
Y-10884D01*
X70750D01*
Y-10900D01*
X70734D01*
Y-10916D01*
X70718D01*
Y-10932D01*
X70703D01*
Y-10948D01*
X70687D01*
Y-10963D01*
X70671D01*
Y-10979D01*
X70655D01*
Y-10995D01*
X70639D01*
Y-11011D01*
X70623D01*
Y-11027D01*
X70608D01*
Y-11042D01*
X70592D01*
Y-11058D01*
X70576D01*
Y-11074D01*
X70560D01*
Y-11090D01*
X70544D01*
Y-11106D01*
X70528D01*
Y-11122D01*
X70512D01*
Y-11137D01*
X70497D01*
Y-11153D01*
X70481D01*
Y-11169D01*
X70465D01*
Y-11201D01*
X70449D01*
Y-11217D01*
X70433D01*
Y-11233D01*
X70417D01*
Y-11248D01*
X70402D01*
Y-11264D01*
X70386D01*
Y-11280D01*
X70370D01*
Y-11296D01*
X70354D01*
Y-11312D01*
X70338D01*
Y-11328D01*
X70322D01*
Y-11343D01*
X70307D01*
Y-11359D01*
X70291D01*
Y-11375D01*
X70275D01*
Y-11391D01*
X70259D01*
Y-11407D01*
X70243D01*
Y-11422D01*
X70227D01*
Y-11438D01*
X70212D01*
Y-11454D01*
X70196D01*
Y-11470D01*
X70180D01*
Y-11486D01*
X70164D01*
Y-11517D01*
X70148D01*
Y-11533D01*
X70132D01*
Y-11549D01*
X70117D01*
Y-11565D01*
X70101D01*
Y-11581D01*
X70085D01*
Y-11597D01*
X70069D01*
Y-11612D01*
X70053D01*
Y-11628D01*
X70037D01*
Y-11644D01*
X70022D01*
Y-11660D01*
X70006D01*
Y-11676D01*
X69990D01*
Y-11692D01*
X69974D01*
Y-11708D01*
X69958D01*
Y-11723D01*
X69942D01*
Y-11739D01*
X69927D01*
Y-11755D01*
X69911D01*
Y-11771D01*
X69895D01*
Y-11787D01*
X69879D01*
Y-11803D01*
X69863D01*
Y-11834D01*
X69847D01*
Y-11850D01*
X69832D01*
Y-11866D01*
X69816D01*
Y-11882D01*
X69800D01*
Y-11897D01*
X69784D01*
Y-11913D01*
X69768D01*
Y-11929D01*
X69752D01*
Y-11945D01*
X69721D01*
Y-11961D01*
X69705D01*
Y-11977D01*
X69689D01*
Y-11992D01*
X69658D01*
Y-12008D01*
X69626D01*
Y-12024D01*
X69594D01*
Y-12040D01*
X69547D01*
Y-12056D01*
X69483D01*
Y-12072D01*
X69278D01*
Y-12056D01*
X69198D01*
Y-12040D01*
X69151D01*
Y-12024D01*
X69119D01*
Y-12008D01*
X69088D01*
Y-11992D01*
X69056D01*
Y-11977D01*
X69040D01*
Y-11961D01*
X69024D01*
Y-11945D01*
X69008D01*
Y-11929D01*
X68993D01*
Y-11913D01*
X68961D01*
Y-11897D01*
X68945D01*
Y-11882D01*
X68929D01*
Y-11850D01*
X68913D01*
Y-11834D01*
X68898D01*
Y-11818D01*
X68882D01*
Y-11803D01*
X68866D01*
Y-11787D01*
X68850D01*
Y-11771D01*
X68834D01*
Y-11755D01*
X68818D01*
Y-11739D01*
X68802D01*
Y-11723D01*
X68787D01*
Y-11708D01*
X68771D01*
Y-11692D01*
X68755D01*
Y-11676D01*
X68739D01*
Y-11660D01*
X68723D01*
Y-11644D01*
X68707D01*
Y-11628D01*
X68692D01*
Y-11612D01*
X68676D01*
Y-11597D01*
X68660D01*
Y-11581D01*
X68644D01*
Y-11565D01*
X68628D01*
Y-11533D01*
X68612D01*
Y-11517D01*
X68597D01*
Y-11502D01*
X68581D01*
Y-11486D01*
X68565D01*
Y-11470D01*
X68549D01*
Y-11454D01*
X68533D01*
Y-11438D01*
X68517D01*
Y-11422D01*
X68502D01*
Y-11407D01*
X68486D01*
Y-11391D01*
X68470D01*
Y-11375D01*
X68454D01*
Y-11359D01*
X68438D01*
Y-11343D01*
X68422D01*
Y-11328D01*
X68407D01*
Y-11312D01*
X68391D01*
Y-11296D01*
X68375D01*
Y-11280D01*
X68359D01*
Y-11264D01*
X68343D01*
Y-11248D01*
X68327D01*
Y-11217D01*
X68312D01*
Y-11201D01*
X68296D01*
Y-11185D01*
X68280D01*
Y-11169D01*
X68264D01*
Y-11153D01*
X68248D01*
Y-11137D01*
X68232D01*
Y-11122D01*
X68217D01*
Y-11106D01*
X68201D01*
Y-11090D01*
X68185D01*
Y-11074D01*
X68169D01*
Y-11058D01*
X68153D01*
Y-11042D01*
X68137D01*
Y-11027D01*
X68122D01*
Y-11011D01*
X68106D01*
Y-10995D01*
X68090D01*
Y-10979D01*
X68074D01*
Y-10963D01*
X68058D01*
Y-10948D01*
X68042D01*
Y-10932D01*
X68027D01*
Y-10900D01*
X68011D01*
Y-10884D01*
X67995D01*
Y-10868D01*
X67979D01*
Y-10853D01*
X67963D01*
Y-10837D01*
X67948D01*
Y-10821D01*
X67932D01*
Y-10805D01*
X67916D01*
Y-10789D01*
X67900D01*
Y-10773D01*
X67884D01*
Y-10757D01*
X67868D01*
Y-10742D01*
X67853D01*
Y-10726D01*
X67837D01*
Y-10710D01*
X67821D01*
Y-10694D01*
X67805D01*
Y-10678D01*
X67789D01*
Y-10662D01*
X67773D01*
Y-10647D01*
X67758D01*
Y-10631D01*
X67742D01*
Y-10615D01*
X67726D01*
Y-10583D01*
X67710D01*
Y-10568D01*
X67694D01*
Y-10552D01*
X67678D01*
Y-10536D01*
X67663D01*
Y-10520D01*
X67647D01*
Y-10504D01*
X67631D01*
Y-10488D01*
X67615D01*
Y-10473D01*
X67599D01*
Y-10457D01*
X67583D01*
Y-10441D01*
X67568D01*
Y-10425D01*
X67552D01*
Y-10409D01*
X67536D01*
Y-10393D01*
X67520D01*
Y-10378D01*
X67504D01*
Y-10362D01*
X67488D01*
Y-10346D01*
X67473D01*
Y-10330D01*
X67457D01*
Y-10314D01*
X67441D01*
Y-10298D01*
X67425D01*
Y-10267D01*
X67409D01*
Y-10251D01*
X67393D01*
Y-10235D01*
X67378D01*
Y-10219D01*
X67362D01*
Y-10203D01*
X67346D01*
Y-10187D01*
X67330D01*
Y-10172D01*
X67314D01*
Y-10156D01*
X67298D01*
Y-10140D01*
X67283D01*
Y-10124D01*
X67267D01*
Y-10108D01*
X67251D01*
Y-10093D01*
X67235D01*
Y-10077D01*
X67219D01*
Y-10061D01*
X67203D01*
Y-10045D01*
X67188D01*
Y-10029D01*
X67172D01*
Y-10013D01*
X67156D01*
Y-9998D01*
X67140D01*
Y-9982D01*
X67124D01*
Y-9950D01*
X67108D01*
Y-9934D01*
X67092D01*
Y-9918D01*
X67077D01*
Y-9902D01*
X67061D01*
Y-9887D01*
X67045D01*
Y-9871D01*
X67029D01*
Y-9855D01*
X67013D01*
Y-9839D01*
X66997D01*
Y-9823D01*
X66982D01*
Y-9808D01*
X66966D01*
Y-9792D01*
X66950D01*
Y-9776D01*
X66934D01*
Y-9760D01*
X66918D01*
Y-9744D01*
X66902D01*
Y-9728D01*
X66887D01*
Y-9712D01*
X66871D01*
Y-9697D01*
X66855D01*
Y-9681D01*
X66839D01*
Y-9665D01*
X66823D01*
Y-9633D01*
X66807D01*
Y-9617D01*
X66792D01*
Y-9602D01*
X66776D01*
Y-9586D01*
X66760D01*
Y-9570D01*
X66744D01*
Y-9554D01*
X66728D01*
Y-9538D01*
X66712D01*
Y-9523D01*
X66697D01*
Y-9507D01*
X66681D01*
Y-9491D01*
X66665D01*
Y-9475D01*
X66649D01*
Y-9459D01*
X66633D01*
Y-9443D01*
X66617D01*
Y-9427D01*
X66602D01*
Y-9412D01*
X66586D01*
Y-9396D01*
X66570D01*
Y-9380D01*
X66554D01*
Y-9364D01*
X66538D01*
Y-9348D01*
X66522D01*
Y-9333D01*
X66507D01*
Y-9317D01*
X66491D01*
Y-9285D01*
X66475D01*
Y-9269D01*
X66459D01*
Y-9253D01*
X66443D01*
Y-9237D01*
X66427D01*
Y-9222D01*
X66412D01*
Y-9206D01*
X66396D01*
Y-9190D01*
X66380D01*
Y-9174D01*
X66364D01*
Y-9158D01*
X66348D01*
Y-9143D01*
X66333D01*
Y-9127D01*
X66317D01*
Y-9111D01*
X66301D01*
Y-9095D01*
X66285D01*
Y-9079D01*
X66269D01*
Y-9063D01*
X66253D01*
Y-9047D01*
X66238D01*
Y-9032D01*
X66222D01*
Y-9016D01*
X66206D01*
Y-9000D01*
X66190D01*
Y-8984D01*
X66143D01*
Y-8968D01*
X66063D01*
Y-8984D01*
X66032D01*
Y-9000D01*
X66000D01*
Y-9016D01*
X65984D01*
Y-9032D01*
X65968D01*
Y-9063D01*
X65953D01*
Y-9079D01*
X65937D01*
Y-9111D01*
X65921D01*
Y-9143D01*
X65905D01*
Y-9174D01*
X65889D01*
Y-9222D01*
X65873D01*
Y-9269D01*
X65858D01*
Y-9364D01*
X65842D01*
Y-11644D01*
X65826D01*
Y-11692D01*
X65810D01*
Y-11739D01*
X65794D01*
Y-11771D01*
X65778D01*
Y-11803D01*
X65763D01*
Y-11834D01*
X65747D01*
Y-11850D01*
X65731D01*
Y-11882D01*
X65715D01*
Y-11897D01*
X65699D01*
Y-11913D01*
X65683D01*
Y-11929D01*
X65668D01*
Y-11945D01*
X65652D01*
Y-11961D01*
X65620D01*
Y-11977D01*
X65604D01*
Y-11992D01*
X65588D01*
Y-12008D01*
X65557D01*
Y-12024D01*
X65525D01*
Y-12040D01*
X65493D01*
Y-12056D01*
X65446D01*
Y-12072D01*
X65382D01*
Y-12088D01*
X65272D01*
Y-12103D01*
X62818D01*
Y-12088D01*
X62707D01*
Y-12072D01*
X62659D01*
Y-12056D01*
X62612D01*
Y-12040D01*
X62580D01*
Y-12024D01*
X62548D01*
Y-12008D01*
X62533D01*
Y-11992D01*
X62501D01*
Y-11977D01*
X62485D01*
Y-11961D01*
X62469D01*
Y-11945D01*
X62453D01*
Y-11929D01*
X62438D01*
Y-11913D01*
X62422D01*
Y-11897D01*
X62406D01*
Y-11882D01*
X62390D01*
Y-11866D01*
X62374D01*
Y-11834D01*
X62358D01*
Y-11818D01*
X62343D01*
Y-11787D01*
X62327D01*
Y-11755D01*
X62311D01*
Y-11708D01*
X62295D01*
Y-11660D01*
X62279D01*
Y-11549D01*
X62263D01*
Y-5058D01*
X62279D01*
Y-4947D01*
X62295D01*
Y-4899D01*
X62311D01*
Y-4852D01*
X62327D01*
Y-4820D01*
X62343D01*
Y-4788D01*
X62358D01*
Y-4757D01*
X62374D01*
Y-4741D01*
X62390D01*
Y-4725D01*
X62406D01*
Y-4709D01*
X62422D01*
Y-4678D01*
X62438D01*
Y-4662D01*
X62453D01*
Y-4646D01*
X62485D01*
Y-4630D01*
X62501D01*
Y-4614D01*
X62517D01*
Y-4598D01*
X62548D01*
Y-4582D01*
X62580D01*
Y-4567D01*
X62612D01*
Y-4551D01*
X62643D01*
Y-4535D01*
X62691D01*
Y-4519D01*
X62754D01*
Y-4503D01*
X65731D01*
Y-4519D01*
X65794D01*
Y-4535D01*
X65826D01*
Y-4551D01*
X65873D01*
Y-4567D01*
X65889D01*
Y-4582D01*
X65921D01*
Y-4598D01*
X65953D01*
Y-4614D01*
X65968D01*
Y-4630D01*
X65984D01*
Y-4646D01*
X66016D01*
Y-4662D01*
X66032D01*
Y-4678D01*
X66048D01*
Y-4693D01*
X66063D01*
Y-4725D01*
X66079D01*
Y-4741D01*
X66095D01*
Y-4757D01*
X66111D01*
Y-4773D01*
X66127D01*
Y-4788D01*
X66143D01*
Y-4804D01*
X66158D01*
Y-4820D01*
X66174D01*
Y-4836D01*
X66190D01*
Y-4852D01*
X66206D01*
Y-4868D01*
X66222D01*
Y-4883D01*
X66238D01*
Y-4899D01*
X66253D01*
Y-4915D01*
X66269D01*
Y-4931D01*
X66285D01*
Y-4947D01*
X66301D01*
Y-4963D01*
X66317D01*
Y-4978D01*
X66333D01*
Y-4994D01*
X66348D01*
Y-5026D01*
X66364D01*
Y-5042D01*
X66380D01*
Y-5058D01*
X66396D01*
Y-5073D01*
X66412D01*
Y-5089D01*
X66427D01*
Y-5105D01*
X66443D01*
Y-5121D01*
X66459D01*
Y-5137D01*
X66475D01*
Y-5153D01*
X66491D01*
Y-5168D01*
X66507D01*
Y-5184D01*
X66522D01*
Y-5200D01*
X66538D01*
Y-5216D01*
X66554D01*
Y-5232D01*
X66570D01*
Y-5247D01*
X66586D01*
Y-5263D01*
X66602D01*
Y-5279D01*
X66617D01*
Y-5295D01*
X66633D01*
Y-5311D01*
X66649D01*
Y-5343D01*
X66665D01*
Y-5358D01*
X66681D01*
Y-5374D01*
X66697D01*
Y-5390D01*
X66712D01*
Y-5406D01*
X66728D01*
Y-5422D01*
X66744D01*
Y-5437D01*
X66760D01*
Y-5453D01*
X66776D01*
Y-5469D01*
X66792D01*
Y-5485D01*
X66807D01*
Y-5501D01*
X66823D01*
Y-5517D01*
X66839D01*
Y-5533D01*
X66855D01*
Y-5548D01*
X66871D01*
Y-5564D01*
X66887D01*
Y-5580D01*
X66902D01*
Y-5596D01*
X66918D01*
Y-5612D01*
X66934D01*
Y-5627D01*
X66950D01*
Y-5643D01*
X66966D01*
Y-5659D01*
X66982D01*
Y-5691D01*
X66997D01*
Y-5707D01*
X67013D01*
Y-5723D01*
X67029D01*
Y-5738D01*
X67045D01*
Y-5754D01*
X67061D01*
Y-5770D01*
X67077D01*
Y-5786D01*
X67092D01*
Y-5802D01*
X67108D01*
Y-5817D01*
X67124D01*
Y-5833D01*
X67140D01*
Y-5849D01*
X67156D01*
Y-5865D01*
X67172D01*
Y-5881D01*
X67188D01*
Y-5897D01*
X67203D01*
Y-5913D01*
X67219D01*
Y-5928D01*
X67235D01*
Y-5944D01*
X67251D01*
Y-5960D01*
X67267D01*
Y-5976D01*
X67283D01*
Y-6008D01*
X67298D01*
Y-6023D01*
X67314D01*
Y-6039D01*
X67330D01*
Y-6055D01*
X67346D01*
Y-6071D01*
X67362D01*
Y-6087D01*
X67378D01*
Y-6102D01*
X67393D01*
Y-6118D01*
X67409D01*
Y-6134D01*
X67425D01*
Y-6150D01*
X67441D01*
Y-6166D01*
X67457D01*
Y-6182D01*
X67473D01*
Y-6198D01*
X67488D01*
Y-6213D01*
X67504D01*
Y-6229D01*
X67520D01*
Y-6245D01*
X67536D01*
Y-6261D01*
X67552D01*
Y-6277D01*
X67568D01*
Y-6292D01*
X67583D01*
Y-6324D01*
X67599D01*
Y-6340D01*
X67615D01*
Y-6356D01*
X67631D01*
Y-6372D01*
X67647D01*
Y-6388D01*
X67663D01*
Y-6403D01*
X67678D01*
Y-6419D01*
X67694D01*
Y-6435D01*
X67710D01*
Y-6451D01*
X67726D01*
Y-6467D01*
X67742D01*
Y-6482D01*
X67758D01*
Y-6498D01*
X67773D01*
Y-6514D01*
X67789D01*
Y-6530D01*
X67805D01*
Y-6546D01*
X67821D01*
Y-6562D01*
X67837D01*
Y-6578D01*
X67853D01*
Y-6593D01*
X67868D01*
Y-6609D01*
X67884D01*
Y-6641D01*
X67900D01*
Y-6657D01*
X67916D01*
Y-6672D01*
X67932D01*
Y-6688D01*
X67948D01*
Y-6704D01*
X67963D01*
Y-6720D01*
X67979D01*
Y-6736D01*
X67995D01*
Y-6752D01*
X68011D01*
Y-6768D01*
X68027D01*
Y-6783D01*
X68042D01*
Y-6799D01*
X68058D01*
Y-6815D01*
X68074D01*
Y-6831D01*
X68090D01*
Y-6847D01*
X68106D01*
Y-6862D01*
X68122D01*
Y-6878D01*
X68137D01*
Y-6894D01*
X68153D01*
Y-6910D01*
X68169D01*
Y-6926D01*
X68185D01*
Y-6957D01*
X68201D01*
Y-6973D01*
X68217D01*
Y-6989D01*
X68232D01*
Y-7005D01*
X68248D01*
Y-7021D01*
X68264D01*
Y-7037D01*
X68280D01*
Y-7053D01*
X68296D01*
Y-7068D01*
X68312D01*
Y-7084D01*
X68327D01*
Y-7100D01*
X68343D01*
Y-7116D01*
X68359D01*
Y-7132D01*
X68375D01*
Y-7147D01*
X68391D01*
Y-7163D01*
X68407D01*
Y-7179D01*
X68422D01*
Y-7195D01*
X68438D01*
Y-7211D01*
X68454D01*
Y-7227D01*
X68470D01*
Y-7243D01*
X68486D01*
Y-7274D01*
X68502D01*
Y-7290D01*
X68517D01*
Y-7306D01*
X68533D01*
Y-7322D01*
X68549D01*
Y-7337D01*
X68565D01*
Y-7353D01*
X68581D01*
Y-7369D01*
X68597D01*
Y-7385D01*
X68612D01*
Y-7401D01*
X68628D01*
Y-7417D01*
X68644D01*
Y-7433D01*
X68660D01*
Y-7448D01*
X68676D01*
Y-7464D01*
X68692D01*
Y-7480D01*
X68707D01*
Y-7496D01*
X68723D01*
Y-7512D01*
X68739D01*
Y-7527D01*
X68755D01*
Y-7543D01*
X68771D01*
Y-7559D01*
X68787D01*
Y-7591D01*
X68802D01*
Y-7607D01*
X68818D01*
Y-7623D01*
X68834D01*
Y-7638D01*
X68850D01*
Y-7654D01*
X68866D01*
Y-7670D01*
X68882D01*
Y-7686D01*
X68898D01*
Y-7702D01*
X68913D01*
Y-7717D01*
X68929D01*
Y-7733D01*
X68945D01*
Y-7749D01*
X68961D01*
Y-7765D01*
X68977D01*
Y-7781D01*
X68993D01*
Y-7797D01*
X69008D01*
Y-7812D01*
X69024D01*
Y-7828D01*
X69040D01*
Y-7844D01*
X69056D01*
Y-7860D01*
X69072D01*
Y-7876D01*
X69088D01*
Y-7892D01*
X69103D01*
Y-7908D01*
X69119D01*
Y-7939D01*
X69135D01*
Y-7955D01*
X69151D01*
Y-7971D01*
X69167D01*
Y-7987D01*
X69183D01*
Y-8002D01*
X69198D01*
Y-8018D01*
X69214D01*
Y-8034D01*
X69230D01*
Y-8050D01*
X69246D01*
Y-8066D01*
X69262D01*
Y-8082D01*
X69278D01*
Y-8098D01*
X69309D01*
Y-8113D01*
X69341D01*
Y-8129D01*
X69404D01*
Y-8113D01*
X69436D01*
Y-8098D01*
X69468D01*
Y-8082D01*
X69483D01*
Y-8066D01*
X69499D01*
Y-8050D01*
X69515D01*
Y-8034D01*
X69531D01*
Y-8018D01*
X69547D01*
Y-8002D01*
X69563D01*
Y-7987D01*
X69578D01*
Y-7971D01*
X69594D01*
Y-7955D01*
X69610D01*
Y-7939D01*
X69626D01*
Y-7923D01*
X69642D01*
Y-7908D01*
X69658D01*
Y-7892D01*
X69673D01*
Y-7876D01*
X69689D01*
Y-7860D01*
X69705D01*
Y-7844D01*
X69721D01*
Y-7812D01*
X69737D01*
Y-7797D01*
X69752D01*
Y-7781D01*
X69768D01*
Y-7765D01*
X69784D01*
Y-7749D01*
X69800D01*
Y-7733D01*
X69816D01*
Y-7717D01*
X69832D01*
Y-7702D01*
X69847D01*
Y-7686D01*
X69863D01*
Y-7670D01*
X69879D01*
Y-7654D01*
X69895D01*
Y-7638D01*
X69911D01*
Y-7623D01*
X69927D01*
Y-7607D01*
X69942D01*
Y-7591D01*
X69958D01*
Y-7575D01*
X69974D01*
Y-7559D01*
X69990D01*
Y-7543D01*
X70006D01*
Y-7527D01*
X70022D01*
Y-7496D01*
X70037D01*
Y-7480D01*
X70053D01*
Y-7464D01*
X70069D01*
Y-7448D01*
X70085D01*
Y-7433D01*
X70101D01*
Y-7417D01*
X70117D01*
Y-7401D01*
X70132D01*
Y-7385D01*
X70148D01*
Y-7369D01*
X70164D01*
Y-7353D01*
X70180D01*
Y-7337D01*
X70196D01*
Y-7322D01*
X70212D01*
Y-7306D01*
X70227D01*
Y-7290D01*
X70243D01*
Y-7274D01*
X70259D01*
Y-7258D01*
X70275D01*
Y-7243D01*
X70291D01*
Y-7227D01*
X70307D01*
Y-7195D01*
X70322D01*
Y-7179D01*
X70338D01*
Y-7163D01*
X70354D01*
Y-7147D01*
X70370D01*
Y-7132D01*
X70386D01*
Y-7116D01*
X70402D01*
Y-7100D01*
X70417D01*
Y-7084D01*
X70433D01*
Y-7068D01*
X70449D01*
Y-7053D01*
X70465D01*
Y-7037D01*
X70481D01*
Y-7021D01*
X70497D01*
Y-7005D01*
X70512D01*
Y-6989D01*
X70528D01*
Y-6973D01*
X70544D01*
Y-6957D01*
X70560D01*
Y-6942D01*
X70576D01*
Y-6926D01*
X70592D01*
Y-6910D01*
X70608D01*
Y-6894D01*
X70623D01*
Y-6862D01*
X70639D01*
Y-6847D01*
X70655D01*
Y-6831D01*
X70671D01*
Y-6815D01*
X70687D01*
Y-6799D01*
X70703D01*
Y-6783D01*
X70718D01*
Y-6768D01*
X70734D01*
Y-6752D01*
X70750D01*
Y-6736D01*
X70766D01*
Y-6720D01*
X70782D01*
Y-6704D01*
X70798D01*
Y-6688D01*
X70813D01*
Y-6672D01*
X70829D01*
Y-6657D01*
X70845D01*
Y-6641D01*
X70861D01*
Y-6625D01*
X70877D01*
Y-6609D01*
X70893D01*
Y-6593D01*
X70908D01*
Y-6578D01*
X70924D01*
Y-6546D01*
X70940D01*
Y-6530D01*
X70956D01*
Y-6514D01*
X70972D01*
Y-6498D01*
X70988D01*
Y-6482D01*
X71003D01*
Y-6467D01*
X71019D01*
Y-6451D01*
X71035D01*
Y-6435D01*
X71051D01*
Y-6419D01*
X71067D01*
Y-6403D01*
X71083D01*
Y-6388D01*
X71098D01*
Y-6372D01*
X71114D01*
Y-6356D01*
X71130D01*
Y-6340D01*
X71146D01*
Y-6324D01*
X71162D01*
Y-6308D01*
X71178D01*
Y-6292D01*
X71193D01*
Y-6277D01*
X71209D01*
Y-6261D01*
X71225D01*
Y-6229D01*
X71241D01*
Y-6213D01*
X71257D01*
Y-6198D01*
X71273D01*
Y-6182D01*
X71288D01*
Y-6166D01*
X71304D01*
Y-6150D01*
X71320D01*
Y-6134D01*
X71336D01*
Y-6118D01*
X71352D01*
Y-6102D01*
X71368D01*
Y-6087D01*
X71383D01*
Y-6071D01*
X71399D01*
Y-6055D01*
X71415D01*
Y-6039D01*
X71431D01*
Y-6023D01*
X71447D01*
Y-6008D01*
X71462D01*
Y-5992D01*
X71478D01*
Y-5976D01*
X71494D01*
Y-5960D01*
X71510D01*
Y-5944D01*
X71526D01*
Y-5913D01*
X71542D01*
Y-5897D01*
X71557D01*
Y-5881D01*
X71573D01*
Y-5865D01*
X71589D01*
Y-5849D01*
X71605D01*
Y-5833D01*
X71621D01*
Y-5817D01*
X71637D01*
Y-5802D01*
X71652D01*
Y-5786D01*
X71668D01*
Y-5770D01*
X71684D01*
Y-5754D01*
X71700D01*
Y-5738D01*
X71716D01*
Y-5723D01*
X71732D01*
Y-5707D01*
X71747D01*
Y-5691D01*
X71763D01*
Y-5675D01*
X71779D01*
Y-5659D01*
X71795D01*
Y-5643D01*
X71811D01*
Y-5627D01*
X71827D01*
Y-5612D01*
X71842D01*
Y-5596D01*
X71858D01*
Y-5564D01*
X71874D01*
Y-5548D01*
X71890D01*
Y-5533D01*
X71906D01*
Y-5517D01*
X71922D01*
Y-5501D01*
X71937D01*
Y-5485D01*
X71953D01*
Y-5469D01*
X71969D01*
Y-5453D01*
X71985D01*
Y-5437D01*
X72001D01*
Y-5422D01*
X72017D01*
Y-5406D01*
X72032D01*
Y-5390D01*
X72048D01*
Y-5374D01*
X72064D01*
Y-5358D01*
X72080D01*
Y-5343D01*
X72096D01*
Y-5327D01*
X72112D01*
Y-5311D01*
X72127D01*
Y-5295D01*
X72143D01*
Y-5279D01*
X72159D01*
Y-5247D01*
X72175D01*
Y-5232D01*
X72191D01*
Y-5216D01*
X72207D01*
Y-5200D01*
X72222D01*
Y-5184D01*
X72238D01*
Y-5168D01*
X72254D01*
Y-5153D01*
X72270D01*
Y-5137D01*
X72286D01*
Y-5121D01*
X72302D01*
Y-5105D01*
X72318D01*
Y-5089D01*
X72333D01*
Y-5073D01*
X72349D01*
Y-5058D01*
X72365D01*
Y-5042D01*
X72381D01*
Y-5026D01*
X72397D01*
Y-5010D01*
X72413D01*
Y-4994D01*
X72428D01*
Y-4978D01*
X72444D01*
Y-4947D01*
X72460D01*
Y-4931D01*
X72476D01*
Y-4915D01*
X72492D01*
Y-4899D01*
X72508D01*
Y-4883D01*
X72523D01*
Y-4868D01*
X72539D01*
Y-4852D01*
X72555D01*
Y-4836D01*
X72571D01*
Y-4820D01*
X72587D01*
Y-4804D01*
X72603D01*
Y-4788D01*
X72618D01*
Y-4773D01*
X72634D01*
Y-4757D01*
X72650D01*
Y-4741D01*
X72666D01*
Y-4725D01*
X72682D01*
Y-4709D01*
X72698D01*
Y-4693D01*
X72713D01*
Y-4678D01*
X72729D01*
Y-4662D01*
X72745D01*
Y-4646D01*
X72761D01*
Y-4630D01*
X72777D01*
Y-4614D01*
X72808D01*
Y-4598D01*
X72824D01*
Y-4582D01*
X72856D01*
Y-4567D01*
X72888D01*
Y-4551D01*
X72919D01*
Y-4535D01*
X72967D01*
Y-4519D01*
X73014D01*
Y-4503D01*
X75991D01*
Y-4519D01*
D02*
G37*
G36*
X75928Y-12974D02*
X76038D01*
Y-12990D01*
X76086D01*
Y-13006D01*
X76133D01*
Y-13022D01*
X76165D01*
Y-13038D01*
X76197D01*
Y-13053D01*
X76228D01*
Y-13069D01*
X76244D01*
Y-13085D01*
X76260D01*
Y-13101D01*
X76276D01*
Y-13117D01*
X76292D01*
Y-13132D01*
X76308D01*
Y-13148D01*
X76323D01*
Y-13164D01*
X76339D01*
Y-13180D01*
X76355D01*
Y-13196D01*
X76371D01*
Y-13212D01*
X76387D01*
Y-13243D01*
X76403D01*
Y-13275D01*
X76418D01*
Y-13307D01*
X76434D01*
Y-13338D01*
X76450D01*
Y-13386D01*
X76466D01*
Y-13481D01*
X76482D01*
Y-18183D01*
X76466D01*
Y-18262D01*
X76450D01*
Y-18326D01*
X76434D01*
Y-18357D01*
X76418D01*
Y-18389D01*
X76403D01*
Y-18405D01*
Y-18421D01*
X76387D01*
Y-18437D01*
X76371D01*
Y-18468D01*
X76355D01*
Y-18484D01*
X76339D01*
Y-18500D01*
X76323D01*
Y-18516D01*
X76308D01*
Y-18532D01*
X76292D01*
Y-18548D01*
X76276D01*
Y-18563D01*
X76260D01*
Y-18579D01*
X76228D01*
Y-18595D01*
X76213D01*
Y-18611D01*
X76181D01*
Y-18627D01*
X76149D01*
Y-18642D01*
X76118D01*
Y-18658D01*
X76086D01*
Y-18674D01*
X76023D01*
Y-18690D01*
X75452D01*
Y-18706D01*
X72650D01*
Y-18690D01*
X70687D01*
Y-18674D01*
X70639D01*
Y-18658D01*
X70592D01*
Y-18642D01*
X70560D01*
Y-18627D01*
X70528D01*
Y-18611D01*
X70497D01*
Y-18595D01*
X70481D01*
Y-18579D01*
X70449D01*
Y-18563D01*
X70433D01*
Y-18548D01*
X70417D01*
Y-18532D01*
X70402D01*
Y-18516D01*
X70386D01*
Y-18500D01*
X70370D01*
Y-18484D01*
X70354D01*
Y-18453D01*
X70338D01*
Y-18437D01*
X70322D01*
Y-18405D01*
X70307D01*
Y-18373D01*
X70291D01*
Y-18342D01*
X70275D01*
Y-18310D01*
X70259D01*
Y-18247D01*
X70243D01*
Y-15650D01*
X70259D01*
Y-15587D01*
X70275D01*
Y-15555D01*
X70291D01*
Y-15508D01*
X70307D01*
Y-15476D01*
X70322D01*
Y-15460D01*
X70338D01*
Y-15428D01*
X70354D01*
Y-15412D01*
X70370D01*
Y-15397D01*
X70386D01*
Y-15381D01*
X70402D01*
Y-15349D01*
X70433D01*
Y-15333D01*
X70449D01*
Y-15317D01*
X70465D01*
Y-15302D01*
X70481D01*
Y-15286D01*
X70497D01*
Y-15270D01*
X70512D01*
Y-15254D01*
X70528D01*
Y-15238D01*
X70544D01*
Y-15223D01*
X70560D01*
Y-15207D01*
X70576D01*
Y-15191D01*
X70592D01*
Y-15175D01*
X70623D01*
Y-15159D01*
X70639D01*
Y-15143D01*
X70655D01*
Y-15128D01*
X70671D01*
Y-15112D01*
X70687D01*
Y-15096D01*
X70718D01*
Y-15080D01*
X70734D01*
Y-15064D01*
X70750D01*
Y-15048D01*
X70766D01*
Y-15033D01*
X70782D01*
Y-15017D01*
X70813D01*
Y-15001D01*
X70829D01*
Y-14985D01*
X70845D01*
Y-14969D01*
X70861D01*
Y-14953D01*
X70877D01*
Y-14937D01*
X70893D01*
Y-14922D01*
X70924D01*
Y-14906D01*
X70940D01*
Y-14890D01*
X70956D01*
Y-14874D01*
X70972D01*
Y-14858D01*
X71003D01*
Y-14842D01*
X71019D01*
Y-14827D01*
X71035D01*
Y-14811D01*
X71051D01*
Y-14795D01*
X71067D01*
Y-14779D01*
X71083D01*
Y-14763D01*
X71114D01*
Y-14748D01*
X71130D01*
Y-14732D01*
X71146D01*
Y-14716D01*
X71162D01*
Y-14700D01*
X71178D01*
Y-14684D01*
X71209D01*
Y-14668D01*
X71225D01*
Y-14653D01*
X71241D01*
Y-14637D01*
X71257D01*
Y-14621D01*
X71273D01*
Y-14605D01*
X71304D01*
Y-14589D01*
X71320D01*
Y-14573D01*
X71336D01*
Y-14557D01*
X71352D01*
Y-14542D01*
X71368D01*
Y-14526D01*
X71399D01*
Y-14510D01*
X71415D01*
Y-14494D01*
X71431D01*
Y-14478D01*
X71447D01*
Y-14462D01*
X71462D01*
Y-14447D01*
X71494D01*
Y-14431D01*
X71510D01*
Y-14415D01*
X71526D01*
Y-14399D01*
X71542D01*
Y-14383D01*
X71557D01*
Y-14368D01*
X71589D01*
Y-14352D01*
X71605D01*
Y-14336D01*
X71621D01*
Y-14320D01*
X71637D01*
Y-14304D01*
X71652D01*
Y-14288D01*
X71684D01*
Y-14273D01*
X71700D01*
Y-14257D01*
X71716D01*
Y-14241D01*
X71732D01*
Y-14225D01*
X71747D01*
Y-14209D01*
X71763D01*
Y-14193D01*
X71795D01*
Y-14178D01*
X71811D01*
Y-14162D01*
X71827D01*
Y-14146D01*
X71842D01*
Y-14130D01*
X71858D01*
Y-14114D01*
X71890D01*
Y-14098D01*
X71906D01*
Y-14082D01*
X71922D01*
Y-14067D01*
X71937D01*
Y-14051D01*
X71953D01*
Y-14035D01*
X71985D01*
Y-14019D01*
X72001D01*
Y-14003D01*
X72017D01*
Y-13987D01*
X72032D01*
Y-13972D01*
X72048D01*
Y-13956D01*
X72080D01*
Y-13940D01*
X72096D01*
Y-13924D01*
X72112D01*
Y-13908D01*
X72127D01*
Y-13893D01*
X72143D01*
Y-13877D01*
X72175D01*
Y-13861D01*
X72191D01*
Y-13845D01*
X72207D01*
Y-13829D01*
X72222D01*
Y-13813D01*
X72238D01*
Y-13798D01*
X72254D01*
Y-13782D01*
X72286D01*
Y-13766D01*
X72302D01*
Y-13750D01*
X72318D01*
Y-13734D01*
X72333D01*
Y-13718D01*
X72365D01*
Y-13702D01*
X72381D01*
Y-13687D01*
X72397D01*
Y-13671D01*
X72413D01*
Y-13655D01*
X72428D01*
Y-13639D01*
X72444D01*
Y-13623D01*
X72476D01*
Y-13607D01*
X72492D01*
Y-13592D01*
X72508D01*
Y-13576D01*
X72523D01*
Y-13560D01*
X72539D01*
Y-13544D01*
X72571D01*
Y-13528D01*
X72587D01*
Y-13513D01*
X72603D01*
Y-13497D01*
X72618D01*
Y-13481D01*
X72634D01*
Y-13465D01*
X72666D01*
Y-13449D01*
X72682D01*
Y-13433D01*
X72698D01*
Y-13418D01*
X72713D01*
Y-13402D01*
X72729D01*
Y-13386D01*
X72761D01*
Y-13370D01*
X72777D01*
Y-13354D01*
X72793D01*
Y-13338D01*
X72808D01*
Y-13322D01*
X72824D01*
Y-13307D01*
X72856D01*
Y-13291D01*
X72872D01*
Y-13275D01*
X72888D01*
Y-13259D01*
X72903D01*
Y-13243D01*
X72919D01*
Y-13227D01*
X72935D01*
Y-13212D01*
X72967D01*
Y-13196D01*
X72983D01*
Y-13180D01*
X72998D01*
Y-13164D01*
X73014D01*
Y-13148D01*
X73046D01*
Y-13132D01*
X73062D01*
Y-13117D01*
X73078D01*
Y-13101D01*
X73109D01*
Y-13085D01*
X73141D01*
Y-13069D01*
X73157D01*
Y-13053D01*
X73188D01*
Y-13038D01*
X73220D01*
Y-13022D01*
X73252D01*
Y-13006D01*
X73299D01*
Y-12990D01*
X73362D01*
Y-12974D01*
X73473D01*
Y-12958D01*
X75928D01*
Y-12974D01*
D02*
G37*
G36*
X65272D02*
X65382D01*
Y-12990D01*
X65446D01*
Y-13006D01*
X65493D01*
Y-13022D01*
X65525D01*
Y-13038D01*
X65557D01*
Y-13053D01*
X65588D01*
Y-13069D01*
X65604D01*
Y-13085D01*
X65620D01*
Y-13101D01*
X65652D01*
Y-13117D01*
X65668D01*
Y-13132D01*
X65683D01*
Y-13148D01*
X65699D01*
Y-13164D01*
X65731D01*
Y-13180D01*
X65747D01*
Y-13196D01*
X65763D01*
Y-13212D01*
X65778D01*
Y-13227D01*
X65794D01*
Y-13243D01*
X65826D01*
Y-13259D01*
X65842D01*
Y-13275D01*
X65858D01*
Y-13291D01*
X65873D01*
Y-13307D01*
X65889D01*
Y-13322D01*
X65921D01*
Y-13338D01*
X65937D01*
Y-13354D01*
X65953D01*
Y-13370D01*
X65968D01*
Y-13386D01*
X65984D01*
Y-13402D01*
X66016D01*
Y-13418D01*
X66032D01*
Y-13433D01*
X66048D01*
Y-13449D01*
X66063D01*
Y-13465D01*
X66079D01*
Y-13481D01*
X66111D01*
Y-13497D01*
X66127D01*
Y-13513D01*
X66143D01*
Y-13528D01*
X66158D01*
Y-13544D01*
X66174D01*
Y-13560D01*
X66206D01*
Y-13576D01*
X66222D01*
Y-13592D01*
X66238D01*
Y-13607D01*
X66253D01*
Y-13623D01*
X66269D01*
Y-13639D01*
X66301D01*
Y-13655D01*
X66317D01*
Y-13671D01*
X66333D01*
Y-13687D01*
X66348D01*
Y-13702D01*
X66364D01*
Y-13718D01*
X66380D01*
Y-13734D01*
X66412D01*
Y-13750D01*
X66427D01*
Y-13766D01*
X66443D01*
Y-13782D01*
X66459D01*
Y-13798D01*
X66475D01*
Y-13813D01*
X66507D01*
Y-13829D01*
X66522D01*
Y-13845D01*
X66538D01*
Y-13861D01*
X66554D01*
Y-13877D01*
X66570D01*
Y-13893D01*
X66602D01*
Y-13908D01*
X66617D01*
Y-13924D01*
X66633D01*
Y-13940D01*
X66649D01*
Y-13956D01*
X66665D01*
Y-13972D01*
X66697D01*
Y-13987D01*
X66712D01*
Y-14003D01*
X66728D01*
Y-14019D01*
X66744D01*
Y-14035D01*
X66760D01*
Y-14051D01*
X66792D01*
Y-14067D01*
X66807D01*
Y-14082D01*
X66823D01*
Y-14098D01*
X66839D01*
Y-14114D01*
X66855D01*
Y-14130D01*
X66887D01*
Y-14146D01*
X66902D01*
Y-14162D01*
X66918D01*
Y-14178D01*
X66934D01*
Y-14193D01*
X66950D01*
Y-14209D01*
X66982D01*
Y-14225D01*
X66997D01*
Y-14241D01*
X67013D01*
Y-14257D01*
X67029D01*
Y-14273D01*
X67045D01*
Y-14288D01*
X67061D01*
Y-14304D01*
X67092D01*
Y-14320D01*
X67108D01*
Y-14336D01*
X67124D01*
Y-14352D01*
X67140D01*
Y-14368D01*
X67156D01*
Y-14383D01*
X67188D01*
Y-14399D01*
X67203D01*
Y-14415D01*
X67219D01*
Y-14431D01*
X67235D01*
Y-14447D01*
X67251D01*
Y-14462D01*
X67283D01*
Y-14478D01*
X67298D01*
Y-14494D01*
X67314D01*
Y-14510D01*
X67330D01*
Y-14526D01*
X67346D01*
Y-14542D01*
X67378D01*
Y-14557D01*
X67393D01*
Y-14573D01*
X67409D01*
Y-14589D01*
X67425D01*
Y-14605D01*
X67441D01*
Y-14621D01*
X67473D01*
Y-14637D01*
X67488D01*
Y-14653D01*
X67504D01*
Y-14668D01*
X67520D01*
Y-14684D01*
X67536D01*
Y-14700D01*
X67568D01*
Y-14716D01*
X67583D01*
Y-14732D01*
X67599D01*
Y-14748D01*
X67615D01*
Y-14763D01*
X67631D01*
Y-14779D01*
X67663D01*
Y-14795D01*
X67678D01*
Y-14811D01*
X67694D01*
Y-14827D01*
X67710D01*
Y-14842D01*
X67726D01*
Y-14858D01*
X67742D01*
Y-14874D01*
X67773D01*
Y-14890D01*
X67789D01*
Y-14906D01*
X67805D01*
Y-14922D01*
X67821D01*
Y-14937D01*
X67837D01*
Y-14953D01*
X67868D01*
Y-14969D01*
X67884D01*
Y-14985D01*
X67900D01*
Y-15001D01*
X67916D01*
Y-15017D01*
X67932D01*
Y-15033D01*
X67963D01*
Y-15048D01*
X67979D01*
Y-15064D01*
X67995D01*
Y-15080D01*
X68011D01*
Y-15096D01*
X68027D01*
Y-15112D01*
X68058D01*
Y-15128D01*
X68074D01*
Y-15143D01*
X68090D01*
Y-15159D01*
X68106D01*
Y-15175D01*
X68122D01*
Y-15191D01*
X68153D01*
Y-15207D01*
X68169D01*
Y-15223D01*
X68185D01*
Y-15238D01*
X68201D01*
Y-15254D01*
X68217D01*
Y-15270D01*
X68232D01*
Y-15286D01*
X68264D01*
Y-15302D01*
X68280D01*
Y-15317D01*
X68296D01*
Y-15333D01*
X68312D01*
Y-15349D01*
X68327D01*
Y-15365D01*
X68343D01*
Y-15381D01*
X68359D01*
Y-15412D01*
X68375D01*
Y-15428D01*
X68391D01*
Y-15444D01*
X68407D01*
Y-15476D01*
X68422D01*
Y-15508D01*
X68438D01*
Y-15539D01*
X68454D01*
Y-15571D01*
X68470D01*
Y-15634D01*
X68486D01*
Y-15729D01*
X68502D01*
Y-18183D01*
X68486D01*
Y-18262D01*
X68470D01*
Y-18326D01*
X68454D01*
Y-18357D01*
X68438D01*
Y-18389D01*
X68422D01*
Y-18421D01*
X68407D01*
Y-18437D01*
X68391D01*
Y-18468D01*
X68375D01*
Y-18484D01*
X68359D01*
Y-18500D01*
X68343D01*
Y-18516D01*
X68327D01*
Y-18532D01*
X68312D01*
Y-18548D01*
X68296D01*
Y-18563D01*
X68280D01*
Y-18579D01*
X68248D01*
Y-18595D01*
X68232D01*
Y-18611D01*
X68201D01*
Y-18627D01*
X68169D01*
Y-18642D01*
X68137D01*
Y-18658D01*
X68106D01*
Y-18674D01*
X68042D01*
Y-18690D01*
X66095D01*
Y-18706D01*
X63277D01*
Y-18690D01*
X62723D01*
Y-18674D01*
X62675D01*
Y-18658D01*
X62628D01*
Y-18642D01*
X62596D01*
Y-18627D01*
X62564D01*
Y-18611D01*
X62533D01*
Y-18595D01*
X62517D01*
Y-18579D01*
X62485D01*
Y-18563D01*
X62469D01*
Y-18548D01*
X62453D01*
Y-18532D01*
X62438D01*
Y-18516D01*
X62422D01*
Y-18500D01*
X62406D01*
Y-18484D01*
X62390D01*
Y-18453D01*
X62374D01*
Y-18437D01*
X62358D01*
Y-18405D01*
X62343D01*
Y-18389D01*
X62327D01*
Y-18342D01*
X62311D01*
Y-18310D01*
X62295D01*
Y-18247D01*
X62279D01*
Y-18152D01*
X62263D01*
Y-13513D01*
X62279D01*
Y-13402D01*
X62295D01*
Y-13354D01*
X62311D01*
Y-13307D01*
X62327D01*
Y-13275D01*
X62343D01*
Y-13243D01*
X62358D01*
Y-13227D01*
X62374D01*
Y-13196D01*
X62390D01*
Y-13180D01*
X62406D01*
Y-13164D01*
X62422D01*
Y-13148D01*
X62438D01*
Y-13132D01*
X62453D01*
Y-13117D01*
X62469D01*
Y-13101D01*
X62485D01*
Y-13085D01*
X62501D01*
Y-13069D01*
X62533D01*
Y-13053D01*
X62548D01*
Y-13038D01*
X62580D01*
Y-13022D01*
X62612D01*
Y-13006D01*
X62659D01*
Y-12990D01*
X62707D01*
Y-12974D01*
X62818D01*
Y-12958D01*
X65272D01*
Y-12974D01*
D02*
G37*
G36*
X48045Y-259000D02*
X45983D01*
X42523Y-249228D01*
X44619D01*
X46475Y-254922D01*
X46567Y-255197D01*
X46647Y-255483D01*
X46727Y-255758D01*
X46796Y-256010D01*
X46819Y-256125D01*
X46853Y-256239D01*
X46876Y-256331D01*
X46899Y-256411D01*
X46911Y-256480D01*
X46922Y-256526D01*
X46933Y-256560D01*
Y-256571D01*
X46956D01*
X47037Y-256251D01*
X47117Y-255941D01*
X47186Y-255655D01*
X47266Y-255414D01*
X47300Y-255300D01*
X47323Y-255208D01*
X47357Y-255117D01*
X47380Y-255048D01*
X47403Y-254991D01*
X47415Y-254945D01*
X47426Y-254922D01*
Y-254910D01*
X49339Y-249228D01*
X51481D01*
X48045Y-259000D01*
D02*
G37*
G36*
X68000D02*
X66041D01*
Y-254933D01*
X65571D01*
X65388Y-254945D01*
X65239Y-254956D01*
X65113D01*
X65010Y-254968D01*
X64930Y-254979D01*
X64884Y-254991D01*
X64873D01*
X64758Y-255014D01*
X64644Y-255048D01*
X64552Y-255082D01*
X64472Y-255117D01*
X64415Y-255151D01*
X64357Y-255174D01*
X64334Y-255185D01*
X64323Y-255197D01*
X64243Y-255254D01*
X64162Y-255323D01*
X64025Y-255449D01*
X63968Y-255518D01*
X63922Y-255563D01*
X63899Y-255598D01*
X63888Y-255609D01*
X63819Y-255689D01*
X63762Y-255793D01*
X63613Y-256010D01*
X63475Y-256251D01*
X63349Y-256480D01*
X63235Y-256709D01*
X63189Y-256801D01*
X63143Y-256881D01*
X63109Y-256950D01*
X63086Y-257007D01*
X63063Y-257041D01*
Y-257053D01*
X62135Y-259000D01*
X59970D01*
X61264Y-256377D01*
X61367Y-256171D01*
X61470Y-255987D01*
X61551Y-255827D01*
X61631Y-255701D01*
X61688Y-255598D01*
X61734Y-255518D01*
X61768Y-255472D01*
X61780Y-255460D01*
X61860Y-255334D01*
X61940Y-255231D01*
X62009Y-255151D01*
X62077Y-255071D01*
X62123Y-255014D01*
X62169Y-254979D01*
X62192Y-254956D01*
X62204Y-254945D01*
X62364Y-254830D01*
X62513Y-254750D01*
X62570Y-254716D01*
X62616Y-254693D01*
X62650Y-254681D01*
X62662D01*
Y-254658D01*
X62467Y-254590D01*
X62284Y-254521D01*
X62112Y-254452D01*
X61951Y-254372D01*
X61814Y-254292D01*
X61677Y-254200D01*
X61562Y-254120D01*
X61459Y-254040D01*
X61367Y-253971D01*
X61276Y-253902D01*
X61218Y-253834D01*
X61161Y-253776D01*
X61115Y-253742D01*
X61081Y-253708D01*
X61069Y-253685D01*
X61058Y-253673D01*
X60966Y-253547D01*
X60886Y-253410D01*
X60749Y-253123D01*
X60657Y-252848D01*
X60600Y-252574D01*
X60577Y-252447D01*
X60554Y-252344D01*
X60542Y-252241D01*
Y-252150D01*
X60531Y-252081D01*
Y-252024D01*
Y-251989D01*
Y-251978D01*
X60542Y-251737D01*
X60565Y-251508D01*
X60611Y-251290D01*
X60669Y-251096D01*
X60737Y-250912D01*
X60817Y-250752D01*
X60898Y-250592D01*
X60978Y-250454D01*
X61058Y-250340D01*
X61138Y-250237D01*
X61218Y-250145D01*
X61287Y-250065D01*
X61344Y-250007D01*
X61390Y-249973D01*
X61413Y-249950D01*
X61425Y-249939D01*
X61596Y-249813D01*
X61791Y-249710D01*
X61986Y-249607D01*
X62192Y-249526D01*
X62410Y-249458D01*
X62616Y-249400D01*
X63028Y-249320D01*
X63212Y-249286D01*
X63395Y-249263D01*
X63544Y-249251D01*
X63681Y-249240D01*
X63796Y-249228D01*
X68000D01*
Y-259000D01*
D02*
G37*
G36*
X58813D02*
X52146D01*
Y-257350D01*
X56854D01*
Y-254773D01*
X52741D01*
Y-253112D01*
X56854D01*
Y-250890D01*
X52386D01*
Y-249228D01*
X58813D01*
Y-259000D01*
D02*
G37*
G36*
X39064D02*
X36967D01*
X36165Y-256801D01*
X32385D01*
X31537Y-259000D01*
X29384D01*
X33313Y-249228D01*
X35261D01*
X39064Y-259000D01*
D02*
G37*
G36*
X-116983Y-211000D02*
X-119828D01*
Y-208172D01*
X-116983D01*
Y-211000D01*
D02*
G37*
G36*
X-68989D02*
X-70809D01*
X-70820Y-205506D01*
Y-205472D01*
Y-205461D01*
X-70831Y-205450D01*
X-70865Y-205428D01*
X-73429D01*
X-73473Y-205439D01*
X-73484Y-205450D01*
X-73495Y-205461D01*
X-73506Y-205483D01*
Y-205494D01*
Y-205506D01*
Y-211000D01*
X-75327D01*
Y-205506D01*
Y-205472D01*
X-75338Y-205461D01*
X-75349Y-205450D01*
X-75394Y-205428D01*
X-77935D01*
X-77991Y-205439D01*
X-78002Y-205450D01*
X-78013Y-205461D01*
Y-205483D01*
Y-205494D01*
Y-205506D01*
X-78024Y-211000D01*
X-79822D01*
Y-205417D01*
X-79811Y-205239D01*
X-79789Y-205073D01*
X-79745Y-204917D01*
X-79700Y-204784D01*
X-79656Y-204673D01*
X-79611Y-204584D01*
X-79589Y-204540D01*
X-79578Y-204518D01*
X-79489Y-204373D01*
X-79378Y-204240D01*
X-79267Y-204129D01*
X-79167Y-204040D01*
X-79079Y-203963D01*
X-79001Y-203907D01*
X-78956Y-203874D01*
X-78934Y-203863D01*
X-78779Y-203785D01*
X-78612Y-203718D01*
X-78468Y-203674D01*
X-78324Y-203652D01*
X-78202Y-203630D01*
X-78102Y-203619D01*
X-68989D01*
Y-211000D01*
D02*
G37*
G36*
X-83041Y-203630D02*
X-82875Y-203652D01*
X-82719Y-203696D01*
X-82586Y-203741D01*
X-82475Y-203785D01*
X-82397Y-203829D01*
X-82342Y-203852D01*
X-82320Y-203863D01*
X-82176Y-203963D01*
X-82053Y-204063D01*
X-81942Y-204174D01*
X-81842Y-204285D01*
X-81765Y-204373D01*
X-81709Y-204451D01*
X-81676Y-204496D01*
X-81665Y-204518D01*
X-81587Y-204673D01*
X-81521Y-204828D01*
X-81476Y-204984D01*
X-81454Y-205117D01*
X-81432Y-205239D01*
X-81421Y-205339D01*
Y-205395D01*
Y-205406D01*
Y-205417D01*
Y-209213D01*
X-81432Y-209391D01*
X-81454Y-209557D01*
X-81498Y-209701D01*
X-81543Y-209834D01*
X-81587Y-209946D01*
X-81632Y-210034D01*
X-81654Y-210079D01*
X-81665Y-210101D01*
X-81765Y-210245D01*
X-81876Y-210378D01*
X-81987Y-210489D01*
X-82087Y-210578D01*
X-82176Y-210656D01*
X-82253Y-210711D01*
X-82298Y-210745D01*
X-82320Y-210756D01*
X-82475Y-210833D01*
X-82631Y-210900D01*
X-82786Y-210944D01*
X-82919Y-210967D01*
X-83041Y-210989D01*
X-83141Y-211000D01*
X-87115D01*
X-87304Y-210989D01*
X-87470Y-210967D01*
X-87626Y-210922D01*
X-87759Y-210878D01*
X-87870Y-210833D01*
X-87958Y-210789D01*
X-88003Y-210767D01*
X-88025Y-210756D01*
X-88169Y-210656D01*
X-88292Y-210545D01*
X-88403Y-210445D01*
X-88502Y-210334D01*
X-88569Y-210245D01*
X-88624Y-210168D01*
X-88658Y-210123D01*
X-88669Y-210101D01*
X-88758Y-209946D01*
X-88813Y-209790D01*
X-88858Y-209635D01*
X-88891Y-209501D01*
X-88902Y-209391D01*
X-88913Y-209291D01*
Y-209235D01*
Y-209213D01*
Y-205417D01*
X-88902Y-205239D01*
X-88880Y-205073D01*
X-88835Y-204917D01*
X-88802Y-204784D01*
X-88758Y-204673D01*
X-88713Y-204584D01*
X-88691Y-204540D01*
X-88680Y-204518D01*
X-88591Y-204373D01*
X-88480Y-204240D01*
X-88369Y-204129D01*
X-88269Y-204029D01*
X-88181Y-203963D01*
X-88103Y-203907D01*
X-88058Y-203874D01*
X-88036Y-203863D01*
X-87881Y-203785D01*
X-87714Y-203718D01*
X-87570Y-203674D01*
X-87426Y-203652D01*
X-87304Y-203630D01*
X-87204Y-203619D01*
X-83219D01*
X-83041Y-203630D01*
D02*
G37*
G36*
X-95584Y-203619D02*
X-91699D01*
X-91510Y-203630D01*
X-91344Y-203652D01*
X-91188Y-203696D01*
X-91044Y-203741D01*
X-90933Y-203785D01*
X-90856Y-203829D01*
X-90800Y-203852D01*
X-90778Y-203863D01*
X-90633Y-203963D01*
X-90511Y-204063D01*
X-90400Y-204174D01*
X-90312Y-204285D01*
X-90234Y-204373D01*
X-90178Y-204451D01*
X-90145Y-204496D01*
X-90134Y-204518D01*
X-90056Y-204673D01*
X-89990Y-204828D01*
X-89945Y-204984D01*
X-89923Y-205117D01*
X-89901Y-205239D01*
X-89890Y-205339D01*
Y-205395D01*
Y-205406D01*
Y-205417D01*
Y-209213D01*
X-89901Y-209391D01*
X-89923Y-209557D01*
X-89967Y-209701D01*
X-90012Y-209846D01*
X-90056Y-209957D01*
X-90101Y-210034D01*
X-90123Y-210090D01*
X-90134Y-210112D01*
X-90234Y-210256D01*
X-90334Y-210389D01*
X-90445Y-210501D01*
X-90545Y-210589D01*
X-90633Y-210667D01*
X-90711Y-210723D01*
X-90756Y-210756D01*
X-90778Y-210767D01*
X-90933Y-210845D01*
X-91100Y-210900D01*
X-91255Y-210944D01*
X-91388Y-210967D01*
X-91522Y-210989D01*
X-91610Y-211000D01*
X-97393D01*
X-97404Y-201199D01*
X-95584D01*
Y-203619D01*
D02*
G37*
G36*
X-104087D02*
X-100202D01*
X-100013Y-203630D01*
X-99846Y-203652D01*
X-99691Y-203696D01*
X-99547Y-203741D01*
X-99436Y-203785D01*
X-99358Y-203829D01*
X-99303Y-203852D01*
X-99280Y-203863D01*
X-99136Y-203963D01*
X-99014Y-204063D01*
X-98903Y-204174D01*
X-98814Y-204285D01*
X-98736Y-204373D01*
X-98681Y-204451D01*
X-98648Y-204496D01*
X-98637Y-204518D01*
X-98559Y-204673D01*
X-98492Y-204828D01*
X-98448Y-204984D01*
X-98426Y-205117D01*
X-98403Y-205239D01*
X-98392Y-205339D01*
Y-205395D01*
Y-205406D01*
Y-205417D01*
Y-209213D01*
X-98403Y-209391D01*
X-98426Y-209557D01*
X-98470Y-209701D01*
X-98514Y-209846D01*
X-98559Y-209957D01*
X-98603Y-210034D01*
X-98625Y-210090D01*
X-98637Y-210112D01*
X-98736Y-210256D01*
X-98836Y-210389D01*
X-98947Y-210501D01*
X-99047Y-210589D01*
X-99136Y-210667D01*
X-99214Y-210723D01*
X-99258Y-210756D01*
X-99280Y-210767D01*
X-99436Y-210845D01*
X-99602Y-210900D01*
X-99758Y-210944D01*
X-99891Y-210967D01*
X-100024Y-210989D01*
X-100113Y-211000D01*
X-105896D01*
X-105907Y-201199D01*
X-104087D01*
Y-203619D01*
D02*
G37*
G36*
X-108870Y-203630D02*
X-108704Y-203652D01*
X-108549Y-203696D01*
X-108415Y-203741D01*
X-108304Y-203785D01*
X-108227Y-203829D01*
X-108171Y-203852D01*
X-108149Y-203863D01*
X-108005Y-203963D01*
X-107883Y-204063D01*
X-107772Y-204174D01*
X-107672Y-204285D01*
X-107594Y-204373D01*
X-107538Y-204451D01*
X-107505Y-204496D01*
X-107494Y-204518D01*
X-107416Y-204673D01*
X-107350Y-204828D01*
X-107305Y-204984D01*
X-107283Y-205117D01*
X-107261Y-205239D01*
X-107250Y-205339D01*
Y-205395D01*
Y-205406D01*
Y-205417D01*
Y-209213D01*
X-107261Y-209391D01*
X-107283Y-209557D01*
X-107328Y-209701D01*
X-107372Y-209834D01*
X-107416Y-209946D01*
X-107461Y-210034D01*
X-107483Y-210079D01*
X-107494Y-210101D01*
X-107594Y-210245D01*
X-107705Y-210378D01*
X-107816Y-210489D01*
X-107916Y-210578D01*
X-108005Y-210656D01*
X-108082Y-210711D01*
X-108127Y-210745D01*
X-108149Y-210756D01*
X-108304Y-210833D01*
X-108460Y-210900D01*
X-108615Y-210944D01*
X-108748Y-210967D01*
X-108870Y-210989D01*
X-108970Y-211000D01*
X-112944D01*
X-113133Y-210989D01*
X-113299Y-210967D01*
X-113455Y-210922D01*
X-113588Y-210878D01*
X-113699Y-210833D01*
X-113788Y-210789D01*
X-113832Y-210767D01*
X-113854Y-210756D01*
X-113999Y-210656D01*
X-114121Y-210545D01*
X-114232Y-210445D01*
X-114332Y-210334D01*
X-114398Y-210245D01*
X-114454Y-210168D01*
X-114487Y-210123D01*
X-114498Y-210101D01*
X-114587Y-209946D01*
X-114642Y-209790D01*
X-114687Y-209635D01*
X-114720Y-209501D01*
X-114731Y-209391D01*
X-114742Y-209291D01*
Y-209235D01*
Y-209213D01*
Y-205417D01*
X-114731Y-205239D01*
X-114709Y-205073D01*
X-114665Y-204917D01*
X-114631Y-204784D01*
X-114587Y-204673D01*
X-114543Y-204584D01*
X-114520Y-204540D01*
X-114509Y-204518D01*
X-114420Y-204373D01*
X-114309Y-204240D01*
X-114198Y-204129D01*
X-114099Y-204029D01*
X-114010Y-203963D01*
X-113932Y-203907D01*
X-113888Y-203874D01*
X-113865Y-203863D01*
X-113710Y-203785D01*
X-113544Y-203718D01*
X-113399Y-203674D01*
X-113255Y-203652D01*
X-113133Y-203630D01*
X-113033Y-203619D01*
X-109048D01*
X-108870Y-203630D01*
D02*
G37*
G36*
X-121989Y-203019D02*
X-123798D01*
Y-201199D01*
X-121989D01*
Y-203019D01*
D02*
G37*
G36*
Y-211000D02*
X-123798D01*
Y-203619D01*
X-121989D01*
Y-211000D01*
D02*
G37*
G36*
X-126484Y-203630D02*
X-126318Y-203652D01*
X-126163Y-203696D01*
X-126029Y-203741D01*
X-125918Y-203785D01*
X-125841Y-203829D01*
X-125785Y-203852D01*
X-125763Y-203863D01*
X-125619Y-203963D01*
X-125497Y-204063D01*
X-125386Y-204174D01*
X-125286Y-204285D01*
X-125208Y-204373D01*
X-125152Y-204451D01*
X-125119Y-204496D01*
X-125108Y-204518D01*
X-125030Y-204673D01*
X-124964Y-204828D01*
X-124919Y-204984D01*
X-124897Y-205117D01*
X-124875Y-205239D01*
X-124864Y-205339D01*
Y-205395D01*
Y-205406D01*
Y-205417D01*
Y-209213D01*
X-124875Y-209391D01*
X-124897Y-209557D01*
X-124942Y-209701D01*
X-124986Y-209834D01*
X-125030Y-209946D01*
X-125075Y-210034D01*
X-125097Y-210079D01*
X-125108Y-210101D01*
X-125208Y-210245D01*
X-125319Y-210378D01*
X-125430Y-210489D01*
X-125530Y-210578D01*
X-125619Y-210656D01*
X-125696Y-210711D01*
X-125741Y-210745D01*
X-125763Y-210756D01*
X-125918Y-210833D01*
X-126074Y-210900D01*
X-126229Y-210944D01*
X-126362Y-210967D01*
X-126484Y-210989D01*
X-126584Y-211000D01*
X-130558D01*
X-130747Y-210989D01*
X-130913Y-210967D01*
X-131069Y-210922D01*
X-131202Y-210878D01*
X-131313Y-210833D01*
X-131402Y-210789D01*
X-131446Y-210767D01*
X-131468Y-210756D01*
X-131613Y-210656D01*
X-131735Y-210545D01*
X-131846Y-210445D01*
X-131945Y-210334D01*
X-132012Y-210245D01*
X-132068Y-210168D01*
X-132101Y-210123D01*
X-132112Y-210101D01*
X-132201Y-209946D01*
X-132256Y-209790D01*
X-132301Y-209635D01*
X-132334Y-209501D01*
X-132345Y-209391D01*
X-132356Y-209291D01*
Y-209235D01*
Y-209213D01*
Y-205417D01*
X-132345Y-205239D01*
X-132323Y-205073D01*
X-132278Y-204917D01*
X-132245Y-204784D01*
X-132201Y-204673D01*
X-132156Y-204584D01*
X-132134Y-204540D01*
X-132123Y-204518D01*
X-132034Y-204373D01*
X-131923Y-204240D01*
X-131812Y-204129D01*
X-131712Y-204029D01*
X-131624Y-203963D01*
X-131546Y-203907D01*
X-131502Y-203874D01*
X-131479Y-203863D01*
X-131324Y-203785D01*
X-131157Y-203718D01*
X-131013Y-203674D01*
X-130869Y-203652D01*
X-130747Y-203630D01*
X-130647Y-203619D01*
X-126662D01*
X-126484Y-203630D01*
D02*
G37*
G36*
X15225Y-226672D02*
X18570Y-231770D01*
X16210D01*
X14583Y-229261D01*
X14377Y-228918D01*
X14286Y-228746D01*
X14205Y-228597D01*
X14137Y-228460D01*
X14091Y-228356D01*
X14057Y-228288D01*
X14045Y-228276D01*
Y-228265D01*
X14022D01*
X13919Y-228471D01*
X13827Y-228666D01*
X13736Y-228826D01*
X13656Y-228975D01*
X13587Y-229101D01*
X13530Y-229181D01*
X13495Y-229239D01*
X13484Y-229261D01*
X11857Y-231770D01*
X9486D01*
X12831Y-226753D01*
X9784Y-221999D01*
X12086D01*
X13495Y-224324D01*
X13690Y-224668D01*
X13770Y-224828D01*
X13839Y-224977D01*
X13896Y-225103D01*
X13942Y-225195D01*
X13965Y-225252D01*
X13976Y-225275D01*
X14011D01*
X14102Y-225069D01*
X14194Y-224886D01*
X14286Y-224714D01*
X14366Y-224565D01*
X14434Y-224450D01*
X14492Y-224359D01*
X14526Y-224301D01*
X14538Y-224278D01*
X15958Y-221999D01*
X18261D01*
X15225Y-226672D01*
D02*
G37*
G36*
X38995Y-231770D02*
X37036D01*
Y-228826D01*
X35558Y-227268D01*
X32843Y-231770D01*
X30380D01*
X34195Y-225882D01*
X30655Y-221999D01*
X33107D01*
X37036Y-226340D01*
Y-221999D01*
X38995D01*
Y-231770D01*
D02*
G37*
G36*
X-52980Y-226615D02*
X-54893D01*
Y-224702D01*
X-52980D01*
Y-226615D01*
D02*
G37*
G36*
X-9874Y-231770D02*
X-11695D01*
Y-225401D01*
X-15624Y-231770D01*
X-17595D01*
Y-221999D01*
X-15773D01*
Y-228528D01*
X-11775Y-221999D01*
X-9874D01*
Y-231770D01*
D02*
G37*
G36*
X-43198D02*
X-45019D01*
Y-225401D01*
X-48948Y-231770D01*
X-50918D01*
Y-221999D01*
X-49097D01*
Y-228528D01*
X-45099Y-221999D01*
X-43198D01*
Y-231770D01*
D02*
G37*
G36*
X45009Y-221850D02*
X45261Y-221861D01*
X45502Y-221896D01*
X45731Y-221930D01*
X45937Y-221976D01*
X46143Y-222033D01*
X46326Y-222090D01*
X46498Y-222136D01*
X46647Y-222194D01*
X46785Y-222251D01*
X46899Y-222308D01*
X47002Y-222354D01*
X47082Y-222388D01*
X47140Y-222423D01*
X47174Y-222434D01*
X47186Y-222446D01*
X47369Y-222560D01*
X47552Y-222686D01*
X47712Y-222824D01*
X47873Y-222961D01*
X48010Y-223110D01*
X48136Y-223247D01*
X48262Y-223396D01*
X48365Y-223522D01*
X48468Y-223660D01*
X48549Y-223774D01*
X48618Y-223889D01*
X48675Y-223981D01*
X48721Y-224061D01*
X48755Y-224118D01*
X48766Y-224152D01*
X48778Y-224164D01*
X48870Y-224382D01*
X48961Y-224599D01*
X49099Y-225057D01*
X49190Y-225493D01*
X49225Y-225710D01*
X49259Y-225917D01*
X49282Y-226100D01*
X49293Y-226272D01*
X49316Y-226432D01*
Y-226558D01*
X49328Y-226672D01*
Y-226753D01*
Y-226799D01*
Y-226821D01*
X49316Y-227119D01*
X49305Y-227394D01*
X49282Y-227669D01*
X49247Y-227921D01*
X49202Y-228162D01*
X49156Y-228391D01*
X49110Y-228597D01*
X49053Y-228792D01*
X49007Y-228964D01*
X48961Y-229124D01*
X48915Y-229250D01*
X48870Y-229365D01*
X48835Y-229456D01*
X48812Y-229513D01*
X48789Y-229559D01*
Y-229571D01*
X48686Y-229777D01*
X48572Y-229972D01*
X48446Y-230155D01*
X48320Y-230327D01*
X48194Y-230487D01*
X48056Y-230636D01*
X47930Y-230762D01*
X47804Y-230877D01*
X47690Y-230991D01*
X47586Y-231083D01*
X47483Y-231152D01*
X47403Y-231220D01*
X47323Y-231266D01*
X47277Y-231301D01*
X47243Y-231323D01*
X47231Y-231335D01*
X47037Y-231438D01*
X46830Y-231530D01*
X46624Y-231621D01*
X46407Y-231690D01*
X45994Y-231793D01*
X45799Y-231839D01*
X45605Y-231862D01*
X45433Y-231896D01*
X45272Y-231908D01*
X45124Y-231919D01*
X44998Y-231931D01*
X44894Y-231942D01*
X44757D01*
X44356Y-231931D01*
X43990Y-231885D01*
X43657Y-231816D01*
X43508Y-231782D01*
X43359Y-231747D01*
X43245Y-231713D01*
X43130Y-231679D01*
X43027Y-231644D01*
X42947Y-231610D01*
X42890Y-231587D01*
X42832Y-231564D01*
X42810Y-231553D01*
X42798D01*
X42489Y-231392D01*
X42202Y-231209D01*
X41962Y-231026D01*
X41756Y-230842D01*
X41584Y-230682D01*
X41527Y-230613D01*
X41469Y-230544D01*
X41424Y-230499D01*
X41389Y-230464D01*
X41378Y-230441D01*
X41366Y-230430D01*
X41171Y-230144D01*
X41000Y-229857D01*
X40862Y-229571D01*
X40748Y-229307D01*
X40702Y-229181D01*
X40667Y-229078D01*
X40633Y-228975D01*
X40610Y-228895D01*
X40587Y-228826D01*
X40576Y-228780D01*
X40564Y-228746D01*
Y-228734D01*
X42523Y-228276D01*
X42592Y-228494D01*
X42661Y-228700D01*
X42741Y-228872D01*
X42821Y-229032D01*
X42890Y-229158D01*
X42947Y-229250D01*
X42993Y-229307D01*
X43004Y-229330D01*
X43130Y-229491D01*
X43268Y-229628D01*
X43405Y-229743D01*
X43531Y-229846D01*
X43634Y-229914D01*
X43726Y-229972D01*
X43783Y-230006D01*
X43806Y-230018D01*
X43978Y-230098D01*
X44161Y-230155D01*
X44322Y-230201D01*
X44482Y-230224D01*
X44619Y-230247D01*
X44723Y-230258D01*
X44814D01*
X45101Y-230235D01*
X45353Y-230189D01*
X45582Y-230132D01*
X45777Y-230052D01*
X45937Y-229972D01*
X46051Y-229914D01*
X46097Y-229880D01*
X46132Y-229869D01*
X46143Y-229846D01*
X46154D01*
X46349Y-229674D01*
X46521Y-229479D01*
X46670Y-229284D01*
X46796Y-229090D01*
X46888Y-228918D01*
X46922Y-228849D01*
X46956Y-228780D01*
X46979Y-228723D01*
X47002Y-228689D01*
X47014Y-228666D01*
Y-228654D01*
X47105Y-228356D01*
X47174Y-228047D01*
X47231Y-227749D01*
X47266Y-227463D01*
X47277Y-227337D01*
X47289Y-227222D01*
Y-227119D01*
X47300Y-227028D01*
Y-226959D01*
Y-226902D01*
Y-226867D01*
Y-226856D01*
X47289Y-226501D01*
X47254Y-226180D01*
X47208Y-225894D01*
X47151Y-225642D01*
X47128Y-225527D01*
X47105Y-225435D01*
X47082Y-225355D01*
X47059Y-225275D01*
X47037Y-225229D01*
X47025Y-225183D01*
X47014Y-225160D01*
Y-225149D01*
X46899Y-224886D01*
X46762Y-224645D01*
X46624Y-224439D01*
X46487Y-224278D01*
X46361Y-224141D01*
X46258Y-224049D01*
X46189Y-223992D01*
X46178Y-223969D01*
X46166D01*
X45937Y-223820D01*
X45708Y-223717D01*
X45479Y-223637D01*
X45261Y-223591D01*
X45078Y-223557D01*
X44998Y-223545D01*
X44929D01*
X44872Y-223534D01*
X44791D01*
X44493Y-223557D01*
X44219Y-223603D01*
X43967Y-223683D01*
X43749Y-223786D01*
X43543Y-223912D01*
X43371Y-224049D01*
X43211Y-224198D01*
X43085Y-224347D01*
X42970Y-224508D01*
X42867Y-224656D01*
X42787Y-224794D01*
X42729Y-224920D01*
X42684Y-225023D01*
X42649Y-225103D01*
X42626Y-225149D01*
Y-225172D01*
X40679Y-224714D01*
X40759Y-224450D01*
X40862Y-224210D01*
X40965Y-223992D01*
X41080Y-223774D01*
X41206Y-223591D01*
X41320Y-223408D01*
X41446Y-223247D01*
X41561Y-223110D01*
X41676Y-222984D01*
X41790Y-222869D01*
X41882Y-222778D01*
X41962Y-222709D01*
X42031Y-222652D01*
X42088Y-222606D01*
X42122Y-222583D01*
X42134Y-222572D01*
X42328Y-222446D01*
X42546Y-222331D01*
X42764Y-222228D01*
X42981Y-222148D01*
X43199Y-222079D01*
X43417Y-222022D01*
X43623Y-221964D01*
X43829Y-221930D01*
X44024Y-221896D01*
X44196Y-221873D01*
X44356Y-221861D01*
X44493Y-221850D01*
X44608Y-221838D01*
X44757D01*
X45009Y-221850D01*
D02*
G37*
G36*
X68000Y-231770D02*
X63704D01*
X63429Y-231759D01*
X63177Y-231736D01*
X62925Y-231713D01*
X62696Y-231667D01*
X62478Y-231610D01*
X62272Y-231553D01*
X62089Y-231495D01*
X61917Y-231427D01*
X61768Y-231369D01*
X61631Y-231312D01*
X61516Y-231255D01*
X61413Y-231197D01*
X61344Y-231152D01*
X61287Y-231129D01*
X61253Y-231106D01*
X61241Y-231094D01*
X61069Y-230957D01*
X60909Y-230808D01*
X60783Y-230636D01*
X60669Y-230464D01*
X60565Y-230292D01*
X60485Y-230109D01*
X60416Y-229926D01*
X60371Y-229754D01*
X60325Y-229582D01*
X60302Y-229433D01*
X60279Y-229296D01*
X60256Y-229170D01*
Y-229067D01*
X60245Y-228998D01*
Y-228941D01*
Y-228929D01*
X60268Y-228620D01*
X60325Y-228345D01*
X60394Y-228093D01*
X60485Y-227875D01*
X60577Y-227703D01*
X60611Y-227635D01*
X60646Y-227577D01*
X60680Y-227520D01*
X60703Y-227486D01*
X60714Y-227474D01*
X60726Y-227463D01*
X60921Y-227245D01*
X61138Y-227062D01*
X61367Y-226902D01*
X61585Y-226776D01*
X61791Y-226684D01*
X61871Y-226650D01*
X61951Y-226615D01*
X62009Y-226592D01*
X62055Y-226581D01*
X62089Y-226569D01*
X62101D01*
X61871Y-226455D01*
X61677Y-226329D01*
X61505Y-226203D01*
X61356Y-226077D01*
X61241Y-225962D01*
X61161Y-225871D01*
X61104Y-225813D01*
X61092Y-225791D01*
X60966Y-225596D01*
X60875Y-225389D01*
X60806Y-225172D01*
X60760Y-224977D01*
X60737Y-224817D01*
X60726Y-224737D01*
X60714Y-224679D01*
Y-224622D01*
Y-224588D01*
Y-224565D01*
Y-224553D01*
X60726Y-224313D01*
X60749Y-224084D01*
X60795Y-223877D01*
X60840Y-223683D01*
X60909Y-223511D01*
X60978Y-223351D01*
X61047Y-223202D01*
X61127Y-223076D01*
X61207Y-222961D01*
X61276Y-222869D01*
X61344Y-222789D01*
X61413Y-222720D01*
X61459Y-222675D01*
X61505Y-222629D01*
X61528Y-222617D01*
X61539Y-222606D01*
X61700Y-222503D01*
X61871Y-222400D01*
X62043Y-222320D01*
X62227Y-222251D01*
X62582Y-222148D01*
X62925Y-222079D01*
X63086Y-222045D01*
X63223Y-222033D01*
X63361Y-222022D01*
X63475Y-222010D01*
X63567Y-221999D01*
X68000D01*
Y-231770D01*
D02*
G37*
G36*
X59615D02*
X57518D01*
X56716Y-229571D01*
X52936D01*
X52088Y-231770D01*
X49935D01*
X53864Y-221999D01*
X55811D01*
X59615Y-231770D01*
D02*
G37*
G36*
X25913D02*
X19246D01*
Y-230121D01*
X23954D01*
Y-227543D01*
X19842D01*
Y-225882D01*
X23954D01*
Y-223660D01*
X19486D01*
Y-221999D01*
X25913D01*
Y-231770D01*
D02*
G37*
G36*
X8421D02*
X6462D01*
Y-228093D01*
X4972D01*
X4640Y-228082D01*
X4319Y-228059D01*
X4033Y-228024D01*
X3758Y-227978D01*
X3517Y-227921D01*
X3288Y-227852D01*
X3082Y-227795D01*
X2910Y-227715D01*
X2750Y-227646D01*
X2613Y-227589D01*
X2498Y-227520D01*
X2406Y-227463D01*
X2326Y-227417D01*
X2280Y-227383D01*
X2246Y-227360D01*
X2235Y-227348D01*
X2074Y-227199D01*
X1937Y-227028D01*
X1822Y-226856D01*
X1719Y-226661D01*
X1627Y-226466D01*
X1559Y-226272D01*
X1501Y-226088D01*
X1456Y-225894D01*
X1421Y-225722D01*
X1387Y-225550D01*
X1364Y-225401D01*
X1353Y-225275D01*
X1341Y-225160D01*
Y-225080D01*
Y-225034D01*
Y-225012D01*
X1353Y-224737D01*
X1375Y-224485D01*
X1421Y-224256D01*
X1479Y-224026D01*
X1547Y-223832D01*
X1616Y-223648D01*
X1696Y-223477D01*
X1776Y-223328D01*
X1868Y-223202D01*
X1948Y-223087D01*
X2017Y-222984D01*
X2086Y-222904D01*
X2143Y-222846D01*
X2189Y-222801D01*
X2212Y-222778D01*
X2223Y-222766D01*
X2395Y-222629D01*
X2590Y-222514D01*
X2796Y-222411D01*
X3025Y-222320D01*
X3243Y-222251D01*
X3472Y-222182D01*
X3918Y-222090D01*
X4136Y-222068D01*
X4331Y-222045D01*
X4514Y-222022D01*
X4663Y-222010D01*
X4789Y-221999D01*
X8421D01*
Y-231770D01*
D02*
G37*
G36*
X860D02*
X-1236D01*
X-2038Y-229571D01*
X-5819Y-229571D01*
X-6666Y-231770D01*
X-8820D01*
X-4891Y-221999D01*
X-2943Y-221999D01*
X860Y-231770D01*
D02*
G37*
G36*
X-28466Y-231770D02*
X-30425D01*
Y-221999D01*
X-28466D01*
Y-231770D01*
D02*
G37*
G36*
X-52980D02*
X-54893D01*
Y-229857D01*
X-52980D01*
Y-231770D01*
D02*
G37*
G36*
X-22521Y-221850D02*
X-22166Y-221896D01*
X-21994Y-221919D01*
X-21845Y-221953D01*
X-21696Y-221987D01*
X-21570Y-222010D01*
X-21444Y-222045D01*
X-21341Y-222079D01*
X-21249Y-222113D01*
X-21169Y-222136D01*
X-21112Y-222159D01*
X-21066Y-222182D01*
X-21043Y-222194D01*
X-21031D01*
X-20756Y-222342D01*
X-20516Y-222491D01*
X-20310Y-222652D01*
X-20149Y-222812D01*
X-20012Y-222950D01*
X-19920Y-223064D01*
X-19886Y-223110D01*
X-19863Y-223144D01*
X-19840Y-223156D01*
Y-223167D01*
X-19703Y-223408D01*
X-19611Y-223648D01*
X-19542Y-223889D01*
X-19485Y-224107D01*
X-19462Y-224301D01*
X-19451Y-224382D01*
Y-224450D01*
X-19439Y-224508D01*
Y-224553D01*
Y-224576D01*
Y-224588D01*
X-19451Y-224851D01*
X-19485Y-225092D01*
X-19531Y-225321D01*
X-19588Y-225504D01*
X-19634Y-225653D01*
X-19680Y-225768D01*
X-19703Y-225813D01*
X-19714Y-225848D01*
X-19726Y-225859D01*
Y-225871D01*
X-19851Y-226065D01*
X-20000Y-226249D01*
X-20161Y-226409D01*
X-20321Y-226558D01*
X-20470Y-226673D01*
X-20585Y-226753D01*
X-20630Y-226787D01*
X-20665Y-226810D01*
X-20688Y-226833D01*
X-20699D01*
X-20837Y-226913D01*
X-20986Y-226982D01*
X-21295Y-227119D01*
X-21604Y-227234D01*
X-21902Y-227337D01*
X-22051Y-227383D01*
X-22177Y-227417D01*
X-22292Y-227451D01*
X-22395Y-227474D01*
X-22475Y-227497D01*
X-22532Y-227520D01*
X-22578Y-227532D01*
X-22589D01*
X-22773Y-227577D01*
X-22944Y-227623D01*
X-23105Y-227658D01*
X-23254Y-227704D01*
X-23391Y-227738D01*
X-23506Y-227784D01*
X-23620Y-227818D01*
X-23712Y-227841D01*
X-23804Y-227875D01*
X-23872Y-227898D01*
X-23941Y-227921D01*
X-23987Y-227944D01*
X-24033Y-227956D01*
X-24056Y-227967D01*
X-24079Y-227978D01*
X-24239Y-228047D01*
X-24388Y-228127D01*
X-24491Y-228196D01*
X-24583Y-228265D01*
X-24640Y-228322D01*
X-24686Y-228368D01*
X-24709Y-228402D01*
X-24720Y-228414D01*
X-24777Y-228505D01*
X-24823Y-228620D01*
X-24846Y-228734D01*
X-24869Y-228838D01*
X-24880Y-228929D01*
X-24892Y-229009D01*
Y-229055D01*
Y-229078D01*
X-24880Y-229216D01*
X-24857Y-229330D01*
X-24823Y-229445D01*
X-24777Y-229536D01*
X-24732Y-229617D01*
X-24697Y-229674D01*
X-24674Y-229708D01*
X-24663Y-229720D01*
X-24571Y-229811D01*
X-24468Y-229903D01*
X-24365Y-229972D01*
X-24262Y-230029D01*
X-24159Y-230086D01*
X-24090Y-230121D01*
X-24044Y-230132D01*
X-24021Y-230144D01*
X-23861Y-230189D01*
X-23700Y-230224D01*
X-23540Y-230258D01*
X-23403Y-230270D01*
X-23265Y-230281D01*
X-23173Y-230292D01*
X-23082D01*
X-22773Y-230270D01*
X-22498Y-230224D01*
X-22257Y-230155D01*
X-22062Y-230063D01*
X-21913Y-229983D01*
X-21799Y-229914D01*
X-21730Y-229869D01*
X-21719Y-229846D01*
X-21707D01*
X-21616Y-229754D01*
X-21547Y-229651D01*
X-21398Y-229433D01*
X-21295Y-229193D01*
X-21203Y-228964D01*
X-21135Y-228757D01*
X-21112Y-228666D01*
X-21089Y-228586D01*
X-21077Y-228517D01*
X-21066Y-228471D01*
X-21054Y-228437D01*
Y-228425D01*
X-19095Y-228666D01*
X-19141Y-228952D01*
X-19210Y-229227D01*
X-19290Y-229479D01*
X-19382Y-229720D01*
X-19473Y-229937D01*
X-19588Y-230132D01*
X-19691Y-230315D01*
X-19794Y-230487D01*
X-19897Y-230625D01*
X-20000Y-230751D01*
X-20092Y-230865D01*
X-20172Y-230945D01*
X-20241Y-231014D01*
X-20287Y-231071D01*
X-20321Y-231094D01*
X-20333Y-231106D01*
X-20539Y-231255D01*
X-20745Y-231381D01*
X-20963Y-231495D01*
X-21192Y-231587D01*
X-21409Y-231667D01*
X-21639Y-231736D01*
X-21856Y-231793D01*
X-22062Y-231839D01*
X-22269Y-231873D01*
X-22440Y-231896D01*
X-22612Y-231919D01*
X-22750Y-231931D01*
X-22864D01*
X-22956Y-231942D01*
X-23025D01*
X-23403Y-231931D01*
X-23758Y-231896D01*
X-24079Y-231839D01*
X-24227Y-231816D01*
X-24365Y-231782D01*
X-24491Y-231747D01*
X-24594Y-231724D01*
X-24697Y-231690D01*
X-24777Y-231667D01*
X-24835Y-231656D01*
X-24892Y-231633D01*
X-24915Y-231621D01*
X-24926D01*
X-25236Y-231484D01*
X-25510Y-231335D01*
X-25751Y-231163D01*
X-25957Y-231003D01*
X-26106Y-230854D01*
X-26232Y-230739D01*
X-26267Y-230693D01*
X-26301Y-230659D01*
X-26312Y-230636D01*
X-26324Y-230625D01*
X-26415Y-230499D01*
X-26496Y-230361D01*
X-26633Y-230075D01*
X-26725Y-229800D01*
X-26782Y-229525D01*
X-26805Y-229410D01*
X-26828Y-229296D01*
X-26839Y-229193D01*
Y-229113D01*
X-26851Y-229032D01*
Y-228987D01*
Y-228952D01*
Y-228941D01*
X-26839Y-228620D01*
X-26805Y-228334D01*
X-26759Y-228093D01*
X-26702Y-227875D01*
X-26644Y-227704D01*
X-26622Y-227635D01*
X-26599Y-227577D01*
X-26576Y-227532D01*
X-26564Y-227497D01*
X-26553Y-227486D01*
Y-227474D01*
X-26427Y-227257D01*
X-26278Y-227062D01*
X-26106Y-226890D01*
X-25946Y-226741D01*
X-25785Y-226615D01*
X-25659Y-226535D01*
X-25614Y-226501D01*
X-25579Y-226478D01*
X-25556Y-226455D01*
X-25545D01*
X-25407Y-226375D01*
X-25247Y-226306D01*
X-24926Y-226168D01*
X-24594Y-226042D01*
X-24262Y-225939D01*
X-24113Y-225894D01*
X-23975Y-225848D01*
X-23849Y-225813D01*
X-23746Y-225791D01*
X-23655Y-225768D01*
X-23586Y-225745D01*
X-23540Y-225733D01*
X-23529D01*
X-23231Y-225665D01*
X-22956Y-225596D01*
X-22727Y-225527D01*
X-22543Y-225470D01*
X-22395Y-225424D01*
X-22292Y-225390D01*
X-22223Y-225367D01*
X-22200Y-225355D01*
X-22039Y-225287D01*
X-21902Y-225218D01*
X-21787Y-225149D01*
X-21707Y-225092D01*
X-21639Y-225046D01*
X-21581Y-225000D01*
X-21558Y-224977D01*
X-21547Y-224966D01*
X-21478Y-224886D01*
X-21432Y-224794D01*
X-21398Y-224702D01*
X-21375Y-224622D01*
X-21364Y-224553D01*
X-21352Y-224485D01*
Y-224450D01*
Y-224439D01*
X-21375Y-224278D01*
X-21421Y-224130D01*
X-21490Y-224015D01*
X-21570Y-223912D01*
X-21639Y-223832D01*
X-21707Y-223774D01*
X-21753Y-223740D01*
X-21776Y-223729D01*
X-21948Y-223637D01*
X-22120Y-223580D01*
X-22292Y-223534D01*
X-22463Y-223499D01*
X-22612Y-223477D01*
X-22727Y-223465D01*
X-22830D01*
X-23116Y-223477D01*
X-23368Y-223511D01*
X-23586Y-223568D01*
X-23769Y-223625D01*
X-23907Y-223694D01*
X-23998Y-223740D01*
X-24056Y-223786D01*
X-24079Y-223797D01*
X-24227Y-223935D01*
X-24342Y-224107D01*
X-24434Y-224290D01*
X-24502Y-224462D01*
X-24548Y-224634D01*
X-24583Y-224760D01*
X-24594Y-224817D01*
X-24606Y-224851D01*
Y-224874D01*
Y-224886D01*
X-26576Y-224668D01*
X-26530Y-224416D01*
X-26461Y-224187D01*
X-26381Y-223969D01*
X-26301Y-223763D01*
X-26209Y-223568D01*
X-26106Y-223396D01*
X-26014Y-223247D01*
X-25911Y-223099D01*
X-25820Y-222984D01*
X-25728Y-222869D01*
X-25636Y-222778D01*
X-25568Y-222709D01*
X-25510Y-222652D01*
X-25465Y-222606D01*
X-25430Y-222583D01*
X-25419Y-222572D01*
X-25236Y-222446D01*
X-25041Y-222331D01*
X-24846Y-222228D01*
X-24640Y-222148D01*
X-24434Y-222079D01*
X-24216Y-222022D01*
X-23826Y-221930D01*
X-23643Y-221896D01*
X-23471Y-221873D01*
X-23311Y-221861D01*
X-23185Y-221850D01*
X-23070Y-221838D01*
X-22922D01*
X-22521Y-221850D01*
D02*
G37*
G36*
X-36530D02*
X-36279Y-221861D01*
X-36026Y-221896D01*
X-35797Y-221942D01*
X-35580Y-221987D01*
X-35362Y-222033D01*
X-35179Y-222090D01*
X-34996Y-222148D01*
X-34835Y-222216D01*
X-34698Y-222274D01*
X-34572Y-222320D01*
X-34469Y-222365D01*
X-34388Y-222411D01*
X-34320Y-222446D01*
X-34285Y-222457D01*
X-34274Y-222468D01*
X-34079Y-222594D01*
X-33896Y-222721D01*
X-33724Y-222869D01*
X-33564Y-223018D01*
X-33415Y-223167D01*
X-33277Y-223305D01*
X-33151Y-223454D01*
X-33037Y-223603D01*
X-32945Y-223729D01*
X-32853Y-223855D01*
X-32785Y-223969D01*
X-32716Y-224061D01*
X-32670Y-224141D01*
X-32636Y-224210D01*
X-32624Y-224244D01*
X-32613Y-224256D01*
X-32510Y-224473D01*
X-32429Y-224702D01*
X-32349Y-224931D01*
X-32281Y-225161D01*
X-32178Y-225607D01*
X-32143Y-225825D01*
X-32109Y-226031D01*
X-32086Y-226226D01*
X-32074Y-226398D01*
X-32063Y-226558D01*
X-32051Y-226684D01*
X-32040Y-226799D01*
Y-226879D01*
Y-226925D01*
Y-226947D01*
X-32051Y-227222D01*
X-32063Y-227486D01*
X-32097Y-227738D01*
X-32132Y-227978D01*
X-32178Y-228208D01*
X-32223Y-228414D01*
X-32269Y-228620D01*
X-32326Y-228803D01*
X-32384Y-228975D01*
X-32429Y-229124D01*
X-32475Y-229250D01*
X-32521Y-229353D01*
X-32555Y-229445D01*
X-32590Y-229502D01*
X-32601Y-229548D01*
X-32613Y-229559D01*
X-32727Y-229765D01*
X-32853Y-229960D01*
X-32979Y-230144D01*
X-33117Y-230315D01*
X-33254Y-230476D01*
X-33403Y-230613D01*
X-33541Y-230751D01*
X-33667Y-230865D01*
X-33793Y-230968D01*
X-33907Y-231060D01*
X-34010Y-231140D01*
X-34102Y-231209D01*
X-34182Y-231255D01*
X-34239Y-231289D01*
X-34274Y-231312D01*
X-34285Y-231324D01*
X-34492Y-231427D01*
X-34709Y-231530D01*
X-34927Y-231610D01*
X-35144Y-231679D01*
X-35568Y-231793D01*
X-35775Y-231828D01*
X-35969Y-231862D01*
X-36141Y-231885D01*
X-36313Y-231908D01*
X-36462Y-231919D01*
X-36588Y-231931D01*
X-36691Y-231942D01*
X-36828D01*
X-37092Y-231931D01*
X-37355Y-231919D01*
X-37596Y-231885D01*
X-37836Y-231839D01*
X-38054Y-231793D01*
X-38260Y-231747D01*
X-38455Y-231690D01*
X-38638Y-231621D01*
X-38799Y-231564D01*
X-38936Y-231507D01*
X-39062Y-231461D01*
X-39165Y-231415D01*
X-39246Y-231369D01*
X-39303Y-231335D01*
X-39337Y-231324D01*
X-39349Y-231312D01*
X-39543Y-231186D01*
X-39727Y-231049D01*
X-39898Y-230911D01*
X-40059Y-230762D01*
X-40208Y-230613D01*
X-40345Y-230464D01*
X-40471Y-230327D01*
X-40574Y-230178D01*
X-40677Y-230052D01*
X-40758Y-229926D01*
X-40838Y-229823D01*
X-40895Y-229720D01*
X-40941Y-229639D01*
X-40975Y-229582D01*
X-40987Y-229548D01*
X-40998Y-229536D01*
X-41101Y-229319D01*
X-41193Y-229090D01*
X-41262Y-228872D01*
X-41330Y-228643D01*
X-41433Y-228208D01*
X-41468Y-227990D01*
X-41502Y-227795D01*
X-41525Y-227612D01*
X-41536Y-227440D01*
X-41560Y-227291D01*
Y-227165D01*
X-41571Y-227062D01*
Y-226982D01*
Y-226925D01*
Y-226913D01*
X-41560Y-226627D01*
X-41548Y-226363D01*
X-41514Y-226100D01*
X-41479Y-225848D01*
X-41433Y-225619D01*
X-41388Y-225401D01*
X-41330Y-225195D01*
X-41284Y-225012D01*
X-41227Y-224840D01*
X-41170Y-224691D01*
X-41124Y-224553D01*
X-41078Y-224450D01*
X-41044Y-224359D01*
X-41010Y-224301D01*
X-40998Y-224256D01*
X-40987Y-224244D01*
X-40872Y-224038D01*
X-40746Y-223843D01*
X-40620Y-223660D01*
X-40483Y-223488D01*
X-40345Y-223328D01*
X-40208Y-223179D01*
X-40070Y-223041D01*
X-39933Y-222927D01*
X-39818Y-222824D01*
X-39692Y-222732D01*
X-39589Y-222652D01*
X-39509Y-222583D01*
X-39429Y-222537D01*
X-39372Y-222503D01*
X-39337Y-222480D01*
X-39326Y-222468D01*
X-39120Y-222354D01*
X-38913Y-222262D01*
X-38696Y-222171D01*
X-38478Y-222102D01*
X-38054Y-221987D01*
X-37848Y-221953D01*
X-37653Y-221919D01*
X-37481Y-221896D01*
X-37310Y-221873D01*
X-37161Y-221861D01*
X-37035Y-221850D01*
X-36932Y-221838D01*
X-36794D01*
X-36530Y-221850D01*
D02*
G37*
G36*
X-2783Y-243828D02*
X-4742Y-243828D01*
Y-239487D01*
X-8602D01*
Y-243828D01*
X-10561D01*
Y-234057D01*
X-8602D01*
Y-237826D01*
X-4742D01*
Y-234057D01*
X-2783Y-234057D01*
Y-243828D01*
D02*
G37*
G36*
X8695D02*
X6553D01*
X4915Y-237459D01*
X4869Y-237264D01*
X4823Y-237058D01*
X4778Y-236852D01*
X4743Y-236668D01*
X4709Y-236508D01*
X4697Y-236371D01*
X4686Y-236325D01*
X4674Y-236290D01*
Y-236268D01*
Y-236256D01*
X4652D01*
X4617Y-236485D01*
X4571Y-236714D01*
X4526Y-236921D01*
X4491Y-237104D01*
X4457Y-237264D01*
X4423Y-237390D01*
X4411Y-237436D01*
Y-237470D01*
X4400Y-237482D01*
Y-237493D01*
X2750Y-243828D01*
X642D01*
X-1695Y-234057D01*
X333D01*
X1479Y-239658D01*
X1524Y-239910D01*
X1570Y-240162D01*
X1616Y-240403D01*
X1650Y-240632D01*
X1685Y-240827D01*
X1696Y-240907D01*
X1708Y-240976D01*
X1719Y-241033D01*
Y-241079D01*
X1731Y-241102D01*
Y-241113D01*
X1753D01*
X1799Y-240804D01*
X1857Y-240529D01*
X1902Y-240288D01*
X1948Y-240071D01*
X1982Y-239899D01*
X2005Y-239830D01*
X2017Y-239773D01*
X2028Y-239727D01*
Y-239693D01*
X2040Y-239681D01*
Y-239670D01*
X3437Y-234057D01*
X5774D01*
X7229Y-239636D01*
X7298Y-239899D01*
X7355Y-240162D01*
X7401Y-240392D01*
X7435Y-240586D01*
X7470Y-240758D01*
X7481Y-240827D01*
X7493Y-240884D01*
X7504Y-240930D01*
X7516Y-240964D01*
Y-240987D01*
Y-240999D01*
X7538D01*
X7573Y-240724D01*
X7619Y-240472D01*
X7664Y-240243D01*
X7699Y-240036D01*
X7733Y-239865D01*
X7745Y-239796D01*
X7756Y-239739D01*
X7768Y-239693D01*
Y-239647D01*
X7779Y-239636D01*
Y-239624D01*
X8947Y-234057D01*
X10986D01*
X8695Y-243828D01*
D02*
G37*
G36*
X54757Y-233908D02*
X55010Y-233919D01*
X55250Y-233954D01*
X55479Y-233988D01*
X55685Y-234034D01*
X55892Y-234091D01*
X56075Y-234148D01*
X56247Y-234194D01*
X56396Y-234251D01*
X56533Y-234309D01*
X56648Y-234366D01*
X56751Y-234412D01*
X56831Y-234446D01*
X56888Y-234481D01*
X56923Y-234492D01*
X56934Y-234503D01*
X57117Y-234618D01*
X57301Y-234744D01*
X57461Y-234881D01*
X57621Y-235019D01*
X57759Y-235168D01*
X57885Y-235305D01*
X58011Y-235454D01*
X58114Y-235580D01*
X58217Y-235718D01*
X58297Y-235832D01*
X58366Y-235947D01*
X58423Y-236038D01*
X58469Y-236119D01*
X58503Y-236176D01*
X58515Y-236210D01*
X58526Y-236222D01*
X58618Y-236439D01*
X58710Y-236657D01*
X58847Y-237115D01*
X58939Y-237551D01*
X58973Y-237768D01*
X59008Y-237974D01*
X59030Y-238158D01*
X59042Y-238330D01*
X59065Y-238490D01*
Y-238616D01*
X59076Y-238731D01*
Y-238811D01*
Y-238857D01*
Y-238879D01*
X59065Y-239177D01*
X59053Y-239452D01*
X59030Y-239727D01*
X58996Y-239979D01*
X58950Y-240220D01*
X58904Y-240449D01*
X58859Y-240655D01*
X58801Y-240850D01*
X58755Y-241022D01*
X58710Y-241182D01*
X58664Y-241308D01*
X58618Y-241423D01*
X58584Y-241514D01*
X58561Y-241571D01*
X58538Y-241617D01*
Y-241629D01*
X58435Y-241835D01*
X58320Y-242030D01*
X58194Y-242213D01*
X58068Y-242385D01*
X57942Y-242545D01*
X57805Y-242694D01*
X57679Y-242820D01*
X57553Y-242935D01*
X57438Y-243049D01*
X57335Y-243141D01*
X57232Y-243210D01*
X57152Y-243278D01*
X57071Y-243324D01*
X57026Y-243358D01*
X56991Y-243381D01*
X56980Y-243393D01*
X56785Y-243496D01*
X56579Y-243588D01*
X56373Y-243679D01*
X56155Y-243748D01*
X55743Y-243851D01*
X55548Y-243897D01*
X55353Y-243920D01*
X55181Y-243954D01*
X55021Y-243966D01*
X54872Y-243977D01*
X54746Y-243988D01*
X54643Y-244000D01*
X54506D01*
X54105Y-243988D01*
X53738Y-243943D01*
X53406Y-243874D01*
X53257Y-243840D01*
X53108Y-243805D01*
X52993Y-243771D01*
X52879Y-243736D01*
X52776Y-243702D01*
X52696Y-243668D01*
X52638Y-243645D01*
X52581Y-243622D01*
X52558Y-243610D01*
X52547D01*
X52237Y-243450D01*
X51951Y-243267D01*
X51710Y-243084D01*
X51504Y-242900D01*
X51332Y-242740D01*
X51275Y-242671D01*
X51218Y-242602D01*
X51172Y-242557D01*
X51138Y-242522D01*
X51126Y-242499D01*
X51115Y-242488D01*
X50920Y-242201D01*
X50748Y-241915D01*
X50611Y-241629D01*
X50496Y-241365D01*
X50450Y-241239D01*
X50416Y-241136D01*
X50382Y-241033D01*
X50359Y-240953D01*
X50336Y-240884D01*
X50324Y-240838D01*
X50313Y-240804D01*
Y-240793D01*
X52272Y-240334D01*
X52340Y-240552D01*
X52409Y-240758D01*
X52489Y-240930D01*
X52570Y-241090D01*
X52638Y-241216D01*
X52696Y-241308D01*
X52741Y-241365D01*
X52753Y-241388D01*
X52879Y-241549D01*
X53016Y-241686D01*
X53154Y-241801D01*
X53280Y-241904D01*
X53383Y-241972D01*
X53474Y-242030D01*
X53532Y-242064D01*
X53555Y-242076D01*
X53727Y-242156D01*
X53910Y-242213D01*
X54070Y-242259D01*
X54231Y-242282D01*
X54368Y-242305D01*
X54471Y-242316D01*
X54563D01*
X54849Y-242293D01*
X55101Y-242247D01*
X55330Y-242190D01*
X55525Y-242110D01*
X55685Y-242030D01*
X55800Y-241972D01*
X55846Y-241938D01*
X55880Y-241927D01*
X55892Y-241904D01*
X55903D01*
X56098Y-241732D01*
X56270Y-241537D01*
X56419Y-241342D01*
X56545Y-241148D01*
X56636Y-240976D01*
X56671Y-240907D01*
X56705Y-240838D01*
X56728Y-240781D01*
X56751Y-240747D01*
X56762Y-240724D01*
Y-240712D01*
X56854Y-240415D01*
X56923Y-240105D01*
X56980Y-239807D01*
X57014Y-239521D01*
X57026Y-239395D01*
X57037Y-239280D01*
Y-239177D01*
X57049Y-239086D01*
Y-239017D01*
Y-238960D01*
Y-238925D01*
Y-238914D01*
X57037Y-238559D01*
X57003Y-238238D01*
X56957Y-237952D01*
X56900Y-237700D01*
X56877Y-237585D01*
X56854Y-237493D01*
X56831Y-237413D01*
X56808Y-237333D01*
X56785Y-237287D01*
X56774Y-237241D01*
X56762Y-237218D01*
Y-237207D01*
X56648Y-236943D01*
X56510Y-236703D01*
X56373Y-236497D01*
X56235Y-236336D01*
X56109Y-236199D01*
X56006Y-236107D01*
X55938Y-236050D01*
X55926Y-236027D01*
X55915D01*
X55685Y-235878D01*
X55456Y-235775D01*
X55227Y-235695D01*
X55010Y-235649D01*
X54826Y-235615D01*
X54746Y-235603D01*
X54677D01*
X54620Y-235592D01*
X54540D01*
X54242Y-235615D01*
X53967Y-235660D01*
X53715Y-235741D01*
X53498Y-235844D01*
X53291Y-235970D01*
X53119Y-236107D01*
X52959Y-236256D01*
X52833Y-236405D01*
X52719Y-236565D01*
X52615Y-236714D01*
X52535Y-236852D01*
X52478Y-236978D01*
X52432Y-237081D01*
X52398Y-237161D01*
X52375Y-237207D01*
Y-237230D01*
X50427Y-236772D01*
X50508Y-236508D01*
X50611Y-236268D01*
X50714Y-236050D01*
X50828Y-235832D01*
X50954Y-235649D01*
X51069Y-235466D01*
X51195Y-235305D01*
X51309Y-235168D01*
X51424Y-235042D01*
X51539Y-234927D01*
X51630Y-234836D01*
X51710Y-234767D01*
X51779Y-234710D01*
X51836Y-234664D01*
X51871Y-234641D01*
X51882Y-234629D01*
X52077Y-234503D01*
X52295Y-234389D01*
X52512Y-234286D01*
X52730Y-234206D01*
X52948Y-234137D01*
X53165Y-234080D01*
X53371Y-234022D01*
X53578Y-233988D01*
X53772Y-233954D01*
X53944Y-233931D01*
X54105Y-233919D01*
X54242Y-233908D01*
X54357Y-233896D01*
X54506D01*
X54757Y-233908D01*
D02*
G37*
G36*
X48744Y-243828D02*
X46785D01*
Y-239762D01*
X46315D01*
X46132Y-239773D01*
X45983Y-239784D01*
X45857D01*
X45754Y-239796D01*
X45673Y-239807D01*
X45628Y-239819D01*
X45616D01*
X45502Y-239842D01*
X45387Y-239876D01*
X45295Y-239910D01*
X45215Y-239945D01*
X45158Y-239979D01*
X45101Y-240002D01*
X45078Y-240014D01*
X45066Y-240025D01*
X44986Y-240082D01*
X44906Y-240151D01*
X44768Y-240277D01*
X44711Y-240346D01*
X44665Y-240392D01*
X44642Y-240426D01*
X44631Y-240437D01*
X44562Y-240518D01*
X44505Y-240621D01*
X44356Y-240838D01*
X44219Y-241079D01*
X44093Y-241308D01*
X43978Y-241537D01*
X43932Y-241629D01*
X43886Y-241709D01*
X43852Y-241778D01*
X43829Y-241835D01*
X43806Y-241869D01*
Y-241881D01*
X42878Y-243828D01*
X40713D01*
X42008Y-241205D01*
X42111Y-240999D01*
X42214Y-240815D01*
X42294Y-240655D01*
X42374Y-240529D01*
X42432Y-240426D01*
X42477Y-240346D01*
X42512Y-240300D01*
X42523Y-240288D01*
X42603Y-240162D01*
X42684Y-240059D01*
X42752Y-239979D01*
X42821Y-239899D01*
X42867Y-239842D01*
X42913Y-239807D01*
X42936Y-239784D01*
X42947Y-239773D01*
X43107Y-239658D01*
X43256Y-239578D01*
X43314Y-239544D01*
X43359Y-239521D01*
X43394Y-239510D01*
X43405D01*
Y-239487D01*
X43211Y-239418D01*
X43027Y-239349D01*
X42855Y-239280D01*
X42695Y-239200D01*
X42558Y-239120D01*
X42420Y-239028D01*
X42305Y-238948D01*
X42202Y-238868D01*
X42111Y-238799D01*
X42019Y-238731D01*
X41962Y-238662D01*
X41905Y-238605D01*
X41859Y-238570D01*
X41824Y-238536D01*
X41813Y-238513D01*
X41802Y-238501D01*
X41710Y-238375D01*
X41630Y-238238D01*
X41492Y-237952D01*
X41401Y-237677D01*
X41343Y-237402D01*
X41320Y-237276D01*
X41297Y-237173D01*
X41286Y-237069D01*
Y-236978D01*
X41274Y-236909D01*
Y-236852D01*
Y-236817D01*
Y-236806D01*
X41286Y-236565D01*
X41309Y-236336D01*
X41355Y-236119D01*
X41412Y-235924D01*
X41481Y-235741D01*
X41561Y-235580D01*
X41641Y-235420D01*
X41721Y-235282D01*
X41802Y-235168D01*
X41882Y-235065D01*
X41962Y-234973D01*
X42031Y-234893D01*
X42088Y-234836D01*
X42134Y-234801D01*
X42157Y-234778D01*
X42168Y-234767D01*
X42340Y-234641D01*
X42535Y-234538D01*
X42729Y-234435D01*
X42936Y-234354D01*
X43153Y-234286D01*
X43359Y-234228D01*
X43772Y-234148D01*
X43955Y-234114D01*
X44138Y-234091D01*
X44287Y-234080D01*
X44425Y-234068D01*
X44539Y-234057D01*
X48744D01*
Y-243828D01*
D02*
G37*
G36*
X28845D02*
X22522D01*
Y-242179D01*
X26887D01*
Y-234057D01*
X28845D01*
Y-243828D01*
D02*
G37*
G36*
X21136D02*
X14813D01*
Y-242179D01*
X19177D01*
Y-234057D01*
X21136D01*
Y-243828D01*
D02*
G37*
G36*
X-12623Y-243828D02*
X-19290D01*
Y-242179D01*
X-14582D01*
Y-239601D01*
X-18694D01*
Y-237940D01*
X-14582D01*
Y-235718D01*
X-19050D01*
Y-234057D01*
X-12623D01*
Y-243828D01*
D02*
G37*
G36*
X-20963D02*
X-27630D01*
Y-242179D01*
X-22922D01*
Y-239601D01*
X-27034D01*
Y-237940D01*
X-22922D01*
Y-235718D01*
X-27389D01*
Y-234057D01*
X-20963D01*
Y-243828D01*
D02*
G37*
G36*
X-29302D02*
X-35626D01*
Y-242179D01*
X-31261D01*
Y-234057D01*
X-29302D01*
Y-243828D01*
D02*
G37*
G36*
X64575Y-233908D02*
X64930Y-233954D01*
X65102Y-233976D01*
X65251Y-234011D01*
X65400Y-234045D01*
X65526Y-234068D01*
X65652Y-234102D01*
X65755Y-234137D01*
X65846Y-234171D01*
X65927Y-234194D01*
X65984Y-234217D01*
X66030Y-234240D01*
X66053Y-234251D01*
X66064D01*
X66339Y-234400D01*
X66579Y-234549D01*
X66786Y-234710D01*
X66946Y-234870D01*
X67084Y-235007D01*
X67175Y-235122D01*
X67210Y-235168D01*
X67232Y-235202D01*
X67255Y-235214D01*
Y-235225D01*
X67393Y-235466D01*
X67484Y-235706D01*
X67553Y-235947D01*
X67611Y-236164D01*
X67633Y-236359D01*
X67645Y-236439D01*
Y-236508D01*
X67656Y-236565D01*
Y-236611D01*
Y-236634D01*
Y-236646D01*
X67645Y-236909D01*
X67611Y-237150D01*
X67565Y-237379D01*
X67507Y-237562D01*
X67462Y-237711D01*
X67416Y-237826D01*
X67393Y-237871D01*
X67381Y-237906D01*
X67370Y-237917D01*
Y-237929D01*
X67244Y-238123D01*
X67095Y-238307D01*
X66935Y-238467D01*
X66774Y-238616D01*
X66625Y-238731D01*
X66511Y-238811D01*
X66465Y-238845D01*
X66431Y-238868D01*
X66408Y-238891D01*
X66396D01*
X66259Y-238971D01*
X66110Y-239040D01*
X65801Y-239177D01*
X65491Y-239292D01*
X65193Y-239395D01*
X65044Y-239441D01*
X64918Y-239475D01*
X64804Y-239510D01*
X64701Y-239532D01*
X64621Y-239555D01*
X64563Y-239578D01*
X64517Y-239590D01*
X64506D01*
X64323Y-239636D01*
X64151Y-239681D01*
X63991Y-239716D01*
X63842Y-239762D01*
X63704Y-239796D01*
X63590Y-239842D01*
X63475Y-239876D01*
X63383Y-239899D01*
X63292Y-239933D01*
X63223Y-239956D01*
X63154Y-239979D01*
X63109Y-240002D01*
X63063Y-240014D01*
X63040Y-240025D01*
X63017Y-240036D01*
X62856Y-240105D01*
X62708Y-240185D01*
X62604Y-240254D01*
X62513Y-240323D01*
X62456Y-240380D01*
X62410Y-240426D01*
X62387Y-240460D01*
X62375Y-240472D01*
X62318Y-240563D01*
X62272Y-240678D01*
X62249Y-240793D01*
X62227Y-240896D01*
X62215Y-240987D01*
X62204Y-241067D01*
Y-241113D01*
Y-241136D01*
X62215Y-241274D01*
X62238Y-241388D01*
X62272Y-241503D01*
X62318Y-241594D01*
X62364Y-241674D01*
X62398Y-241732D01*
X62421Y-241766D01*
X62433Y-241778D01*
X62524Y-241869D01*
X62627Y-241961D01*
X62730Y-242030D01*
X62834Y-242087D01*
X62937Y-242144D01*
X63005Y-242179D01*
X63051Y-242190D01*
X63074Y-242201D01*
X63235Y-242247D01*
X63395Y-242282D01*
X63555Y-242316D01*
X63693Y-242327D01*
X63830Y-242339D01*
X63922Y-242350D01*
X64014D01*
X64323Y-242327D01*
X64598Y-242282D01*
X64838Y-242213D01*
X65033Y-242121D01*
X65182Y-242041D01*
X65297Y-241972D01*
X65365Y-241927D01*
X65377Y-241904D01*
X65388D01*
X65480Y-241812D01*
X65549Y-241709D01*
X65697Y-241491D01*
X65801Y-241251D01*
X65892Y-241022D01*
X65961Y-240815D01*
X65984Y-240724D01*
X66007Y-240644D01*
X66018Y-240575D01*
X66030Y-240529D01*
X66041Y-240495D01*
Y-240483D01*
X68000Y-240724D01*
X67954Y-241010D01*
X67885Y-241285D01*
X67805Y-241537D01*
X67714Y-241778D01*
X67622Y-241995D01*
X67507Y-242190D01*
X67404Y-242373D01*
X67301Y-242545D01*
X67198Y-242683D01*
X67095Y-242809D01*
X67003Y-242923D01*
X66923Y-243003D01*
X66855Y-243072D01*
X66809Y-243129D01*
X66774Y-243152D01*
X66763Y-243164D01*
X66557Y-243313D01*
X66350Y-243439D01*
X66133Y-243553D01*
X65904Y-243645D01*
X65686Y-243725D01*
X65457Y-243794D01*
X65239Y-243851D01*
X65033Y-243897D01*
X64827Y-243931D01*
X64655Y-243954D01*
X64483Y-243977D01*
X64346Y-243988D01*
X64231D01*
X64139Y-244000D01*
X64071D01*
X63693Y-243988D01*
X63338Y-243954D01*
X63017Y-243897D01*
X62868Y-243874D01*
X62730Y-243840D01*
X62604Y-243805D01*
X62501Y-243782D01*
X62398Y-243748D01*
X62318Y-243725D01*
X62261Y-243714D01*
X62204Y-243691D01*
X62181Y-243679D01*
X62169D01*
X61860Y-243542D01*
X61585Y-243393D01*
X61344Y-243221D01*
X61138Y-243061D01*
X60989Y-242912D01*
X60863Y-242797D01*
X60829Y-242751D01*
X60795Y-242717D01*
X60783Y-242694D01*
X60772Y-242683D01*
X60680Y-242557D01*
X60600Y-242419D01*
X60462Y-242133D01*
X60371Y-241858D01*
X60313Y-241583D01*
X60290Y-241468D01*
X60268Y-241354D01*
X60256Y-241251D01*
Y-241171D01*
X60245Y-241090D01*
Y-241045D01*
Y-241010D01*
Y-240999D01*
X60256Y-240678D01*
X60290Y-240392D01*
X60336Y-240151D01*
X60394Y-239933D01*
X60451Y-239762D01*
X60474Y-239693D01*
X60497Y-239636D01*
X60520Y-239590D01*
X60531Y-239555D01*
X60542Y-239544D01*
Y-239532D01*
X60669Y-239315D01*
X60817Y-239120D01*
X60989Y-238948D01*
X61150Y-238799D01*
X61310Y-238673D01*
X61436Y-238593D01*
X61482Y-238559D01*
X61516Y-238536D01*
X61539Y-238513D01*
X61551D01*
X61688Y-238433D01*
X61848Y-238364D01*
X62169Y-238227D01*
X62501Y-238100D01*
X62834Y-237997D01*
X62983Y-237952D01*
X63120Y-237906D01*
X63246Y-237871D01*
X63349Y-237848D01*
X63441Y-237826D01*
X63509Y-237803D01*
X63555Y-237791D01*
X63567D01*
X63865Y-237722D01*
X64139Y-237654D01*
X64369Y-237585D01*
X64552Y-237528D01*
X64701Y-237482D01*
X64804Y-237447D01*
X64873Y-237425D01*
X64896Y-237413D01*
X65056Y-237344D01*
X65193Y-237276D01*
X65308Y-237207D01*
X65388Y-237150D01*
X65457Y-237104D01*
X65514Y-237058D01*
X65537Y-237035D01*
X65549Y-237024D01*
X65617Y-236943D01*
X65663Y-236852D01*
X65697Y-236760D01*
X65720Y-236680D01*
X65732Y-236611D01*
X65743Y-236542D01*
Y-236508D01*
Y-236497D01*
X65720Y-236336D01*
X65675Y-236187D01*
X65606Y-236073D01*
X65526Y-235970D01*
X65457Y-235890D01*
X65388Y-235832D01*
X65342Y-235798D01*
X65319Y-235786D01*
X65148Y-235695D01*
X64976Y-235638D01*
X64804Y-235592D01*
X64632Y-235557D01*
X64483Y-235534D01*
X64369Y-235523D01*
X64265D01*
X63979Y-235534D01*
X63727Y-235569D01*
X63509Y-235626D01*
X63326Y-235683D01*
X63189Y-235752D01*
X63097Y-235798D01*
X63040Y-235844D01*
X63017Y-235855D01*
X62868Y-235993D01*
X62753Y-236164D01*
X62662Y-236348D01*
X62593Y-236520D01*
X62547Y-236691D01*
X62513Y-236817D01*
X62501Y-236875D01*
X62490Y-236909D01*
Y-236932D01*
Y-236943D01*
X60520Y-236726D01*
X60565Y-236474D01*
X60634Y-236245D01*
X60714Y-236027D01*
X60795Y-235821D01*
X60886Y-235626D01*
X60989Y-235454D01*
X61081Y-235305D01*
X61184Y-235156D01*
X61276Y-235042D01*
X61367Y-234927D01*
X61459Y-234836D01*
X61528Y-234767D01*
X61585Y-234710D01*
X61631Y-234664D01*
X61665Y-234641D01*
X61677Y-234629D01*
X61860Y-234503D01*
X62055Y-234389D01*
X62249Y-234286D01*
X62456Y-234206D01*
X62662Y-234137D01*
X62879Y-234080D01*
X63269Y-233988D01*
X63452Y-233954D01*
X63624Y-233931D01*
X63784Y-233919D01*
X63910Y-233908D01*
X64025Y-233896D01*
X64174D01*
X64575Y-233908D01*
D02*
G37*
G36*
X35512D02*
X35765Y-233919D01*
X36016Y-233954D01*
X36246Y-233999D01*
X36463Y-234045D01*
X36681Y-234091D01*
X36864Y-234148D01*
X37048Y-234206D01*
X37208Y-234274D01*
X37345Y-234332D01*
X37471Y-234377D01*
X37574Y-234423D01*
X37655Y-234469D01*
X37723Y-234503D01*
X37758Y-234515D01*
X37769Y-234526D01*
X37964Y-234652D01*
X38147Y-234778D01*
X38319Y-234927D01*
X38479Y-235076D01*
X38628Y-235225D01*
X38766Y-235363D01*
X38892Y-235511D01*
X39006Y-235660D01*
X39098Y-235786D01*
X39190Y-235912D01*
X39258Y-236027D01*
X39327Y-236119D01*
X39373Y-236199D01*
X39407Y-236268D01*
X39419Y-236302D01*
X39430Y-236313D01*
X39533Y-236531D01*
X39613Y-236760D01*
X39694Y-236989D01*
X39762Y-237218D01*
X39866Y-237665D01*
X39900Y-237883D01*
X39934Y-238089D01*
X39957Y-238284D01*
X39969Y-238456D01*
X39980Y-238616D01*
X39992Y-238742D01*
X40003Y-238857D01*
Y-238937D01*
Y-238983D01*
Y-239005D01*
X39992Y-239280D01*
X39980Y-239544D01*
X39946Y-239796D01*
X39911Y-240036D01*
X39866Y-240266D01*
X39820Y-240472D01*
X39774Y-240678D01*
X39717Y-240861D01*
X39659Y-241033D01*
X39613Y-241182D01*
X39568Y-241308D01*
X39522Y-241411D01*
X39488Y-241503D01*
X39453Y-241560D01*
X39442Y-241606D01*
X39430Y-241617D01*
X39316Y-241824D01*
X39190Y-242018D01*
X39064Y-242201D01*
X38926Y-242373D01*
X38789Y-242534D01*
X38640Y-242671D01*
X38502Y-242809D01*
X38376Y-242923D01*
X38250Y-243026D01*
X38136Y-243118D01*
X38033Y-243198D01*
X37941Y-243267D01*
X37861Y-243313D01*
X37804Y-243347D01*
X37769Y-243370D01*
X37758Y-243381D01*
X37552Y-243484D01*
X37334Y-243588D01*
X37116Y-243668D01*
X36899Y-243736D01*
X36475Y-243851D01*
X36268Y-243885D01*
X36074Y-243920D01*
X35902Y-243943D01*
X35730Y-243966D01*
X35581Y-243977D01*
X35455Y-243988D01*
X35352Y-244000D01*
X35215D01*
X34951Y-243988D01*
X34688Y-243977D01*
X34447Y-243943D01*
X34207Y-243897D01*
X33989Y-243851D01*
X33783Y-243805D01*
X33588Y-243748D01*
X33405Y-243679D01*
X33244Y-243622D01*
X33107Y-243565D01*
X32981Y-243519D01*
X32878Y-243473D01*
X32798Y-243427D01*
X32740Y-243393D01*
X32706Y-243381D01*
X32694Y-243370D01*
X32500Y-243244D01*
X32316Y-243106D01*
X32145Y-242969D01*
X31984Y-242820D01*
X31835Y-242671D01*
X31698Y-242522D01*
X31572Y-242385D01*
X31469Y-242236D01*
X31366Y-242110D01*
X31285Y-241984D01*
X31205Y-241881D01*
X31148Y-241778D01*
X31102Y-241698D01*
X31068Y-241640D01*
X31056Y-241606D01*
X31045Y-241594D01*
X30942Y-241377D01*
X30850Y-241148D01*
X30781Y-240930D01*
X30713Y-240701D01*
X30610Y-240266D01*
X30575Y-240048D01*
X30541Y-239853D01*
X30518Y-239670D01*
X30506Y-239498D01*
X30484Y-239349D01*
Y-239223D01*
X30472Y-239120D01*
Y-239040D01*
Y-238983D01*
Y-238971D01*
X30484Y-238685D01*
X30495Y-238421D01*
X30529Y-238158D01*
X30564Y-237906D01*
X30610Y-237677D01*
X30655Y-237459D01*
X30713Y-237253D01*
X30759Y-237069D01*
X30816Y-236898D01*
X30873Y-236749D01*
X30919Y-236611D01*
X30965Y-236508D01*
X30999Y-236416D01*
X31033Y-236359D01*
X31045Y-236313D01*
X31056Y-236302D01*
X31171Y-236096D01*
X31297Y-235901D01*
X31423Y-235718D01*
X31560Y-235546D01*
X31698Y-235385D01*
X31835Y-235237D01*
X31973Y-235099D01*
X32110Y-234985D01*
X32225Y-234881D01*
X32351Y-234790D01*
X32454Y-234710D01*
X32534Y-234641D01*
X32614Y-234595D01*
X32671Y-234561D01*
X32706Y-234538D01*
X32717Y-234526D01*
X32924Y-234412D01*
X33130Y-234320D01*
X33347Y-234228D01*
X33565Y-234160D01*
X33989Y-234045D01*
X34195Y-234011D01*
X34390Y-233976D01*
X34562Y-233954D01*
X34734Y-233931D01*
X34882Y-233919D01*
X35008Y-233908D01*
X35111Y-233896D01*
X35249D01*
X35512Y-233908D01*
D02*
G37*
G36*
X-52125Y-5972D02*
X-51891Y-6016D01*
X-51687Y-6059D01*
X-51512Y-6118D01*
X-51352Y-6191D01*
X-51250Y-6234D01*
X-51177Y-6278D01*
X-51148Y-6293D01*
X-50958Y-6424D01*
X-50769Y-6555D01*
X-50623Y-6701D01*
X-50492Y-6847D01*
X-50390Y-6963D01*
X-50317Y-7065D01*
X-50273Y-7124D01*
X-50258Y-7153D01*
X-50156Y-7357D01*
X-50069Y-7576D01*
X-50025Y-7765D01*
X-49981Y-7955D01*
X-49967Y-8115D01*
X-49952Y-8246D01*
Y-8334D01*
Y-8348D01*
Y-8363D01*
Y-10798D01*
X-49967Y-11031D01*
X-49996Y-11250D01*
X-50040Y-11454D01*
X-50098Y-11629D01*
X-50156Y-11789D01*
X-50215Y-11891D01*
X-50244Y-11964D01*
X-50258Y-11993D01*
X-50390Y-12183D01*
X-50535Y-12358D01*
X-50681Y-12518D01*
X-50827Y-12635D01*
X-50958Y-12737D01*
X-51060Y-12810D01*
X-51119Y-12853D01*
X-51148Y-12868D01*
X-51366Y-12970D01*
X-51571Y-13058D01*
X-51775Y-13116D01*
X-51964Y-13160D01*
X-52125Y-13174D01*
X-52241Y-13189D01*
X-52329Y-13203D01*
X-59516D01*
X-59531Y-13218D01*
X-59546Y-13233D01*
X-59560Y-13262D01*
Y-13276D01*
Y-13291D01*
Y-15478D01*
X-59546Y-15536D01*
X-59531Y-15565D01*
X-59516Y-15580D01*
X-52402D01*
X-52372Y-15565D01*
Y-15507D01*
Y-15492D01*
Y-15478D01*
Y-14574D01*
X-49938D01*
X-49952Y-15594D01*
X-49967Y-15842D01*
X-49996Y-16061D01*
X-50040Y-16280D01*
X-50098Y-16455D01*
X-50156Y-16615D01*
X-50215Y-16717D01*
X-50244Y-16790D01*
X-50258Y-16819D01*
X-50390Y-17009D01*
X-50535Y-17184D01*
X-50681Y-17329D01*
X-50827Y-17446D01*
X-50958Y-17548D01*
X-51060Y-17621D01*
X-51119Y-17665D01*
X-51148Y-17679D01*
X-51366Y-17781D01*
X-51571Y-17869D01*
X-51775Y-17927D01*
X-51964Y-17956D01*
X-52125Y-17986D01*
X-52241Y-18000D01*
X-59604D01*
X-59837Y-17986D01*
X-60071Y-17956D01*
X-60275Y-17898D01*
X-60450Y-17840D01*
X-60595Y-17781D01*
X-60712Y-17723D01*
X-60770Y-17694D01*
X-60799Y-17679D01*
X-60989Y-17548D01*
X-61164Y-17402D01*
X-61310Y-17271D01*
X-61426Y-17125D01*
X-61528Y-17009D01*
X-61601Y-16907D01*
X-61645Y-16848D01*
X-61660Y-16819D01*
X-61776Y-16600D01*
X-61849Y-16396D01*
X-61922Y-16192D01*
X-61966Y-16003D01*
X-61995Y-15842D01*
X-62010Y-15711D01*
Y-15624D01*
Y-15594D01*
Y-13174D01*
X-61995Y-12926D01*
X-61951Y-12708D01*
X-61893Y-12503D01*
X-61835Y-12329D01*
X-61762Y-12168D01*
X-61718Y-12066D01*
X-61674Y-11993D01*
X-61660Y-11964D01*
X-61528Y-11775D01*
X-61397Y-11600D01*
X-61251Y-11454D01*
X-61106Y-11323D01*
X-60989Y-11235D01*
X-60887Y-11162D01*
X-60829Y-11119D01*
X-60799Y-11104D01*
X-60595Y-11002D01*
X-60391Y-10914D01*
X-60187Y-10856D01*
X-59998Y-10812D01*
X-59837Y-10783D01*
X-59721Y-10769D01*
X-59633Y-10754D01*
X-52460D01*
X-52416Y-10769D01*
X-52402D01*
X-52372Y-10754D01*
Y-10710D01*
Y-10681D01*
Y-8480D01*
Y-8421D01*
Y-8407D01*
X-52402Y-8378D01*
X-59502D01*
X-59516Y-8392D01*
X-59531Y-8407D01*
X-59560Y-8450D01*
Y-8465D01*
Y-8480D01*
Y-9384D01*
X-61995D01*
X-62010Y-8363D01*
X-61995Y-8115D01*
X-61951Y-7896D01*
X-61893Y-7678D01*
X-61835Y-7503D01*
X-61762Y-7357D01*
X-61718Y-7240D01*
X-61674Y-7182D01*
X-61660Y-7153D01*
X-61528Y-6963D01*
X-61397Y-6788D01*
X-61251Y-6643D01*
X-61106Y-6526D01*
X-60989Y-6424D01*
X-60887Y-6351D01*
X-60829Y-6307D01*
X-60799Y-6293D01*
X-60595Y-6176D01*
X-60391Y-6103D01*
X-60187Y-6045D01*
X-59998Y-6001D01*
X-59837Y-5972D01*
X-59721Y-5957D01*
X-52358D01*
X-52125Y-5972D01*
D02*
G37*
G36*
X-6724Y-18000D02*
X-9129D01*
Y-9573D01*
X-13503Y-14763D01*
X-17848Y-9559D01*
Y-18000D01*
X-20283D01*
Y-5957D01*
X-17702D01*
X-13503Y-10987D01*
X-9275Y-5957D01*
X-6724D01*
Y-18000D01*
D02*
G37*
G36*
X-36087Y-15594D02*
X-36102Y-15842D01*
X-36131Y-16061D01*
X-36189Y-16280D01*
X-36247Y-16455D01*
X-36306Y-16615D01*
X-36364Y-16717D01*
X-36393Y-16790D01*
X-36408Y-16819D01*
X-36539Y-17009D01*
X-36685Y-17184D01*
X-36831Y-17329D01*
X-36976Y-17446D01*
X-37093Y-17548D01*
X-37195Y-17621D01*
X-37253Y-17665D01*
X-37283Y-17679D01*
X-37501Y-17781D01*
X-37705Y-17869D01*
X-37910Y-17927D01*
X-38099Y-17956D01*
X-38259Y-17986D01*
X-38391Y-18000D01*
X-45739D01*
X-45987Y-17986D01*
X-46205Y-17956D01*
X-46409Y-17898D01*
X-46584Y-17840D01*
X-46730Y-17781D01*
X-46847Y-17723D01*
X-46905Y-17694D01*
X-46934Y-17679D01*
X-47124Y-17548D01*
X-47299Y-17402D01*
X-47445Y-17271D01*
X-47576Y-17125D01*
X-47678Y-17009D01*
X-47751Y-16907D01*
X-47794Y-16848D01*
X-47809Y-16819D01*
X-47926Y-16600D01*
X-47999Y-16396D01*
X-48057Y-16192D01*
X-48101Y-16003D01*
X-48130Y-15842D01*
X-48144Y-15711D01*
Y-15624D01*
Y-15594D01*
Y-5957D01*
X-45724D01*
X-45695Y-15478D01*
X-45710Y-15522D01*
X-45695Y-15536D01*
X-45680Y-15565D01*
X-45651Y-15580D01*
X-38551D01*
X-38522Y-15565D01*
X-38507Y-15507D01*
Y-15492D01*
Y-15478D01*
Y-5957D01*
X-36087D01*
Y-15594D01*
D02*
G37*
G36*
X55210Y-18000D02*
X52819D01*
X52805Y-10783D01*
Y-10739D01*
Y-10725D01*
X52790Y-10710D01*
X52747Y-10681D01*
X49379D01*
X49320Y-10696D01*
X49306Y-10710D01*
X49291Y-10725D01*
X49276Y-10754D01*
Y-10769D01*
Y-10783D01*
Y-18000D01*
X46885D01*
Y-10783D01*
Y-10739D01*
X46871Y-10725D01*
X46856Y-10710D01*
X46798Y-10681D01*
X43459D01*
X43386Y-10696D01*
X43372Y-10710D01*
X43357Y-10725D01*
Y-10754D01*
Y-10769D01*
Y-10783D01*
X43343Y-18000D01*
X40981D01*
Y-10667D01*
X40995Y-10433D01*
X41024Y-10215D01*
X41083Y-10010D01*
X41141Y-9835D01*
X41199Y-9690D01*
X41258Y-9573D01*
X41287Y-9515D01*
X41301Y-9485D01*
X41418Y-9296D01*
X41564Y-9121D01*
X41710Y-8975D01*
X41841Y-8859D01*
X41958Y-8756D01*
X42060Y-8684D01*
X42118Y-8640D01*
X42147Y-8625D01*
X42351Y-8523D01*
X42570Y-8436D01*
X42759Y-8378D01*
X42949Y-8348D01*
X43109Y-8319D01*
X43241Y-8305D01*
X55210D01*
Y-18000D01*
D02*
G37*
G36*
X36753Y-8319D02*
X36971Y-8348D01*
X37176Y-8407D01*
X37350Y-8465D01*
X37496Y-8523D01*
X37598Y-8582D01*
X37671Y-8611D01*
X37700Y-8625D01*
X37890Y-8756D01*
X38050Y-8888D01*
X38196Y-9034D01*
X38327Y-9179D01*
X38429Y-9296D01*
X38502Y-9398D01*
X38546Y-9456D01*
X38561Y-9485D01*
X38663Y-9690D01*
X38750Y-9894D01*
X38808Y-10098D01*
X38837Y-10273D01*
X38867Y-10433D01*
X38881Y-10564D01*
Y-10637D01*
Y-10652D01*
Y-10667D01*
Y-15653D01*
X38867Y-15886D01*
X38837Y-16105D01*
X38779Y-16294D01*
X38721Y-16469D01*
X38663Y-16615D01*
X38604Y-16732D01*
X38575Y-16790D01*
X38561Y-16819D01*
X38429Y-17009D01*
X38284Y-17184D01*
X38138Y-17329D01*
X38006Y-17446D01*
X37890Y-17548D01*
X37788Y-17621D01*
X37729Y-17665D01*
X37700Y-17679D01*
X37496Y-17781D01*
X37292Y-17869D01*
X37088Y-17927D01*
X36913Y-17956D01*
X36753Y-17985D01*
X36621Y-18000D01*
X31402D01*
X31154Y-17985D01*
X30935Y-17956D01*
X30731Y-17898D01*
X30556Y-17840D01*
X30410Y-17781D01*
X30294Y-17723D01*
X30236Y-17694D01*
X30206Y-17679D01*
X30017Y-17548D01*
X29857Y-17402D01*
X29711Y-17271D01*
X29580Y-17125D01*
X29492Y-17009D01*
X29419Y-16906D01*
X29375Y-16848D01*
X29361Y-16819D01*
X29244Y-16615D01*
X29171Y-16411D01*
X29113Y-16207D01*
X29069Y-16032D01*
X29055Y-15886D01*
X29040Y-15755D01*
Y-15682D01*
Y-15653D01*
Y-10667D01*
X29055Y-10433D01*
X29084Y-10215D01*
X29142Y-10010D01*
X29186Y-9835D01*
X29244Y-9690D01*
X29302Y-9573D01*
X29332Y-9515D01*
X29346Y-9485D01*
X29463Y-9296D01*
X29609Y-9121D01*
X29754Y-8975D01*
X29886Y-8844D01*
X30002Y-8756D01*
X30104Y-8684D01*
X30163Y-8640D01*
X30192Y-8625D01*
X30396Y-8523D01*
X30615Y-8436D01*
X30804Y-8378D01*
X30994Y-8348D01*
X31154Y-8319D01*
X31285Y-8305D01*
X36519D01*
X36753Y-8319D01*
D02*
G37*
G36*
X20278Y-8305D02*
X25381D01*
X25628Y-8319D01*
X25847Y-8348D01*
X26051Y-8407D01*
X26241Y-8465D01*
X26387Y-8523D01*
X26489Y-8582D01*
X26562Y-8611D01*
X26591Y-8625D01*
X26780Y-8756D01*
X26941Y-8888D01*
X27086Y-9034D01*
X27203Y-9179D01*
X27305Y-9296D01*
X27378Y-9398D01*
X27422Y-9456D01*
X27436Y-9485D01*
X27538Y-9690D01*
X27626Y-9894D01*
X27684Y-10098D01*
X27713Y-10273D01*
X27743Y-10433D01*
X27757Y-10564D01*
Y-10637D01*
Y-10652D01*
Y-10667D01*
Y-15653D01*
X27743Y-15886D01*
X27713Y-16105D01*
X27655Y-16294D01*
X27597Y-16484D01*
X27538Y-16630D01*
X27480Y-16732D01*
X27451Y-16804D01*
X27436Y-16834D01*
X27305Y-17023D01*
X27174Y-17198D01*
X27028Y-17344D01*
X26897Y-17461D01*
X26780Y-17563D01*
X26678Y-17636D01*
X26620Y-17679D01*
X26591Y-17694D01*
X26387Y-17796D01*
X26168Y-17869D01*
X25964Y-17927D01*
X25789Y-17956D01*
X25614Y-17985D01*
X25497Y-18000D01*
X17901D01*
X17887Y-5126D01*
X20278D01*
Y-8305D01*
D02*
G37*
G36*
X9110D02*
X14213D01*
X14460Y-8319D01*
X14679Y-8348D01*
X14883Y-8407D01*
X15073Y-8465D01*
X15219Y-8523D01*
X15321Y-8582D01*
X15394Y-8611D01*
X15423Y-8625D01*
X15612Y-8756D01*
X15773Y-8888D01*
X15918Y-9034D01*
X16035Y-9179D01*
X16137Y-9296D01*
X16210Y-9398D01*
X16254Y-9456D01*
X16268Y-9485D01*
X16370Y-9690D01*
X16458Y-9894D01*
X16516Y-10098D01*
X16545Y-10273D01*
X16574Y-10433D01*
X16589Y-10564D01*
Y-10637D01*
Y-10652D01*
Y-10667D01*
Y-15653D01*
X16574Y-15886D01*
X16545Y-16105D01*
X16487Y-16294D01*
X16429Y-16484D01*
X16370Y-16630D01*
X16312Y-16732D01*
X16283Y-16804D01*
X16268Y-16834D01*
X16137Y-17023D01*
X16006Y-17198D01*
X15860Y-17344D01*
X15729Y-17461D01*
X15612Y-17563D01*
X15510Y-17636D01*
X15452Y-17679D01*
X15423Y-17694D01*
X15219Y-17796D01*
X15000Y-17869D01*
X14796Y-17927D01*
X14621Y-17956D01*
X14446Y-17985D01*
X14329Y-18000D01*
X6733D01*
X6719Y-5126D01*
X9110D01*
Y-8305D01*
D02*
G37*
G36*
X2826Y-8319D02*
X3045Y-8348D01*
X3249Y-8407D01*
X3424Y-8465D01*
X3570Y-8523D01*
X3672Y-8582D01*
X3744Y-8611D01*
X3774Y-8625D01*
X3963Y-8756D01*
X4123Y-8888D01*
X4269Y-9034D01*
X4401Y-9179D01*
X4503Y-9296D01*
X4575Y-9398D01*
X4619Y-9456D01*
X4634Y-9485D01*
X4736Y-9690D01*
X4823Y-9894D01*
X4882Y-10098D01*
X4911Y-10273D01*
X4940Y-10433D01*
X4954Y-10564D01*
Y-10637D01*
Y-10652D01*
Y-10667D01*
Y-15653D01*
X4940Y-15886D01*
X4911Y-16105D01*
X4852Y-16294D01*
X4794Y-16469D01*
X4736Y-16615D01*
X4678Y-16732D01*
X4648Y-16790D01*
X4634Y-16819D01*
X4503Y-17009D01*
X4357Y-17184D01*
X4211Y-17329D01*
X4080Y-17446D01*
X3963Y-17548D01*
X3861Y-17621D01*
X3803Y-17665D01*
X3774Y-17679D01*
X3570Y-17781D01*
X3365Y-17869D01*
X3161Y-17927D01*
X2986Y-17956D01*
X2826Y-17985D01*
X2695Y-18000D01*
X-2525D01*
X-2773Y-17985D01*
X-2991Y-17956D01*
X-3195Y-17898D01*
X-3370Y-17840D01*
X-3516Y-17781D01*
X-3633Y-17723D01*
X-3691Y-17694D01*
X-3720Y-17679D01*
X-3910Y-17548D01*
X-4070Y-17402D01*
X-4216Y-17271D01*
X-4347Y-17125D01*
X-4435Y-17009D01*
X-4508Y-16906D01*
X-4551Y-16848D01*
X-4566Y-16819D01*
X-4683Y-16615D01*
X-4755Y-16411D01*
X-4814Y-16207D01*
X-4857Y-16032D01*
X-4872Y-15886D01*
X-4887Y-15755D01*
Y-15682D01*
Y-15653D01*
Y-10667D01*
X-4872Y-10433D01*
X-4843Y-10215D01*
X-4785Y-10010D01*
X-4741Y-9835D01*
X-4683Y-9690D01*
X-4624Y-9573D01*
X-4595Y-9515D01*
X-4581Y-9485D01*
X-4464Y-9296D01*
X-4318Y-9121D01*
X-4172Y-8975D01*
X-4041Y-8844D01*
X-3924Y-8756D01*
X-3822Y-8684D01*
X-3764Y-8640D01*
X-3735Y-8625D01*
X-3531Y-8523D01*
X-3312Y-8436D01*
X-3122Y-8378D01*
X-2933Y-8348D01*
X-2773Y-8319D01*
X-2641Y-8305D01*
X2593D01*
X2826Y-8319D01*
D02*
G37*
G36*
X-24394Y-5972D02*
X-24176Y-6016D01*
X-23957Y-6059D01*
X-23782Y-6118D01*
X-23621Y-6191D01*
X-23519Y-6234D01*
X-23447Y-6278D01*
X-23417Y-6293D01*
X-23228Y-6424D01*
X-23053Y-6555D01*
X-22907Y-6701D01*
X-22776Y-6847D01*
X-22674Y-6963D01*
X-22601Y-7065D01*
X-22557Y-7124D01*
X-22543Y-7153D01*
X-22441Y-7357D01*
X-22353Y-7576D01*
X-22295Y-7765D01*
X-22266Y-7955D01*
X-22236Y-8115D01*
X-22222Y-8246D01*
Y-8334D01*
Y-8348D01*
Y-8363D01*
Y-15594D01*
X-22236Y-15842D01*
X-22266Y-16061D01*
X-22324Y-16280D01*
X-22382Y-16455D01*
X-22441Y-16615D01*
X-22499Y-16717D01*
X-22528Y-16790D01*
X-22543Y-16819D01*
X-22674Y-17009D01*
X-22820Y-17184D01*
X-22965Y-17329D01*
X-23111Y-17446D01*
X-23228Y-17548D01*
X-23330Y-17621D01*
X-23388Y-17665D01*
X-23417Y-17679D01*
X-23636Y-17781D01*
X-23840Y-17869D01*
X-24044Y-17927D01*
X-24234Y-17956D01*
X-24394Y-17986D01*
X-24525Y-18000D01*
X-31874D01*
X-32121Y-17986D01*
X-32340Y-17956D01*
X-32544Y-17898D01*
X-32719Y-17840D01*
X-32865Y-17781D01*
X-32982Y-17723D01*
X-33040Y-17694D01*
X-33069Y-17679D01*
X-33259Y-17548D01*
X-33433Y-17402D01*
X-33579Y-17271D01*
X-33710Y-17125D01*
X-33813Y-17009D01*
X-33886Y-16907D01*
X-33929Y-16848D01*
X-33944Y-16819D01*
X-34060Y-16600D01*
X-34133Y-16396D01*
X-34192Y-16192D01*
X-34235Y-16003D01*
X-34265Y-15842D01*
X-34279Y-15711D01*
Y-15624D01*
Y-15594D01*
Y-8363D01*
X-34265Y-8115D01*
X-34221Y-7896D01*
X-34177Y-7678D01*
X-34119Y-7503D01*
X-34046Y-7357D01*
X-34002Y-7240D01*
X-33958Y-7182D01*
X-33944Y-7153D01*
X-33813Y-6963D01*
X-33667Y-6788D01*
X-33521Y-6643D01*
X-33375Y-6526D01*
X-33259Y-6424D01*
X-33156Y-6351D01*
X-33098Y-6307D01*
X-33069Y-6293D01*
X-32865Y-6176D01*
X-32661Y-6103D01*
X-32457Y-6045D01*
X-32282Y-6001D01*
X-32107Y-5972D01*
X-31990Y-5957D01*
X-24642D01*
X-24394Y-5972D01*
D02*
G37*
G36*
X-63876Y-18000D02*
X-74985D01*
X-74971Y-15594D01*
X-66325Y-15580D01*
X-66311Y-13189D01*
X-73294Y-13203D01*
X-73280Y-10783D01*
X-66325Y-10754D01*
X-66311Y-8363D01*
X-74985Y-8378D01*
X-74971Y-5957D01*
X-63876D01*
Y-18000D01*
D02*
G37*
%LPC*%
G36*
X66041Y-250878D02*
X64139D01*
X63853Y-250890D01*
X63613Y-250924D01*
X63406Y-250970D01*
X63235Y-251016D01*
X63109Y-251073D01*
X63017Y-251119D01*
X62971Y-251153D01*
X62948Y-251164D01*
X62822Y-251290D01*
X62719Y-251428D01*
X62650Y-251588D01*
X62604Y-251737D01*
X62582Y-251875D01*
X62559Y-251989D01*
Y-252035D01*
Y-252069D01*
Y-252081D01*
Y-252092D01*
X62582Y-252333D01*
X62627Y-252539D01*
X62708Y-252711D01*
X62788Y-252848D01*
X62868Y-252952D01*
X62948Y-253020D01*
X62994Y-253066D01*
X63017Y-253078D01*
X63212Y-253169D01*
X63418Y-253238D01*
X63647Y-253295D01*
X63865Y-253330D01*
X64059Y-253353D01*
X64151D01*
X64220Y-253364D01*
X66041D01*
Y-250878D01*
D02*
G37*
G36*
X34344Y-251336D02*
X34287D01*
X34275Y-251451D01*
X34252Y-251565D01*
X34218Y-251680D01*
X34195Y-251794D01*
X34172Y-251898D01*
X34149Y-251978D01*
X34126Y-252035D01*
Y-252058D01*
X34023Y-252379D01*
X33977Y-252528D01*
X33932Y-252665D01*
X33897Y-252780D01*
X33863Y-252860D01*
X33851Y-252917D01*
X33840Y-252940D01*
X33015Y-255140D01*
X35558D01*
X34756Y-252940D01*
X34653Y-252642D01*
X34562Y-252356D01*
X34493Y-252081D01*
X34436Y-251840D01*
X34413Y-251726D01*
X34401Y-251634D01*
X34378Y-251542D01*
X34367Y-251474D01*
X34355Y-251416D01*
X34344Y-251371D01*
Y-251348D01*
Y-251336D01*
D02*
G37*
G36*
X-83286Y-205428D02*
X-87059D01*
X-87071Y-205439D01*
X-87082Y-205450D01*
X-87093Y-205461D01*
X-87104Y-205483D01*
Y-205494D01*
Y-205506D01*
Y-209124D01*
X-87093Y-209168D01*
X-87082Y-209180D01*
X-87071Y-209191D01*
X-83308D01*
X-83263Y-209180D01*
X-83252D01*
X-83230Y-209146D01*
Y-209124D01*
Y-205506D01*
Y-205472D01*
X-83241Y-205461D01*
X-83252Y-205450D01*
X-83286Y-205428D01*
D02*
G37*
G36*
X-91766D02*
X-95540D01*
X-95551Y-205439D01*
X-95562Y-205450D01*
X-95573Y-205461D01*
X-95584Y-205483D01*
Y-205494D01*
Y-205506D01*
Y-209124D01*
X-95573Y-209168D01*
X-95562Y-209180D01*
X-95551Y-209191D01*
X-91788D01*
X-91743Y-209180D01*
X-91732D01*
X-91710Y-209146D01*
Y-209124D01*
Y-205506D01*
Y-205472D01*
X-91721Y-205461D01*
X-91732Y-205450D01*
X-91766Y-205428D01*
D02*
G37*
G36*
X-100268D02*
X-104042D01*
X-104053Y-205439D01*
X-104064Y-205450D01*
X-104075Y-205461D01*
X-104087Y-205483D01*
Y-205494D01*
Y-205506D01*
Y-209124D01*
X-104075Y-209168D01*
X-104064Y-209180D01*
X-104053Y-209191D01*
X-100290D01*
X-100246Y-209180D01*
X-100235D01*
X-100213Y-209146D01*
Y-209124D01*
Y-205506D01*
Y-205472D01*
X-100224Y-205461D01*
X-100235Y-205450D01*
X-100268Y-205428D01*
D02*
G37*
G36*
X-109115D02*
X-112889D01*
X-112900Y-205439D01*
X-112911Y-205450D01*
X-112922Y-205461D01*
X-112933Y-205483D01*
Y-205494D01*
Y-205506D01*
Y-209124D01*
X-112922Y-209168D01*
X-112911Y-209180D01*
X-112900Y-209191D01*
X-109137D01*
X-109093Y-209180D01*
X-109081D01*
X-109059Y-209146D01*
Y-209124D01*
Y-205506D01*
Y-205472D01*
X-109070Y-205461D01*
X-109081Y-205450D01*
X-109115Y-205428D01*
D02*
G37*
G36*
X-126729D02*
X-130503D01*
X-130514Y-205439D01*
X-130525Y-205450D01*
X-130536Y-205461D01*
X-130547Y-205483D01*
Y-205494D01*
Y-205506D01*
Y-209124D01*
X-130536Y-209168D01*
X-130525Y-209180D01*
X-130514Y-209191D01*
X-126751D01*
X-126706Y-209180D01*
X-126695D01*
X-126673Y-209146D01*
Y-209124D01*
Y-205506D01*
Y-205472D01*
X-126684Y-205461D01*
X-126695Y-205450D01*
X-126729Y-205428D01*
D02*
G37*
G36*
X66041Y-223660D02*
X64094D01*
X63865Y-223671D01*
X63658Y-223694D01*
X63475Y-223729D01*
X63326Y-223774D01*
X63200Y-223820D01*
X63109Y-223855D01*
X63063Y-223877D01*
X63040Y-223889D01*
X62902Y-223992D01*
X62799Y-224118D01*
X62730Y-224267D01*
X62673Y-224416D01*
X62650Y-224553D01*
X62639Y-224668D01*
X62627Y-224714D01*
Y-224737D01*
Y-224760D01*
Y-224771D01*
X62639Y-224966D01*
X62685Y-225138D01*
X62742Y-225286D01*
X62811Y-225401D01*
X62879Y-225493D01*
X62937Y-225550D01*
X62983Y-225596D01*
X62994Y-225607D01*
X63143Y-225699D01*
X63315Y-225768D01*
X63487Y-225813D01*
X63658Y-225848D01*
X63819Y-225871D01*
X63945Y-225882D01*
X66041D01*
Y-223660D01*
D02*
G37*
G36*
Y-227543D02*
X63910D01*
X63750Y-227555D01*
X63590Y-227577D01*
X63452Y-227600D01*
X63326Y-227623D01*
X63212Y-227646D01*
X63109Y-227681D01*
X63017Y-227715D01*
X62937Y-227749D01*
X62868Y-227772D01*
X62765Y-227829D01*
X62708Y-227875D01*
X62685Y-227887D01*
X62547Y-228024D01*
X62444Y-228185D01*
X62375Y-228345D01*
X62318Y-228505D01*
X62295Y-228654D01*
X62284Y-228769D01*
X62272Y-228815D01*
Y-228849D01*
Y-228860D01*
Y-228872D01*
X62284Y-229055D01*
X62318Y-229216D01*
X62352Y-229365D01*
X62398Y-229479D01*
X62456Y-229571D01*
X62490Y-229628D01*
X62524Y-229674D01*
X62536Y-229685D01*
X62639Y-229777D01*
X62753Y-229857D01*
X62856Y-229914D01*
X62960Y-229960D01*
X63051Y-229995D01*
X63120Y-230018D01*
X63166Y-230040D01*
X63189D01*
X63487Y-230086D01*
X63624Y-230098D01*
X63762Y-230109D01*
X63876Y-230121D01*
X66041D01*
Y-227543D01*
D02*
G37*
G36*
X54895Y-224107D02*
X54838D01*
X54826Y-224221D01*
X54803Y-224336D01*
X54769Y-224450D01*
X54746Y-224565D01*
X54723Y-224668D01*
X54700Y-224748D01*
X54677Y-224805D01*
Y-224828D01*
X54574Y-225149D01*
X54528Y-225298D01*
X54483Y-225435D01*
X54448Y-225550D01*
X54414Y-225630D01*
X54402Y-225687D01*
X54391Y-225710D01*
X53566Y-227910D01*
X56109D01*
X55307Y-225710D01*
X55204Y-225413D01*
X55113Y-225126D01*
X55044Y-224851D01*
X54987Y-224611D01*
X54964Y-224496D01*
X54952Y-224404D01*
X54929Y-224313D01*
X54918Y-224244D01*
X54907Y-224187D01*
X54895Y-224141D01*
Y-224118D01*
Y-224107D01*
D02*
G37*
G36*
X6462Y-223660D02*
X5007D01*
X4709Y-223671D01*
X4457Y-223717D01*
X4251Y-223774D01*
X4079Y-223843D01*
X3941Y-223912D01*
X3850Y-223969D01*
X3792Y-224015D01*
X3770Y-224026D01*
X3632Y-224175D01*
X3541Y-224336D01*
X3472Y-224508D01*
X3414Y-224668D01*
X3392Y-224817D01*
X3380Y-224931D01*
X3369Y-224977D01*
Y-225012D01*
Y-225034D01*
Y-225046D01*
X3380Y-225286D01*
X3426Y-225493D01*
X3483Y-225676D01*
X3552Y-225825D01*
X3632Y-225939D01*
X3689Y-226020D01*
X3735Y-226077D01*
X3747Y-226088D01*
X3827Y-226146D01*
X3907Y-226203D01*
X4102Y-226294D01*
X4308Y-226352D01*
X4514Y-226398D01*
X4709Y-226420D01*
X4789Y-226432D01*
X4858D01*
X4927Y-226443D01*
X6462D01*
Y-223660D01*
D02*
G37*
G36*
X-3860Y-224107D02*
X-3917D01*
X-3929Y-224221D01*
X-3951Y-224336D01*
X-3986Y-224450D01*
X-4009Y-224565D01*
X-4032Y-224668D01*
X-4054Y-224748D01*
X-4077Y-224805D01*
Y-224828D01*
X-4180Y-225149D01*
X-4226Y-225298D01*
X-4272Y-225435D01*
X-4306Y-225550D01*
X-4341Y-225630D01*
X-4352Y-225687D01*
X-4364Y-225710D01*
X-5189Y-227910D01*
X-2646Y-227910D01*
X-3447Y-225710D01*
X-3550Y-225413D01*
X-3642Y-225126D01*
X-3711Y-224851D01*
X-3768Y-224611D01*
X-3791Y-224496D01*
X-3803Y-224404D01*
X-3825Y-224313D01*
X-3837Y-224244D01*
X-3848Y-224187D01*
X-3860Y-224141D01*
Y-224118D01*
Y-224107D01*
D02*
G37*
G36*
X-36714Y-223534D02*
X-36794D01*
X-37103Y-223557D01*
X-37390Y-223603D01*
X-37642Y-223671D01*
X-37859Y-223751D01*
X-38031Y-223832D01*
X-38100Y-223866D01*
X-38157Y-223900D01*
X-38214Y-223923D01*
X-38249Y-223946D01*
X-38260Y-223969D01*
X-38272D01*
X-38489Y-224141D01*
X-38684Y-224336D01*
X-38844Y-224530D01*
X-38970Y-224714D01*
X-39074Y-224886D01*
X-39154Y-225023D01*
X-39177Y-225080D01*
X-39200Y-225115D01*
X-39211Y-225138D01*
Y-225149D01*
X-39326Y-225435D01*
X-39406Y-225733D01*
X-39463Y-226020D01*
X-39497Y-226294D01*
X-39520Y-226409D01*
X-39532Y-226524D01*
Y-226615D01*
X-39543Y-226707D01*
Y-226776D01*
Y-226821D01*
Y-226856D01*
Y-226867D01*
X-39532Y-227234D01*
X-39497Y-227566D01*
X-39440Y-227864D01*
X-39406Y-228001D01*
X-39383Y-228127D01*
X-39349Y-228230D01*
X-39314Y-228334D01*
X-39291Y-228425D01*
X-39268Y-228494D01*
X-39246Y-228551D01*
X-39223Y-228597D01*
X-39211Y-228620D01*
Y-228631D01*
X-39074Y-228906D01*
X-38925Y-229147D01*
X-38776Y-229353D01*
X-38627Y-229525D01*
X-38489Y-229651D01*
X-38375Y-229754D01*
X-38329Y-229788D01*
X-38295Y-229811D01*
X-38283Y-229834D01*
X-38272D01*
X-38031Y-229972D01*
X-37779Y-230075D01*
X-37539Y-230155D01*
X-37310Y-230201D01*
X-37115Y-230235D01*
X-37035Y-230247D01*
X-36954D01*
X-36897Y-230258D01*
X-36817D01*
X-36508Y-230235D01*
X-36221Y-230189D01*
X-35969Y-230121D01*
X-35752Y-230040D01*
X-35568Y-229972D01*
X-35499Y-229937D01*
X-35442Y-229903D01*
X-35396Y-229869D01*
X-35362Y-229857D01*
X-35339Y-229834D01*
X-35328D01*
X-35110Y-229662D01*
X-34915Y-229468D01*
X-34755Y-229261D01*
X-34629Y-229078D01*
X-34526Y-228906D01*
X-34446Y-228769D01*
X-34423Y-228712D01*
X-34400Y-228677D01*
X-34388Y-228654D01*
Y-228643D01*
X-34285Y-228345D01*
X-34205Y-228047D01*
X-34148Y-227749D01*
X-34113Y-227474D01*
X-34090Y-227360D01*
Y-227245D01*
X-34079Y-227142D01*
X-34068Y-227051D01*
Y-226982D01*
Y-226936D01*
Y-226902D01*
Y-226890D01*
X-34079Y-226535D01*
X-34113Y-226214D01*
X-34171Y-225917D01*
X-34228Y-225665D01*
X-34262Y-225550D01*
X-34285Y-225447D01*
X-34320Y-225367D01*
X-34343Y-225298D01*
X-34354Y-225241D01*
X-34377Y-225195D01*
X-34388Y-225172D01*
Y-225161D01*
X-34526Y-224886D01*
X-34675Y-224645D01*
X-34835Y-224450D01*
X-34984Y-224278D01*
X-35122Y-224141D01*
X-35236Y-224049D01*
X-35282Y-224015D01*
X-35316Y-223992D01*
X-35328Y-223969D01*
X-35339D01*
X-35580Y-223820D01*
X-35832Y-223717D01*
X-36072Y-223637D01*
X-36301Y-223591D01*
X-36496Y-223557D01*
X-36576Y-223545D01*
X-36656D01*
X-36714Y-223534D01*
D02*
G37*
G36*
X46785Y-235706D02*
X44883D01*
X44597Y-235718D01*
X44356Y-235752D01*
X44150Y-235798D01*
X43978Y-235844D01*
X43852Y-235901D01*
X43760Y-235947D01*
X43714Y-235981D01*
X43692Y-235993D01*
X43566Y-236119D01*
X43463Y-236256D01*
X43394Y-236416D01*
X43348Y-236565D01*
X43325Y-236703D01*
X43302Y-236817D01*
Y-236863D01*
Y-236898D01*
Y-236909D01*
Y-236921D01*
X43325Y-237161D01*
X43371Y-237367D01*
X43451Y-237539D01*
X43531Y-237677D01*
X43611Y-237780D01*
X43692Y-237848D01*
X43738Y-237894D01*
X43760Y-237906D01*
X43955Y-237997D01*
X44161Y-238066D01*
X44390Y-238123D01*
X44608Y-238158D01*
X44803Y-238181D01*
X44894D01*
X44963Y-238192D01*
X46785D01*
Y-235706D01*
D02*
G37*
G36*
X35329Y-235592D02*
X35249D01*
X34940Y-235615D01*
X34653Y-235660D01*
X34401Y-235729D01*
X34184Y-235809D01*
X34012Y-235890D01*
X33943Y-235924D01*
X33886Y-235958D01*
X33828Y-235981D01*
X33794Y-236004D01*
X33783Y-236027D01*
X33771D01*
X33554Y-236199D01*
X33359Y-236394D01*
X33198Y-236588D01*
X33073Y-236772D01*
X32969Y-236943D01*
X32889Y-237081D01*
X32866Y-237138D01*
X32843Y-237173D01*
X32832Y-237195D01*
Y-237207D01*
X32717Y-237493D01*
X32637Y-237791D01*
X32580Y-238078D01*
X32545Y-238353D01*
X32523Y-238467D01*
X32511Y-238582D01*
Y-238673D01*
X32500Y-238765D01*
Y-238834D01*
Y-238879D01*
Y-238914D01*
Y-238925D01*
X32511Y-239292D01*
X32545Y-239624D01*
X32603Y-239922D01*
X32637Y-240059D01*
X32660Y-240185D01*
X32694Y-240288D01*
X32729Y-240392D01*
X32752Y-240483D01*
X32775Y-240552D01*
X32798Y-240609D01*
X32820Y-240655D01*
X32832Y-240678D01*
Y-240689D01*
X32969Y-240964D01*
X33118Y-241205D01*
X33267Y-241411D01*
X33416Y-241583D01*
X33554Y-241709D01*
X33668Y-241812D01*
X33714Y-241846D01*
X33748Y-241869D01*
X33760Y-241892D01*
X33771D01*
X34012Y-242030D01*
X34264Y-242133D01*
X34504Y-242213D01*
X34734Y-242259D01*
X34928Y-242293D01*
X35008Y-242305D01*
X35089D01*
X35146Y-242316D01*
X35226D01*
X35535Y-242293D01*
X35822Y-242247D01*
X36074Y-242179D01*
X36291Y-242098D01*
X36475Y-242030D01*
X36544Y-241995D01*
X36601Y-241961D01*
X36647Y-241927D01*
X36681Y-241915D01*
X36704Y-241892D01*
X36715D01*
X36933Y-241720D01*
X37128Y-241526D01*
X37288Y-241319D01*
X37414Y-241136D01*
X37517Y-240964D01*
X37597Y-240827D01*
X37620Y-240770D01*
X37643Y-240735D01*
X37655Y-240712D01*
Y-240701D01*
X37758Y-240403D01*
X37838Y-240105D01*
X37895Y-239807D01*
X37930Y-239532D01*
X37952Y-239418D01*
Y-239303D01*
X37964Y-239200D01*
X37975Y-239109D01*
Y-239040D01*
Y-238994D01*
Y-238960D01*
Y-238948D01*
X37964Y-238593D01*
X37930Y-238272D01*
X37872Y-237974D01*
X37815Y-237722D01*
X37781Y-237608D01*
X37758Y-237505D01*
X37723Y-237425D01*
X37701Y-237356D01*
X37689Y-237299D01*
X37666Y-237253D01*
X37655Y-237230D01*
Y-237218D01*
X37517Y-236943D01*
X37368Y-236703D01*
X37208Y-236508D01*
X37059Y-236336D01*
X36922Y-236199D01*
X36807Y-236107D01*
X36761Y-236073D01*
X36727Y-236050D01*
X36715Y-236027D01*
X36704D01*
X36463Y-235878D01*
X36211Y-235775D01*
X35971Y-235695D01*
X35742Y-235649D01*
X35547Y-235615D01*
X35467Y-235603D01*
X35387D01*
X35329Y-235592D01*
D02*
G37*
G36*
X36432Y-10681D02*
X31475D01*
X31460Y-10696D01*
X31446Y-10710D01*
X31431Y-10725D01*
X31416Y-10754D01*
Y-10769D01*
Y-10783D01*
Y-15536D01*
X31431Y-15594D01*
X31446Y-15609D01*
X31460Y-15624D01*
X36403D01*
X36461Y-15609D01*
X36476D01*
X36505Y-15565D01*
Y-15536D01*
Y-10783D01*
Y-10739D01*
X36490Y-10725D01*
X36476Y-10710D01*
X36432Y-10681D01*
D02*
G37*
G36*
X25293D02*
X20336D01*
X20321Y-10696D01*
X20307Y-10710D01*
X20292Y-10725D01*
X20278Y-10754D01*
Y-10769D01*
Y-10783D01*
Y-15536D01*
X20292Y-15594D01*
X20307Y-15609D01*
X20321Y-15624D01*
X25264D01*
X25322Y-15609D01*
X25337D01*
X25366Y-15565D01*
Y-15536D01*
Y-10783D01*
Y-10739D01*
X25351Y-10725D01*
X25337Y-10710D01*
X25293Y-10681D01*
D02*
G37*
G36*
X14125D02*
X9168D01*
X9154Y-10696D01*
X9139Y-10710D01*
X9124Y-10725D01*
X9110Y-10754D01*
Y-10769D01*
Y-10783D01*
Y-15536D01*
X9124Y-15594D01*
X9139Y-15609D01*
X9154Y-15624D01*
X14096D01*
X14154Y-15609D01*
X14169D01*
X14198Y-15565D01*
Y-15536D01*
Y-10783D01*
Y-10739D01*
X14183Y-10725D01*
X14169Y-10710D01*
X14125Y-10681D01*
D02*
G37*
G36*
X2505D02*
X-2452D01*
X-2466Y-10696D01*
X-2481Y-10710D01*
X-2496Y-10725D01*
X-2510Y-10754D01*
Y-10769D01*
Y-10783D01*
Y-15536D01*
X-2496Y-15594D01*
X-2481Y-15609D01*
X-2466Y-15624D01*
X2476D01*
X2534Y-15609D01*
X2549D01*
X2578Y-15565D01*
Y-15536D01*
Y-10783D01*
Y-10739D01*
X2564Y-10725D01*
X2549Y-10710D01*
X2505Y-10681D01*
D02*
G37*
G36*
X-24686Y-8378D02*
X-31772D01*
X-31801Y-8392D01*
X-31815Y-8407D01*
X-31830Y-8436D01*
X-31844Y-8450D01*
X-31830Y-8465D01*
Y-8480D01*
Y-15478D01*
X-31844Y-15522D01*
X-31830Y-15536D01*
X-31815Y-15565D01*
X-31786Y-15580D01*
X-24686D01*
X-24657Y-15565D01*
X-24642Y-15507D01*
Y-15492D01*
Y-15478D01*
Y-8480D01*
X-24657Y-8421D01*
Y-8407D01*
X-24686Y-8378D01*
D02*
G37*
%LPD*%
M02*
