G04*
G04 #@! TF.GenerationSoftware,Altium Limited,Altium Designer,26.2.0 (7)*
G04*
G04 Layer_Color=255*
%FSLAX44Y44*%
%MOMM*%
G71*
G04*
G04 #@! TF.SameCoordinates,155F057D-D3EE-4DC6-9B69-EB54361576BA*
G04*
G04*
G04 #@! TF.FilePolarity,Positive*
G04*
G01*
G75*
%ADD18C,2.5000*%
%ADD19C,2.2000*%
%ADD21R,0.8000X0.4000*%
%ADD22R,0.8000X0.3000*%
D18*
X360000Y39000D02*
D03*
Y124000D02*
D03*
Y209000D02*
D03*
X0Y39000D02*
D03*
Y124000D02*
D03*
Y209000D02*
D03*
D19*
X360000Y0D02*
D03*
Y78000D02*
D03*
Y170000D02*
D03*
Y248000D02*
D03*
X270000D02*
D03*
Y170000D02*
D03*
Y78000D02*
D03*
Y0D02*
D03*
X180000Y-0D02*
D03*
X90000Y0D02*
D03*
Y78000D02*
D03*
Y170000D02*
D03*
X180000Y248000D02*
D03*
X90000D02*
D03*
X0Y0D02*
D03*
Y78000D02*
D03*
Y170000D02*
D03*
Y248000D02*
D03*
D21*
X193000Y104000D02*
D03*
Y49000D02*
D03*
X193000Y199000D02*
D03*
Y144000D02*
D03*
D22*
X168000Y94000D02*
D03*
Y89000D02*
D03*
Y84000D02*
D03*
Y79000D02*
D03*
Y74000D02*
D03*
Y69000D02*
D03*
Y64000D02*
D03*
Y59000D02*
D03*
X168000Y154000D02*
D03*
Y189000D02*
D03*
Y169000D02*
D03*
Y164000D02*
D03*
Y159000D02*
D03*
Y179000D02*
D03*
Y174000D02*
D03*
Y184000D02*
D03*
M02*
