M48
;Layer_Color=9474304
;FILE_FORMAT=2:4
INCH,TZ
;TYPE=PLATED
T01F00S00C0.0118
T02F00S00C0.0433
T03F00S00C0.0807
%
T01
X866Y1299
X2657Y1299
X4439Y1329
X6201Y1299
X6614Y2008
X7972Y1299
X9744
X11516
X13287
Y4882
X11516
X9744
X7972
X6201
X6614Y5748
X4429Y4882
X2657
X906Y4882
X866Y8465
X2657Y8465
X4429
X6201
X7972
X9744
X11516
X13287
T02
X3543Y0
X7087Y-0
X10630Y0
X14173
X0
Y3071
Y6693
Y9764
X3543
Y6693
Y3071
X10630
X14173
Y6693
Y9764
X10630
Y6693
X7087Y9764
T03
X0Y1535
Y4882
Y8228
X14173Y8228
Y4882
Y1535
M30
