G04*
G04 #@! TF.GenerationSoftware,Altium Limited,Altium Designer,26.2.0 (7)*
G04*
G04 Layer_Color=8421504*
%FSLAX44Y44*%
%MOMM*%
G71*
G04*
G04 #@! TF.SameCoordinates,155F057D-D3EE-4DC6-9B69-EB54361576BA*
G04*
G04*
G04 #@! TF.FilePolarity,Positive*
G04*
G01*
G75*
%ADD13R,0.9000X1.2000*%
D13*
X337500Y252000D02*
D03*
Y178000D02*
D03*
Y161000D02*
D03*
Y87000D02*
D03*
Y70000D02*
D03*
Y-4000D02*
D03*
X247500Y252000D02*
D03*
Y178000D02*
D03*
Y161000D02*
D03*
Y87000D02*
D03*
Y70000D02*
D03*
Y-4000D02*
D03*
X157500Y252000D02*
D03*
Y178000D02*
D03*
X157500Y161000D02*
D03*
Y87000D02*
D03*
X157500Y70000D02*
D03*
Y-4000D02*
D03*
X67500Y252000D02*
D03*
Y178000D02*
D03*
Y161000D02*
D03*
Y87000D02*
D03*
Y70000D02*
D03*
Y-4000D02*
D03*
X112500Y70000D02*
D03*
Y-4000D02*
D03*
Y252000D02*
D03*
Y178000D02*
D03*
X112500Y161000D02*
D03*
Y87000D02*
D03*
X22500Y252000D02*
D03*
Y178000D02*
D03*
X292500Y252000D02*
D03*
Y178000D02*
D03*
X202500Y161000D02*
D03*
Y87000D02*
D03*
Y70000D02*
D03*
Y-4000D02*
D03*
X292500Y161000D02*
D03*
Y87000D02*
D03*
X22500Y161000D02*
D03*
Y87000D02*
D03*
X202500Y252000D02*
D03*
Y178000D02*
D03*
X292500Y70000D02*
D03*
Y-4000D02*
D03*
X22500Y70000D02*
D03*
Y-4000D02*
D03*
M02*
