G04*
G04 #@! TF.GenerationSoftware,Altium Limited,Altium Designer,26.2.0 (7)*
G04*
G04 Layer_Physical_Order=1*
G04 Layer_Color=255*
%FSLAX44Y44*%
%MOMM*%
G71*
G04*
G04 #@! TF.SameCoordinates,155F057D-D3EE-4DC6-9B69-EB54361576BA*
G04*
G04*
G04 #@! TF.FilePolarity,Positive*
G04*
G01*
G75*
%ADD13R,0.9000X1.2000*%
%ADD17C,0.4000*%
%ADD18C,2.5000*%
%ADD19C,2.2000*%
%ADD20C,0.6000*%
D13*
X337500Y252000D02*
D03*
Y178000D02*
D03*
Y161000D02*
D03*
Y87000D02*
D03*
Y70000D02*
D03*
Y-4000D02*
D03*
X247500Y252000D02*
D03*
Y178000D02*
D03*
Y161000D02*
D03*
Y87000D02*
D03*
Y70000D02*
D03*
Y-4000D02*
D03*
X157500Y252000D02*
D03*
Y178000D02*
D03*
X157500Y161000D02*
D03*
Y87000D02*
D03*
X157500Y70000D02*
D03*
Y-4000D02*
D03*
X67500Y252000D02*
D03*
Y178000D02*
D03*
Y161000D02*
D03*
Y87000D02*
D03*
Y70000D02*
D03*
Y-4000D02*
D03*
X112500Y70000D02*
D03*
Y-4000D02*
D03*
Y252000D02*
D03*
Y178000D02*
D03*
X112500Y161000D02*
D03*
Y87000D02*
D03*
X22500Y252000D02*
D03*
Y178000D02*
D03*
X292500Y252000D02*
D03*
Y178000D02*
D03*
X202500Y161000D02*
D03*
Y87000D02*
D03*
Y70000D02*
D03*
Y-4000D02*
D03*
X292500Y161000D02*
D03*
Y87000D02*
D03*
X22500Y161000D02*
D03*
Y87000D02*
D03*
X202500Y252000D02*
D03*
Y178000D02*
D03*
X292500Y70000D02*
D03*
Y-4000D02*
D03*
X22500Y70000D02*
D03*
Y-4000D02*
D03*
D17*
X157500D02*
Y70000D01*
X292500Y215000D02*
Y252000D01*
Y178000D02*
Y215000D01*
Y124000D02*
Y161000D01*
Y87000D02*
Y124000D01*
Y33000D02*
Y70000D01*
Y-4000D02*
Y33000D01*
X202500Y215000D02*
Y252000D01*
Y178000D02*
Y215000D01*
Y124000D02*
Y161000D01*
Y87000D02*
Y124000D01*
Y33000D02*
Y70000D01*
Y-4000D02*
Y33000D01*
X112500Y215000D02*
Y252000D01*
Y178000D02*
Y215000D01*
X112500Y124000D02*
Y161000D01*
Y87000D02*
Y124000D01*
X67500Y-4000D02*
Y70000D01*
Y87000D02*
Y161000D01*
Y178000D02*
Y252000D01*
X337500Y-4000D02*
Y70000D01*
X247500Y-4000D02*
Y70000D01*
X157500Y87000D02*
Y161000D01*
X247500Y87000D02*
Y161000D01*
X337500Y87000D02*
Y161000D01*
Y178000D02*
Y252000D01*
X247500Y178000D02*
Y252000D01*
X157500Y178000D02*
Y252000D01*
X112750Y-3750D02*
Y33750D01*
X112500Y70000D02*
X112625Y69875D01*
Y33875D02*
Y69875D01*
Y33875D02*
X112750Y33750D01*
X22000Y215000D02*
X22250Y214750D01*
X22000Y215000D02*
X22250Y215250D01*
Y178250D02*
Y214750D01*
Y178250D02*
X22500Y178000D01*
X22250Y215250D02*
Y251750D01*
X22500Y252000D01*
X22750Y124250D02*
Y160750D01*
X22500Y87000D02*
X22750Y87250D01*
Y123750D02*
X23000Y124000D01*
X22750Y124250D02*
X23000Y124000D01*
X22750Y87250D02*
Y123750D01*
X22500Y161000D02*
X22750Y160750D01*
X22250Y33250D02*
Y69750D01*
X22000Y33000D02*
X22250Y32750D01*
Y-3750D02*
Y32750D01*
Y69750D02*
X22500Y70000D01*
X22000Y33000D02*
X22250Y33250D01*
Y-3750D02*
X22500Y-4000D01*
D18*
X360000Y39000D02*
D03*
Y124000D02*
D03*
Y209000D02*
D03*
X0Y39000D02*
D03*
Y124000D02*
D03*
Y209000D02*
D03*
D19*
X360000Y0D02*
D03*
Y78000D02*
D03*
Y170000D02*
D03*
Y248000D02*
D03*
X270000D02*
D03*
Y170000D02*
D03*
Y78000D02*
D03*
Y0D02*
D03*
X180000Y-0D02*
D03*
X90000Y0D02*
D03*
Y78000D02*
D03*
Y170000D02*
D03*
X180000Y248000D02*
D03*
X90000D02*
D03*
X0Y0D02*
D03*
Y78000D02*
D03*
Y170000D02*
D03*
Y248000D02*
D03*
D20*
X157500Y33000D02*
D03*
X168000Y146000D02*
D03*
X67500Y33000D02*
D03*
Y124000D02*
D03*
Y215000D02*
D03*
X337500Y33000D02*
D03*
X247500D02*
D03*
X157500Y124000D02*
D03*
X247500D02*
D03*
X337500D02*
D03*
Y215000D02*
D03*
X247500D02*
D03*
X157500D02*
D03*
X112500Y124000D02*
D03*
X202500Y33000D02*
D03*
X292500D02*
D03*
X202500Y124000D02*
D03*
X292500D02*
D03*
Y215000D02*
D03*
X202500D02*
D03*
X112500D02*
D03*
X168000Y51000D02*
D03*
X112750Y33750D02*
D03*
X22000Y215000D02*
D03*
X23000Y124000D02*
D03*
X22000Y33000D02*
D03*
M02*
