G04*
G04 #@! TF.GenerationSoftware,Altium Limited,Altium Designer,26.2.0 (7)*
G04*
G04 Layer_Color=8388736*
%FSLAX44Y44*%
%MOMM*%
G71*
G04*
G04 #@! TF.SameCoordinates,155F057D-D3EE-4DC6-9B69-EB54361576BA*
G04*
G04*
G04 #@! TF.FilePolarity,Negative*
G04*
G01*
G75*
%ADD14R,1.0000X1.3000*%
%ADD15C,2.6000*%
%ADD16C,2.3000*%
D14*
X337500Y252000D02*
D03*
Y178000D02*
D03*
Y161000D02*
D03*
Y87000D02*
D03*
Y70000D02*
D03*
Y-4000D02*
D03*
X247500Y252000D02*
D03*
Y178000D02*
D03*
Y161000D02*
D03*
Y87000D02*
D03*
Y70000D02*
D03*
Y-4000D02*
D03*
X157500Y252000D02*
D03*
Y178000D02*
D03*
X157500Y161000D02*
D03*
Y87000D02*
D03*
X157500Y70000D02*
D03*
Y-4000D02*
D03*
X67500Y252000D02*
D03*
Y178000D02*
D03*
Y161000D02*
D03*
Y87000D02*
D03*
Y70000D02*
D03*
Y-4000D02*
D03*
X112500Y70000D02*
D03*
Y-4000D02*
D03*
Y252000D02*
D03*
Y178000D02*
D03*
X112500Y161000D02*
D03*
Y87000D02*
D03*
X22500Y252000D02*
D03*
Y178000D02*
D03*
X292500Y252000D02*
D03*
Y178000D02*
D03*
X202500Y161000D02*
D03*
Y87000D02*
D03*
Y70000D02*
D03*
Y-4000D02*
D03*
X292500Y161000D02*
D03*
Y87000D02*
D03*
X22500Y161000D02*
D03*
Y87000D02*
D03*
X202500Y252000D02*
D03*
Y178000D02*
D03*
X292500Y70000D02*
D03*
Y-4000D02*
D03*
X22500Y70000D02*
D03*
Y-4000D02*
D03*
D15*
X360000Y39000D02*
D03*
Y124000D02*
D03*
Y209000D02*
D03*
X0Y39000D02*
D03*
Y124000D02*
D03*
Y209000D02*
D03*
D16*
X360000Y0D02*
D03*
Y78000D02*
D03*
Y170000D02*
D03*
Y248000D02*
D03*
X270000D02*
D03*
Y170000D02*
D03*
Y78000D02*
D03*
Y0D02*
D03*
X180000Y-0D02*
D03*
X90000Y0D02*
D03*
Y78000D02*
D03*
Y170000D02*
D03*
X180000Y248000D02*
D03*
X90000D02*
D03*
X0Y0D02*
D03*
Y78000D02*
D03*
Y170000D02*
D03*
Y248000D02*
D03*
M02*
