G04*
G04 #@! TF.GenerationSoftware,Altium Limited,Altium Designer,26.2.0 (7)*
G04*
G04 Layer_Color=32896*
%FSLAX44Y44*%
%MOMM*%
G71*
G04*
G04 #@! TF.SameCoordinates,155F057D-D3EE-4DC6-9B69-EB54361576BA*
G04*
G04*
G04 #@! TF.FilePolarity,Positive*
G04*
G01*
G75*
%ADD12C,0.1500*%
%ADD25C,0.2000*%
%ADD26C,0.1270*%
G36*
X265475Y135225D02*
X265575D01*
Y135200D01*
X265650D01*
Y135175D01*
X265700D01*
Y135150D01*
X265750D01*
Y135125D01*
X265800D01*
Y135100D01*
X265850D01*
Y135075D01*
X265875D01*
Y135050D01*
X265900D01*
Y135025D01*
X265950D01*
Y135000D01*
X265975D01*
Y134975D01*
X266000D01*
Y134925D01*
X266025D01*
Y134900D01*
X266050D01*
Y134875D01*
X266075D01*
Y134850D01*
X266100D01*
Y134800D01*
X266125D01*
Y134750D01*
X266150D01*
Y134700D01*
X266175D01*
Y134625D01*
X266200D01*
Y134550D01*
X266225D01*
Y134375D01*
X266250D01*
Y124125D01*
X266225D01*
Y123950D01*
X266200D01*
Y123875D01*
X266175D01*
Y123800D01*
X266150D01*
Y123750D01*
X266125D01*
Y123700D01*
X266100D01*
Y123675D01*
X266075D01*
Y123625D01*
X266050D01*
Y123600D01*
X266025D01*
Y123575D01*
X266000D01*
Y123550D01*
X265975D01*
Y123525D01*
X265950D01*
Y123500D01*
X265925D01*
Y123475D01*
X265900D01*
Y123450D01*
X265875D01*
Y123425D01*
X265825D01*
Y123400D01*
X265800D01*
Y123375D01*
X265750D01*
Y123350D01*
X265700D01*
Y123325D01*
X265625D01*
Y123300D01*
X265550D01*
Y123275D01*
X265375D01*
Y123250D01*
X261500D01*
Y123275D01*
X261325D01*
Y123300D01*
X261225D01*
Y123325D01*
X261150D01*
Y123350D01*
X261100D01*
Y123375D01*
X261050D01*
Y123400D01*
X261000D01*
Y123425D01*
X260975D01*
Y123450D01*
X260950D01*
Y123475D01*
X260900D01*
Y123500D01*
X260875D01*
Y123525D01*
X260850D01*
Y123550D01*
X260825D01*
Y123575D01*
X260800D01*
Y123600D01*
X260775D01*
Y123650D01*
X260750D01*
Y123675D01*
X260725D01*
Y123725D01*
X260700D01*
Y123775D01*
X260675D01*
Y123825D01*
X260650D01*
Y123900D01*
X260625D01*
Y123975D01*
X260600D01*
Y127575D01*
X260575D01*
Y127725D01*
X260550D01*
Y127800D01*
X260525D01*
Y127875D01*
X260500D01*
Y127925D01*
X260475D01*
Y127975D01*
X260450D01*
Y128025D01*
X260425D01*
Y128050D01*
X260400D01*
Y128100D01*
X260375D01*
Y128125D01*
X260350D01*
Y128150D01*
X260300D01*
Y128175D01*
X260250D01*
Y128200D01*
X260125D01*
Y128175D01*
X260050D01*
Y128150D01*
X260025D01*
Y128125D01*
X260000D01*
Y128100D01*
X259975D01*
Y128075D01*
X259950D01*
Y128050D01*
X259925D01*
Y128025D01*
X259900D01*
Y128000D01*
X259875D01*
Y127975D01*
X259850D01*
Y127950D01*
X259825D01*
Y127925D01*
X259800D01*
Y127900D01*
X259775D01*
Y127875D01*
X259750D01*
Y127850D01*
X259725D01*
Y127825D01*
X259700D01*
Y127800D01*
X259675D01*
Y127775D01*
X259650D01*
Y127750D01*
X259625D01*
Y127725D01*
X259600D01*
Y127700D01*
X259575D01*
Y127650D01*
X259550D01*
Y127625D01*
X259525D01*
Y127600D01*
X259500D01*
Y127575D01*
X259475D01*
Y127550D01*
X259450D01*
Y127525D01*
X259425D01*
Y127500D01*
X259400D01*
Y127475D01*
X259375D01*
Y127450D01*
X259350D01*
Y127425D01*
X259325D01*
Y127400D01*
X259300D01*
Y127375D01*
X259275D01*
Y127350D01*
X259250D01*
Y127325D01*
X259225D01*
Y127300D01*
X259200D01*
Y127275D01*
X259175D01*
Y127250D01*
X259150D01*
Y127225D01*
X259125D01*
Y127200D01*
X259100D01*
Y127175D01*
X259075D01*
Y127150D01*
X259050D01*
Y127100D01*
X259025D01*
Y127075D01*
X259000D01*
Y127050D01*
X258975D01*
Y127025D01*
X258950D01*
Y127000D01*
X258925D01*
Y126975D01*
X258900D01*
Y126950D01*
X258875D01*
Y126925D01*
X258850D01*
Y126900D01*
X258825D01*
Y126875D01*
X258800D01*
Y126850D01*
X258775D01*
Y126825D01*
X258750D01*
Y126800D01*
X258725D01*
Y126775D01*
X258700D01*
Y126750D01*
X258675D01*
Y126725D01*
X258650D01*
Y126700D01*
X258625D01*
Y126675D01*
X258600D01*
Y126650D01*
X258575D01*
Y126600D01*
X258550D01*
Y126575D01*
X258525D01*
Y126550D01*
X258500D01*
Y126525D01*
X258475D01*
Y126500D01*
X258450D01*
Y126475D01*
X258425D01*
Y126450D01*
X258400D01*
Y126425D01*
X258375D01*
Y126400D01*
X258350D01*
Y126375D01*
X258325D01*
Y126350D01*
X258300D01*
Y126325D01*
X258275D01*
Y126300D01*
X258250D01*
Y126275D01*
X258225D01*
Y126250D01*
X258200D01*
Y126225D01*
X258175D01*
Y126200D01*
X258150D01*
Y126175D01*
X258125D01*
Y126150D01*
X258100D01*
Y126100D01*
X258075D01*
Y126075D01*
X258050D01*
Y126050D01*
X258025D01*
Y126025D01*
X258000D01*
Y126000D01*
X257975D01*
Y125975D01*
X257950D01*
Y125950D01*
X257925D01*
Y125925D01*
X257900D01*
Y125900D01*
X257875D01*
Y125875D01*
X257850D01*
Y125850D01*
X257825D01*
Y125825D01*
X257800D01*
Y125800D01*
X257775D01*
Y125775D01*
X257750D01*
Y125750D01*
X257725D01*
Y125725D01*
X257700D01*
Y125700D01*
X257675D01*
Y125675D01*
X257650D01*
Y125650D01*
X257625D01*
Y125600D01*
X257600D01*
Y125575D01*
X257575D01*
Y125550D01*
X257550D01*
Y125525D01*
X257525D01*
Y125500D01*
X257500D01*
Y125475D01*
X257475D01*
Y125450D01*
X257450D01*
Y125425D01*
X257425D01*
Y125400D01*
X257400D01*
Y125375D01*
X257375D01*
Y125350D01*
X257350D01*
Y125325D01*
X257325D01*
Y125300D01*
X257300D01*
Y125275D01*
X257275D01*
Y125250D01*
X257250D01*
Y125225D01*
X257225D01*
Y125200D01*
X257200D01*
Y125175D01*
X257175D01*
Y125150D01*
X257150D01*
Y125100D01*
X257125D01*
Y125075D01*
X257100D01*
Y125050D01*
X257075D01*
Y125025D01*
X257050D01*
Y125000D01*
X257025D01*
Y124975D01*
X257000D01*
Y124950D01*
X256975D01*
Y124925D01*
X256950D01*
Y124900D01*
X256925D01*
Y124875D01*
X256900D01*
Y124850D01*
X256875D01*
Y124825D01*
X256850D01*
Y124800D01*
X256825D01*
Y124775D01*
X256800D01*
Y124750D01*
X256775D01*
Y124725D01*
X256750D01*
Y124700D01*
X256725D01*
Y124675D01*
X256700D01*
Y124650D01*
X256675D01*
Y124600D01*
X256650D01*
Y124575D01*
X256625D01*
Y124550D01*
X256600D01*
Y124525D01*
X256575D01*
Y124500D01*
X256550D01*
Y124475D01*
X256525D01*
Y124450D01*
X256500D01*
Y124425D01*
X256475D01*
Y124400D01*
X256450D01*
Y124375D01*
X256425D01*
Y124350D01*
X256400D01*
Y124325D01*
X256375D01*
Y124300D01*
X256350D01*
Y124275D01*
X256325D01*
Y124250D01*
X256300D01*
Y124225D01*
X256275D01*
Y124200D01*
X256250D01*
Y124175D01*
X256225D01*
Y124150D01*
X256200D01*
Y124100D01*
X256175D01*
Y124075D01*
X256150D01*
Y124050D01*
X256125D01*
Y124025D01*
X256100D01*
Y124000D01*
X256075D01*
Y123975D01*
X256050D01*
Y123950D01*
X256025D01*
Y123925D01*
X256000D01*
Y123900D01*
X255975D01*
Y123875D01*
X255950D01*
Y123850D01*
X255925D01*
Y123825D01*
X255900D01*
Y123800D01*
X255875D01*
Y123775D01*
X255850D01*
Y123750D01*
X255825D01*
Y123725D01*
X255800D01*
Y123700D01*
X255775D01*
Y123675D01*
X255750D01*
Y123650D01*
X255725D01*
Y123600D01*
X255700D01*
Y123575D01*
X255675D01*
Y123550D01*
X255625D01*
Y123525D01*
X255600D01*
Y123500D01*
X255575D01*
Y123475D01*
X255550D01*
Y123450D01*
X255525D01*
Y123425D01*
X255475D01*
Y123400D01*
X255425D01*
Y123375D01*
X255375D01*
Y123350D01*
X255300D01*
Y123325D01*
X255175D01*
Y123300D01*
X254850D01*
Y123325D01*
X254750D01*
Y123350D01*
X254675D01*
Y123375D01*
X254625D01*
Y123400D01*
X254575D01*
Y123425D01*
X254525D01*
Y123450D01*
X254500D01*
Y123475D01*
X254475D01*
Y123500D01*
X254425D01*
Y123525D01*
X254400D01*
Y123550D01*
X254375D01*
Y123575D01*
X254350D01*
Y123600D01*
X254325D01*
Y123625D01*
X254300D01*
Y123650D01*
X254275D01*
Y123675D01*
X254250D01*
Y123725D01*
X254225D01*
Y123750D01*
X254200D01*
Y123775D01*
X254175D01*
Y123800D01*
X254150D01*
Y123825D01*
X254125D01*
Y123850D01*
X254100D01*
Y123875D01*
X254075D01*
Y123900D01*
X254050D01*
Y123925D01*
X254025D01*
Y123950D01*
X254000D01*
Y123975D01*
X253975D01*
Y124000D01*
X253950D01*
Y124025D01*
X253925D01*
Y124050D01*
X253900D01*
Y124075D01*
X253875D01*
Y124100D01*
X253850D01*
Y124125D01*
X253825D01*
Y124150D01*
X253800D01*
Y124175D01*
X253775D01*
Y124225D01*
X253750D01*
Y124250D01*
X253725D01*
Y124275D01*
X253700D01*
Y124300D01*
X253675D01*
Y124325D01*
X253650D01*
Y124350D01*
X253625D01*
Y124375D01*
X253600D01*
Y124400D01*
X253575D01*
Y124425D01*
X253550D01*
Y124450D01*
X253525D01*
Y124475D01*
X253500D01*
Y124500D01*
X253475D01*
Y124525D01*
X253450D01*
Y124550D01*
X253425D01*
Y124575D01*
X253400D01*
Y124600D01*
X253375D01*
Y124625D01*
X253350D01*
Y124650D01*
X253325D01*
Y124675D01*
X253300D01*
Y124725D01*
X253275D01*
Y124750D01*
X253250D01*
Y124775D01*
X253225D01*
Y124800D01*
X253200D01*
Y124825D01*
X253175D01*
Y124850D01*
X253150D01*
Y124875D01*
X253125D01*
Y124900D01*
X253100D01*
Y124925D01*
X253075D01*
Y124950D01*
X253050D01*
Y124975D01*
X253025D01*
Y125000D01*
X253000D01*
Y125025D01*
X252975D01*
Y125050D01*
X252950D01*
Y125075D01*
X252925D01*
Y125100D01*
X252900D01*
Y125125D01*
X252875D01*
Y125150D01*
X252850D01*
Y125175D01*
X252825D01*
Y125225D01*
X252800D01*
Y125250D01*
X252775D01*
Y125275D01*
X252750D01*
Y125300D01*
X252725D01*
Y125325D01*
X252700D01*
Y125350D01*
X252675D01*
Y125375D01*
X252650D01*
Y125400D01*
X252625D01*
Y125425D01*
X252600D01*
Y125450D01*
X252575D01*
Y125475D01*
X252550D01*
Y125500D01*
X252525D01*
Y125525D01*
X252500D01*
Y125550D01*
X252475D01*
Y125575D01*
X252450D01*
Y125600D01*
X252425D01*
Y125625D01*
X252400D01*
Y125650D01*
X252375D01*
Y125675D01*
X252350D01*
Y125725D01*
X252325D01*
Y125750D01*
X252300D01*
Y125775D01*
X252275D01*
Y125800D01*
X252250D01*
Y125825D01*
X252225D01*
Y125850D01*
X252200D01*
Y125875D01*
X252175D01*
Y125900D01*
X252150D01*
Y125925D01*
X252125D01*
Y125950D01*
X252100D01*
Y125975D01*
X252075D01*
Y126000D01*
X252050D01*
Y126025D01*
X252025D01*
Y126050D01*
X252000D01*
Y126075D01*
X251975D01*
Y126100D01*
X251950D01*
Y126125D01*
X251925D01*
Y126150D01*
X251900D01*
Y126175D01*
X251875D01*
Y126225D01*
X251850D01*
Y126250D01*
X251825D01*
Y126275D01*
X251800D01*
Y126300D01*
X251775D01*
Y126325D01*
X251750D01*
Y126350D01*
X251725D01*
Y126375D01*
X251700D01*
Y126400D01*
X251675D01*
Y126425D01*
X251650D01*
Y126450D01*
X251625D01*
Y126475D01*
X251600D01*
Y126500D01*
X251575D01*
Y126525D01*
X251550D01*
Y126550D01*
X251525D01*
Y126575D01*
X251500D01*
Y126600D01*
X251475D01*
Y126625D01*
X251450D01*
Y126650D01*
X251425D01*
Y126675D01*
X251400D01*
Y126700D01*
X251375D01*
Y126750D01*
X251350D01*
Y126775D01*
X251325D01*
Y126800D01*
X251300D01*
Y126825D01*
X251275D01*
Y126850D01*
X251250D01*
Y126875D01*
X251225D01*
Y126900D01*
X251200D01*
Y126925D01*
X251175D01*
Y126950D01*
X251150D01*
Y126975D01*
X251125D01*
Y127000D01*
X251100D01*
Y127025D01*
X251075D01*
Y127050D01*
X251050D01*
Y127075D01*
X251025D01*
Y127100D01*
X251000D01*
Y127125D01*
X250975D01*
Y127150D01*
X250950D01*
Y127175D01*
X250925D01*
Y127200D01*
X250900D01*
Y127225D01*
X250875D01*
Y127250D01*
X250850D01*
Y127300D01*
X250825D01*
Y127325D01*
X250800D01*
Y127350D01*
X250775D01*
Y127375D01*
X250750D01*
Y127400D01*
X250725D01*
Y127425D01*
X250700D01*
Y127450D01*
X250675D01*
Y127475D01*
X250650D01*
Y127500D01*
X250625D01*
Y127525D01*
X250600D01*
Y127550D01*
X250575D01*
Y127575D01*
X250550D01*
Y127600D01*
X250525D01*
Y127625D01*
X250500D01*
Y127650D01*
X250475D01*
Y127675D01*
X250450D01*
Y127700D01*
X250425D01*
Y127725D01*
X250400D01*
Y127775D01*
X250375D01*
Y127800D01*
X250350D01*
Y127825D01*
X250325D01*
Y127850D01*
X250300D01*
Y127875D01*
X250275D01*
Y127900D01*
X250250D01*
Y127925D01*
X250225D01*
Y127950D01*
X250200D01*
Y127975D01*
X250175D01*
Y128000D01*
X250150D01*
Y128025D01*
X250125D01*
Y128050D01*
X250100D01*
Y128075D01*
X250075D01*
Y128100D01*
X250050D01*
Y128125D01*
X250025D01*
Y128150D01*
X250000D01*
Y128175D01*
X249925D01*
Y128200D01*
X249775D01*
Y128175D01*
X249750D01*
Y128150D01*
X249700D01*
Y128125D01*
X249675D01*
Y128100D01*
X249650D01*
Y128075D01*
X249625D01*
Y128025D01*
X249600D01*
Y128000D01*
X249575D01*
Y127950D01*
X249550D01*
Y127900D01*
X249525D01*
Y127825D01*
X249500D01*
Y127750D01*
X249475D01*
Y127625D01*
X249450D01*
Y124000D01*
X249425D01*
Y123900D01*
X249400D01*
Y123825D01*
X249375D01*
Y123775D01*
X249350D01*
Y123725D01*
X249325D01*
Y123700D01*
X249300D01*
Y123650D01*
X249275D01*
Y123625D01*
X249250D01*
Y123600D01*
X249225D01*
Y123550D01*
X249200D01*
Y123525D01*
X249175D01*
Y123500D01*
X249125D01*
Y123475D01*
X249100D01*
Y123450D01*
X249075D01*
Y123425D01*
X249025D01*
Y123400D01*
X249000D01*
Y123375D01*
X248950D01*
Y123350D01*
X248900D01*
Y123325D01*
X248825D01*
Y123300D01*
X248725D01*
Y123275D01*
X248550D01*
Y123250D01*
X244675D01*
Y123275D01*
X244500D01*
Y123300D01*
X244425D01*
Y123325D01*
X244350D01*
Y123350D01*
X244300D01*
Y123375D01*
X244250D01*
Y123400D01*
X244200D01*
Y123425D01*
X244175D01*
Y123450D01*
X244150D01*
Y123475D01*
X244125D01*
Y123500D01*
X244100D01*
Y123525D01*
X244075D01*
Y123550D01*
X244050D01*
Y123575D01*
X244025D01*
Y123600D01*
X244000D01*
Y123625D01*
X243975D01*
Y123650D01*
X243950D01*
Y123700D01*
X243925D01*
Y123750D01*
X243900D01*
Y123800D01*
X243875D01*
Y123850D01*
X243850D01*
Y123950D01*
X243825D01*
Y124075D01*
X243800D01*
Y134425D01*
X243825D01*
Y134575D01*
X243850D01*
Y134650D01*
X243875D01*
Y134725D01*
X243900D01*
Y134775D01*
X243925D01*
Y134800D01*
X243950D01*
Y134850D01*
X243975D01*
Y134875D01*
X244000D01*
Y134925D01*
X244025D01*
Y134950D01*
X244050D01*
Y134975D01*
X244075D01*
Y135000D01*
X244100D01*
Y135025D01*
X244125D01*
Y135050D01*
X244175D01*
Y135075D01*
X244200D01*
Y135100D01*
X244250D01*
Y135125D01*
X244300D01*
Y135150D01*
X244350D01*
Y135175D01*
X244400D01*
Y135200D01*
X244475D01*
Y135225D01*
X244575D01*
Y135250D01*
X249275D01*
Y135225D01*
X249350D01*
Y135200D01*
X249425D01*
Y135175D01*
X249475D01*
Y135150D01*
X249525D01*
Y135125D01*
X249575D01*
Y135100D01*
X249600D01*
Y135075D01*
X249650D01*
Y135050D01*
X249675D01*
Y135025D01*
X249700D01*
Y135000D01*
X249725D01*
Y134975D01*
X249750D01*
Y134950D01*
X249775D01*
Y134925D01*
X249800D01*
Y134900D01*
X249825D01*
Y134875D01*
X249850D01*
Y134850D01*
X249875D01*
Y134825D01*
X249900D01*
Y134800D01*
X249925D01*
Y134775D01*
X249950D01*
Y134750D01*
X249975D01*
Y134725D01*
X250000D01*
Y134700D01*
X250025D01*
Y134675D01*
X250050D01*
Y134650D01*
X250075D01*
Y134625D01*
X250100D01*
Y134600D01*
X250125D01*
Y134575D01*
X250150D01*
Y134550D01*
X250175D01*
Y134500D01*
X250200D01*
Y134475D01*
X250225D01*
Y134450D01*
X250250D01*
Y134425D01*
X250275D01*
Y134400D01*
X250300D01*
Y134375D01*
X250325D01*
Y134350D01*
X250350D01*
Y134325D01*
X250375D01*
Y134300D01*
X250400D01*
Y134275D01*
X250425D01*
Y134250D01*
X250450D01*
Y134225D01*
X250475D01*
Y134200D01*
X250500D01*
Y134175D01*
X250525D01*
Y134150D01*
X250550D01*
Y134125D01*
X250575D01*
Y134100D01*
X250600D01*
Y134075D01*
X250625D01*
Y134025D01*
X250650D01*
Y134000D01*
X250675D01*
Y133975D01*
X250700D01*
Y133950D01*
X250725D01*
Y133925D01*
X250750D01*
Y133900D01*
X250775D01*
Y133875D01*
X250800D01*
Y133850D01*
X250825D01*
Y133825D01*
X250850D01*
Y133800D01*
X250875D01*
Y133775D01*
X250900D01*
Y133750D01*
X250925D01*
Y133725D01*
X250950D01*
Y133700D01*
X250975D01*
Y133675D01*
X251000D01*
Y133650D01*
X251025D01*
Y133625D01*
X251050D01*
Y133600D01*
X251075D01*
Y133575D01*
X251100D01*
Y133525D01*
X251125D01*
Y133500D01*
X251150D01*
Y133475D01*
X251175D01*
Y133450D01*
X251200D01*
Y133425D01*
X251225D01*
Y133400D01*
X251250D01*
Y133375D01*
X251275D01*
Y133350D01*
X251300D01*
Y133325D01*
X251325D01*
Y133300D01*
X251350D01*
Y133275D01*
X251375D01*
Y133250D01*
X251400D01*
Y133225D01*
X251425D01*
Y133200D01*
X251450D01*
Y133175D01*
X251475D01*
Y133150D01*
X251500D01*
Y133125D01*
X251525D01*
Y133100D01*
X251550D01*
Y133075D01*
X251575D01*
Y133050D01*
X251600D01*
Y133025D01*
X251625D01*
Y132975D01*
X251650D01*
Y132950D01*
X251675D01*
Y132925D01*
X251700D01*
Y132900D01*
X251725D01*
Y132875D01*
X251750D01*
Y132850D01*
X251775D01*
Y132825D01*
X251800D01*
Y132800D01*
X251825D01*
Y132775D01*
X251850D01*
Y132750D01*
X251875D01*
Y132725D01*
X251900D01*
Y132700D01*
X251925D01*
Y132675D01*
X251950D01*
Y132650D01*
X251975D01*
Y132625D01*
X252000D01*
Y132600D01*
X252025D01*
Y132575D01*
X252050D01*
Y132550D01*
X252075D01*
Y132525D01*
X252100D01*
Y132475D01*
X252125D01*
Y132450D01*
X252150D01*
Y132425D01*
X252175D01*
Y132400D01*
X252200D01*
Y132375D01*
X252225D01*
Y132350D01*
X252250D01*
Y132325D01*
X252275D01*
Y132300D01*
X252300D01*
Y132275D01*
X252325D01*
Y132250D01*
X252350D01*
Y132225D01*
X252375D01*
Y132200D01*
X252400D01*
Y132175D01*
X252425D01*
Y132150D01*
X252450D01*
Y132125D01*
X252475D01*
Y132100D01*
X252500D01*
Y132075D01*
X252525D01*
Y132050D01*
X252550D01*
Y132025D01*
X252575D01*
Y131975D01*
X252600D01*
Y131950D01*
X252625D01*
Y131925D01*
X252650D01*
Y131900D01*
X252675D01*
Y131875D01*
X252700D01*
Y131850D01*
X252725D01*
Y131825D01*
X252750D01*
Y131800D01*
X252775D01*
Y131775D01*
X252800D01*
Y131750D01*
X252825D01*
Y131725D01*
X252850D01*
Y131700D01*
X252875D01*
Y131675D01*
X252900D01*
Y131650D01*
X252925D01*
Y131625D01*
X252950D01*
Y131600D01*
X252975D01*
Y131575D01*
X253000D01*
Y131550D01*
X253025D01*
Y131525D01*
X253050D01*
Y131475D01*
X253075D01*
Y131450D01*
X253100D01*
Y131425D01*
X253125D01*
Y131400D01*
X253150D01*
Y131375D01*
X253175D01*
Y131350D01*
X253200D01*
Y131325D01*
X253225D01*
Y131300D01*
X253250D01*
Y131275D01*
X253275D01*
Y131250D01*
X253300D01*
Y131225D01*
X253325D01*
Y131200D01*
X253350D01*
Y131175D01*
X253375D01*
Y131150D01*
X253400D01*
Y131125D01*
X253425D01*
Y131100D01*
X253450D01*
Y131075D01*
X253475D01*
Y131050D01*
X253500D01*
Y131025D01*
X253525D01*
Y131000D01*
X253550D01*
Y130950D01*
X253575D01*
Y130925D01*
X253600D01*
Y130900D01*
X253625D01*
Y130875D01*
X253650D01*
Y130850D01*
X253675D01*
Y130825D01*
X253700D01*
Y130800D01*
X253725D01*
Y130775D01*
X253750D01*
Y130750D01*
X253775D01*
Y130725D01*
X253800D01*
Y130700D01*
X253825D01*
Y130675D01*
X253850D01*
Y130650D01*
X253875D01*
Y130625D01*
X253900D01*
Y130600D01*
X253925D01*
Y130575D01*
X253950D01*
Y130550D01*
X253975D01*
Y130525D01*
X254000D01*
Y130475D01*
X254025D01*
Y130450D01*
X254050D01*
Y130425D01*
X254075D01*
Y130400D01*
X254100D01*
Y130375D01*
X254125D01*
Y130350D01*
X254150D01*
Y130325D01*
X254175D01*
Y130300D01*
X254200D01*
Y130275D01*
X254225D01*
Y130250D01*
X254250D01*
Y130225D01*
X254275D01*
Y130200D01*
X254300D01*
Y130175D01*
X254325D01*
Y130150D01*
X254350D01*
Y130125D01*
X254375D01*
Y130100D01*
X254400D01*
Y130075D01*
X254425D01*
Y130050D01*
X254450D01*
Y130025D01*
X254475D01*
Y129975D01*
X254500D01*
Y129950D01*
X254525D01*
Y129925D01*
X254550D01*
Y129900D01*
X254575D01*
Y129875D01*
X254600D01*
Y129850D01*
X254625D01*
Y129825D01*
X254650D01*
Y129800D01*
X254675D01*
Y129775D01*
X254700D01*
Y129750D01*
X254725D01*
Y129725D01*
X254750D01*
Y129700D01*
X254775D01*
Y129675D01*
X254800D01*
Y129650D01*
X254825D01*
Y129625D01*
X254850D01*
Y129600D01*
X254875D01*
Y129575D01*
X254925D01*
Y129550D01*
X254975D01*
Y129525D01*
X255075D01*
Y129550D01*
X255125D01*
Y129575D01*
X255175D01*
Y129600D01*
X255200D01*
Y129625D01*
X255225D01*
Y129650D01*
X255250D01*
Y129675D01*
X255275D01*
Y129700D01*
X255300D01*
Y129725D01*
X255325D01*
Y129750D01*
X255350D01*
Y129775D01*
X255375D01*
Y129800D01*
X255400D01*
Y129825D01*
X255425D01*
Y129875D01*
X255450D01*
Y129900D01*
X255475D01*
Y129925D01*
X255500D01*
Y129950D01*
X255525D01*
Y129975D01*
X255550D01*
Y130000D01*
X255575D01*
Y130025D01*
X255600D01*
Y130050D01*
X255625D01*
Y130075D01*
X255650D01*
Y130100D01*
X255675D01*
Y130125D01*
X255700D01*
Y130150D01*
X255725D01*
Y130175D01*
X255750D01*
Y130200D01*
X255775D01*
Y130225D01*
X255800D01*
Y130250D01*
X255825D01*
Y130275D01*
X255850D01*
Y130300D01*
X255875D01*
Y130325D01*
X255900D01*
Y130350D01*
X255925D01*
Y130375D01*
X255950D01*
Y130425D01*
X255975D01*
Y130450D01*
X256000D01*
Y130475D01*
X256025D01*
Y130500D01*
X256050D01*
Y130525D01*
X256075D01*
Y130550D01*
X256100D01*
Y130575D01*
X256125D01*
Y130600D01*
X256150D01*
Y130625D01*
X256175D01*
Y130650D01*
X256200D01*
Y130675D01*
X256225D01*
Y130700D01*
X256250D01*
Y130725D01*
X256275D01*
Y130750D01*
X256300D01*
Y130775D01*
X256325D01*
Y130800D01*
X256350D01*
Y130825D01*
X256375D01*
Y130850D01*
X256400D01*
Y130875D01*
X256425D01*
Y130925D01*
X256450D01*
Y130950D01*
X256475D01*
Y130975D01*
X256500D01*
Y131000D01*
X256525D01*
Y131025D01*
X256550D01*
Y131050D01*
X256575D01*
Y131075D01*
X256600D01*
Y131100D01*
X256625D01*
Y131125D01*
X256650D01*
Y131150D01*
X256675D01*
Y131175D01*
X256700D01*
Y131200D01*
X256725D01*
Y131225D01*
X256750D01*
Y131250D01*
X256775D01*
Y131275D01*
X256800D01*
Y131300D01*
X256825D01*
Y131325D01*
X256850D01*
Y131350D01*
X256875D01*
Y131375D01*
X256900D01*
Y131425D01*
X256925D01*
Y131450D01*
X256950D01*
Y131475D01*
X256975D01*
Y131500D01*
X257000D01*
Y131525D01*
X257025D01*
Y131550D01*
X257050D01*
Y131575D01*
X257075D01*
Y131600D01*
X257100D01*
Y131625D01*
X257125D01*
Y131650D01*
X257150D01*
Y131675D01*
X257175D01*
Y131700D01*
X257200D01*
Y131725D01*
X257225D01*
Y131750D01*
X257250D01*
Y131775D01*
X257275D01*
Y131800D01*
X257300D01*
Y131825D01*
X257325D01*
Y131850D01*
X257350D01*
Y131875D01*
X257375D01*
Y131925D01*
X257400D01*
Y131950D01*
X257425D01*
Y131975D01*
X257450D01*
Y132000D01*
X257475D01*
Y132025D01*
X257500D01*
Y132050D01*
X257525D01*
Y132075D01*
X257550D01*
Y132100D01*
X257575D01*
Y132125D01*
X257600D01*
Y132150D01*
X257625D01*
Y132175D01*
X257650D01*
Y132200D01*
X257675D01*
Y132225D01*
X257700D01*
Y132250D01*
X257725D01*
Y132275D01*
X257750D01*
Y132300D01*
X257775D01*
Y132325D01*
X257800D01*
Y132350D01*
X257825D01*
Y132375D01*
X257850D01*
Y132425D01*
X257875D01*
Y132450D01*
X257900D01*
Y132475D01*
X257925D01*
Y132500D01*
X257950D01*
Y132525D01*
X257975D01*
Y132550D01*
X258000D01*
Y132575D01*
X258025D01*
Y132600D01*
X258050D01*
Y132625D01*
X258075D01*
Y132650D01*
X258100D01*
Y132675D01*
X258125D01*
Y132700D01*
X258150D01*
Y132725D01*
X258175D01*
Y132750D01*
X258200D01*
Y132775D01*
X258225D01*
Y132800D01*
X258250D01*
Y132825D01*
X258275D01*
Y132850D01*
X258300D01*
Y132875D01*
X258325D01*
Y132925D01*
X258350D01*
Y132950D01*
X258375D01*
Y132975D01*
X258400D01*
Y133000D01*
X258425D01*
Y133025D01*
X258450D01*
Y133050D01*
X258475D01*
Y133075D01*
X258500D01*
Y133100D01*
X258525D01*
Y133125D01*
X258550D01*
Y133150D01*
X258575D01*
Y133175D01*
X258600D01*
Y133200D01*
X258625D01*
Y133225D01*
X258650D01*
Y133250D01*
X258675D01*
Y133275D01*
X258700D01*
Y133300D01*
X258725D01*
Y133325D01*
X258750D01*
Y133350D01*
X258775D01*
Y133375D01*
X258800D01*
Y133425D01*
X258825D01*
Y133450D01*
X258850D01*
Y133475D01*
X258875D01*
Y133500D01*
X258900D01*
Y133525D01*
X258925D01*
Y133550D01*
X258950D01*
Y133575D01*
X258975D01*
Y133600D01*
X259000D01*
Y133625D01*
X259025D01*
Y133650D01*
X259050D01*
Y133675D01*
X259075D01*
Y133700D01*
X259100D01*
Y133725D01*
X259125D01*
Y133750D01*
X259150D01*
Y133775D01*
X259175D01*
Y133800D01*
X259200D01*
Y133825D01*
X259225D01*
Y133850D01*
X259250D01*
Y133875D01*
X259275D01*
Y133900D01*
X259300D01*
Y133925D01*
X259325D01*
Y133975D01*
X259350D01*
Y134000D01*
X259375D01*
Y134025D01*
X259400D01*
Y134050D01*
X259425D01*
Y134075D01*
X259450D01*
Y134100D01*
X259475D01*
Y134125D01*
X259500D01*
Y134150D01*
X259525D01*
Y134175D01*
X259550D01*
Y134200D01*
X259575D01*
Y134225D01*
X259600D01*
Y134250D01*
X259625D01*
Y134275D01*
X259650D01*
Y134300D01*
X259675D01*
Y134325D01*
X259700D01*
Y134350D01*
X259725D01*
Y134375D01*
X259750D01*
Y134400D01*
X259775D01*
Y134425D01*
X259800D01*
Y134475D01*
X259825D01*
Y134500D01*
X259850D01*
Y134525D01*
X259875D01*
Y134550D01*
X259900D01*
Y134575D01*
X259925D01*
Y134600D01*
X259950D01*
Y134625D01*
X259975D01*
Y134650D01*
X260000D01*
Y134675D01*
X260025D01*
Y134700D01*
X260050D01*
Y134725D01*
X260075D01*
Y134750D01*
X260100D01*
Y134775D01*
X260125D01*
Y134800D01*
X260150D01*
Y134825D01*
X260175D01*
Y134850D01*
X260200D01*
Y134875D01*
X260225D01*
Y134900D01*
X260250D01*
Y134950D01*
X260275D01*
Y134975D01*
X260300D01*
Y135000D01*
X260325D01*
Y135025D01*
X260375D01*
Y135050D01*
X260400D01*
Y135075D01*
X260425D01*
Y135100D01*
X260475D01*
Y135125D01*
X260525D01*
Y135150D01*
X260550D01*
Y135175D01*
X260625D01*
Y135200D01*
X260675D01*
Y135225D01*
X260775D01*
Y135250D01*
X265475D01*
Y135225D01*
D02*
G37*
G36*
X48523Y161059D02*
X49016D01*
Y160977D01*
X49344D01*
Y160895D01*
X49590D01*
Y160812D01*
X49836D01*
Y160730D01*
X50082D01*
Y160648D01*
X50246D01*
Y160566D01*
X50410D01*
Y160484D01*
X50574D01*
Y160402D01*
X50738D01*
Y160320D01*
X50902D01*
Y160238D01*
X50984D01*
Y160156D01*
X51148D01*
Y160074D01*
X51231D01*
Y159992D01*
X51395D01*
Y159910D01*
X51477D01*
Y159828D01*
X51559D01*
Y159746D01*
X51641D01*
Y159664D01*
X51805D01*
Y159582D01*
X51887D01*
Y159500D01*
X51969D01*
Y159418D01*
X52051D01*
Y159336D01*
X52133D01*
Y159254D01*
X52215D01*
Y159172D01*
X52297D01*
Y159008D01*
X52379D01*
Y158926D01*
X52461D01*
Y158844D01*
X52543D01*
Y158762D01*
X52625D01*
Y158598D01*
X52707D01*
Y158516D01*
X52789D01*
Y158352D01*
X52871D01*
Y158270D01*
X52953D01*
Y158188D01*
X53035D01*
Y158024D01*
X53117D01*
Y157859D01*
X53199D01*
Y157695D01*
X53281D01*
Y157531D01*
X53363D01*
Y157367D01*
X53445D01*
Y157285D01*
X53527D01*
Y157121D01*
X53609D01*
Y156957D01*
X53691D01*
Y156793D01*
X53773D01*
Y156629D01*
X53856D01*
Y156465D01*
X53938D01*
Y156301D01*
X54020D01*
Y156219D01*
X54102D01*
Y156055D01*
X54184D01*
Y155891D01*
X54266D01*
Y155727D01*
X54348D01*
Y155562D01*
X54430D01*
Y155399D01*
X54512D01*
Y155316D01*
X54594D01*
Y155152D01*
X54676D01*
Y154988D01*
X54758D01*
Y154824D01*
X54840D01*
Y154660D01*
X54922D01*
Y154496D01*
X55004D01*
Y154414D01*
X55086D01*
Y154250D01*
X55168D01*
Y154086D01*
X55250D01*
Y153922D01*
X55332D01*
Y153758D01*
X55414D01*
Y153594D01*
X55496D01*
Y153512D01*
X55578D01*
Y153348D01*
X55660D01*
Y153184D01*
X55742D01*
Y153020D01*
X55824D01*
Y152856D01*
X55906D01*
Y152691D01*
X55988D01*
Y152609D01*
X56070D01*
Y152445D01*
X56152D01*
Y152281D01*
X56234D01*
Y152117D01*
X56316D01*
Y151953D01*
X56398D01*
Y151789D01*
X56480D01*
Y151625D01*
X56562D01*
Y151543D01*
X56645D01*
Y151379D01*
X56727D01*
Y151215D01*
X56809D01*
Y151051D01*
X56891D01*
Y150887D01*
X56973D01*
Y150723D01*
X57055D01*
Y150641D01*
X57137D01*
Y150477D01*
X57219D01*
Y150312D01*
X57301D01*
Y150148D01*
X57383D01*
Y149984D01*
X57465D01*
Y149820D01*
X57547D01*
Y149738D01*
X57629D01*
Y149574D01*
X57711D01*
Y149410D01*
X57793D01*
Y149246D01*
X57875D01*
Y149082D01*
X57957D01*
Y148918D01*
X58039D01*
Y148836D01*
X58121D01*
Y148672D01*
X58203D01*
Y148508D01*
X58285D01*
Y148344D01*
X58367D01*
Y148180D01*
X58449D01*
Y148016D01*
X58531D01*
Y147934D01*
X58613D01*
Y147770D01*
X58695D01*
Y147605D01*
X58777D01*
Y147441D01*
X58859D01*
Y147277D01*
X58941D01*
Y147113D01*
X59023D01*
Y147031D01*
X59106D01*
Y146867D01*
X59187D01*
Y146703D01*
X59270D01*
Y146539D01*
X59352D01*
Y146375D01*
X59434D01*
Y146211D01*
X59516D01*
Y146047D01*
X59598D01*
Y145965D01*
X59680D01*
Y145801D01*
X59762D01*
Y145637D01*
X59844D01*
Y145473D01*
X59926D01*
Y145309D01*
X60008D01*
Y145145D01*
X60090D01*
Y145063D01*
X60172D01*
Y144899D01*
X60254D01*
Y144734D01*
X60336D01*
Y144570D01*
X60418D01*
Y144406D01*
X60500D01*
Y144242D01*
X60582D01*
Y144160D01*
X60664D01*
Y143996D01*
X60746D01*
Y143832D01*
X60828D01*
Y143668D01*
X60910D01*
Y143504D01*
X60992D01*
Y143340D01*
X61074D01*
Y143258D01*
X61156D01*
Y143094D01*
X61238D01*
Y142930D01*
X61320D01*
Y142766D01*
X61402D01*
Y142602D01*
X61484D01*
Y142437D01*
X61566D01*
Y142355D01*
X61648D01*
Y142191D01*
X61730D01*
Y142027D01*
X61813D01*
Y141863D01*
X61894D01*
Y141699D01*
X61977D01*
Y141535D01*
X62059D01*
Y141453D01*
X62141D01*
Y141289D01*
X62223D01*
Y141125D01*
X62305D01*
Y140961D01*
X62387D01*
Y140797D01*
X62469D01*
Y140633D01*
X62551D01*
Y140469D01*
X62633D01*
Y140387D01*
X62715D01*
Y140223D01*
X62797D01*
Y140059D01*
X62879D01*
Y139895D01*
X62961D01*
Y139731D01*
X63043D01*
Y139566D01*
X63125D01*
Y139484D01*
X63207D01*
Y139320D01*
X63289D01*
Y139156D01*
X63371D01*
Y138992D01*
X63453D01*
Y138828D01*
X63535D01*
Y138664D01*
X63617D01*
Y138582D01*
X63699D01*
Y138418D01*
X63781D01*
Y138254D01*
X63863D01*
Y138090D01*
X63945D01*
Y137926D01*
X64027D01*
Y137762D01*
X64109D01*
Y137680D01*
X64191D01*
Y137516D01*
X64274D01*
Y137352D01*
X64356D01*
Y137188D01*
X64437D01*
Y137023D01*
X64520D01*
Y136859D01*
X64602D01*
Y136777D01*
X64684D01*
Y136613D01*
X64766D01*
Y136449D01*
X64848D01*
Y136285D01*
X64930D01*
Y136121D01*
X65012D01*
Y135957D01*
X65094D01*
Y135793D01*
X65176D01*
Y135711D01*
X65258D01*
Y135547D01*
X65340D01*
Y135383D01*
X65422D01*
Y135219D01*
X65504D01*
Y135055D01*
X65586D01*
Y134891D01*
X65668D01*
Y134809D01*
X65750D01*
Y134645D01*
X65832D01*
Y134480D01*
X65914D01*
Y134316D01*
X65996D01*
Y134152D01*
X66078D01*
Y133988D01*
X66160D01*
Y133906D01*
X66242D01*
Y133742D01*
X66324D01*
Y133578D01*
X66406D01*
Y133414D01*
X66488D01*
Y133250D01*
X66570D01*
Y133086D01*
X66652D01*
Y133004D01*
X66734D01*
Y132840D01*
X66816D01*
Y132676D01*
X66898D01*
Y132512D01*
X66981D01*
Y132348D01*
X67063D01*
Y132184D01*
X67144D01*
Y132102D01*
X67227D01*
Y131938D01*
X67309D01*
Y131773D01*
X67391D01*
Y131609D01*
X67473D01*
Y131445D01*
X67555D01*
Y131281D01*
X67637D01*
Y131199D01*
X67719D01*
Y131035D01*
X67801D01*
Y130871D01*
X67883D01*
Y130707D01*
X67965D01*
Y130543D01*
X68047D01*
Y130379D01*
X68129D01*
Y130215D01*
X68211D01*
Y130051D01*
X68293D01*
Y129805D01*
X68375D01*
Y129559D01*
X68457D01*
Y129312D01*
X68539D01*
Y128902D01*
X68621D01*
Y128410D01*
X68703D01*
Y127180D01*
X68621D01*
Y126606D01*
X68539D01*
Y126195D01*
X68457D01*
Y125949D01*
X68375D01*
Y125703D01*
X68293D01*
Y125457D01*
X68211D01*
Y125293D01*
X68129D01*
Y125129D01*
X68047D01*
Y124965D01*
X67965D01*
Y124801D01*
X67883D01*
Y124637D01*
X67801D01*
Y124473D01*
X67719D01*
Y124391D01*
X67637D01*
Y124227D01*
X67555D01*
Y124145D01*
X67473D01*
Y123981D01*
X67391D01*
Y123898D01*
X67309D01*
Y123816D01*
X67227D01*
Y123734D01*
X67144D01*
Y123652D01*
X67063D01*
Y123488D01*
X66981D01*
Y123406D01*
X66898D01*
Y123324D01*
X66816D01*
Y123242D01*
X66652D01*
Y123160D01*
X66570D01*
Y123078D01*
X66488D01*
Y122996D01*
X66406D01*
Y122914D01*
X66324D01*
Y122832D01*
X66160D01*
Y122750D01*
X66078D01*
Y122668D01*
X65996D01*
Y122586D01*
X65832D01*
Y122504D01*
X65750D01*
Y122422D01*
X65586D01*
Y122340D01*
X65422D01*
Y122258D01*
X65258D01*
Y122176D01*
X65094D01*
Y122094D01*
X64930D01*
Y122012D01*
X64684D01*
Y121930D01*
X64437D01*
Y121848D01*
X64191D01*
Y121766D01*
X63781D01*
Y121684D01*
X63453D01*
Y121602D01*
X31953D01*
Y121684D01*
X31625D01*
Y121766D01*
X31215D01*
Y121848D01*
X30969D01*
Y121930D01*
X30723D01*
Y122012D01*
X30477D01*
Y122094D01*
X30312D01*
Y122176D01*
X30148D01*
Y122258D01*
X29984D01*
Y122340D01*
X29820D01*
Y122422D01*
X29656D01*
Y122504D01*
X29574D01*
Y122586D01*
X29410D01*
Y122668D01*
X29328D01*
Y122750D01*
X29246D01*
Y122832D01*
X29082D01*
Y122914D01*
X29000D01*
Y122996D01*
X28918D01*
Y123078D01*
X28836D01*
Y123160D01*
X28754D01*
Y123242D01*
X28590D01*
Y123324D01*
X28508D01*
Y123406D01*
X28426D01*
Y123488D01*
X28344D01*
Y123652D01*
X28262D01*
Y123734D01*
X28180D01*
Y123816D01*
X28098D01*
Y123898D01*
X28016D01*
Y123981D01*
X27934D01*
Y124145D01*
X27852D01*
Y124227D01*
X27769D01*
Y124391D01*
X27687D01*
Y124473D01*
X27606D01*
Y124637D01*
X27523D01*
Y124719D01*
X27441D01*
Y124965D01*
X27359D01*
Y125129D01*
X27277D01*
Y125293D01*
X27195D01*
Y125457D01*
X27113D01*
Y125703D01*
X27031D01*
Y125949D01*
X26949D01*
Y126195D01*
X26867D01*
Y126606D01*
X26785D01*
Y127180D01*
X26703D01*
Y128410D01*
X26785D01*
Y128902D01*
X26867D01*
Y129312D01*
X26949D01*
Y129559D01*
X27031D01*
Y129805D01*
X27113D01*
Y130051D01*
X27195D01*
Y130215D01*
X27277D01*
Y130379D01*
X27359D01*
Y130543D01*
X27441D01*
Y130707D01*
X27523D01*
Y130871D01*
X27606D01*
Y131035D01*
X27687D01*
Y131117D01*
X27769D01*
Y131281D01*
X27852D01*
Y131445D01*
X27934D01*
Y131609D01*
X28016D01*
Y131773D01*
X28098D01*
Y131938D01*
X28180D01*
Y132020D01*
X28262D01*
Y132184D01*
X28344D01*
Y132348D01*
X28426D01*
Y132512D01*
X28508D01*
Y132676D01*
X28590D01*
Y132840D01*
X28672D01*
Y133004D01*
X28754D01*
Y133086D01*
X28836D01*
Y133250D01*
X28918D01*
Y133414D01*
X29000D01*
Y133578D01*
X29082D01*
Y133742D01*
X29164D01*
Y133906D01*
X29246D01*
Y133988D01*
X29328D01*
Y134152D01*
X29410D01*
Y134316D01*
X29492D01*
Y134480D01*
X29574D01*
Y134645D01*
X29656D01*
Y134809D01*
X29738D01*
Y134891D01*
X29820D01*
Y135055D01*
X29902D01*
Y135219D01*
X29984D01*
Y135383D01*
X30066D01*
Y135547D01*
X30148D01*
Y135711D01*
X30231D01*
Y135793D01*
X30312D01*
Y135957D01*
X30394D01*
Y136121D01*
X30477D01*
Y136285D01*
X30559D01*
Y136449D01*
X30641D01*
Y136613D01*
X30723D01*
Y136695D01*
X30805D01*
Y136859D01*
X30887D01*
Y137023D01*
X30969D01*
Y137188D01*
X31051D01*
Y137352D01*
X31133D01*
Y137516D01*
X31215D01*
Y137680D01*
X31297D01*
Y137762D01*
X31379D01*
Y137926D01*
X31461D01*
Y138090D01*
X31543D01*
Y138254D01*
X31625D01*
Y138418D01*
X31707D01*
Y138582D01*
X31789D01*
Y138664D01*
X31871D01*
Y138828D01*
X31953D01*
Y138992D01*
X32035D01*
Y139156D01*
X32117D01*
Y139320D01*
X32199D01*
Y139484D01*
X32281D01*
Y139566D01*
X32363D01*
Y139731D01*
X32445D01*
Y139895D01*
X32527D01*
Y140059D01*
X32609D01*
Y140223D01*
X32691D01*
Y140387D01*
X32773D01*
Y140469D01*
X32856D01*
Y140633D01*
X32938D01*
Y140797D01*
X33019D01*
Y140961D01*
X33102D01*
Y141125D01*
X33184D01*
Y141289D01*
X33266D01*
Y141371D01*
X33348D01*
Y141535D01*
X33430D01*
Y141699D01*
X33512D01*
Y141863D01*
X33594D01*
Y142027D01*
X33676D01*
Y142191D01*
X33758D01*
Y142274D01*
X33840D01*
Y142437D01*
X33922D01*
Y142602D01*
X34004D01*
Y142766D01*
X34086D01*
Y142930D01*
X34168D01*
Y143094D01*
X34250D01*
Y143258D01*
X34332D01*
Y143340D01*
X34414D01*
Y143504D01*
X34496D01*
Y143668D01*
X34578D01*
Y143832D01*
X34660D01*
Y143996D01*
X34742D01*
Y144160D01*
X34824D01*
Y144242D01*
X34906D01*
Y144406D01*
X34988D01*
Y144570D01*
X35070D01*
Y144734D01*
X35152D01*
Y144899D01*
X35234D01*
Y145063D01*
X35316D01*
Y145145D01*
X35398D01*
Y145309D01*
X35480D01*
Y145473D01*
X35563D01*
Y145637D01*
X35645D01*
Y145801D01*
X35727D01*
Y145965D01*
X35809D01*
Y146047D01*
X35891D01*
Y146211D01*
X35973D01*
Y146375D01*
X36055D01*
Y146539D01*
X36137D01*
Y146703D01*
X36219D01*
Y146867D01*
X36301D01*
Y146949D01*
X36383D01*
Y147113D01*
X36465D01*
Y147277D01*
X36547D01*
Y147441D01*
X36629D01*
Y147605D01*
X36711D01*
Y147770D01*
X36793D01*
Y147934D01*
X36875D01*
Y148016D01*
X36957D01*
Y148180D01*
X37039D01*
Y148344D01*
X37121D01*
Y148508D01*
X37203D01*
Y148672D01*
X37285D01*
Y148836D01*
X37367D01*
Y148918D01*
X37449D01*
Y149082D01*
X37531D01*
Y149246D01*
X37613D01*
Y149410D01*
X37695D01*
Y149574D01*
X37777D01*
Y149738D01*
X37859D01*
Y149820D01*
X37941D01*
Y149984D01*
X38023D01*
Y150148D01*
X38105D01*
Y150312D01*
X38187D01*
Y150477D01*
X38270D01*
Y150641D01*
X38352D01*
Y150723D01*
X38434D01*
Y150887D01*
X38516D01*
Y151051D01*
X38598D01*
Y151215D01*
X38680D01*
Y151379D01*
X38762D01*
Y151543D01*
X38844D01*
Y151625D01*
X38926D01*
Y151789D01*
X39008D01*
Y151953D01*
X39090D01*
Y152117D01*
X39172D01*
Y152281D01*
X39254D01*
Y152445D01*
X39336D01*
Y152609D01*
X39418D01*
Y152691D01*
X39500D01*
Y152856D01*
X39582D01*
Y153020D01*
X39664D01*
Y153184D01*
X39746D01*
Y153348D01*
X39828D01*
Y153512D01*
X39910D01*
Y153594D01*
X39992D01*
Y153758D01*
X40074D01*
Y153922D01*
X40156D01*
Y154086D01*
X40238D01*
Y154250D01*
X40320D01*
Y154414D01*
X40402D01*
Y154496D01*
X40484D01*
Y154660D01*
X40566D01*
Y154824D01*
X40648D01*
Y154988D01*
X40731D01*
Y155152D01*
X40813D01*
Y155316D01*
X40894D01*
Y155399D01*
X40977D01*
Y155562D01*
X41059D01*
Y155727D01*
X41141D01*
Y155891D01*
X41223D01*
Y156055D01*
X41305D01*
Y156219D01*
X41387D01*
Y156301D01*
X41469D01*
Y156465D01*
X41551D01*
Y156629D01*
X41633D01*
Y156793D01*
X41715D01*
Y156957D01*
X41797D01*
Y157121D01*
X41879D01*
Y157285D01*
X41961D01*
Y157367D01*
X42043D01*
Y157531D01*
X42125D01*
Y157695D01*
X42207D01*
Y157859D01*
X42289D01*
Y158024D01*
X42371D01*
Y158188D01*
X42453D01*
Y158270D01*
X42535D01*
Y158352D01*
X42617D01*
Y158516D01*
X42699D01*
Y158598D01*
X42781D01*
Y158762D01*
X42863D01*
Y158844D01*
X42945D01*
Y158926D01*
X43027D01*
Y159008D01*
X43109D01*
Y159090D01*
X43191D01*
Y159254D01*
X43273D01*
Y159336D01*
X43355D01*
Y159418D01*
X43438D01*
Y159500D01*
X43520D01*
Y159582D01*
X43602D01*
Y159664D01*
X43766D01*
Y159746D01*
X43848D01*
Y159828D01*
X43930D01*
Y159910D01*
X44012D01*
Y159992D01*
X44176D01*
Y160074D01*
X44258D01*
Y160156D01*
X44422D01*
Y160238D01*
X44504D01*
Y160320D01*
X44668D01*
Y160402D01*
X44832D01*
Y160484D01*
X44996D01*
Y160566D01*
X45160D01*
Y160648D01*
X45324D01*
Y160730D01*
X45570D01*
Y160812D01*
X45816D01*
Y160895D01*
X46062D01*
Y160977D01*
X46391D01*
Y161059D01*
X46883D01*
Y161141D01*
X48523D01*
Y161059D01*
D02*
G37*
G36*
X265375Y121875D02*
X265550D01*
Y121850D01*
X265625D01*
Y121825D01*
X265700D01*
Y121800D01*
X265750D01*
Y121775D01*
X265800D01*
Y121750D01*
X265825D01*
Y121725D01*
X265875D01*
Y121700D01*
X265900D01*
Y121675D01*
X265925D01*
Y121650D01*
X265950D01*
Y121625D01*
X265975D01*
Y121600D01*
X266000D01*
Y121575D01*
X266025D01*
Y121550D01*
X266050D01*
Y121525D01*
X266075D01*
Y121475D01*
X266100D01*
Y121450D01*
X266125D01*
Y121400D01*
X266150D01*
Y121350D01*
X266175D01*
Y121275D01*
X266200D01*
Y121200D01*
X266225D01*
Y121025D01*
X266250D01*
Y113700D01*
X266225D01*
Y113550D01*
X266200D01*
Y113450D01*
X266175D01*
Y113400D01*
X266150D01*
Y113325D01*
X266125D01*
Y113300D01*
X266100D01*
Y113250D01*
X266075D01*
Y113225D01*
X266050D01*
Y113175D01*
X266025D01*
Y113150D01*
X266000D01*
Y113125D01*
X265975D01*
Y113100D01*
X265950D01*
Y113075D01*
X265925D01*
Y113050D01*
X265900D01*
Y113025D01*
X265850D01*
Y113000D01*
X265825D01*
Y112975D01*
X265775D01*
Y112950D01*
X265725D01*
Y112925D01*
X265675D01*
Y112900D01*
X265600D01*
Y112875D01*
X265525D01*
Y112850D01*
X264650D01*
Y112825D01*
X260200D01*
Y112850D01*
X257125D01*
Y112875D01*
X257025D01*
Y112900D01*
X256975D01*
Y112925D01*
X256925D01*
Y112950D01*
X256875D01*
Y112975D01*
X256825D01*
Y113000D01*
X256800D01*
Y113025D01*
X256750D01*
Y113050D01*
X256725D01*
Y113075D01*
X256700D01*
Y113100D01*
X256675D01*
Y113125D01*
X256650D01*
Y113150D01*
X256625D01*
Y113175D01*
X256600D01*
Y113200D01*
X256575D01*
Y113250D01*
X256550D01*
Y113275D01*
X256525D01*
Y113325D01*
X256500D01*
Y113375D01*
X256475D01*
Y113425D01*
X256450D01*
Y113525D01*
X256425D01*
Y113650D01*
X256400D01*
Y117525D01*
X256425D01*
Y117675D01*
X256450D01*
Y117775D01*
X256475D01*
Y117825D01*
X256500D01*
Y117875D01*
X256525D01*
Y117925D01*
X256550D01*
Y117975D01*
X256575D01*
Y118000D01*
X256600D01*
Y118025D01*
X256625D01*
Y118075D01*
X256650D01*
Y118100D01*
X256675D01*
Y118125D01*
X256700D01*
Y118150D01*
X256725D01*
Y118175D01*
X256750D01*
Y118200D01*
X256775D01*
Y118225D01*
X256825D01*
Y118250D01*
X256850D01*
Y118275D01*
X256875D01*
Y118300D01*
X256900D01*
Y118325D01*
X256925D01*
Y118350D01*
X256950D01*
Y118375D01*
X257000D01*
Y118400D01*
X257025D01*
Y118425D01*
X257050D01*
Y118450D01*
X257075D01*
Y118475D01*
X257100D01*
Y118500D01*
X257150D01*
Y118525D01*
X257175D01*
Y118550D01*
X257200D01*
Y118575D01*
X257225D01*
Y118600D01*
X257250D01*
Y118625D01*
X257300D01*
Y118650D01*
X257325D01*
Y118675D01*
X257350D01*
Y118700D01*
X257375D01*
Y118725D01*
X257400D01*
Y118750D01*
X257450D01*
Y118775D01*
X257475D01*
Y118800D01*
X257500D01*
Y118825D01*
X257525D01*
Y118850D01*
X257550D01*
Y118875D01*
X257600D01*
Y118900D01*
X257625D01*
Y118925D01*
X257650D01*
Y118950D01*
X257675D01*
Y118975D01*
X257700D01*
Y119000D01*
X257725D01*
Y119025D01*
X257775D01*
Y119050D01*
X257800D01*
Y119075D01*
X257825D01*
Y119100D01*
X257850D01*
Y119125D01*
X257875D01*
Y119150D01*
X257925D01*
Y119175D01*
X257950D01*
Y119200D01*
X257975D01*
Y119225D01*
X258000D01*
Y119250D01*
X258025D01*
Y119275D01*
X258075D01*
Y119300D01*
X258100D01*
Y119325D01*
X258125D01*
Y119350D01*
X258150D01*
Y119375D01*
X258175D01*
Y119400D01*
X258225D01*
Y119425D01*
X258250D01*
Y119450D01*
X258275D01*
Y119475D01*
X258300D01*
Y119500D01*
X258325D01*
Y119525D01*
X258375D01*
Y119550D01*
X258400D01*
Y119575D01*
X258425D01*
Y119600D01*
X258450D01*
Y119625D01*
X258475D01*
Y119650D01*
X258525D01*
Y119675D01*
X258550D01*
Y119700D01*
X258575D01*
Y119725D01*
X258600D01*
Y119750D01*
X258625D01*
Y119775D01*
X258675D01*
Y119800D01*
X258700D01*
Y119825D01*
X258725D01*
Y119850D01*
X258750D01*
Y119875D01*
X258775D01*
Y119900D01*
X258800D01*
Y119925D01*
X258850D01*
Y119950D01*
X258875D01*
Y119975D01*
X258900D01*
Y120000D01*
X258925D01*
Y120025D01*
X258950D01*
Y120050D01*
X259000D01*
Y120075D01*
X259025D01*
Y120100D01*
X259050D01*
Y120125D01*
X259075D01*
Y120150D01*
X259100D01*
Y120175D01*
X259150D01*
Y120200D01*
X259175D01*
Y120225D01*
X259200D01*
Y120250D01*
X259225D01*
Y120275D01*
X259250D01*
Y120300D01*
X259300D01*
Y120325D01*
X259325D01*
Y120350D01*
X259350D01*
Y120375D01*
X259375D01*
Y120400D01*
X259400D01*
Y120425D01*
X259450D01*
Y120450D01*
X259475D01*
Y120475D01*
X259500D01*
Y120500D01*
X259525D01*
Y120525D01*
X259550D01*
Y120550D01*
X259600D01*
Y120575D01*
X259625D01*
Y120600D01*
X259650D01*
Y120625D01*
X259675D01*
Y120650D01*
X259700D01*
Y120675D01*
X259750D01*
Y120700D01*
X259775D01*
Y120725D01*
X259800D01*
Y120750D01*
X259825D01*
Y120775D01*
X259850D01*
Y120800D01*
X259875D01*
Y120825D01*
X259925D01*
Y120850D01*
X259950D01*
Y120875D01*
X259975D01*
Y120900D01*
X260000D01*
Y120925D01*
X260025D01*
Y120950D01*
X260075D01*
Y120975D01*
X260100D01*
Y121000D01*
X260125D01*
Y121025D01*
X260150D01*
Y121050D01*
X260175D01*
Y121075D01*
X260225D01*
Y121100D01*
X260250D01*
Y121125D01*
X260275D01*
Y121150D01*
X260300D01*
Y121175D01*
X260325D01*
Y121200D01*
X260375D01*
Y121225D01*
X260400D01*
Y121250D01*
X260425D01*
Y121275D01*
X260450D01*
Y121300D01*
X260475D01*
Y121325D01*
X260525D01*
Y121350D01*
X260550D01*
Y121375D01*
X260575D01*
Y121400D01*
X260600D01*
Y121425D01*
X260625D01*
Y121450D01*
X260675D01*
Y121475D01*
X260700D01*
Y121500D01*
X260725D01*
Y121525D01*
X260750D01*
Y121550D01*
X260775D01*
Y121575D01*
X260825D01*
Y121600D01*
X260850D01*
Y121625D01*
X260875D01*
Y121650D01*
X260900D01*
Y121675D01*
X260950D01*
Y121700D01*
X260975D01*
Y121725D01*
X261000D01*
Y121750D01*
X261050D01*
Y121775D01*
X261100D01*
Y121800D01*
X261150D01*
Y121825D01*
X261225D01*
Y121850D01*
X261325D01*
Y121875D01*
X261500D01*
Y121900D01*
X265375D01*
Y121875D01*
D02*
G37*
G36*
X248550D02*
X248725D01*
Y121850D01*
X248825D01*
Y121825D01*
X248900D01*
Y121800D01*
X248950D01*
Y121775D01*
X249000D01*
Y121750D01*
X249050D01*
Y121725D01*
X249075D01*
Y121700D01*
X249125D01*
Y121675D01*
X249175D01*
Y121650D01*
X249200D01*
Y121625D01*
X249225D01*
Y121600D01*
X249275D01*
Y121575D01*
X249300D01*
Y121550D01*
X249325D01*
Y121525D01*
X249350D01*
Y121500D01*
X249400D01*
Y121475D01*
X249425D01*
Y121450D01*
X249450D01*
Y121425D01*
X249475D01*
Y121400D01*
X249500D01*
Y121375D01*
X249525D01*
Y121350D01*
X249575D01*
Y121325D01*
X249600D01*
Y121300D01*
X249625D01*
Y121275D01*
X249650D01*
Y121250D01*
X249675D01*
Y121225D01*
X249725D01*
Y121200D01*
X249750D01*
Y121175D01*
X249775D01*
Y121150D01*
X249800D01*
Y121125D01*
X249825D01*
Y121100D01*
X249875D01*
Y121075D01*
X249900D01*
Y121050D01*
X249925D01*
Y121025D01*
X249950D01*
Y121000D01*
X249975D01*
Y120975D01*
X250025D01*
Y120950D01*
X250050D01*
Y120925D01*
X250075D01*
Y120900D01*
X250100D01*
Y120875D01*
X250125D01*
Y120850D01*
X250175D01*
Y120825D01*
X250200D01*
Y120800D01*
X250225D01*
Y120775D01*
X250250D01*
Y120750D01*
X250275D01*
Y120725D01*
X250300D01*
Y120700D01*
X250350D01*
Y120675D01*
X250375D01*
Y120650D01*
X250400D01*
Y120625D01*
X250425D01*
Y120600D01*
X250475D01*
Y120575D01*
X250500D01*
Y120550D01*
X250525D01*
Y120525D01*
X250550D01*
Y120500D01*
X250575D01*
Y120475D01*
X250600D01*
Y120450D01*
X250650D01*
Y120425D01*
X250675D01*
Y120400D01*
X250700D01*
Y120375D01*
X250725D01*
Y120350D01*
X250750D01*
Y120325D01*
X250800D01*
Y120300D01*
X250825D01*
Y120275D01*
X250850D01*
Y120250D01*
X250875D01*
Y120225D01*
X250900D01*
Y120200D01*
X250950D01*
Y120175D01*
X250975D01*
Y120150D01*
X251000D01*
Y120125D01*
X251025D01*
Y120100D01*
X251050D01*
Y120075D01*
X251100D01*
Y120050D01*
X251125D01*
Y120025D01*
X251150D01*
Y120000D01*
X251175D01*
Y119975D01*
X251200D01*
Y119950D01*
X251250D01*
Y119925D01*
X251275D01*
Y119900D01*
X251300D01*
Y119875D01*
X251325D01*
Y119850D01*
X251350D01*
Y119825D01*
X251375D01*
Y119800D01*
X251425D01*
Y119775D01*
X251450D01*
Y119750D01*
X251475D01*
Y119725D01*
X251500D01*
Y119700D01*
X251525D01*
Y119675D01*
X251575D01*
Y119650D01*
X251600D01*
Y119625D01*
X251625D01*
Y119600D01*
X251650D01*
Y119575D01*
X251675D01*
Y119550D01*
X251725D01*
Y119525D01*
X251750D01*
Y119500D01*
X251775D01*
Y119475D01*
X251800D01*
Y119450D01*
X251825D01*
Y119425D01*
X251875D01*
Y119400D01*
X251900D01*
Y119375D01*
X251925D01*
Y119350D01*
X251950D01*
Y119325D01*
X251975D01*
Y119300D01*
X252025D01*
Y119275D01*
X252050D01*
Y119250D01*
X252075D01*
Y119225D01*
X252100D01*
Y119200D01*
X252125D01*
Y119175D01*
X252175D01*
Y119150D01*
X252200D01*
Y119125D01*
X252225D01*
Y119100D01*
X252250D01*
Y119075D01*
X252275D01*
Y119050D01*
X252325D01*
Y119025D01*
X252350D01*
Y119000D01*
X252375D01*
Y118975D01*
X252400D01*
Y118950D01*
X252425D01*
Y118925D01*
X252450D01*
Y118900D01*
X252500D01*
Y118875D01*
X252525D01*
Y118850D01*
X252550D01*
Y118825D01*
X252575D01*
Y118800D01*
X252625D01*
Y118775D01*
X252650D01*
Y118750D01*
X252675D01*
Y118725D01*
X252700D01*
Y118700D01*
X252725D01*
Y118675D01*
X252750D01*
Y118650D01*
X252800D01*
Y118625D01*
X252825D01*
Y118600D01*
X252850D01*
Y118575D01*
X252875D01*
Y118550D01*
X252900D01*
Y118525D01*
X252950D01*
Y118500D01*
X252975D01*
Y118475D01*
X253000D01*
Y118450D01*
X253025D01*
Y118425D01*
X253050D01*
Y118400D01*
X253100D01*
Y118375D01*
X253125D01*
Y118350D01*
X253150D01*
Y118325D01*
X253175D01*
Y118300D01*
X253200D01*
Y118275D01*
X253225D01*
Y118250D01*
X253250D01*
Y118225D01*
X253275D01*
Y118200D01*
X253300D01*
Y118175D01*
X253325D01*
Y118150D01*
X253350D01*
Y118125D01*
X253400D01*
Y118075D01*
X253425D01*
Y118050D01*
X253450D01*
Y118025D01*
X253475D01*
Y118000D01*
X253500D01*
Y117950D01*
X253525D01*
Y117925D01*
X253550D01*
Y117875D01*
X253575D01*
Y117800D01*
X253600D01*
Y117750D01*
X253625D01*
Y117650D01*
X253650D01*
Y113550D01*
X253625D01*
Y113450D01*
X253600D01*
Y113400D01*
X253575D01*
Y113350D01*
X253550D01*
Y113300D01*
X253525D01*
Y113250D01*
X253500D01*
Y113225D01*
X253475D01*
Y113175D01*
X253450D01*
Y113150D01*
X253425D01*
Y113125D01*
X253400D01*
Y113100D01*
X253375D01*
Y113075D01*
X253350D01*
Y113050D01*
X253325D01*
Y113025D01*
X253275D01*
Y113000D01*
X253250D01*
Y112975D01*
X253200D01*
Y112950D01*
X253150D01*
Y112925D01*
X253100D01*
Y112900D01*
X253025D01*
Y112875D01*
X252950D01*
Y112850D01*
X249850D01*
Y112825D01*
X245425D01*
Y112850D01*
X244525D01*
Y112875D01*
X244425D01*
Y112900D01*
X244375D01*
Y112925D01*
X244325D01*
Y112950D01*
X244275D01*
Y112975D01*
X244225D01*
Y113000D01*
X244200D01*
Y113025D01*
X244150D01*
Y113050D01*
X244125D01*
Y113075D01*
X244100D01*
Y113100D01*
X244075D01*
Y113125D01*
X244050D01*
Y113150D01*
X244025D01*
Y113175D01*
X244000D01*
Y113200D01*
X243975D01*
Y113250D01*
X243950D01*
Y113275D01*
X243925D01*
Y113300D01*
Y113325D01*
X243900D01*
Y113375D01*
X243875D01*
Y113425D01*
X243850D01*
Y113525D01*
X243825D01*
Y113650D01*
X243800D01*
Y121075D01*
X243825D01*
Y121225D01*
X243850D01*
Y121300D01*
X243875D01*
Y121350D01*
X243900D01*
Y121400D01*
X243925D01*
Y121450D01*
X243950D01*
Y121500D01*
X243975D01*
Y121525D01*
X244000D01*
Y121550D01*
X244025D01*
Y121575D01*
X244050D01*
Y121600D01*
X244075D01*
Y121625D01*
X244100D01*
Y121650D01*
X244125D01*
Y121675D01*
X244150D01*
Y121700D01*
X244175D01*
Y121725D01*
X244200D01*
Y121750D01*
X244250D01*
Y121775D01*
X244300D01*
Y121800D01*
X244350D01*
Y121825D01*
X244425D01*
Y121850D01*
X244500D01*
Y121875D01*
X244675D01*
Y121900D01*
X248550D01*
Y121875D01*
D02*
G37*
G36*
X317791Y183000D02*
X315500D01*
X311720Y193573D01*
X313988D01*
X316577Y185749D01*
X319258Y193573D01*
X321560D01*
X317791Y183000D01*
D02*
G37*
G36*
X341000D02*
X338869D01*
Y187410D01*
X338182D01*
X337964Y187387D01*
X337781Y187376D01*
X337632Y187353D01*
X337518Y187330D01*
X337437Y187307D01*
X337380Y187296D01*
X337369Y187284D01*
X337243Y187239D01*
X337128Y187170D01*
X337014Y187101D01*
X336922Y187021D01*
X336842Y186952D01*
X336773Y186906D01*
X336739Y186861D01*
X336727Y186849D01*
X336658Y186780D01*
X336590Y186689D01*
X336510Y186586D01*
X336418Y186471D01*
X336235Y186219D01*
X336040Y185956D01*
X335868Y185704D01*
X335788Y185600D01*
X335731Y185497D01*
X335673Y185417D01*
X335627Y185360D01*
X335605Y185314D01*
X335593Y185303D01*
X334047Y183000D01*
X331492D01*
X332786Y185051D01*
X332924Y185280D01*
X333061Y185474D01*
X333187Y185669D01*
X333302Y185841D01*
X333405Y186001D01*
X333508Y186139D01*
X333600Y186265D01*
X333680Y186379D01*
X333749Y186471D01*
X333817Y186551D01*
X333875Y186620D01*
X333921Y186677D01*
X333955Y186712D01*
X333978Y186746D01*
X334001Y186769D01*
X334173Y186941D01*
X334367Y187113D01*
X334562Y187261D01*
X334745Y187387D01*
X334906Y187502D01*
X335032Y187582D01*
X335078Y187617D01*
X335112Y187628D01*
X335135Y187651D01*
X335146D01*
X334894Y187697D01*
X334654Y187754D01*
X334436Y187823D01*
X334230Y187891D01*
X334035Y187972D01*
X333863Y188052D01*
X333714Y188132D01*
X333577Y188224D01*
X333451Y188304D01*
X333348Y188384D01*
X333256Y188453D01*
X333176Y188510D01*
X333119Y188567D01*
X333084Y188602D01*
X333061Y188625D01*
X333050Y188636D01*
X332924Y188785D01*
X332821Y188945D01*
X332729Y189106D01*
X332649Y189277D01*
X332580Y189438D01*
X332523Y189598D01*
X332443Y189919D01*
X332408Y190056D01*
X332385Y190194D01*
X332374Y190308D01*
X332363Y190412D01*
X332351Y190492D01*
Y190549D01*
Y190595D01*
Y190606D01*
X332374Y190950D01*
X332420Y191259D01*
X332500Y191546D01*
X332580Y191786D01*
X332626Y191889D01*
X332672Y191992D01*
X332706Y192073D01*
X332752Y192141D01*
X332775Y192199D01*
X332798Y192233D01*
X332821Y192256D01*
Y192267D01*
X333004Y192519D01*
X333210Y192737D01*
X333405Y192909D01*
X333600Y193058D01*
X333783Y193161D01*
X333852Y193195D01*
X333921Y193230D01*
X333978Y193253D01*
X334012Y193276D01*
X334035Y193287D01*
X334047D01*
X334196Y193333D01*
X334367Y193379D01*
X334562Y193424D01*
X334757Y193447D01*
X335158Y193505D01*
X335570Y193539D01*
X335753Y193550D01*
X335937Y193562D01*
X336097D01*
X336235Y193573D01*
X341000D01*
Y183000D01*
D02*
G37*
G36*
X330335D02*
X322293D01*
Y184787D01*
X328204D01*
Y187662D01*
X322901D01*
Y189449D01*
X328204D01*
Y191786D01*
X322500D01*
Y193573D01*
X330335D01*
Y183000D01*
D02*
G37*
G36*
X307607D02*
X305351D01*
X304469Y185406D01*
X300242D01*
X299314Y183000D01*
X296988D01*
X301227Y193573D01*
X303495D01*
X307607Y183000D01*
D02*
G37*
G36*
X264011Y39981D02*
X262202D01*
Y41801D01*
X264011D01*
Y39981D01*
D02*
G37*
G36*
Y32000D02*
X262202D01*
Y39381D01*
X264011D01*
Y32000D01*
D02*
G37*
G36*
X259516Y39370D02*
X259682Y39348D01*
X259838Y39304D01*
X259971Y39259D01*
X260082Y39215D01*
X260159Y39170D01*
X260215Y39148D01*
X260237Y39137D01*
X260382Y39037D01*
X260504Y38937D01*
X260615Y38826D01*
X260714Y38715D01*
X260792Y38627D01*
X260848Y38549D01*
X260881Y38505D01*
X260892Y38482D01*
X260970Y38327D01*
X261036Y38172D01*
X261081Y38016D01*
X261103Y37883D01*
X261125Y37761D01*
X261136Y37661D01*
Y37605D01*
Y37594D01*
Y37583D01*
Y33787D01*
X261125Y33609D01*
X261103Y33443D01*
X261059Y33299D01*
X261014Y33166D01*
X260970Y33054D01*
X260925Y32966D01*
X260903Y32921D01*
X260892Y32899D01*
X260792Y32755D01*
X260681Y32622D01*
X260570Y32511D01*
X260470Y32422D01*
X260382Y32344D01*
X260304Y32289D01*
X260259Y32255D01*
X260237Y32244D01*
X260082Y32167D01*
X259926Y32100D01*
X259771Y32055D01*
X259638Y32033D01*
X259516Y32011D01*
X259416Y32000D01*
X255442D01*
X255253Y32011D01*
X255087Y32033D01*
X254932Y32078D01*
X254798Y32122D01*
X254687Y32167D01*
X254599Y32211D01*
X254554Y32233D01*
X254532Y32244D01*
X254388Y32344D01*
X254265Y32455D01*
X254154Y32555D01*
X254055Y32666D01*
X253988Y32755D01*
X253932Y32833D01*
X253899Y32877D01*
X253888Y32899D01*
X253799Y33054D01*
X253744Y33210D01*
X253699Y33365D01*
X253666Y33498D01*
X253655Y33609D01*
X253644Y33709D01*
Y33765D01*
Y33787D01*
Y37583D01*
X253655Y37761D01*
X253677Y37927D01*
X253722Y38083D01*
X253755Y38216D01*
X253799Y38327D01*
X253844Y38416D01*
X253866Y38460D01*
X253877Y38482D01*
X253966Y38627D01*
X254077Y38760D01*
X254188Y38871D01*
X254288Y38971D01*
X254377Y39037D01*
X254454Y39093D01*
X254499Y39126D01*
X254521Y39137D01*
X254676Y39215D01*
X254843Y39281D01*
X254987Y39326D01*
X255131Y39348D01*
X255253Y39370D01*
X255353Y39381D01*
X259338D01*
X259516Y39370D01*
D02*
G37*
G36*
X317011Y32000D02*
X315191D01*
X315180Y37494D01*
Y37528D01*
Y37539D01*
X315169Y37550D01*
X315135Y37572D01*
X312571D01*
X312527Y37561D01*
X312516Y37550D01*
X312505Y37539D01*
X312493Y37517D01*
Y37506D01*
Y37494D01*
Y32000D01*
X310673D01*
Y37494D01*
Y37528D01*
X310662Y37539D01*
X310651Y37550D01*
X310606Y37572D01*
X308065D01*
X308009Y37561D01*
X307998Y37550D01*
X307987Y37539D01*
Y37517D01*
Y37506D01*
Y37494D01*
X307976Y32000D01*
X306178D01*
Y37583D01*
X306189Y37761D01*
X306211Y37927D01*
X306255Y38083D01*
X306300Y38216D01*
X306344Y38327D01*
X306389Y38416D01*
X306411Y38460D01*
X306422Y38482D01*
X306511Y38627D01*
X306622Y38760D01*
X306733Y38871D01*
X306833Y38960D01*
X306921Y39037D01*
X306999Y39093D01*
X307043Y39126D01*
X307066Y39137D01*
X307221Y39215D01*
X307388Y39281D01*
X307532Y39326D01*
X307676Y39348D01*
X307798Y39370D01*
X307898Y39381D01*
X317011D01*
Y32000D01*
D02*
G37*
G36*
X302959Y39370D02*
X303125Y39348D01*
X303281Y39304D01*
X303414Y39259D01*
X303525Y39215D01*
X303603Y39170D01*
X303658Y39148D01*
X303680Y39137D01*
X303825Y39037D01*
X303947Y38937D01*
X304058Y38826D01*
X304158Y38715D01*
X304235Y38627D01*
X304291Y38549D01*
X304324Y38505D01*
X304335Y38482D01*
X304413Y38327D01*
X304480Y38172D01*
X304524Y38016D01*
X304546Y37883D01*
X304568Y37761D01*
X304579Y37661D01*
Y37605D01*
Y37594D01*
Y37583D01*
Y33787D01*
X304568Y33609D01*
X304546Y33443D01*
X304502Y33299D01*
X304457Y33166D01*
X304413Y33054D01*
X304368Y32966D01*
X304346Y32921D01*
X304335Y32899D01*
X304235Y32755D01*
X304124Y32622D01*
X304013Y32511D01*
X303913Y32422D01*
X303825Y32344D01*
X303747Y32289D01*
X303703Y32255D01*
X303680Y32244D01*
X303525Y32167D01*
X303370Y32100D01*
X303214Y32055D01*
X303081Y32033D01*
X302959Y32011D01*
X302859Y32000D01*
X298885D01*
X298696Y32011D01*
X298530Y32033D01*
X298375Y32078D01*
X298241Y32122D01*
X298130Y32167D01*
X298042Y32211D01*
X297997Y32233D01*
X297975Y32244D01*
X297831Y32344D01*
X297709Y32455D01*
X297598Y32555D01*
X297498Y32666D01*
X297431Y32755D01*
X297376Y32833D01*
X297342Y32877D01*
X297331Y32899D01*
X297242Y33054D01*
X297187Y33210D01*
X297143Y33365D01*
X297109Y33498D01*
X297098Y33609D01*
X297087Y33709D01*
Y33765D01*
Y33787D01*
Y37583D01*
X297098Y37761D01*
X297120Y37927D01*
X297165Y38083D01*
X297198Y38216D01*
X297242Y38327D01*
X297287Y38416D01*
X297309Y38460D01*
X297320Y38482D01*
X297409Y38627D01*
X297520Y38760D01*
X297631Y38871D01*
X297731Y38971D01*
X297820Y39037D01*
X297897Y39093D01*
X297942Y39126D01*
X297964Y39137D01*
X298119Y39215D01*
X298286Y39281D01*
X298430Y39326D01*
X298574Y39348D01*
X298696Y39370D01*
X298796Y39381D01*
X302781D01*
X302959Y39370D01*
D02*
G37*
G36*
X290416Y39381D02*
X294301D01*
X294490Y39370D01*
X294656Y39348D01*
X294811Y39304D01*
X294956Y39259D01*
X295067Y39215D01*
X295145Y39170D01*
X295200Y39148D01*
X295222Y39137D01*
X295366Y39037D01*
X295489Y38937D01*
X295600Y38826D01*
X295688Y38715D01*
X295766Y38627D01*
X295822Y38549D01*
X295855Y38505D01*
X295866Y38482D01*
X295944Y38327D01*
X296010Y38172D01*
X296055Y38016D01*
X296077Y37883D01*
X296099Y37761D01*
X296110Y37661D01*
Y37605D01*
Y37594D01*
Y37583D01*
Y33787D01*
X296099Y33609D01*
X296077Y33443D01*
X296033Y33299D01*
X295988Y33154D01*
X295944Y33043D01*
X295899Y32966D01*
X295877Y32910D01*
X295866Y32888D01*
X295766Y32744D01*
X295666Y32610D01*
X295555Y32499D01*
X295455Y32411D01*
X295366Y32333D01*
X295289Y32278D01*
X295244Y32244D01*
X295222Y32233D01*
X295067Y32155D01*
X294900Y32100D01*
X294745Y32055D01*
X294612Y32033D01*
X294478Y32011D01*
X294390Y32000D01*
X288607D01*
X288596Y41801D01*
X290416D01*
Y39381D01*
D02*
G37*
G36*
X281914D02*
X285798D01*
X285987Y39370D01*
X286154Y39348D01*
X286309Y39304D01*
X286453Y39259D01*
X286564Y39215D01*
X286642Y39170D01*
X286698Y39148D01*
X286720Y39137D01*
X286864Y39037D01*
X286986Y38937D01*
X287097Y38826D01*
X287186Y38715D01*
X287264Y38627D01*
X287319Y38549D01*
X287353Y38505D01*
X287364Y38482D01*
X287441Y38327D01*
X287508Y38172D01*
X287552Y38016D01*
X287575Y37883D01*
X287597Y37761D01*
X287608Y37661D01*
Y37605D01*
Y37594D01*
Y37583D01*
Y33787D01*
X287597Y33609D01*
X287575Y33443D01*
X287530Y33299D01*
X287486Y33154D01*
X287441Y33043D01*
X287397Y32966D01*
X287375Y32910D01*
X287364Y32888D01*
X287264Y32744D01*
X287164Y32610D01*
X287053Y32499D01*
X286953Y32411D01*
X286864Y32333D01*
X286786Y32278D01*
X286742Y32244D01*
X286720Y32233D01*
X286564Y32155D01*
X286398Y32100D01*
X286243Y32055D01*
X286109Y32033D01*
X285976Y32011D01*
X285887Y32000D01*
X280104D01*
X280093Y41801D01*
X281914D01*
Y39381D01*
D02*
G37*
G36*
X277129Y39370D02*
X277296Y39348D01*
X277451Y39304D01*
X277585Y39259D01*
X277696Y39215D01*
X277773Y39170D01*
X277829Y39148D01*
X277851Y39137D01*
X277995Y39037D01*
X278117Y38937D01*
X278228Y38826D01*
X278328Y38715D01*
X278406Y38627D01*
X278461Y38549D01*
X278495Y38505D01*
X278506Y38482D01*
X278584Y38327D01*
X278650Y38172D01*
X278695Y38016D01*
X278717Y37883D01*
X278739Y37761D01*
X278750Y37661D01*
Y37605D01*
Y37594D01*
Y37583D01*
Y33787D01*
X278739Y33609D01*
X278717Y33443D01*
X278672Y33299D01*
X278628Y33166D01*
X278584Y33054D01*
X278539Y32966D01*
X278517Y32921D01*
X278506Y32899D01*
X278406Y32755D01*
X278295Y32622D01*
X278184Y32511D01*
X278084Y32422D01*
X277995Y32344D01*
X277918Y32289D01*
X277873Y32255D01*
X277851Y32244D01*
X277696Y32167D01*
X277540Y32100D01*
X277385Y32055D01*
X277252Y32033D01*
X277129Y32011D01*
X277030Y32000D01*
X273056D01*
X272867Y32011D01*
X272701Y32033D01*
X272545Y32078D01*
X272412Y32122D01*
X272301Y32167D01*
X272212Y32211D01*
X272168Y32233D01*
X272146Y32244D01*
X272001Y32344D01*
X271879Y32455D01*
X271768Y32555D01*
X271668Y32666D01*
X271602Y32755D01*
X271546Y32833D01*
X271513Y32877D01*
X271502Y32899D01*
X271413Y33054D01*
X271358Y33210D01*
X271313Y33365D01*
X271280Y33498D01*
X271269Y33609D01*
X271258Y33709D01*
Y33765D01*
Y33787D01*
Y37583D01*
X271269Y37761D01*
X271291Y37927D01*
X271335Y38083D01*
X271369Y38216D01*
X271413Y38327D01*
X271458Y38416D01*
X271480Y38460D01*
X271491Y38482D01*
X271580Y38627D01*
X271691Y38760D01*
X271802Y38871D01*
X271901Y38971D01*
X271990Y39037D01*
X272068Y39093D01*
X272112Y39126D01*
X272135Y39137D01*
X272290Y39215D01*
X272456Y39281D01*
X272601Y39326D01*
X272745Y39348D01*
X272867Y39370D01*
X272967Y39381D01*
X276952D01*
X277129Y39370D01*
D02*
G37*
G36*
X281798Y223658D02*
X285464Y218159D01*
X282910D01*
X280550Y221744D01*
X278202Y218159D01*
X275636D01*
X279278Y223669D01*
X275956Y228732D01*
X278431D01*
X280538Y225559D01*
X282623Y228732D01*
X285121D01*
X281798Y223658D01*
D02*
G37*
G36*
X308982Y218159D02*
X306852D01*
Y221344D01*
X305133Y223119D01*
X302212Y218159D01*
X299451D01*
X303655Y224620D01*
X299657Y228732D01*
X302533D01*
X306852Y224036D01*
Y228732D01*
X308982D01*
Y218159D01*
D02*
G37*
G36*
X206880Y223795D02*
X204853D01*
Y225823D01*
X206880D01*
Y223795D01*
D02*
G37*
G36*
X253996Y218159D02*
X252026D01*
Y225101D01*
X247742Y218159D01*
X245611D01*
Y228732D01*
X247581D01*
Y221630D01*
X251934Y228732D01*
X253996D01*
Y218159D01*
D02*
G37*
G36*
X217889D02*
X215919D01*
Y225101D01*
X211634Y218159D01*
X209503D01*
Y228732D01*
X211474D01*
Y221630D01*
X215827Y228732D01*
X217889D01*
Y218159D01*
D02*
G37*
G36*
X315512Y228893D02*
X315901Y228847D01*
X316268Y228767D01*
X316611Y228675D01*
X316932Y228561D01*
X317219Y228446D01*
X317493Y228309D01*
X317734Y228171D01*
X317952Y228034D01*
X318146Y227908D01*
X318307Y227782D01*
X318444Y227667D01*
X318559Y227575D01*
X318628Y227507D01*
X318685Y227449D01*
X318696Y227438D01*
X318937Y227152D01*
X319143Y226842D01*
X319326Y226521D01*
X319475Y226189D01*
X319613Y225846D01*
X319716Y225502D01*
X319807Y225170D01*
X319876Y224837D01*
X319933Y224540D01*
X319979Y224253D01*
X320002Y223990D01*
X320025Y223772D01*
X320037Y223589D01*
X320048Y223520D01*
Y223451D01*
Y223406D01*
Y223371D01*
Y223348D01*
Y223337D01*
X320037Y222879D01*
X319991Y222455D01*
X319922Y222054D01*
X319842Y221676D01*
X319739Y221321D01*
X319624Y221000D01*
X319498Y220702D01*
X319372Y220439D01*
X319246Y220198D01*
X319120Y219992D01*
X319006Y219820D01*
X318902Y219671D01*
X318822Y219557D01*
X318754Y219476D01*
X318708Y219419D01*
X318696Y219408D01*
X318433Y219156D01*
X318158Y218938D01*
X317872Y218743D01*
X317585Y218583D01*
X317299Y218445D01*
X317012Y218331D01*
X316726Y218228D01*
X316462Y218159D01*
X316210Y218090D01*
X315970Y218056D01*
X315764Y218022D01*
X315592Y217999D01*
X315443Y217987D01*
X315329Y217976D01*
X315237D01*
X314928Y217987D01*
X314630Y218010D01*
X314343Y218056D01*
X314080Y218102D01*
X313828Y218171D01*
X313599Y218239D01*
X313381Y218319D01*
X313198Y218400D01*
X313015Y218468D01*
X312866Y218549D01*
X312740Y218617D01*
X312625Y218686D01*
X312545Y218732D01*
X312476Y218778D01*
X312442Y218801D01*
X312430Y218812D01*
X312224Y218984D01*
X312041Y219167D01*
X311869Y219362D01*
X311709Y219580D01*
X311571Y219786D01*
X311434Y220003D01*
X311319Y220221D01*
X311216Y220427D01*
X311124Y220622D01*
X311044Y220805D01*
X310987Y220977D01*
X310930Y221115D01*
X310884Y221241D01*
X310861Y221321D01*
X310838Y221378D01*
Y221401D01*
X312911Y222042D01*
X312969Y221836D01*
X313026Y221630D01*
X313095Y221447D01*
X313163Y221286D01*
X313244Y221126D01*
X313312Y220989D01*
X313393Y220863D01*
X313461Y220748D01*
X313530Y220656D01*
X313599Y220565D01*
X313656Y220496D01*
X313702Y220439D01*
X313748Y220393D01*
X313782Y220358D01*
X313793Y220347D01*
X313805Y220336D01*
X313919Y220244D01*
X314045Y220164D01*
X314286Y220026D01*
X314527Y219935D01*
X314756Y219866D01*
X314962Y219832D01*
X315042Y219809D01*
X315122D01*
X315180Y219797D01*
X315260D01*
X315466Y219809D01*
X315672Y219832D01*
X315867Y219877D01*
X316039Y219935D01*
X316210Y219992D01*
X316359Y220061D01*
X316508Y220141D01*
X316634Y220221D01*
X316749Y220301D01*
X316852Y220381D01*
X316932Y220450D01*
X317012Y220507D01*
X317058Y220565D01*
X317104Y220611D01*
X317127Y220633D01*
X317138Y220645D01*
X317264Y220817D01*
X317367Y221011D01*
X317471Y221218D01*
X317551Y221447D01*
X317619Y221687D01*
X317677Y221916D01*
X317757Y222386D01*
X317791Y222615D01*
X317814Y222821D01*
X317826Y223005D01*
X317837Y223176D01*
X317849Y223302D01*
Y223406D01*
Y223474D01*
Y223497D01*
X317837Y223841D01*
X317814Y224162D01*
X317780Y224448D01*
X317734Y224723D01*
X317677Y224975D01*
X317619Y225193D01*
X317551Y225399D01*
X317482Y225571D01*
X317425Y225731D01*
X317356Y225868D01*
X317299Y225983D01*
X317241Y226075D01*
X317196Y226143D01*
X317161Y226201D01*
X317138Y226224D01*
X317127Y226235D01*
X316989Y226384D01*
X316829Y226510D01*
X316680Y226625D01*
X316520Y226728D01*
X316359Y226808D01*
X316199Y226877D01*
X316039Y226934D01*
X315890Y226980D01*
X315752Y227014D01*
X315626Y227037D01*
X315512Y227060D01*
X315409Y227071D01*
X315329Y227083D01*
X315214D01*
X314905Y227060D01*
X314630Y227003D01*
X314389Y226934D01*
X314172Y226842D01*
X314000Y226751D01*
X313931Y226716D01*
X313874Y226682D01*
X313828Y226647D01*
X313793Y226625D01*
X313782Y226613D01*
X313771Y226602D01*
X313564Y226407D01*
X313393Y226201D01*
X313255Y225983D01*
X313152Y225777D01*
X313072Y225594D01*
X313037Y225513D01*
X313015Y225445D01*
X313003Y225387D01*
X312992Y225341D01*
X312980Y225319D01*
Y225307D01*
X310872Y225811D01*
X310941Y226040D01*
X311021Y226258D01*
X311113Y226453D01*
X311193Y226647D01*
X311285Y226819D01*
X311376Y226980D01*
X311468Y227117D01*
X311548Y227255D01*
X311640Y227369D01*
X311709Y227472D01*
X311777Y227552D01*
X311846Y227621D01*
X311892Y227678D01*
X311926Y227713D01*
X311949Y227736D01*
X311961Y227747D01*
X312201Y227953D01*
X312442Y228125D01*
X312705Y228286D01*
X312969Y228412D01*
X313232Y228526D01*
X313496Y228618D01*
X313748Y228698D01*
X313988Y228755D01*
X314217Y228813D01*
X314435Y228847D01*
X314630Y228870D01*
X314790Y228881D01*
X314928Y228893D01*
X315019Y228904D01*
X315111D01*
X315512Y228893D01*
D02*
G37*
G36*
X341000Y218159D02*
X337036D01*
X336704Y218171D01*
X336143D01*
X335902Y218182D01*
X335696D01*
X335513Y218193D01*
X335353D01*
X335227Y218205D01*
X335112D01*
X335020Y218216D01*
X334952D01*
X334894Y218228D01*
X334837D01*
X334528Y218274D01*
X334253Y218342D01*
X334001Y218423D01*
X333795Y218514D01*
X333634Y218594D01*
X333565Y218629D01*
X333508Y218652D01*
X333462Y218686D01*
X333428Y218709D01*
X333416Y218720D01*
X333405D01*
X333199Y218881D01*
X333016Y219064D01*
X332855Y219247D01*
X332729Y219419D01*
X332626Y219568D01*
X332546Y219694D01*
X332523Y219740D01*
X332500Y219774D01*
X332489Y219797D01*
Y219809D01*
X332374Y220072D01*
X332294Y220324D01*
X332225Y220553D01*
X332191Y220771D01*
X332168Y220954D01*
X332156Y221034D01*
X332145Y221092D01*
Y221149D01*
Y221183D01*
Y221206D01*
Y221218D01*
Y221389D01*
X332168Y221550D01*
X332225Y221859D01*
X332317Y222123D01*
X332408Y222363D01*
X332454Y222455D01*
X332500Y222546D01*
X332546Y222627D01*
X332592Y222695D01*
X332626Y222741D01*
X332649Y222775D01*
X332660Y222798D01*
X332672Y222810D01*
X332878Y223050D01*
X333119Y223245D01*
X333371Y223417D01*
X333600Y223543D01*
X333817Y223646D01*
X333909Y223680D01*
X333989Y223715D01*
X334058Y223738D01*
X334104Y223761D01*
X334138Y223772D01*
X334150D01*
X333909Y223898D01*
X333691Y224047D01*
X333508Y224207D01*
X333348Y224356D01*
X333222Y224494D01*
X333130Y224597D01*
X333107Y224643D01*
X333084Y224677D01*
X333061Y224689D01*
Y224700D01*
X332924Y224941D01*
X332832Y225170D01*
X332764Y225399D01*
X332706Y225616D01*
X332683Y225800D01*
X332672Y225868D01*
Y225937D01*
X332660Y225994D01*
Y226029D01*
Y226052D01*
Y226063D01*
X332672Y226315D01*
X332706Y226544D01*
X332764Y226762D01*
X332821Y226945D01*
X332890Y227094D01*
X332935Y227209D01*
X332958Y227243D01*
X332981Y227278D01*
X332993Y227289D01*
Y227300D01*
X333119Y227495D01*
X333256Y227667D01*
X333394Y227816D01*
X333520Y227953D01*
X333634Y228045D01*
X333726Y228125D01*
X333783Y228171D01*
X333795Y228183D01*
X333806D01*
X333989Y228297D01*
X334184Y228389D01*
X334367Y228469D01*
X334539Y228526D01*
X334688Y228572D01*
X334803Y228595D01*
X334849Y228606D01*
X334883Y228618D01*
X334906D01*
X335032Y228641D01*
X335158Y228652D01*
X335456Y228687D01*
X335765Y228709D01*
X336074Y228721D01*
X336212D01*
X336349Y228732D01*
X341000D01*
Y218159D01*
D02*
G37*
G36*
X331412D02*
X329155D01*
X328273Y220565D01*
X324046D01*
X323118Y218159D01*
X320793D01*
X325031Y228732D01*
X327299D01*
X331412Y218159D01*
D02*
G37*
G36*
X294239D02*
X286197D01*
Y219946D01*
X292108D01*
Y222821D01*
X286805D01*
Y224608D01*
X292108D01*
Y226945D01*
X286404D01*
Y228732D01*
X294239D01*
Y218159D01*
D02*
G37*
G36*
X274536D02*
X272405D01*
Y222146D01*
X270756D01*
X270504Y222157D01*
X270274D01*
X270057Y222168D01*
X269862Y222180D01*
X269679Y222191D01*
X269507Y222203D01*
X269358Y222226D01*
X269232Y222237D01*
X269117Y222249D01*
X269014Y222260D01*
X268934Y222271D01*
X268877Y222283D01*
X268831D01*
X268808Y222294D01*
X268797D01*
X268590Y222352D01*
X268384Y222420D01*
X268201Y222501D01*
X268041Y222581D01*
X267892Y222661D01*
X267789Y222730D01*
X267720Y222775D01*
X267708Y222787D01*
X267697D01*
X267502Y222947D01*
X267319Y223119D01*
X267170Y223291D01*
X267033Y223451D01*
X266929Y223600D01*
X266861Y223726D01*
X266826Y223772D01*
X266803Y223806D01*
X266792Y223818D01*
Y223829D01*
X266677Y224093D01*
X266586Y224368D01*
X266528Y224643D01*
X266483Y224895D01*
X266471Y225021D01*
X266460Y225124D01*
X266448Y225227D01*
X266437Y225307D01*
Y225376D01*
Y225422D01*
Y225456D01*
Y225467D01*
X266448Y225697D01*
X266460Y225926D01*
X266494Y226132D01*
X266528Y226327D01*
X266574Y226510D01*
X266632Y226682D01*
X266689Y226831D01*
X266746Y226980D01*
X266803Y227106D01*
X266861Y227209D01*
X266907Y227312D01*
X266964Y227392D01*
X266998Y227449D01*
X267033Y227495D01*
X267044Y227518D01*
X267055Y227530D01*
X267170Y227678D01*
X267296Y227804D01*
X267422Y227919D01*
X267559Y228034D01*
X267812Y228217D01*
X268052Y228354D01*
X268258Y228457D01*
X268350Y228492D01*
X268430Y228526D01*
X268487Y228549D01*
X268533Y228561D01*
X268568Y228572D01*
X268579D01*
X268705Y228595D01*
X268854Y228629D01*
X269026Y228652D01*
X269221Y228664D01*
X269427Y228675D01*
X269633Y228698D01*
X270068Y228709D01*
X270274Y228721D01*
X270458D01*
X270641Y228732D01*
X274536D01*
Y218159D01*
D02*
G37*
G36*
X265761Y218159D02*
X263504D01*
X262622Y220565D01*
X258395D01*
X257467Y218159D01*
X255142D01*
X259380Y228732D01*
X261648D01*
X265761Y218159D01*
D02*
G37*
G36*
X233571D02*
X231441D01*
Y228732D01*
X233571D01*
Y218159D01*
D02*
G37*
G36*
X206880D02*
X204853D01*
Y220187D01*
X206880D01*
Y218159D01*
D02*
G37*
G36*
X240101Y228893D02*
X240296Y228870D01*
X240502Y228847D01*
X240685Y228813D01*
X240857Y228790D01*
X241006Y228755D01*
X241155Y228721D01*
X241292Y228675D01*
X241407Y228641D01*
X241498Y228618D01*
X241590Y228583D01*
X241647Y228561D01*
X241705Y228538D01*
X241728Y228526D01*
X241739D01*
X242037Y228377D01*
X242312Y228205D01*
X242529Y228034D01*
X242724Y227862D01*
X242862Y227701D01*
X242976Y227575D01*
X243011Y227530D01*
X243033Y227495D01*
X243056Y227472D01*
Y227461D01*
X243205Y227197D01*
X243320Y226934D01*
X243400Y226670D01*
X243457Y226441D01*
X243492Y226246D01*
X243503Y226155D01*
Y226086D01*
X243514Y226029D01*
Y225983D01*
Y225960D01*
Y225949D01*
X243503Y225720D01*
X243469Y225502D01*
X243423Y225284D01*
X243366Y225089D01*
X243285Y224906D01*
X243205Y224723D01*
X243114Y224562D01*
X243022Y224414D01*
X242942Y224276D01*
X242850Y224162D01*
X242770Y224058D01*
X242690Y223978D01*
X242633Y223910D01*
X242587Y223864D01*
X242552Y223829D01*
X242541Y223818D01*
X242403Y223703D01*
X242243Y223600D01*
X242060Y223497D01*
X241876Y223394D01*
X241476Y223222D01*
X241075Y223062D01*
X240891Y223005D01*
X240719Y222947D01*
X240559Y222890D01*
X240410Y222856D01*
X240296Y222821D01*
X240215Y222798D01*
X240158Y222775D01*
X240135D01*
X239895Y222718D01*
X239677Y222661D01*
X239482Y222615D01*
X239310Y222569D01*
X239150Y222523D01*
X239013Y222489D01*
X238887Y222455D01*
X238783Y222420D01*
X238692Y222397D01*
X238623Y222375D01*
X238554Y222352D01*
X238508Y222340D01*
X238474Y222329D01*
X238451D01*
X238428Y222317D01*
X238234Y222237D01*
X238073Y222168D01*
X237947Y222088D01*
X237833Y222019D01*
X237764Y221951D01*
X237707Y221905D01*
X237672Y221870D01*
X237661Y221859D01*
X237581Y221756D01*
X237523Y221653D01*
X237489Y221538D01*
X237455Y221435D01*
X237443Y221355D01*
X237432Y221286D01*
Y221229D01*
Y221218D01*
Y221115D01*
X237455Y221011D01*
X237512Y220817D01*
X237604Y220633D01*
X237695Y220484D01*
X237787Y220370D01*
X237878Y220278D01*
X237936Y220221D01*
X237947Y220198D01*
X237959D01*
X238062Y220118D01*
X238176Y220049D01*
X238428Y219946D01*
X238692Y219866D01*
X238944Y219820D01*
X239173Y219786D01*
X239265Y219774D01*
X239356D01*
X239425Y219763D01*
X239528D01*
X239872Y219786D01*
X240181Y219843D01*
X240445Y219912D01*
X240674Y220003D01*
X240765Y220049D01*
X240845Y220095D01*
X240926Y220129D01*
X240983Y220164D01*
X241029Y220198D01*
X241063Y220221D01*
X241075Y220244D01*
X241086D01*
X241189Y220347D01*
X241281Y220450D01*
X241441Y220691D01*
X241579Y220954D01*
X241682Y221206D01*
X241750Y221435D01*
X241785Y221527D01*
X241808Y221618D01*
X241819Y221687D01*
X241831Y221744D01*
X241842Y221779D01*
Y221790D01*
X243916Y221584D01*
X243870Y221263D01*
X243801Y220954D01*
X243721Y220679D01*
X243629Y220416D01*
X243526Y220175D01*
X243423Y219946D01*
X243308Y219751D01*
X243194Y219568D01*
X243091Y219408D01*
X242988Y219270D01*
X242885Y219156D01*
X242804Y219053D01*
X242736Y218984D01*
X242678Y218927D01*
X242644Y218892D01*
X242633Y218881D01*
X242415Y218720D01*
X242186Y218583D01*
X241945Y218457D01*
X241693Y218354D01*
X241441Y218262D01*
X241189Y218193D01*
X240937Y218125D01*
X240685Y218079D01*
X240456Y218044D01*
X240238Y218010D01*
X240044Y217987D01*
X239883Y217976D01*
X239746D01*
X239643Y217964D01*
X239299D01*
X239058Y217976D01*
X238818Y217999D01*
X238612Y218022D01*
X238405Y218056D01*
X238211Y218079D01*
X238039Y218113D01*
X237878Y218159D01*
X237741Y218193D01*
X237615Y218228D01*
X237500Y218251D01*
X237409Y218285D01*
X237340Y218308D01*
X237294Y218331D01*
X237260Y218342D01*
X237248D01*
X236916Y218503D01*
X236630Y218686D01*
X236389Y218892D01*
X236183Y219075D01*
X236023Y219247D01*
X235965Y219327D01*
X235908Y219396D01*
X235874Y219442D01*
X235839Y219488D01*
X235816Y219511D01*
Y219522D01*
X235725Y219671D01*
X235645Y219832D01*
X235519Y220129D01*
X235427Y220416D01*
X235370Y220679D01*
X235347Y220794D01*
X235324Y220897D01*
X235312Y221000D01*
Y221080D01*
X235301Y221137D01*
Y221195D01*
Y221218D01*
Y221229D01*
X235324Y221584D01*
X235370Y221916D01*
X235438Y222203D01*
X235473Y222329D01*
X235507Y222443D01*
X235553Y222546D01*
X235587Y222638D01*
X235622Y222718D01*
X235656Y222787D01*
X235690Y222844D01*
X235702Y222879D01*
X235725Y222901D01*
Y222913D01*
X235897Y223153D01*
X236091Y223371D01*
X236286Y223554D01*
X236469Y223715D01*
X236641Y223829D01*
X236779Y223921D01*
X236836Y223944D01*
X236870Y223967D01*
X236893Y223990D01*
X236905D01*
X237054Y224058D01*
X237214Y224139D01*
X237397Y224207D01*
X237581Y224276D01*
X237959Y224402D01*
X238337Y224517D01*
X238508Y224562D01*
X238680Y224608D01*
X238818Y224654D01*
X238955Y224689D01*
X239058Y224711D01*
X239139Y224734D01*
X239184Y224746D01*
X239207D01*
X239482Y224815D01*
X239734Y224883D01*
X239963Y224952D01*
X240170Y225021D01*
X240353Y225078D01*
X240513Y225135D01*
X240651Y225193D01*
X240765Y225238D01*
X240868Y225284D01*
X240960Y225330D01*
X241029Y225364D01*
X241075Y225399D01*
X241120Y225422D01*
X241143Y225445D01*
X241166Y225456D01*
X241269Y225559D01*
X241350Y225662D01*
X241395Y225777D01*
X241441Y225880D01*
X241464Y225960D01*
X241476Y226040D01*
Y226086D01*
Y226098D01*
X241464Y226246D01*
X241418Y226373D01*
X241372Y226487D01*
X241304Y226579D01*
X241246Y226647D01*
X241189Y226705D01*
X241155Y226739D01*
X241143Y226751D01*
X240926Y226877D01*
X240697Y226980D01*
X240445Y227048D01*
X240215Y227094D01*
X239998Y227117D01*
X239906Y227129D01*
X239826Y227140D01*
X239677D01*
X239356Y227129D01*
X239081Y227083D01*
X238852Y227026D01*
X238657Y226957D01*
X238508Y226888D01*
X238405Y226831D01*
X238348Y226785D01*
X238325Y226773D01*
X238165Y226625D01*
X238039Y226441D01*
X237936Y226246D01*
X237856Y226063D01*
X237798Y225891D01*
X237775Y225811D01*
X237752Y225742D01*
X237741Y225697D01*
Y225651D01*
X237730Y225628D01*
Y225616D01*
X235599Y225697D01*
X235622Y225960D01*
X235656Y226212D01*
X235713Y226453D01*
X235794Y226670D01*
X235874Y226877D01*
X235965Y227071D01*
X236057Y227243D01*
X236149Y227404D01*
X236252Y227541D01*
X236343Y227667D01*
X236424Y227782D01*
X236504Y227862D01*
X236573Y227930D01*
X236618Y227988D01*
X236653Y228011D01*
X236664Y228022D01*
X236859Y228182D01*
X237077Y228309D01*
X237317Y228435D01*
X237558Y228538D01*
X237798Y228618D01*
X238050Y228687D01*
X238302Y228744D01*
X238531Y228790D01*
X238761Y228835D01*
X238978Y228858D01*
X239161Y228881D01*
X239333Y228893D01*
X239459Y228904D01*
X239654D01*
X240101Y228893D01*
D02*
G37*
G36*
X225197Y228881D02*
X225633Y228835D01*
X225827Y228801D01*
X226022Y228767D01*
X226194Y228732D01*
X226354Y228698D01*
X226503Y228652D01*
X226629Y228618D01*
X226744Y228583D01*
X226835Y228549D01*
X226904Y228515D01*
X226961Y228503D01*
X226996Y228480D01*
X227007D01*
X227282Y228354D01*
X227534Y228205D01*
X227775Y228045D01*
X227970Y227885D01*
X228141Y227747D01*
X228210Y227690D01*
X228267Y227633D01*
X228313Y227587D01*
X228348Y227552D01*
X228370Y227541D01*
X228382Y227530D01*
X228600Y227278D01*
X228794Y227037D01*
X228966Y226785D01*
X229104Y226567D01*
X229207Y226361D01*
X229253Y226281D01*
X229287Y226212D01*
X229321Y226155D01*
X229344Y226109D01*
X229356Y226086D01*
Y226075D01*
X229436Y225868D01*
X229516Y225639D01*
X229631Y225193D01*
X229722Y224734D01*
X229745Y224517D01*
X229779Y224310D01*
X229791Y224104D01*
X229814Y223932D01*
X229825Y223772D01*
Y223635D01*
X229837Y223520D01*
Y223428D01*
Y223383D01*
Y223360D01*
X229825Y222901D01*
X229779Y222466D01*
X229711Y222054D01*
X229619Y221676D01*
X229516Y221321D01*
X229401Y221000D01*
X229275Y220702D01*
X229138Y220439D01*
X229012Y220198D01*
X228886Y219992D01*
X228771Y219809D01*
X228668Y219660D01*
X228577Y219545D01*
X228508Y219465D01*
X228462Y219419D01*
X228451Y219396D01*
X228176Y219144D01*
X227889Y218927D01*
X227591Y218732D01*
X227282Y218571D01*
X226973Y218434D01*
X226652Y218319D01*
X226354Y218216D01*
X226056Y218148D01*
X225782Y218079D01*
X225530Y218044D01*
X225289Y218010D01*
X225094Y217987D01*
X224934Y217976D01*
X224808Y217964D01*
X224705D01*
X224281Y217976D01*
X223869Y218022D01*
X223491Y218102D01*
X223135Y218193D01*
X222803Y218296D01*
X222494Y218422D01*
X222219Y218549D01*
X221967Y218686D01*
X221738Y218823D01*
X221543Y218949D01*
X221371Y219075D01*
X221234Y219179D01*
X221119Y219270D01*
X221050Y219350D01*
X220993Y219396D01*
X220982Y219408D01*
X220730Y219694D01*
X220524Y219992D01*
X220329Y220313D01*
X220168Y220645D01*
X220042Y220977D01*
X219928Y221309D01*
X219836Y221641D01*
X219756Y221951D01*
X219699Y222249D01*
X219653Y222535D01*
X219630Y222775D01*
X219607Y222993D01*
X219596Y223176D01*
X219584Y223245D01*
Y223302D01*
Y223348D01*
Y223383D01*
Y223405D01*
Y223417D01*
X219596Y223887D01*
X219641Y224333D01*
X219710Y224746D01*
X219802Y225135D01*
X219905Y225490D01*
X220031Y225823D01*
X220157Y226132D01*
X220283Y226395D01*
X220420Y226647D01*
X220546Y226854D01*
X220661Y227037D01*
X220776Y227186D01*
X220867Y227300D01*
X220936Y227381D01*
X220982Y227438D01*
X220993Y227449D01*
X221268Y227701D01*
X221555Y227930D01*
X221852Y228125D01*
X222162Y228286D01*
X222482Y228435D01*
X222792Y228549D01*
X223090Y228641D01*
X223387Y228721D01*
X223662Y228778D01*
X223914Y228824D01*
X224144Y228858D01*
X224338Y228881D01*
X224499Y228893D01*
X224625Y228904D01*
X224728D01*
X225197Y228881D01*
D02*
G37*
G36*
X259472Y215701D02*
X259724Y215678D01*
X259965Y215643D01*
X260182Y215597D01*
X260400Y215540D01*
X260595Y215483D01*
X260766Y215414D01*
X260938Y215345D01*
X261087Y215277D01*
X261213Y215208D01*
X261328Y215151D01*
X261419Y215093D01*
X261488Y215048D01*
X261545Y215013D01*
X261580Y214990D01*
X261591Y214979D01*
X261763Y214830D01*
X261912Y214670D01*
X262049Y214486D01*
X262164Y214292D01*
X262267Y214097D01*
X262359Y213891D01*
X262439Y213696D01*
X262508Y213501D01*
X262565Y213318D01*
X262611Y213146D01*
X262645Y212986D01*
X262668Y212848D01*
X262691Y212734D01*
X262702Y212642D01*
X262714Y212596D01*
Y212573D01*
X260698Y212379D01*
X260686Y212539D01*
X260663Y212688D01*
X260606Y212951D01*
X260537Y213169D01*
X260469Y213341D01*
X260388Y213478D01*
X260331Y213570D01*
X260285Y213616D01*
X260274Y213639D01*
X260125Y213765D01*
X259953Y213868D01*
X259781Y213937D01*
X259621Y213982D01*
X259472Y214005D01*
X259357Y214028D01*
X259254D01*
X259025Y214017D01*
X258830Y213971D01*
X258659Y213914D01*
X258510Y213845D01*
X258395Y213776D01*
X258315Y213719D01*
X258258Y213673D01*
X258246Y213662D01*
X258120Y213513D01*
X258029Y213341D01*
X257971Y213169D01*
X257925Y213009D01*
X257903Y212848D01*
X257880Y212734D01*
Y212688D01*
Y212654D01*
Y212631D01*
Y212619D01*
X257903Y212390D01*
X257948Y212161D01*
X258017Y211955D01*
X258086Y211771D01*
X258166Y211611D01*
X258235Y211485D01*
X258269Y211439D01*
X258281Y211405D01*
X258304Y211393D01*
Y211382D01*
X258372Y211290D01*
X258464Y211176D01*
X258578Y211050D01*
X258693Y210924D01*
X258968Y210637D01*
X259266Y210351D01*
X259403Y210214D01*
X259541Y210076D01*
X259655Y209961D01*
X259770Y209858D01*
X259861Y209778D01*
X259930Y209709D01*
X259976Y209664D01*
X259987Y209652D01*
X260297Y209366D01*
X260572Y209091D01*
X260835Y208827D01*
X261064Y208587D01*
X261270Y208369D01*
X261454Y208151D01*
X261625Y207968D01*
X261763Y207796D01*
X261889Y207636D01*
X261992Y207510D01*
X262084Y207384D01*
X262153Y207292D01*
X262198Y207224D01*
X262244Y207166D01*
X262256Y207132D01*
X262267Y207120D01*
X262462Y206765D01*
X262611Y206410D01*
X262737Y206067D01*
X262828Y205757D01*
X262863Y205620D01*
X262886Y205494D01*
X262908Y205379D01*
X262931Y205288D01*
X262943Y205208D01*
Y205150D01*
X262954Y205116D01*
Y205104D01*
X255852D01*
Y206983D01*
X259884D01*
X259747Y207178D01*
X259678Y207269D01*
X259621Y207361D01*
X259564Y207430D01*
X259518Y207487D01*
X259483Y207521D01*
X259472Y207533D01*
X259415Y207590D01*
X259346Y207670D01*
X259266Y207751D01*
X259174Y207842D01*
X258979Y208037D01*
X258773Y208232D01*
X258578Y208415D01*
X258487Y208495D01*
X258407Y208564D01*
X258349Y208621D01*
X258304Y208667D01*
X258269Y208690D01*
X258258Y208701D01*
X258086Y208862D01*
X257925Y209011D01*
X257777Y209160D01*
X257639Y209286D01*
X257525Y209412D01*
X257410Y209515D01*
X257318Y209618D01*
X257227Y209709D01*
X257101Y209858D01*
X256998Y209961D01*
X256952Y210030D01*
X256929Y210053D01*
X256734Y210317D01*
X256562Y210569D01*
X256425Y210798D01*
X256310Y210993D01*
X256230Y211164D01*
X256196Y211233D01*
X256161Y211290D01*
X256138Y211336D01*
X256127Y211382D01*
X256115Y211393D01*
Y211405D01*
X256024Y211645D01*
X255967Y211886D01*
X255921Y212115D01*
X255886Y212333D01*
X255863Y212505D01*
Y212585D01*
X255852Y212642D01*
Y212699D01*
Y212734D01*
Y212757D01*
Y212768D01*
X255863Y212997D01*
X255886Y213215D01*
X255932Y213421D01*
X255989Y213627D01*
X256058Y213811D01*
X256138Y213982D01*
X256219Y214143D01*
X256299Y214280D01*
X256390Y214418D01*
X256471Y214532D01*
X256551Y214635D01*
X256619Y214715D01*
X256677Y214773D01*
X256723Y214830D01*
X256745Y214853D01*
X256757Y214864D01*
X256929Y215013D01*
X257124Y215139D01*
X257318Y215254D01*
X257513Y215357D01*
X257719Y215437D01*
X257925Y215506D01*
X258120Y215563D01*
X258315Y215609D01*
X258498Y215643D01*
X258670Y215666D01*
X258819Y215689D01*
X258945Y215701D01*
X259060Y215712D01*
X259208D01*
X259472Y215701D01*
D02*
G37*
G36*
X317734Y209549D02*
Y205104D01*
X315603D01*
Y209538D01*
X311743Y215678D01*
X314194D01*
X316611Y211497D01*
X319086Y215678D01*
X321595D01*
X317734Y209549D01*
D02*
G37*
G36*
X267445Y215529D02*
X267525Y215357D01*
X267720Y215036D01*
X267926Y214750D01*
X268144Y214498D01*
X268247Y214383D01*
X268338Y214292D01*
X268419Y214200D01*
X268499Y214131D01*
X268556Y214074D01*
X268602Y214040D01*
X268636Y214017D01*
X268648Y214005D01*
X268991Y213753D01*
X269312Y213547D01*
X269599Y213375D01*
X269851Y213249D01*
X269965Y213192D01*
X270068Y213146D01*
X270148Y213112D01*
X270229Y213077D01*
X270286Y213055D01*
X270332Y213043D01*
X270355Y213032D01*
X270366D01*
Y211187D01*
X270091Y211290D01*
X269828Y211393D01*
X269564Y211508D01*
X269324Y211634D01*
X269095Y211760D01*
X268877Y211886D01*
X268682Y212012D01*
X268499Y212138D01*
X268327Y212253D01*
X268190Y212367D01*
X268052Y212470D01*
X267949Y212550D01*
X267869Y212619D01*
X267800Y212676D01*
X267766Y212711D01*
X267754Y212722D01*
Y205104D01*
X265727D01*
Y215712D01*
X267376D01*
X267445Y215529D01*
D02*
G37*
G36*
X341000Y205104D02*
X338869D01*
Y208289D01*
X337151Y210065D01*
X334230Y205104D01*
X331469D01*
X335673Y211565D01*
X331675Y215678D01*
X334551D01*
X338869Y210981D01*
Y215678D01*
X341000D01*
Y205104D01*
D02*
G37*
G36*
X330358D02*
X322316D01*
Y206891D01*
X328227D01*
Y209767D01*
X322923D01*
Y211554D01*
X328227D01*
Y213891D01*
X322522D01*
Y215678D01*
X330358D01*
Y205104D01*
D02*
G37*
G36*
X310655D02*
X308524D01*
Y209091D01*
X306874D01*
X306622Y209102D01*
X306393D01*
X306176Y209114D01*
X305981Y209125D01*
X305798Y209137D01*
X305626Y209148D01*
X305477Y209171D01*
X305351Y209182D01*
X305236Y209194D01*
X305133Y209205D01*
X305053Y209217D01*
X304996Y209228D01*
X304950D01*
X304927Y209240D01*
X304916D01*
X304709Y209297D01*
X304503Y209366D01*
X304320Y209446D01*
X304159Y209526D01*
X304011Y209606D01*
X303907Y209675D01*
X303839Y209721D01*
X303827Y209732D01*
X303816D01*
X303621Y209893D01*
X303438Y210065D01*
X303289Y210236D01*
X303151Y210397D01*
X303048Y210546D01*
X302980Y210672D01*
X302945Y210718D01*
X302922Y210752D01*
X302911Y210763D01*
Y210775D01*
X302796Y211038D01*
X302705Y211313D01*
X302647Y211588D01*
X302602Y211840D01*
X302590Y211966D01*
X302579Y212069D01*
X302567Y212172D01*
X302556Y212253D01*
Y212321D01*
Y212367D01*
Y212402D01*
Y212413D01*
X302567Y212642D01*
X302579Y212871D01*
X302613Y213077D01*
X302647Y213272D01*
X302693Y213455D01*
X302750Y213627D01*
X302808Y213776D01*
X302865Y213925D01*
X302922Y214051D01*
X302980Y214154D01*
X303025Y214257D01*
X303083Y214338D01*
X303117Y214395D01*
X303151Y214441D01*
X303163Y214464D01*
X303174Y214475D01*
X303289Y214624D01*
X303415Y214750D01*
X303541Y214864D01*
X303678Y214979D01*
X303930Y215162D01*
X304171Y215300D01*
X304377Y215403D01*
X304469Y215437D01*
X304549Y215472D01*
X304606Y215494D01*
X304652Y215506D01*
X304686Y215517D01*
X304698D01*
X304824Y215540D01*
X304973Y215575D01*
X305145Y215598D01*
X305339Y215609D01*
X305546Y215620D01*
X305752Y215643D01*
X306187Y215655D01*
X306393Y215666D01*
X306576D01*
X306760Y215678D01*
X310655D01*
Y205104D01*
D02*
G37*
G36*
X301880D02*
X299623D01*
X298741Y207510D01*
X294514D01*
X293586Y205104D01*
X291261D01*
X295499Y215678D01*
X297767D01*
X301880Y205104D01*
D02*
G37*
G36*
X290138D02*
X285911D01*
X285705Y205116D01*
X285510Y205127D01*
X285338Y205139D01*
X285166Y205150D01*
X285006Y205173D01*
X284869Y205196D01*
X284743Y205219D01*
X284628Y205230D01*
X284525Y205253D01*
X284433Y205276D01*
X284364Y205288D01*
X284307Y205299D01*
X284273Y205311D01*
X284250Y205322D01*
X284238D01*
X283906Y205448D01*
X283608Y205585D01*
X283356Y205723D01*
X283139Y205861D01*
X283047Y205918D01*
X282967Y205975D01*
X282910Y206032D01*
X282852Y206078D01*
X282807Y206112D01*
X282772Y206147D01*
X282761Y206158D01*
X282749Y206170D01*
X282486Y206456D01*
X282257Y206765D01*
X282062Y207075D01*
X281902Y207373D01*
X281833Y207510D01*
X281776Y207636D01*
X281730Y207751D01*
X281684Y207842D01*
X281661Y207922D01*
X281638Y207991D01*
X281615Y208025D01*
Y208037D01*
X281501Y208404D01*
X281420Y208782D01*
X281363Y209160D01*
X281329Y209515D01*
X281306Y209675D01*
X281294Y209824D01*
Y209950D01*
X281283Y210065D01*
Y210156D01*
Y210225D01*
Y210271D01*
Y210282D01*
Y210557D01*
X281294Y210821D01*
X281317Y211061D01*
X281340Y211302D01*
X281363Y211519D01*
X281398Y211726D01*
X281432Y211920D01*
X281455Y212092D01*
X281489Y212241D01*
X281524Y212379D01*
X281558Y212505D01*
X281581Y212596D01*
X281604Y212676D01*
X281627Y212734D01*
X281638Y212768D01*
Y212780D01*
X281776Y213146D01*
X281936Y213478D01*
X282108Y213776D01*
X282188Y213902D01*
X282268Y214017D01*
X282348Y214131D01*
X282417Y214223D01*
X282486Y214303D01*
X282532Y214372D01*
X282577Y214429D01*
X282612Y214464D01*
X282635Y214486D01*
X282646Y214498D01*
X282910Y214738D01*
X283173Y214945D01*
X283437Y215116D01*
X283689Y215242D01*
X283906Y215345D01*
X283998Y215391D01*
X284078Y215414D01*
X284147Y215437D01*
X284193Y215460D01*
X284227Y215472D01*
X284238D01*
X284376Y215506D01*
X284525Y215540D01*
X284846Y215586D01*
X285178Y215632D01*
X285499Y215655D01*
X285648Y215666D01*
X285911D01*
X286026Y215678D01*
X290138D01*
Y205104D01*
D02*
G37*
G36*
X273745Y215334D02*
X274043Y214807D01*
X274318Y214303D01*
X274433Y214074D01*
X274547Y213845D01*
X274639Y213639D01*
X274730Y213455D01*
X274799Y213284D01*
X274856Y213146D01*
X274902Y213032D01*
X274937Y212940D01*
X274960Y212894D01*
X274971Y212871D01*
X275097Y212516D01*
X275200Y212161D01*
X275303Y211817D01*
X275383Y211474D01*
X275452Y211130D01*
X275509Y210809D01*
X275555Y210488D01*
X275590Y210202D01*
X275624Y209927D01*
X275647Y209687D01*
X275658Y209469D01*
X275670Y209286D01*
X275681Y209137D01*
Y209022D01*
Y208953D01*
Y208942D01*
Y208930D01*
X275670Y208610D01*
X275658Y208300D01*
X275590Y207682D01*
X275544Y207384D01*
X275498Y207098D01*
X275452Y206823D01*
X275395Y206559D01*
X275338Y206330D01*
X275292Y206112D01*
X275246Y205929D01*
X275200Y205769D01*
X275166Y205631D01*
X275131Y205540D01*
X275120Y205482D01*
X275109Y205459D01*
X274994Y205127D01*
X274868Y204795D01*
X274742Y204474D01*
X274604Y204165D01*
X274467Y203867D01*
X274318Y203581D01*
X274181Y203306D01*
X274055Y203065D01*
X273929Y202825D01*
X273803Y202619D01*
X273699Y202447D01*
X273608Y202286D01*
X273528Y202172D01*
X273470Y202080D01*
X273436Y202023D01*
X273425Y202000D01*
X272038D01*
X272153Y202252D01*
X272256Y202493D01*
X272359Y202710D01*
X272451Y202916D01*
X272531Y203111D01*
X272600Y203283D01*
X272668Y203443D01*
X272726Y203581D01*
X272772Y203707D01*
X272817Y203810D01*
X272852Y203902D01*
X272886Y203982D01*
X272909Y204039D01*
X272921Y204085D01*
X272932Y204108D01*
Y204119D01*
X273069Y204532D01*
X273184Y204944D01*
X273287Y205345D01*
X273333Y205528D01*
X273367Y205700D01*
X273402Y205861D01*
X273436Y206009D01*
X273470Y206135D01*
X273482Y206250D01*
X273505Y206330D01*
X273516Y206399D01*
X273528Y206445D01*
Y206456D01*
X273596Y206914D01*
X273654Y207361D01*
X273688Y207773D01*
X273711Y207968D01*
X273722Y208140D01*
Y208300D01*
X273734Y208449D01*
Y208575D01*
X273745Y208678D01*
Y208770D01*
Y208827D01*
Y208873D01*
Y208885D01*
X273734Y209515D01*
X273711Y209824D01*
X273688Y210122D01*
X273665Y210397D01*
X273631Y210660D01*
X273596Y210912D01*
X273562Y211153D01*
X273528Y211359D01*
X273493Y211554D01*
X273459Y211726D01*
X273436Y211863D01*
X273413Y211978D01*
X273390Y212058D01*
X273379Y212115D01*
Y212127D01*
X273299Y212424D01*
X273218Y212722D01*
X273012Y213352D01*
X272783Y213982D01*
X272668Y214280D01*
X272554Y214567D01*
X272451Y214830D01*
X272348Y215082D01*
X272256Y215300D01*
X272176Y215483D01*
X272107Y215643D01*
X272061Y215758D01*
X272038Y215792D01*
X272027Y215827D01*
X272016Y215838D01*
Y215850D01*
X273402D01*
X273745Y215334D01*
D02*
G37*
G36*
X254454Y215449D02*
X254294Y215059D01*
X254145Y214693D01*
X254008Y214349D01*
X253882Y214017D01*
X253779Y213707D01*
X253675Y213433D01*
X253595Y213169D01*
X253515Y212940D01*
X253458Y212734D01*
X253401Y212550D01*
X253355Y212402D01*
X253320Y212287D01*
X253309Y212195D01*
X253286Y212150D01*
Y212127D01*
X253160Y211554D01*
X253068Y210981D01*
X253034Y210695D01*
X253000Y210431D01*
X252977Y210179D01*
X252954Y209939D01*
X252942Y209709D01*
X252931Y209515D01*
X252919Y209331D01*
X252908Y209182D01*
Y209056D01*
Y208965D01*
Y208908D01*
Y208885D01*
Y208575D01*
X252919Y208266D01*
X252942Y207991D01*
X252954Y207739D01*
X252965Y207636D01*
X252977Y207533D01*
X252988Y207453D01*
X253000Y207373D01*
Y207315D01*
X253011Y207269D01*
Y207247D01*
Y207235D01*
X253057Y206937D01*
X253103Y206628D01*
X253148Y206342D01*
X253206Y206090D01*
X253229Y205975D01*
X253252Y205860D01*
X253275Y205769D01*
X253286Y205689D01*
X253298Y205631D01*
X253309Y205585D01*
X253320Y205551D01*
Y205540D01*
X253401Y205219D01*
X253481Y204921D01*
X253561Y204658D01*
X253630Y204429D01*
X253664Y204325D01*
X253687Y204234D01*
X253710Y204154D01*
X253733Y204096D01*
X253756Y204039D01*
X253767Y204005D01*
X253779Y203982D01*
Y203970D01*
X253824Y203833D01*
X253882Y203684D01*
X254008Y203375D01*
X254145Y203042D01*
X254283Y202733D01*
X254340Y202584D01*
X254409Y202447D01*
X254454Y202321D01*
X254512Y202206D01*
X254546Y202126D01*
X254580Y202057D01*
X254592Y202011D01*
X254603Y202000D01*
X253206D01*
X252988Y202355D01*
X252782Y202710D01*
X252587Y203054D01*
X252415Y203398D01*
X252255Y203718D01*
X252106Y204039D01*
X251980Y204337D01*
X251866Y204612D01*
X251762Y204864D01*
X251671Y205093D01*
X251602Y205299D01*
X251545Y205471D01*
X251499Y205620D01*
X251465Y205723D01*
X251453Y205780D01*
X251442Y205803D01*
X251281Y206445D01*
X251213Y206742D01*
X251167Y207040D01*
X251121Y207315D01*
X251075Y207590D01*
X251041Y207831D01*
X251018Y208071D01*
X250995Y208277D01*
X250984Y208472D01*
X250972Y208633D01*
Y208770D01*
X250961Y208885D01*
Y208965D01*
Y209022D01*
Y209034D01*
X250972Y209366D01*
X250984Y209698D01*
X251052Y210340D01*
X251098Y210637D01*
X251155Y210935D01*
X251213Y211210D01*
X251258Y211462D01*
X251316Y211703D01*
X251373Y211909D01*
X251430Y212092D01*
X251476Y212253D01*
X251510Y212379D01*
X251545Y212470D01*
X251556Y212528D01*
X251568Y212550D01*
X251820Y213192D01*
X251946Y213501D01*
X252083Y213799D01*
X252232Y214085D01*
X252370Y214360D01*
X252507Y214612D01*
X252633Y214853D01*
X252759Y215071D01*
X252874Y215265D01*
X252988Y215437D01*
X253068Y215575D01*
X253148Y215689D01*
X253206Y215781D01*
X253240Y215827D01*
X253252Y215850D01*
X254626D01*
X254454Y215449D01*
D02*
G37*
G36*
X319592Y125638D02*
X317659D01*
X317647Y131472D01*
Y131507D01*
Y131519D01*
X317636Y131530D01*
X317600Y131554D01*
X314878D01*
X314831Y131542D01*
X314819Y131530D01*
X314807Y131519D01*
X314795Y131495D01*
Y131483D01*
Y131472D01*
Y125638D01*
X312862D01*
Y131472D01*
Y131507D01*
X312851Y131519D01*
X312839Y131530D01*
X312792Y131554D01*
X310093D01*
X310034Y131542D01*
X310022Y131530D01*
X310010Y131519D01*
Y131495D01*
Y131483D01*
Y131472D01*
X309998Y125638D01*
X308089D01*
Y131566D01*
X308101Y131754D01*
X308125Y131931D01*
X308172Y132096D01*
X308219Y132238D01*
X308266Y132355D01*
X308313Y132450D01*
X308337Y132497D01*
X308349Y132520D01*
X308443Y132674D01*
X308561Y132815D01*
X308679Y132933D01*
X308785Y133027D01*
X308879Y133110D01*
X308961Y133169D01*
X309009Y133204D01*
X309032Y133216D01*
X309197Y133298D01*
X309374Y133369D01*
X309527Y133416D01*
X309680Y133440D01*
X309810Y133463D01*
X309916Y133475D01*
X319592D01*
Y125638D01*
D02*
G37*
G36*
X304671Y133463D02*
X304848Y133440D01*
X305013Y133392D01*
X305155Y133345D01*
X305273Y133298D01*
X305355Y133251D01*
X305414Y133228D01*
X305438Y133216D01*
X305591Y133110D01*
X305720Y133004D01*
X305838Y132886D01*
X305944Y132768D01*
X306027Y132674D01*
X306086Y132591D01*
X306121Y132544D01*
X306133Y132520D01*
X306215Y132355D01*
X306286Y132190D01*
X306333Y132025D01*
X306357Y131884D01*
X306380Y131754D01*
X306392Y131648D01*
Y131589D01*
Y131578D01*
Y131566D01*
Y127535D01*
X306380Y127346D01*
X306357Y127170D01*
X306310Y127016D01*
X306262Y126875D01*
X306215Y126757D01*
X306168Y126663D01*
X306145Y126616D01*
X306133Y126592D01*
X306027Y126439D01*
X305909Y126298D01*
X305791Y126180D01*
X305685Y126086D01*
X305591Y126003D01*
X305508Y125944D01*
X305461Y125909D01*
X305438Y125897D01*
X305273Y125814D01*
X305107Y125744D01*
X304942Y125696D01*
X304801Y125673D01*
X304671Y125649D01*
X304565Y125638D01*
X300346D01*
X300146Y125649D01*
X299969Y125673D01*
X299804Y125720D01*
X299663Y125767D01*
X299545Y125814D01*
X299450Y125862D01*
X299403Y125885D01*
X299380Y125897D01*
X299226Y126003D01*
X299097Y126121D01*
X298979Y126227D01*
X298873Y126345D01*
X298802Y126439D01*
X298743Y126522D01*
X298708Y126569D01*
X298696Y126592D01*
X298602Y126757D01*
X298543Y126922D01*
X298496Y127087D01*
X298460Y127229D01*
X298449Y127346D01*
X298437Y127453D01*
Y127512D01*
Y127535D01*
Y131566D01*
X298449Y131754D01*
X298472Y131931D01*
X298519Y132096D01*
X298555Y132238D01*
X298602Y132355D01*
X298649Y132450D01*
X298673Y132497D01*
X298684Y132520D01*
X298779Y132674D01*
X298897Y132815D01*
X299014Y132933D01*
X299120Y133039D01*
X299215Y133110D01*
X299297Y133169D01*
X299344Y133204D01*
X299368Y133216D01*
X299533Y133298D01*
X299710Y133369D01*
X299863Y133416D01*
X300016Y133440D01*
X300146Y133463D01*
X300252Y133475D01*
X304483D01*
X304671Y133463D01*
D02*
G37*
G36*
X291354Y133475D02*
X295479D01*
X295679Y133463D01*
X295856Y133440D01*
X296021Y133392D01*
X296174Y133345D01*
X296292Y133298D01*
X296374Y133251D01*
X296433Y133228D01*
X296457Y133216D01*
X296610Y133110D01*
X296740Y133004D01*
X296858Y132886D01*
X296952Y132768D01*
X297034Y132674D01*
X297093Y132591D01*
X297129Y132544D01*
X297141Y132520D01*
X297223Y132355D01*
X297294Y132190D01*
X297341Y132025D01*
X297364Y131884D01*
X297388Y131754D01*
X297400Y131648D01*
Y131589D01*
Y131578D01*
Y131566D01*
Y127535D01*
X297388Y127346D01*
X297364Y127170D01*
X297317Y127016D01*
X297270Y126863D01*
X297223Y126746D01*
X297176Y126663D01*
X297152Y126604D01*
X297141Y126580D01*
X297034Y126427D01*
X296928Y126286D01*
X296810Y126168D01*
X296704Y126074D01*
X296610Y125991D01*
X296528Y125932D01*
X296481Y125897D01*
X296457Y125885D01*
X296292Y125803D01*
X296115Y125744D01*
X295950Y125696D01*
X295809Y125673D01*
X295667Y125649D01*
X295573Y125638D01*
X289433D01*
X289421Y136044D01*
X291354D01*
Y133475D01*
D02*
G37*
G36*
X282326D02*
X286451D01*
X286651Y133463D01*
X286828Y133440D01*
X286993Y133392D01*
X287146Y133345D01*
X287264Y133298D01*
X287347Y133251D01*
X287405Y133228D01*
X287429Y133216D01*
X287582Y133110D01*
X287712Y133004D01*
X287830Y132886D01*
X287924Y132768D01*
X288007Y132674D01*
X288065Y132591D01*
X288101Y132544D01*
X288113Y132520D01*
X288195Y132355D01*
X288266Y132190D01*
X288313Y132025D01*
X288337Y131884D01*
X288360Y131754D01*
X288372Y131648D01*
Y131589D01*
Y131578D01*
Y131566D01*
Y127535D01*
X288360Y127346D01*
X288337Y127170D01*
X288290Y127016D01*
X288242Y126863D01*
X288195Y126746D01*
X288148Y126663D01*
X288125Y126604D01*
X288113Y126580D01*
X288007Y126427D01*
X287901Y126286D01*
X287783Y126168D01*
X287677Y126074D01*
X287582Y125991D01*
X287500Y125932D01*
X287453Y125897D01*
X287429Y125885D01*
X287264Y125803D01*
X287087Y125744D01*
X286922Y125696D01*
X286781Y125673D01*
X286639Y125649D01*
X286545Y125638D01*
X280405D01*
X280393Y136044D01*
X282326D01*
Y133475D01*
D02*
G37*
G36*
X277246Y133463D02*
X277423Y133440D01*
X277588Y133392D01*
X277730Y133345D01*
X277847Y133298D01*
X277930Y133251D01*
X277989Y133228D01*
X278012Y133216D01*
X278166Y133110D01*
X278295Y133004D01*
X278413Y132886D01*
X278519Y132768D01*
X278602Y132674D01*
X278661Y132591D01*
X278696Y132544D01*
X278708Y132520D01*
X278790Y132355D01*
X278861Y132190D01*
X278908Y132025D01*
X278932Y131884D01*
X278955Y131754D01*
X278967Y131648D01*
Y131589D01*
Y131578D01*
Y131566D01*
Y127535D01*
X278955Y127346D01*
X278932Y127170D01*
X278885Y127016D01*
X278837Y126875D01*
X278790Y126757D01*
X278743Y126663D01*
X278720Y126616D01*
X278708Y126592D01*
X278602Y126439D01*
X278484Y126298D01*
X278366Y126180D01*
X278260Y126086D01*
X278166Y126003D01*
X278083Y125944D01*
X278036Y125909D01*
X278012Y125897D01*
X277847Y125814D01*
X277682Y125744D01*
X277517Y125696D01*
X277376Y125673D01*
X277246Y125649D01*
X277140Y125638D01*
X272921D01*
X272721Y125649D01*
X272544Y125673D01*
X272379Y125720D01*
X272237Y125767D01*
X272120Y125814D01*
X272025Y125862D01*
X271978Y125885D01*
X271955Y125897D01*
X271801Y126003D01*
X271672Y126121D01*
X271554Y126227D01*
X271448Y126345D01*
X271377Y126439D01*
X271318Y126522D01*
X271283Y126569D01*
X271271Y126592D01*
X271177Y126757D01*
X271118Y126922D01*
X271071Y127087D01*
X271035Y127229D01*
X271024Y127346D01*
X271012Y127453D01*
Y127512D01*
Y127535D01*
Y131566D01*
X271024Y131754D01*
X271047Y131931D01*
X271094Y132096D01*
X271130Y132238D01*
X271177Y132355D01*
X271224Y132450D01*
X271248Y132497D01*
X271259Y132520D01*
X271354Y132674D01*
X271471Y132815D01*
X271589Y132933D01*
X271695Y133039D01*
X271790Y133110D01*
X271872Y133169D01*
X271919Y133204D01*
X271943Y133216D01*
X272108Y133298D01*
X272285Y133369D01*
X272438Y133416D01*
X272591Y133440D01*
X272721Y133463D01*
X272827Y133475D01*
X277058D01*
X277246Y133463D01*
D02*
G37*
G36*
X289480Y123679D02*
X289668Y123644D01*
X289833Y123608D01*
X289975Y123561D01*
X290104Y123502D01*
X290187Y123467D01*
X290246Y123431D01*
X290269Y123420D01*
X290423Y123314D01*
X290576Y123207D01*
X290694Y123090D01*
X290800Y122972D01*
X290882Y122877D01*
X290941Y122795D01*
X290977Y122748D01*
X290988Y122724D01*
X291071Y122559D01*
X291142Y122382D01*
X291177Y122229D01*
X291212Y122076D01*
X291224Y121946D01*
X291236Y121840D01*
Y121770D01*
Y121758D01*
Y121746D01*
Y119778D01*
X291224Y119589D01*
X291201Y119412D01*
X291165Y119248D01*
X291118Y119106D01*
X291071Y118976D01*
X291024Y118894D01*
X291000Y118835D01*
X290988Y118811D01*
X290882Y118658D01*
X290764Y118517D01*
X290647Y118387D01*
X290529Y118293D01*
X290423Y118210D01*
X290340Y118151D01*
X290293Y118116D01*
X290269Y118104D01*
X290093Y118022D01*
X289928Y117951D01*
X289763Y117904D01*
X289610Y117868D01*
X289480Y117857D01*
X289386Y117845D01*
X289315Y117833D01*
X283505D01*
X283493Y117821D01*
X283481Y117810D01*
X283469Y117786D01*
Y117774D01*
Y117762D01*
Y115995D01*
X283481Y115948D01*
X283493Y115924D01*
X283505Y115912D01*
X289256D01*
X289279Y115924D01*
Y115971D01*
Y115983D01*
Y115995D01*
Y116725D01*
X291248D01*
X291236Y115900D01*
X291224Y115700D01*
X291201Y115523D01*
X291165Y115346D01*
X291118Y115205D01*
X291071Y115075D01*
X291024Y114993D01*
X291000Y114934D01*
X290988Y114910D01*
X290882Y114757D01*
X290764Y114616D01*
X290647Y114498D01*
X290529Y114404D01*
X290423Y114321D01*
X290340Y114262D01*
X290293Y114227D01*
X290269Y114215D01*
X290093Y114132D01*
X289928Y114062D01*
X289763Y114015D01*
X289610Y113991D01*
X289480Y113968D01*
X289386Y113956D01*
X283434D01*
X283245Y113968D01*
X283057Y113991D01*
X282892Y114038D01*
X282750Y114085D01*
X282632Y114132D01*
X282538Y114180D01*
X282491Y114203D01*
X282467Y114215D01*
X282314Y114321D01*
X282173Y114439D01*
X282055Y114545D01*
X281961Y114663D01*
X281878Y114757D01*
X281819Y114840D01*
X281784Y114887D01*
X281772Y114910D01*
X281678Y115087D01*
X281619Y115252D01*
X281560Y115417D01*
X281525Y115570D01*
X281501Y115700D01*
X281489Y115806D01*
Y115877D01*
Y115900D01*
Y117857D01*
X281501Y118057D01*
X281536Y118234D01*
X281583Y118399D01*
X281631Y118540D01*
X281689Y118670D01*
X281725Y118752D01*
X281760Y118811D01*
X281772Y118835D01*
X281878Y118988D01*
X281984Y119130D01*
X282102Y119248D01*
X282220Y119354D01*
X282314Y119424D01*
X282397Y119483D01*
X282444Y119518D01*
X282467Y119530D01*
X282632Y119613D01*
X282797Y119684D01*
X282962Y119731D01*
X283116Y119766D01*
X283245Y119790D01*
X283340Y119801D01*
X283410Y119813D01*
X289209D01*
X289244Y119801D01*
X289256D01*
X289279Y119813D01*
Y119848D01*
Y119872D01*
Y121652D01*
Y121699D01*
Y121711D01*
X289256Y121734D01*
X283516D01*
X283505Y121722D01*
X283493Y121711D01*
X283469Y121675D01*
Y121664D01*
Y121652D01*
Y120921D01*
X281501D01*
X281489Y121746D01*
X281501Y121946D01*
X281536Y122123D01*
X281583Y122300D01*
X281631Y122441D01*
X281689Y122559D01*
X281725Y122654D01*
X281760Y122701D01*
X281772Y122724D01*
X281878Y122877D01*
X281984Y123019D01*
X282102Y123137D01*
X282220Y123231D01*
X282314Y123314D01*
X282397Y123372D01*
X282444Y123408D01*
X282467Y123420D01*
X282632Y123514D01*
X282797Y123573D01*
X282962Y123620D01*
X283116Y123655D01*
X283245Y123679D01*
X283340Y123691D01*
X289291D01*
X289480Y123679D01*
D02*
G37*
G36*
X326180Y113956D02*
X324235D01*
Y120768D01*
X320700Y116572D01*
X317188Y120780D01*
Y113956D01*
X315220D01*
Y123691D01*
X317306D01*
X320700Y119625D01*
X324118Y123691D01*
X326180D01*
Y113956D01*
D02*
G37*
G36*
X302444Y115900D02*
X302432Y115700D01*
X302409Y115523D01*
X302362Y115346D01*
X302314Y115205D01*
X302267Y115075D01*
X302220Y114993D01*
X302197Y114934D01*
X302185Y114910D01*
X302079Y114757D01*
X301961Y114616D01*
X301843Y114498D01*
X301725Y114404D01*
X301631Y114321D01*
X301548Y114262D01*
X301501Y114227D01*
X301478Y114215D01*
X301301Y114132D01*
X301136Y114062D01*
X300971Y114015D01*
X300818Y113991D01*
X300688Y113968D01*
X300582Y113956D01*
X294642D01*
X294442Y113968D01*
X294265Y113991D01*
X294100Y114038D01*
X293958Y114085D01*
X293841Y114132D01*
X293746Y114180D01*
X293699Y114203D01*
X293675Y114215D01*
X293522Y114321D01*
X293381Y114439D01*
X293263Y114545D01*
X293157Y114663D01*
X293074Y114757D01*
X293015Y114840D01*
X292980Y114887D01*
X292968Y114910D01*
X292874Y115087D01*
X292815Y115252D01*
X292768Y115417D01*
X292733Y115570D01*
X292709Y115700D01*
X292697Y115806D01*
Y115877D01*
Y115900D01*
Y123691D01*
X294654D01*
X294677Y115995D01*
X294666Y115959D01*
X294677Y115948D01*
X294689Y115924D01*
X294713Y115912D01*
X300452D01*
X300476Y115924D01*
X300488Y115971D01*
Y115983D01*
Y115995D01*
Y123691D01*
X302444D01*
Y115900D01*
D02*
G37*
G36*
X311896Y123679D02*
X312073Y123644D01*
X312250Y123608D01*
X312391Y123561D01*
X312521Y123502D01*
X312603Y123467D01*
X312662Y123431D01*
X312686Y123420D01*
X312839Y123314D01*
X312980Y123207D01*
X313098Y123090D01*
X313204Y122972D01*
X313287Y122877D01*
X313346Y122795D01*
X313381Y122748D01*
X313393Y122724D01*
X313475Y122559D01*
X313546Y122382D01*
X313593Y122229D01*
X313617Y122076D01*
X313640Y121946D01*
X313652Y121840D01*
Y121770D01*
Y121758D01*
Y121746D01*
Y115900D01*
X313640Y115700D01*
X313617Y115523D01*
X313570Y115346D01*
X313522Y115205D01*
X313475Y115075D01*
X313428Y114993D01*
X313405Y114934D01*
X313393Y114910D01*
X313287Y114757D01*
X313169Y114616D01*
X313051Y114498D01*
X312933Y114404D01*
X312839Y114321D01*
X312756Y114262D01*
X312709Y114227D01*
X312686Y114215D01*
X312509Y114132D01*
X312344Y114062D01*
X312179Y114015D01*
X312026Y113991D01*
X311896Y113968D01*
X311790Y113956D01*
X305850D01*
X305650Y113968D01*
X305473Y113991D01*
X305308Y114038D01*
X305166Y114085D01*
X305049Y114132D01*
X304954Y114180D01*
X304907Y114203D01*
X304884Y114215D01*
X304730Y114321D01*
X304589Y114439D01*
X304471Y114545D01*
X304365Y114663D01*
X304282Y114757D01*
X304224Y114840D01*
X304188Y114887D01*
X304177Y114910D01*
X304082Y115087D01*
X304023Y115252D01*
X303976Y115417D01*
X303941Y115570D01*
X303917Y115700D01*
X303905Y115806D01*
Y115877D01*
Y115900D01*
Y121746D01*
X303917Y121946D01*
X303953Y122123D01*
X303988Y122300D01*
X304035Y122441D01*
X304094Y122559D01*
X304129Y122654D01*
X304165Y122701D01*
X304177Y122724D01*
X304282Y122877D01*
X304400Y123019D01*
X304518Y123137D01*
X304636Y123231D01*
X304730Y123314D01*
X304813Y123372D01*
X304860Y123408D01*
X304884Y123420D01*
X305049Y123514D01*
X305214Y123573D01*
X305379Y123620D01*
X305520Y123655D01*
X305661Y123679D01*
X305756Y123691D01*
X311696D01*
X311896Y123679D01*
D02*
G37*
G36*
X279981Y113956D02*
X271000D01*
X271012Y115900D01*
X278001Y115912D01*
X278012Y117845D01*
X272367Y117833D01*
X272379Y119790D01*
X278001Y119813D01*
X278012Y121746D01*
X271000Y121734D01*
X271012Y123691D01*
X279981D01*
Y113956D01*
D02*
G37*
G36*
X269017Y32000D02*
X266172D01*
Y34828D01*
X269017D01*
Y32000D01*
D02*
G37*
G36*
X156865Y98529D02*
X154547D01*
X153321Y97366D01*
X156865Y95229D01*
Y93290D01*
X152230Y96293D01*
X149173Y93506D01*
Y95436D01*
X152591Y98529D01*
X149173D01*
Y100071D01*
X156865D01*
Y98529D01*
D02*
G37*
G36*
Y87213D02*
X155566D01*
Y90919D01*
X153538D01*
Y87682D01*
X152230D01*
Y90919D01*
X150481D01*
Y87402D01*
X149173D01*
Y92460D01*
X156865D01*
Y87213D01*
D02*
G37*
G36*
X153637Y83975D02*
X156865D01*
Y82434D01*
X153646D01*
X149173Y79656D01*
Y81442D01*
X151256Y82596D01*
X151491Y82722D01*
X151698Y82839D01*
X151878Y82930D01*
X152041Y83011D01*
X152167Y83083D01*
X152221Y83101D01*
X152266Y83128D01*
X152302Y83146D01*
X152329Y83155D01*
X152338Y83164D01*
X152347D01*
Y83182D01*
X152158Y83272D01*
X151968Y83362D01*
X151779Y83462D01*
X151608Y83552D01*
X151464Y83633D01*
X151400Y83660D01*
X151346Y83696D01*
X151310Y83714D01*
X151274Y83732D01*
X151256Y83750D01*
X151247D01*
X149173Y84922D01*
Y86735D01*
X153637Y83975D01*
D02*
G37*
G36*
X156865Y77330D02*
X153970D01*
Y76158D01*
X153961Y75896D01*
X153943Y75644D01*
X153916Y75418D01*
X153880Y75202D01*
X153835Y75013D01*
X153781Y74832D01*
X153736Y74670D01*
X153673Y74535D01*
X153619Y74408D01*
X153574Y74300D01*
X153519Y74210D01*
X153474Y74138D01*
X153438Y74075D01*
X153411Y74039D01*
X153393Y74012D01*
X153384Y74003D01*
X153267Y73877D01*
X153132Y73768D01*
X152996Y73678D01*
X152843Y73597D01*
X152690Y73525D01*
X152537Y73471D01*
X152392Y73426D01*
X152239Y73390D01*
X152104Y73362D01*
X151968Y73335D01*
X151851Y73317D01*
X151752Y73308D01*
X151662Y73299D01*
X151599D01*
X151563D01*
X151545D01*
X151328Y73308D01*
X151130Y73326D01*
X150950Y73362D01*
X150769Y73408D01*
X150616Y73462D01*
X150472Y73516D01*
X150336Y73579D01*
X150219Y73642D01*
X150120Y73714D01*
X150030Y73777D01*
X149949Y73831D01*
X149886Y73885D01*
X149840Y73931D01*
X149804Y73967D01*
X149786Y73985D01*
X149777Y73994D01*
X149669Y74129D01*
X149579Y74282D01*
X149498Y74445D01*
X149426Y74625D01*
X149372Y74796D01*
X149318Y74977D01*
X149245Y75328D01*
X149227Y75500D01*
X149209Y75653D01*
X149191Y75797D01*
X149182Y75914D01*
X149173Y76013D01*
Y78872D01*
X156865D01*
Y77330D01*
D02*
G37*
G36*
Y71271D02*
X155133Y70639D01*
Y67664D01*
X156865Y66996D01*
Y65301D01*
X149173Y68394D01*
Y69927D01*
X156865Y72921D01*
Y71271D01*
D02*
G37*
G36*
Y61478D02*
X156856Y61163D01*
X156820Y60865D01*
X156775Y60585D01*
X156702Y60333D01*
X156630Y60099D01*
X156549Y59882D01*
X156450Y59693D01*
X156360Y59521D01*
X156270Y59368D01*
X156170Y59242D01*
X156089Y59125D01*
X156008Y59043D01*
X155945Y58971D01*
X155900Y58917D01*
X155864Y58890D01*
X155855Y58881D01*
X155656Y58737D01*
X155449Y58602D01*
X155224Y58493D01*
X154998Y58394D01*
X154764Y58313D01*
X154529Y58250D01*
X154304Y58196D01*
X154087Y58151D01*
X153880Y58115D01*
X153691Y58088D01*
X153519Y58070D01*
X153366Y58052D01*
X153249D01*
X153159Y58043D01*
X153123D01*
X153096D01*
X153087D01*
X153078D01*
X152726Y58052D01*
X152392Y58079D01*
X152077Y58124D01*
X151788Y58187D01*
X151518Y58268D01*
X151265Y58358D01*
X151031Y58457D01*
X150823Y58575D01*
X150625Y58701D01*
X150445Y58836D01*
X150273Y58980D01*
X150129Y59125D01*
X149994Y59278D01*
X149867Y59431D01*
X149759Y59594D01*
X149660Y59747D01*
X149579Y59909D01*
X149498Y60072D01*
X149435Y60225D01*
X149381Y60378D01*
X149291Y60667D01*
X149263Y60802D01*
X149236Y60928D01*
X149218Y61036D01*
X149200Y61144D01*
X149191Y61235D01*
X149182Y61316D01*
X149173Y61379D01*
Y64472D01*
X156865D01*
Y61478D01*
D02*
G37*
G36*
X153447Y57123D02*
X153790Y57105D01*
X154115Y57069D01*
X154412Y57033D01*
X154683Y56979D01*
X154926Y56925D01*
X155152Y56861D01*
X155350Y56798D01*
X155521Y56744D01*
X155666Y56681D01*
X155792Y56627D01*
X155891Y56573D01*
X155972Y56537D01*
X156026Y56501D01*
X156062Y56483D01*
X156071Y56474D01*
X156234Y56338D01*
X156378Y56194D01*
X156504Y56050D01*
X156612Y55888D01*
X156693Y55725D01*
X156775Y55563D01*
X156838Y55401D01*
X156883Y55247D01*
X156919Y55103D01*
X156955Y54968D01*
X156973Y54842D01*
X156982Y54733D01*
X156991Y54652D01*
X157000Y54580D01*
Y54526D01*
X156991Y54301D01*
X156964Y54084D01*
X156910Y53886D01*
X156856Y53696D01*
X156784Y53525D01*
X156702Y53363D01*
X156621Y53228D01*
X156531Y53092D01*
X156450Y52984D01*
X156369Y52885D01*
X156288Y52795D01*
X156215Y52732D01*
X156152Y52677D01*
X156107Y52632D01*
X156080Y52614D01*
X156071Y52605D01*
X155882Y52488D01*
X155674Y52380D01*
X155449Y52290D01*
X155206Y52218D01*
X154962Y52146D01*
X154710Y52091D01*
X154457Y52046D01*
X154214Y52010D01*
X153988Y51983D01*
X153772Y51965D01*
X153574Y51947D01*
X153402Y51938D01*
X153267Y51929D01*
X153204D01*
X153159D01*
X153123D01*
X153096D01*
X153078D01*
X153069D01*
X152708Y51938D01*
X152365Y51956D01*
X152059Y51992D01*
X151761Y52028D01*
X151500Y52082D01*
X151256Y52137D01*
X151040Y52191D01*
X150841Y52254D01*
X150670Y52317D01*
X150517Y52371D01*
X150400Y52425D01*
X150291Y52479D01*
X150210Y52515D01*
X150156Y52551D01*
X150120Y52569D01*
X150111Y52578D01*
X149940Y52705D01*
X149786Y52849D01*
X149660Y52993D01*
X149552Y53155D01*
X149453Y53318D01*
X149372Y53480D01*
X149309Y53642D01*
X149254Y53805D01*
X149218Y53949D01*
X149191Y54093D01*
X149164Y54219D01*
X149155Y54328D01*
X149146Y54418D01*
X149137Y54490D01*
Y54544D01*
X149146Y54778D01*
X149182Y54995D01*
X149227Y55193D01*
X149291Y55383D01*
X149363Y55554D01*
X149444Y55716D01*
X149525Y55861D01*
X149615Y55987D01*
X149705Y56095D01*
X149795Y56194D01*
X149877Y56284D01*
X149949Y56347D01*
X150012Y56402D01*
X150057Y56447D01*
X150093Y56465D01*
X150102Y56474D01*
X150291Y56591D01*
X150508Y56690D01*
X150733Y56780D01*
X150968Y56852D01*
X151211Y56915D01*
X151464Y56970D01*
X151707Y57015D01*
X151941Y57051D01*
X152167Y57078D01*
X152383Y57096D01*
X152573Y57114D01*
X152735Y57123D01*
X152879D01*
X152933Y57132D01*
X152978D01*
X153014D01*
X153041D01*
X153060D01*
X153069D01*
X153447Y57123D01*
D02*
G37*
G36*
X157000Y192866D02*
X154683D01*
X153456Y191703D01*
X157000Y189566D01*
Y187627D01*
X152365Y190630D01*
X149309Y187844D01*
Y189773D01*
X152726Y192866D01*
X149309D01*
Y194408D01*
X157000D01*
Y192866D01*
D02*
G37*
G36*
Y181550D02*
X155702D01*
Y185256D01*
X153673D01*
Y182019D01*
X152365D01*
Y185256D01*
X150616D01*
Y181739D01*
X149309D01*
Y186798D01*
X157000D01*
Y181550D01*
D02*
G37*
G36*
X153772Y178313D02*
X157000D01*
Y176771D01*
X153781D01*
X149309Y173994D01*
Y175779D01*
X151391Y176933D01*
X151626Y177059D01*
X151833Y177177D01*
X152014Y177267D01*
X152176Y177348D01*
X152302Y177420D01*
X152356Y177438D01*
X152401Y177465D01*
X152437Y177483D01*
X152465Y177492D01*
X152473Y177501D01*
X152483D01*
Y177519D01*
X152293Y177610D01*
X152104Y177700D01*
X151914Y177799D01*
X151743Y177889D01*
X151599Y177970D01*
X151536Y177997D01*
X151482Y178033D01*
X151446Y178051D01*
X151410Y178069D01*
X151391Y178087D01*
X151382D01*
X149309Y179260D01*
Y181072D01*
X153772Y178313D01*
D02*
G37*
G36*
X157000Y171667D02*
X154106D01*
Y170495D01*
X154096Y170234D01*
X154079Y169981D01*
X154052Y169756D01*
X154015Y169539D01*
X153970Y169350D01*
X153916Y169170D01*
X153871Y169007D01*
X153808Y168872D01*
X153754Y168746D01*
X153709Y168638D01*
X153655Y168547D01*
X153610Y168475D01*
X153574Y168412D01*
X153546Y168376D01*
X153528Y168349D01*
X153519Y168340D01*
X153402Y168214D01*
X153267Y168106D01*
X153132Y168015D01*
X152978Y167934D01*
X152825Y167862D01*
X152672Y167808D01*
X152528Y167763D01*
X152374Y167727D01*
X152239Y167700D01*
X152104Y167673D01*
X151987Y167655D01*
X151887Y167646D01*
X151797Y167637D01*
X151734D01*
X151698D01*
X151680D01*
X151464Y167646D01*
X151265Y167664D01*
X151085Y167700D01*
X150905Y167745D01*
X150751Y167799D01*
X150607Y167853D01*
X150472Y167916D01*
X150354Y167979D01*
X150255Y168051D01*
X150165Y168115D01*
X150084Y168169D01*
X150021Y168223D01*
X149976Y168268D01*
X149940Y168304D01*
X149922Y168322D01*
X149913Y168331D01*
X149804Y168466D01*
X149714Y168619D01*
X149633Y168782D01*
X149561Y168962D01*
X149507Y169133D01*
X149453Y169314D01*
X149381Y169666D01*
X149363Y169837D01*
X149345Y169990D01*
X149326Y170134D01*
X149318Y170252D01*
X149309Y170351D01*
Y173209D01*
X157000D01*
Y171667D01*
D02*
G37*
G36*
Y165608D02*
X155269Y164977D01*
Y162001D01*
X157000Y161334D01*
Y159639D01*
X149309Y162731D01*
Y164264D01*
X157000Y167258D01*
Y165608D01*
D02*
G37*
G36*
Y155815D02*
X156991Y155500D01*
X156955Y155202D01*
X156910Y154923D01*
X156838Y154670D01*
X156766Y154436D01*
X156684Y154219D01*
X156585Y154030D01*
X156495Y153859D01*
X156405Y153705D01*
X156306Y153579D01*
X156225Y153462D01*
X156143Y153381D01*
X156080Y153309D01*
X156035Y153255D01*
X155999Y153228D01*
X155990Y153218D01*
X155792Y153074D01*
X155584Y152939D01*
X155359Y152831D01*
X155133Y152732D01*
X154899Y152650D01*
X154665Y152587D01*
X154439Y152533D01*
X154223Y152488D01*
X154015Y152452D01*
X153826Y152425D01*
X153655Y152407D01*
X153501Y152389D01*
X153384D01*
X153294Y152380D01*
X153258D01*
X153231D01*
X153222D01*
X153213D01*
X152861Y152389D01*
X152528Y152416D01*
X152212Y152461D01*
X151923Y152524D01*
X151653Y152605D01*
X151400Y152696D01*
X151166Y152795D01*
X150959Y152912D01*
X150760Y153038D01*
X150580Y153173D01*
X150409Y153318D01*
X150264Y153462D01*
X150129Y153615D01*
X150003Y153769D01*
X149895Y153931D01*
X149795Y154084D01*
X149714Y154246D01*
X149633Y154409D01*
X149570Y154562D01*
X149516Y154715D01*
X149426Y155004D01*
X149399Y155139D01*
X149372Y155265D01*
X149354Y155374D01*
X149336Y155482D01*
X149326Y155572D01*
X149318Y155653D01*
X149309Y155716D01*
Y158809D01*
X157000D01*
Y155815D01*
D02*
G37*
G36*
X152500Y150892D02*
X152437Y150694D01*
X152356Y150513D01*
X152284Y150351D01*
X152221Y150216D01*
X152194Y150153D01*
X152167Y150108D01*
X152149Y150072D01*
X152131Y150044D01*
X152122Y150027D01*
Y150017D01*
X152005Y149828D01*
X151887Y149648D01*
X151779Y149486D01*
X151671Y149350D01*
X151581Y149242D01*
X151509Y149161D01*
X151464Y149107D01*
X151446Y149089D01*
X157000D01*
Y147592D01*
X149272D01*
Y148791D01*
X149534Y148908D01*
X149759Y149044D01*
X149967Y149188D01*
X150129Y149332D01*
X150210Y149404D01*
X150273Y149458D01*
X150327Y149522D01*
X150372Y149567D01*
X150409Y149612D01*
X150436Y149639D01*
X150445Y149657D01*
X150454Y149666D01*
X150616Y149900D01*
X150769Y150135D01*
X150905Y150378D01*
X151022Y150604D01*
X151067Y150703D01*
X151112Y150793D01*
X151148Y150883D01*
X151184Y150955D01*
X151202Y151009D01*
X151220Y151054D01*
X151238Y151081D01*
Y151090D01*
X152564D01*
X152500Y150892D01*
D02*
G37*
G36*
X73379Y114990D02*
X73577Y114980D01*
X73764Y114949D01*
X73941Y114907D01*
X74108Y114865D01*
X74264Y114813D01*
X74410Y114761D01*
X74535Y114709D01*
X74649Y114657D01*
X74754Y114605D01*
X74837Y114553D01*
X74910Y114511D01*
X74972Y114469D01*
X75014Y114438D01*
X75035Y114428D01*
X75045Y114417D01*
X75181Y114303D01*
X75295Y114178D01*
X75410Y114043D01*
X75503Y113897D01*
X75670Y113616D01*
X75805Y113334D01*
X75858Y113199D01*
X75899Y113074D01*
X75930Y112959D01*
X75962Y112866D01*
X75982Y112793D01*
X76003Y112730D01*
X76014Y112689D01*
Y112678D01*
X74389Y112397D01*
X74358Y112585D01*
X74306Y112762D01*
X74243Y112907D01*
X74181Y113032D01*
X74118Y113126D01*
X74066Y113199D01*
X74025Y113241D01*
X74014Y113251D01*
X73889Y113355D01*
X73754Y113439D01*
X73618Y113491D01*
X73493Y113532D01*
X73379Y113553D01*
X73296Y113574D01*
X73212D01*
X73046Y113563D01*
X72900Y113532D01*
X72765Y113491D01*
X72660Y113449D01*
X72577Y113397D01*
X72515Y113355D01*
X72473Y113324D01*
X72463Y113314D01*
X72369Y113209D01*
X72296Y113095D01*
X72254Y112980D01*
X72213Y112866D01*
X72192Y112762D01*
X72181Y112678D01*
Y112626D01*
Y112616D01*
Y112605D01*
X72202Y112408D01*
X72244Y112231D01*
X72317Y112085D01*
X72390Y111970D01*
X72463Y111876D01*
X72535Y111804D01*
X72577Y111762D01*
X72598Y111751D01*
X72681Y111699D01*
X72765Y111658D01*
X72973Y111585D01*
X73181Y111533D01*
X73400Y111502D01*
X73587Y111481D01*
X73671Y111470D01*
X73743Y111460D01*
X73889D01*
X74066Y110148D01*
X73264D01*
X73119Y110137D01*
X72983Y110127D01*
X72869Y110096D01*
X72765Y110064D01*
X72681Y110033D01*
X72619Y110012D01*
X72577Y109992D01*
X72567Y109981D01*
X72463Y109919D01*
X72369Y109835D01*
X72285Y109762D01*
X72223Y109690D01*
X72171Y109617D01*
X72129Y109565D01*
X72108Y109523D01*
X72098Y109512D01*
X72046Y109398D01*
X72004Y109273D01*
X71973Y109158D01*
X71952Y109054D01*
X71942Y108961D01*
X71931Y108888D01*
Y108846D01*
Y108825D01*
X71942Y108679D01*
X71952Y108544D01*
X71983Y108419D01*
X72004Y108315D01*
X72035Y108221D01*
X72067Y108159D01*
X72077Y108106D01*
X72088Y108096D01*
X72150Y107982D01*
X72223Y107877D01*
X72296Y107784D01*
X72369Y107711D01*
X72431Y107648D01*
X72483Y107607D01*
X72515Y107575D01*
X72525Y107565D01*
X72629Y107502D01*
X72744Y107461D01*
X72848Y107419D01*
X72952Y107398D01*
X73035Y107388D01*
X73108Y107378D01*
X73171D01*
X73358Y107388D01*
X73535Y107430D01*
X73681Y107482D01*
X73806Y107544D01*
X73900Y107596D01*
X73973Y107648D01*
X74025Y107690D01*
X74035Y107700D01*
X74150Y107836D01*
X74233Y107992D01*
X74306Y108159D01*
X74358Y108315D01*
X74399Y108450D01*
X74420Y108565D01*
X74431Y108606D01*
X74441Y108638D01*
Y108659D01*
Y108669D01*
X76139Y108471D01*
X76087Y108179D01*
X76014Y107909D01*
X75930Y107680D01*
X75847Y107471D01*
X75805Y107388D01*
X75764Y107315D01*
X75722Y107242D01*
X75691Y107190D01*
X75670Y107149D01*
X75649Y107117D01*
X75628Y107096D01*
Y107086D01*
X75462Y106888D01*
X75295Y106721D01*
X75118Y106576D01*
X74951Y106451D01*
X74806Y106357D01*
X74691Y106294D01*
X74649Y106274D01*
X74618Y106253D01*
X74597Y106242D01*
X74587D01*
X74347Y106149D01*
X74097Y106076D01*
X73858Y106034D01*
X73639Y105992D01*
X73441Y105972D01*
X73358D01*
X73296Y105961D01*
X73160D01*
X72827Y105972D01*
X72515Y106013D01*
X72244Y106065D01*
X72119Y106097D01*
X72015Y106128D01*
X71911Y106149D01*
X71817Y106180D01*
X71744Y106211D01*
X71681Y106232D01*
X71629Y106253D01*
X71588Y106274D01*
X71567Y106284D01*
X71557D01*
X71317Y106419D01*
X71109Y106576D01*
X70932Y106732D01*
X70786Y106888D01*
X70661Y107023D01*
X70578Y107138D01*
X70557Y107180D01*
X70536Y107211D01*
X70515Y107232D01*
Y107242D01*
X70390Y107492D01*
X70307Y107742D01*
X70244Y108002D01*
X70192Y108231D01*
X70182Y108346D01*
X70171Y108440D01*
X70161Y108533D01*
Y108606D01*
X70151Y108669D01*
Y108711D01*
Y108742D01*
Y108752D01*
Y108898D01*
X70171Y109033D01*
X70223Y109294D01*
X70296Y109533D01*
X70380Y109731D01*
X70463Y109887D01*
X70505Y109950D01*
X70536Y110002D01*
X70567Y110054D01*
X70588Y110085D01*
X70598Y110096D01*
X70609Y110106D01*
X70796Y110304D01*
X70994Y110460D01*
X71202Y110585D01*
X71411Y110679D01*
X71588Y110752D01*
X71671Y110783D01*
X71733Y110804D01*
X71786Y110814D01*
X71838Y110825D01*
X71859Y110835D01*
X71869D01*
X71619Y110950D01*
X71400Y111064D01*
X71213Y111200D01*
X71067Y111314D01*
X70953Y111429D01*
X70869Y111512D01*
X70827Y111574D01*
X70807Y111585D01*
Y111595D01*
X70692Y111783D01*
X70598Y111980D01*
X70536Y112168D01*
X70494Y112345D01*
X70473Y112491D01*
X70453Y112605D01*
Y112647D01*
Y112678D01*
Y112699D01*
Y112710D01*
X70463Y112949D01*
X70505Y113178D01*
X70557Y113376D01*
X70619Y113553D01*
X70682Y113688D01*
X70734Y113793D01*
X70755Y113834D01*
X70775Y113865D01*
X70786Y113876D01*
Y113886D01*
X70921Y114074D01*
X71077Y114230D01*
X71234Y114376D01*
X71379Y114490D01*
X71525Y114584D01*
X71629Y114647D01*
X71671Y114667D01*
X71702Y114688D01*
X71723Y114699D01*
X71733D01*
X71973Y114803D01*
X72213Y114876D01*
X72463Y114928D01*
X72681Y114959D01*
X72879Y114990D01*
X72962D01*
X73035Y115001D01*
X73171D01*
X73379Y114990D01*
D02*
G37*
G36*
X62902D02*
X63100Y114980D01*
X63288Y114949D01*
X63465Y114907D01*
X63631Y114865D01*
X63788Y114813D01*
X63933Y114761D01*
X64058Y114709D01*
X64173Y114657D01*
X64277Y114605D01*
X64360Y114553D01*
X64433Y114511D01*
X64496Y114469D01*
X64537Y114438D01*
X64558Y114428D01*
X64569Y114417D01*
X64704Y114303D01*
X64819Y114178D01*
X64933Y114043D01*
X65027Y113897D01*
X65194Y113616D01*
X65329Y113334D01*
X65381Y113199D01*
X65423Y113074D01*
X65454Y112959D01*
X65485Y112866D01*
X65506Y112793D01*
X65527Y112730D01*
X65537Y112689D01*
Y112678D01*
X63913Y112397D01*
X63881Y112585D01*
X63829Y112762D01*
X63767Y112907D01*
X63704Y113032D01*
X63642Y113126D01*
X63590Y113199D01*
X63548Y113241D01*
X63538Y113251D01*
X63413Y113355D01*
X63277Y113439D01*
X63142Y113491D01*
X63017Y113532D01*
X62902Y113553D01*
X62819Y113574D01*
X62736D01*
X62569Y113563D01*
X62423Y113532D01*
X62288Y113491D01*
X62184Y113449D01*
X62101Y113397D01*
X62038Y113355D01*
X61996Y113324D01*
X61986Y113314D01*
X61892Y113209D01*
X61819Y113095D01*
X61778Y112980D01*
X61736Y112866D01*
X61715Y112762D01*
X61705Y112678D01*
Y112626D01*
Y112616D01*
Y112605D01*
X61726Y112408D01*
X61767Y112231D01*
X61840Y112085D01*
X61913Y111970D01*
X61986Y111876D01*
X62059Y111804D01*
X62101Y111762D01*
X62121Y111751D01*
X62205Y111699D01*
X62288Y111658D01*
X62496Y111585D01*
X62705Y111533D01*
X62923Y111502D01*
X63111Y111481D01*
X63194Y111470D01*
X63267Y111460D01*
X63413D01*
X63590Y110148D01*
X62788D01*
X62642Y110137D01*
X62507Y110127D01*
X62392Y110096D01*
X62288Y110064D01*
X62205Y110033D01*
X62142Y110012D01*
X62101Y109992D01*
X62090Y109981D01*
X61986Y109919D01*
X61892Y109835D01*
X61809Y109762D01*
X61747Y109690D01*
X61694Y109617D01*
X61653Y109565D01*
X61632Y109523D01*
X61621Y109512D01*
X61569Y109398D01*
X61528Y109273D01*
X61497Y109158D01*
X61476Y109054D01*
X61465Y108961D01*
X61455Y108888D01*
Y108846D01*
Y108825D01*
X61465Y108679D01*
X61476Y108544D01*
X61507Y108419D01*
X61528Y108315D01*
X61559Y108221D01*
X61590Y108159D01*
X61601Y108106D01*
X61611Y108096D01*
X61674Y107982D01*
X61747Y107877D01*
X61819Y107784D01*
X61892Y107711D01*
X61955Y107648D01*
X62007Y107607D01*
X62038Y107575D01*
X62049Y107565D01*
X62153Y107502D01*
X62267Y107461D01*
X62371Y107419D01*
X62476Y107398D01*
X62559Y107388D01*
X62632Y107378D01*
X62694D01*
X62882Y107388D01*
X63059Y107430D01*
X63204Y107482D01*
X63329Y107544D01*
X63423Y107596D01*
X63496Y107648D01*
X63548Y107690D01*
X63559Y107700D01*
X63673Y107836D01*
X63756Y107992D01*
X63829Y108159D01*
X63881Y108315D01*
X63923Y108450D01*
X63944Y108565D01*
X63954Y108606D01*
X63965Y108638D01*
Y108659D01*
Y108669D01*
X65662Y108471D01*
X65610Y108179D01*
X65537Y107909D01*
X65454Y107680D01*
X65371Y107471D01*
X65329Y107388D01*
X65287Y107315D01*
X65246Y107242D01*
X65214Y107190D01*
X65194Y107149D01*
X65173Y107117D01*
X65152Y107096D01*
Y107086D01*
X64985Y106888D01*
X64819Y106721D01*
X64642Y106576D01*
X64475Y106451D01*
X64329Y106357D01*
X64215Y106294D01*
X64173Y106274D01*
X64142Y106253D01*
X64121Y106242D01*
X64110D01*
X63871Y106149D01*
X63621Y106076D01*
X63382Y106034D01*
X63163Y105992D01*
X62965Y105972D01*
X62882D01*
X62819Y105961D01*
X62684D01*
X62351Y105972D01*
X62038Y106013D01*
X61767Y106065D01*
X61642Y106097D01*
X61538Y106128D01*
X61434Y106149D01*
X61340Y106180D01*
X61267Y106211D01*
X61205Y106232D01*
X61153Y106253D01*
X61111Y106274D01*
X61090Y106284D01*
X61080D01*
X60841Y106419D01*
X60632Y106576D01*
X60455Y106732D01*
X60309Y106888D01*
X60184Y107023D01*
X60101Y107138D01*
X60080Y107180D01*
X60059Y107211D01*
X60039Y107232D01*
Y107242D01*
X59914Y107492D01*
X59830Y107742D01*
X59768Y108002D01*
X59716Y108231D01*
X59705Y108346D01*
X59695Y108440D01*
X59685Y108533D01*
Y108606D01*
X59674Y108669D01*
Y108711D01*
Y108742D01*
Y108752D01*
Y108898D01*
X59695Y109033D01*
X59747Y109294D01*
X59820Y109533D01*
X59903Y109731D01*
X59987Y109887D01*
X60028Y109950D01*
X60059Y110002D01*
X60091Y110054D01*
X60111Y110085D01*
X60122Y110096D01*
X60132Y110106D01*
X60320Y110304D01*
X60518Y110460D01*
X60726Y110585D01*
X60934Y110679D01*
X61111Y110752D01*
X61195Y110783D01*
X61257Y110804D01*
X61309Y110814D01*
X61361Y110825D01*
X61382Y110835D01*
X61392D01*
X61143Y110950D01*
X60924Y111064D01*
X60736Y111200D01*
X60591Y111314D01*
X60476Y111429D01*
X60393Y111512D01*
X60351Y111574D01*
X60330Y111585D01*
Y111595D01*
X60216Y111783D01*
X60122Y111980D01*
X60059Y112168D01*
X60018Y112345D01*
X59997Y112491D01*
X59976Y112605D01*
Y112647D01*
Y112678D01*
Y112699D01*
Y112710D01*
X59987Y112949D01*
X60028Y113178D01*
X60080Y113376D01*
X60143Y113553D01*
X60205Y113688D01*
X60257Y113793D01*
X60278Y113834D01*
X60299Y113865D01*
X60309Y113876D01*
Y113886D01*
X60445Y114074D01*
X60601Y114230D01*
X60757Y114376D01*
X60903Y114490D01*
X61049Y114584D01*
X61153Y114647D01*
X61195Y114667D01*
X61226Y114688D01*
X61247Y114699D01*
X61257D01*
X61497Y114803D01*
X61736Y114876D01*
X61986Y114928D01*
X62205Y114959D01*
X62403Y114990D01*
X62486D01*
X62559Y115001D01*
X62694D01*
X62902Y114990D01*
D02*
G37*
G36*
X25079Y110752D02*
X28120Y106117D01*
X25974D01*
X24496Y108398D01*
X24308Y108711D01*
X24225Y108867D01*
X24152Y109002D01*
X24090Y109127D01*
X24048Y109221D01*
X24017Y109283D01*
X24006Y109294D01*
Y109304D01*
X23985D01*
X23892Y109117D01*
X23808Y108940D01*
X23725Y108794D01*
X23652Y108659D01*
X23590Y108544D01*
X23537Y108471D01*
X23506Y108419D01*
X23496Y108398D01*
X22017Y106117D01*
X19861D01*
X22902Y110679D01*
X20132Y115001D01*
X22225D01*
X23506Y112887D01*
X23683Y112574D01*
X23756Y112428D01*
X23819Y112293D01*
X23871Y112178D01*
X23912Y112095D01*
X23933Y112043D01*
X23944Y112022D01*
X23975D01*
X24058Y112210D01*
X24141Y112376D01*
X24225Y112533D01*
X24298Y112668D01*
X24360Y112772D01*
X24412Y112855D01*
X24444Y112907D01*
X24454Y112928D01*
X25745Y115001D01*
X27838D01*
X25079Y110752D01*
D02*
G37*
G36*
X46855Y106117D02*
X45199D01*
Y113116D01*
X43241Y106117D01*
X41522D01*
X39585Y113116D01*
Y106117D01*
X37930D01*
Y115001D01*
X40616D01*
X42376Y108711D01*
X44178Y115001D01*
X46855D01*
Y106117D01*
D02*
G37*
G36*
X55936D02*
X54061D01*
X50916Y115001D01*
X52822D01*
X54509Y109825D01*
X54592Y109575D01*
X54665Y109315D01*
X54738Y109065D01*
X54800Y108835D01*
X54821Y108731D01*
X54852Y108627D01*
X54873Y108544D01*
X54894Y108471D01*
X54904Y108408D01*
X54915Y108367D01*
X54925Y108336D01*
Y108325D01*
X54946D01*
X55019Y108617D01*
X55092Y108898D01*
X55154Y109158D01*
X55227Y109377D01*
X55259Y109481D01*
X55279Y109565D01*
X55311Y109648D01*
X55332Y109710D01*
X55352Y109762D01*
X55363Y109804D01*
X55373Y109825D01*
Y109835D01*
X57112Y115001D01*
X59060D01*
X55936Y106117D01*
D02*
G37*
G36*
X68713D02*
X66974D01*
Y107857D01*
X68713D01*
Y106117D01*
D02*
G37*
G36*
X36972D02*
X35066D01*
X34337Y108117D01*
X30900D01*
X30130Y106117D01*
X28172D01*
X31744Y115001D01*
X33514D01*
X36972Y106117D01*
D02*
G37*
G36*
X63782Y104174D02*
X64012Y104164D01*
X64230Y104133D01*
X64439Y104091D01*
X64636Y104049D01*
X64824Y104008D01*
X65001Y103955D01*
X65157Y103903D01*
X65303Y103841D01*
X65428Y103789D01*
X65542Y103747D01*
X65636Y103706D01*
X65709Y103664D01*
X65771Y103633D01*
X65803Y103622D01*
X65813Y103612D01*
X65990Y103497D01*
X66157Y103383D01*
X66313Y103258D01*
X66459Y103122D01*
X66594Y102997D01*
X66719Y102862D01*
X66834Y102727D01*
X66938Y102602D01*
X67032Y102487D01*
X67115Y102373D01*
X67177Y102279D01*
X67229Y102185D01*
X67281Y102123D01*
X67313Y102060D01*
X67323Y102029D01*
X67334Y102018D01*
X67427Y101821D01*
X67511Y101623D01*
X67583Y101414D01*
X67636Y101206D01*
X67740Y100800D01*
X67771Y100613D01*
X67802Y100425D01*
X67823Y100259D01*
X67833Y100102D01*
X67844Y99967D01*
X67854Y99842D01*
X67865Y99748D01*
Y99675D01*
Y99634D01*
Y99613D01*
X67854Y99363D01*
X67844Y99113D01*
X67823Y98884D01*
X67781Y98655D01*
X67750Y98447D01*
X67709Y98249D01*
X67656Y98061D01*
X67615Y97895D01*
X67563Y97738D01*
X67521Y97603D01*
X67479Y97478D01*
X67438Y97384D01*
X67407Y97301D01*
X67386Y97249D01*
X67375Y97207D01*
X67365Y97197D01*
X67261Y97009D01*
X67157Y96832D01*
X67042Y96666D01*
X66917Y96499D01*
X66792Y96364D01*
X66677Y96228D01*
X66553Y96103D01*
X66438Y95999D01*
X66323Y95895D01*
X66219Y95812D01*
X66126Y95739D01*
X66042Y95676D01*
X65980Y95635D01*
X65928Y95604D01*
X65897Y95583D01*
X65886Y95572D01*
X65699Y95468D01*
X65511Y95385D01*
X65313Y95312D01*
X65115Y95239D01*
X64720Y95135D01*
X64532Y95104D01*
X64355Y95072D01*
X64189Y95051D01*
X64032Y95031D01*
X63897Y95020D01*
X63782Y95010D01*
X63689Y95000D01*
X63553D01*
X63283Y95010D01*
X63012Y95031D01*
X62762Y95051D01*
X62543Y95093D01*
X62439Y95104D01*
X62356Y95124D01*
X62272Y95135D01*
X62210Y95145D01*
X62158Y95156D01*
X62116Y95166D01*
X62095Y95176D01*
X62085D01*
X61814Y95249D01*
X61564Y95333D01*
X61335Y95406D01*
X61137Y95489D01*
X60971Y95562D01*
X60908Y95593D01*
X60846Y95614D01*
X60804Y95635D01*
X60773Y95656D01*
X60752Y95666D01*
X60742D01*
X60523Y95791D01*
X60325Y95916D01*
X60148Y96031D01*
X60002Y96145D01*
X59877Y96239D01*
X59794Y96312D01*
X59742Y96353D01*
X59721Y96374D01*
Y99915D01*
X63574D01*
Y98405D01*
X61502D01*
Y97197D01*
X61658Y97082D01*
X61814Y96978D01*
X61970Y96895D01*
X62127Y96822D01*
X62252Y96770D01*
X62356Y96728D01*
X62397Y96718D01*
X62429Y96707D01*
X62439Y96697D01*
X62449D01*
X62658Y96645D01*
X62856Y96603D01*
X63043Y96572D01*
X63210Y96551D01*
X63355Y96541D01*
X63470Y96530D01*
X63564D01*
X63845Y96551D01*
X64105Y96593D01*
X64324Y96645D01*
X64522Y96718D01*
X64678Y96791D01*
X64741Y96822D01*
X64803Y96843D01*
X64845Y96874D01*
X64876Y96884D01*
X64886Y96905D01*
X64897D01*
X65095Y97062D01*
X65261Y97239D01*
X65407Y97426D01*
X65522Y97593D01*
X65615Y97759D01*
X65657Y97822D01*
X65688Y97884D01*
X65709Y97936D01*
X65730Y97968D01*
X65740Y97988D01*
Y97999D01*
X65834Y98280D01*
X65907Y98561D01*
X65949Y98842D01*
X65990Y99113D01*
X66001Y99228D01*
X66011Y99342D01*
Y99436D01*
X66021Y99519D01*
Y99592D01*
Y99644D01*
Y99675D01*
Y99686D01*
X66011Y99957D01*
X65990Y100206D01*
X65959Y100436D01*
X65917Y100654D01*
X65865Y100852D01*
X65813Y101029D01*
X65751Y101196D01*
X65688Y101342D01*
X65636Y101467D01*
X65574Y101581D01*
X65522Y101675D01*
X65469Y101758D01*
X65428Y101821D01*
X65397Y101862D01*
X65376Y101883D01*
X65365Y101894D01*
X65230Y102029D01*
X65095Y102143D01*
X64949Y102237D01*
X64803Y102331D01*
X64647Y102404D01*
X64491Y102456D01*
X64345Y102508D01*
X64199Y102550D01*
X64064Y102581D01*
X63939Y102602D01*
X63835Y102622D01*
X63730Y102633D01*
X63657Y102643D01*
X63543D01*
X63272Y102633D01*
X63022Y102591D01*
X62814Y102529D01*
X62637Y102466D01*
X62491Y102393D01*
X62376Y102341D01*
X62345Y102310D01*
X62314Y102300D01*
X62304Y102279D01*
X62293D01*
X62127Y102133D01*
X61981Y101966D01*
X61866Y101789D01*
X61772Y101623D01*
X61700Y101477D01*
X61658Y101352D01*
X61637Y101300D01*
X61627Y101269D01*
X61616Y101248D01*
Y101237D01*
X59825Y101571D01*
X59898Y101810D01*
X59981Y102029D01*
X60075Y102237D01*
X60179Y102425D01*
X60283Y102602D01*
X60388Y102758D01*
X60502Y102904D01*
X60606Y103039D01*
X60700Y103154D01*
X60794Y103258D01*
X60877Y103341D01*
X60960Y103404D01*
X61023Y103456D01*
X61064Y103497D01*
X61096Y103518D01*
X61106Y103528D01*
X61283Y103643D01*
X61470Y103747D01*
X61668Y103831D01*
X61877Y103903D01*
X62074Y103976D01*
X62283Y104028D01*
X62481Y104070D01*
X62668Y104101D01*
X62845Y104133D01*
X63012Y104153D01*
X63158Y104164D01*
X63293Y104174D01*
X63397Y104185D01*
X63543D01*
X63782Y104174D01*
D02*
G37*
G36*
X80018Y95156D02*
X76560D01*
X76196Y95166D01*
X75852Y95208D01*
X75529Y95260D01*
X75238Y95343D01*
X74967Y95427D01*
X74717Y95520D01*
X74498Y95635D01*
X74301Y95739D01*
X74124Y95843D01*
X73978Y95958D01*
X73842Y96051D01*
X73749Y96145D01*
X73665Y96218D01*
X73603Y96270D01*
X73572Y96312D01*
X73561Y96322D01*
X73394Y96551D01*
X73238Y96791D01*
X73113Y97051D01*
X72999Y97311D01*
X72905Y97582D01*
X72832Y97853D01*
X72770Y98113D01*
X72718Y98363D01*
X72676Y98603D01*
X72645Y98821D01*
X72624Y99019D01*
X72603Y99196D01*
Y99332D01*
X72593Y99436D01*
Y99478D01*
Y99509D01*
Y99519D01*
Y99530D01*
X72603Y99936D01*
X72634Y100321D01*
X72686Y100686D01*
X72759Y101019D01*
X72853Y101331D01*
X72957Y101623D01*
X73072Y101894D01*
X73207Y102133D01*
X73353Y102362D01*
X73509Y102570D01*
X73676Y102768D01*
X73842Y102935D01*
X74019Y103091D01*
X74196Y103237D01*
X74384Y103362D01*
X74561Y103476D01*
X74748Y103570D01*
X74936Y103664D01*
X75113Y103737D01*
X75290Y103799D01*
X75623Y103903D01*
X75779Y103935D01*
X75925Y103966D01*
X76050Y103987D01*
X76175Y104008D01*
X76279Y104018D01*
X76373Y104028D01*
X76446Y104039D01*
X80018D01*
Y95156D01*
D02*
G37*
G36*
X71114D02*
X69333D01*
Y104039D01*
X71114D01*
Y95156D01*
D02*
G37*
G36*
X58034D02*
X56253D01*
Y104039D01*
X58034D01*
Y95156D01*
D02*
G37*
G36*
X55014Y102529D02*
X52442D01*
Y95156D01*
X50661D01*
Y102529D01*
X48088D01*
Y104039D01*
X55014D01*
Y102529D01*
D02*
G37*
G36*
X47766Y95156D02*
X45860D01*
X45131Y97155D01*
X41694D01*
X40924Y95156D01*
X38966D01*
X42538Y104039D01*
X44308D01*
X47766Y95156D01*
D02*
G37*
G36*
X38008D02*
X32259D01*
Y96655D01*
X36227D01*
Y104039D01*
X38008D01*
Y95156D01*
D02*
G37*
G36*
X27896D02*
X26115D01*
Y104039D01*
X27896D01*
Y95156D01*
D02*
G37*
G36*
X20564Y104174D02*
X20793Y104164D01*
X21023Y104133D01*
X21231Y104091D01*
X21429Y104049D01*
X21627Y104008D01*
X21793Y103955D01*
X21960Y103903D01*
X22106Y103841D01*
X22231Y103789D01*
X22345Y103747D01*
X22439Y103706D01*
X22512Y103664D01*
X22574Y103633D01*
X22606Y103622D01*
X22616Y103612D01*
X22793Y103497D01*
X22959Y103383D01*
X23116Y103247D01*
X23261Y103112D01*
X23397Y102977D01*
X23522Y102852D01*
X23637Y102716D01*
X23741Y102581D01*
X23824Y102466D01*
X23907Y102352D01*
X23970Y102248D01*
X24032Y102164D01*
X24074Y102091D01*
X24105Y102029D01*
X24116Y101998D01*
X24126Y101987D01*
X24220Y101789D01*
X24293Y101581D01*
X24365Y101373D01*
X24428Y101165D01*
X24522Y100758D01*
X24553Y100561D01*
X24584Y100373D01*
X24605Y100196D01*
X24615Y100040D01*
X24626Y99894D01*
X24636Y99780D01*
X24647Y99675D01*
Y99602D01*
Y99561D01*
Y99540D01*
X24636Y99290D01*
X24626Y99051D01*
X24595Y98821D01*
X24563Y98603D01*
X24522Y98394D01*
X24480Y98207D01*
X24438Y98020D01*
X24386Y97853D01*
X24334Y97697D01*
X24293Y97561D01*
X24251Y97447D01*
X24209Y97353D01*
X24178Y97270D01*
X24147Y97218D01*
X24136Y97176D01*
X24126Y97166D01*
X24022Y96978D01*
X23907Y96801D01*
X23793Y96635D01*
X23668Y96478D01*
X23543Y96333D01*
X23407Y96208D01*
X23282Y96082D01*
X23168Y95978D01*
X23053Y95885D01*
X22949Y95801D01*
X22855Y95729D01*
X22772Y95666D01*
X22699Y95624D01*
X22647Y95593D01*
X22616Y95572D01*
X22606Y95562D01*
X22418Y95468D01*
X22220Y95374D01*
X22022Y95302D01*
X21824Y95239D01*
X21439Y95135D01*
X21252Y95104D01*
X21075Y95072D01*
X20918Y95051D01*
X20762Y95031D01*
X20627Y95020D01*
X20512Y95010D01*
X20419Y95000D01*
X20294D01*
X20054Y95010D01*
X19814Y95020D01*
X19596Y95051D01*
X19377Y95093D01*
X19179Y95135D01*
X18992Y95176D01*
X18815Y95229D01*
X18648Y95291D01*
X18502Y95343D01*
X18377Y95395D01*
X18263Y95437D01*
X18169Y95478D01*
X18096Y95520D01*
X18044Y95551D01*
X18013Y95562D01*
X18003Y95572D01*
X17825Y95687D01*
X17659Y95812D01*
X17503Y95937D01*
X17357Y96072D01*
X17221Y96208D01*
X17097Y96343D01*
X16982Y96468D01*
X16888Y96603D01*
X16795Y96718D01*
X16722Y96832D01*
X16649Y96926D01*
X16597Y97020D01*
X16555Y97093D01*
X16524Y97145D01*
X16513Y97176D01*
X16503Y97186D01*
X16409Y97384D01*
X16326Y97593D01*
X16263Y97790D01*
X16201Y97999D01*
X16107Y98394D01*
X16076Y98592D01*
X16045Y98769D01*
X16024Y98936D01*
X16013Y99092D01*
X15993Y99228D01*
Y99342D01*
X15982Y99436D01*
Y99509D01*
Y99561D01*
Y99571D01*
X15993Y99832D01*
X16003Y100071D01*
X16034Y100311D01*
X16065Y100540D01*
X16107Y100748D01*
X16149Y100946D01*
X16201Y101133D01*
X16243Y101300D01*
X16295Y101456D01*
X16347Y101592D01*
X16388Y101716D01*
X16430Y101810D01*
X16461Y101894D01*
X16492Y101946D01*
X16503Y101987D01*
X16513Y101998D01*
X16617Y102185D01*
X16732Y102362D01*
X16846Y102529D01*
X16971Y102685D01*
X17097Y102831D01*
X17221Y102966D01*
X17346Y103091D01*
X17471Y103195D01*
X17576Y103289D01*
X17690Y103372D01*
X17784Y103445D01*
X17857Y103508D01*
X17930Y103549D01*
X17982Y103581D01*
X18013Y103601D01*
X18023Y103612D01*
X18211Y103716D01*
X18398Y103799D01*
X18596Y103883D01*
X18794Y103945D01*
X19179Y104049D01*
X19367Y104080D01*
X19544Y104112D01*
X19700Y104133D01*
X19856Y104153D01*
X19992Y104164D01*
X20106Y104174D01*
X20200Y104185D01*
X20325D01*
X20564Y104174D01*
D02*
G37*
%LPC*%
G36*
X47949Y151133D02*
X47457D01*
Y151051D01*
X47047D01*
Y150969D01*
X46801D01*
Y150887D01*
X46637D01*
Y150805D01*
X46473D01*
Y150723D01*
X46309D01*
Y150641D01*
X46227D01*
Y150559D01*
X46144D01*
Y150477D01*
X45981D01*
Y150395D01*
X45898D01*
Y150231D01*
X45816D01*
Y150148D01*
X45734D01*
Y150066D01*
X45652D01*
Y149902D01*
X45570D01*
Y149820D01*
X45488D01*
Y149656D01*
X45406D01*
Y149410D01*
X45324D01*
Y149082D01*
X45242D01*
Y135957D01*
X45324D01*
Y135629D01*
X45406D01*
Y135383D01*
X45488D01*
Y135219D01*
X45570D01*
Y135055D01*
X45652D01*
Y134973D01*
X45734D01*
Y134809D01*
X45816D01*
Y134727D01*
X45898D01*
Y134645D01*
X45981D01*
Y134563D01*
X46062D01*
Y134480D01*
X46144D01*
Y134398D01*
X46227D01*
Y134316D01*
X46391D01*
Y134234D01*
X46555D01*
Y134152D01*
X46719D01*
Y134070D01*
X46883D01*
Y133988D01*
X47211D01*
Y133906D01*
X48195D01*
Y133988D01*
X48523D01*
Y134070D01*
X48688D01*
Y134152D01*
X48852D01*
Y134234D01*
X49016D01*
Y134316D01*
X49180D01*
Y134398D01*
X49262D01*
Y134480D01*
X49344D01*
Y134563D01*
X49426D01*
Y134645D01*
X49508D01*
Y134727D01*
X49590D01*
Y134809D01*
X49672D01*
Y134973D01*
X49754D01*
Y135055D01*
X49836D01*
Y135219D01*
X49918D01*
Y135383D01*
X50000D01*
Y135629D01*
X50082D01*
Y135957D01*
X50164D01*
Y149082D01*
X50082D01*
Y149410D01*
X50000D01*
Y149656D01*
X49918D01*
Y149820D01*
X49836D01*
Y149902D01*
X49754D01*
Y150066D01*
X49672D01*
Y150148D01*
X49590D01*
Y150231D01*
X49508D01*
Y150395D01*
X49426D01*
Y150477D01*
X49262D01*
Y150559D01*
X49180D01*
Y150641D01*
X49098D01*
Y150723D01*
X48934D01*
Y150805D01*
X48769D01*
Y150887D01*
X48605D01*
Y150969D01*
X48359D01*
Y151051D01*
X47949D01*
Y151133D01*
D02*
G37*
G36*
Y131445D02*
X47457D01*
Y131363D01*
X47047D01*
Y131281D01*
X46801D01*
Y131199D01*
X46637D01*
Y131117D01*
X46473D01*
Y131035D01*
X46309D01*
Y130953D01*
X46227D01*
Y130871D01*
X46144D01*
Y130789D01*
X45981D01*
Y130707D01*
X45898D01*
Y130543D01*
X45816D01*
Y130461D01*
X45734D01*
Y130379D01*
X45652D01*
Y130215D01*
X45570D01*
Y130133D01*
X45488D01*
Y129969D01*
X45406D01*
Y129723D01*
X45324D01*
Y129395D01*
X45242D01*
Y128574D01*
X45324D01*
Y128246D01*
X45406D01*
Y128000D01*
X45488D01*
Y127836D01*
X45570D01*
Y127672D01*
X45652D01*
Y127590D01*
X45734D01*
Y127426D01*
X45816D01*
Y127344D01*
X45898D01*
Y127262D01*
X45981D01*
Y127180D01*
X46062D01*
Y127098D01*
X46144D01*
Y127016D01*
X46227D01*
Y126934D01*
X46391D01*
Y126852D01*
X46555D01*
Y126770D01*
X46719D01*
Y126687D01*
X46883D01*
Y126606D01*
X47211D01*
Y126523D01*
X48195D01*
Y126606D01*
X48523D01*
Y126687D01*
X48688D01*
Y126770D01*
X48852D01*
Y126852D01*
X49016D01*
Y126934D01*
X49180D01*
Y127016D01*
X49262D01*
Y127098D01*
X49344D01*
Y127180D01*
X49426D01*
Y127262D01*
X49508D01*
Y127344D01*
X49590D01*
Y127426D01*
X49672D01*
Y127590D01*
X49754D01*
Y127672D01*
X49836D01*
Y127836D01*
X49918D01*
Y128000D01*
X50000D01*
Y128246D01*
X50082D01*
Y128492D01*
Y128574D01*
X50164D01*
Y129395D01*
X50082D01*
Y129723D01*
X50000D01*
Y129969D01*
X49918D01*
Y130133D01*
X49836D01*
Y130215D01*
X49754D01*
Y130379D01*
X49672D01*
Y130461D01*
X49590D01*
Y130543D01*
X49508D01*
Y130707D01*
X49426D01*
Y130789D01*
X49262D01*
Y130871D01*
X49180D01*
Y130953D01*
X49098D01*
Y131035D01*
X48934D01*
Y131117D01*
X48769D01*
Y131199D01*
X48605D01*
Y131281D01*
X48359D01*
Y131363D01*
X47949D01*
Y131445D01*
D02*
G37*
G36*
X338869Y191786D02*
X336578D01*
X336418Y191775D01*
X336143D01*
X336028Y191763D01*
X335857D01*
X335799Y191752D01*
X335708D01*
X335662Y191740D01*
X335650D01*
X335467Y191695D01*
X335295Y191637D01*
X335158Y191580D01*
X335043Y191500D01*
X334952Y191443D01*
X334894Y191385D01*
X334849Y191339D01*
X334837Y191328D01*
X334745Y191191D01*
X334677Y191053D01*
X334619Y190916D01*
X334585Y190778D01*
X334562Y190652D01*
X334551Y190561D01*
Y190492D01*
Y190480D01*
Y190469D01*
X334562Y190297D01*
X334585Y190137D01*
X334619Y189999D01*
X334654Y189885D01*
X334700Y189793D01*
X334734Y189724D01*
X334757Y189678D01*
X334768Y189667D01*
X334860Y189552D01*
X334952Y189461D01*
X335055Y189381D01*
X335158Y189323D01*
X335238Y189277D01*
X335307Y189243D01*
X335353Y189232D01*
X335375Y189220D01*
X335456Y189197D01*
X335570Y189174D01*
X335696Y189163D01*
X335834Y189151D01*
X336143Y189129D01*
X336475Y189106D01*
X336784D01*
X336922Y189094D01*
X338869D01*
Y191786D01*
D02*
G37*
G36*
X302384Y191110D02*
X300918Y187193D01*
X303816D01*
X302384Y191110D01*
D02*
G37*
G36*
X259272Y37572D02*
X255498D01*
X255487Y37561D01*
X255475Y37550D01*
X255464Y37539D01*
X255453Y37517D01*
Y37506D01*
Y37494D01*
Y33876D01*
X255464Y33832D01*
X255475Y33820D01*
X255487Y33809D01*
X259249D01*
X259294Y33820D01*
X259305D01*
X259327Y33854D01*
Y33876D01*
Y37494D01*
Y37528D01*
X259316Y37539D01*
X259305Y37550D01*
X259272Y37572D01*
D02*
G37*
G36*
X302715D02*
X298941D01*
X298930Y37561D01*
X298918Y37550D01*
X298907Y37539D01*
X298896Y37517D01*
Y37506D01*
Y37494D01*
Y33876D01*
X298907Y33832D01*
X298918Y33820D01*
X298930Y33809D01*
X302692D01*
X302737Y33820D01*
X302748D01*
X302770Y33854D01*
Y33876D01*
Y37494D01*
Y37528D01*
X302759Y37539D01*
X302748Y37550D01*
X302715Y37572D01*
D02*
G37*
G36*
X294234D02*
X290460D01*
X290449Y37561D01*
X290438Y37550D01*
X290427Y37539D01*
X290416Y37517D01*
Y37506D01*
Y37494D01*
Y33876D01*
X290427Y33832D01*
X290438Y33820D01*
X290449Y33809D01*
X294212D01*
X294256Y33820D01*
X294268D01*
X294290Y33854D01*
Y33876D01*
Y37494D01*
Y37528D01*
X294279Y37539D01*
X294268Y37550D01*
X294234Y37572D01*
D02*
G37*
G36*
X285732D02*
X281958D01*
X281947Y37561D01*
X281936Y37550D01*
X281925Y37539D01*
X281914Y37517D01*
Y37506D01*
Y37494D01*
Y33876D01*
X281925Y33832D01*
X281936Y33820D01*
X281947Y33809D01*
X285710D01*
X285754Y33820D01*
X285765D01*
X285787Y33854D01*
Y33876D01*
Y37494D01*
Y37528D01*
X285776Y37539D01*
X285765Y37550D01*
X285732Y37572D01*
D02*
G37*
G36*
X276885D02*
X273111D01*
X273100Y37561D01*
X273089Y37550D01*
X273078Y37539D01*
X273067Y37517D01*
Y37506D01*
Y37494D01*
Y33876D01*
X273078Y33832D01*
X273089Y33820D01*
X273100Y33809D01*
X276863D01*
X276908Y33820D01*
X276919D01*
X276941Y33854D01*
Y33876D01*
Y37494D01*
Y37528D01*
X276930Y37539D01*
X276919Y37550D01*
X276885Y37572D01*
D02*
G37*
G36*
X338869Y226968D02*
X336910D01*
X336716Y226957D01*
X336406D01*
X336269Y226945D01*
X336074D01*
X335994Y226934D01*
X335891D01*
X335857Y226922D01*
X335822D01*
X335627Y226888D01*
X335467Y226842D01*
X335330Y226785D01*
X335215Y226716D01*
X335123Y226659D01*
X335055Y226602D01*
X335020Y226567D01*
X335009Y226556D01*
X334917Y226430D01*
X334849Y226304D01*
X334803Y226166D01*
X334768Y226040D01*
X334745Y225937D01*
X334734Y225846D01*
Y225788D01*
Y225765D01*
X334745Y225582D01*
X334780Y225422D01*
X334837Y225273D01*
X334894Y225158D01*
X334952Y225055D01*
X335009Y224986D01*
X335043Y224941D01*
X335055Y224929D01*
X335181Y224826D01*
X335318Y224746D01*
X335467Y224677D01*
X335605Y224631D01*
X335719Y224597D01*
X335822Y224574D01*
X335891Y224563D01*
X335983D01*
X336074Y224551D01*
X336177D01*
X336292Y224540D01*
X336544D01*
X336807Y224528D01*
X338869D01*
Y226968D01*
D02*
G37*
G36*
Y222764D02*
X336888D01*
X336647Y222753D01*
X336429D01*
X336235Y222741D01*
X336063Y222730D01*
X335902Y222718D01*
X335765Y222695D01*
X335650Y222684D01*
X335547Y222672D01*
X335467Y222649D01*
X335398Y222638D01*
X335341Y222627D01*
X335295Y222615D01*
X335272D01*
X335249Y222604D01*
X335101Y222535D01*
X334963Y222466D01*
X334849Y222386D01*
X334757Y222306D01*
X334677Y222237D01*
X334631Y222180D01*
X334596Y222134D01*
X334585Y222123D01*
X334505Y221997D01*
X334448Y221859D01*
X334402Y221722D01*
X334379Y221596D01*
X334356Y221493D01*
X334344Y221401D01*
Y221344D01*
Y221321D01*
X334356Y221126D01*
X334390Y220943D01*
X334448Y220794D01*
X334493Y220668D01*
X334551Y220565D01*
X334608Y220484D01*
X334642Y220439D01*
X334654Y220427D01*
X334768Y220313D01*
X334906Y220221D01*
X335032Y220152D01*
X335158Y220095D01*
X335261Y220049D01*
X335353Y220026D01*
X335410Y220003D01*
X335433D01*
X335501Y219992D01*
X335582Y219980D01*
X335685D01*
X335788Y219969D01*
X336028Y219958D01*
X336280D01*
X336521Y219946D01*
X338869D01*
Y222764D01*
D02*
G37*
G36*
X326188Y226269D02*
X324722Y222352D01*
X327620D01*
X326188Y226269D01*
D02*
G37*
G36*
X272405Y226945D02*
X270973D01*
X270801Y226934D01*
X270652D01*
X270515Y226922D01*
X270389D01*
X270274Y226911D01*
X270171D01*
X270091Y226900D01*
X270022Y226888D01*
X269965D01*
X269919Y226877D01*
X269862Y226865D01*
X269839D01*
X269656Y226819D01*
X269484Y226751D01*
X269335Y226682D01*
X269221Y226602D01*
X269117Y226521D01*
X269037Y226453D01*
X268991Y226407D01*
X268980Y226395D01*
X268865Y226246D01*
X268785Y226086D01*
X268716Y225926D01*
X268682Y225777D01*
X268659Y225651D01*
X268636Y225536D01*
Y225467D01*
Y225456D01*
Y225445D01*
X268648Y225273D01*
X268671Y225112D01*
X268716Y224975D01*
X268762Y224860D01*
X268808Y224757D01*
X268854Y224689D01*
X268877Y224631D01*
X268888Y224620D01*
X268980Y224494D01*
X269095Y224391D01*
X269209Y224299D01*
X269312Y224219D01*
X269404Y224162D01*
X269484Y224127D01*
X269530Y224104D01*
X269553Y224093D01*
X269644Y224070D01*
X269747Y224036D01*
X269862Y224024D01*
X269999Y224001D01*
X270274Y223967D01*
X270549Y223955D01*
X270813Y223944D01*
X270927Y223932D01*
X272405D01*
Y226945D01*
D02*
G37*
G36*
X260537Y226269D02*
X259071Y222352D01*
X261969D01*
X260537Y226269D01*
D02*
G37*
G36*
X224831Y227083D02*
X224705D01*
X224464Y227071D01*
X224235Y227048D01*
X224018Y227003D01*
X223823Y226945D01*
X223628Y226877D01*
X223456Y226796D01*
X223296Y226716D01*
X223147Y226636D01*
X223021Y226544D01*
X222906Y226464D01*
X222815Y226384D01*
X222735Y226315D01*
X222666Y226258D01*
X222620Y226212D01*
X222597Y226189D01*
X222586Y226178D01*
X222448Y226006D01*
X222322Y225800D01*
X222219Y225593D01*
X222116Y225376D01*
X222047Y225158D01*
X221978Y224929D01*
X221921Y224700D01*
X221887Y224482D01*
X221852Y224276D01*
X221829Y224081D01*
X221807Y223910D01*
X221795Y223761D01*
X221784Y223635D01*
Y223543D01*
Y223486D01*
Y223463D01*
X221795Y223131D01*
X221818Y222810D01*
X221864Y222523D01*
X221910Y222249D01*
X221978Y222008D01*
X222047Y221779D01*
X222116Y221573D01*
X222196Y221389D01*
X222276Y221229D01*
X222345Y221092D01*
X222414Y220965D01*
X222482Y220874D01*
X222528Y220794D01*
X222574Y220748D01*
X222597Y220714D01*
X222608Y220702D01*
X222769Y220542D01*
X222941Y220404D01*
X223113Y220278D01*
X223284Y220175D01*
X223456Y220084D01*
X223639Y220015D01*
X223800Y219946D01*
X223960Y219900D01*
X224121Y219866D01*
X224258Y219832D01*
X224384Y219809D01*
X224487Y219797D01*
X224579D01*
X224648Y219786D01*
X224705D01*
X224934Y219797D01*
X225163Y219832D01*
X225381Y219877D01*
X225575Y219935D01*
X225759Y220003D01*
X225931Y220084D01*
X226091Y220164D01*
X226240Y220255D01*
X226366Y220336D01*
X226480Y220416D01*
X226583Y220496D01*
X226664Y220565D01*
X226732Y220633D01*
X226778Y220679D01*
X226801Y220702D01*
X226813Y220714D01*
X226961Y220897D01*
X227087Y221103D01*
X227191Y221309D01*
X227294Y221527D01*
X227374Y221756D01*
X227431Y221985D01*
X227488Y222203D01*
X227534Y222420D01*
X227569Y222627D01*
X227591Y222821D01*
X227614Y222993D01*
X227626Y223142D01*
Y223268D01*
X227637Y223360D01*
Y223417D01*
Y223440D01*
X227626Y223772D01*
X227603Y224081D01*
X227569Y224368D01*
X227511Y224631D01*
X227454Y224883D01*
X227385Y225101D01*
X227305Y225307D01*
X227236Y225490D01*
X227156Y225651D01*
X227087Y225788D01*
X227019Y225903D01*
X226961Y225994D01*
X226904Y226075D01*
X226870Y226120D01*
X226847Y226155D01*
X226835Y226166D01*
X226675Y226327D01*
X226515Y226464D01*
X226331Y226590D01*
X226160Y226693D01*
X225976Y226785D01*
X225805Y226865D01*
X225633Y226922D01*
X225461Y226968D01*
X225312Y227003D01*
X225163Y227037D01*
X225037Y227060D01*
X224922Y227071D01*
X224831Y227083D01*
D02*
G37*
G36*
X308524Y213891D02*
X307092D01*
X306920Y213879D01*
X306771D01*
X306634Y213868D01*
X306508D01*
X306393Y213856D01*
X306290D01*
X306210Y213845D01*
X306141Y213833D01*
X306084D01*
X306038Y213822D01*
X305981Y213811D01*
X305958D01*
X305775Y213765D01*
X305603Y213696D01*
X305454Y213627D01*
X305339Y213547D01*
X305236Y213467D01*
X305156Y213398D01*
X305110Y213352D01*
X305099Y213341D01*
X304984Y213192D01*
X304904Y213032D01*
X304835Y212871D01*
X304801Y212722D01*
X304778Y212596D01*
X304755Y212482D01*
Y212413D01*
Y212402D01*
Y212390D01*
X304767Y212218D01*
X304790Y212058D01*
X304835Y211920D01*
X304881Y211806D01*
X304927Y211703D01*
X304973Y211634D01*
X304996Y211577D01*
X305007Y211565D01*
X305099Y211439D01*
X305213Y211336D01*
X305328Y211245D01*
X305431Y211164D01*
X305523Y211107D01*
X305603Y211073D01*
X305649Y211050D01*
X305672Y211038D01*
X305763Y211015D01*
X305866Y210981D01*
X305981Y210970D01*
X306118Y210947D01*
X306393Y210912D01*
X306668Y210901D01*
X306932Y210889D01*
X307046Y210878D01*
X308524D01*
Y213891D01*
D02*
G37*
G36*
X296656Y213215D02*
X295190Y209297D01*
X298088D01*
X296656Y213215D01*
D02*
G37*
G36*
X288007Y213891D02*
X286610D01*
X286415Y213879D01*
X286232D01*
X286071Y213868D01*
X285922Y213856D01*
X285796Y213845D01*
X285693D01*
X285590Y213833D01*
X285510Y213822D01*
X285441Y213811D01*
X285396Y213799D01*
X285350D01*
X285327Y213788D01*
X285304D01*
X285086Y213730D01*
X284891Y213650D01*
X284720Y213570D01*
X284582Y213490D01*
X284468Y213410D01*
X284376Y213341D01*
X284330Y213295D01*
X284307Y213284D01*
X284170Y213135D01*
X284044Y212974D01*
X283941Y212802D01*
X283860Y212642D01*
X283792Y212493D01*
X283734Y212367D01*
X283723Y212333D01*
X283711Y212298D01*
X283700Y212276D01*
Y212264D01*
X283666Y212138D01*
X283631Y212001D01*
X283574Y211691D01*
X283540Y211382D01*
X283505Y211084D01*
Y210935D01*
X283494Y210809D01*
Y210695D01*
X283482Y210592D01*
Y210500D01*
Y210443D01*
Y210397D01*
Y210385D01*
Y210168D01*
X283494Y209950D01*
X283505Y209755D01*
X283517Y209561D01*
X283528Y209389D01*
X283551Y209240D01*
X283574Y209091D01*
X283585Y208953D01*
X283608Y208839D01*
X283631Y208736D01*
X283654Y208656D01*
X283666Y208575D01*
X283677Y208518D01*
X283689Y208484D01*
X283700Y208461D01*
Y208449D01*
X283792Y208197D01*
X283883Y207991D01*
X283975Y207819D01*
X284067Y207670D01*
X284135Y207567D01*
X284204Y207487D01*
X284250Y207441D01*
X284261Y207430D01*
X284399Y207327D01*
X284536Y207235D01*
X284685Y207155D01*
X284823Y207086D01*
X284937Y207040D01*
X285029Y207006D01*
X285098Y206995D01*
X285109Y206983D01*
X285121D01*
X285201Y206972D01*
X285292Y206949D01*
X285487Y206926D01*
X285705Y206914D01*
X285922Y206903D01*
X286106Y206891D01*
X288007D01*
Y213891D01*
D02*
G37*
G36*
X304412Y131554D02*
X300405D01*
X300393Y131542D01*
X300382Y131530D01*
X300370Y131519D01*
X300358Y131495D01*
Y131483D01*
Y131472D01*
Y127629D01*
X300370Y127582D01*
X300382Y127570D01*
X300393Y127559D01*
X304389D01*
X304436Y127570D01*
X304447D01*
X304471Y127606D01*
Y127629D01*
Y131472D01*
Y131507D01*
X304459Y131519D01*
X304447Y131530D01*
X304412Y131554D01*
D02*
G37*
G36*
X295408D02*
X291401D01*
X291389Y131542D01*
X291377Y131530D01*
X291366Y131519D01*
X291354Y131495D01*
Y131483D01*
Y131472D01*
Y127629D01*
X291366Y127582D01*
X291377Y127570D01*
X291389Y127559D01*
X295384D01*
X295431Y127570D01*
X295443D01*
X295467Y127606D01*
Y127629D01*
Y131472D01*
Y131507D01*
X295455Y131519D01*
X295443Y131530D01*
X295408Y131554D01*
D02*
G37*
G36*
X286380D02*
X282373D01*
X282361Y131542D01*
X282349Y131530D01*
X282338Y131519D01*
X282326Y131495D01*
Y131483D01*
Y131472D01*
Y127629D01*
X282338Y127582D01*
X282349Y127570D01*
X282361Y127559D01*
X286357D01*
X286404Y127570D01*
X286416D01*
X286439Y127606D01*
Y127629D01*
Y131472D01*
Y131507D01*
X286427Y131519D01*
X286416Y131530D01*
X286380Y131554D01*
D02*
G37*
G36*
X276987D02*
X272980D01*
X272968Y131542D01*
X272956Y131530D01*
X272945Y131519D01*
X272933Y131495D01*
Y131483D01*
Y131472D01*
Y127629D01*
X272945Y127582D01*
X272956Y127570D01*
X272968Y127559D01*
X276964D01*
X277011Y127570D01*
X277022D01*
X277046Y127606D01*
Y127629D01*
Y131472D01*
Y131507D01*
X277034Y131519D01*
X277022Y131530D01*
X276987Y131554D01*
D02*
G37*
G36*
X311660Y121734D02*
X305933D01*
X305909Y121722D01*
X305897Y121711D01*
X305885Y121687D01*
X305874Y121675D01*
X305885Y121664D01*
Y121652D01*
Y115995D01*
X305874Y115959D01*
X305885Y115948D01*
X305897Y115924D01*
X305921Y115912D01*
X311660D01*
X311684Y115924D01*
X311696Y115971D01*
Y115983D01*
Y115995D01*
Y121652D01*
X311684Y121699D01*
Y121711D01*
X311660Y121734D01*
D02*
G37*
G36*
X152672Y77330D02*
X150481D01*
Y76185D01*
X150490Y75950D01*
X150526Y75752D01*
X150571Y75590D01*
X150625Y75455D01*
X150679Y75346D01*
X150724Y75274D01*
X150760Y75229D01*
X150769Y75211D01*
X150886Y75103D01*
X151013Y75031D01*
X151148Y74977D01*
X151274Y74932D01*
X151391Y74913D01*
X151482Y74904D01*
X151518Y74895D01*
X151545D01*
X151563D01*
X151572D01*
X151761Y74904D01*
X151923Y74941D01*
X152068Y74986D01*
X152185Y75040D01*
X152275Y75103D01*
X152338Y75148D01*
X152383Y75184D01*
X152392Y75193D01*
X152437Y75256D01*
X152483Y75319D01*
X152555Y75472D01*
X152600Y75635D01*
X152636Y75797D01*
X152654Y75950D01*
X152663Y76013D01*
Y76068D01*
X152672Y76122D01*
Y77330D01*
D02*
G37*
G36*
X153826Y70161D02*
X152095Y69530D01*
X151860Y69449D01*
X151635Y69377D01*
X151419Y69323D01*
X151229Y69278D01*
X151139Y69260D01*
X151067Y69251D01*
X150995Y69233D01*
X150941Y69224D01*
X150896Y69215D01*
X150859Y69206D01*
X150841D01*
X150832D01*
Y69161D01*
X150922Y69152D01*
X151013Y69134D01*
X151103Y69106D01*
X151193Y69089D01*
X151274Y69070D01*
X151337Y69052D01*
X151382Y69034D01*
X151400D01*
X151653Y68953D01*
X151770Y68917D01*
X151878Y68881D01*
X151968Y68854D01*
X152032Y68827D01*
X152077Y68818D01*
X152095Y68809D01*
X153826Y68160D01*
Y70161D01*
D02*
G37*
G36*
X155566Y62930D02*
X150481D01*
Y61713D01*
X150490Y61442D01*
X150517Y61208D01*
X150562Y61009D01*
X150598Y60838D01*
X150625Y60766D01*
X150643Y60703D01*
X150670Y60648D01*
X150688Y60603D01*
X150697Y60567D01*
X150715Y60540D01*
X150724Y60531D01*
Y60522D01*
X150832Y60360D01*
X150950Y60225D01*
X151085Y60117D01*
X151220Y60017D01*
X151337Y59945D01*
X151437Y59891D01*
X151473Y59882D01*
X151500Y59864D01*
X151518Y59855D01*
X151527D01*
X151635Y59819D01*
X151752Y59783D01*
X151996Y59729D01*
X152248Y59693D01*
X152492Y59666D01*
X152600Y59657D01*
X152699Y59648D01*
X152798D01*
X152879Y59639D01*
X152942D01*
X152987D01*
X153024D01*
X153033D01*
X153204D01*
X153375Y59648D01*
X153528Y59657D01*
X153673Y59666D01*
X153808Y59684D01*
X153934Y59702D01*
X154051Y59720D01*
X154151Y59738D01*
X154241Y59756D01*
X154322Y59774D01*
X154394Y59792D01*
X154448Y59810D01*
X154493Y59819D01*
X154520Y59828D01*
X154538Y59837D01*
X154547D01*
X154737Y59918D01*
X154899Y60017D01*
X155034Y60126D01*
X155142Y60234D01*
X155224Y60324D01*
X155287Y60405D01*
X155323Y60459D01*
X155332Y60468D01*
Y60477D01*
X155413Y60658D01*
X155467Y60856D01*
X155512Y61054D01*
X155539Y61244D01*
X155557Y61415D01*
Y61496D01*
X155566Y61559D01*
Y62930D01*
D02*
G37*
G36*
X153429Y55590D02*
X153348D01*
X153276D01*
X153231D01*
X153195D01*
X153186D01*
X152978D01*
X152780Y55581D01*
X152591D01*
X152419Y55572D01*
X152266Y55563D01*
X152122Y55554D01*
X151987Y55545D01*
X151869Y55527D01*
X151770Y55518D01*
X151680Y55509D01*
X151599Y55500D01*
X151536Y55491D01*
X151491Y55482D01*
X151454D01*
X151437Y55473D01*
X151427D01*
X151319Y55446D01*
X151211Y55428D01*
X151040Y55374D01*
X150896Y55311D01*
X150778Y55256D01*
X150697Y55211D01*
X150643Y55166D01*
X150607Y55139D01*
X150598Y55130D01*
X150526Y55040D01*
X150472Y54932D01*
X150427Y54833D01*
X150400Y54733D01*
X150381Y54643D01*
X150372Y54571D01*
Y54508D01*
X150381Y54373D01*
X150409Y54255D01*
X150454Y54156D01*
X150490Y54066D01*
X150535Y54003D01*
X150580Y53949D01*
X150607Y53922D01*
X150616Y53913D01*
X150724Y53832D01*
X150850Y53769D01*
X150986Y53706D01*
X151121Y53660D01*
X151247Y53624D01*
X151346Y53597D01*
X151391Y53588D01*
X151419D01*
X151437Y53579D01*
X151446D01*
X151563Y53561D01*
X151680Y53543D01*
X151951Y53516D01*
X152221Y53498D01*
X152483Y53480D01*
X152600D01*
X152717D01*
X152816Y53471D01*
X152906D01*
X152978D01*
X153033D01*
X153069D01*
X153078D01*
X153258D01*
X153438D01*
X153601Y53480D01*
X153754Y53489D01*
X153898Y53498D01*
X154024Y53507D01*
X154142Y53516D01*
X154250Y53525D01*
X154349Y53534D01*
X154430Y53543D01*
X154502Y53552D01*
X154565Y53561D01*
X154611Y53570D01*
X154647D01*
X154665Y53579D01*
X154674D01*
X154881Y53624D01*
X155052Y53678D01*
X155197Y53733D01*
X155314Y53787D01*
X155404Y53841D01*
X155467Y53886D01*
X155512Y53913D01*
X155521Y53922D01*
X155602Y54012D01*
X155666Y54111D01*
X155711Y54219D01*
X155738Y54319D01*
X155756Y54409D01*
X155774Y54481D01*
Y54544D01*
X155765Y54679D01*
X155738Y54797D01*
X155693Y54896D01*
X155647Y54986D01*
X155611Y55058D01*
X155566Y55103D01*
X155539Y55139D01*
X155530Y55148D01*
X155422Y55229D01*
X155305Y55292D01*
X155169Y55356D01*
X155034Y55401D01*
X154908Y55437D01*
X154809Y55464D01*
X154773Y55473D01*
X154746D01*
X154728Y55482D01*
X154719D01*
X154611Y55500D01*
X154493Y55518D01*
X154241Y55545D01*
X153979Y55563D01*
X153736Y55572D01*
X153628Y55581D01*
X153519D01*
X153429Y55590D01*
D02*
G37*
G36*
X152807Y171667D02*
X150616D01*
Y170522D01*
X150625Y170288D01*
X150661Y170089D01*
X150706Y169927D01*
X150760Y169792D01*
X150814Y169683D01*
X150859Y169611D01*
X150896Y169566D01*
X150905Y169548D01*
X151022Y169440D01*
X151148Y169368D01*
X151283Y169314D01*
X151410Y169269D01*
X151527Y169251D01*
X151617Y169242D01*
X151653Y169233D01*
X151680D01*
X151698D01*
X151707D01*
X151896Y169242D01*
X152059Y169278D01*
X152203Y169323D01*
X152320Y169377D01*
X152410Y169440D01*
X152473Y169485D01*
X152519Y169521D01*
X152528Y169530D01*
X152573Y169593D01*
X152618Y169657D01*
X152690Y169810D01*
X152735Y169972D01*
X152771Y170134D01*
X152789Y170288D01*
X152798Y170351D01*
Y170405D01*
X152807Y170459D01*
Y171667D01*
D02*
G37*
G36*
X153961Y164499D02*
X152230Y163868D01*
X151996Y163786D01*
X151770Y163714D01*
X151554Y163660D01*
X151364Y163615D01*
X151274Y163597D01*
X151202Y163588D01*
X151130Y163570D01*
X151076Y163561D01*
X151031Y163552D01*
X150995Y163543D01*
X150977D01*
X150968D01*
Y163498D01*
X151058Y163489D01*
X151148Y163471D01*
X151238Y163444D01*
X151328Y163426D01*
X151410Y163408D01*
X151473Y163390D01*
X151518Y163372D01*
X151536D01*
X151788Y163291D01*
X151905Y163254D01*
X152014Y163218D01*
X152104Y163191D01*
X152167Y163164D01*
X152212Y163155D01*
X152230Y163146D01*
X153961Y162497D01*
Y164499D01*
D02*
G37*
G36*
X155702Y157267D02*
X150616D01*
Y156050D01*
X150625Y155779D01*
X150652Y155545D01*
X150697Y155346D01*
X150733Y155175D01*
X150760Y155103D01*
X150778Y155040D01*
X150805Y154986D01*
X150823Y154941D01*
X150832Y154905D01*
X150850Y154878D01*
X150859Y154869D01*
Y154860D01*
X150968Y154697D01*
X151085Y154562D01*
X151220Y154454D01*
X151355Y154355D01*
X151473Y154283D01*
X151572Y154228D01*
X151608Y154219D01*
X151635Y154201D01*
X151653Y154192D01*
X151662D01*
X151770Y154156D01*
X151887Y154120D01*
X152131Y154066D01*
X152383Y154030D01*
X152627Y154003D01*
X152735Y153994D01*
X152834Y153985D01*
X152933D01*
X153014Y153976D01*
X153078D01*
X153123D01*
X153159D01*
X153168D01*
X153339D01*
X153510Y153985D01*
X153664Y153994D01*
X153808Y154003D01*
X153943Y154021D01*
X154069Y154039D01*
X154187Y154057D01*
X154286Y154075D01*
X154376Y154093D01*
X154457Y154111D01*
X154529Y154129D01*
X154584Y154147D01*
X154628Y154156D01*
X154656Y154165D01*
X154674Y154174D01*
X154683D01*
X154872Y154255D01*
X155034Y154355D01*
X155170Y154463D01*
X155278Y154571D01*
X155359Y154661D01*
X155422Y154742D01*
X155458Y154796D01*
X155467Y154805D01*
Y154815D01*
X155548Y154995D01*
X155602Y155193D01*
X155647Y155392D01*
X155674Y155581D01*
X155693Y155752D01*
Y155833D01*
X155702Y155897D01*
Y157267D01*
D02*
G37*
G36*
X32681Y113084D02*
X32629D01*
X32619Y112980D01*
X32598Y112876D01*
X32566Y112772D01*
X32546Y112668D01*
X32525Y112574D01*
X32504Y112501D01*
X32483Y112449D01*
Y112428D01*
X32389Y112137D01*
X32348Y112001D01*
X32306Y111876D01*
X32275Y111772D01*
X32244Y111699D01*
X32233Y111647D01*
X32223Y111627D01*
X31473Y109627D01*
X33785D01*
X33056Y111627D01*
X32962Y111897D01*
X32879Y112158D01*
X32816Y112408D01*
X32764Y112626D01*
X32743Y112730D01*
X32733Y112814D01*
X32712Y112897D01*
X32702Y112959D01*
X32691Y113012D01*
X32681Y113053D01*
Y113074D01*
Y113084D01*
D02*
G37*
G36*
X78237Y102529D02*
X76831D01*
X76519Y102518D01*
X76248Y102487D01*
X76019Y102435D01*
X75821Y102393D01*
X75738Y102362D01*
X75665Y102341D01*
X75602Y102310D01*
X75550Y102289D01*
X75509Y102279D01*
X75477Y102258D01*
X75467Y102248D01*
X75457D01*
X75269Y102123D01*
X75113Y101987D01*
X74988Y101831D01*
X74873Y101675D01*
X74790Y101539D01*
X74728Y101425D01*
X74717Y101383D01*
X74696Y101352D01*
X74686Y101331D01*
Y101321D01*
X74644Y101196D01*
X74603Y101060D01*
X74540Y100779D01*
X74498Y100488D01*
X74467Y100206D01*
X74457Y100082D01*
X74446Y99967D01*
Y99852D01*
X74436Y99759D01*
Y99686D01*
Y99634D01*
Y99592D01*
Y99582D01*
Y99384D01*
X74446Y99186D01*
X74457Y99009D01*
X74467Y98842D01*
X74488Y98686D01*
X74509Y98540D01*
X74530Y98405D01*
X74550Y98290D01*
X74571Y98186D01*
X74592Y98092D01*
X74613Y98009D01*
X74634Y97947D01*
X74644Y97895D01*
X74655Y97863D01*
X74665Y97843D01*
Y97832D01*
X74759Y97613D01*
X74873Y97426D01*
X74998Y97270D01*
X75123Y97145D01*
X75227Y97051D01*
X75321Y96978D01*
X75384Y96937D01*
X75394Y96926D01*
X75404D01*
X75613Y96832D01*
X75842Y96770D01*
X76071Y96718D01*
X76290Y96686D01*
X76487Y96666D01*
X76581D01*
X76654Y96655D01*
X78237D01*
Y102529D01*
D02*
G37*
G36*
X43475Y102123D02*
X43423D01*
X43413Y102018D01*
X43392Y101914D01*
X43361Y101810D01*
X43340Y101706D01*
X43319Y101612D01*
X43298Y101539D01*
X43277Y101487D01*
Y101467D01*
X43183Y101175D01*
X43142Y101040D01*
X43100Y100915D01*
X43069Y100810D01*
X43038Y100738D01*
X43027Y100686D01*
X43017Y100665D01*
X42267Y98665D01*
X44579D01*
X43850Y100665D01*
X43756Y100935D01*
X43673Y101196D01*
X43611Y101446D01*
X43558Y101664D01*
X43538Y101769D01*
X43527Y101852D01*
X43506Y101935D01*
X43496Y101998D01*
X43485Y102050D01*
X43475Y102091D01*
Y102112D01*
Y102123D01*
D02*
G37*
G36*
X20398Y102643D02*
X20325D01*
X20044Y102622D01*
X19783Y102581D01*
X19554Y102518D01*
X19356Y102445D01*
X19200Y102373D01*
X19138Y102341D01*
X19086Y102310D01*
X19033Y102289D01*
X19002Y102268D01*
X18992Y102248D01*
X18981D01*
X18784Y102091D01*
X18606Y101914D01*
X18461Y101737D01*
X18346Y101571D01*
X18252Y101414D01*
X18180Y101290D01*
X18159Y101237D01*
X18138Y101206D01*
X18127Y101185D01*
Y101175D01*
X18023Y100915D01*
X17950Y100644D01*
X17898Y100384D01*
X17867Y100134D01*
X17846Y100029D01*
X17836Y99925D01*
Y99842D01*
X17825Y99759D01*
Y99696D01*
Y99655D01*
Y99623D01*
Y99613D01*
X17836Y99280D01*
X17867Y98978D01*
X17919Y98707D01*
X17950Y98582D01*
X17971Y98467D01*
X18003Y98374D01*
X18034Y98280D01*
X18054Y98197D01*
X18075Y98134D01*
X18096Y98082D01*
X18117Y98040D01*
X18127Y98020D01*
Y98009D01*
X18252Y97759D01*
X18388Y97541D01*
X18523Y97353D01*
X18659Y97197D01*
X18784Y97082D01*
X18888Y96989D01*
X18929Y96957D01*
X18961Y96937D01*
X18971Y96916D01*
X18981D01*
X19200Y96791D01*
X19429Y96697D01*
X19648Y96624D01*
X19856Y96582D01*
X20033Y96551D01*
X20106Y96541D01*
X20179D01*
X20231Y96530D01*
X20304D01*
X20585Y96551D01*
X20845Y96593D01*
X21075Y96655D01*
X21272Y96728D01*
X21439Y96791D01*
X21502Y96822D01*
X21554Y96853D01*
X21595Y96884D01*
X21627Y96895D01*
X21647Y96916D01*
X21658D01*
X21856Y97072D01*
X22033Y97249D01*
X22178Y97436D01*
X22293Y97603D01*
X22387Y97759D01*
X22460Y97884D01*
X22480Y97936D01*
X22501Y97968D01*
X22512Y97988D01*
Y97999D01*
X22606Y98270D01*
X22678Y98540D01*
X22730Y98811D01*
X22762Y99061D01*
X22782Y99165D01*
Y99269D01*
X22793Y99363D01*
X22803Y99446D01*
Y99509D01*
Y99550D01*
Y99582D01*
Y99592D01*
X22793Y99915D01*
X22762Y100206D01*
X22710Y100477D01*
X22657Y100706D01*
X22626Y100810D01*
X22606Y100904D01*
X22574Y100977D01*
X22553Y101040D01*
X22543Y101092D01*
X22522Y101133D01*
X22512Y101154D01*
Y101165D01*
X22387Y101414D01*
X22251Y101633D01*
X22106Y101810D01*
X21970Y101966D01*
X21845Y102091D01*
X21741Y102175D01*
X21699Y102206D01*
X21668Y102227D01*
X21658Y102248D01*
X21647D01*
X21429Y102383D01*
X21200Y102477D01*
X20981Y102550D01*
X20773Y102591D01*
X20596Y102622D01*
X20523Y102633D01*
X20450D01*
X20398Y102643D01*
D02*
G37*
%LPD*%
D12*
X194000Y209999D02*
X195999D01*
X194999D01*
Y205001D01*
X195999Y204001D01*
X196999D01*
X197998Y205001D01*
X188002Y204001D02*
X192000D01*
X188002Y208000D01*
Y208999D01*
X189001Y209999D01*
X191001D01*
X192000Y208999D01*
X194000Y114999D02*
X195999D01*
X195000D01*
Y110001D01*
X195999Y109001D01*
X196999D01*
X197999Y110001D01*
X192001Y109001D02*
X190001D01*
X191001D01*
Y114999D01*
X192001Y113999D01*
D25*
X162200Y59000D02*
G03*
X162200Y59000I-1000J0D01*
G01*
X162200Y154000D02*
G03*
X162200Y154000I-1000J0D01*
G01*
D26*
X199000Y52500D02*
Y100500D01*
X167500Y46500D02*
X186500D01*
X167500D02*
Y55000D01*
Y106500D02*
X186500D01*
X167500Y98000D02*
Y106500D01*
X167500Y141500D02*
Y150000D01*
Y193000D02*
Y201500D01*
Y141500D02*
X186500D01*
X199000Y147500D02*
Y195500D01*
X167500Y201500D02*
X186500D01*
M02*
