G04*
G04 #@! TF.GenerationSoftware,Altium Limited,Altium Designer,25.8.1 (18)*
G04*
G04 Layer_Physical_Order=1*
G04 Layer_Color=255*
%FSLAX44Y44*%
%MOMM*%
G71*
G04*
G04 #@! TF.SameCoordinates,F83E8CA7-1A66-40D5-A182-8CEAB01B8E9A*
G04*
G04*
G04 #@! TF.FilePolarity,Positive*
G04*
G01*
G75*
%ADD18C,0.5000*%
G04:AMPARAMS|DCode=19|XSize=1.8mm|YSize=1.5mm|CornerRadius=0.375mm|HoleSize=0mm|Usage=FLASHONLY|Rotation=90.000|XOffset=0mm|YOffset=0mm|HoleType=Round|Shape=RoundedRectangle|*
%AMROUNDEDRECTD19*
21,1,1.8000,0.7500,0,0,90.0*
21,1,1.0500,1.5000,0,0,90.0*
1,1,0.7500,0.3750,0.5250*
1,1,0.7500,0.3750,-0.5250*
1,1,0.7500,-0.3750,-0.5250*
1,1,0.7500,-0.3750,0.5250*
%
%ADD19ROUNDEDRECTD19*%
%ADD20R,1.5000X1.8000*%
%ADD21R,0.9000X0.9000*%
%ADD22C,0.9000*%
%ADD23C,1.8000*%
%ADD24C,2.5000*%
D18*
X180800Y-59200D02*
X210000D01*
X170000Y-70000D02*
X180800Y-59200D01*
Y-110000D02*
X210000D01*
X170000Y-120800D02*
X180800Y-110000D01*
X150000Y-100800D02*
X170000Y-120800D01*
X150000Y-100800D02*
Y-39200D01*
X170000Y-19200D01*
D19*
Y-70000D02*
D03*
Y-120800D02*
D03*
D20*
Y-19200D02*
D03*
D21*
X210000Y-110000D02*
D03*
D22*
Y-33800D02*
D03*
Y-46500D02*
D03*
Y-59200D02*
D03*
Y-97300D02*
D03*
Y-84600D02*
D03*
Y-71900D02*
D03*
Y-21100D02*
D03*
D23*
X71000Y-19000D02*
D03*
X125000D02*
D03*
X197000Y19000D02*
D03*
X143000D02*
D03*
D24*
X98000Y-19000D02*
D03*
X170000Y19000D02*
D03*
M02*
